<?xml version="1.0" encoding="UTF-8" standalone="no"?>
<svg
   width="54"
   height="32"
   version="1.1"
   id="svg80"
   sodipodi:docname="applications.svg"
   inkscape:version="1.1.1 (3bf5ae0d25, 2021-09-20, custom)"
   xmlns:inkscape="http://www.inkscape.org/namespaces/inkscape"
   xmlns:sodipodi="http://sodipodi.sourceforge.net/DTD/sodipodi-0.dtd"
   xmlns="http://www.w3.org/2000/svg"
   xmlns:svg="http://www.w3.org/2000/svg">
  <sodipodi:namedview
     id="namedview82"
     pagecolor="#ffffff"
     bordercolor="#666666"
     borderopacity="1.0"
     inkscape:pageshadow="2"
     inkscape:pageopacity="0.0"
     inkscape:pagecheckerboard="0"
     showgrid="true"
     inkscape:snap-smooth-nodes="false"
     inkscape:snap-bbox="true"
     inkscape:bbox-nodes="true"
     inkscape:snap-bbox-edge-midpoints="false"
     inkscape:zoom="6.0877474"
     inkscape:cx="14.619529"
     inkscape:cy="19.629592"
     inkscape:window-width="1440"
     inkscape:window-height="748"
     inkscape:window-x="0"
     inkscape:window-y="28"
     inkscape:window-maximized="1"
     inkscape:current-layer="svg80"
     inkscape:object-nodes="false">
    <inkscape:grid
       type="xygrid"
       id="grid899" />
  </sodipodi:namedview>
  <defs
     id="defs3">
    <style
       id="current-color-scheme"
       type="text/css">.ColorScheme-Text { color:#363636; }</style>
  </defs>
  <g
     id="applications-other">
    <rect
       x="22"
       width="32"
       height="32"
       opacity="0"
       id="rect5" />
    <path
       class="ColorScheme-Text"
       d="m37.887 1a15 15 0 0 0-14.887 15 15 15 0 0 0 15 15 15 15 0 0 0 15-15 15 15 0 0 0-15-15 15 15 0 0 0-0.11328 0zm0.11328 1a14 14 0 0 1 14 14 14 14 0 0 1-14 14 14 14 0 0 1-14-14 14 14 0 0 1 14-14z"
       fill="currentColor"
       id="path7" />
    <path
       id="path9"
       d="m 41.105829,4.4088901 c -0.267562,-0.071693 -0.54068,0.085992 -0.612373,0.3535534 l -0.397328,1.482847 a 10,10 0 0 0 -1.59643,-0.2073617 l -1.72e-4,-1.538806 c 0,-0.2770001 -0.222,-0.4996932 -0.499001,-0.4996933 -0.276999,10e-8 -0.500198,0.2238877 -0.500198,0.5008878 l -5.69e-4,1.5264755 A 10,10 0 0 0 35.904705,6.2444252 L 35.507026,4.7628912 C 35.435333,4.4953298 35.161804,4.3369333 34.894242,4.4086261 34.626681,4.480319 34.468284,4.7538479 34.539977,5.0214093 l 0.391416,1.4596355 A 10,10 0 0 0 33.44593,7.1122264 L 32.68358,5.7917983 C 32.545081,5.5519094 32.238643,5.4697996 31.998754,5.6082998 31.758865,5.7467997 31.677261,6.0513504 31.815761,6.2912395 L 32.579997,7.612173 A 10,10 0 0 0 31.293915,8.585928 L 30.222273,7.5142371 c -0.195868,-0.1958686 -0.51195,-0.1954577 -0.707818,4.108e-4 -0.195869,0.1958686 -0.195458,0.5119502 4.11e-4,0.7078188 l 1.084206,1.0851674 A 10,10 0 0 0 29.613071,10.580174 L 28.290819,9.817429 c -0.239889,-0.1385 -0.545381,-0.057148 -0.683881,0.18274 -0.1385,0.23989 -0.05664,0.543494 0.183247,0.681995 l 1.33256,0.769551 a 10,10 0 0 0 -0.618636,1.486231 l -1.482846,-0.397328 c -0.267562,-0.07169 -0.54068,0.08599 -0.612373,0.353553 -0.07169,0.267562 0.08599,0.54068 0.353553,0.612373 l 1.482847,0.397328 a 10,10 0 0 0 -0.207361,1.59643 l -1.538806,1.72e-4 c -0.277001,0 -0.499694,0.222 -0.499694,0.499001 1e-6,0.276999 0.223888,0.500198 0.500888,0.500198 l 1.526476,5.69e-4 a 10,10 0 0 0 0.217127,1.596939 l -1.481028,0.395793 c -0.267562,0.07169 -0.425959,0.345222 -0.354266,0.612784 0.07169,0.267561 0.345222,0.425958 0.612784,0.354265 l 1.463914,-0.392291 a 10,10 0 0 0 0.626397,1.488225 l -1.320428,0.762349 c -0.239889,0.138499 -0.321494,0.443051 -0.182993,0.68294 0.1385,0.239889 0.443051,0.321493 0.682939,0.182993 l 1.320934,-0.764236 a 10,10 0 0 0 0.973755,1.286082 l -1.071691,1.071641 c -0.195869,0.195869 -0.195458,0.511951 4.11e-4,0.707819 0.195868,0.195869 0.51195,0.195458 0.707819,-4.11e-4 l 1.085167,-1.084206 a 10,10 0 0 0 1.27254,0.986001 l -0.762745,1.322252 c -0.1385,0.239889 -0.05715,0.545381 0.18274,0.683881 0.23989,0.1385 0.543494,0.05664 0.681995,-0.183247 l 0.769551,-1.33256 a 10,10 0 0 0 1.486231,0.618636 l -0.397328,1.482846 c -0.07169,0.267562 0.08599,0.54068 0.353553,0.612373 0.267562,0.07169 0.54068,-0.08599 0.612373,-0.353553 l 0.397328,-1.482847 a 10,10 0 0 0 1.59643,0.207361 l 1.72e-4,1.538806 c 0,0.277001 0.222,0.499694 0.499001,0.499694 0.276999,-1e-6 0.500198,-0.223888 0.500198,-0.500888 l 5.69e-4,-1.526476 a 10,10 0 0 0 1.595053,-0.217633 l 0.397679,1.481534 c 0.07169,0.267562 0.345222,0.425959 0.612784,0.354266 0.267561,-0.07169 0.425958,-0.345222 0.354265,-0.612784 l -0.392291,-1.463914 a 10,10 0 0 0 1.486338,-0.626902 l 0.761844,1.322314 c 0.138499,0.239889 0.44305,0.321494 0.68294,0.182993 0.239889,-0.138499 0.321493,-0.443051 0.182993,-0.682939 l -0.761844,-1.322315 a 10,10 0 0 0 1.286082,-0.973755 l 1.071641,1.071691 c 0.195869,0.195869 0.511951,0.195458 0.707819,-4.11e-4 0.195869,-0.195868 0.195458,-0.51195 -4.11e-4,-0.707819 l -1.084206,-1.085167 a 10,10 0 0 0 0.98462,-1.274932 l 1.323633,0.765137 c 0.239889,0.1385 0.545381,0.05715 0.683881,-0.18274 0.1385,-0.23989 0.05476,-0.544 -0.185134,-0.6825 l -1.330673,-0.769046 a 10,10 0 0 0 0.618636,-1.486231 l 1.482846,0.397328 c 0.267562,0.07169 0.54068,-0.08599 0.612373,-0.353553 0.07169,-0.267562 -0.08599,-0.54068 -0.353553,-0.612373 l -1.460209,-0.391262 a 10,10 0 0 0 0.206992,-1.602595 l 1.516537,-7.3e-5 c 0.277001,0 0.499694,-0.222 0.499694,-0.499001 -10e-7,-0.276999 -0.223888,-0.500198 -0.500888,-0.500198 l -1.516537,7.2e-5 a 10,10 0 0 0 -0.209951,-1.601083 l 1.463913,-0.39229 c 0.267562,-0.07169 0.425959,-0.345222 0.354266,-0.612784 -0.07169,-0.267561 -0.345222,-0.425958 -0.612784,-0.354265 l -1.463914,0.392291 a 10,10 0 0 0 -0.617335,-1.491862 l 1.310861,-0.756825 c 0.239889,-0.1385 0.321493,-0.443051 0.182993,-0.68294 C 48.252694,9.7607517 47.948144,9.6791476 47.708255,9.8176478 L 46.399787,10.573092 A 10,10 0 0 0 45.414072,9.2939143 l 1.071691,-1.0716412 c 0.195869,-0.1958685 0.195458,-0.5119498 -4.11e-4,-0.7078184 -0.195868,-0.1958686 -0.51195,-0.1954578 -0.707819,4.107e-4 l -1.07169,1.0716415 A 10,10 0 0 0 43.424746,7.6022563 l 0.757825,-1.3114371 c 0.1385,-0.2398891 0.05715,-0.5453808 -0.18274,-0.6838807 -0.23989,-0.1385001 -0.543494,-0.056642 -0.681995,0.1832466 L 42.56001,7.101622 A 10,10 0 0 0 41.06812,6.4814708 L 41.459382,5.0212625 C 41.531075,4.7537011 41.37339,4.480583 41.105829,4.4088901 Z m -0.785891,2.8952498 c 0.0032,9.182e-4 0.0062,0.00167 0.0094,0.00253 a 9,9 0 0 1 2.169432,0.8987551 9,9 0 0 1 1.865337,1.4299466 9,9 0 0 1 1.429256,1.8651117 9,9 0 0 1 1.191055,3.999225 l -6.027776,4.59e-4 a 3,3 0 0 0 -2.180218,-2.397942 3,3 0 0 0 -0.04905,-0.01314 3,3 0 0 0 -1.770801,0.103815 L 33.952782,7.9901197 a 9,9 0 0 1 6.367156,-0.6859798 z m -7.233089,1.1859263 3.003823,5.2027738 a 3,3 0 0 0 -0.988449,1.530703 3,3 0 0 0 0.984684,3.08659 l -3.011895,5.218597 a 9,9 0 0 1 -2.864265,-3.022034 9,9 0 0 1 -0.0041,-0.0072 c -2.52e-4,-4.35e-4 -0.0016,-7.1e-5 -0.0019,-5.05e-4 a 9,9 0 0 1 -0.0041,-0.0072 9,9 0 0 1 -0.893906,-6.821209 9,9 0 0 1 3.780181,-5.1805628 z m 5.383625,5.5654448 a 2,2 0 0 1 0.04716,0.01264 2,2 0 0 1 1.414214,2.44949 2,2 0 0 1 -2.44949,1.414214 2,2 0 0 1 -1.414214,-2.44949 2,2 0 0 1 2.402326,-1.426851 z m 8.515172,2.443395 a 9,9 0 0 1 -0.292314,1.830465 9,9 0 0 1 -11.022703,6.363961 9,9 0 0 1 -1.719661,-0.683204 l 3.005963,-5.204009 a 3,3 0 0 0 0.266612,0.09166 3,3 0 0 0 3.674234,-2.12132 3,3 0 0 0 0.06009,-0.277092 z"
       class="ColorScheme-Text"
       fill="currentColor" />
  </g>
  <g
     id="16-16-applications-other"
     transform="translate(4.628,4.628)">
    <path
       d="m -20.628,11.372 v 16 h 16 v -16 z"
       fill="none"
       stroke-width="0.72727"
       id="path75" />
    <path
       class="ColorScheme-Text"
       d="m -14.501,11.632 c -0.06435,-0.0089 -0.13038,-0.0043 -0.19727,0.01367 -0.26756,0.07169 -0.42521,0.34377 -0.35352,0.61133 l 0.13672,0.50977 a 7,7 0 0 0 -1.1719,0.5293 c -0.01347,0.0063 -0.0279,0.0061 -0.04102,0.01367 -0.01342,0.0078 -0.02079,0.02055 -0.0332,0.0293 a 7,7 0 0 0 -1.0449,0.74805 L -17.57718,13.716 c -0.19587,-0.19587 -0.51116,-0.19587 -0.70703,0 -0.19587,0.19587 -0.19587,0.51116 0,0.70703 l 0.36914,0.36914 a 7,7 0 0 0 -0.77539,1.0801 7,7 0 0 0 -0.54883,1.2109 L -19.7432,16.9484 c -0.26756,-0.07169 -0.53964,0.08595 -0.61133,0.35352 -0.07169,0.26757 0.08595,0.53964 0.35352,0.61133 l 0.50586,0.13672 a 7,7 0 0 0 -0.002,2.6465 l -0.50391,0.13477 c -0.26756,0.07169 -0.42521,0.34377 -0.35352,0.61133 0.07169,0.26756 0.34377,0.42521 0.61133,0.35352 l 0.50977,-0.13672 a 7,7 0 0 0 1.3203,2.291 l -0.37109,0.37109 c -0.19587,0.19587 -0.19587,0.51116 0,0.70703 0.19587,0.19587 0.51116,0.19587 0.70703,0 l 0.36914,-0.36914 a 7,7 0 0 0 1.0801,0.77539 7,7 0 0 0 1.2109,0.54883 l -0.13477,0.50391 c -0.07169,0.26756 0.08595,0.53964 0.35352,0.61133 0.26756,0.07169 0.53964,-0.08595 0.61133,-0.35352 l 0.13672,-0.50586 a 7,7 0 0 0 2.6465,0.002 l 0.13477,0.50391 c 0.07169,0.26756 0.34377,0.42521 0.61133,0.35352 0.26756,-0.07169 0.42521,-0.34377 0.35352,-0.61133 l -0.13672,-0.50976 a 7,7 0 0 0 2.291,-1.3203 l 0.37109,0.37109 c 0.19587,0.19587 0.51116,0.19587 0.70703,0 0.19587,-0.19587 0.19587,-0.51116 0,-0.70703 l -0.36914,-0.36914 a 7,7 0 0 0 0.77539,-1.0801 7,7 0 0 0 0.54883,-1.2109 l 0.50391,0.13477 c 0.26756,0.07169 0.53964,-0.08595 0.61133,-0.35352 0.07169,-0.26756 -0.08595,-0.53963 -0.35352,-0.61133 l -0.50586,-0.13672 a 7,7 0 0 0 0.12695,-1.2949 c 5.42e-4,-0.0096 0.0059,-0.01762 0.0059,-0.02734 0,-0.01252 -0.0069,-0.02287 -0.0078,-0.03516 a 7,7 0 0 0 -0.12305,-1.2891 l 0.50391,-0.13477 c 0.26756,-0.07169 0.42521,-0.34377 0.35352,-0.61133 -0.07169,-0.26756 -0.34377,-0.42521 -0.61133,-0.35352 l -0.50976,0.13672 a 7,7 0 0 0 -1.3203,-2.291 l 0.37109,-0.37109 c 0.19587,-0.19587 0.19587,-0.51116 0,-0.70703 -0.19587,-0.19587 -0.51116,-0.19587 -0.70703,0 l -0.36914,0.36914 a 7,7 0 0 0 -1.0801,-0.77539 7,7 0 0 0 -1.2109,-0.54883 l 0.13477,-0.50391 c 0.07169,-0.26756 -0.08595,-0.53964 -0.35352,-0.61133 -0.26762,-0.07174 -0.53969,0.08591 -0.61139,0.35347 l -0.13672,0.50586 a 7,7 0 0 0 -2.6465,-0.002 l -0.13477,-0.50391 c -0.05377,-0.20067 -0.22101,-0.34054 -0.41406,-0.36719 z m 1.5898,1.7461 a 6,6 0 0 1 3.2832,0.79883 6,6 0 0 1 2.9727,4.6953 h -4.0391 a 2,2 0 0 0 -1.9336,-1.5 2,2 0 0 0 -0.5332,0.07422 l -2.0215,-3.5 a 6,6 0 0 1 2.2715,-0.56836 z m -3.1367,1.0723 2.0195,3.4961 a 2,2 0 0 0 -0.59961,1.4258 2,2 0 0 0 0.59766,1.4258 l -2.0195,3.498 a 6,6 0 0 1 -1.7734,-7.9238 6,6 0 0 1 1.7754,-1.9219 z m 3.4199,3.9219 a 1,1 0 0 1 1,1 1,1 0 0 1 -1,1 1,1 0 0 1 -1,-1 1,1 0 0 1 1,-1 z m 1.9355,1.5 h 4.0371 a 6,6 0 0 1 -0.77734,2.5 6,6 0 0 1 -7.75,2.4238 l 2.0195,-3.4961 a 2,2 0 0 0 0.53516,0.07227 2,2 0 0 0 1.9355,-1.5 z"
       fill="currentColor"
       id="path77" />
  </g>
  <g
     id="22-22-applications-other">
    <rect
       id="rect2316"
       width="22"
       height="22"
       x="0"
       y="10"
       rx="0"
       ry="0"
       style="fill:none" />
    <path
       id="path947"
       d="M 10.974609 12 C 10.709695 12.013342 10.5 12.231656 10.5 12.5 L 10.5 13.035156 A 8 8 0 0 0 7.4492188 13.847656 L 7.1835938 13.388672 C 7.1143437 13.268727 7.0023608 13.18933 6.8789062 13.15625 C 6.8775024 13.155875 6.876407 13.15466 6.875 13.154297 C 6.8724223 13.153629 6.8697757 13.15297 6.8671875 13.152344 C 6.86333 13.151413 6.8593474 13.15123 6.8554688 13.150391 C 6.7780024 13.133563 6.6961327 13.134488 6.6171875 13.15625 C 6.6171875 13.15625 6.6152344 13.15625 6.6152344 13.15625 C 6.6132842 13.156787 6.6113217 13.157641 6.609375 13.158203 C 6.572102 13.169243 6.5352134 13.184748 6.5 13.205078 C 6.4739485 13.220119 6.4499736 13.237196 6.4277344 13.255859 C 6.4245664 13.258526 6.4210576 13.262891 6.4179688 13.265625 C 6.4158717 13.267492 6.4141695 13.269587 6.4121094 13.271484 C 6.3921405 13.28975 6.3738636 13.309254 6.3574219 13.330078 C 6.3557267 13.33224 6.3532191 13.333751 6.3515625 13.335938 C 6.3515625 13.335938 6.3515625 13.337891 6.3515625 13.337891 C 6.3501614 13.339753 6.3490295 13.341871 6.3476562 13.34375 C 6.2768922 13.439894 6.2429496 13.557086 6.2519531 13.675781 C 6.253096 13.69084 6.2552768 13.705692 6.2578125 13.720703 C 6.2674509 13.778292 6.2854075 13.83498 6.3164062 13.888672 L 6.578125 14.341797 A 8 8 0 0 0 4.3417969 16.578125 L 3.8886719 16.316406 C 3.6487828 16.177906 3.3435781 16.260111 3.2050781 16.5 C 3.0665781 16.739889 3.1487828 17.045094 3.3886719 17.183594 L 3.8476562 17.449219 A 8 8 0 0 0 3.0351562 20.5 L 2.5 20.5 C 2.223 20.5 2 20.723 2 21 C 2 21.277 2.223 21.5 2.5 21.5 L 3.0351562 21.5 A 8 8 0 0 0 3.8476562 24.550781 L 3.3886719 24.816406 C 3.1487828 24.954906 3.0665781 25.260111 3.2050781 25.5 C 3.3435781 25.739889 3.6487828 25.822094 3.8886719 25.683594 L 4.3417969 25.421875 A 8 8 0 0 0 6.578125 27.658203 L 6.3164062 28.111328 C 6.2854075 28.16502 6.2674509 28.221708 6.2578125 28.279297 C 6.2548332 28.296934 6.2530127 28.31434 6.2519531 28.332031 C 6.2449002 28.450305 6.2796432 28.567158 6.3515625 28.662109 C 6.3515625 28.662109 6.3515625 28.664062 6.3515625 28.664062 C 6.3532191 28.666249 6.3557267 28.66776 6.3574219 28.669922 C 6.3755236 28.692848 6.3955997 28.714579 6.4179688 28.734375 C 6.4179688 28.734375 6.4179688 28.736328 6.4179688 28.736328 C 6.4210576 28.739062 6.4245664 28.741474 6.4277344 28.744141 C 6.4499736 28.762804 6.4739485 28.779881 6.5 28.794922 C 6.5524757 28.825219 6.607808 28.843638 6.6640625 28.853516 C 6.6829069 28.856844 6.7017907 28.858242 6.7207031 28.859375 C 6.7260969 28.859697 6.7309387 28.861183 6.7363281 28.861328 C 6.7527799 28.861788 6.7688207 28.862486 6.7851562 28.861328 C 6.809154 28.859651 6.8320451 28.854698 6.8554688 28.849609 C 6.871282 28.84616 6.8869364 28.842852 6.9023438 28.837891 C 6.9556127 28.820845 7.007424 28.794085 7.0527344 28.759766 C 7.0781356 28.740394 7.1013639 28.717861 7.1230469 28.693359 C 7.1230469 28.693359 7.125 28.693359 7.125 28.693359 C 7.1304675 28.687182 7.1354285 28.680322 7.140625 28.673828 C 7.1563393 28.654172 7.1706094 28.633818 7.1835938 28.611328 L 7.4492188 28.152344 A 8 8 0 0 0 10.5 28.964844 L 10.5 29.5 C 10.5 29.777 10.723 30 11 30 C 11.277 30 11.5 29.777 11.5 29.5 L 11.5 28.964844 A 8 8 0 0 0 14.550781 28.152344 L 14.816406 28.611328 C 14.954906 28.851217 15.260111 28.933422 15.5 28.794922 C 15.739889 28.656422 15.822094 28.351217 15.683594 28.111328 L 15.421875 27.658203 A 8 8 0 0 0 17.658203 25.421875 L 18.111328 25.683594 C 18.351217 25.822094 18.656422 25.739889 18.794922 25.5 C 18.933422 25.260111 18.851217 24.954906 18.611328 24.816406 L 18.152344 24.550781 A 8 8 0 0 0 18.964844 21.5 L 19.5 21.5 C 19.777 21.5 20 21.277 20 21 C 20 20.723 19.777 20.5 19.5 20.5 L 18.982422 20.5 A 8 8 0 0 0 18.162109 17.443359 L 18.611328 17.183594 C 18.851217 17.045094 18.933422 16.739889 18.794922 16.5 C 18.656422 16.260111 18.351217 16.177906 18.111328 16.316406 L 17.664062 16.574219 A 8 8 0 0 0 15.425781 14.335938 L 15.683594 13.888672 C 15.822094 13.648783 15.739889 13.343578 15.5 13.205078 C 15.260111 13.066578 14.954906 13.148783 14.816406 13.388672 L 14.556641 13.837891 A 8 8 0 0 0 11.5 13.017578 L 11.5 12.5 C 11.5 12.223 11.277 12 11 12 C 10.991344 12 10.983155 11.99957 10.974609 12 z M 11 14 A 7 7 0 0 1 17.980469 20.5 L 12.935547 20.5 A 2 2 0 0 0 11 19 A 2 2 0 0 0 10.466797 19.074219 L 7.9472656 14.710938 A 7 7 0 0 1 11 14 z M 7.0820312 15.214844 L 9.5996094 19.576172 A 2 2 0 0 0 9 21 A 2 2 0 0 0 9.5996094 22.423828 L 7.0820312 26.785156 A 7 7 0 0 1 4 21 A 7 7 0 0 1 7.0820312 15.214844 z M 10.029297 19.257812 A 2 2 0 0 0 9.9863281 19.28125 A 2 2 0 0 1 10.029297 19.257812 z M 11 20 A 1 1 0 0 1 12 21 A 1 1 0 0 1 11 22 A 1 1 0 0 1 10 21 A 1 1 0 0 1 11 20 z M 12.933594 21.5 L 17.960938 21.5 A 7 7 0 0 1 11 28 A 7 7 0 0 1 7.9472656 27.289062 L 10.466797 22.925781 A 2 2 0 0 0 11 23 A 2 2 0 0 0 12.933594 21.5 z M 9.9863281 22.71875 A 2 2 0 0 0 10.029297 22.742188 A 2 2 0 0 1 9.9863281 22.71875 z "
       class="ColorScheme-Text"
       fill="currentColor" />
  </g>
</svg>
