<?xml version="1.0" encoding="UTF-8" standalone="no"?>
<svg
   xmlns:dc="http://purl.org/dc/elements/1.1/"
   xmlns:cc="http://creativecommons.org/ns#"
   xmlns:rdf="http://www.w3.org/1999/02/22-rdf-syntax-ns#"
   xmlns:svg="http://www.w3.org/2000/svg"
   xmlns="http://www.w3.org/2000/svg"
   id="svg18"
   version="1.1"
   height="32"
   width="54">
  <metadata
     id="metadata20">
    <rdf:RDF>
      <cc:Work
         rdf:about="">
        <dc:format>image/svg+xml</dc:format>
        <dc:type
           rdf:resource="http://purl.org/dc/dcmitype/StillImage" />
        <dc:title></dc:title>
      </cc:Work>
    </rdf:RDF>
  </metadata>
  <defs
     id="defs5">
    <style
       type="text/css"
       id="current-color-scheme"> .ColorScheme-Text { color:#363636; } </style>
  </defs>
  <g
     transform="matrix(1 0 0 1 -420.72 -516.79)"
     id="22-22-applications-other">
    <rect
       id="rect7"
       opacity=".01"
       fill-opacity=".0039216"
       height="22"
       width="22"
       y="2"
       x="-7.1557e-8"
       transform="matrix(1 0 0 1 420.71 524.79)" />
    <path
       id="path9"
       fill="currentColor"
       d="m423.71 529.79v7h7v-7h-7zm9 0v7h7v-7h-7zm-8 1h5v5h-5v-5zm9 0h5v5h-5v-5zm-10 8v7h7v-7h-7zm9 0v7h0.99999 5 1v-1-5-1h-1-5-0.99999zm-8 1h5v5h-5v-5zm9 0h5v5h-5v-5z"
       class="ColorScheme-Text" />
  </g>
  <g
     transform="translate(-33,1)"
     id="applications-other">
    <rect
       id="rect12"
       style="paint-order:stroke fill markers"
       stroke-width="2.0645"
       opacity="0"
       height="32"
       width="32"
       y="-1"
       x="55" />
    <circle
       id="circle14"
       stroke-width="2.4218"
       fill="#0187ff"
       color="#000000"
       r="15"
       cy="15"
       cx="71" />
    <path
       stroke-width="2.2716"
       fill="#fff"
       d="m76.853 5.8544-0.45967 1.2279c-0.02993 0.080531 8.37e-4 0.18743 0.06842 0.23946l0.54091 0.41406c0.06628 0.050599 0.17959 0.053449 0.24943 0.00356l1.0662-0.76113c0.06985-0.049887 0.17603-0.041335 0.23661 0.019955l0.44684 0.44684c0.062 0.062001 0.06984 0.16676 0.01996 0.23661l-0.76112 1.0654c-0.04989 0.069842-0.04776 0.18173 0.0043 0.24943l0.41477 0.54091c0.0506 0.06628 0.15964 0.09835 0.23946 0.06842l1.2265-0.45967c0.08053-0.02993 0.1803 0.0057 0.22307 0.08053l0.31571 0.54662c0.04418 0.07626 0.02423 0.17888-0.04205 0.23375l-1.012 0.83311c-0.06628 0.05488-0.09336 0.1632-0.06058 0.24159l0.26012 0.62928c0.03208 0.07697 0.12829 0.13612 0.2138 0.12828l1.3049-0.12686c0.08552-0.0086 0.17317 0.05202 0.19527 0.13541l0.1632 0.61004c0.0228 0.08481-0.02281 0.17888-0.1012 0.21451l-1.1937 0.54305c-0.07839 0.03563-0.13255 0.13327-0.12115 0.21808l0.08908 0.6749c0.0107 0.08267 0.08909 0.16463 0.17389 0.17888l1.2928 0.21522c0.0848 0.01425 0.15322 0.0955 0.15322 0.18102v0.63142c0 0.08766-0.06841 0.16748-0.15322 0.18102l-1.2914 0.21522c-0.0848 0.01425-0.16248 0.09407-0.17318 0.17888l-0.08836 0.67561c-0.0107 0.08267 0.04347 0.18244 0.12115 0.21808l1.1916 0.54234c0.07768 0.03563 0.12329 0.13184 0.10119 0.21451l-0.1632 0.61004c-0.02281 0.08481-0.10975 0.14396-0.19527 0.13541l-1.3035-0.12614c-0.08552-0.0086-0.18102 0.04917-0.2138 0.12828l-0.26155 0.62928c-0.03207 0.07697-0.0057 0.18743 0.06058 0.24159l1.012 0.83311c0.06628 0.05487 0.08552 0.15892 0.04205 0.23375l-0.31571 0.54662c-0.04418 0.07626-0.14325 0.11046-0.22378 0.08053l-1.2279-0.45967c-0.08053-0.02993-0.18744 6.7e-4 -0.23946 0.06841l-0.41406 0.54091c-0.0506 0.06628-0.05345 0.17959-0.0036 0.24943l0.76112 1.0661c0.04988 0.06984 0.04133 0.17603-0.01996 0.2366l-0.44684 0.44684c-0.062 0.062-0.16676 0.06984-0.23661 0.01995l-1.0654-0.76113c-0.06985-0.04989-0.18174-0.04775-0.24943 0.0043l-0.54092 0.41477c-0.06628 0.0506-0.09835 0.15964-0.06842 0.23946l0.45968 1.2265c0.02993 0.08053-0.0057 0.18031-0.08053 0.22306l-0.54662 0.31571c-0.07626 0.04419-0.17888 0.02423-0.23375-0.04205l-0.83311-1.012c-0.05487-0.06628-0.1632-0.09336-0.2416-0.06058l-0.62928 0.26012c-0.07696 0.03207-0.13612 0.12828-0.12827 0.2138l0.12685 1.3049c0.0086 0.08552-0.05202 0.17318-0.1354 0.19527l-0.61004 0.1632c-0.08481 0.02281-0.17888-0.0228-0.21452-0.1012l-0.54305-1.1937c-0.03563-0.07839-0.13327-0.13256-0.21808-0.12116l-0.67489 0.08909c-0.08268 0.01069-0.16464 0.08908-0.17888 0.17389l-0.21523 1.2928c-0.01426 0.08481-0.09549 0.15322-0.18102 0.15322h-0.63146c-0.08767 0-0.16748-0.06842-0.18102-0.15322l-0.21523-1.2914c-0.01425-0.08481-0.09408-0.16249-0.17888-0.17318l-0.67561-0.08837c-0.08267-0.01069-0.18244 0.04347-0.21807 0.12115l-0.54234 1.1916c-0.03563 0.07768-0.13185 0.12329-0.21452 0.1012l-0.61004-0.1632c-0.08481-0.0228-0.14396-0.10975-0.13541-0.19527l0.12615-1.3035c0.0085-0.08552-0.04917-0.18102-0.12828-0.2138l-0.62928-0.26156c-0.07697-0.03207-0.18743-0.0057-0.2416 0.06058l-0.8331 1.012c-0.05488 0.06628-0.15893 0.08552-0.23376 0.04205l-0.54662-0.31571c-0.07626-0.04418-0.11046-0.14325-0.08053-0.22378l0.45967-1.2279c0.02993-0.08053-8.37e-4 -0.18743-0.06842-0.23946l-0.54091-0.41406c-0.06628-0.0506-0.17959-0.05345-0.24943-0.0036l-1.0662 0.76113c-0.06985 0.04989-0.17603 0.04134-0.23661-0.01995l-0.44684-0.44684c-0.062-0.062-0.06984-0.16676-0.01996-0.2366l0.76113-1.0654c0.04988-0.06984 0.04775-0.18173-0.0043-0.24943l-0.41477-0.54092c-0.0506-0.06628-0.15964-0.09835-0.23946-0.06841l-1.2265 0.45967c-0.08054 0.02993-0.1803-0.0057-0.22307-0.08053l-0.31571-0.54661c-0.04418-0.07625-0.02423-0.17888 0.04205-0.23375l1.012-0.83311c0.06628-0.05487 0.09336-0.1632 0.06058-0.24159l-0.26012-0.62928c-0.03208-0.07697-0.12829-0.13612-0.2138-0.12828l-1.3049 0.12686c-0.08552 0.0086-0.17317-0.05202-0.19527-0.13541l-0.1632-0.61004c-0.0228-0.08481 0.02281-0.17888 0.1012-0.21451l1.1937-0.54305c0.07839-0.03563 0.13255-0.13327 0.12116-0.21808l-0.08909-0.6749c-0.0107-0.08267-0.08908-0.16462-0.17389-0.17888l-1.2927-0.2152c-0.0848-0.01425-0.15322-0.0955-0.15322-0.18102v-0.63142c0-0.08766 0.06841-0.16748 0.15322-0.18102l1.2914-0.21522c0.0848-0.01425 0.16249-0.09407 0.17318-0.17888l0.08836-0.67561c0.0107-0.08267-0.04347-0.18244-0.12115-0.21808l-1.1916-0.54234c-0.07768-0.03563-0.12329-0.13184-0.10119-0.21451l0.1632-0.61004c0.02281-0.08481 0.10975-0.14396 0.19527-0.13541l1.3035 0.12614c0.08552 0.0086 0.18102-0.04917 0.2138-0.12828l0.26155-0.62928c0.03207-0.07697 0.0058-0.18743-0.06058-0.24159l-1.012-0.83311c-0.06628-0.05487-0.08552-0.15893-0.04205-0.23376l0.31571-0.54662c0.04418-0.07625 0.14325-0.11046 0.22378-0.08053l1.2279 0.45967c0.08054 0.02993 0.18744-6.69e-4 0.23946-0.06842l0.41406-0.54091c0.0506-0.066277 0.05345-0.17959 0.0036-0.24943l-0.76112-1.0661c-0.04988-0.069841-0.04134-0.17603 0.01996-0.2366l0.44684-0.44684c0.062-0.062003 0.16676-0.069842 0.23661-0.019955l1.0654 0.76113c0.06985 0.049886 0.18174 0.047749 0.24943-0.00428l0.54092-0.41477c0.06628-0.050598 0.09836-0.15964 0.06842-0.23946l-0.45968-1.2265c-0.02993-0.080531 0.0057-0.1803 0.08053-0.22306l0.54662-0.31571c0.07626-0.044186 0.17888-0.024231 0.23375 0.042047l0.83311 1.012c0.05487 0.066277 0.1632 0.093359 0.2416 0.060577l0.62928-0.26012c0.07696-0.032071 0.13612-0.12828 0.12827-0.2138l-0.12685-1.3049c-0.0086-0.08552 0.05202-0.17318 0.1354-0.19527l0.61005-0.1632c0.0848-0.022805 0.17887 0.022806 0.21451 0.1012l0.54305 1.1937c0.03563 0.078393 0.13328 0.13256 0.21808 0.12115l0.67489-0.089083c0.08268-0.01069 0.16464-0.089084 0.17888-0.17389l0.21523-1.2928c0.01425-0.084808 0.0955-0.15322 0.18102-0.15322h0.63142c0.08767 0 0.16748 0.068415 0.18102 0.15322l0.21523 1.2914c0.01426 0.084807 0.09408 0.16249 0.17888 0.17318l0.67561 0.08837c0.08267 0.01069 0.18244-0.043471 0.21807-0.12115l0.54235-1.1916c0.03563-0.07768 0.13184-0.12329 0.21451-0.1012l0.61005 0.1632c0.0848 0.022805 0.14395 0.10975 0.1354 0.19527l-0.12615 1.3035c-0.0085 0.08552 0.04918 0.18102 0.12828 0.2138l0.62928 0.26155c0.07697 0.03207 0.18744 0.0057 0.2416-0.060576l0.8331-1.012c0.05488-0.066278 0.15893-0.085519 0.23376-0.042047l0.54662 0.31571c0.07626 0.044185 0.11046 0.14325 0.08053 0.22378zm-2.0924 2.6162c-1.7717-1.0234-3.7864-1.2457-5.6244-0.77966-0.3542 0.089796-0.14609 0.040621-0.14609 0.040621-0.49317 0.16819-0.68986 0.67632-0.44114 1.1296 0 0-0.14325-0.26155 0.01141 0.019955 0.73689 1.3448 2.2121 4.0358 2.2121 4.0358 0.33353 0.60862 1.1666 1.0904 1.8615 1.0761 0 0 3.2683-0.0677 4.9031-0.10191 0.3036-0.0064 0 0 0 0 0.50314-0.01069 0.83026-0.43401 0.7205-0.90794-0.51026-1.8373-1.714-3.4835-3.4963-4.5126zm-0.12328 13.125c1.7895-0.99203 3.0174-2.6041 3.5648-4.42 0.10547-0.34992 0.04062-0.1461 0.04062-0.1461 0.10975-0.50956-0.22449-0.93929-0.74118-0.95996 0 0 0.29789 0.01212-0.02281-6.7e-4 -1.5322-0.06058-4.5981-0.18244-4.5981-0.18244-0.69342-0.02779-1.5358 0.43829-1.8814 1.0412 0 0-1.6249 2.8364-2.438 4.2553-0.15108 0.26369 0 0 0 0-0.25014 0.43687-0.05487 0.93502 0.40764 1.0854 0 0-0.29219-0.08124 0 0 1.838 0.50885 3.8691 0.32498 5.6686-0.67276zm-8.9219-1.2008c0.36132 0.32569 0.89084 0.24516 1.1438-0.19028 0 0-0.15251 0.26226 0 0 0.82243-1.4132 2.4658-4.2389 2.4658-4.2389 0.34922-0.60078 0.33211-1.5629-0.03848-2.1501 0 0-1.6384-2.5948-2.4573-3.8912-0.17176-0.27153-0.01211-0.01924-0.01211-0.01924-0.27581-0.43686-0.8153-0.51169-1.2016-0.16178 0 0 0.14395-0.15821-0.10619 0.10833-1.2985 1.3819-2.081 3.2512-2.0454 5.2972 0.03564 2.0575 0.89227 3.9083 2.252 5.2452z"
       class="shp86"
       id="gear" />
  </g>
</svg>
