<?xml version="1.0" encoding="UTF-8" standalone="no"?>
<svg
   width="54"
   height="32"
   version="1.1"
   id="svg80"
   sodipodi:docname="applications.svg"
   inkscape:version="1.2 (dc2aedaf03, 2022-05-15)"
   xmlns:inkscape="http://www.inkscape.org/namespaces/inkscape"
   xmlns:sodipodi="http://sodipodi.sourceforge.net/DTD/sodipodi-0.dtd"
   xmlns="http://www.w3.org/2000/svg"
   xmlns:svg="http://www.w3.org/2000/svg">
  <sodipodi:namedview
     id="namedview82"
     pagecolor="#ffffff"
     bordercolor="#666666"
     borderopacity="1.0"
     inkscape:showpageshadow="2"
     inkscape:pageopacity="0.0"
     inkscape:pagecheckerboard="0"
     inkscape:deskcolor="#d1d1d1"
     showgrid="false"
     inkscape:zoom="5.2149125"
     inkscape:cx="26.941967"
     inkscape:cy="-3.9310343"
     inkscape:window-width="1920"
     inkscape:window-height="1000"
     inkscape:window-x="0"
     inkscape:window-y="0"
     inkscape:window-maximized="1"
     inkscape:current-layer="svg80" />
  <defs
     id="defs3">
    <style
       id="current-color-scheme"
       type="text/css">.ColorScheme-Text { color:#363636; }</style>
  </defs>
  <g
     id="applications-other">
    <rect
       x="22"
       width="32"
       height="32"
       opacity="0"
       id="rect5" />
    <g
       class="ColorScheme-Text"
       fill="currentColor"
       id="g67">
      <path
         d="m37.98 6a10 10 0 0 0-9.9805 10 10 10 0 0 0 10 10 10 10 0 0 0 10-10 10 10 0 0 0-10-10 10 10 0 0 0-0.019531 0zm0.009765 1a9 9 0 0 1 0.009766 0 9 9 0 0 1 9 9 9 9 0 0 1-9 9 9 9 0 0 1-9-9 9 9 0 0 1 8.9902-9z"
         id="path9" />
      <path
         d="m37.949 13a3 3 0 0 0-2.9492 3 3 3 0 0 0 3 3 3 3 0 0 0 3-3 3 3 0 0 0-3-3 3 3 0 0 0-0.050781 0zm0.001953 1a2 2 0 0 1 0.048828 0 2 2 0 0 1 2 2 2 2 0 0 1-2 2 2 2 0 0 1-2-2 2 2 0 0 1 1.9512-2z"
         id="path11" />
      <rect
         transform="rotate(-15)"
         x="34.564"
         y="24.79"
         width="8"
         height="1"
         rx=".5"
         ry=".5"
         id="rect13" />
      <rect
         transform="rotate(-75)"
         x="-15.62"
         y="40.346"
         width="8"
         height="1"
         rx=".5"
         ry=".5"
         id="rect15" />
      <rect
         transform="rotate(225)"
         x="-36.184"
         y="15.056"
         width="8"
         height="1"
         rx=".5"
         ry=".5"
         id="rect17" />
      <rect
         transform="rotate(30)"
         x="40.409"
         y="-17.144"
         width="1"
         height="3"
         rx=".5"
         ry="0"
         id="rect23" />
      <rect
         transform="rotate(30)"
         x="40.409"
         y="3.8564"
         width="1"
         height="3"
         rx=".5"
         ry="0"
         id="rect25" />
      <rect
         transform="rotate(60)"
         x="32.356"
         y="-36.909"
         width="1"
         height="3"
         rx=".5"
         ry="0"
         id="rect31" />
      <rect
         transform="rotate(60)"
         x="32.356"
         y="-15.909"
         width="1"
         height="3"
         rx=".5"
         ry="0"
         id="rect33" />
      <rect
         transform="rotate(90)"
         x="15.5"
         y="-50"
         width="1"
         height="3"
         rx=".5"
         ry="0"
         id="rect39" />
      <rect
         transform="rotate(90)"
         x="15.5"
         y="-29"
         width="1"
         height="3"
         rx=".5"
         ry="0"
         id="rect41" />
      <rect
         transform="rotate(120)"
         x="-5.6436"
         y="-52.909"
         width="1"
         height="3"
         rx=".5"
         ry="0"
         id="rect47" />
      <rect
         transform="rotate(120)"
         x="-5.6436"
         y="-31.909"
         width="1"
         height="3"
         rx=".5"
         ry="0"
         id="rect49" />
      <rect
         transform="rotate(150)"
         x="-25.409"
         y="-44.856"
         width="1"
         height="3"
         rx=".5"
         ry="0"
         id="rect55" />
      <rect
         transform="rotate(150)"
         x="-25.409"
         y="-23.856"
         width="1"
         height="3"
         rx=".5"
         ry="0"
         id="rect57" />
      <rect
         transform="scale(-1)"
         x="-38.5"
         y="-28"
         width="1"
         height="3"
         rx=".5"
         ry="0"
         id="rect63" />
      <rect
         transform="scale(-1)"
         x="-38.5"
         y="-7"
         width="1"
         height="3"
         rx=".5"
         ry="0"
         id="rect65" />
    </g>
  </g>
  <g
     id="22-22-applications-other">
    <path
       d="m0 10v22h22v-22z"
       fill="none"
       id="path70" />
    <path
       class="ColorScheme-Text"
       d="m9.127 13.26c-0.06435-0.0089-0.13038-0.0043-0.19727 0.01367-0.26756 0.07169-0.42521 0.34377-0.35352 0.61133l0.13672 0.50977a7 7 0 0 0-1.1719 0.5293c-0.01347 0.0063-0.0279 0.0061-0.04102 0.01367-0.01342 0.0078-0.02079 0.02055-0.0332 0.0293a7 7 0 0 0-1.0449 0.74805l-0.37109-0.37109c-0.19587-0.19587-0.51116-0.19587-0.70703 0s-0.19587 0.51116 0 0.70703l0.36914 0.36914a7 7 0 0 0-0.77539 1.0801 7 7 0 0 0-0.54883 1.2109l-0.50391-0.13477c-0.26756-0.07169-0.53964 0.08595-0.61133 0.35352s0.08595 0.53964 0.35352 0.61133l0.50586 0.13672a7 7 0 0 0-2e-3 2.6465l-0.50391 0.13477c-0.26756 0.07169-0.42521 0.34377-0.35352 0.61133s0.34377 0.42521 0.61133 0.35352l0.50977-0.13672a7 7 0 0 0 1.3203 2.291l-0.37109 0.37109c-0.19587 0.19587-0.19587 0.51116 0 0.70703s0.51116 0.19587 0.70703 0l0.36914-0.36914a7 7 0 0 0 1.0801 0.77539 7 7 0 0 0 1.2109 0.54883l-0.13477 0.50391c-0.07169 0.26756 0.08595 0.53964 0.35352 0.61133 0.26756 0.07169 0.53964-0.08595 0.61133-0.35352l0.13672-0.50586a7 7 0 0 0 2.6465 2e-3l0.13477 0.50391c0.07169 0.26756 0.34377 0.42521 0.61133 0.35352s0.42521-0.34377 0.35352-0.61133l-0.13672-0.50976a7 7 0 0 0 2.291-1.3203l0.37109 0.37109c0.19587 0.19587 0.51116 0.19587 0.70703 0s0.19587-0.51116 0-0.70703l-0.36914-0.36914a7 7 0 0 0 0.77539-1.0801 7 7 0 0 0 0.54883-1.2109l0.50391 0.13477c0.26756 0.07169 0.53964-0.08595 0.61133-0.35352 0.07169-0.26756-0.08595-0.53963-0.35352-0.61133l-0.50586-0.13672a7 7 0 0 0 0.12695-1.2949c5.42e-4 -0.0096 0.0059-0.01762 0.0059-0.02734 0-0.01252-0.0069-0.02287-0.0078-0.03516a7 7 0 0 0-0.12305-1.2891l0.50391-0.13477c0.26756-0.07169 0.42521-0.34377 0.35352-0.61133s-0.34377-0.42521-0.61133-0.35352l-0.50976 0.13672a7 7 0 0 0-1.3203-2.291l0.37109-0.37109c0.19587-0.19587 0.19587-0.51116 0-0.70703s-0.51116-0.19587-0.70703 0l-0.36914 0.36914a7 7 0 0 0-1.0801-0.77539 7 7 0 0 0-1.2109-0.54883l0.13477-0.50391c0.07169-0.26756-0.08595-0.53964-0.35352-0.61133-0.26762-0.07174-0.53969 0.08591-0.61139 0.35347l-0.13672 0.50586a7 7 0 0 0-2.6465-2e-3l-0.13477-0.50391c-0.05377-0.20067-0.22101-0.34054-0.41406-0.36719zm1.5898 1.7461a6 6 0 0 1 3.2832 0.79883 6 6 0 0 1 2.9727 4.6953h-4.0391a2 2 0 0 0-1.9336-1.5 2 2 0 0 0-0.5332 0.07422l-2.0215-3.5a6 6 0 0 1 2.2715-0.56836zm-3.1367 1.0723 2.0195 3.4961a2 2 0 0 0-0.59961 1.4258 2 2 0 0 0 0.59766 1.4258l-2.0195 3.498a6 6 0 0 1-1.7734-7.9238 6 6 0 0 1 1.7754-1.9219zm3.4199 3.9219a1 1 0 0 1 1 1 1 1 0 0 1-1 1 1 1 0 0 1-1-1 1 1 0 0 1 1-1zm1.9355 1.5h4.0371a6 6 0 0 1-0.77734 2.5 6 6 0 0 1-7.75 2.4238l2.0195-3.4961a2 2 0 0 0 0.53516 0.07227 2 2 0 0 0 1.9355-1.5z"
       fill="currentColor"
       id="path72" />
  </g>
  <g
     id="16-16-applications-other"
     transform="translate(3.6281,1.6279)">
    <path
       d="m-20.628 11.372v16h16v-16z"
       fill="none"
       stroke-width=".72727"
       id="path75" />
    <path
       class="ColorScheme-Text"
       d="m-14.501 11.632c-0.06435-0.0089-0.13038-0.0043-0.19727 0.01367-0.26756 0.07169-0.42521 0.34377-0.35352 0.61133l0.13672 0.50977a7 7 0 0 0-1.1719 0.5293c-0.01347 0.0063-0.0279 0.0061-0.04102 0.01367-0.01342 0.0078-0.02079 0.02055-0.0332 0.0293a7 7 0 0 0-1.0449 0.74805l-0.37109-0.37109c-0.19587-0.19587-0.51116-0.19587-0.70703 0s-0.19587 0.51116 0 0.70703l0.36914 0.36914a7 7 0 0 0-0.77539 1.0801 7 7 0 0 0-0.54883 1.2109l-0.50391-0.13477c-0.26756-0.07169-0.53964 0.08595-0.61133 0.35352s0.08595 0.53964 0.35352 0.61133l0.50586 0.13672a7 7 0 0 0-2e-3 2.6465l-0.50391 0.13477c-0.26756 0.07169-0.42521 0.34377-0.35352 0.61133s0.34377 0.42521 0.61133 0.35352l0.50977-0.13672a7 7 0 0 0 1.3203 2.291l-0.37109 0.37109c-0.19587 0.19587-0.19587 0.51116 0 0.70703s0.51116 0.19587 0.70703 0l0.36914-0.36914a7 7 0 0 0 1.0801 0.77539 7 7 0 0 0 1.2109 0.54883l-0.13477 0.50391c-0.07169 0.26756 0.08595 0.53964 0.35352 0.61133 0.26756 0.07169 0.53964-0.08595 0.61133-0.35352l0.13672-0.50586a7 7 0 0 0 2.6465 2e-3l0.13477 0.50391c0.07169 0.26756 0.34377 0.42521 0.61133 0.35352s0.42521-0.34377 0.35352-0.61133l-0.13672-0.50976a7 7 0 0 0 2.291-1.3203l0.37109 0.37109c0.19587 0.19587 0.51116 0.19587 0.70703 0s0.19587-0.51116 0-0.70703l-0.36914-0.36914a7 7 0 0 0 0.77539-1.0801 7 7 0 0 0 0.54883-1.2109l0.50391 0.13477c0.26756 0.07169 0.53964-0.08595 0.61133-0.35352 0.07169-0.26756-0.08595-0.53963-0.35352-0.61133l-0.50586-0.13672a7 7 0 0 0 0.12695-1.2949c5.42e-4 -0.0096 0.0059-0.01762 0.0059-0.02734 0-0.01252-0.0069-0.02287-0.0078-0.03516a7 7 0 0 0-0.12305-1.2891l0.50391-0.13477c0.26756-0.07169 0.42521-0.34377 0.35352-0.61133s-0.34377-0.42521-0.61133-0.35352l-0.50976 0.13672a7 7 0 0 0-1.3203-2.291l0.37109-0.37109c0.19587-0.19587 0.19587-0.51116 0-0.70703s-0.51116-0.19587-0.70703 0l-0.36914 0.36914a7 7 0 0 0-1.0801-0.77539 7 7 0 0 0-1.2109-0.54883l0.13477-0.50391c0.07169-0.26756-0.08595-0.53964-0.35352-0.61133-0.26762-0.07174-0.53969 0.08591-0.61139 0.35347l-0.13672 0.50586a7 7 0 0 0-2.6465-2e-3l-0.13477-0.50391c-0.05377-0.20067-0.22101-0.34054-0.41406-0.36719zm1.5898 1.7461a6 6 0 0 1 3.2832 0.79883 6 6 0 0 1 2.9727 4.6953h-4.0391a2 2 0 0 0-1.9336-1.5 2 2 0 0 0-0.5332 0.07422l-2.0215-3.5a6 6 0 0 1 2.2715-0.56836zm-3.1367 1.0723 2.0195 3.4961a2 2 0 0 0-0.59961 1.4258 2 2 0 0 0 0.59766 1.4258l-2.0195 3.498a6 6 0 0 1-1.7734-7.9238 6 6 0 0 1 1.7754-1.9219zm3.4199 3.9219a1 1 0 0 1 1 1 1 1 0 0 1-1 1 1 1 0 0 1-1-1 1 1 0 0 1 1-1zm1.9355 1.5h4.0371a6 6 0 0 1-0.77734 2.5 6 6 0 0 1-7.75 2.4238l2.0195-3.4961a2 2 0 0 0 0.53516 0.07227 2 2 0 0 0 1.9355-1.5z"
       fill="currentColor"
       id="path77" />
  </g>
</svg>
