<?xml version="1.0" encoding="UTF-8" standalone="no"?>
<svg
   width="54"
   height="32"
   version="1.1"
   id="svg80"
   sodipodi:docname="application.svg"
   inkscape:version="1.2.2 (b0a8486541, 2022-12-01)"
   xml:space="preserve"
   xmlns:inkscape="http://www.inkscape.org/namespaces/inkscape"
   xmlns:sodipodi="http://sodipodi.sourceforge.net/DTD/sodipodi-0.dtd"
   xmlns="http://www.w3.org/2000/svg"
   xmlns:svg="http://www.w3.org/2000/svg"><sodipodi:namedview
     id="namedview82"
     pagecolor="#ffffff"
     bordercolor="#666666"
     borderopacity="1.0"
     inkscape:showpageshadow="2"
     inkscape:pageopacity="0.0"
     inkscape:pagecheckerboard="0"
     inkscape:deskcolor="#d1d1d1"
     showgrid="true"
     inkscape:zoom="20.85965"
     inkscape:cx="16.179562"
     inkscape:cy="19.82296"
     inkscape:window-width="3840"
     inkscape:window-height="2034"
     inkscape:window-x="0"
     inkscape:window-y="58"
     inkscape:window-maximized="1"
     inkscape:current-layer="svg80"><inkscape:grid
       type="xygrid"
       id="grid190"
       spacingx="0.5"
       spacingy="0.5"
       empspacing="2"
       color="#e500c2"
       opacity="0.14901961" /></sodipodi:namedview><defs
     id="defs3"><style
       id="current-color-scheme"
       type="text/css">.ColorScheme-Text { color:#363636; }</style></defs><g
     id="application-menu"><rect
       x="22"
       width="32"
       height="32"
       opacity="0"
       id="rect5"
       y="0" /><path
       id="path281"
       d="M 38 5 A 11 11 0 0 0 27 16 A 11 11 0 0 0 38 27 A 11 11 0 0 0 49 16 A 11 11 0 0 0 38 5 z M 38 6.5 A 9.5 9.5 0 0 1 47.5 16 A 9.5 9.5 0 0 1 38 25.5 A 9.5 9.5 0 0 1 28.5 16 A 9.5 9.5 0 0 1 38 6.5 z M 33.5 14.5 A 1.5 1.5 0 0 0 32 16 A 1.5 1.5 0 0 0 33.5 17.5 A 1.5 1.5 0 0 0 35 16 A 1.5 1.5 0 0 0 33.5 14.5 z M 38 14.5 A 1.5 1.5 0 0 0 36.5 16 A 1.5 1.5 0 0 0 38 17.5 A 1.5 1.5 0 0 0 39.5 16 A 1.5 1.5 0 0 0 38 14.5 z M 42.5 14.5 A 1.5 1.5 0 0 0 41 16 A 1.5 1.5 0 0 0 42.5 17.5 A 1.5 1.5 0 0 0 44 16 A 1.5 1.5 0 0 0 42.5 14.5 z "
       class="ColorScheme-Text"
       fill="currentColor" /></g><g
     id="22-22-application-menu"><rect
       id="rect222"
       width="22"
       height="22"
       x="0"
       y="10"
       style="fill:none" /><path
       id="path276"
       d="M 10.5 12.5 A 8 8 0 0 0 2.5 20.5 A 8 8 0 0 0 10.5 28.5 A 8 8 0 0 0 18.5 20.5 A 8 8 0 0 0 10.5 12.5 z M 10.5 14 A 6.5 6.5 0 0 1 17 20.5 A 6.5 6.5 0 0 1 10.5 27 A 6.5 6.5 0 0 1 4 20.5 A 6.5 6.5 0 0 1 10.5 14 z M 7 19.5 A 1 1 0 0 0 6 20.5 A 1 1 0 0 0 7 21.5 A 1 1 0 0 0 8 20.5 A 1 1 0 0 0 7 19.5 z M 10.5 19.5 A 1 1 0 0 0 9.5 20.5 A 1 1 0 0 0 10.5 21.5 A 1 1 0 0 0 11.5 20.5 A 1 1 0 0 0 10.5 19.5 z M 14 19.5 A 1 1 0 0 0 13 20.5 A 1 1 0 0 0 14 21.5 A 1 1 0 0 0 15 20.5 A 1 1 0 0 0 14 19.5 z "
       class="ColorScheme-Text"
       fill="currentColor" /></g><g
     id="16-16-application-menu"><path
       id="path295"
       d="m -11.5,12.5 a 8,8 0 0 0 -8,8 8,8 0 0 0 8,8 8,8 0 0 0 8,-8 8,8 0 0 0 -8,-8 z m 0,1.5 A 6.5,6.5 0 0 1 -5,20.5 6.5,6.5 0 0 1 -11.5,27 6.5,6.5 0 0 1 -18,20.5 6.5,6.5 0 0 1 -11.5,14 Z m -3.5,5.5 a 1,1 0 0 0 -1,1 1,1 0 0 0 1,1 1,1 0 0 0 1,-1 1,1 0 0 0 -1,-1 z m 3.5,0 a 1,1 0 0 0 -1,1 1,1 0 0 0 1,1 1,1 0 0 0 1,-1 1,1 0 0 0 -1,-1 z m 3.5,0 a 1,1 0 0 0 -1,1 1,1 0 0 0 1,1 1,1 0 0 0 1,-1 1,1 0 0 0 -1,-1 z"
       class="ColorScheme-Text"
       fill="currentColor" /></g></svg>
