<?xml version="1.0" encoding="UTF-8" standalone="no"?>
<svg
   width="54"
   height="32"
   version="1.1"
   id="svg80"
   sodipodi:docname="applications.svg"
   inkscape:version="1.2.2 (b0a8486541, 2022-12-01)"
   xmlns:inkscape="http://www.inkscape.org/namespaces/inkscape"
   xmlns:sodipodi="http://sodipodi.sourceforge.net/DTD/sodipodi-0.dtd"
   xmlns="http://www.w3.org/2000/svg"
   xmlns:svg="http://www.w3.org/2000/svg">
  <sodipodi:namedview
     id="namedview82"
     pagecolor="#ffffff"
     bordercolor="#666666"
     borderopacity="1.0"
     inkscape:showpageshadow="2"
     inkscape:pageopacity="0.0"
     inkscape:pagecheckerboard="0"
     inkscape:deskcolor="#d1d1d1"
     showgrid="true"
     inkscape:zoom="10.429825"
     inkscape:cx="30.297728"
     inkscape:cy="18.408746"
     inkscape:window-width="1920"
     inkscape:window-height="1014"
     inkscape:window-x="0"
     inkscape:window-y="32"
     inkscape:window-maximized="1"
     inkscape:current-layer="svg80">
    <inkscape:grid
       type="xygrid"
       id="grid190"
       spacingx="0.5"
       spacingy="0.5"
       empspacing="2"
       color="#e500c2"
       opacity="0.14901961" />
  </sodipodi:namedview>
  <defs
     id="defs3">
    <style
       id="current-color-scheme"
       type="text/css">.ColorScheme-Text { color:#363636; }</style>
  </defs>
  <g
     id="22-22-applications-other">
    <path
       d="M 0,10 V 32 H 22 V 10 Z"
       fill="none"
       id="path70" />
    <path
       id="rect244"
       class="ColorScheme-Text"
       d="M 4.5 13 C 3.6690025 13 3 13.669003 3 14.5 L 3 18.5 C 3 19.330997 3.6690025 20 4.5 20 L 8.5 20 C 9.3309972 20 10 19.330997 10 18.5 L 10 14.5 C 10 13.669003 9.3309972 13 8.5 13 L 4.5 13 z M 13.5 13 C 12.669003 13 12 13.669003 12 14.5 L 12 18.5 C 12 19.330997 12.669003 20 13.5 20 L 17.5 20 C 18.330997 20 19 19.330997 19 18.5 L 19 14.5 C 19 13.669003 18.330997 13 17.5 13 L 13.5 13 z M 4.5 14 L 8.5 14 C 8.7769994 14 9 14.223 9 14.5 L 9 18.5 C 9 18.777 8.7769994 19 8.5 19 L 4.5 19 C 4.2230006 19 4 18.777 4 18.5 L 4 14.5 C 4 14.223 4.2230006 14 4.5 14 z M 13.5 14 L 17.5 14 C 17.777 14 18 14.223 18 14.5 L 18 18.5 C 18 18.777 17.777 19 17.5 19 L 13.5 19 C 13.223 19 13 18.777 13 18.5 L 13 14.5 C 13 14.223 13.223 14 13.5 14 z M 4.5 22 C 3.6690025 22 3 22.669003 3 23.5 L 3 27.5 C 3 28.330997 3.6690025 29 4.5 29 L 8.5 29 C 9.3309972 29 10 28.330997 10 27.5 L 10 23.5 C 10 22.669003 9.3309972 22 8.5 22 L 4.5 22 z M 13.5 22 C 12.669003 22 12 22.669003 12 23.5 L 12 27.5 C 12 28.330997 12.669003 29 13.5 29 L 17.5 29 C 18.330997 29 19 28.330997 19 27.5 L 19 23.5 C 19 22.669003 18.330997 22 17.5 22 L 13.5 22 z M 4.5 23 L 8.5 23 C 8.7769994 23 9 23.223 9 23.5 L 9 27.5 C 9 27.777 8.7769994 28 8.5 28 L 4.5 28 C 4.2230006 28 4 27.777 4 27.5 L 4 23.5 C 4 23.223 4.2230006 23 4.5 23 z M 13.5 23 L 17.5 23 C 17.777 23 18 23.223 18 23.5 L 18 27.5 C 18 27.777 17.777 28 17.5 28 L 13.5 28 C 13.223 28 13 27.777 13 27.5 L 13 23.5 C 13 23.223 13.223 23 13.5 23 z "
       fill="currentColor" />
  </g>
  <g
     id="applications-other">
    <rect
       x="22"
       width="32"
       height="32"
       opacity="0"
       id="rect5"
       y="0" />
    <path
       id="rect329"
       d="M 30.5,6 C 29.115002,6 28,7.115002 28,8.5 v 4 c 0,1.384998 1.115002,2.5 2.5,2.5 h 4 c 1.384998,0 2.5,-1.115002 2.5,-2.5 v -4 C 37,7.115002 35.884998,6 34.5,6 Z m 11,0 C 40.115002,6 39,7.115002 39,8.5 v 4 c 0,1.384998 1.115002,2.5 2.5,2.5 h 4 c 1.384998,0 2.5,-1.115002 2.5,-2.5 v -4 C 48,7.115002 46.884998,6 45.5,6 Z m -11,1.5 h 4 c 0.553998,0 1,0.446002 1,1 v 4 c 0,0.553998 -0.446002,1 -1,1 h -4 c -0.553998,0 -1,-0.446002 -1,-1 v -4 c 0,-0.553998 0.446002,-1 1,-1 z m 11,0 h 4 c 0.553998,0 1,0.446002 1,1 v 4 c 0,0.553998 -0.446002,1 -1,1 h -4 c -0.553998,0 -1,-0.446002 -1,-1 v -4 c 0,-0.553998 0.446002,-1 1,-1 z M 30.5,17 C 29.115002,17 28,18.115002 28,19.5 v 4 c 0,1.384998 1.115002,2.5 2.5,2.5 h 4 c 1.384998,0 2.5,-1.115002 2.5,-2.5 v -4 C 37,18.115002 35.884998,17 34.5,17 Z m 11,0 C 40.115002,17 39,18.115002 39,19.5 v 4 c 0,1.384998 1.115002,2.5 2.5,2.5 h 4 c 1.384998,0 2.5,-1.115002 2.5,-2.5 v -4 C 48,18.115002 46.884998,17 45.5,17 Z m -11,1.5 h 4 c 0.553998,0 1,0.446002 1,1 v 4 c 0,0.553998 -0.446002,1 -1,1 h -4 c -0.553998,0 -1,-0.446002 -1,-1 v -4 c 0,-0.553998 0.446002,-1 1,-1 z m 11,0 h 4 c 0.553998,0 1,0.446002 1,1 v 4 c 0,0.553998 -0.446002,1 -1,1 h -4 c -0.553998,0 -1,-0.446002 -1,-1 v -4 c 0,-0.553998 0.446002,-1 1,-1 z"
       class="ColorScheme-Text"
       fill="currentColor" />
  </g>
</svg>
