<?xml version="1.0" encoding="UTF-8" standalone="no"?>
<svg
   xmlns:dc="http://purl.org/dc/elements/1.1/"
   xmlns:cc="http://creativecommons.org/ns#"
   xmlns:rdf="http://www.w3.org/1999/02/22-rdf-syntax-ns#"
   xmlns:svg="http://www.w3.org/2000/svg"
   xmlns="http://www.w3.org/2000/svg"
   id="svg19"
   viewBox="0 0 54 32"
   version="1.1">
  <metadata
     id="metadata21">
    <rdf:RDF>
      <cc:Work
         rdf:about="">
        <dc:format>image/svg+xml</dc:format>
        <dc:type
           rdf:resource="http://purl.org/dc/dcmitype/StillImage" />
        <dc:title></dc:title>
      </cc:Work>
    </rdf:RDF>
  </metadata>
  <defs
     id="defs5">
    <style
       type="text/css"
       id="current-color-scheme"> .ColorScheme-Text { color:#363636; } </style>
  </defs>
  <g
     id="apport">
    <path
       id="path7"
       fill="none"
       d="m22 0v32h32v-32z" />
    <path
       id="path9"
       fill="currentColor"
       d="m29 4c-1.662 0-3 1.338-3 3v18c0 1.662 1.338 3 3 3h18c1.662 0 3-1.338 3-3v-18c0-1.662-1.338-3-3-3h-18zm0 2h18c0.554 0 1 0.446 1 1v18c0 0.554-0.446 1-1 1h-18c-0.554 0-1-0.446-1-1v-18c0-0.554 0.446-1 1-1zm8 2c-0.554 0-1 0.446-1 1v8c0 0.554 0.446 1 1 1h2c0.554 0 1-0.446 1-1v-8c0-0.554-0.446-1-1-1h-2zm0 12c-0.554 0-1 0.446-1 1v2c0 0.554 0.446 1 1 1h2c0.554 0 1-0.446 1-1v-2c0-0.554-0.446-1-1-1h-2z"
       class="ColorScheme-Text" />
  </g>
  <g
     id="22-22-apport">
    <path
       id="path12"
       fill="none"
       d="m0 10v22h22v-22z" />
    <g
       id="g16"
       fill="currentColor"
       class="ColorScheme-Text">
      <path
         id="path14"
         d="m5 13c-1.108 0-2 0.892-2 2v12c0 1.108 0.892 2 2 2h12c1.108 0 2-0.892 2-2v-12c0-1.108-0.892-2-2-2h-12zm0 2h12v12h-12v-12zm6 1c-0.554 0-1 0.446-1 1v5c0 0.554 0.446 1 1 1s1-0.446 1-1v-5c0-0.554-0.446-1-1-1zm0 8a1 1 0 0 0-1 1 1 1 0 0 0 1 1 1 1 0 0 0 1-1 1 1 0 0 0-1-1z" />
    </g>
  </g>
</svg>
