<?xml version="1.0" encoding="UTF-8" standalone="no"?>
<svg
   id="svg19"
   viewBox="0 0 54 32"
   version="1.1"
   sodipodi:docname="apport.svg"
   inkscape:version="1.3.2 (091e20ef0f, 2023-11-25)"
   xmlns:inkscape="http://www.inkscape.org/namespaces/inkscape"
   xmlns:sodipodi="http://sodipodi.sourceforge.net/DTD/sodipodi-0.dtd"
   xmlns="http://www.w3.org/2000/svg"
   xmlns:svg="http://www.w3.org/2000/svg">
  <sodipodi:namedview
     id="namedview1"
     pagecolor="#ffffff"
     bordercolor="#000000"
     borderopacity="0.25"
     inkscape:showpageshadow="2"
     inkscape:pageopacity="0.0"
     inkscape:pagecheckerboard="0"
     inkscape:deskcolor="#d1d1d1"
     inkscape:zoom="7.375"
     inkscape:cx="26.983051"
     inkscape:cy="16"
     inkscape:window-width="1920"
     inkscape:window-height="1010"
     inkscape:window-x="0"
     inkscape:window-y="34"
     inkscape:window-maximized="1"
     inkscape:current-layer="svg19" />
  <defs
     id="defs5">
    <style
       type="text/css"
       id="current-color-scheme"> .ColorScheme-Text { color:#363636; } </style>
  </defs>
  <g
     id="apport">
    <path
       id="path7"
       fill="none"
       d="m22 0v32h32v-32z" />
    <path
       id="path9"
       fill="currentColor"
       d="m29 4c-1.662 0-3 1.338-3 3v18c0 1.662 1.338 3 3 3h18c1.662 0 3-1.338 3-3v-18c0-1.662-1.338-3-3-3h-18zm0 2h18c0.554 0 1 0.446 1 1v18c0 0.554-0.446 1-1 1h-18c-0.554 0-1-0.446-1-1v-18c0-0.554 0.446-1 1-1zm8 2c-0.554 0-1 0.446-1 1v8c0 0.554 0.446 1 1 1h2c0.554 0 1-0.446 1-1v-8c0-0.554-0.446-1-1-1h-2zm0 12c-0.554 0-1 0.446-1 1v2c0 0.554 0.446 1 1 1h2c0.554 0 1-0.446 1-1v-2c0-0.554-0.446-1-1-1h-2z"
       class="ColorScheme-Text" />
  </g>
  <g
     id="22-22-apport">
    <path
       id="path12"
       fill="none"
       d="m0 10v22h22v-22z" />
    <g
       id="g16"
       fill="currentColor"
       class="ColorScheme-Text">
      <path
         id="path14"
         d="m5 13c-1.108 0-2 0.892-2 2v12c0 1.108 0.892 2 2 2h12c1.108 0 2-0.892 2-2v-12c0-1.108-0.892-2-2-2h-12zm0 2h12v12h-12v-12zm6 1c-0.554 0-1 0.446-1 1v5c0 0.554 0.446 1 1 1s1-0.446 1-1v-5c0-0.554-0.446-1-1-1zm0 8a1 1 0 0 0-1 1 1 1 0 0 0 1 1 1 1 0 0 0 1-1 1 1 0 0 0-1-1z" />
    </g>
  </g>
</svg>
