<?xml version="1.0" encoding="UTF-8" standalone="no"?>
<svg
   xmlns:dc="http://purl.org/dc/elements/1.1/"
   xmlns:cc="http://creativecommons.org/ns#"
   xmlns:rdf="http://www.w3.org/1999/02/22-rdf-syntax-ns#"
   xmlns:svg="http://www.w3.org/2000/svg"
   xmlns="http://www.w3.org/2000/svg"
   id="svg153"
   viewBox="0 0 32 32"
   version="1.0"
   height="32"
   width="32">
  <metadata
     id="metadata157">
    <rdf:RDF>
      <cc:Work
         rdf:about="">
        <dc:format>image/svg+xml</dc:format>
        <dc:type
           rdf:resource="http://purl.org/dc/dcmitype/StillImage" />
        <dc:title></dc:title>
      </cc:Work>
    </rdf:RDF>
  </metadata>
  <defs
     id="defs3">
    <style
       type="text/css"
       id="current-color-scheme">.ColorScheme-Text { color:#363636; }</style>
  </defs>
  <g
     transform="translate(-246.54,-394.51)"
     id="audio-volume-high">
    <rect
       id="rect5"
       opacity="0"
       ry=".35556"
       height="32"
       width="32"
       y="394.51"
       x="246.54" />
    <g
       id="g15"
       fill="currentColor"
       class="ColorScheme-Text">
      <path
         id="path7"
         d="m255.47 406.51h-4.604c-0.736 0-1.3333 0.59733-1.3333 1.3333v5.3333c0 0.73601 0.59733 1.3334 1.3333 1.3334h4.604l4.396 4h0.66666v-16h-0.66666z" />
      <path
         id="path9"
         d="m270.11 400.8 1.1169-0.74025c2.6631 2.6775 4.3116 6.3669 4.3116 10.442s-1.6485 7.7648-4.3116 10.441l-1.1169-0.74025c2.5397-2.4544 4.1252-5.8905 4.1252-9.7007 0-3.8115-1.5855-7.2463-4.1252-9.702z" />
      <path
         id="path11"
         d="m267.49 402.78-1.0802 0.71662c1.7548 1.8152 2.8402 4.2827 2.8402 7.0061 0 2.7248-1.0854 5.1922-2.8402 7.0074l1.0802 0.71662c1.8821-2.0291 3.0424-4.7381 3.0424-7.7241 0-2.9859-1.1602-5.6936-3.0424-7.7228z" />
      <path
         id="path13"
         d="m264.11 410.51c0-1.6603-0.61556-3.1618-1.5986-4.3457l1.2193-0.8085c1.1288 1.4136 1.8086 3.2025 1.8086 5.1542 0 1.9491-0.67987 3.7393-1.8086 5.1529l-1.2193-0.8085c0.98306-1.1839 1.5986-2.6854 1.5986-4.3444z" />
    </g>
  </g>
  <g
     fill="currentColor"
     transform="translate(-206.48 -394.51)"
     class="ColorScheme-Text"
     id="audio-volume-medium">
    <rect
       id="rect18"
       opacity="0"
       ry=".35556"
       height="32"
       width="32"
       y="394.51"
       x="246.54" />
    <path
       id="path20"
       stroke-width="1.3333"
       d="m255.47 406.51h-4.604c-0.736 0-1.3333 0.59733-1.3333 1.3333v5.3333c0 0.73601 0.59733 1.3334 1.3333 1.3334h4.604l4.396 4h0.66666v-16h-0.66666z" />
    <path
       id="path22"
       opacity=".35"
       d="m270.11 400.8 1.1169-0.74025c2.6631 2.6775 4.3116 6.3669 4.3116 10.442s-1.6485 7.7648-4.3116 10.441l-1.1169-0.74025c2.5397-2.4544 4.1252-5.8905 4.1252-9.7007 0-3.8115-1.5855-7.2463-4.1252-9.702z" />
    <path
       id="path24"
       d="m267.49 402.78-1.0802 0.71662c1.7548 1.8152 2.8402 4.2827 2.8402 7.0061 0 2.7248-1.0854 5.1922-2.8402 7.0074l1.0802 0.71662c1.8821-2.0291 3.0424-4.7381 3.0424-7.7241 0-2.9859-1.1602-5.6936-3.0424-7.7228z" />
    <path
       id="path26"
       d="m264.11 410.51c0-1.6603-0.61556-3.1618-1.5986-4.3457l1.2193-0.8085c1.1288 1.4136 1.8086 3.2025 1.8086 5.1542 0 1.9491-0.67987 3.7393-1.8086 5.1529l-1.2193-0.8085c0.98306-1.1839 1.5986-2.6854 1.5986-4.3444z" />
  </g>
  <g
     fill="currentColor"
     transform="translate(-170.48 -394.51)"
     class="ColorScheme-Text"
     id="audio-volume-low">
    <rect
       id="rect29"
       opacity="0"
       ry=".35556"
       height="32"
       width="32"
       y="394.51"
       x="246.54" />
    <path
       id="path31"
       d="m255.47 406.51h-4.604c-0.736 0-1.3333 0.59733-1.3333 1.3333v5.3333c0 0.73601 0.59733 1.3334 1.3333 1.3334h4.604l4.396 4h0.66666v-16h-0.66666z" />
    <path
       id="path33"
       opacity=".35"
       d="m270.11 400.8 1.1169-0.74025c2.6631 2.6775 4.3116 6.3669 4.3116 10.442s-1.6485 7.7648-4.3116 10.441l-1.1169-0.74025c2.5397-2.4544 4.1252-5.8905 4.1252-9.7007 0-3.8115-1.5855-7.2463-4.1252-9.702z" />
    <path
       id="path35"
       opacity=".35"
       d="m267.49 402.78-1.0802 0.71662c1.7548 1.8152 2.8402 4.2827 2.8402 7.0061 0 2.7248-1.0854 5.1922-2.8402 7.0074l1.0802 0.71662c1.8821-2.0291 3.0424-4.7381 3.0424-7.7241 0-2.9859-1.1602-5.6936-3.0424-7.7228z" />
    <path
       id="path37"
       d="m264.11 410.51c0-1.6603-0.61556-3.1618-1.5986-4.3457l1.2193-0.8085c1.1288 1.4136 1.8086 3.2025 1.8086 5.1542 0 1.9491-0.67987 3.7393-1.8086 5.1529l-1.2193-0.8085c0.98306-1.1839 1.5986-2.6854 1.5986-4.3444z" />
  </g>
  <g
     fill="currentColor"
     transform="translate(-246.54,-394.51)"
     class="ColorScheme-Text"
     id="audio-volume-muted">
    <rect
       id="rect40"
       opacity="0"
       ry=".35556"
       height="32"
       width="32"
       y="394.51"
       x="360.56" />
    <path
       id="path42"
       opacity=".35"
       d="m373.9 402.51-1.3106 1.1934 1.9766 1.9766v-3.1699zm-4.2734 3.8887-0.12305 0.11133h-4.6035c-0.736 0-1.334 0.59798-1.334 1.334v5.332c0 0.73601 0.59799 1.334 1.334 1.334h4.6035l4.3965 4h0.66601v-7.1719z" />
    <path
       id="path44"
       opacity=".35"
       d="m385.25 400.06-1.1172 0.74024c2.5397 2.4557 4.125 5.8897 4.125 9.7012 0 2.5385-0.71667 4.903-1.9375 6.9297l0.95117 0.95117c1.4416-2.2834 2.2891-4.9803 2.2891-7.8809 0-4.0753-1.6475-7.7639-4.3105-10.441z" />
    <path
       id="path46"
       opacity=".35"
       d="m381.52 402.78-1.0801 0.7168c1.7548 1.8152 2.8398 4.2824 2.8398 7.0059 0 1.1646-0.20816 2.2766-0.57226 3.3164l0.99609 0.99609c0.54959-1.3296 0.85742-2.7835 0.85742-4.3125 0-2.9859-1.1589-5.6935-3.041-7.7227zm-0.93945 14.568c-0.0484 0.0522-0.0912 0.10899-0.14063 0.16016l0.89258 0.5918z" />
    <path
       id="path48"
       opacity=".35"
       d="m377.75 405.35-1.2188 0.8086c0.69326 0.83488 1.1968 1.8307 1.4375 2.9258l1.582 1.582c1e-3 -0.0543 8e-3 -0.10759 8e-3 -0.16211 0-1.9517-0.67984-3.7407-1.8086-5.1543zm-0.58008 8.5918c-0.19033 0.3189-0.40247 0.62375-0.63867 0.9082l1.2188 0.8086c0.16905-0.21171 0.32452-0.4362 0.47266-0.66407z" />
    <rect
       id="rect50"
       style="paint-order:stroke fill markers"
       stroke-width="2"
       stroke-linejoin="bevel"
       stroke-linecap="round"
       opacity=".35"
       height="32"
       width="2"
       y="540.54"
       x="-25"
       transform="rotate(-45)" />
  </g>
  <g
     fill="currentColor"
     transform="translate(-260.1 -363.46)"
     class="ColorScheme-Text"
     id="16-16-audio-volume-high">
    <rect
       id="rect53"
       opacity="0"
       rx="1.125"
       height="16"
       width="18"
       y="311.51"
       x="251.54" />
    <g
       id="g65"
       transform="translate(253.49 312.51)">
      <rect
         id="rect55"
         ry="1"
         height="4.9996"
         width="5"
         y="5.0004"
         x="-.9542" />
      <path
         id="path57"
         d="m6 2.0004-2.9542 3v4.9996l2.9542 3z" />
      <path
         id="path59"
         d="m13.139 0.92749c-0.54546-0.42773-1.1387 0.22461-0.68359 0.73242 1.6202 1.5104 2.5416 3.6249 2.5449 5.8398-0.0026 2.2205-0.92793 4.3401-2.5547 5.8516-0.44531 0.47165 0.18064 1.1484 0.67774 0.72852 1.8304-1.6992 2.8725-4.0825 2.877-6.5801-0.0026-2.4925-1.0386-4.8722-2.8613-6.5723z" />
      <path
         id="path61"
         d="m10.775 2.4132c-0.58741-0.53488-1.1988 0.22518-0.68359 0.73242 1.2147 1.1326 1.9056 2.7181 1.9082 4.3789-0.0019 1.6654-0.69594 3.2551-1.916 4.3887-0.46835 0.44623 0.17346 1.1467 0.67969 0.72852 1.423-1.3216 2.233-3.1751 2.2363-5.1172-0.0019-1.9383-0.80739-3.789-2.2246-5.1113z" />
      <path
         id="path63"
         d="m8.4102 3.8662c-0.52095-0.49369-1.1551 0.22003-0.68359 0.73047 0.81045 0.75501 1.2715 1.8123 1.2734 2.9199-0.00128 1.1103-0.46396 2.1701-1.2773 2.9258-0.47259 0.42993 0.13957 1.1522 0.67969 0.73047 1.0168-0.94425 1.5955-2.2686 1.5977-3.6562-0.00172-1.3844-0.57738-2.7062-1.5898-3.6504z" />
    </g>
  </g>
  <g
     fill="currentColor"
     transform="translate(-235.1 -363.46)"
     class="ColorScheme-Text"
     id="16-16-audio-volume-medium">
    <rect
       id="rect68"
       opacity="0"
       rx="1.125"
       height="16"
       width="18"
       y="311.51"
       x="251.54" />
    <g
       id="g80"
       transform="translate(253.49 312.51)">
      <rect
         id="rect70"
         ry="1"
         height="4.9996"
         width="5"
         y="5.0004"
         x="-.9542" />
      <path
         id="path72"
         d="m6 2.0004-2.9542 3v4.9996l2.9542 3z" />
      <path
         id="path74"
         opacity=".35"
         d="m13.139 0.92749c-0.54546-0.42773-1.1387 0.22461-0.68359 0.73242 1.6202 1.5104 2.5416 3.6249 2.5449 5.8398-0.0026 2.2205-0.92793 4.3401-2.5547 5.8516-0.44531 0.47165 0.18064 1.1484 0.67774 0.72852 1.8304-1.6992 2.8725-4.0825 2.877-6.5801-0.0026-2.4925-1.0386-4.8722-2.8613-6.5723z" />
      <path
         id="path76"
         d="m10.775 2.4132c-0.58741-0.53488-1.1988 0.22518-0.68359 0.73242 1.2147 1.1326 1.9056 2.7181 1.9082 4.3789-0.0019 1.6654-0.69594 3.2551-1.916 4.3887-0.46835 0.44623 0.17346 1.1467 0.67969 0.72852 1.423-1.3216 2.233-3.1751 2.2363-5.1172-0.0019-1.9383-0.80739-3.789-2.2246-5.1113z" />
      <path
         id="path78"
         d="m8.4102 3.8662c-0.52095-0.49369-1.1551 0.22003-0.68359 0.73047 0.81045 0.75501 1.2715 1.8123 1.2734 2.9199-0.00128 1.1103-0.46396 2.1701-1.2773 2.9258-0.47259 0.42993 0.13957 1.1522 0.67969 0.73047 1.0168-0.94425 1.5955-2.2686 1.5977-3.6562-0.00172-1.3844-0.57738-2.7062-1.5898-3.6504z" />
    </g>
  </g>
  <g
     fill="currentColor"
     class="ColorScheme-Text"
     transform="translate(-210.1 -363.46)"
     id="16-16-audio-volume-low">
    <rect
       id="rect83"
       opacity="0"
       rx="1.125"
       height="16"
       width="18"
       y="311.51"
       x="251.54" />
    <g
       id="g99"
       transform="translate(253.49 312.51)">
      <g
         id="g97">
        <rect
           id="rect85"
           ry="1"
           height="4.9996"
           width="5"
           y="5.0004"
           x="-.9542" />
        <path
           id="path87"
           d="m6 2.0004-2.9542 3v4.9996l2.9542 3z" />
        <g
           id="g95"
           fill-rule="evenodd">
          <path
             id="path89"
             style="paint-order:normal"
             opacity=".35"
             d="m13.139 0.92749c-0.54546-0.42773-1.1387 0.22461-0.68359 0.73242 1.6202 1.5104 2.5416 3.6249 2.5449 5.8398-0.0026 2.2205-0.92793 4.3401-2.5547 5.8516-0.44531 0.47165 0.18064 1.1484 0.67774 0.72852 1.8304-1.6992 2.8725-4.0825 2.877-6.5801-0.0026-2.4925-1.0386-4.8722-2.8613-6.5723z" />
          <path
             id="path91"
             style="paint-order:normal"
             opacity=".35"
             d="m10.775 2.4132c-0.58741-0.53488-1.1988 0.22518-0.68359 0.73242 1.2147 1.1326 1.9056 2.7181 1.9082 4.3789-0.0019 1.6654-0.69594 3.2551-1.916 4.3887-0.46835 0.44623 0.17346 1.1467 0.67969 0.72852 1.423-1.3216 2.233-3.1751 2.2363-5.1172-0.0019-1.9383-0.80739-3.789-2.2246-5.1113z" />
          <path
             id="path93"
             style="paint-order:normal"
             d="m8.4102 3.8662c-0.52095-0.49369-1.1551 0.22003-0.68359 0.73047 0.81045 0.75501 1.2715 1.8123 1.2734 2.9199-0.00128 1.1103-0.46396 2.1701-1.2773 2.9258-0.47259 0.42993 0.13957 1.1522 0.67969 0.73047 1.0168-0.94425 1.5955-2.2686 1.5977-3.6562-0.00172-1.3844-0.57738-2.7062-1.5898-3.6504z" />
        </g>
      </g>
    </g>
  </g>
  <g
     fill="currentColor"
     transform="translate(-246.64 -377.29)"
     class="ColorScheme-Text"
     id="16-16-audio-volume-muted">
    <rect
       id="rect102"
       opacity="0"
       rx="1.125"
       height="16"
       width="18"
       y="324.51"
       x="316.54" />
    <path
       id="path104"
       opacity=".35"
       d="m84.691-68.211c-0.37564 0.0268-0.62259 0.49024-0.28125 0.87109 1.6202 1.5104 2.5416 3.6249 2.5449 5.8398-2e-3 1.4816-0.42222 2.9132-1.1797 4.1543l0.7207 0.7207c0.93395-1.4406 1.4558-3.1272 1.459-4.875-3e-3 -2.4925-1.0386-4.8722-2.8613-6.5723-0.13637-0.10693-0.27713-0.14761-0.40234-0.13867zm-6.7383 1.2109-0.9082 0.92188 0.9082 0.9082zm4.3496 0.23047c-0.39561 0.0119-0.64422 0.53363-0.25781 0.91406 1.2147 1.1326 1.9056 2.7181 1.9082 4.3789-8.14e-4 0.67778-0.121 1.3417-0.33984 1.9688l0.77344 0.77148c0.36686-0.85758 0.56479-1.7877 0.56641-2.7402-2e-3 -1.9383-0.8074-3.789-2.2246-5.1113-0.14685-0.13372-0.2939-0.18561-0.42578-0.18164zm-2.332 1.4688c-0.37603 0.0164-0.64466 0.51365-0.29102 0.89648 0.62045 0.57801 1.0317 1.335 1.1934 2.1543l1.0645 1.0664c0.0062-0.1 0.01547-0.19999 0.01563-0.30078-2e-3 -1.3844-0.57742-2.7062-1.5898-3.6504-0.13024-0.12342-0.26723-0.17148-0.39258-0.16602zm-7.9707 1.3008c-0.554 0-1 0.446-1 1v3c0 0.554 0.446 1 1 1h3l2.9531 3v-4.9258l-3.0723-3.0742zm7.9766 5.0977c-0.09901 0.11581-0.188 0.23896-0.30078 0.34375-0.47259 0.42993 0.13957 1.1522 0.67969 0.73047 0.121-0.11237 0.23539-0.23092 0.34375-0.35352zm1.959 1.959c-0.20865 0.3949 0.22971 0.85344 0.6543 0.6543z"
       transform="translate(246.54 394.51)" />
    <rect
       id="rect106"
       opacity=".35"
       ry="0"
       height="20"
       width="1"
       y="455.31"
       x="-5.4281"
       transform="rotate(-45)" />
  </g>
  <g
     fill="currentColor"
     transform="translate(7.893 -6.7419)"
     class="ColorScheme-Text"
     id="22-22-audio-volume-high">
    <rect
       id="rect109"
       opacity="0"
       ry="0"
       height="24"
       width="24"
       y="-22.258"
       x="-54.893" />
    <g
       id="g117"
       transform="translate(-14.862 2.5994)">
      <path
         id="path111"
         d="m-27.781-20.654c-0.22873-0.01291-0.46234 0.05388-0.62305 0.18555l-4.4062 3.6113h-3.2207c-1.108 0-2 0.892-2 2v4c0 1.108 0.892 2 2 2h3.2207l4.4062 3.6113c0.1607 0.13168 0.39439 0.1984 0.62305 0.18555 0.38109-0.021513 0.75-0.26516 0.75-0.79688v-14c0-0.53171-0.36878-0.77536-0.75-0.79688z" />
      <path
         id="path113"
         d="m-20.001-19.446-1.7422 0.99414a10 10 0 0 1 1.7129 5.5938 10 10 0 0 1-1.7109 5.5938l1.7402 0.99414a12 12 0 0 0 1.9707-6.5879 12 12 0 0 0-1.9707-6.5879z" />
      <path
         id="path115"
         d="m-23.486-17.456-1.7441 0.99805a6 6 0 0 1 1.1992 3.5996 6 6 0 0 1-1.2012 3.5996l1.748 0.99805a8 8 0 0 0 1.4531-4.5977 8 8 0 0 0-1.4551-4.5977z" />
    </g>
  </g>
  <g
     fill="currentColor"
     transform="translate(7.893 27.258)"
     class="ColorScheme-Text"
     id="22-22-audio-volume-medium">
    <rect
       id="rect120"
       opacity="0"
       ry="0"
       height="24"
       width="24"
       y="-22.258"
       x="-54.893" />
    <g
       id="g128"
       transform="translate(-14.862 2.5994)">
      <path
         id="path122"
         d="m-27.781-20.654c-0.22873-0.01291-0.46234 0.05388-0.62305 0.18555l-4.4062 3.6113h-3.2207c-1.108 0-2 0.892-2 2v4c0 1.108 0.892 2 2 2h3.2207l4.4062 3.6113c0.1607 0.13168 0.39439 0.1984 0.62305 0.18555 0.38109-0.021513 0.75-0.26516 0.75-0.79688v-14c0-0.53171-0.36878-0.77536-0.75-0.79688z" />
      <path
         id="path124"
         opacity=".35"
         d="m-20.001-19.446-1.7422 0.99414a10 10 0 0 1 1.7129 5.5938 10 10 0 0 1-1.7109 5.5938l1.7402 0.99414a12 12 0 0 0 1.9707-6.5879 12 12 0 0 0-1.9707-6.5879z" />
      <path
         id="path126"
         d="m-23.486-17.456-1.7441 0.99805a6 6 0 0 1 1.1992 3.5996 6 6 0 0 1-1.2012 3.5996l1.748 0.99805a8 8 0 0 0 1.4531-4.5977 8 8 0 0 0-1.4551-4.5977z" />
    </g>
  </g>
  <g
     fill="currentColor"
     transform="translate(7.893 58.258)"
     class="ColorScheme-Text"
     id="22-22-audio-volume-low">
    <rect
       id="rect131"
       opacity="0"
       ry="0"
       height="24"
       width="24"
       y="-22.258"
       x="-54.893" />
    <g
       id="g139"
       transform="translate(-14.862 2.5994)">
      <path
         id="path133"
         style="paint-order:stroke fill markers"
         stroke-width="3.0237"
         d="m-27.781-20.654c-0.22873-0.01291-0.46234 0.05388-0.62305 0.18555l-4.4062 3.6113h-3.2207c-1.108 0-2 0.892-2 2v4c0 1.108 0.892 2 2 2h3.2207l4.4062 3.6113c0.1607 0.13168 0.39439 0.1984 0.62305 0.18555 0.38109-0.021513 0.75-0.26516 0.75-0.79688v-14c0-0.53171-0.36878-0.77536-0.75-0.79688z" />
      <path
         id="path135"
         opacity=".35"
         d="m-20.001-19.446-1.7422 0.99414a10 10 0 0 1 1.7129 5.5938 10 10 0 0 1-1.7109 5.5938l1.7402 0.99414a12 12 0 0 0 1.9707-6.5879 12 12 0 0 0-1.9707-6.5879z" />
      <path
         id="path137"
         opacity=".35"
         d="m-23.486-17.456-1.7441 0.99805a6 6 0 0 1 1.1992 3.5996 6 6 0 0 1-1.2012 3.5996l1.748 0.99805a8 8 0 0 0 1.4531-4.5977 8 8 0 0 0-1.4551-4.5977z" />
    </g>
  </g>
  <g
     fill="currentColor"
     class="ColorScheme-Text"
     id="22-22-audio-volume-muted">
    <g
       id="g148"
       transform="translate(7.893 87.258)">
      <rect
         id="rect142"
         opacity="0"
         ry="0"
         height="24"
         width="24"
         y="-22.258"
         x="-54.893" />
      <g
         id="g146"
         transform="translate(-14.862 2.5994)">
        <path
           id="path144"
           opacity=".35"
           d="m-34.75 69.203c-0.22873-0.01291-0.46234 0.05388-0.62305 0.18555l-2.4219 1.9863 3.7949 3.7949v-5.1699c0-0.53171-0.36878-0.77536-0.75-0.79688zm7.7793 1.209-1.7422 0.99414a10 10 0 0 1 1.7129 5.5938 10 10 0 0 1-0.93945 4.2305l1.4883 1.4883a12 12 0 0 0 1.4512-5.7188 12 12 0 0 0-1.9707-6.5879zm-3.4844 1.9902-1.7441 0.99805a6 6 0 0 1 1.1992 3.5996 6 6 0 0 1-0.097656 1.0723l1.6289 1.6289a8 8 0 0 0 0.46875-2.7012 8 8 0 0 0-1.4551-4.5977zm-12.545 0.59766c-1.108 0-2 0.892-2 2v4c0 1.108 0.892 2 2 2h3.2207l4.4062 3.6113c0.1607 0.13168 0.39439 0.1984 0.62305 0.18555 0.38109-0.021513 0.75-0.26516 0.75-0.79688v-3.1719l-7.8281-7.8281h-1.1719z"
           transform="translate(6.9691 -89.857)" />
      </g>
    </g>
    <path
       id="path150"
       opacity=".35"
       d="m-44.192 69.222 1.4142-1.4142 16.971 16.971-1.4142 1.4142z" />
  </g>
</svg>
