<?xml version="1.0" encoding="UTF-8" standalone="no"?>
<svg
   width="32"
   height="32"
   version="1.0"
   viewBox="0 0 32 32"
   id="svg133"
   sodipodi:docname="audio.svg"
   inkscape:version="1.2.2 (b0a8486541, 2022-12-01)"
   xmlns:inkscape="http://www.inkscape.org/namespaces/inkscape"
   xmlns:sodipodi="http://sodipodi.sourceforge.net/DTD/sodipodi-0.dtd"
   xmlns="http://www.w3.org/2000/svg"
   xmlns:svg="http://www.w3.org/2000/svg">
  <sodipodi:namedview
     id="namedview135"
     pagecolor="#ffffff"
     bordercolor="#666666"
     borderopacity="1.0"
     inkscape:pageshadow="2"
     inkscape:pageopacity="0.0"
     inkscape:pagecheckerboard="0"
     showgrid="true"
     inkscape:zoom="7.5625002"
     inkscape:cx="138.44628"
     inkscape:cy="17.785123"
     inkscape:window-width="1368"
     inkscape:window-height="688"
     inkscape:window-x="0"
     inkscape:window-y="44"
     inkscape:window-maximized="1"
     inkscape:current-layer="svg133"
     inkscape:snap-bbox="true"
     inkscape:bbox-nodes="true"
     inkscape:snap-bbox-edge-midpoints="true"
     inkscape:showpageshadow="2"
     inkscape:deskcolor="#d1d1d1">
    <inkscape:grid
       type="xygrid"
       id="grid1244" />
  </sodipodi:namedview>
  <defs
     id="defs3">
    <style
       id="current-color-scheme"
       type="text/css">.ColorScheme-Text { color:#363636; }</style>
  </defs>
  <g
     id="22-22-audio-volume-high"
     class="ColorScheme-Text"
     fill="currentColor">
    <rect
       x="-47"
       y="-28.999899"
       width="22"
       height="22"
       ry="0"
       id="rect5"
       style="fill:none" />
    <path
       d="m -35.75005,-25.79685 c -0.22873,-0.01291 -0.46234,0.05388 -0.62305,0.18555 L -40.7793,-22 H -44 c -1.108,0 -2,0.892 -2,2 v 4 c 0,1.108 0.892,2 2,2 h 3.2207 l 4.4062,3.6113 c 0.1607,0.13168 0.39439,0.1984 0.62305,0.18555 0.38109,-0.02151 0.75,-0.26516 0.75,-0.79688 v -14 c 0,-0.53171 -0.36878,-0.77536 -0.75,-0.79688 z"
       id="path7" />
    <path
       d="m -27.97005,-24.58885 -1.7422,0.99414 a 10,10 0 0 1 1.7129,5.5938 10,10 0 0 1 -1.7109,5.5938 l 1.7402,0.99414 a 12,12 0 0 0 1.9707,-6.5879 12,12 0 0 0 -1.9707,-6.5879 z"
       id="path9" />
    <path
       d="m -31.45505,-22.59885 -1.7441,0.99805 a 6,6 0 0 1 1.1992,3.5996 6,6 0 0 1 -1.2012,3.5996 l 1.748,0.99805 a 8,8 0 0 0 1.4531,-4.5977 8,8 0 0 0 -1.4551,-4.5977 z"
       id="path11" />
  </g>
  <g
     id="22-22-audio-volume-medium"
     class="ColorScheme-Text"
     fill="currentColor">
    <rect
       x="-47"
       y="5"
       width="22"
       height="22"
       ry="0"
       id="rect1119"
       style="fill:none" />
    <path
       d="m -35.75005,8.2031561 c -0.22873,-0.01291 -0.46234,0.05388 -0.62305,0.18555 l -4.4062,3.6112999 H -44 c -1.108,0 -2,0.892 -2,2 v 4 c 0,1.108 0.892,2 2,2 h 3.2207 l 4.4062,3.6113 c 0.1607,0.13168 0.39439,0.1984 0.62305,0.18555 0.38109,-0.02151 0.75,-0.26516 0.75,-0.79688 V 8.9999761 c 0,-0.53171 -0.36878,-0.77536 -0.75,-0.79688 z"
       id="path18" />
    <path
       d="m -27.97005,9.4111561 -1.7422,0.9941399 a 10,10 0 0 1 1.7129,5.5938 10,10 0 0 1 -1.7109,5.5938 l 1.7402,0.99414 a 12,12 0 0 0 1.9707,-6.5879 12,12 0 0 0 -1.9707,-6.5878999 z"
       opacity="0.35"
       id="path20" />
    <path
       d="m -31.45505,11.401156 -1.7441,0.99805 a 6,6 0 0 1 1.1992,3.5996 6,6 0 0 1 -1.2012,3.5996 l 1.748,0.99805 a 8,8 0 0 0 1.4531,-4.5977 8,8 0 0 0 -1.4551,-4.5977 z"
       id="path22" />
  </g>
  <g
     id="22-22-audio-volume-low"
     class="ColorScheme-Text"
     fill="currentColor">
    <rect
       x="-47"
       y="36"
       width="22"
       height="22"
       ry="0"
       id="rect1201"
       style="fill:none" />
    <path
       d="m -35.75005,39.203156 c -0.22873,-0.01291 -0.46234,0.05388 -0.62305,0.18555 l -4.4062,3.6113 H -44 c -1.108,0 -2,0.892 -2,2 v 4 c 0,1.108 0.892,2 2,2 h 3.2207 l 4.4062,3.6113 c 0.1607,0.13168 0.39439,0.1984 0.62305,0.18555 0.38109,-0.02151 0.75,-0.26516 0.75,-0.79688 v -14 c 0,-0.53171 -0.36878,-0.77536 -0.75,-0.79688 z"
       id="path29" />
    <path
       d="m -27.97005,40.411156 -1.7422,0.99414 a 10,10 0 0 1 1.7129,5.5938 10,10 0 0 1 -1.7109,5.5938 l 1.7402,0.99414 a 12,12 0 0 0 1.9707,-6.5879 12,12 0 0 0 -1.9707,-6.5879 z"
       opacity="0.35"
       id="path31" />
    <path
       d="m -31.45505,42.401156 -1.7441,0.99805 a 6,6 0 0 1 1.1992,3.5996 6,6 0 0 1 -1.2012,3.5996 l 1.748,0.99805 a 8,8 0 0 0 1.4531,-4.5977 8,8 0 0 0 -1.4551,-4.5977 z"
       opacity="0.35"
       id="path33" />
  </g>
  <g
     id="audio-volume-high"
     class="ColorScheme-Text"
     fill="currentColor">
    <path
       d="m26.137 4.8613-1.6836 1.0938a16 16 0 0 1 3.5469 10.045 16 16 0 0 1-3.5469 10.045l1.6855 1.0957a18 18 0 0 0 3.8613-11.141 18 18 0 0 0-3.8633-11.139z"
       id="path49" />
    <rect
       x="-6.7139e-6"
       y="9.7656e-6"
       width="32"
       height="32"
       ry=".35556"
       opacity="0"
       id="rect51" />
    <path
       d="m8.93 12h-4.604c-0.736 0-1.3333 0.59733-1.3333 1.3333v5.3333c0 0.73601 0.59733 1.3334 1.3333 1.3334h4.604l4.396 4h0.66666v-16h-0.66666z"
       id="path53" />
    <path
       d="m21.922 7.6016-1.6934 1.0996a11 11 0 0 1 2.7715 7.2988 11 11 0 0 1-2.7715 7.2988l1.6934 1.0996a13 13 0 0 0 3.0781-8.3984 13 13 0 0 0-3.0781-8.3984z"
       id="path55" />
    <path
       d="m17.674 10.361-1.7246 1.1211a6 6 0 0 1 2.0508 4.5176 6 6 0 0 1-2.0508 4.5176l1.7246 1.1211a8 8 0 0 0 2.3262-5.6387 8 8 0 0 0-2.3262-5.6387z"
       id="path57" />
  </g>
  <g
     id="audio-volume-medium"
     class="ColorScheme-Text"
     transform="translate(41.07)"
     fill="currentColor">
    <path
       d="m26.137 4.8613-1.6836 1.0938a16 16 0 0 1 3.5469 10.045 16 16 0 0 1-3.5469 10.045l1.6855 1.0957a18 18 0 0 0 3.8613-11.141 18 18 0 0 0-3.8633-11.139z"
       opacity=".35"
       id="path60" />
    <rect
       x="-6.7139e-6"
       y="9.7656e-6"
       width="32"
       height="32"
       ry=".35556"
       opacity="0"
       id="rect62" />
    <g
       class="ColorScheme-Text"
       fill="currentColor"
       id="g70">
      <path
         d="m8.93 12h-4.604c-0.736 0-1.3333 0.59733-1.3333 1.3333v5.3333c0 0.73601 0.59733 1.3334 1.3333 1.3334h4.604l4.396 4h0.66666v-16h-0.66666z"
         id="path64" />
      <path
         d="m21.922 7.6016-1.6934 1.0996a11 11 0 0 1 2.7715 7.2988 11 11 0 0 1-2.7715 7.2988l1.6934 1.0996a13 13 0 0 0 3.0781-8.3984 13 13 0 0 0-3.0781-8.3984z"
         id="path66" />
      <path
         d="m17.674 10.361-1.7246 1.1211a6 6 0 0 1 2.0508 4.5176 6 6 0 0 1-2.0508 4.5176l1.7246 1.1211a8 8 0 0 0 2.3262-5.6387 8 8 0 0 0-2.3262-5.6387z"
         id="path68" />
    </g>
  </g>
  <g
     id="audio-volume-low"
     class="ColorScheme-Text"
     transform="translate(81.07)"
     fill="currentColor">
    <path
       d="m26.137 4.8613-1.6836 1.0938a16 16 0 0 1 3.5469 10.045 16 16 0 0 1-3.5469 10.045l1.6855 1.0957a18 18 0 0 0 3.8613-11.141 18 18 0 0 0-3.8633-11.139z"
       opacity=".35"
       id="path73" />
    <rect
       x="-6.7139e-6"
       y="9.7656e-6"
       width="32"
       height="32"
       ry=".35556"
       opacity="0"
       id="rect75" />
    <g
       class="ColorScheme-Text"
       fill="currentColor"
       id="g83">
      <path
         d="m8.93 12h-4.604c-0.736 0-1.3333 0.59733-1.3333 1.3333v5.3333c0 0.73601 0.59733 1.3334 1.3333 1.3334h4.604l4.396 4h0.66666v-16h-0.66666z"
         id="path77" />
      <path
         d="m21.922 7.6016-1.6934 1.0996a11 11 0 0 1 2.7715 7.2988 11 11 0 0 1-2.7715 7.2988l1.6934 1.0996a13 13 0 0 0 3.0781-8.3984 13 13 0 0 0-3.0781-8.3984z"
         opacity=".35"
         id="path79" />
      <path
         d="m17.674 10.361-1.7246 1.1211a6 6 0 0 1 2.0508 4.5176 6 6 0 0 1-2.0508 4.5176l1.7246 1.1211a8 8 0 0 0 2.3262-5.6387 8 8 0 0 0-2.3262-5.6387z"
         id="path81" />
    </g>
  </g>
  <g
     id="16-16-audio-volume-high">
    <rect
       id="rect937"
       width="16"
       height="16"
       x="5"
       y="-30"
       rx="0"
       ry="0"
       style="fill:none" />
    <g
       id="g1242"
       class="ColorScheme-Text"
       fill="currentColor"
       transform="translate(-0.66610098,0.19351387)">
      <path
         id="rect906"
         d="m 13.621094,-27.193359 -2.955078,3 H 7.6660156 c -0.5539999,0 -1,0.446 -1,1 v 3 c 0,0.554 0.4460001,1 1,1 h 3.0000004 l 2.955078,3 z" />
      <path
         id="path912-5"
         d="m 18.3953,-26.780311 c -0.58741,-0.53488 -1.1988,0.22518 -0.68359,0.73242 1.2147,1.1326 1.9056,2.7181 1.9082,4.3789 -0.0019,1.6654 -0.69594,3.255099 -1.916,4.388699 -0.46835,0.44623 0.17346,1.1467 0.67969,0.72852 1.423,-1.3216 2.233,-3.175099 2.2363,-5.117199 -0.0019,-1.9383 -0.80739,-3.789 -2.2246,-5.1113 z" />
      <path
         id="path914-3"
         d="m 16.0305,-25.327277 c -0.52095,-0.49369 -1.1551,0.22003 -0.68359,0.73047 0.81045,0.75501 1.2715,1.8123 1.2734,2.9199 -0.0013,1.1103 -0.46396,2.1701 -1.2773,2.9258 -0.47259,0.42993 0.13957,1.1522 0.67969,0.73047 1.0168,-0.94425 1.5955,-2.2686 1.5977,-3.6562 -0.0017,-1.3844 -0.57738,-2.7062 -1.5898,-3.6504 z" />
    </g>
  </g>
  <g
     id="16-16-audio-volume-medium"
     transform="translate(25.000085)">
    <rect
       id="rect1370"
       width="16"
       height="16"
       x="5"
       y="-30"
       rx="0"
       ry="0"
       style="fill:none" />
    <g
       id="g1378"
       class="ColorScheme-Text"
       fill="currentColor"
       transform="translate(-0.66610098,0.19351387)">
      <path
         id="path1372"
         d="m 13.621094,-27.193359 -2.955078,3 H 7.6660156 c -0.5539999,0 -1,0.446 -1,1 v 3 c 0,0.554 0.4460001,1 1,1 h 3.0000004 l 2.955078,3 z" />
      <path
         id="path1374"
         d="m 18.3953,-26.780311 c -0.58741,-0.53488 -1.1988,0.22518 -0.68359,0.73242 1.2147,1.1326 1.9056,2.7181 1.9082,4.3789 -0.0019,1.6654 -0.69594,3.255099 -1.916,4.388699 -0.46835,0.44623 0.17346,1.1467 0.67969,0.72852 1.423,-1.3216 2.233,-3.175099 2.2363,-5.117199 -0.0019,-1.9383 -0.80739,-3.789 -2.2246,-5.1113 z"
         style="opacity:0.35" />
      <path
         id="path1376"
         d="m 16.0305,-25.327277 c -0.52095,-0.49369 -1.1551,0.22003 -0.68359,0.73047 0.81045,0.75501 1.2715,1.8123 1.2734,2.9199 -0.0013,1.1103 -0.46396,2.1701 -1.2773,2.9258 -0.47259,0.42993 0.13957,1.1522 0.67969,0.73047 1.0168,-0.94425 1.5955,-2.2686 1.5977,-3.6562 -0.0017,-1.3844 -0.57738,-2.7062 -1.5898,-3.6504 z" />
    </g>
  </g>
  <g
     id="16-16-audio-volume-low"
     transform="translate(50.000085)">
    <rect
       id="rect1382"
       width="16"
       height="16"
       x="5"
       y="-30"
       rx="0"
       ry="0"
       style="fill:none" />
    <g
       id="g1390"
       class="ColorScheme-Text"
       fill="currentColor"
       transform="translate(-0.66610098,0.19351387)">
      <path
         id="path1384"
         d="m 13.621094,-27.193359 -2.955078,3 H 7.6660156 c -0.5539999,0 -1,0.446 -1,1 v 3 c 0,0.554 0.4460001,1 1,1 h 3.0000004 l 2.955078,3 z" />
      <path
         id="path1386"
         d="m 18.3953,-26.780311 c -0.58741,-0.53488 -1.1988,0.22518 -0.68359,0.73242 1.2147,1.1326 1.9056,2.7181 1.9082,4.3789 -0.0019,1.6654 -0.69594,3.255099 -1.916,4.388699 -0.46835,0.44623 0.17346,1.1467 0.67969,0.72852 1.423,-1.3216 2.233,-3.175099 2.2363,-5.117199 -0.0019,-1.9383 -0.80739,-3.789 -2.2246,-5.1113 z"
         style="opacity:0.35" />
      <path
         id="path1388"
         d="m 16.0305,-25.327277 c -0.52095,-0.49369 -1.1551,0.22003 -0.68359,0.73047 0.81045,0.75501 1.2715,1.8123 1.2734,2.9199 -0.0013,1.1103 -0.46396,2.1701 -1.2773,2.9258 -0.47259,0.42993 0.13957,1.1522 0.67969,0.73047 1.0168,-0.94425 1.5955,-2.2686 1.5977,-3.6562 -0.0017,-1.3844 -0.57738,-2.7062 -1.5898,-3.6504 z"
         style="opacity:0.35" />
    </g>
  </g>
  <g
     id="16-16-audio-volume-muted">
    <rect
       id="rect767"
       width="16"
       height="16"
       x="85.000084"
       y="-30"
       rx="0"
       ry="0"
       style="fill:none" />
    <g
       id="g775"
       class="ColorScheme-Text"
       fill="currentColor"
       transform="translate(79.333984,0.19351387)"
       style="opacity:0.35">
      <path
         id="path769"
         d="m 13.621094,-27.193359 -2.955078,3 H 7.6660156 c -0.5539999,0 -1,0.446 -1,1 v 3 c 0,0.554 0.4460001,1 1,1 h 3.0000004 l 2.955078,3 z" />
      <path
         id="path771"
         d="m 18.3953,-26.780311 c -0.58741,-0.53488 -1.1988,0.22518 -0.68359,0.73242 1.2147,1.1326 1.9056,2.7181 1.9082,4.3789 -0.0019,1.6654 -0.69594,3.255099 -1.916,4.388699 -0.46835,0.44623 0.17346,1.1467 0.67969,0.72852 1.423,-1.3216 2.233,-3.175099 2.2363,-5.117199 -0.0019,-1.9383 -0.80739,-3.789 -2.2246,-5.1113 z" />
      <path
         id="path773"
         d="m 16.0305,-25.327277 c -0.52095,-0.49369 -1.1551,0.22003 -0.68359,0.73047 0.81045,0.75501 1.2715,1.8123 1.2734,2.9199 -0.0013,1.1103 -0.46396,2.1701 -1.2773,2.9258 -0.47259,0.42993 0.13957,1.1522 0.67969,0.73047 1.0168,-0.94425 1.5955,-2.2686 1.5977,-3.6562 -0.0017,-1.3844 -0.57738,-2.7062 -1.5898,-3.6504 z" />
    </g>
    <rect
       id="rect840"
       width="20"
       height="1"
       x="40.204639"
       y="-81.817337"
       rx="0.5"
       ry="0.5"
       transform="rotate(45)"
       class="ColorScheme-Text"
       fill="currentColor" />
  </g>
  <g
     id="22-22-audio-volume-muted"
     class="ColorScheme-Text"
     fill="currentColor">
    <rect
       x="-47"
       y="75.000099"
       width="22"
       height="22"
       ry="0"
       id="rect897"
       style="fill:none" />
    <path
       id="path899"
       d="m -35.75,78.203125 c -0.22873,-0.01291 -0.462337,0.05388 -0.623047,0.185547 L -40.779297,82 H -44 c -1.107999,0 -2,0.892001 -2,2 v 4 c 0,1.107999 0.892001,2 2,2 h 3.220703 l 4.40625,3.611328 c 0.1607,0.13168 0.394387,0.198397 0.623047,0.185547 C -35.36891,93.775365 -35,93.531719 -35,93 V 79 c 0,-0.531709 -0.36878,-0.775355 -0.75,-0.796875 z m 7.779297,1.208984 -1.742188,0.994141 A 10,10 0 0 1 -28,86 a 10,10 0 0 1 -1.710938,5.59375 l 1.740235,0.994141 A 12,12 0 0 0 -26,86 12,12 0 0 0 -27.970703,79.412109 Z m -3.484375,1.988282 -1.744141,0.998047 A 6,6 0 0 1 -32,85.998047 a 6,6 0 0 1 -1.201172,3.599609 l 1.748047,0.998047 A 8,8 0 0 0 -30,85.998047 8,8 0 0 0 -31.455078,81.400391 Z"
       style="opacity:0.35" />
    <rect
       id="rect911"
       width="28"
       height="2"
       x="21.355408"
       y="85.267097"
       rx="1"
       ry="1"
       transform="rotate(45)" />
  </g>
  <g
     id="audio-volume-muted"
     class="ColorScheme-Text"
     fill="currentColor">
    <path
       id="path1001"
       d="M 154.14453 4.8613281 L 152.46094 5.9550781 A 16 16 0 0 1 156.00781 16 A 16 16 0 0 1 152.46094 26.044922 L 154.14648 27.140625 A 18 18 0 0 0 158.00781 16 A 18 18 0 0 0 154.14453 4.8613281 z M 149.92969 7.6015625 L 148.23633 8.7011719 A 11 11 0 0 1 151.00781 16 A 11 11 0 0 1 148.23633 23.298828 L 149.92969 24.398438 A 13 13 0 0 0 153.00781 16 A 13 13 0 0 0 149.92969 7.6015625 z M 141.33398 8 L 136.9375 12 L 132.33398 12 C 131.59799 12 131 12.598015 131 13.333984 L 131 18.666016 C 131 19.402025 131.59802 20 132.33398 20 L 136.9375 20 L 141.33398 24 L 142 24 L 142 8 L 141.33398 8 z M 145.68164 10.361328 L 143.95703 11.482422 A 6 6 0 0 1 146.00781 16 A 6 6 0 0 1 143.95703 20.517578 L 145.68164 21.638672 A 8 8 0 0 0 148.00781 16 A 8 8 0 0 0 145.68164 10.361328 z "
       style="opacity:0.35" />
    <rect
       transform="rotate(-45)"
       x="89.514816"
       y="97.14225"
       width="2"
       height="32"
       id="rect90"
       rx="1"
       ry="1" />
    <rect
       x="128.00729"
       y="9.7656002e-06"
       width="32"
       height="32"
       ry="0.35556"
       opacity="0"
       id="rect1003"
       style="color:#363636;fill:#363636" />
  </g>
</svg>
