<?xml version="1.0" encoding="UTF-8" standalone="no"?>
<svg
   width="32"
   height="32"
   version="1.0"
   viewBox="0 0 32 32"
   id="svg133"
   sodipodi:docname="audio.svg"
   inkscape:version="1.2.2 (b0a8486541, 2022-12-01)"
   xmlns:inkscape="http://www.inkscape.org/namespaces/inkscape"
   xmlns:sodipodi="http://sodipodi.sourceforge.net/DTD/sodipodi-0.dtd"
   xmlns="http://www.w3.org/2000/svg"
   xmlns:svg="http://www.w3.org/2000/svg">
  <sodipodi:namedview
     id="namedview135"
     pagecolor="#ffffff"
     bordercolor="#666666"
     borderopacity="1.0"
     inkscape:pageshadow="2"
     inkscape:pageopacity="0.0"
     inkscape:pagecheckerboard="0"
     showgrid="true"
     inkscape:zoom="5.6568542"
     inkscape:cx="67.528698"
     inkscape:cy="-0.70710678"
     inkscape:window-width="1920"
     inkscape:window-height="1014"
     inkscape:window-x="0"
     inkscape:window-y="32"
     inkscape:window-maximized="1"
     inkscape:current-layer="svg133"
     inkscape:snap-bbox="true"
     inkscape:bbox-nodes="true"
     inkscape:snap-bbox-edge-midpoints="true"
     inkscape:showpageshadow="2"
     inkscape:deskcolor="#d1d1d1">
    <inkscape:grid
       type="xygrid"
       id="grid1244"
       spacingy="0.5"
       spacingx="0.5" />
  </sodipodi:namedview>
  <defs
     id="defs3">
    <style
       id="current-color-scheme"
       type="text/css">.ColorScheme-Text { color:#363636; }</style>
  </defs>
  <g
     id="16-16-audio-volume-high"
     transform="translate(2.999915,-33)">
    <rect
       id="rect937"
       width="16"
       height="16"
       x="5"
       y="-30"
       rx="0"
       ry="0"
       style="fill:none" />
    <g
       id="g1242"
       class="ColorScheme-Text"
       fill="currentColor"
       transform="translate(-0.66610098,0.19351387)">
      <path
         id="rect906"
         d="m 13.621094,-27.193359 -2.955078,3 H 7.6660156 c -0.5539999,0 -1,0.446 -1,1 v 3 c 0,0.554 0.4460001,1 1,1 h 3.0000004 l 2.955078,3 z" />
      <path
         id="path912-5"
         d="m 18.3953,-26.780311 c -0.58741,-0.53488 -1.1988,0.22518 -0.68359,0.73242 1.2147,1.1326 1.9056,2.7181 1.9082,4.3789 -0.0019,1.6654 -0.69594,3.255099 -1.916,4.388699 -0.46835,0.44623 0.17346,1.1467 0.67969,0.72852 1.423,-1.3216 2.233,-3.175099 2.2363,-5.117199 -0.0019,-1.9383 -0.80739,-3.789 -2.2246,-5.1113 z" />
      <path
         id="path914-3"
         d="m 16.0305,-25.327277 c -0.52095,-0.49369 -1.1551,0.22003 -0.68359,0.73047 0.81045,0.75501 1.2715,1.8123 1.2734,2.9199 -0.0013,1.1103 -0.46396,2.1701 -1.2773,2.9258 -0.47259,0.42993 0.13957,1.1522 0.67969,0.73047 1.0168,-0.94425 1.5955,-2.2686 1.5977,-3.6562 -0.0017,-1.3844 -0.57738,-2.7062 -1.5898,-3.6504 z" />
    </g>
  </g>
  <g
     id="16-16-audio-volume-medium"
     transform="translate(22.522546,-33)">
    <rect
       id="rect1370"
       width="16"
       height="16"
       x="5"
       y="-30"
       rx="0"
       ry="0"
       style="fill:none" />
    <g
       id="g1378"
       class="ColorScheme-Text"
       fill="currentColor"
       transform="translate(-0.66610098,0.19351387)">
      <path
         id="path1372"
         d="m 13.621094,-27.193359 -2.955078,3 H 7.6660156 c -0.5539999,0 -1,0.446 -1,1 v 3 c 0,0.554 0.4460001,1 1,1 h 3.0000004 l 2.955078,3 z" />
      <path
         id="path1374"
         d="m 18.3953,-26.780311 c -0.58741,-0.53488 -1.1988,0.22518 -0.68359,0.73242 1.2147,1.1326 1.9056,2.7181 1.9082,4.3789 -0.0019,1.6654 -0.69594,3.255099 -1.916,4.388699 -0.46835,0.44623 0.17346,1.1467 0.67969,0.72852 1.423,-1.3216 2.233,-3.175099 2.2363,-5.117199 -0.0019,-1.9383 -0.80739,-3.789 -2.2246,-5.1113 z"
         style="opacity:0.35" />
      <path
         id="path1376"
         d="m 16.0305,-25.327277 c -0.52095,-0.49369 -1.1551,0.22003 -0.68359,0.73047 0.81045,0.75501 1.2715,1.8123 1.2734,2.9199 -0.0013,1.1103 -0.46396,2.1701 -1.2773,2.9258 -0.47259,0.42993 0.13957,1.1522 0.67969,0.73047 1.0168,-0.94425 1.5955,-2.2686 1.5977,-3.6562 -0.0017,-1.3844 -0.57738,-2.7062 -1.5898,-3.6504 z" />
    </g>
  </g>
  <g
     id="16-16-audio-volume-low"
     transform="translate(40.000085,-33)">
    <rect
       id="rect1382"
       width="16"
       height="16"
       x="5"
       y="-30"
       rx="0"
       ry="0"
       style="fill:none" />
    <g
       id="g1390"
       class="ColorScheme-Text"
       fill="currentColor"
       transform="translate(-0.66610098,0.19351387)">
      <path
         id="path1384"
         d="m 13.621094,-27.193359 -2.955078,3 H 7.6660156 c -0.5539999,0 -1,0.446 -1,1 v 3 c 0,0.554 0.4460001,1 1,1 h 3.0000004 l 2.955078,3 z" />
      <path
         id="path1386"
         d="m 18.3953,-26.780311 c -0.58741,-0.53488 -1.1988,0.22518 -0.68359,0.73242 1.2147,1.1326 1.9056,2.7181 1.9082,4.3789 -0.0019,1.6654 -0.69594,3.255099 -1.916,4.388699 -0.46835,0.44623 0.17346,1.1467 0.67969,0.72852 1.423,-1.3216 2.233,-3.175099 2.2363,-5.117199 -0.0019,-1.9383 -0.80739,-3.789 -2.2246,-5.1113 z"
         style="opacity:0.35" />
      <path
         id="path1388"
         d="m 16.0305,-25.327277 c -0.52095,-0.49369 -1.1551,0.22003 -0.68359,0.73047 0.81045,0.75501 1.2715,1.8123 1.2734,2.9199 -0.0013,1.1103 -0.46396,2.1701 -1.2773,2.9258 -0.47259,0.42993 0.13957,1.1522 0.67969,0.73047 1.0168,-0.94425 1.5955,-2.2686 1.5977,-3.6562 -0.0017,-1.3844 -0.57738,-2.7062 -1.5898,-3.6504 z"
         style="opacity:0.35" />
    </g>
  </g>
  <g
     id="16-16-audio-volume-muted"
     transform="translate(-22.5,-33)">
    <rect
       id="rect767"
       width="16"
       height="16"
       x="85.000084"
       y="-30"
       rx="0"
       ry="0"
       style="fill:none" />
    <g
       id="g775"
       class="ColorScheme-Text"
       fill="currentColor"
       transform="translate(79.333984,0.19351387)"
       style="opacity:0.35">
      <path
         id="path769"
         d="m 13.621094,-27.193359 -2.955078,3 H 7.6660156 c -0.5539999,0 -1,0.446 -1,1 v 3 c 0,0.554 0.4460001,1 1,1 h 3.0000004 l 2.955078,3 z" />
      <path
         id="path771"
         d="m 18.3953,-26.780311 c -0.58741,-0.53488 -1.1988,0.22518 -0.68359,0.73242 1.2147,1.1326 1.9056,2.7181 1.9082,4.3789 -0.0019,1.6654 -0.69594,3.255099 -1.916,4.388699 -0.46835,0.44623 0.17346,1.1467 0.67969,0.72852 1.423,-1.3216 2.233,-3.175099 2.2363,-5.117199 -0.0019,-1.9383 -0.80739,-3.789 -2.2246,-5.1113 z" />
      <path
         id="path773"
         d="m 16.0305,-25.327277 c -0.52095,-0.49369 -1.1551,0.22003 -0.68359,0.73047 0.81045,0.75501 1.2715,1.8123 1.2734,2.9199 -0.0013,1.1103 -0.46396,2.1701 -1.2773,2.9258 -0.47259,0.42993 0.13957,1.1522 0.67969,0.73047 1.0168,-0.94425 1.5955,-2.2686 1.5977,-3.6562 -0.0017,-1.3844 -0.57738,-2.7062 -1.5898,-3.6504 z" />
    </g>
    <rect
       id="rect840"
       width="20"
       height="1"
       x="40.204639"
       y="-81.817337"
       rx="0.5"
       ry="0.5"
       transform="rotate(45)"
       class="ColorScheme-Text"
       fill="currentColor" />
  </g>
  <g
     id="22-22-audio-volume-high"
     class="ColorScheme-Text"
     fill="currentColor"
     transform="translate(78)">
    <path
       d="m -58.466798,-20.875 a 0.75,0.75 0 0 0 -0.566406,0.0918 0.75,0.75 0 0 0 -0.246094,1.03125 c 0.509388,0.827413 0.779137,1.780305 0.779297,2.75195 -0.0027,0.970313 -0.274912,1.920738 -0.785156,2.746094 a 0.75,0.75 0 0 0 0.24414,1.033203 0.75,0.75 0 0 0 1.033204,-0.244141 c 0.6564,-1.061773 1.004812,-2.284918 1.007812,-3.533203 a 0.750075,0.750075 0 0 0 0,-0.002 c -2.06e-4,-1.249145 -0.347086,-2.473385 -1.001953,-3.537109 A 0.75,0.75 0 0 0 -58.466798,-20.875 Z"
       id="path294" />
    <path
       d="m -55.25,-22.587891 a 0.75,0.75 0 0 0 -0.333984,1.00586 c 0.712335,1.422674 1.082959,2.990962 1.083984,4.582031 -0.0072,1.588413 -0.383913,3.154169 -1.099609,4.572266 a 0.75,0.75 0 0 0 0.332031,1.007812 0.75,0.75 0 0 0 1.007812,-0.332031 c 0.821086,-1.626916 1.252147,-3.421787 1.259766,-5.244141 a 0.750075,0.750075 0 0 0 0,-0.002 0.750075,0.750075 0 0 0 0,-0.002 c -0.0012,-1.823828 -0.427574,-3.623062 -1.244141,-5.253906 A 0.75,0.75 0 0 0 -55.25,-22.587891 Z"
       id="path1191" />
    <rect
       x="-74"
       y="-28"
       width="22"
       height="22"
       ry="0"
       id="rect1315"
       style="color:#363636;fill:none" />
    <path
       d="m -62.75005,-24.29685 c -0.22873,-0.01291 -0.46234,0.05388 -0.62305,0.18555 L -67.7793,-20.5 H -70.5 c -1.108,0 -2,0.892 -2,2 v 3 c 0,1.108 0.892,2 2,2 h 2.7207 l 4.4062,3.6113 c 0.1607,0.13168 0.39439,0.1984 0.62305,0.18555 0.38109,-0.02151 0.75,-0.26516 0.75,-0.79688 v -13 c 0,-0.53171 -0.36878,-0.77536 -0.75,-0.79688 z"
       id="path1317"
       sodipodi:nodetypes="cccsssscccsscc" />
  </g>
  <g
     id="22-22-audio-volume-medium"
     class="ColorScheme-Text"
     fill="currentColor"
     transform="translate(102)">
    <path
       d="m -58.466798,-20.875 a 0.75,0.75 0 0 0 -0.566406,0.0918 0.75,0.75 0 0 0 -0.246094,1.03125 c 0.509388,0.827413 0.779137,1.780305 0.779297,2.75195 -0.0027,0.970313 -0.274912,1.920738 -0.785156,2.746094 a 0.75,0.75 0 0 0 0.24414,1.033203 0.75,0.75 0 0 0 1.033204,-0.244141 c 0.6564,-1.061773 1.004812,-2.284918 1.007812,-3.533203 a 0.750075,0.750075 0 0 0 0,-0.002 c -2.06e-4,-1.249145 -0.347086,-2.473385 -1.001953,-3.537109 A 0.75,0.75 0 0 0 -58.466798,-20.875 Z"
       id="path1347" />
    <path
       d="m -55.25,-22.587891 a 0.75,0.75 0 0 0 -0.333984,1.00586 c 0.712335,1.422674 1.082959,2.990962 1.083984,4.582031 -0.0072,1.588413 -0.383913,3.154169 -1.099609,4.572266 a 0.75,0.75 0 0 0 0.332031,1.007812 0.75,0.75 0 0 0 1.007812,-0.332031 c 0.821086,-1.626916 1.252147,-3.421787 1.259766,-5.244141 a 0.750075,0.750075 0 0 0 0,-0.002 0.750075,0.750075 0 0 0 0,-0.002 c -0.0012,-1.823828 -0.427574,-3.623062 -1.244141,-5.253906 A 0.75,0.75 0 0 0 -55.25,-22.587891 Z"
       id="path1349"
       style="opacity:0.35" />
    <rect
       x="-74"
       y="-28"
       width="22"
       height="22"
       ry="0"
       id="rect1351"
       style="color:#363636;fill:none" />
    <path
       d="m -62.75005,-24.29685 c -0.22873,-0.01291 -0.46234,0.05388 -0.62305,0.18555 L -67.7793,-20.5 H -70.5 c -1.108,0 -2,0.892 -2,2 v 3 c 0,1.108 0.892,2 2,2 h 2.7207 l 4.4062,3.6113 c 0.1607,0.13168 0.39439,0.1984 0.62305,0.18555 0.38109,-0.02151 0.75,-0.26516 0.75,-0.79688 v -13 c 0,-0.53171 -0.36878,-0.77536 -0.75,-0.79688 z"
       id="path1353"
       sodipodi:nodetypes="cccsssscccsscc" />
  </g>
  <g
     id="22-22-audio-volume-low"
     class="ColorScheme-Text"
     fill="currentColor"
     transform="translate(126)">
    <path
       d="m -58.466798,-20.875 a 0.75,0.75 0 0 0 -0.566406,0.0918 0.75,0.75 0 0 0 -0.246094,1.03125 c 0.509388,0.827413 0.779137,1.780305 0.779297,2.75195 -0.0027,0.970313 -0.274912,1.920738 -0.785156,2.746094 a 0.75,0.75 0 0 0 0.24414,1.033203 0.75,0.75 0 0 0 1.033204,-0.244141 c 0.6564,-1.061773 1.004812,-2.284918 1.007812,-3.533203 a 0.750075,0.750075 0 0 0 0,-0.002 c -2.06e-4,-1.249145 -0.347086,-2.473385 -1.001953,-3.537109 A 0.75,0.75 0 0 0 -58.466798,-20.875 Z"
       id="path1357"
       style="opacity:0.35" />
    <path
       d="m -55.25,-22.587891 a 0.75,0.75 0 0 0 -0.333984,1.00586 c 0.712335,1.422674 1.082959,2.990962 1.083984,4.582031 -0.0072,1.588413 -0.383913,3.154169 -1.099609,4.572266 a 0.75,0.75 0 0 0 0.332031,1.007812 0.75,0.75 0 0 0 1.007812,-0.332031 c 0.821086,-1.626916 1.252147,-3.421787 1.259766,-5.244141 a 0.750075,0.750075 0 0 0 0,-0.002 0.750075,0.750075 0 0 0 0,-0.002 c -0.0012,-1.823828 -0.427574,-3.623062 -1.244141,-5.253906 A 0.75,0.75 0 0 0 -55.25,-22.587891 Z"
       id="path1359"
       style="opacity:0.35" />
    <rect
       x="-74"
       y="-28"
       width="22"
       height="22"
       ry="0"
       id="rect1361"
       style="color:#363636;fill:none" />
    <path
       d="m -62.75005,-24.29685 c -0.22873,-0.01291 -0.46234,0.05388 -0.62305,0.18555 L -67.7793,-20.5 H -70.5 c -1.108,0 -2,0.892 -2,2 v 3 c 0,1.108 0.892,2 2,2 h 2.7207 l 4.4062,3.6113 c 0.1607,0.13168 0.39439,0.1984 0.62305,0.18555 0.38109,-0.02151 0.75,-0.26516 0.75,-0.79688 v -13 c 0,-0.53171 -0.36878,-0.77536 -0.75,-0.79688 z"
       id="path1363"
       sodipodi:nodetypes="cccsssscccsscc" />
  </g>
  <rect
     x="43"
     y="-30.999901"
     width="22"
     height="22"
     ry="0"
     id="rect1377"
     style="color:#363636;fill:none" />
  <g
     id="22-22-audio-volume-muted"
     class="ColorScheme-Text"
     fill="currentColor"
     transform="translate(78)">
    <path
       d="m 13.533202,-20.875 a 0.75,0.75 0 0 0 -0.566406,0.0918 0.75,0.75 0 0 0 -0.246094,1.03125 c 0.509388,0.827413 0.779137,1.780305 0.779297,2.75195 -0.0027,0.970313 -0.274912,1.920738 -0.785156,2.746094 a 0.75,0.75 0 0 0 0.24414,1.033203 0.75,0.75 0 0 0 1.033204,-0.244141 c 0.6564,-1.061773 1.004812,-2.284918 1.007812,-3.533203 a 0.750075,0.750075 0 0 0 0,-0.002 c -2.06e-4,-1.249145 -0.347086,-2.473385 -1.001953,-3.537109 A 0.75,0.75 0 0 0 13.533202,-20.875 Z"
       id="path1367"
       style="opacity:0.35" />
    <path
       d="m 16.75,-22.587891 a 0.75,0.75 0 0 0 -0.333984,1.00586 C 17.128351,-20.159357 17.498975,-18.591069 17.5,-17 c -0.0072,1.588413 -0.383913,3.154169 -1.099609,4.572266 a 0.75,0.75 0 0 0 0.332031,1.007812 0.75,0.75 0 0 0 1.007812,-0.332031 C 18.56132,-13.378869 18.992381,-15.17374 19,-16.996094 a 0.750075,0.750075 0 0 0 0,-0.002 0.750075,0.750075 0 0 0 0,-0.002 C 18.9988,-18.823922 18.572426,-20.623156 17.755859,-22.254 A 0.75,0.75 0 0 0 16.75,-22.587891 Z"
       id="path1369"
       style="opacity:0.35" />
    <rect
       x="-2"
       y="-28"
       width="22"
       height="22"
       ry="0"
       id="rect1371"
       style="color:#363636;fill:none" />
    <path
       d="M 9.24995,-24.29685 C 9.02122,-24.30976 8.78761,-24.24297 8.6269,-24.1113 L 4.2207,-20.5 H 1.5 c -1.108,0 -2,0.892 -2,2 v 3 c 0,1.108 0.892,2 2,2 h 2.7207 l 4.4062,3.6113 c 0.1607,0.13168 0.39439,0.1984 0.62305,0.18555 0.38109,-0.02151 0.75,-0.26516 0.75,-0.79688 v -13 c 0,-0.53171 -0.36878,-0.77536 -0.75,-0.79688 z"
       id="path1373"
       style="opacity:0.35"
       sodipodi:nodetypes="cccsssscccsscc" />
    <rect
       id="rect1381"
       width="28"
       height="1.5"
       x="-19.656855"
       y="-19.134777"
       rx="0.75"
       ry="0.75"
       transform="rotate(45)" />
  </g>
  <g
     id="audio-volume-high"
     class="ColorScheme-Text"
     fill="currentColor">
    <path
       d="M 12.8575,24 C 13.5166,24 14,23.388322 14,22.737922 V 9.317002 C 14,8.657822 13.5166,8 12.8399,8 12.3916,8 12.0665,8.18457 11.5918,8.65039 L 7.69336,11.9209 C 7.64062,11.97363 7.57031,12 7.49121,12 H 5.0039 C 3.70312,12 3,12.72073 3,14.08303 V 17.917 C 3,19.2793 3.70312,20 5.0039,20 h 2.48731 c 0.0791,0 0.14062,0.0264 0.20215,0.0791 l 3.89844,3.3144 C 12.0313,23.8154 12.4004,24 12.8575,24 Z"
       id="path179" />
    <path
       d="M 25.009766,7.1386719 A 0.75,0.75 0 0 0 24.445312,7.2402344 0.75,0.75 0 0 0 24.220703,8.2773438 C 25.706797,10.578994 26.498635,13.26028 26.5,16 c -4.55e-4,2.740166 -0.791562,5.422228 -2.277344,7.724609 a 0.75,0.75 0 0 0 0.22461,1.03711 0.75,0.75 0 0 0 1.037109,-0.22461 C 27.126486,21.992478 27.999497,19.028478 28,16 27.998491,12.972014 27.124879,10.008667 25.482422,7.4648437 A 0.75,0.75 0 0 0 25.009766,7.1386719 Z"
       id="circle1526" />
    <path
       d="M 20.664062,9.6777344 A 0.75,0.75 0 0 0 20.439453,10.714844 C 21.456722,12.289908 21.999071,14.125 22,16 c -4e-4,1.874826 -0.541965,3.709899 -1.558594,5.285156 a 0.75,0.75 0 0 0 0.22461,1.03711 0.75,0.75 0 0 0 1.037109,-0.22461 C 22.876088,20.280159 23.499538,18.163132 23.5,16 23.498929,13.836652 22.874871,11.719612 21.701172,9.9023438 a 0.75,0.75 0 0 0 -1.03711,-0.2246094 z"
       id="circle1524" />
    <path
       d="m 17.304687,11.845703 a 0.75,0.75 0 0 0 -0.224609,1.03711 C 17.679817,13.811835 17.999674,14.894212 18,16 c -3.26e-4,1.105788 -0.320183,2.188165 -0.919922,3.117187 a 0.75,0.75 0 0 0 0.224609,1.03711 0.75,0.75 0 0 0 1.03711,-0.22461 C 19.097915,18.758426 19.499588,17.39412 19.5,16 19.499588,14.60588 19.097915,13.241574 18.341797,12.070313 a 0.75,0.75 0 0 0 -1.03711,-0.22461 z"
       id="path1467" />
    <rect
       id="rect1601"
       width="32"
       height="32"
       x="0"
       y="0"
       style="fill:none" />
  </g>
  <g
     id="audio-volume-medium"
     class="ColorScheme-Text"
     fill="currentColor"
     transform="translate(32)">
    <path
       d="M 12.8575,24 C 13.5166,24 14,23.388322 14,22.737922 V 9.317002 C 14,8.657822 13.5166,8 12.8399,8 12.3916,8 12.0665,8.18457 11.5918,8.65039 L 7.69336,11.9209 C 7.64062,11.97363 7.57031,12 7.49121,12 H 5.0039 C 3.70312,12 3,12.72073 3,14.08303 V 17.917 C 3,19.2793 3.70312,20 5.0039,20 h 2.48731 c 0.0791,0 0.14062,0.0264 0.20215,0.0791 l 3.89844,3.3144 C 12.0313,23.8154 12.4004,24 12.8575,24 Z"
       id="path1612" />
    <path
       d="M 25.009766,7.1386719 A 0.75,0.75 0 0 0 24.445312,7.2402344 0.75,0.75 0 0 0 24.220703,8.2773438 C 25.706797,10.578994 26.498635,13.26028 26.5,16 c -4.55e-4,2.740166 -0.791562,5.422228 -2.277344,7.724609 a 0.75,0.75 0 0 0 0.22461,1.03711 0.75,0.75 0 0 0 1.037109,-0.22461 C 27.126486,21.992478 27.999497,19.028478 28,16 27.998491,12.972014 27.124879,10.008667 25.482422,7.4648437 A 0.75,0.75 0 0 0 25.009766,7.1386719 Z"
       id="path1614"
       style="opacity:0.35" />
    <path
       d="M 20.664062,9.6777344 A 0.75,0.75 0 0 0 20.439453,10.714844 C 21.456722,12.289908 21.999071,14.125 22,16 c -4e-4,1.874826 -0.541965,3.709899 -1.558594,5.285156 a 0.75,0.75 0 0 0 0.22461,1.03711 0.75,0.75 0 0 0 1.037109,-0.22461 C 22.876088,20.280159 23.499538,18.163132 23.5,16 23.498929,13.836652 22.874871,11.719612 21.701172,9.9023438 a 0.75,0.75 0 0 0 -1.03711,-0.2246094 z"
       id="path1616" />
    <path
       d="m 17.304687,11.845703 a 0.75,0.75 0 0 0 -0.224609,1.03711 C 17.679817,13.811835 17.999674,14.894212 18,16 c -3.26e-4,1.105788 -0.320183,2.188165 -0.919922,3.117187 a 0.75,0.75 0 0 0 0.224609,1.03711 0.75,0.75 0 0 0 1.03711,-0.22461 C 19.097915,18.758426 19.499588,17.39412 19.5,16 19.499588,14.60588 19.097915,13.241574 18.341797,12.070313 a 0.75,0.75 0 0 0 -1.03711,-0.22461 z"
       id="path1618" />
    <rect
       id="rect1620"
       width="32"
       height="32"
       x="0"
       y="0"
       style="fill:none" />
  </g>
  <g
     id="audio-volume-low"
     class="ColorScheme-Text"
     fill="currentColor"
     transform="translate(64,-1.5e-5)">
    <path
       d="M 12.8575,24 C 13.5166,24 14,23.388322 14,22.737922 V 9.317002 C 14,8.657822 13.5166,8 12.8399,8 12.3916,8 12.0665,8.18457 11.5918,8.65039 L 7.69336,11.9209 C 7.64062,11.97363 7.57031,12 7.49121,12 H 5.0039 C 3.70312,12 3,12.72073 3,14.08303 V 17.917 C 3,19.2793 3.70312,20 5.0039,20 h 2.48731 c 0.0791,0 0.14062,0.0264 0.20215,0.0791 l 3.89844,3.3144 C 12.0313,23.8154 12.4004,24 12.8575,24 Z"
       id="path1624" />
    <path
       d="M 25.009766,7.1386719 A 0.75,0.75 0 0 0 24.445312,7.2402344 0.75,0.75 0 0 0 24.220703,8.2773438 C 25.706797,10.578994 26.498635,13.26028 26.5,16 c -4.55e-4,2.740166 -0.791562,5.422228 -2.277344,7.724609 a 0.75,0.75 0 0 0 0.22461,1.03711 0.75,0.75 0 0 0 1.037109,-0.22461 C 27.126486,21.992478 27.999497,19.028478 28,16 27.998491,12.972014 27.124879,10.008667 25.482422,7.4648437 A 0.75,0.75 0 0 0 25.009766,7.1386719 Z"
       id="path1626"
       style="opacity:0.35" />
    <path
       d="M 20.664062,9.6777344 A 0.75,0.75 0 0 0 20.439453,10.714844 C 21.456722,12.289908 21.999071,14.125 22,16 c -4e-4,1.874826 -0.541965,3.709899 -1.558594,5.285156 a 0.75,0.75 0 0 0 0.22461,1.03711 0.75,0.75 0 0 0 1.037109,-0.22461 C 22.876088,20.280159 23.499538,18.163132 23.5,16 23.498929,13.836652 22.874871,11.719612 21.701172,9.9023438 a 0.75,0.75 0 0 0 -1.03711,-0.2246094 z"
       id="path1628"
       style="opacity:0.35" />
    <path
       d="m 17.304687,11.845703 a 0.75,0.75 0 0 0 -0.224609,1.03711 C 17.679817,13.811835 17.999674,14.894212 18,16 c -3.26e-4,1.105788 -0.320183,2.188165 -0.919922,3.117187 a 0.75,0.75 0 0 0 0.224609,1.03711 0.75,0.75 0 0 0 1.03711,-0.22461 C 19.097915,18.758426 19.499588,17.39412 19.5,16 19.499588,14.60588 19.097915,13.241574 18.341797,12.070313 a 0.75,0.75 0 0 0 -1.03711,-0.22461 z"
       id="path1630" />
    <rect
       id="rect1632"
       width="32"
       height="32"
       x="0"
       y="0"
       style="fill:none" />
  </g>
  <g
     id="audio-volume-muted"
     class="ColorScheme-Text"
     fill="currentColor">
    <path
       d="m 108.8575,23.999985 c 0.6591,0 1.1425,-0.611678 1.1425,-1.262078 V 9.316987 c 0,-0.65918 -0.4834,-1.317002 -1.1601,-1.317002 -0.4483,0 -0.7734,0.18457 -1.2481,0.65039 l -3.89844,3.27051 c -0.0527,0.05273 -0.12305,0.0791 -0.20215,0.0791 h -2.48731 c -1.30078,0 -2.0039,0.72073 -2.0039,2.08303 v 3.83397 c 0,1.3623 0.70312,2.083 2.0039,2.083 h 2.48731 c 0.0791,0 0.14062,0.0264 0.20215,0.0791 l 3.89844,3.3144 c 0.4395,0.4219 0.8086,0.6065 1.2657,0.6065 z"
       id="path1636"
       style="opacity:0.35" />
    <path
       d="m 121.00977,7.1386569 a 0.75,0.75 0 0 0 -0.56446,0.1015625 0.75,0.75 0 0 0 -0.22461,1.0371094 c 1.4861,2.3016502 2.27794,4.9829362 2.2793,7.7226562 -4.6e-4,2.740166 -0.79156,5.422228 -2.27734,7.724609 a 0.75,0.75 0 0 0 0.22461,1.03711 0.75,0.75 0 0 0 1.03711,-0.22461 c 1.64211,-2.544631 2.51512,-5.508631 2.51562,-8.537109 -0.002,-3.027986 -0.87512,-5.991333 -2.51758,-8.5351563 a 0.75,0.75 0 0 0 -0.47265,-0.3261718 z"
       id="path1638"
       style="opacity:0.35" />
    <path
       d="m 116.66406,9.6777194 a 0.75,0.75 0 0 0 -0.22461,1.0371096 c 1.01727,1.575064 1.55962,3.410156 1.56055,5.285156 -4e-4,1.874826 -0.54197,3.709899 -1.55859,5.285156 a 0.75,0.75 0 0 0 0.22461,1.03711 0.75,0.75 0 0 0 1.03711,-0.22461 c 1.17296,-1.817497 1.79641,-3.934524 1.79687,-6.097656 -0.001,-2.163348 -0.62513,-4.280388 -1.79883,-6.0976562 a 0.75,0.75 0 0 0 -1.03711,-0.2246094 z"
       id="path1640"
       style="opacity:0.35" />
    <path
       d="m 113.30469,11.845688 a 0.75,0.75 0 0 0 -0.22461,1.03711 c 0.59974,0.929022 0.91959,2.011399 0.91992,3.117187 -3.3e-4,1.105788 -0.32018,2.188165 -0.91992,3.117187 a 0.75,0.75 0 0 0 0.22461,1.03711 0.75,0.75 0 0 0 1.03711,-0.22461 c 0.75612,-1.171261 1.15779,-2.535567 1.1582,-3.929687 -4.1e-4,-1.39412 -0.40208,-2.758426 -1.1582,-3.929687 a 0.75,0.75 0 0 0 -1.03711,-0.22461 z"
       id="path1642"
       style="opacity:0.35" />
    <rect
       id="rect1644"
       width="32"
       height="32"
       x="96"
       y="-1.5e-05"
       style="color:#363636;fill:none" />
    <rect
       id="rect1648"
       width="32"
       height="1.5"
       x="74.509659"
       y="-68.632263"
       rx="0.75"
       ry="0.75"
       transform="rotate(45)" />
  </g>
</svg>
