<svg width="32" height="32" version="1.0" viewBox="0 0 32 32" xmlns="http://www.w3.org/2000/svg">
 <defs>
  <style id="current-color-scheme" type="text/css">.ColorScheme-Text { color:#363636; }</style>
 </defs>
 <g id="22-22-audio-volume-high" class="ColorScheme-Text" transform="translate(7.893,-6.7419)" fill="currentColor">
  <rect x="-54.893" y="-22.258" width="24" height="24" ry="0" opacity="0"/>
  <g transform="translate(-14.862,2.5994)">
   <path d="m-27.781-20.654c-0.22873-0.01291-0.46234 0.05388-0.62305 0.18555l-4.4062 3.6113h-3.2207c-1.108 0-2 0.892-2 2v4c0 1.108 0.892 2 2 2h3.2207l4.4062 3.6113c0.1607 0.13168 0.39439 0.1984 0.62305 0.18555 0.38109-0.021513 0.75-0.26516 0.75-0.79688v-14c0-0.53171-0.36878-0.77536-0.75-0.79688z"/>
   <path d="m-20.001-19.446-1.7422 0.99414a10 10 0 0 1 1.7129 5.5938 10 10 0 0 1-1.7109 5.5938l1.7402 0.99414a12 12 0 0 0 1.9707-6.5879 12 12 0 0 0-1.9707-6.5879z"/>
   <path d="m-23.486-17.456-1.7441 0.99805a6 6 0 0 1 1.1992 3.5996 6 6 0 0 1-1.2012 3.5996l1.748 0.99805a8 8 0 0 0 1.4531-4.5977 8 8 0 0 0-1.4551-4.5977z"/>
  </g>
 </g>
 <g id="22-22-audio-volume-medium" class="ColorScheme-Text" transform="translate(7.893,27.258)" fill="currentColor">
  <rect x="-54.893" y="-22.258" width="24" height="24" ry="0" opacity="0"/>
  <g transform="translate(-14.862,2.5994)">
   <path d="m-27.781-20.654c-0.22873-0.01291-0.46234 0.05388-0.62305 0.18555l-4.4062 3.6113h-3.2207c-1.108 0-2 0.892-2 2v4c0 1.108 0.892 2 2 2h3.2207l4.4062 3.6113c0.1607 0.13168 0.39439 0.1984 0.62305 0.18555 0.38109-0.021513 0.75-0.26516 0.75-0.79688v-14c0-0.53171-0.36878-0.77536-0.75-0.79688z"/>
   <path d="m-20.001-19.446-1.7422 0.99414a10 10 0 0 1 1.7129 5.5938 10 10 0 0 1-1.7109 5.5938l1.7402 0.99414a12 12 0 0 0 1.9707-6.5879 12 12 0 0 0-1.9707-6.5879z" opacity=".35"/>
   <path d="m-23.486-17.456-1.7441 0.99805a6 6 0 0 1 1.1992 3.5996 6 6 0 0 1-1.2012 3.5996l1.748 0.99805a8 8 0 0 0 1.4531-4.5977 8 8 0 0 0-1.4551-4.5977z"/>
  </g>
 </g>
 <g id="22-22-audio-volume-low" class="ColorScheme-Text" transform="translate(7.893,58.258)" fill="currentColor">
  <rect x="-54.893" y="-22.258" width="24" height="24" ry="0" opacity="0"/>
  <g transform="translate(-14.862,2.5994)">
   <path d="m-27.781-20.654c-0.22873-0.01291-0.46234 0.05388-0.62305 0.18555l-4.4062 3.6113h-3.2207c-1.108 0-2 0.892-2 2v4c0 1.108 0.892 2 2 2h3.2207l4.4062 3.6113c0.1607 0.13168 0.39439 0.1984 0.62305 0.18555 0.38109-0.021513 0.75-0.26516 0.75-0.79688v-14c0-0.53171-0.36878-0.77536-0.75-0.79688z" stroke-width="3.0237" style="paint-order:stroke fill markers"/>
   <path d="m-20.001-19.446-1.7422 0.99414a10 10 0 0 1 1.7129 5.5938 10 10 0 0 1-1.7109 5.5938l1.7402 0.99414a12 12 0 0 0 1.9707-6.5879 12 12 0 0 0-1.9707-6.5879z" opacity=".35"/>
   <path d="m-23.486-17.456-1.7441 0.99805a6 6 0 0 1 1.1992 3.5996 6 6 0 0 1-1.2012 3.5996l1.748 0.99805a8 8 0 0 0 1.4531-4.5977 8 8 0 0 0-1.4551-4.5977z" opacity=".35"/>
  </g>
 </g>
 <g id="22-22-audio-volume-muted" class="ColorScheme-Text" fill="currentColor">
  <g transform="translate(7.893,87.258)">
   <rect x="-54.893" y="-22.258" width="24" height="24" ry="0" opacity="0"/>
   <g transform="translate(-14.862,2.5994)">
    <path transform="translate(6.9691,-89.857)" d="m-34.75 69.203c-0.22873-0.01291-0.46234 0.05388-0.62305 0.18555l-2.4219 1.9863 3.7949 3.7949v-5.1699c0-0.53171-0.36878-0.77536-0.75-0.79688zm7.7793 1.209-1.7422 0.99414a10 10 0 0 1 1.7129 5.5938 10 10 0 0 1-0.93945 4.2305l1.4883 1.4883a12 12 0 0 0 1.4512-5.7188 12 12 0 0 0-1.9707-6.5879zm-3.4844 1.9902-1.7441 0.99805a6 6 0 0 1 1.1992 3.5996 6 6 0 0 1-0.09766 1.0723l1.6289 1.6289a8 8 0 0 0 0.46875-2.7012 8 8 0 0 0-1.4551-4.5977zm-12.545 0.59766c-1.108 0-2 0.892-2 2v4c0 1.108 0.892 2 2 2h3.2207l4.4062 3.6113c0.1607 0.13168 0.39439 0.1984 0.62305 0.18555 0.38109-0.02151 0.75-0.26516 0.75-0.79688v-3.1719l-7.8281-7.8281h-1.1719z"/>
   </g>
  </g>
  <path d="m-44.192 69.222 1.4142-1.4142 16.971 16.971-1.4142 1.4142z"/>
 </g>
 <g id="audio-volume-high" class="ColorScheme-Text" fill="currentColor">
  <path d="m26.137 4.8613-1.6836 1.0938a16 16 0 0 1 3.5469 10.045 16 16 0 0 1-3.5469 10.045l1.6855 1.0957a18 18 0 0 0 3.8613-11.141 18 18 0 0 0-3.8633-11.139z"/>
  <rect x="-6.7139e-6" y="9.7656e-6" width="32" height="32" ry=".35556" opacity="0"/>
  <path d="m8.93 12h-4.604c-0.736 0-1.3333 0.59733-1.3333 1.3333v5.3333c0 0.73601 0.59733 1.3334 1.3333 1.3334h4.604l4.396 4h0.66666v-16h-0.66666z"/>
  <path d="m21.922 7.6016-1.6934 1.0996a11 11 0 0 1 2.7715 7.2988 11 11 0 0 1-2.7715 7.2988l1.6934 1.0996a13 13 0 0 0 3.0781-8.3984 13 13 0 0 0-3.0781-8.3984z"/>
  <path d="m17.674 10.361-1.7246 1.1211a6 6 0 0 1 2.0508 4.5176 6 6 0 0 1-2.0508 4.5176l1.7246 1.1211a8 8 0 0 0 2.3262-5.6387 8 8 0 0 0-2.3262-5.6387z"/>
 </g>
 <g id="audio-volume-medium" class="ColorScheme-Text" transform="translate(41.07)" fill="currentColor">
  <path d="m26.137 4.8613-1.6836 1.0938a16 16 0 0 1 3.5469 10.045 16 16 0 0 1-3.5469 10.045l1.6855 1.0957a18 18 0 0 0 3.8613-11.141 18 18 0 0 0-3.8633-11.139z" opacity=".35"/>
  <rect x="-6.7139e-6" y="9.7656e-6" width="32" height="32" ry=".35556" opacity="0"/>
  <g class="ColorScheme-Text" fill="currentColor">
   <path d="m8.93 12h-4.604c-0.736 0-1.3333 0.59733-1.3333 1.3333v5.3333c0 0.73601 0.59733 1.3334 1.3333 1.3334h4.604l4.396 4h0.66666v-16h-0.66666z"/>
   <path d="m21.922 7.6016-1.6934 1.0996a11 11 0 0 1 2.7715 7.2988 11 11 0 0 1-2.7715 7.2988l1.6934 1.0996a13 13 0 0 0 3.0781-8.3984 13 13 0 0 0-3.0781-8.3984z"/>
   <path d="m17.674 10.361-1.7246 1.1211a6 6 0 0 1 2.0508 4.5176 6 6 0 0 1-2.0508 4.5176l1.7246 1.1211a8 8 0 0 0 2.3262-5.6387 8 8 0 0 0-2.3262-5.6387z"/>
  </g>
 </g>
 <g id="audio-volume-low" class="ColorScheme-Text" transform="translate(81.07)" fill="currentColor">
  <path d="m26.137 4.8613-1.6836 1.0938a16 16 0 0 1 3.5469 10.045 16 16 0 0 1-3.5469 10.045l1.6855 1.0957a18 18 0 0 0 3.8613-11.141 18 18 0 0 0-3.8633-11.139z" opacity=".35"/>
  <rect x="-6.7139e-6" y="9.7656e-6" width="32" height="32" ry=".35556" opacity="0"/>
  <g class="ColorScheme-Text" fill="currentColor">
   <path d="m8.93 12h-4.604c-0.736 0-1.3333 0.59733-1.3333 1.3333v5.3333c0 0.73601 0.59733 1.3334 1.3333 1.3334h4.604l4.396 4h0.66666v-16h-0.66666z"/>
   <path d="m21.922 7.6016-1.6934 1.0996a11 11 0 0 1 2.7715 7.2988 11 11 0 0 1-2.7715 7.2988l1.6934 1.0996a13 13 0 0 0 3.0781-8.3984 13 13 0 0 0-3.0781-8.3984z" opacity=".35"/>
   <path d="m17.674 10.361-1.7246 1.1211a6 6 0 0 1 2.0508 4.5176 6 6 0 0 1-2.0508 4.5176l1.7246 1.1211a8 8 0 0 0 2.3262-5.6387 8 8 0 0 0-2.3262-5.6387z"/>
  </g>
 </g>
 <g id="audio-volume-muted" class="ColorScheme-Text" fill="currentColor">
  <path d="m147.21 4.8613-1.6836 1.0938a16 16 0 0 1 3.5469 10.045 16 16 0 0 1-1.8008 7.3711l1.4766 1.4766a18 18 0 0 0 2.3242-8.8477 18 18 0 0 0-3.8633-11.139zm-4.2148 2.7402-1.6934 1.0996a11 11 0 0 1 2.7715 7.2988 11 11 0 0 1-0.59765 3.5742l1.5449 1.5449a13 13 0 0 0 1.0527-5.1191 13 13 0 0 0-3.0781-8.3984zm-8.5957 0.39844-1.3086 1.1895 1.9746 1.9746v-3.1641h-0.66602zm4.3477 2.3613-1.7246 1.1211a6 6 0 0 1 1.9824 3.6211l1.9922 1.9922a8 8 0 0 0 0.0762-1.0957 8 8 0 0 0-2.3262-5.6387zm-8.6172 1.5234-0.12695 0.11523h-4.6035c-0.736 0-1.334 0.59801-1.334 1.334v5.332c0 0.73601 0.59801 1.334 1.334 1.334h4.6035l4.3965 4h0.66602v-7.1797l-4.9356-4.9355zm7.7305 7.7324a6 6 0 0 1-0.83789 0.90039l1.7246 1.1211a8 8 0 0 0 0.53711-0.59766l-1.4238-1.4238zm3.5547 3.5527a11 11 0 0 1-0.11328 0.12891l0.68555 0.44531z"/>
  <rect x="121.07" y="9.7656e-6" width="32" height="32" ry=".35556" opacity="0"/>
  <rect transform="rotate(-45)" x="84.609" y="92.237" width="2" height="32"/>
 </g>
 <g id="16-16-audio-volume-high" transform="translate(37 -2.9997)">
  <rect class="ColorScheme-Text" x="-47" y="-67" width="16" height="16" ry="0" fill="currentColor" opacity="0"/>fill="none"/&gt;
  <g class="ColorScheme-Text" fill="currentColor">
   <path class="ColorScheme-Text" d="m-38.614-65.107c-0.18714-0.01056-0.37828 0.04408-0.50977 0.15181l-3.6051 2.9547h-2.6351c-0.90655 0-1.6364 0.72982-1.6364 1.6364v2.7273c0 0.90655 0.72982 1.6364 1.6364 1.6364h2.6351l3.6051 2.9547c0.13148 0.10774 0.32268 0.16233 0.50977 0.15182 0.3118-0.0176 0.61364-0.21695 0.61364-0.652v-10.909c0-0.43504-0.30173-0.63439-0.61364-0.652z" fill="currentColor"/>
   <path d="m-35.057-62.971-1.793 0.89453a6 6 0 0 1 0.84961 3.0762 6 6 0 0 1-0.84961 3.0762l1.7949 0.89648a8 8 0 0 0 1.0547-3.9727 8 8 0 0 0-1.0566-3.9707z"/>
   <path d="m-32.371-64.314-1.791 0.89453a9 9 0 0 1 1.1621 4.4199 9 9 0 0 1-1.1602 4.4199l1.7891 0.89453a11 11 0 0 0 1.3711-5.3145 11 11 0 0 0-1.3711-5.3145z"/>
  </g>
 </g>
 <g id="16-16-audio-volume-medium" transform="translate(62 -2.9997)">
  <rect class="ColorScheme-Text" x="-47" y="-67" width="16" height="16" ry="0" fill="currentColor" opacity="0"/>fill="none"/&gt;
  <g class="ColorScheme-Text" fill="currentColor">
   <path class="ColorScheme-Text" d="m-38.614-65.107c-0.18714-0.01056-0.37828 0.04408-0.50977 0.15181l-3.6051 2.9547h-2.6351c-0.90655 0-1.6364 0.72982-1.6364 1.6364v2.7273c0 0.90655 0.72982 1.6364 1.6364 1.6364h2.6351l3.6051 2.9547c0.13148 0.10774 0.32268 0.16233 0.50977 0.15182 0.3118-0.0176 0.61364-0.21695 0.61364-0.652v-10.909c0-0.43504-0.30173-0.63439-0.61364-0.652z" fill="currentColor"/>
   <path d="m-35.057-62.971-1.793 0.89453a6 6 0 0 1 0.84961 3.0762 6 6 0 0 1-0.84961 3.0762l1.7949 0.89648a8 8 0 0 0 1.0547-3.9727 8 8 0 0 0-1.0566-3.9707z"/>
   <path d="m-32.371-64.314-1.791 0.89453a9 9 0 0 1 1.1621 4.4199 9 9 0 0 1-1.1602 4.4199l1.7891 0.89453a11 11 0 0 0 1.3711-5.3145 11 11 0 0 0-1.3711-5.3145z" opacity=".35"/>
  </g>
 </g>
 <g id="16-16-audio-volume-low" transform="translate(85 -2.9997)">
  <rect class="ColorScheme-Text" x="-47" y="-67" width="16" height="16" ry="0" fill="currentColor" opacity="0"/>fill="none"/&gt;
  <g class="ColorScheme-Text" fill="currentColor">
   <path class="ColorScheme-Text" d="m-38.614-65.107c-0.18714-0.01056-0.37828 0.04408-0.50977 0.15181l-3.6051 2.9547h-2.6351c-0.90655 0-1.6364 0.72982-1.6364 1.6364v2.7273c0 0.90655 0.72982 1.6364 1.6364 1.6364h2.6351l3.6051 2.9547c0.13148 0.10774 0.32268 0.16233 0.50977 0.15182 0.3118-0.0176 0.61364-0.21695 0.61364-0.652v-10.909c0-0.43504-0.30173-0.63439-0.61364-0.652z" fill="currentColor"/>
   <path d="m-35.057-62.971-1.793 0.89453a6 6 0 0 1 0.84961 3.0762 6 6 0 0 1-0.84961 3.0762l1.7949 0.89648a8 8 0 0 0 1.0547-3.9727 8 8 0 0 0-1.0566-3.9707z" opacity=".35"/>
   <path d="m-32.371-64.314-1.791 0.89453a9 9 0 0 1 1.1621 4.4199 9 9 0 0 1-1.1602 4.4199l1.7891 0.89453a11 11 0 0 0 1.3711-5.3145 11 11 0 0 0-1.3711-5.3145z" opacity=".35"/>
  </g>
 </g>
 <g id="16-16-audio-volume-muted">
  <rect class="ColorScheme-Text" x="61" y="-70" width="16" height="16" ry="0" fill="currentColor" opacity="0"/>fill="none" opacity="0"/&gt;
  <path class="ColorScheme-Text" d="m69.387-68.105c-0.18714-0.01056-0.37828 0.04266-0.50977 0.15039l-1.6504 1.3516 2.7734 2.7734v-3.625c0-0.43504-0.30137-0.63278-0.61328-0.65039zm6.2422 0.79102-1.791 0.89453a9 9 0 0 1 1.1621 4.4199 9 9 0 0 1-0.42773 2.7422l1.5527 1.5527a11 11 0 0 0 0.875-4.2949 11 11 0 0 0-1.3711-5.3145zm-2.6855 1.3438-1.793 0.89453a6 6 0 0 1 0.84961 3.0762 6 6 0 0 1-0.003906 0.16602l1.7656 1.7656a8 8 0 0 0 0.23828-1.9316 8 8 0 0 0-1.0566-3.9707zm-10.307 0.9707c-0.90655 0-1.6367 0.73017-1.6367 1.6367v2.7266c0 0.90655 0.73017 1.6367 1.6367 1.6367h2.6348l3.6055 2.9551c0.13148 0.10774 0.32268 0.16286 0.50977 0.15234 0.3118-0.0176 0.61328-0.2173 0.61328-0.65234v-1.625l-6.8301-6.8301h-0.5332z" fill="currentColor"/>class="ColorScheme-Text" fill="currentColor" /&gt;
  <rect class="ColorScheme-Text" transform="rotate(45)" x="-5.0503" y="-93.631" width="20" height="2" rx="1" ry="1" fill="currentColor"/>
 </g>
</svg>
