<svg width="32" height="32" version="1.0" viewBox="0 0 32 32" xmlns="http://www.w3.org/2000/svg">
 <defs>
  <style id="current-color-scheme" type="text/css">.ColorScheme-Text { color:#363636; }</style>
 </defs>
 <g id="16-16-audio-volume-high" class="ColorScheme-Text" transform="translate(-260.1,-363.46)" fill="currentColor">
  <rect x="251.54" y="311.51" width="18" height="16" rx="1.125" opacity="0"/>
  <g transform="translate(253.49,312.51)">
   <rect x="-.9542" y="5.0004" width="5" height="4.9996" ry="1"/>
   <path d="m 6,2.0004 -2.9542,3 V 10 L 6,13 Z"/>
   <path d="m13.139 0.92749c-0.54546-0.42773-1.1387 0.22461-0.68359 0.73242 1.6202 1.5104 2.5416 3.6249 2.5449 5.8398-0.0026 2.2205-0.92793 4.3401-2.5547 5.8516-0.44531 0.47165 0.18064 1.1484 0.67774 0.72852 1.8304-1.6992 2.8725-4.0825 2.877-6.5801-0.0026-2.4925-1.0386-4.8722-2.8613-6.5723z"/>
   <path d="m10.775 2.4132c-0.58741-0.53488-1.1988 0.22518-0.68359 0.73242 1.2147 1.1326 1.9056 2.7181 1.9082 4.3789-0.0019 1.6654-0.69594 3.2551-1.916 4.3887-0.46835 0.44623 0.17346 1.1467 0.67969 0.72852 1.423-1.3216 2.233-3.1751 2.2363-5.1172-0.0019-1.9383-0.80739-3.789-2.2246-5.1113z"/>
   <path d="m8.4102 3.8662c-0.52095-0.49369-1.1551 0.22003-0.68359 0.73047 0.81045 0.75501 1.2715 1.8123 1.2734 2.9199-0.00128 1.1103-0.46396 2.1701-1.2773 2.9258-0.47259 0.42993 0.13957 1.1522 0.67969 0.73047 1.0168-0.94425 1.5955-2.2686 1.5977-3.6562-0.00172-1.3844-0.57738-2.7062-1.5898-3.6504z"/>
  </g>
 </g>
 <g id="16-16-audio-volume-medium" class="ColorScheme-Text" transform="translate(-235.1,-363.46)" fill="currentColor">
  <rect x="251.54" y="311.51" width="18" height="16" rx="1.125" opacity="0"/>
  <g transform="translate(253.49,312.51)">
   <rect x="-.9542" y="5.0004" width="5" height="4.9996" ry="1"/>
   <path d="m 6,2.0004 -2.9542,3 V 10 L 6,13 Z"/>
   <path d="m13.139 0.92749c-0.54546-0.42773-1.1387 0.22461-0.68359 0.73242 1.6202 1.5104 2.5416 3.6249 2.5449 5.8398-0.0026 2.2205-0.92793 4.3401-2.5547 5.8516-0.44531 0.47165 0.18064 1.1484 0.67774 0.72852 1.8304-1.6992 2.8725-4.0825 2.877-6.5801-0.0026-2.4925-1.0386-4.8722-2.8613-6.5723z" opacity=".35"/>
   <path d="m10.775 2.4132c-0.58741-0.53488-1.1988 0.22518-0.68359 0.73242 1.2147 1.1326 1.9056 2.7181 1.9082 4.3789-0.0019 1.6654-0.69594 3.2551-1.916 4.3887-0.46835 0.44623 0.17346 1.1467 0.67969 0.72852 1.423-1.3216 2.233-3.1751 2.2363-5.1172-0.0019-1.9383-0.80739-3.789-2.2246-5.1113z"/>
   <path d="m8.4102 3.8662c-0.52095-0.49369-1.1551 0.22003-0.68359 0.73047 0.81045 0.75501 1.2715 1.8123 1.2734 2.9199-0.00128 1.1103-0.46396 2.1701-1.2773 2.9258-0.47259 0.42993 0.13957 1.1522 0.67969 0.73047 1.0168-0.94425 1.5955-2.2686 1.5977-3.6562-0.00172-1.3844-0.57738-2.7062-1.5898-3.6504z"/>
  </g>
 </g>
 <g id="16-16-audio-volume-low" class="ColorScheme-Text" transform="translate(-210.1,-363.46)" fill="currentColor">
  <rect x="251.54" y="311.51" width="18" height="16" rx="1.125" opacity="0"/>
  <g transform="translate(253.49,312.51)">
   <rect x="-.9542" y="5.0004" width="5" height="4.9996" ry="1"/>
   <path d="m 6,2.0004 -2.9542,3 V 10 L 6,13 Z"/>
   <g fill-rule="evenodd">
    <path d="m13.139 0.92749c-0.54546-0.42773-1.1387 0.22461-0.68359 0.73242 1.6202 1.5104 2.5416 3.6249 2.5449 5.8398-0.0026 2.2205-0.92793 4.3401-2.5547 5.8516-0.44531 0.47165 0.18064 1.1484 0.67774 0.72852 1.8304-1.6992 2.8725-4.0825 2.877-6.5801-0.0026-2.4925-1.0386-4.8722-2.8613-6.5723z" opacity=".35" style="paint-order:normal"/>
    <path d="m10.775 2.4132c-0.58741-0.53488-1.1988 0.22518-0.68359 0.73242 1.2147 1.1326 1.9056 2.7181 1.9082 4.3789-0.0019 1.6654-0.69594 3.2551-1.916 4.3887-0.46835 0.44623 0.17346 1.1467 0.67969 0.72852 1.423-1.3216 2.233-3.1751 2.2363-5.1172-0.0019-1.9383-0.80739-3.789-2.2246-5.1113z" opacity=".35" style="paint-order:normal"/>
    <path d="m8.4102 3.8662c-0.52095-0.49369-1.1551 0.22003-0.68359 0.73047 0.81045 0.75501 1.2715 1.8123 1.2734 2.9199-0.00128 1.1103-0.46396 2.1701-1.2773 2.9258-0.47259 0.42993 0.13957 1.1522 0.67969 0.73047 1.0168-0.94425 1.5955-2.2686 1.5977-3.6562-0.00172-1.3844-0.57738-2.7062-1.5898-3.6504z" style="paint-order:normal"/>
   </g>
  </g>
 </g>
 <g id="16-16-audio-volume-muted" class="ColorScheme-Text" transform="translate(-246.64,-377.29)" fill="currentColor">
  <rect x="316.54" y="324.51" width="18" height="16" rx="1.125" opacity="0"/>
  <path transform="translate(246.54,394.51)" d="m84.691-68.211c-0.37564 0.0268-0.62259 0.49024-0.28125 0.87109 1.6202 1.5104 2.5416 3.6249 2.5449 5.8398-2e-3 1.4816-0.42222 2.9132-1.1797 4.1543l0.7207 0.7207c0.93395-1.4406 1.4558-3.1272 1.459-4.875-3e-3 -2.4925-1.0386-4.8722-2.8613-6.5723-0.13637-0.10693-0.27713-0.14761-0.40234-0.13867zm-6.7383 1.2109-0.9082 0.92188 0.9082 0.9082zm4.3496 0.23047c-0.39561 0.0119-0.64422 0.53363-0.25781 0.91406 1.2147 1.1326 1.9056 2.7181 1.9082 4.3789-8.14e-4 0.67778-0.121 1.3417-0.33984 1.9688l0.77344 0.77148c0.36686-0.85758 0.56479-1.7877 0.56641-2.7402-2e-3 -1.9383-0.8074-3.789-2.2246-5.1113-0.14685-0.13372-0.2939-0.18561-0.42578-0.18164zm-2.332 1.4688c-0.37603 0.0164-0.64466 0.51365-0.29102 0.89648 0.62045 0.57801 1.0317 1.335 1.1934 2.1543l1.0645 1.0664c0.0062-0.1 0.01547-0.19999 0.01563-0.30078-2e-3 -1.3844-0.57742-2.7062-1.5898-3.6504-0.13024-0.12342-0.26723-0.17148-0.39258-0.16602zm-7.9707 1.3008c-0.554 0-1 0.446-1 1v3c0 0.554 0.446 1 1 1h3l2.9531 3v-4.9258l-3.0723-3.0742zm7.9766 5.0977c-0.09901 0.11581-0.188 0.23896-0.30078 0.34375-0.47259 0.42993 0.13957 1.1522 0.67969 0.73047 0.121-0.11237 0.23539-0.23092 0.34375-0.35352zm1.959 1.959c-0.20865 0.3949 0.22971 0.85344 0.6543 0.6543z" opacity=".35"/>
  <rect transform="rotate(-45)" x="-5.4281" y="455.31" width="1" height="20" ry="0" opacity=".35"/>
 </g>
 <g id="22-22-audio-volume-high" class="ColorScheme-Text" transform="translate(7.893,-6.7419)" fill="currentColor">
  <rect x="-54.893" y="-22.258" width="24" height="24" ry="0" opacity="0"/>
  <g transform="translate(-14.862,2.5994)">
   <path d="m-27.781-20.654c-0.22873-0.01291-0.46234 0.05388-0.62305 0.18555l-4.4062 3.6113h-3.2207c-1.108 0-2 0.892-2 2v4c0 1.108 0.892 2 2 2h3.2207l4.4062 3.6113c0.1607 0.13168 0.39439 0.1984 0.62305 0.18555 0.38109-0.021513 0.75-0.26516 0.75-0.79688v-14c0-0.53171-0.36878-0.77536-0.75-0.79688z"/>
   <path d="m-20.001-19.446-1.7422 0.99414a10 10 0 0 1 1.7129 5.5938 10 10 0 0 1-1.7109 5.5938l1.7402 0.99414a12 12 0 0 0 1.9707-6.5879 12 12 0 0 0-1.9707-6.5879z"/>
   <path d="m-23.486-17.456-1.7441 0.99805a6 6 0 0 1 1.1992 3.5996 6 6 0 0 1-1.2012 3.5996l1.748 0.99805a8 8 0 0 0 1.4531-4.5977 8 8 0 0 0-1.4551-4.5977z"/>
  </g>
 </g>
 <g id="22-22-audio-volume-medium" class="ColorScheme-Text" transform="translate(7.893,27.258)" fill="currentColor">
  <rect x="-54.893" y="-22.258" width="24" height="24" ry="0" opacity="0"/>
  <g transform="translate(-14.862,2.5994)">
   <path d="m-27.781-20.654c-0.22873-0.01291-0.46234 0.05388-0.62305 0.18555l-4.4062 3.6113h-3.2207c-1.108 0-2 0.892-2 2v4c0 1.108 0.892 2 2 2h3.2207l4.4062 3.6113c0.1607 0.13168 0.39439 0.1984 0.62305 0.18555 0.38109-0.021513 0.75-0.26516 0.75-0.79688v-14c0-0.53171-0.36878-0.77536-0.75-0.79688z"/>
   <path d="m-20.001-19.446-1.7422 0.99414a10 10 0 0 1 1.7129 5.5938 10 10 0 0 1-1.7109 5.5938l1.7402 0.99414a12 12 0 0 0 1.9707-6.5879 12 12 0 0 0-1.9707-6.5879z" opacity=".35"/>
   <path d="m-23.486-17.456-1.7441 0.99805a6 6 0 0 1 1.1992 3.5996 6 6 0 0 1-1.2012 3.5996l1.748 0.99805a8 8 0 0 0 1.4531-4.5977 8 8 0 0 0-1.4551-4.5977z"/>
  </g>
 </g>
 <g id="22-22-audio-volume-low" class="ColorScheme-Text" transform="translate(7.893,58.258)" fill="currentColor">
  <rect x="-54.893" y="-22.258" width="24" height="24" ry="0" opacity="0"/>
  <g transform="translate(-14.862,2.5994)">
   <path d="m-27.781-20.654c-0.22873-0.01291-0.46234 0.05388-0.62305 0.18555l-4.4062 3.6113h-3.2207c-1.108 0-2 0.892-2 2v4c0 1.108 0.892 2 2 2h3.2207l4.4062 3.6113c0.1607 0.13168 0.39439 0.1984 0.62305 0.18555 0.38109-0.021513 0.75-0.26516 0.75-0.79688v-14c0-0.53171-0.36878-0.77536-0.75-0.79688z" stroke-width="3.0237" style="paint-order:stroke fill markers"/>
   <path d="m-20.001-19.446-1.7422 0.99414a10 10 0 0 1 1.7129 5.5938 10 10 0 0 1-1.7109 5.5938l1.7402 0.99414a12 12 0 0 0 1.9707-6.5879 12 12 0 0 0-1.9707-6.5879z" opacity=".35"/>
   <path d="m-23.486-17.456-1.7441 0.99805a6 6 0 0 1 1.1992 3.5996 6 6 0 0 1-1.2012 3.5996l1.748 0.99805a8 8 0 0 0 1.4531-4.5977 8 8 0 0 0-1.4551-4.5977z" opacity=".35"/>
  </g>
 </g>
 <g id="22-22-audio-volume-muted" class="ColorScheme-Text" fill="currentColor">
  <g transform="translate(7.893,87.258)">
   <rect x="-54.893" y="-22.258" width="24" height="24" ry="0" opacity="0"/>
   <g transform="translate(-14.862,2.5994)">
    <path transform="translate(6.9691,-89.857)" d="m-34.75 69.203c-0.22873-0.01291-0.46234 0.05388-0.62305 0.18555l-2.4219 1.9863 3.7949 3.7949v-5.1699c0-0.53171-0.36878-0.77536-0.75-0.79688zm7.7793 1.209-1.7422 0.99414a10 10 0 0 1 1.7129 5.5938 10 10 0 0 1-0.93945 4.2305l1.4883 1.4883a12 12 0 0 0 1.4512-5.7188 12 12 0 0 0-1.9707-6.5879zm-3.4844 1.9902-1.7441 0.99805a6 6 0 0 1 1.1992 3.5996 6 6 0 0 1-0.09766 1.0723l1.6289 1.6289a8 8 0 0 0 0.46875-2.7012 8 8 0 0 0-1.4551-4.5977zm-12.545 0.59766c-1.108 0-2 0.892-2 2v4c0 1.108 0.892 2 2 2h3.2207l4.4062 3.6113c0.1607 0.13168 0.39439 0.1984 0.62305 0.18555 0.38109-0.02151 0.75-0.26516 0.75-0.79688v-3.1719l-7.8281-7.8281h-1.1719z" opacity=".35"/>
   </g>
  </g>
  <path d="m-44.192 69.222 1.4142-1.4142 16.971 16.971-1.4142 1.4142z" opacity=".35"/>
 </g>
 <g id="audio-volume-high" class="ColorScheme-Text" fill="currentColor">
  <path d="m26.137 4.8613-1.6836 1.0938a16 16 0 0 1 3.5469 10.045 16 16 0 0 1-3.5469 10.045l1.6855 1.0957a18 18 0 0 0 3.8613-11.141 18 18 0 0 0-3.8633-11.139z"/>
  <rect x="-6.7139e-6" y="9.7656e-6" width="32" height="32" ry=".35556" opacity="0"/>
  <path d="m8.93 12h-4.604c-0.736 0-1.3333 0.59733-1.3333 1.3333v5.3333c0 0.73601 0.59733 1.3334 1.3333 1.3334h4.604l4.396 4h0.66666v-16h-0.66666z"/>
  <path d="m21.922 7.6016-1.6934 1.0996a11 11 0 0 1 2.7715 7.2988 11 11 0 0 1-2.7715 7.2988l1.6934 1.0996a13 13 0 0 0 3.0781-8.3984 13 13 0 0 0-3.0781-8.3984z"/>
  <path d="m17.674 10.361-1.7246 1.1211a6 6 0 0 1 2.0508 4.5176 6 6 0 0 1-2.0508 4.5176l1.7246 1.1211a8 8 0 0 0 2.3262-5.6387 8 8 0 0 0-2.3262-5.6387z"/>
 </g>
 <g id="audio-volume-medium" class="ColorScheme-Text" transform="translate(41.07)" fill="currentColor">
  <path d="m26.137 4.8613-1.6836 1.0938a16 16 0 0 1 3.5469 10.045 16 16 0 0 1-3.5469 10.045l1.6855 1.0957a18 18 0 0 0 3.8613-11.141 18 18 0 0 0-3.8633-11.139z" opacity=".35"/>
  <rect x="-6.7139e-6" y="9.7656e-6" width="32" height="32" ry=".35556" opacity="0"/>
  <g class="ColorScheme-Text" fill="currentColor">
   <path d="m8.93 12h-4.604c-0.736 0-1.3333 0.59733-1.3333 1.3333v5.3333c0 0.73601 0.59733 1.3334 1.3333 1.3334h4.604l4.396 4h0.66666v-16h-0.66666z"/>
   <path d="m21.922 7.6016-1.6934 1.0996a11 11 0 0 1 2.7715 7.2988 11 11 0 0 1-2.7715 7.2988l1.6934 1.0996a13 13 0 0 0 3.0781-8.3984 13 13 0 0 0-3.0781-8.3984z"/>
   <path d="m17.674 10.361-1.7246 1.1211a6 6 0 0 1 2.0508 4.5176 6 6 0 0 1-2.0508 4.5176l1.7246 1.1211a8 8 0 0 0 2.3262-5.6387 8 8 0 0 0-2.3262-5.6387z"/>
  </g>
 </g>
 <g id="audio-volume-low" class="ColorScheme-Text" transform="translate(81.07)" fill="currentColor">
  <path d="m26.137 4.8613-1.6836 1.0938a16 16 0 0 1 3.5469 10.045 16 16 0 0 1-3.5469 10.045l1.6855 1.0957a18 18 0 0 0 3.8613-11.141 18 18 0 0 0-3.8633-11.139z" opacity=".35"/>
  <rect x="-6.7139e-6" y="9.7656e-6" width="32" height="32" ry=".35556" opacity="0"/>
  <g class="ColorScheme-Text" fill="currentColor">
   <path d="m8.93 12h-4.604c-0.736 0-1.3333 0.59733-1.3333 1.3333v5.3333c0 0.73601 0.59733 1.3334 1.3333 1.3334h4.604l4.396 4h0.66666v-16h-0.66666z"/>
   <path d="m21.922 7.6016-1.6934 1.0996a11 11 0 0 1 2.7715 7.2988 11 11 0 0 1-2.7715 7.2988l1.6934 1.0996a13 13 0 0 0 3.0781-8.3984 13 13 0 0 0-3.0781-8.3984z" opacity=".35"/>
   <path d="m17.674 10.361-1.7246 1.1211a6 6 0 0 1 2.0508 4.5176 6 6 0 0 1-2.0508 4.5176l1.7246 1.1211a8 8 0 0 0 2.3262-5.6387 8 8 0 0 0-2.3262-5.6387z"/>
  </g>
 </g>
 <g id="audio-volume-muted" class="ColorScheme-Text" fill="currentColor">
  <path d="m147.21 4.8613-1.6836 1.0938a16 16 0 0 1 3.5469 10.045 16 16 0 0 1-1.8008 7.3711l1.4766 1.4766a18 18 0 0 0 2.3242-8.8477 18 18 0 0 0-3.8633-11.139zm-4.2148 2.7402-1.6934 1.0996a11 11 0 0 1 2.7715 7.2988 11 11 0 0 1-0.59765 3.5742l1.5449 1.5449a13 13 0 0 0 1.0527-5.1191 13 13 0 0 0-3.0781-8.3984zm-8.5957 0.39844-1.3086 1.1895 1.9746 1.9746v-3.1641h-0.66602zm4.3477 2.3613-1.7246 1.1211a6 6 0 0 1 1.9824 3.6211l1.9922 1.9922a8 8 0 0 0 0.07617-1.0957 8 8 0 0 0-2.3262-5.6387zm-8.6172 1.5234-0.12695 0.11523h-4.6035c-0.736 0-1.334 0.59801-1.334 1.334v5.332c0 0.73601 0.59801 1.334 1.334 1.334h4.6035l4.3965 4h0.66602v-7.1797l-4.9356-4.9355zm7.7305 7.7324a6 6 0 0 1-0.83789 0.90039l1.7246 1.1211a8 8 0 0 0 0.53711-0.59766l-1.4238-1.4238zm3.5547 3.5527a11 11 0 0 1-0.11328 0.12891l0.68555 0.44531-0.57227-0.57422z" opacity=".35"/>
  <rect x="121.07" y="9.7656e-6" width="32" height="32" ry=".35556" opacity="0"/>
  <rect transform="rotate(-45)" x="84.609" y="92.237" width="2" height="32" opacity=".35"/>
 </g>
</svg>
