<?xml version="1.0" encoding="UTF-8" standalone="no"?>
<svg
   xmlns:dc="http://purl.org/dc/elements/1.1/"
   xmlns:cc="http://creativecommons.org/ns#"
   xmlns:rdf="http://www.w3.org/1999/02/22-rdf-syntax-ns#"
   xmlns:svg="http://www.w3.org/2000/svg"
   xmlns="http://www.w3.org/2000/svg"
   id="svg120"
   viewBox="0 0 22 22"
   version="1.0"
   height="22"
   width="22">
  <metadata
     id="metadata122">
    <rdf:RDF>
      <cc:Work
         rdf:about="">
        <dc:format>image/svg+xml</dc:format>
        <dc:type
           rdf:resource="http://purl.org/dc/dcmitype/StillImage" />
        <dc:title></dc:title>
      </cc:Work>
    </rdf:RDF>
  </metadata>
  <defs
     id="defs5">
    <style
       type="text/css"
       id="current-color-scheme"> .ColorScheme-Text { color:#363636; } </style>
  </defs>
  <g
     fill="currentColor"
     transform="translate(-99.54,-427.51)"
     class="ColorScheme-Text"
     id="22-22-Fill90">
    <rect
       opacity="0"
       ry="0"
       rx="0"
       height="22"
       width="22"
       y="428.51"
       x="164.54"
       id="rect940" />
    <rect
       ry="1"
       rx="1"
       height="7"
       width="14"
       y="436.51"
       x="166.54"
       id="rect946" />
  </g>
  <g
     fill="currentColor"
     transform="translate(-74.54,-427.51)"
     class="ColorScheme-Text"
     id="22-22-Fill80">
    <rect
       opacity="0"
       ry="0"
       rx="0"
       height="22"
       width="22"
       y="428.51"
       x="164.54"
       id="rect950" />
    <rect
       ry="1"
       rx="1"
       height="7"
       width="12"
       y="436.51"
       x="166.54"
       id="rect952" />
  </g>
  <g
     fill="currentColor"
     transform="translate(-54.54,-427.51)"
     class="ColorScheme-Text"
     id="22-22-Fill70">
    <rect
       opacity="0"
       ry="0"
       rx="0"
       height="22"
       width="22"
       y="428.51"
       x="164.54"
       id="rect956" />
    <rect
       ry="1"
       rx="1"
       height="7"
       width="11"
       y="436.51"
       x="166.54"
       id="rect958" />
  </g>
  <g
     fill="currentColor"
     transform="translate(-29.54,-427.51)"
     class="ColorScheme-Text"
     id="22-22-Fill60">
    <rect
       opacity="0"
       ry="0"
       rx="0"
       height="22"
       width="22"
       y="428.51"
       x="164.54"
       id="rect962" />
    <rect
       ry="1"
       rx="1"
       height="7"
       width="10"
       y="436.51"
       x="166.54"
       id="rect964" />
  </g>
  <g
     fill="currentColor"
     transform="translate(-4.54,-427.51)"
     class="ColorScheme-Text"
     id="22-22-Fill50">
    <rect
       opacity="0"
       ry="0"
       rx="0"
       height="22"
       width="22"
       y="428.51"
       x="164.54"
       id="rect968" />
    <rect
       ry="1"
       rx="1"
       height="7"
       width="8"
       y="436.51"
       x="166.54"
       id="rect970" />
  </g>
  <g
     fill="currentColor"
     transform="translate(20.46,-427.51)"
     class="ColorScheme-Text"
     id="22-22-Fill40">
    <rect
       opacity="0"
       ry="0"
       rx="0"
       height="22"
       width="22"
       y="428.51"
       x="164.54"
       id="rect974" />
    <rect
       ry="1"
       rx="1"
       height="7"
       width="7"
       y="436.51"
       x="166.54"
       id="rect976" />
  </g>
  <g
     fill="currentColor"
     transform="translate(40.46,-427.51)"
     class="ColorScheme-Text"
     id="22-22-Fill30">
    <rect
       opacity="0"
       ry="0"
       rx="0"
       height="22"
       width="22"
       y="428.51"
       x="164.54"
       id="rect980" />
    <rect
       ry="1"
       rx="1"
       height="7"
       width="5"
       y="436.51"
       x="166.54"
       id="rect982" />
  </g>
  <g
     fill="currentColor"
     transform="translate(60.46,-427.51)"
     class="ColorScheme-Text"
     id="22-22-Fill20">
    <rect
       opacity="0"
       ry="0"
       rx="0"
       height="22"
       width="22"
       y="428.51"
       x="164.54"
       id="rect986" />
    <rect
       ry="1"
       rx="1"
       height="7"
       width="3"
       y="436.51"
       x="166.54"
       id="rect988" />
  </g>
  <g
     fill="currentColor"
     transform="translate(-129.54,-427.51)"
     class="ColorScheme-Text"
     id="22-22-Fill100">
    <rect
       opacity="0"
       ry="0"
       rx="0"
       height="22"
       width="22"
       y="428.51"
       x="164.54"
       id="rect1029" />
    <rect
       ry="1"
       rx="1"
       height="7"
       width="16"
       y="436.51"
       x="166.54"
       id="rect1031" />
  </g>
  <g
     fill="currentColor"
     transform="translate(-154.45 -379.51)"
     class="ColorScheme-Text"
     id="Fill100">
    <rect
       opacity="0"
       ry="0"
       rx="0"
       height="32"
       width="32"
       y="336.51"
       x="189.44"
       id="rect1022" />
    <rect
       ry="2"
       rx="2"
       height="10"
       width="22"
       y="347.51"
       x="193.44"
       id="rect1028" />
  </g>
  <g
     fill="currentColor"
     transform="translate(-114.45,-379.51)"
     class="ColorScheme-Text"
     id="Fill90">
    <rect
       opacity="0"
       ry="0"
       rx="0"
       height="32"
       width="32"
       y="336.51"
       x="189.44"
       id="rect1042" />
    <rect
       ry="2"
       rx="2"
       height="10"
       width="20"
       y="347.51"
       x="193.44"
       id="rect1044" />
  </g>
  <g
     fill="currentColor"
     transform="translate(-79.45,-379.51)"
     class="ColorScheme-Text"
     id="Fill80">
    <rect
       opacity="0"
       ry="0"
       rx="0"
       height="32"
       width="32"
       y="336.51"
       x="189.44"
       id="rect1048" />
    <rect
       ry="2"
       rx="2"
       height="10"
       width="18"
       y="347.51"
       x="193.44"
       id="rect1050" />
  </g>
  <g
     fill="currentColor"
     transform="translate(-40.45,-379.51)"
     class="ColorScheme-Text"
     id="Fill70">
    <rect
       opacity="0"
       ry="0"
       rx="0"
       height="32"
       width="32"
       y="336.51"
       x="189.44"
       id="rect1054" />
    <rect
       ry="2"
       rx="2"
       height="10"
       width="16"
       y="347.51"
       x="193.44"
       id="rect1056" />
  </g>
  <g
     fill="currentColor"
     transform="translate(-4.45,-379.51)"
     class="ColorScheme-Text"
     id="Fill60">
    <rect
       opacity="0"
       ry="0"
       rx="0"
       height="32"
       width="32"
       y="336.51"
       x="189.44"
       id="rect1060" />
    <rect
       ry="2"
       rx="2"
       height="10"
       width="14"
       y="347.51"
       x="193.44"
       id="rect1062" />
  </g>
  <g
     fill="currentColor"
     transform="translate(30.55,-379.51)"
     class="ColorScheme-Text"
     id="Fill50">
    <rect
       opacity="0"
       ry="0"
       rx="0"
       height="32"
       width="32"
       y="336.51"
       x="189.44"
       id="rect1066" />
    <rect
       ry="2"
       rx="2"
       height="10"
       width="12"
       y="347.51"
       x="193.44"
       id="rect1068" />
  </g>
  <g
     fill="currentColor"
     transform="translate(70.55,-379.51)"
     class="ColorScheme-Text"
     id="Fill40">
    <rect
       opacity="0"
       ry="0"
       rx="0"
       height="32"
       width="32"
       y="336.51"
       x="189.44"
       id="rect1072" />
    <rect
       ry="2"
       rx="2"
       height="10"
       width="10"
       y="347.51"
       x="193.44"
       id="rect1074" />
  </g>
  <g
     fill="currentColor"
     transform="translate(105.55,-379.51)"
     class="ColorScheme-Text"
     id="Fill30">
    <rect
       opacity="0"
       ry="0"
       rx="0"
       height="32"
       width="32"
       y="336.51"
       x="189.44"
       id="rect1078" />
    <rect
       ry="2"
       rx="2"
       height="10"
       width="8"
       y="347.51"
       x="193.44"
       id="rect1080" />
  </g>
  <g
     fill="currentColor"
     transform="translate(137.55,-379.51)"
     class="ColorScheme-Text"
     id="Fill20">
    <rect
       opacity="0"
       ry="0"
       rx="0"
       height="32"
       width="32"
       y="336.51"
       x="189.44"
       id="rect1084" />
    <rect
       ry="2"
       rx="2"
       height="10"
       width="6"
       y="347.51"
       x="193.44"
       id="rect1086" />
  </g>
  <g
     fill="currentColor"
     transform="translate(-214.54,-357.51)"
     class="ColorScheme-Text"
     id="Battery">
    <path
       d="m3-81c-2.216 0-4 1.784-4 4v6c0 2.216 1.784 4 4 4h18c2.216 0 4-1.784 4-4v-6c0-2.216-1.784-4-4-4zm0 1h18c1.662 0 3 1.338 3 3v6c0 1.662-1.338 3-3 3h-18c-1.662 0-3-1.338-3-3v-6c0-1.662 1.338-3 3-3z"
       transform="translate(214.54,404.51)"
       id="rect168" />
    <rect
       opacity="0"
       ry="0"
       rx="0"
       height="32"
       width="32"
       y="314.51"
       x="211.54"
       id="rect148" />
    <path
       d="m240.54 328.51v4a2 2 0 0 0 2-2 2 2 0 0 0-2-2z"
       id="path152" />
  </g>
  <g
     fill="currentColor"
     transform="translate(-214.54,-436.51)"
     class="ColorScheme-Text"
     id="22-22-Battery">
    <g
       transform="translate(50,8)"
       id="g187">
      <path
         d="m21 42.088v2.8262a1.5 1.5 0 0 0 1-1.4141 1.5 1.5 0 0 0-1-1.4121z"
         transform="translate(164.54,396.51)"
         id="path185" />
      <rect
         opacity="0"
         ry="0"
         rx="0"
         height="22"
         width="22"
         y="428.51"
         x="164.54"
         id="rect181" />
    </g>
    <path
       d="m3 38c-1.662 0-3 1.338-3 3v5c0 1.662 1.338 3 3 3h14c1.662 0 3-1.338 3-3v-5c0-1.662-1.338-3-3-3zm0 1h14c1.108 0 2 0.892 2 2v5c0 1.108-0.89199 2-2 2h-14c-1.108 0-2-0.892-2-2v-5c0-1.108 0.89199-2 2-2z"
       transform="translate(214.54,404.51)"
       id="rect189" />
  </g>
  <g
     transform="translate(35.46,-434.51)"
     id="22-22-Fill10">
    <g
       transform="translate(50,8)"
       id="g225">
      <path
         fill="#ff4d62"
         d="m21 42.088v2.8262a1.5 1.5 0 0 0 1-1.4141 1.5 1.5 0 0 0-1-1.4121z"
         transform="translate(164.54,396.51)"
         id="path221" />
      <rect
         opacity="0"
         ry="0"
         rx="0"
         height="22"
         width="22"
         y="428.51"
         x="164.54"
         id="rect223" />
    </g>
    <path
       fill="#ff4d62"
       d="m3 38c-1.662 0-3 1.338-3 3v5c0 1.662 1.338 3 3 3h14c1.662 0 3-1.338 3-3v-5c0-1.662-1.338-3-3-3zm0 1h14c1.108 0 2 0.892 2 2v5c0 1.108-0.89199 2-2 2h-14c-1.108 0-2-0.892-2-2v-5c0-1.108 0.89199-2 2-2z"
       transform="translate(214.54,404.51)"
       id="path227" />
    <rect
       fill="#ff4d62"
       ry="1"
       rx="1"
       height="7"
       width="2"
       y="444.51"
       x="216.54"
       id="rect229" />
  </g>
  <g
     transform="translate(66.46,-434.51)"
     id="22-22-Fill0">
    <g
       transform="translate(50,8)"
       id="g237">
      <path
         fill="#ff4d62"
         d="m21 42.088v2.8262a1.5 1.5 0 0 0 1-1.4141 1.5 1.5 0 0 0-1-1.4121z"
         transform="translate(164.54,396.51)"
         id="path233" />
      <rect
         opacity="0"
         ry="0"
         rx="0"
         height="22"
         width="22"
         y="428.51"
         x="164.54"
         id="rect235" />
    </g>
    <path
       fill="#ff4d62"
       d="m3 38c-1.662 0-3 1.338-3 3v5c0 1.662 1.338 3 3 3h14c1.662 0 3-1.338 3-3v-5c0-1.662-1.338-3-3-3zm0 1h14c1.108 0 2 0.892 2 2v5c0 1.108-0.89199 2-2 2h-14c-1.108 0-2-0.892-2-2v-5c0-1.108 0.89199-2 2-2z"
       transform="translate(214.54,404.51)"
       id="path239" />
  </g>
  <g
     transform="translate(147.45 -357.51)"
     id="Fill10">
    <path
       fill="#ff4d62"
       d="m3-81c-2.216 0-4 1.784-4 4v6c0 2.216 1.784 4 4 4h18c2.216 0 4-1.784 4-4v-6c0-2.216-1.784-4-4-4zm0 1h18c1.662 0 3 1.338 3 3v6c0 1.662-1.338 3-3 3h-18c-1.662 0-3-1.338-3-3v-6c0-1.662 1.338-3 3-3z"
       transform="translate(214.54,404.51)"
       id="path245" />
    <rect
       opacity="0"
       ry="0"
       rx="0"
       height="32"
       width="32"
       y="314.51"
       x="211.54"
       id="rect247" />
    <path
       fill="#ff4d62"
       d="m240.54 328.51v4a2 2 0 0 0 2-2 2 2 0 0 0-2-2z"
       id="path249" />
    <rect
       fill="#ff4d62"
       ry="2"
       height="10"
       width="4"
       y="325.51"
       x="215.54"
       id="rect251" />
  </g>
  <g
     transform="translate(191.45 -357.51)"
     id="Fill0">
    <path
       fill="#ff4d62"
       d="m3-81c-2.216 0-4 1.784-4 4v6c0 2.216 1.784 4 4 4h18c2.216 0 4-1.784 4-4v-6c0-2.216-1.784-4-4-4zm0 1h18c1.662 0 3 1.338 3 3v6c0 1.662-1.338 3-3 3h-18c-1.662 0-3-1.338-3-3v-6c0-1.662 1.338-3 3-3z"
       transform="translate(214.54,404.51)"
       id="path255" />
    <rect
       opacity="0"
       ry="0"
       rx="0"
       height="32"
       width="32"
       y="314.51"
       x="211.54"
       id="rect257" />
    <path
       fill="#ff4d62"
       d="m240.54 328.51v4a2 2 0 0 0 2-2 2 2 0 0 0-2-2z"
       id="path259" />
  </g>
  <g
     transform="translate(-69.54,-403.51)"
     id="AcAdapter">
    <g
       transform="translate(-228,47)"
       id="g1133">
      <rect
         opacity="0"
         ry="0"
         rx="0"
         height="32"
         width="32"
         y="314.51"
         x="211.54"
         id="rect1129" />
    </g>
    <g
       id="g1139">
      <path
         fill="#4caf50"
         d="m-3.4643 369.51c-0.554 0-1 0.446-1 1v3h-2c3.908e-4 3.3259 1.6723 6.1922 4 6.8574v4.1426c0 0.554 0.446 1 1 1s1-0.446 1-1v-4.1426c2.3277-0.66518 3.9996-3.5315 4-6.8574h-2v-3c0-0.554-0.446-1-1-1s-1 0.446-1 1v3h-2v-3c0-0.554-0.446-1-1-1z"
         id="path1137" />
    </g>
  </g>
  <g
     transform="translate(-167.54,-433.51)"
     id="22-22-AcAdapter">
    <g
       transform="translate(-128,-3)"
       id="g1153">
      <g
         transform="translate(50,8)"
         id="g1149">
        <rect
           opacity="0"
           ry="0"
           rx="0"
           height="22"
           width="22"
           y="428.51"
           x="164.54"
           id="rect1147" />
      </g>
    </g>
    <path
       fill="#4caf50"
       d="m-119.5 35c-0.277 0-0.5 0.223-0.5 0.5v1.5h-2a4.5 6 0 0 0 4 5.9609v2.5391c0 0.277 0.223 0.5 0.5 0.5s0.5-0.223 0.5-0.5v-2.5371a4.5 6 0 0 0 4-5.9629h-2v-1.5c0-0.277-0.223-0.5-0.5-0.5s-0.5 0.223-0.5 0.5v1.5h-3v-1.5c0-0.277-0.223-0.5-0.5-0.5z"
       transform="translate(214.54,404.51)"
       id="path1155" />
  </g>
  <g
     fill="currentColor"
     transform="translate(-210.25 -400.22)"
     class="ColorScheme-Text"
     id="battery-ups">
    <g
       transform="translate(1,27)"
       id="g297">
      <path
         opacity=".5"
         d="m-139-36c-2.216 0-4 1.784-4 4v6c0 2.216 1.784 4 4 4h18c2.216 0 4-1.784 4-4v-6c0-2.216-1.784-4-4-4zm0 1h11l-7 7h5l-2.5 5h-6.5c-1.662 0-3-1.338-3-3v-6c0-1.662 1.338-3 3-3zm11.5 0h6.5c1.662 0 3 1.338 3 3v6c0 1.662-1.338 3-3 3h-11l7-7h-5zm11.5 4v4a2 2 0 0 0 2-2 2 2 0 0 0-2-2z"
         transform="translate(213.54,377.51)"
         id="path275" />
      <path
         d="m-139-34c-1.108 0-2 0.892-2 2v6c0 1.108 0.892 2 2 2h5.8828l1.5-3h-3.3828c-0.89064-3.51e-4 -1.3366-1.077-0.70703-1.707l5.293-5.293zm12.117 0-1.5 3h3.3828c0.89064 3.51e-4 1.3366 1.077 0.70703 1.707l-5.293 5.293h8.5859c1.108 0 2-0.892 2-2v-6c0-1.108-0.892-2-2-2z"
         transform="translate(213.54,377.51)"
         id="rect281" />
    </g>
    <rect
       opacity="0"
       ry="0"
       rx="0"
       height="32"
       width="32"
       y="359.51"
       x="69.536"
       id="rect1110" />
  </g>
  <g
     fill="currentColor"
     transform="translate(-220.54 -409.02)"
     class="ColorScheme-Text"
     id="22-22-battery-ups">
    <path
       d="m-116 12c-0.554 0-1 0.446-1 1v5c0 0.554 0.446 1 1 1h4.8106l0.6582-1.4941h-2.4688c-0.87296 5.7e-4 -1.3276-1.0392-0.73438-1.6797l3.5293-3.8262zm9.2051 0-0.66797 1.5059h2.4629c0.86964 8.8e-4 1.3239 1.0346 0.73633 1.6758l-3.5137 3.8184h5.7773c0.554 0 1-0.446 1-1v-5c0-0.554-0.446-1-1-1z"
       transform="translate(214.54,404.51)"
       id="rect1160" />
    <rect
       opacity="0"
       ry="0"
       rx="0"
       height="22"
       width="22"
       y="408.51"
       x="95.536"
       id="rect930" />
    <path
       opacity=".5"
       d="m-116 10c-1.662 0-3 1.338-3 3v5c0 1.662 1.338 3 3 3h14c1.662 0 3-1.338 3-3v-5c0-1.662-1.338-3-3-3h-5zm0 1h8.0781l-5.0781 5.5059h4l-1.5371 3.4941h-5.4629c-1.108 0-2-0.892-2-2v-5c0-1.108 0.89199-2 2-2zm8.5566 0h5.4434c1.108 0 2 0.892 2 2v5c0 1.108-0.89199 2-2 2h-8.0566l5.0566-5.4941h-4z"
       transform="translate(214.54,404.51)"
       id="path965" />
    <path
       opacity=".5"
       d="m116.54 418.59v2.8262a1.5 1.5 0 0 0 1-1.4141 1.5 1.5 0 0 0-1-1.4121z"
       id="path1139" />
  </g>
  <g
     transform="translate(-166.54,-471.51)"
     id="Unavailable">
    <path
       fill="none"
       d="m118.54 428.5h32v32h-32z"
       id="rect4480" />
    <g
       id="g4580">
      <rect
         fill="#f44336"
         ry="6"
         rx="6"
         height="12"
         width="12"
         y="446.5"
         x="139.54"
         id="rect4577" />
      <path
         fill="currentColor"
         d="m148.36 450.38-0.70699-0.707-2.1213 2.1213-2.1213-2.1213-0.70711 0.70711 2.1214 2.1212-2.1214 2.1214 0.70711 0.70711 2.1213-2.1216 2.1213 2.1216 0.70711-0.70711-2.1214-2.1214z"
         class="ColorScheme-Text"
         id="rect4622-0" />
    </g>
  </g>
  <g
     transform="translate(-300.54,-433.51)"
     id="22-22-Unavailable">
    <path
       fill="none"
       d="m258.54 426.5h22v22h-22z"
       id="rect4614" />
    <g
       id="g4631">
      <rect
         fill="#f44336"
         ry="4.5"
         rx="4.5"
         height="9"
         width="9"
         y="439.5"
         x="271.54"
         id="rect4577-9-1" />
      <path
         fill="currentColor"
         color="#eff0f1"
         d="m277.89 442.77-0.61861-0.61862-1.2375 1.2375-1.2375-1.2375-0.61861 0.61862 1.2375 1.2375-1.2375 1.2373 0.61861 0.61862 1.2375-1.2373 1.2374 1.2374 0.61863-0.61862-1.2374-1.2374z"
         class="ColorScheme-Text"
         id="rect4622" />
    </g>
  </g>
</svg>
