<?xml version="1.0" encoding="UTF-8" standalone="no"?>
<svg
   viewBox="0 0 22 22"
   version="1.0"
   height="22"
   width="22"
   id="svg120"
   sodipodi:docname="battery.svg"
   inkscape:version="1.2.2 (b0a8486541, 2022-12-01)"
   xmlns:inkscape="http://www.inkscape.org/namespaces/inkscape"
   xmlns:sodipodi="http://sodipodi.sourceforge.net/DTD/sodipodi-0.dtd"
   xmlns="http://www.w3.org/2000/svg"
   xmlns:svg="http://www.w3.org/2000/svg"
   xmlns:rdf="http://www.w3.org/1999/02/22-rdf-syntax-ns#"
   xmlns:cc="http://creativecommons.org/ns#"
   xmlns:dc="http://purl.org/dc/elements/1.1/">
  <sodipodi:namedview
     id="namedview119"
     pagecolor="#ffffff"
     bordercolor="#666666"
     borderopacity="1.0"
     inkscape:pageshadow="2"
     inkscape:pageopacity="0.0"
     inkscape:pagecheckerboard="0"
     showgrid="true"
     inkscape:snap-bbox="true"
     inkscape:bbox-nodes="true"
     inkscape:snap-nodes="false"
     inkscape:snap-intersection-paths="true"
     inkscape:object-paths="true"
     inkscape:snap-smooth-nodes="true"
     inkscape:snap-bbox-edge-midpoints="true"
     inkscape:zoom="3.7926637"
     inkscape:cx="72.508407"
     inkscape:cy="-45.746213"
     inkscape:window-width="3840"
     inkscape:window-height="2014"
     inkscape:window-x="0"
     inkscape:window-y="0"
     inkscape:window-maximized="1"
     inkscape:current-layer="svg120"
     inkscape:showpageshadow="2"
     inkscape:deskcolor="#d1d1d1">
    <inkscape:grid
       type="xygrid"
       id="grid936" />
  </sodipodi:namedview>
  <metadata
     id="metadata121">
    <rdf:RDF>
      <cc:Work
         rdf:about="">
        <dc:format>image/svg+xml</dc:format>
        <dc:type
           rdf:resource="http://purl.org/dc/dcmitype/StillImage" />
      </cc:Work>
    </rdf:RDF>
  </metadata>
  <defs
     id="defs5">
    <style
       type="text/css"
       id="current-color-scheme">.ColorScheme-Text { color:#363636; }</style>
  </defs>
  <g
     transform="translate(-69.54,-403.51)"
     id="AcAdapter">
    <g
       transform="translate(-228,47)"
       id="g1133">
      <rect
         opacity="0"
         ry="0"
         rx="0"
         height="32"
         width="32"
         y="314.51001"
         x="211.53999"
         id="rect1129" />
    </g>
    <g
       id="g1139">
      <path
         fill="#4caf50"
         d="m -3.4643,369.51 c -0.554,0 -1,0.446 -1,1 v 3 h -2 c 3.908e-4,3.3259 1.6723,6.1922 4,6.8574 v 4.1426 c 0,0.554 0.446,1 1,1 0.554,0 1,-0.446 1,-1 v -4.1426 c 2.3277,-0.66518 3.9996,-3.5315 4,-6.8574 h -2 v -3 c 0,-0.554 -0.446,-1 -1,-1 -0.554,0 -1,0.446 -1,1 v 3 h -2 v -3 c 0,-0.554 -0.446,-1 -1,-1 z"
         id="path1137" />
    </g>
  </g>
  <g
     transform="translate(-167.54,-433.51001)"
     id="22-22-AcAdapter">
    <g
       transform="translate(-128,-3)"
       id="g1153">
      <g
         transform="translate(50,8)"
         id="g1149">
        <rect
           opacity="0"
           ry="0"
           rx="0"
           height="22"
           width="22"
           y="428.51001"
           x="164.53999"
           id="rect1147" />
      </g>
    </g>
    <path
       fill="#4caf50"
       d="m -119.5,35 c -0.277,0 -0.5,0.223 -0.5,0.5 V 37 h -2 a 4.5,6 0 0 0 4,5.9609 V 45.5 c 0,0.277 0.223,0.5 0.5,0.5 0.277,0 0.5,-0.223 0.5,-0.5 V 42.9629 A 4.5,6 0 0 0 -113,37 h -2 v -1.5 c 0,-0.277 -0.223,-0.5 -0.5,-0.5 -0.277,0 -0.5,0.223 -0.5,0.5 V 37 h -3 v -1.5 c 0,-0.277 -0.223,-0.5 -0.5,-0.5 z"
       transform="translate(214.54,404.51)"
       id="path1155" />
  </g>
  <g
     fill="currentColor"
     transform="translate(-210.54,-401.51)"
     class="ColorScheme-Text"
     id="battery-ups">
    <g
       transform="translate(1,27)"
       id="g297">
      <path
         opacity="0.5"
         d="m -139,-36 c -2.216,0 -4,1.784 -4,4 v 6 c 0,2.216 1.784,4 4,4 h 18 c 2.216,0 4,-1.784 4,-4 v -6 c 0,-2.216 -1.784,-4 -4,-4 z m 0,1 h 11 l -7,7 h 5 l -2.5,5 h -6.5 c -1.662,0 -3,-1.338 -3,-3 v -6 c 0,-1.662 1.338,-3 3,-3 z m 11.5,0 h 6.5 c 1.662,0 3,1.338 3,3 v 6 c 0,1.662 -1.338,3 -3,3 h -11 l 7,-7 h -5 z m 11.5,4 v 4 a 2,2 0 0 0 2,-2 2,2 0 0 0 -2,-2 z"
         transform="translate(213.54,377.51)"
         id="path275" />
      <path
         d="m -139,-34 c -1.108,0 -2,0.892 -2,2 v 6 c 0,1.108 0.892,2 2,2 h 5.8828 l 1.5,-3 H -135 c -0.89064,-3.51e-4 -1.3366,-1.077 -0.70703,-1.707 l 5.293,-5.293 z m 12.117,0 -1.5,3 h 3.3828 c 0.89064,3.51e-4 1.3366,1.077 0.70703,1.707 l -5.293,5.293 h 8.5859 c 1.108,0 2,-0.892 2,-2 v -6 c 0,-1.108 -0.892,-2 -2,-2 z"
         transform="translate(213.54,377.51)"
         id="rect281" />
    </g>
    <rect
       opacity="0"
       ry="0"
       rx="0"
       height="32"
       width="32"
       y="359.51001"
       x="69.536003"
       id="rect1110" />
  </g>
  <g
     transform="translate(-220.54,-408.51001)"
     fill="currentColor"
     class="ColorScheme-Text"
     id="22-22-battery-ups">
    <path
       d="m -116,12 c -0.554,0 -1,0.446 -1,1 v 5 c 0,0.554 0.446,1 1,1 h 4.8106 l 0.6582,-1.4941 H -113 c -0.87296,5.7e-4 -1.3276,-1.0392 -0.73438,-1.6797 L -110.20508,12 Z m 9.2051,0 -0.66797,1.5059 h 2.4629 c 0.86964,8.8e-4 1.3239,1.0346 0.73633,1.6758 l -3.5137,3.8184 h 5.7773 c 0.554,0 1,-0.446 1,-1 v -5 c 0,-0.554 -0.446,-1 -1,-1 z"
       transform="translate(214.54,404.51)"
       id="rect1160" />
    <rect
       opacity="0"
       ry="0"
       rx="0"
       height="22"
       width="22"
       y="408.51001"
       x="95.536003"
       id="rect930" />
    <path
       opacity="0.5"
       d="m -116,10 c -1.662,0 -3,1.338 -3,3 v 5 c 0,1.662 1.338,3 3,3 h 14 c 1.662,0 3,-1.338 3,-3 v -5 c 0,-1.662 -1.338,-3 -3,-3 h -5 z m 0,1 h 8.0781 L -113,16.5059 h 4 L -110.5371,20 H -116 c -1.108,0 -2,-0.892 -2,-2 v -5 c 0,-1.108 0.89199,-2 2,-2 z m 8.5566,0 H -102 c 1.108,0 2,0.892 2,2 v 5 c 0,1.108 -0.89199,2 -2,2 h -8.0566 L -105,14.5059 h -4 z"
       transform="translate(214.54,404.51)"
       id="path965" />
    <path
       opacity="0.5"
       d="m 116.54,418.59 v 2.8262 a 1.5,1.5 0 0 0 1,-1.4141 1.5,1.5 0 0 0 -1,-1.4121 z"
       id="path1139" />
  </g>
  <g
     transform="translate(-166.53999,-470.5)"
     id="Unavailable">
    <path
       fill="none"
       d="m 118.54,428.5 h 32 v 32 h -32 z"
       id="rect4480" />
    <g
       id="g4580">
      <rect
         fill="#f44336"
         ry="6"
         rx="6"
         height="12"
         width="12"
         y="446.5"
         x="138.53999"
         id="rect4577" />
      <path
         d="m 147.36,450.38 -0.70699,-0.707 -2.1213,2.1213 -2.1213,-2.1213 -0.70711,0.70711 2.1214,2.1212 -2.1214,2.1214 0.70711,0.70711 2.1213,-2.1216 2.1213,2.1216 0.70711,-0.70711 -2.1214,-2.1214 z"
         id="rect4622-0"
         style="fill:#ffffff" />
    </g>
  </g>
  <g
     transform="translate(-300.54,-426.50001)"
     id="22-22-Unavailable">
    <path
       fill="none"
       d="m 258.54,426.5 h 22 v 22 h -22 z"
       id="rect4614" />
    <g
       id="g4631">
      <rect
         fill="#f44336"
         ry="4.5"
         rx="4.5"
         height="9"
         width="9"
         y="439.5"
         x="271.54001"
         id="rect4577-9-1" />
      <path
         d="m 277.89,442.77 -0.61861,-0.61862 -1.2375,1.2375 -1.2375,-1.2375 -0.61861,0.61862 1.2375,1.2375 -1.2375,1.2373 0.61861,0.61862 1.2375,-1.2373 1.2374,1.2374 0.61863,-0.61862 -1.2374,-1.2374 z"
         id="rect4622"
         style="fill:#ffffff" />
    </g>
  </g>
  <g
     transform="matrix(0.49999985,0,0,0.49999985,168.5,78.49999)"
     id="16-16-Fill10">
    <g
       fill="#ff4d62"
       transform="translate(0,-24)"
       id="g1065">
      <path
         d="m 3.0000009,-34.999997 c -2.216,0 -4,1.784 -4,4 v 8.000004 c 0,2.216 1.784,4 4,4 H 21.000001 c 2.216,0 4,-1.784 4,-4 v -8.000004 c 0,-2.216 -1.784,-4 -4,-4 z m 0,2 H 21.000001 c 1.108,0 2,0.892 2,2 v 8.000004 c 0,1.108 -0.892,2 -2,2 H 3.0000009 c -1.108,0 -2,-0.892 -2,-2 v -8.000004 c 0,-1.108 0.892,-2 2,-2 z"
         id="path1059"
         sodipodi:nodetypes="ssssssssssssssssss" />
      <path
         d="m 27.000008,-29 v 4 h 0.5 c 0.898634,-0.29988 1.499577,-1.101658 1.5,-2.0013 -0.0016,-0.898687 -0.602318,-1.699138 -1.5,-1.9987 z"
         id="path1061"
         sodipodi:nodetypes="cccccc" />
      <rect
         ry="1"
         height="8"
         width="2"
         y="-31"
         x="3.0000014"
         id="rect1063" />
    </g>
    <rect
       fill="none"
       height="32"
       width="32"
       y="-67"
       x="-3"
       id="rect1067" />
  </g>
  <g
     fill="currentColor"
     transform="matrix(0.49999985,0,0,0.49999985,-94.719973,-123.25495)"
     class="ColorScheme-Text"
     id="16-16-Fill100">
    <rect
       opacity="0"
       ry="0"
       rx="0"
       height="32"
       width="32"
       y="336.51001"
       x="189.44"
       id="rect1071" />
    <rect
       stroke-width="0.809037"
       ry="0.99999911"
       rx="0"
       height="7.9999928"
       width="18.000006"
       y="348.51001"
       x="195.44"
       id="rect1075" />
  </g>
  <g
     fill="currentColor"
     transform="matrix(0.49999985,0,0,0.49999985,-74.719973,-123.25495)"
     class="ColorScheme-Text"
     id="16-16-Fill90">
    <rect
       opacity="0"
       ry="0"
       rx="0"
       height="32"
       width="32"
       y="336.51001"
       x="189.44"
       id="rect1079" />
    <rect
       stroke-width="0.800445"
       ry="1"
       rx="0"
       height="8"
       width="16.000006"
       y="348.51001"
       x="195.44"
       id="rect1081" />
  </g>
  <g
     fill="currentColor"
     transform="matrix(0.49999985,0,0,0.49999985,-57.719973,-123.25495)"
     class="ColorScheme-Text"
     id="16-16-Fill80">
    <rect
       opacity="0"
       ry="0"
       rx="0"
       height="32"
       width="32"
       y="336.51001"
       x="189.44"
       id="rect1085" />
    <rect
       stroke-width="0.789303"
       ry="1"
       rx="0"
       height="8"
       width="14.000004"
       y="348.51001"
       x="195.44"
       id="rect1087" />
  </g>
  <g
     fill="currentColor"
     transform="matrix(0.49999985,0,0,0.49999985,-37.719973,-123.25495)"
     class="ColorScheme-Text"
     id="16-16-Fill70">
    <rect
       opacity="0"
       ry="0"
       rx="0"
       height="32"
       width="32"
       y="336.51001"
       x="189.44"
       id="rect1091" />
    <rect
       stroke-width="0.775152"
       ry="1"
       rx="0"
       height="8"
       width="12.000004"
       y="348.51001"
       x="195.44"
       id="rect1093" />
  </g>
  <g
     fill="currentColor"
     transform="matrix(0.49999985,0,0,0.49999985,-19.719973,-123.25495)"
     class="ColorScheme-Text"
     id="16-16-Fill60">
    <rect
       opacity="0"
       ry="0"
       rx="0"
       height="32"
       width="32"
       y="336.51001"
       x="189.44"
       id="rect1097" />
    <rect
       stroke-width="0.75656"
       ry="1"
       rx="0"
       height="8"
       width="10.000003"
       y="348.51001"
       x="195.44"
       id="rect1099" />
  </g>
  <g
     fill="currentColor"
     transform="matrix(0.49999985,0,0,0.49999985,-1.7199728,-123.25495)"
     class="ColorScheme-Text"
     id="16-16-Fill50">
    <rect
       opacity="0"
       ry="0"
       rx="0"
       height="32"
       width="32"
       y="336.51001"
       x="189.44"
       id="rect1103" />
    <rect
       stroke-width="0.731024"
       ry="1"
       rx="0"
       height="8"
       width="8.0000029"
       y="348.51001"
       x="195.44"
       id="rect1105" />
  </g>
  <g
     fill="currentColor"
     transform="matrix(0.49999985,0,0,0.49999985,18.280027,-123.25495)"
     class="ColorScheme-Text"
     id="16-16-Fill40">
    <rect
       opacity="0"
       ry="0"
       rx="0"
       height="32"
       width="32"
       y="336.51001"
       x="189.44"
       id="rect1109" />
    <rect
       stroke-width="0.693686"
       ry="1"
       rx="0"
       height="8"
       width="6.0000019"
       y="348.51001"
       x="195.44"
       id="rect1111" />
  </g>
  <g
     fill="currentColor"
     transform="matrix(0.49999985,0,0,0.49999985,35.280027,-123.25495)"
     class="ColorScheme-Text"
     id="16-16-Fill30">
    <rect
       opacity="0"
       ry="0"
       rx="0"
       height="32"
       width="32"
       y="336.51001"
       x="189.44"
       id="rect1115" />
    <rect
       stroke-width="0.633512"
       ry="1"
       rx="0"
       height="8"
       width="4.0000014"
       y="348.51001"
       x="195.44"
       id="rect1117" />
  </g>
  <g
     fill="currentColor"
     transform="matrix(0.49999985,0,0,0.49999985,53.280027,-123.25495)"
     class="ColorScheme-Text"
     id="16-16-Fill20">
    <rect
       opacity="0"
       ry="0"
       rx="0"
       height="32"
       width="32"
       y="336.51001"
       x="189.44"
       id="rect1121" />
    <rect
       stroke-width="0.517687"
       ry="1"
       rx="0"
       height="8"
       width="2.0000007"
       y="348.51001"
       x="195.44"
       id="rect1123" />
  </g>
  <g
     transform="matrix(0.49999985,0,0,0.49999985,-51.769999,-135.75495)"
     id="16-16-AcAdapter">
    <g
       transform="translate(-228,47)"
       id="g1129">
      <rect
         opacity="0"
         ry="0"
         rx="0"
         height="32"
         width="32"
         y="314.51001"
         x="211.53999"
         id="rect1127" />
    </g>
    <g
       id="g1134">
      <path
         fill="#4caf50"
         d="m -3.4643,369.51 c -0.554,0 -1,0.446 -1,1 v 3 h -2 c 3.908e-4,3.3259 1.6723,6.1922 4,6.8574 v 4.1426 c 0,0.554 0.446,1 1,1 0.554,0 1,-0.446 1,-1 v -4.1426 c 2.3277,-0.66518 3.9996,-3.5315 4,-6.8574 h -2 v -3 c 0,-0.554 -0.446,-1 -1,-1 -0.554,0 -1,0.446 -1,1 v 3 h -2 v -3 c 0,-0.554 -0.446,-1 -1,-1 z"
         id="path1131" />
    </g>
  </g>
  <g
     fill="currentColor"
     transform="matrix(0.49999985,0,0,0.49999985,-122.76999,-134.75494)"
     class="ColorScheme-Text"
     id="16-16-battery-ups">
    <g
       transform="translate(1,27)"
       id="g1142">
      <path
         opacity="0.5"
         d="m -139,-37.00001 c -2.216,0 -4,1.784 -4,4 v 8.000004 c 0,2.216 1.784,4 4,4 h 18 c 2.216,0 4,-1.784 4,-4 v -8.000004 c 0,-2.216 -1.784,-4 -4,-4 z m 0,1 h 11 L -135,-28 h 5 l -2.5,5.999994 h -6.5 c -1.662,0 -3,-1.338 -3,-3 v -8.000004 c 0,-1.662 1.338,-3 3,-3 z m 11.5,0 h 6.5 c 1.662,0 3,1.338 3,3 v 8.000004 c 0,1.662 -1.338,3 -3,3 h -11 L -125,-30 h -5 z M -114.99999,-31 v 4 c 1.10457,0 2,-0.895431 2,-2 0,-1.104569 -0.89543,-2 -2,-2 z"
         transform="translate(213.54,377.51)"
         id="path1138"
         sodipodi:nodetypes="ssssssssssccccsssscssssccccccsc" />
      <path
         d="m -139,-35.000009 c -1.108,0 -2,0.892 -2,2 v 8.000003 c 0,1.108 0.892,2 2,2 h 5.8828 L -131.6172,-27 H -135 c -0.89064,-3.51e-4 -1.3366,-1.077 -0.70703,-1.707 l 5.293,-6.293009 z m 12.117,0 -1.5,4.000009 h 3.3828 c 0.89064,3.51e-4 1.3366,1.077 0.70703,1.707 l -5.293,6.292994 h 8.5859 c 1.108,0 2,-0.892 2,-2 v -8.000003 c 0,-1.108 -0.892,-2 -2,-2 z"
         transform="translate(213.54,377.51)"
         id="path1140" />
    </g>
    <rect
       opacity="0"
       ry="0"
       rx="0"
       height="32"
       width="32"
       y="359.51001"
       x="69.536003"
       id="rect1144" />
  </g>
  <g
     transform="matrix(0.49999985,0,0,0.49999985,-101.26998,-169.24993)"
     id="16-16-Unavailable">
    <path
       fill="none"
       d="m 118.54,428.5 h 32 v 32 h -32 z"
       id="path1148" />
    <g
       id="g1154">
      <rect
         fill="#f44336"
         ry="6"
         rx="6"
         height="12"
         width="12"
         y="446.5"
         x="138.54001"
         id="rect1150" />
      <path
         d="m 147.36002,450.38 -0.70699,-0.707 -2.1213,2.1213 -2.1213,-2.1213 -0.70711,0.70711 2.1214,2.1212 -2.1214,2.1214 0.70711,0.70711 2.1213,-2.1216 2.1213,2.1216 0.70711,-0.70711 -2.1214,-2.1214 z"
         id="path1152"
         style="fill:#ffffff" />
    </g>
  </g>
  <g
     transform="matrix(0.49999985,0,0,0.49999985,-18.499996,78.49999)"
     id="16-16-Battery">
    <g
       fill="currentColor"
       class="ColorScheme-Text"
       transform="translate(0,-24)"
       id="g1162">
      <path
         d="m 3,-34.999998 c -2.216,0 -4,1.784 -4,4 v 8.000004 c 0,2.216 1.784,4 4,4 h 18 c 2.216,0 4,-1.784 4,-4 v -8.000004 c 0,-2.216 -1.784,-4 -4,-4 z m 0,2 h 18 c 1.108,0 2,0.892 2,2 v 8.000004 c 0,1.108 -0.892,2 -2,2 H 3 c -1.108,0 -2,-0.892 -2,-2 v -8.000004 c 0,-1.108 0.892,-2 2,-2 z"
         id="path1158"
         sodipodi:nodetypes="ssssssssssssssssss" />
      <path
         d="m 27,-29 v 4 h 0.5 c 0.898634,-0.29988 1.499577,-1.101658 1.5,-2.0013 -0.0016,-0.898687 -0.602318,-1.699138 -1.5,-1.9987 z"
         id="path1160"
         sodipodi:nodetypes="cccccc" />
    </g>
    <rect
       fill="none"
       height="32"
       width="32"
       y="-67"
       x="-3"
       id="rect1164" />
  </g>
  <g
     transform="matrix(0.49999985,0,0,0.49999985,189.50495,78.499982)"
     id="16-16-Fill0">
    <g
       fill="#ff4d62"
       transform="translate(0,-24)"
       id="g1172">
      <path
         d="m 2.9901009,-34.999982 c -2.216,0 -4,1.784 -4,4 v 8.000005 c 0,2.216 1.784,4 4,4 H 20.990101 c 2.216,0 4,-1.784 4,-4 v -8.000005 c 0,-2.216 -1.784,-4 -4,-4 z m 0,2 H 20.990101 c 1.108,0 2,0.892 2,2 v 8.000005 c 0,1.108 -0.892,2 -2,2 H 2.9901009 c -1.108,0 -2,-0.892 -2,-2 v -8.000005 c 0,-1.108 0.892,-2 2,-2 z"
         id="path1168"
         sodipodi:nodetypes="ssssssssssssssssss" />
      <path
         d="m 26.990108,-29 v 4 h 0.5 c 0.898634,-0.29988 1.499577,-1.101658 1.5,-2.0013 -0.0016,-0.898687 -0.602318,-1.699138 -1.5,-1.9987 z"
         id="path1170"
         sodipodi:nodetypes="cccccc" />
    </g>
    <rect
       fill="none"
       height="32"
       width="32"
       y="-67"
       x="-3"
       id="rect1174" />
  </g>
  <g
     id="Battery"
     transform="translate(0,29)">
    <path
       id="rect356"
       style="opacity:0.5"
       d="m 1.5,-61 c -2.4930075,0 -4.5,2.007026 -4.5,4.5 v 7 c 0,2.493013 2.0069925,4.5 4.5,4.5 h 20 c 2.493012,0 4.5,-2.006987 4.5,-4.5 v -7 c 0,-2.492974 -2.006988,-4.5 -4.5,-4.5 z m 0,1 h 20 c 1.939009,0 3.5,1.561029 3.5,3.5 v 7 c 0,1.939009 -1.560991,3.5 -3.5,3.5 h -20 c -1.93900801,0 -3.5,-1.560991 -3.5,-3.5 v -7 c 0,-1.938971 1.56099199,-3.5 3.5,-3.5 z m 25.5,4.5 v 5 a 2.0000015,2.4999962 0 0 0 2,-2.5 2.0000015,2.4999962 0 0 0 -2,-2.5 z"
       class="ColorScheme-Text"
       fill="currentColor" />
    <rect
       id="rect447"
       width="32"
       height="32"
       x="-3"
       y="-69"
       rx="0"
       ry="0"
       style="fill:none" />
  </g>
  <g
     id="Fill100"
     transform="translate(40,29)">
    <rect
       id="rect458"
       width="24"
       height="12"
       x="-1"
       y="-59"
       rx="2.5077856"
       ry="2.5077856"
       class="ColorScheme-Text"
       fill="currentColor" />
    <rect
       id="rect460"
       width="32"
       height="32"
       x="-3"
       y="-69"
       rx="0"
       ry="0"
       style="fill:none" />
  </g>
  <g
     id="Fill90"
     transform="translate(77,29)">
    <rect
       id="rect466"
       width="21"
       height="12"
       x="-1"
       y="-59"
       rx="2.5077856"
       ry="2.5077856"
       class="ColorScheme-Text"
       fill="currentColor" />
    <rect
       id="rect468"
       width="32"
       height="32"
       x="-3"
       y="-69"
       rx="0"
       ry="0"
       style="fill:none" />
  </g>
  <g
     id="Fill80"
     transform="translate(114,29)">
    <rect
       id="rect474"
       width="19"
       height="12"
       x="-1"
       y="-59"
       rx="2.5077856"
       ry="2.5077856"
       class="ColorScheme-Text"
       fill="currentColor" />
    <rect
       id="rect476"
       width="32"
       height="32"
       x="-3"
       y="-69"
       rx="0"
       ry="0"
       style="fill:none" />
  </g>
  <g
     id="Fill70"
     transform="translate(149,29)">
    <rect
       id="rect482"
       width="17"
       height="12"
       x="-1"
       y="-59"
       rx="2.5077856"
       ry="2.5077856"
       class="ColorScheme-Text"
       fill="currentColor" />
    <rect
       id="rect484"
       width="32"
       height="32"
       x="-3"
       y="-69"
       rx="0"
       ry="0"
       style="fill:none" />
  </g>
  <g
     id="Fill60"
     transform="translate(185,29)">
    <rect
       id="rect490"
       width="15"
       height="12"
       x="-1"
       y="-59"
       rx="2.5077856"
       ry="2.5077856"
       class="ColorScheme-Text"
       fill="currentColor" />
    <rect
       id="rect492"
       width="32"
       height="32"
       x="-3"
       y="-69"
       rx="0"
       ry="0"
       style="fill:none" />
  </g>
  <g
     id="Fill50"
     transform="translate(223,29)">
    <rect
       id="rect498"
       width="13"
       height="12"
       x="-1"
       y="-59"
       rx="2.5077856"
       ry="2.5077856"
       class="ColorScheme-Text"
       fill="currentColor" />
    <rect
       id="rect500"
       width="32"
       height="32"
       x="-3"
       y="-69"
       rx="0"
       ry="0"
       style="fill:none" />
  </g>
  <g
     id="Fill40"
     transform="translate(261,29)">
    <rect
       id="rect506"
       width="11"
       height="12"
       x="-1"
       y="-59"
       rx="2.5077856"
       ry="2.5077856"
       class="ColorScheme-Text"
       fill="currentColor" />
    <rect
       id="rect508"
       width="32"
       height="32"
       x="-3"
       y="-69"
       rx="0"
       ry="0"
       style="fill:none" />
  </g>
  <g
     id="Fill30"
     transform="translate(299,29)">
    <rect
       id="rect514"
       width="9"
       height="12"
       x="-1"
       y="-59"
       rx="2.5077856"
       ry="2.5077856"
       class="ColorScheme-Text"
       fill="currentColor" />
    <rect
       id="rect516"
       width="32"
       height="32"
       x="-3"
       y="-69"
       rx="0"
       ry="0"
       style="fill:none" />
  </g>
  <g
     id="Fill20"
     transform="translate(335,29)">
    <rect
       id="rect522"
       width="7"
       height="12"
       x="-1"
       y="-59"
       rx="2.5077856"
       ry="2.5077856"
       class="ColorScheme-Text"
       fill="currentColor" />
    <rect
       id="rect524"
       width="32"
       height="32"
       x="-3"
       y="-69"
       rx="0"
       ry="0"
       style="fill:none" />
  </g>
  <g
     id="Fill10"
     transform="translate(371,29)">
    <rect
       id="rect530"
       width="5"
       height="12"
       x="-1"
       y="-59"
       rx="2.3526349"
       ry="2.5077856"
       class="ColorScheme-Text"
       fill="currentColor"
       style="fill:#ff4d62;fill-opacity:1" />
    <rect
       id="rect532"
       width="32"
       height="32"
       x="-3"
       y="-69"
       rx="0"
       ry="0"
       style="fill:none" />
  </g>
  <g
     id="Fill0"
     transform="translate(407,29)">
    <path
       id="path536"
       style="opacity:1;fill:#ff4d62;fill-opacity:1"
       d="m 1.5,-61 c -2.4930075,0 -4.5,2.007026 -4.5,4.5 v 7 c 0,2.493013 2.0069925,4.5 4.5,4.5 h 20 c 2.493012,0 4.5,-2.006987 4.5,-4.5 v -7 c 0,-2.492974 -2.006988,-4.5 -4.5,-4.5 z m 0,1 h 20 c 1.939009,0 3.5,1.561029 3.5,3.5 v 7 c 0,1.939009 -1.560991,3.5 -3.5,3.5 h -20 c -1.93900801,0 -3.5,-1.560991 -3.5,-3.5 v -7 c 0,-1.938971 1.56099199,-3.5 3.5,-3.5 z m 25.5,4.5 v 5 a 2.0000015,2.4999962 0 0 0 2,-2.5 2.0000015,2.4999962 0 0 0 -2,-2.5 z"
       class="ColorScheme-Text"
       fill="currentColor" />
    <rect
       id="rect540"
       width="32"
       height="32"
       x="-3"
       y="-69"
       rx="0"
       ry="0"
       style="fill:none" />
  </g>
  <g
     id="22-22-Battery">
    <rect
       id="rect994"
       width="22"
       height="22"
       x="0"
       y="0"
       rx="0"
       ry="0"
       style="fill:none;stroke-width:0.6875" />
    <path
       id="rect1050"
       d="M 3 5 C 1.3380034 5 0 6.3380034 0 8 L 0 14 C 0 15.661996 1.3380034 17 3 17 L 17 17 C 18.661996 17 20 15.661996 20 14 L 20 8 C 20 6.3380034 18.661996 5 17 5 L 3 5 z M 3 6 L 17 6 C 18.107998 6 19 6.8920022 19 8 L 19 14 C 19 15.107998 18.107998 16 17 16 L 3 16 C 1.8920022 16 1 15.107998 1 14 L 1 8 C 1 6.8920022 1.8920022 6 3 6 z M 21 9 L 21 13 C 21.553998 13 22 12.553998 22 12 L 22 10 C 22 9.4460012 21.553998 9 21 9 z "
       style="opacity:0.5"
       class="ColorScheme-Text"
       fill="currentColor" />
  </g>
  <g
     id="22-22-Fill100"
     transform="translate(24)">
    <rect
       id="rect1070"
       width="22"
       height="22"
       x="0"
       y="0"
       rx="0"
       ry="0"
       style="fill:none;stroke-width:0.6875" />
    <rect
       id="rect1074"
       width="16"
       height="8"
       x="2"
       y="7"
       rx="1"
       ry="1"
       class="ColorScheme-Text"
       fill="currentColor" />
  </g>
  <g
     id="22-22-Fill90"
     transform="translate(48)">
    <rect
       id="rect1078"
       width="22"
       height="22"
       x="0"
       y="0"
       rx="0"
       ry="0"
       style="fill:none;stroke-width:0.6875" />
    <rect
       id="rect1082"
       width="14"
       height="8"
       x="2"
       y="7"
       rx="1"
       ry="1"
       class="ColorScheme-Text"
       fill="currentColor" />
  </g>
  <g
     id="22-22-Fill80"
     transform="translate(72)">
    <rect
       id="rect1086"
       width="22"
       height="22"
       x="0"
       y="0"
       rx="0"
       ry="0"
       style="fill:none;stroke-width:0.6875" />
    <rect
       id="rect1090"
       width="13"
       height="8"
       x="2"
       y="7"
       rx="1"
       ry="1"
       class="ColorScheme-Text"
       fill="currentColor" />
  </g>
  <g
     id="22-22-Fill70"
     transform="translate(96)">
    <rect
       id="rect1094"
       width="22"
       height="22"
       x="0"
       y="0"
       rx="0"
       ry="0"
       style="fill:none;stroke-width:0.6875" />
    <rect
       id="rect1098"
       width="11"
       height="8"
       x="2"
       y="7"
       rx="1"
       ry="1"
       class="ColorScheme-Text"
       fill="currentColor" />
  </g>
  <g
     id="22-22-Fill60"
     transform="translate(120)">
    <rect
       id="rect1102"
       width="22"
       height="22"
       x="0"
       y="0"
       rx="0"
       ry="0"
       style="fill:none;stroke-width:0.6875" />
    <rect
       id="rect1106"
       width="10"
       height="8"
       x="2"
       y="7"
       rx="1"
       ry="1"
       class="ColorScheme-Text"
       fill="currentColor" />
  </g>
  <g
     id="22-22-Fill50"
     transform="translate(144)">
    <rect
       id="rect1112"
       width="22"
       height="22"
       x="0"
       y="0"
       rx="0"
       ry="0"
       style="fill:none;stroke-width:0.6875" />
    <rect
       id="rect1116"
       width="8"
       height="8"
       x="2"
       y="7"
       rx="1"
       ry="1"
       class="ColorScheme-Text"
       fill="currentColor" />
  </g>
  <g
     id="22-22-Fill40"
     transform="translate(168)">
    <rect
       id="rect1120"
       width="22"
       height="22"
       x="0"
       y="0"
       rx="0"
       ry="0"
       style="fill:none;stroke-width:0.6875" />
    <rect
       id="rect1124"
       width="7"
       height="8"
       x="2"
       y="7"
       rx="1"
       ry="1"
       class="ColorScheme-Text"
       fill="currentColor" />
  </g>
  <g
     id="22-22-Fill30"
     transform="translate(192)">
    <rect
       id="rect1128"
       width="22"
       height="22"
       x="0"
       y="0"
       rx="0"
       ry="0"
       style="fill:none;stroke-width:0.6875" />
    <rect
       id="rect1132"
       width="6"
       height="8"
       x="2"
       y="7"
       rx="1"
       ry="1"
       class="ColorScheme-Text"
       fill="currentColor" />
  </g>
  <g
     id="22-22-Fill20"
     transform="translate(216)">
    <rect
       id="rect1137"
       width="22"
       height="22"
       x="0"
       y="0"
       rx="0"
       ry="0"
       style="fill:none;stroke-width:0.6875" />
    <rect
       id="rect1143"
       width="5"
       height="8"
       x="2"
       y="7"
       rx="1"
       ry="1"
       class="ColorScheme-Text"
       fill="currentColor" />
  </g>
  <g
     id="22-22-Fill10"
     transform="translate(240)">
    <rect
       id="rect1148"
       width="22"
       height="22"
       x="0"
       y="0"
       rx="0"
       ry="0"
       style="fill:none;stroke-width:0.6875" />
    <rect
       id="rect1152"
       width="3"
       height="8"
       x="2"
       y="7"
       rx="1"
       ry="1"
       class="ColorScheme-Text"
       fill="currentColor"
       style="fill:#ff4d62;fill-opacity:1" />
  </g>
  <g
     id="22-22-Fill0"
     transform="translate(264)">
    <rect
       id="rect1165"
       width="22"
       height="22"
       x="0"
       y="0"
       rx="0"
       ry="0"
       style="fill:none;stroke-width:0.6875" />
    <path
       id="path1167"
       d="M 3,5 C 1.3380034,5 0,6.3380034 0,8 v 6 c 0,1.661996 1.3380034,3 3,3 h 14 c 1.661996,0 3,-1.338004 3,-3 V 8 C 20,6.3380034 18.661996,5 17,5 Z m 0,1 h 14 c 1.107998,0 2,0.8920022 2,2 v 6 c 0,1.107998 -0.892002,2 -2,2 H 3 C 1.8920022,16 1,15.107998 1,14 V 8 C 1,6.8920022 1.8920022,6 3,6 Z m 18,3 v 4 c 0.553998,0 1,-0.446002 1,-1 V 10 C 22,9.4460012 21.553998,9 21,9 Z"
       style="opacity:1;fill:#ff4d62;fill-opacity:1"
       class="ColorScheme-Text"
       fill="currentColor" />
  </g>
</svg>
