<?xml version="1.0" encoding="UTF-8" standalone="no"?>
<svg
   id="svg21"
   viewBox="0 0 54 32"
   version="1.1"
   sodipodi:docname="cantata.svg"
   inkscape:version="1.2.2 (b0a8486541, 2022-12-01)"
   xmlns:inkscape="http://www.inkscape.org/namespaces/inkscape"
   xmlns:sodipodi="http://sodipodi.sourceforge.net/DTD/sodipodi-0.dtd"
   xmlns="http://www.w3.org/2000/svg"
   xmlns:svg="http://www.w3.org/2000/svg">
  <sodipodi:namedview
     id="namedview1211"
     pagecolor="#ffffff"
     bordercolor="#666666"
     borderopacity="1.0"
     inkscape:showpageshadow="2"
     inkscape:pageopacity="0.0"
     inkscape:pagecheckerboard="0"
     inkscape:deskcolor="#d1d1d1"
     showgrid="true"
     inkscape:zoom="59"
     inkscape:cx="36.61017"
     inkscape:cy="14.957627"
     inkscape:window-width="3840"
     inkscape:window-height="2028"
     inkscape:window-x="0"
     inkscape:window-y="64"
     inkscape:window-maximized="1"
     inkscape:current-layer="cantata">
    <inkscape:grid
       type="xygrid"
       id="grid1213" />
  </sodipodi:namedview>
  <defs
     id="defs5">
    <style
       type="text/css"
       id="current-color-scheme"> .ColorScheme-Text { color:#363636; } </style>
  </defs>
  <g
     fill="currentColor"
     class="ColorScheme-Text"
     id="cantata">
    <path
       id="path7"
       opacity=".5"
       d="m38 4a12 12 0 0 0-12 12 12 12 0 0 0 12 12 12 12 0 0 0 12-12 12 12 0 0 0-12-12zm-0.01953 2a10 10 0 0 1 0.01953 0 10 10 0 0 1 10 10 10 10 0 0 1-10 10 10 10 0 0 1-10-10 10 10 0 0 1 9.9805-10z" />
    <path
       id="path9"
       fill="none"
       d="m22 0v32h32v-32z" />
    <path
       id="path11"
       d="m37.002 4v16.994c-1.2558-0.54161-3.214-0.82785-4.7685-0.18368-2.6021 1.0772-3.7646 3.4714-3.0044 5.3074 0.76016 1.8365 3.1585 2.4213 5.7612 1.3435 2.0531-0.85229 3.0457-3.1138 3.0425-4.4483l-0.03082-13.015s5.1006 0.59912 5.1006 5.3974c0 3.5987-1.1007 4.5991-4.1006 7.598 2.9999-1.7993 5.2988-3.9993 5.2988-7.598 0-4.7982-3.7038-6.9561-4.6523-7.9043-0.59998-0.59978-1.3476-2.8905-1.3476-2.8905z"
       class="ColorScheme-Text" />
  </g>
  <g
     fill="currentColor"
     class="ColorScheme-Text"
     id="22-22-cantata">
    <path
       id="path14"
       opacity=".5"
       d="m11 13a8 8 0 0 0-8 8 8 8 0 0 0 8 8 8 8 0 0 0 8-8 8 8 0 0 0-8-8zm0 2a6 6 0 0 1 6 6 6 6 0 0 1-6 6 6 6 0 0 1-6-6 6 6 0 0 1 6-6z" />
    <path
       id="path16"
       fill="none"
       d="m0 10v22h22v-22z" />
    <path
       id="path18"
       d="m10 13v11.045c-0.83718-0.3612-1.8093-0.26358-2.8457 0.16602-1.7348 0.7184-2.7294 2.2932-2.2227 3.5176 0.50678 1.2248 2.3254 1.6368 4.0605 0.91797 1.3688-0.5684 2.207-2.0455 2.207-2.9355v-8.7109s3.2012 0.39961 3.2012 3.5996c0 2.4-0.80083 3.2012-2.8008 5.2012 2-1.2 3.5996-2.8012 3.5996-5.2012 0-3.2-2.4692-4.6391-3.1016-5.2715-0.39999-0.4-0.89844-1.9277-0.89844-1.9277z"
       class="ColorScheme-Text" />
  </g>
</svg>
