<?xml version="1.0" encoding="UTF-8" standalone="no"?>
<svg
   width="70"
   height="64"
   version="1.0"
   id="svg11"
   sodipodi:docname="computer.svg"
   inkscape:version="1.3 (0e150ed6c4, 2023-07-21)"
   xmlns:inkscape="http://www.inkscape.org/namespaces/inkscape"
   xmlns:sodipodi="http://sodipodi.sourceforge.net/DTD/sodipodi-0.dtd"
   xmlns="http://www.w3.org/2000/svg"
   xmlns:svg="http://www.w3.org/2000/svg">
  <sodipodi:namedview
     id="namedview11"
     pagecolor="#ffffff"
     bordercolor="#666666"
     borderopacity="1.0"
     inkscape:showpageshadow="2"
     inkscape:pageopacity="0.0"
     inkscape:pagecheckerboard="0"
     inkscape:deskcolor="#d1d1d1"
     showgrid="true"
     inkscape:zoom="3.921875"
     inkscape:cx="20.270916"
     inkscape:cy="39.904382"
     inkscape:window-width="1920"
     inkscape:window-height="1010"
     inkscape:window-x="0"
     inkscape:window-y="34"
     inkscape:window-maximized="1"
     inkscape:current-layer="svg11">
    <inkscape:grid
       id="grid11"
       units="px"
       originx="0"
       originy="0"
       spacingx="1"
       spacingy="1"
       empcolor="#0099e5"
       empopacity="0.30196078"
       color="#0099e5"
       opacity="0.14901961"
       empspacing="5"
       dotted="false"
       gridanglex="30"
       gridanglez="30"
       visible="true" />
  </sodipodi:namedview>
  <defs
     id="defs1">
    <style
       id="current-color-scheme"
       type="text/css">.ColorScheme-Text { color:#363636; }</style>
  </defs>
  <g
     id="16-16-computer"
     transform="translate(25.5,17)">
    <path
       id="rect1587"
       d="m -23,0.5 c -1.384998,0 -2.5,1.1150028 -2.5,2.5 v 6 c 0,1.384997 1.115002,2.5 2.5,2.5 h 11 c 1.384998,0 2.5,-1.115003 2.5,-2.5 V 3 c 0,-1.3849972 -1.115002,-2.5 -2.5,-2.5 z m 0,1 h 11 c 0.830998,0 1.5,0.6690016 1.5,1.5 v 6 c 0,0.8309984 -0.669002,1.5 -1.5,1.5 h -11 c -0.830998,0 -1.5,-0.6690016 -1.5,-1.5 V 3 c 0,-0.8309984 0.669002,-1.5 1.5,-1.5 z m 2,11 c -0.277,0 -0.5,0.223 -0.5,0.5 0,0.277 0.223,0.5 0.5,0.5 h 7 c 0.277,0 0.5,-0.223 0.5,-0.5 0,-0.277 -0.223,-0.5 -0.5,-0.5 z"
       class="ColorScheme-Text"
       fill="currentColor" />
    <rect
       id="rect2146"
       width="16"
       height="16"
       x="-25.5"
       y="-1"
       rx="0"
       ry="0"
       style="fill:none" />
  </g>
  <g
     id="22-22-computer"
     transform="translate(16,10)">
    <rect
       id="rect16-3"
       fill-opacity="0"
       height="22"
       width="22"
       x="0"
       y="0"
       style="color:#363636;fill:#363636" />
    <path
       id="rect2976"
       class="ColorScheme-Text"
       d="M 2.5,2 C 1.1150034,2 0,3.1150042 0,4.5 v 10 C 0,15.884997 1.1150034,17 2.5,17 h 17 C 20.884997,17 22,15.884997 22,14.5 V 4.5 C 22,3.1150042 20.884997,2 19.5,2 Z m 0,1.5 h 17 c 0.553997,0 1,0.4460018 1,1 v 10 c 0,0.553997 -0.446003,1 -1,1 h -17 c -0.5539974,0 -1,-0.446003 -1,-1 v -10 c 0,-0.5539982 0.4460026,-1 1,-1 z m 4.25,15 C 6.3345004,18.5 6,18.8345 6,19.25 6,19.6655 6.3345004,20 6.75,20 h 9 c 0.4155,0 0.75,-0.3345 0.75,-0.75 0,-0.4155 -0.3345,-0.75 -0.75,-0.75 z"
       fill="currentColor" />
  </g>
  <g
     id="computer"
     transform="translate(43,36)">
    <rect
       id="rect33-6"
       fill-opacity="0"
       height="32"
       width="32"
       x="-5"
       y="-36"
       style="color:#363636;fill:#363636" />
    <path
       id="path2984"
       d="m 0.5,-30 c -1.384998,0 -2.5,1.115003 -2.5,2.5 v 12 c 0,1.384998 1.115002,2.5 2.5,2.5 h 21 c 1.384998,0 2.5,-1.115002 2.5,-2.5 v -12 c 0,-1.384997 -1.115002,-2.5 -2.5,-2.5 z m 0,1.5 h 21 c 0.553998,0 1,0.446001 1,1 v 12 c 0,0.553998 -0.446002,1 -1,1 h -21 c -0.553998,0 -1,-0.446002 -1,-1 v -12 c 0,-0.553999 0.446002,-1 1,-1 z m 4.75,17 c -0.4155,0 -0.75,0.3345 -0.75,0.75 0,0.4155 0.3345,0.75 0.75,0.75 h 11.5 c 0.4155,0 0.75,-0.3345 0.75,-0.75 0,-0.4155 -0.3345,-0.75 -0.75,-0.75 z"
       class="ColorScheme-Text"
       fill="currentColor" />
  </g>
  <g
     id="16-16-computer-laptop"
     transform="translate(25.5,49)">
    <path
       id="path13"
       d="m -23,0.5 c -1.384998,0 -2.5,1.1150028 -2.5,2.5 v 6 c 0,1.384997 1.115002,2.5 2.5,2.5 h 11 c 1.384998,0 2.5,-1.115003 2.5,-2.5 V 3 c 0,-1.3849972 -1.115002,-2.5 -2.5,-2.5 z m 0,1 h 11 c 0.830998,0 1.5,0.6690016 1.5,1.5 v 6 c 0,0.8309984 -0.669002,1.5 -1.5,1.5 h -11 c -0.830998,0 -1.5,-0.6690016 -1.5,-1.5 V 3 c 0,-0.8309984 0.669002,-1.5 1.5,-1.5 z m -2,10 c -0.277,0 -0.5,0.223 -0.5,0.5 0,0.277 0.223,0.5 0.5,0.5 h 15 c 0.277,0 0.5,-0.223 0.5,-0.5 0,-0.277 -0.223,-0.5 -0.5,-0.5 z"
       class="ColorScheme-Text"
       fill="currentColor" />
    <rect
       id="rect13"
       width="16"
       height="16"
       x="-25.5"
       y="-1"
       rx="0"
       ry="0"
       style="fill:none" />
  </g>
  <g
     id="22-22-computer-laptop"
     transform="translate(16,42)">
    <rect
       id="rect14"
       fill-opacity="0"
       height="22"
       width="22"
       x="0"
       y="0"
       style="color:#363636;fill:#363636" />
    <path
       id="path14"
       class="ColorScheme-Text"
       d="M 2.5,2 C 1.1150034,2 0,3.1150042 0,4.5 v 10 C 0,15.884997 1.1150034,17 2.5,17 h 17 C 20.884997,17 22,15.884997 22,14.5 V 4.5 C 22,3.1150042 20.884997,2 19.5,2 Z m 0,1.5 h 17 c 0.553997,0 1,0.4460018 1,1 v 10 c 0,0.553997 -0.446003,1 -1,1 h -17 c -0.5539974,0 -1,-0.446003 -1,-1 v -10 c 0,-0.5539982 0.4460026,-1 1,-1 z M 0.75,17 C 0.3345004,17 0,17.3345 0,17.75 0,18.1655 0.3345004,18.5 0.75,18.5 h 20.5 C 21.6655,18.5 22,18.1655 22,17.75 22,17.3345 21.6655,17 21.25,17 Z"
       fill="currentColor" />
  </g>
  <g
     id="computer-laptop"
     transform="translate(43,68)">
    <rect
       id="rect15"
       fill-opacity="0"
       height="32"
       width="32"
       x="-5"
       y="-36"
       style="color:#363636;fill:#363636" />
    <path
       id="path15"
       d="m 0.5,-30 c -1.384998,0 -2.5,1.115003 -2.5,2.5 v 12 c 0,1.384998 1.115002,2.5 2.5,2.5 h 21 c 1.384998,0 2.5,-1.115002 2.5,-2.5 v -12 c 0,-1.384997 -1.115002,-2.5 -2.5,-2.5 z m 0,1.5 h 21 c 0.553998,0 1,0.446001 1,1 v 12 c 0,0.553998 -0.446002,1 -1,1 h -21 c -0.553998,0 -1,-0.446002 -1,-1 v -12 c 0,-0.553999 0.446002,-1 1,-1 z M -1.25,-13 c -0.4155,0 -0.75,0.3345 -0.75,0.75 0,0.4155 0.3345,0.75 0.75,0.75 h 24.5 c 0.4155,0 0.75,-0.3345 0.75,-0.75 0,-0.4155 -0.3345,-0.75 -0.75,-0.75 z"
       class="ColorScheme-Text"
       fill="currentColor" />
  </g>
</svg>
