<?xml version="1.0" encoding="UTF-8" standalone="no"?>
<svg
   version="1.1"
   viewBox="0 0 54 32"
   id="svg479"
   sodipodi:docname="configure.svg"
   inkscape:version="1.2.2 (b0a8486541, 2022-12-01)"
   xmlns:inkscape="http://www.inkscape.org/namespaces/inkscape"
   xmlns:sodipodi="http://sodipodi.sourceforge.net/DTD/sodipodi-0.dtd"
   xmlns="http://www.w3.org/2000/svg"
   xmlns:svg="http://www.w3.org/2000/svg">
  <sodipodi:namedview
     id="namedview481"
     pagecolor="#ffffff"
     bordercolor="#666666"
     borderopacity="1.0"
     inkscape:showpageshadow="2"
     inkscape:pageopacity="0.0"
     inkscape:pagecheckerboard="0"
     inkscape:deskcolor="#d1d1d1"
     showgrid="false"
     inkscape:zoom="14.75"
     inkscape:cx="14.644068"
     inkscape:cy="17.59322"
     inkscape:window-width="3840"
     inkscape:window-height="2028"
     inkscape:window-x="0"
     inkscape:window-y="64"
     inkscape:window-maximized="1"
     inkscape:current-layer="svg479" />
  <defs
     id="defs402">
    <style
       id="current-color-scheme"
       type="text/css">.ColorScheme-Text { color:#363636; }</style>
  </defs>
  <g
     id="16-16-configure"
     transform="translate(7.2729466,-17.703089)">
    <path
       d="m -15.783274,47.77154 c 0.167876,0 0.328827,-0.01401 0.503707,-0.02802 l 0.39179,0.74155 c 0.08398,0.18897 0.272867,0.279873 0.489697,0.251933 0.202899,-0.03502 0.342835,-0.18889 0.370854,-0.398794 l 0.118922,-0.832533 c 0.328826,-0.08398 0.650648,-0.209904 0.95846,-0.342836 l 0.615623,0.55274 c 0.146941,0.146862 0.349841,0.167876 0.552661,0.06296 0.17496,-0.104992 0.244928,-0.293882 0.209904,-0.503787 l -0.17488,-0.811518 c 0.272867,-0.195895 0.53865,-0.412724 0.790583,-0.650648 l 0.75556,0.314817 c 0.2029002,0.08398 0.3917902,0.03502 0.5456562,-0.139857 0.125927,-0.14694 0.146941,-0.356845 0.03502,-0.53873 l -0.4407442,-0.706606 c 0.1888902,-0.272868 0.3497612,-0.573675 0.4967022,-0.888491 l 0.839538,0.04195 c 0.20282,0.01401 0.384785,-0.104913 0.454753,-0.300807 0.06989,-0.195895 0,-0.398795 -0.160951,-0.524721 l -0.650647,-0.517717 c 0.08398,-0.321821 0.146941,-0.657572 0.17488,-1.007413 l 0.790584,-0.251853 c 0.202899,-0.06997 0.328826,-0.230839 0.328826,-0.440743 0,-0.209905 -0.125927,-0.370776 -0.328826,-0.440744 l -0.790584,-0.251853 c -0.02794,-0.34984 -0.09791,-0.678667 -0.17488,-1.007493 l 0.650647,-0.517636 c 0.160951,-0.119002 0.223914,-0.314897 0.160951,-0.510791 -0.06997,-0.20282 -0.251933,-0.321782 -0.454753,-0.307788 l -0.839538,0.02799 c -0.146941,-0.307828 -0.307812,-0.601662 -0.4967022,-0.88151 l 0.4407442,-0.713595 c 0.104912,-0.167908 0.0909,-0.377788 -0.03502,-0.524705 -0.153866,-0.174905 -0.342756,-0.223874 -0.5456562,-0.139921 l -0.762564,0.307828 c -0.244929,-0.230871 -0.510712,-0.454745 -0.783579,-0.643643 l 0.17488,-0.811542 c 0.03502,-0.216877 -0.03494,-0.405767 -0.216829,-0.503715 -0.195895,-0.104944 -0.398795,-0.09095 -0.545736,0.06296 l -0.615623,0.545695 c -0.307812,-0.13992 -0.629634,-0.251861 -0.95846,-0.342812 l -0.118922,-0.81854 c -0.02802,-0.20988 -0.167955,-0.363794 -0.370854,-0.405767 -0.21683,-0.02799 -0.398715,0.06296 -0.489697,0.237868 l -0.39179,0.74858 c -0.17488,-0.01399 -0.335831,-0.02099 -0.503707,-0.02099 -0.181885,0 -0.342835,0.007 -0.517716,0.02099 l -0.391789,-0.74858 c -0.0839,-0.174905 -0.272868,-0.265855 -0.489697,-0.230871 -0.2029,0.03498 -0.342836,0.18889 -0.370775,0.39877 l -0.118922,0.81854 c -0.321822,0.09095 -0.643643,0.202892 -0.95846,0.342812 l -0.608698,-0.545695 c -0.153914,-0.146917 -0.356798,-0.167908 -0.552685,-0.06296 -0.174904,0.09795 -0.251861,0.286838 -0.216877,0.503715 l 0.174897,0.811542 c -0.272844,0.188898 -0.538691,0.412772 -0.783556,0.643643 l -0.762572,-0.307828 c -0.195887,-0.08395 -0.391782,-0.03498 -0.538699,0.139921 -0.132923,0.146917 -0.146917,0.356797 -0.04197,0.524705 l 0.447748,0.713595 c -0.188898,0.279848 -0.349808,0.573682 -0.503714,0.88151 l -0.832533,-0.02799 c -0.20988,-0.01399 -0.391782,0.104968 -0.454745,0.307788 -0.06996,0.195894 -0.01399,0.391789 0.153914,0.510791 l 0.657628,0.517636 c -0.08395,0.328826 -0.153913,0.657653 -0.174904,1.007493 l -0.790552,0.251853 c -0.20988,0.06997 -0.328818,0.223835 -0.328818,0.440744 0,0.209904 0.118938,0.370775 0.328818,0.440743 l 0.790552,0.251853 c 0.02099,0.349841 0.09095,0.685592 0.174904,1.007413 l -0.650631,0.517717 c -0.167908,0.118921 -0.223874,0.321821 -0.160911,0.517716 0.06296,0.202899 0.244865,0.321821 0.454745,0.307812 l 0.832533,-0.04195 c 0.146917,0.314816 0.314816,0.615623 0.503714,0.888491 l -0.447748,0.713611 c -0.111941,0.17488 -0.09095,0.384785 0.04197,0.531725 0.146917,0.174881 0.342812,0.223835 0.538699,0.139857 l 0.762572,-0.314817 c 0.244865,0.237924 0.510712,0.454753 0.783556,0.650648 l -0.174897,0.811518 c -0.03498,0.209905 0.03498,0.398795 0.216877,0.503787 0.195887,0.104912 0.398771,0.0839 0.552685,-0.06296 l 0.608698,-0.55274 c 0.314817,0.132932 0.629633,0.258858 0.95846,0.349841 l 0.118922,0.825528 c 0.02794,0.209904 0.167875,0.36377 0.377779,0.398794 0.209825,0.02794 0.398795,-0.06296 0.482693,-0.244928 l 0.391789,-0.748555 c 0.174881,0.01401 0.335831,0.02802 0.517716,0.02802 z m 1.825937,-7.47186 c -0.342756,-0.902422 -1.042358,-1.392198 -1.867886,-1.392198 -0.118921,0 -0.244928,0.01401 -0.461757,0.06296 l -1.88898,-3.246153 c 0.720616,-0.335807 1.525209,-0.524705 2.385682,-0.524705 2.959356,0 5.282073,2.224746 5.547857,5.100093 z m -7.401797,0.559744 c 0,-1.874969 0.860512,-3.519045 2.224747,-4.547464 l 1.902957,3.253174 c -0.370855,0.405799 -0.545735,0.853547 -0.545735,1.315225 0,0.440743 0.16095,0.860552 0.545735,1.287286 l -1.958924,3.197199 c -1.329258,-1.028427 -2.16878,-2.658469 -2.16878,-4.50542 z m 4.694374,0.01393 c 0,-0.475687 0.398794,-0.839458 0.846542,-0.839458 0.468683,0 0.853468,0.363771 0.853468,0.839458 0,0.461758 -0.384785,0.846543 -0.853468,0.846543 -0.447748,0 -0.846542,-0.384785 -0.846542,-0.846543 z m 0.874482,5.63884 c -0.881487,0 -1.707015,-0.195895 -2.44164,-0.552661 l 1.937933,-3.176185 c 0.209904,0.04195 0.349841,0.05596 0.468762,0.05596 0.832533,0 1.52513,-0.503707 1.867886,-1.427222 h 3.714916 c -0.265784,2.875378 -2.588501,5.100109 -5.547857,5.100108 z"
       id="path136"
       class="ColorScheme-Text"
       fill="currentColor" />
    <rect
       style="opacity:0.65;fill:none;fill-rule:evenodd;stroke-width:2.53018;stroke-linecap:round;stroke-linejoin:round;paint-order:stroke fill markers;stop-color:#000000"
       id="rect251"
       width="16"
       height="16"
       x="-23.786772"
       y="32.855907" />
  </g>
  <g
     id="22-22-configure">
    <path
       d="M 0,10 V 32 H 22 V 10 Z"
       fill="none"
       id="path404" />
    <path
       d="m 11.003499,27.915634 c 0.167876,0 0.328827,-0.01401 0.503707,-0.02802 l 0.39179,0.74155 c 0.08398,0.18897 0.272867,0.279873 0.489697,0.251933 0.202899,-0.03502 0.342835,-0.18889 0.370854,-0.398794 l 0.118922,-0.832533 c 0.328826,-0.08398 0.650648,-0.209904 0.95846,-0.342836 l 0.615623,0.55274 c 0.146941,0.146862 0.349841,0.167876 0.552661,0.06296 0.17496,-0.104992 0.244928,-0.293882 0.209904,-0.503787 l -0.17488,-0.811518 c 0.272867,-0.195895 0.53865,-0.412724 0.790583,-0.650648 l 0.755559,0.314817 c 0.2029,0.08398 0.39179,0.03502 0.545656,-0.139857 0.125928,-0.14694 0.146941,-0.356845 0.03502,-0.53873 l -0.440743,-0.706606 c 0.18889,-0.272868 0.349761,-0.573675 0.496701,-0.888491 l 0.839538,0.04195 c 0.20282,0.01401 0.384785,-0.104913 0.454754,-0.300807 0.06989,-0.195895 0,-0.398795 -0.160952,-0.524721 l -0.650647,-0.517717 c 0.08398,-0.321821 0.146942,-0.657572 0.17488,-1.007413 l 0.790585,-0.251853 c 0.202898,-0.06997 0.328826,-0.230839 0.328826,-0.440743 0,-0.209905 -0.125928,-0.370776 -0.328826,-0.440744 l -0.790585,-0.251853 c -0.02794,-0.34984 -0.09791,-0.678667 -0.17488,-1.007493 l 0.650647,-0.517636 c 0.160952,-0.119002 0.223914,-0.314897 0.160952,-0.510791 -0.06997,-0.20282 -0.251934,-0.321782 -0.454754,-0.307788 l -0.839538,0.02799 c -0.14694,-0.307828 -0.307811,-0.601662 -0.496701,-0.88151 l 0.440743,-0.713595 c 0.104913,-0.167908 0.0909,-0.377788 -0.03502,-0.524705 -0.153866,-0.174905 -0.342756,-0.223874 -0.545656,-0.139921 l -0.762563,0.307828 c -0.24493,-0.230871 -0.510712,-0.454745 -0.783579,-0.643643 l 0.17488,-0.811542 c 0.03502,-0.216877 -0.03494,-0.405767 -0.216829,-0.503715 -0.195895,-0.104944 -0.398795,-0.09095 -0.545736,0.06296 l -0.615623,0.545695 c -0.307812,-0.13992 -0.629634,-0.251861 -0.95846,-0.342812 l -0.118922,-0.81854 c -0.02802,-0.20988 -0.167955,-0.363794 -0.370854,-0.405767 -0.21683,-0.02799 -0.398715,0.06296 -0.489697,0.237868 l -0.39179,0.74858 c -0.17488,-0.01399 -0.335831,-0.02099 -0.503707,-0.02099 -0.181885,0 -0.342835,0.007 -0.517716,0.02099 l -0.391789,-0.74858 c -0.0839,-0.174905 -0.2728685,-0.265855 -0.4896975,-0.230871 -0.2029,0.03498 -0.342836,0.18889 -0.370775,0.39877 l -0.118922,0.81854 c -0.321822,0.09095 -0.643643,0.202892 -0.95846,0.342812 l -0.608698,-0.545695 c -0.153914,-0.146917 -0.356798,-0.167908 -0.552685,-0.06296 -0.174904,0.09795 -0.251861,0.286838 -0.216877,0.503715 l 0.174897,0.811542 c -0.272844,0.188898 -0.538691,0.412772 -0.783556,0.643643 l -0.762572,-0.307828 c -0.195887,-0.08395 -0.391782,-0.03498 -0.538699,0.139921 -0.132923,0.146917 -0.146917,0.356797 -0.04197,0.524705 l 0.447748,0.713595 c -0.188898,0.279848 -0.349808,0.573682 -0.503714,0.88151 l -0.832533,-0.02799 c -0.20988,-0.01399 -0.391782,0.104968 -0.454745,0.307788 -0.06996,0.195894 -0.01399,0.391789 0.153914,0.510791 l 0.657628,0.517636 c -0.08395,0.328826 -0.153913,0.657653 -0.174904,1.007493 l -0.790552,0.251853 c -0.20988,0.06997 -0.328818,0.223835 -0.328818,0.440744 0,0.209904 0.118938,0.370775 0.328818,0.440743 l 0.790552,0.251853 c 0.02099,0.349841 0.09095,0.685592 0.174904,1.007413 l -0.650631,0.517717 c -0.167908,0.118921 -0.223874,0.321821 -0.160911,0.517716 0.06296,0.202899 0.244865,0.321821 0.454745,0.307812 l 0.832533,-0.04195 c 0.146917,0.314816 0.314816,0.615623 0.503714,0.888491 l -0.447748,0.713611 c -0.111941,0.17488 -0.09095,0.384785 0.04197,0.531725 0.146917,0.174881 0.342812,0.223835 0.538699,0.139857 l 0.762572,-0.314817 c 0.244865,0.237924 0.510712,0.454753 0.783556,0.650648 l -0.174897,0.811518 c -0.03498,0.209905 0.03498,0.398795 0.216877,0.503787 0.195887,0.104912 0.398771,0.0839 0.552685,-0.06296 l 0.608698,-0.55274 c 0.314817,0.132932 0.629633,0.258858 0.95846,0.349841 l 0.118922,0.825528 c 0.02794,0.209904 0.167875,0.36377 0.377779,0.398794 0.209825,0.02794 0.3987955,-0.06296 0.4826935,-0.244928 l 0.391788,-0.748555 c 0.174881,0.01401 0.335832,0.02802 0.517717,0.02802 z m 1.825937,-7.47186 c -0.342756,-0.902422 -1.042358,-1.392198 -1.867886,-1.392198 -0.118921,0 -0.244928,0.01401 -0.461757,0.06296 L 8.6108125,15.868383 c 0.720616,-0.335807 1.5252095,-0.524705 2.3856815,-0.524705 2.959356,0 5.282073,2.224746 5.547857,5.100093 z m -7.4017975,0.559744 c 0,-1.874969 0.860512,-3.519045 2.224747,-4.547464 l 1.902957,3.253174 c -0.370855,0.405799 -0.545735,0.853547 -0.545735,1.315225 0,0.440743 0.16095,0.860552 0.545735,1.287286 l -1.958924,3.197199 c -1.329258,-1.028427 -2.16878,-2.658469 -2.16878,-4.50542 z m 4.6943745,0.01393 c 0,-0.475687 0.398794,-0.839458 0.846542,-0.839458 0.468683,0 0.853467,0.363771 0.853467,0.839458 0,0.461758 -0.384785,0.846543 -0.853467,0.846543 -0.447749,0 -0.846542,-0.384785 -0.846542,-0.846543 z m 0.874482,5.63884 c -0.881487,0 -1.7070155,-0.195895 -2.4416405,-0.552661 l 1.9379335,-3.176185 c 0.209904,0.04195 0.349841,0.05596 0.468762,0.05596 0.832533,0 1.52513,-0.503707 1.867886,-1.427222 h 3.714915 c -0.265784,2.875378 -2.5885,5.100109 -5.547856,5.100108 z"
       id="path261"
       class="ColorScheme-Text"
       fill="currentColor" />
  </g>
  <g
     id="configure"
     transform="translate(-32.000001)">
    <path
       d="M 54,0 V 32.000001 H 86.000001 V 0 Z"
       fill="none"
       id="path273"
       style="stroke-width:1.45455" />
    <path
       d="m 70.004885,25.646376 c 0.234163,0 0.458669,-0.01955 0.702602,-0.03908 l 0.546494,1.034362 c 0.117135,0.263589 0.380613,0.390386 0.683061,0.351413 0.283017,-0.04884 0.478208,-0.263477 0.517291,-0.556263 l 0.16588,-1.161272 c 0.458667,-0.117134 0.907566,-0.292787 1.336922,-0.478209 l 0.858711,0.770998 c 0.204963,0.204852 0.487981,0.234164 0.770888,0.08783 0.244045,-0.146451 0.34164,-0.409926 0.292786,-0.702716 l -0.243933,-1.131957 c 0.380613,-0.273247 0.751343,-0.575694 1.102757,-0.907566 l 1.053901,0.439128 c 0.283018,0.117134 0.546494,0.04884 0.761117,-0.195082 0.175652,-0.204962 0.204963,-0.49775 0.04884,-0.751455 l -0.614777,-0.98562 c 0.263476,-0.380614 0.487869,-0.8002 0.69283,-1.239326 l 1.171042,0.05852 c 0.282906,0.01953 0.536723,-0.146339 0.63432,-0.419586 0.09748,-0.273246 0,-0.556264 -0.224506,-0.731914 l -0.907564,-0.722145 c 0.117135,-0.448896 0.204965,-0.917224 0.243933,-1.405205 l 1.10276,-0.3513 c 0.283015,-0.0976 0.458667,-0.32199 0.458667,-0.614777 0,-0.29279 -0.175652,-0.517182 -0.458667,-0.614778 l -1.10276,-0.351302 c -0.03897,-0.487978 -0.136567,-0.946647 -0.243933,-1.405315 l 0.907564,-0.722033 c 0.224506,-0.165992 0.31233,-0.439238 0.224506,-0.712483 -0.0976,-0.282908 -0.351414,-0.448844 -0.63432,-0.429324 l -1.171042,0.03904 C 78.475302,11.369564 78.25091,10.959705 77.987433,10.569356 L 78.60221,9.5739869 C 78.748549,9.3397774 78.729003,9.047024 78.553366,8.8420945 78.338744,8.5981251 78.075267,8.5298211 77.792249,8.6469236 L 76.728578,9.0763025 C 76.386934,8.7542676 76.016204,8.4419941 75.635592,8.1785076 L 75.879525,7.0465163 C 75.928368,6.7440014 75.830783,6.4805265 75.577078,6.3439024 75.303832,6.1975184 75.020814,6.217037 74.815851,6.4317279 L 73.957139,7.1928988 C 73.527784,6.9977294 73.078885,6.8415868 72.620217,6.7147228 L 72.454338,5.5729701 c -0.03908,-0.2927535 -0.234275,-0.507443 -0.517292,-0.5659899 -0.302448,-0.03904 -0.556153,0.087825 -0.68306,0.3317935 L 70.707491,6.382941 c -0.243933,-0.01952 -0.468439,-0.02928 -0.702602,-0.02928 -0.253706,0 -0.478209,0.00975 -0.722144,0.02928 L 68.736248,5.3387679 C 68.619219,5.0947984 68.355633,4.9679359 68.053186,5.0167344 67.770168,5.0655274 67.574976,5.2802108 67.536005,5.5729642 L 67.370125,6.714717 C 66.921227,6.8415796 66.47233,6.9977236 66.033203,7.192893 L 65.184152,6.4317221 C 64.969463,6.2267926 64.686467,6.1975141 64.413231,6.3438961 64.169264,6.4805216 64.061919,6.7439951 64.110717,7.04651 l 0.243958,1.1319913 c -0.380581,0.2634865 -0.751401,0.57576 -1.092955,0.8977949 L 62.198035,8.6469236 C 61.9248,8.5298182 61.651553,8.5981236 61.446623,8.8420945 61.261214,9.047024 61.241694,9.3397774 61.388083,9.5739869 l 0.624548,0.9953691 c -0.263487,0.390349 -0.487935,0.800208 -0.702613,1.229587 l -1.161271,-0.03904 c -0.292754,-0.01952 -0.546483,0.146416 -0.634308,0.429323 -0.09758,0.273245 -0.01951,0.546492 0.21469,0.712483 l 0.917302,0.722034 c -0.117099,0.458667 -0.214688,0.917337 -0.243968,1.405315 L 59.29975,15.38036 c -0.292754,0.0976 -0.458656,0.312219 -0.458656,0.614778 0,0.292787 0.165902,0.517181 0.458656,0.614777 l 1.102713,0.3513 c 0.02928,0.487981 0.126863,0.956308 0.243968,1.405204 l -0.907543,0.722146 c -0.234208,0.165879 -0.312274,0.448897 -0.224449,0.722144 0.08782,0.283017 0.341554,0.448896 0.634308,0.429355 l 1.161271,-0.05852 c 0.204929,0.439126 0.439126,0.858711 0.702613,1.239325 l -0.624548,0.995391 c -0.156143,0.243934 -0.126863,0.536723 0.05854,0.741684 0.20493,0.243936 0.478177,0.31222 0.751413,0.195082 l 1.063684,-0.439127 c 0.341554,0.331872 0.712374,0.634319 1.092955,0.907565 l -0.243958,1.131958 c -0.04879,0.29279 0.04879,0.556265 0.302514,0.702716 0.273236,0.146337 0.556232,0.117032 0.770921,-0.08783 l 0.849051,-0.770995 c 0.439127,0.185423 0.878253,0.361072 1.336922,0.487981 l 0.16588,1.1515 c 0.03897,0.292787 0.234163,0.50741 0.526951,0.556263 0.292677,0.03897 0.556265,-0.08782 0.673292,-0.34164 l 0.546491,-1.044134 c 0.243935,0.01955 0.468439,0.03908 0.722146,0.03908 z m 2.546934,-10.422233 c -0.478098,-1.258757 -1.453948,-1.941928 -2.605448,-1.941928 -0.165879,0 -0.341642,0.01955 -0.644089,0.08783 L 66.66741,8.8420916 c 1.005162,-0.4684058 2.127461,-0.7318924 3.327703,-0.7318924 4.127901,0 7.367776,3.1032188 7.738509,7.1139388 z m -10.324505,0.780766 c 0,-2.615328 1.200297,-4.90859 3.10322,-6.3430952 l 2.654368,4.5377372 c -0.517293,0.566035 -0.761227,1.190582 -0.761227,1.83456 0,0.614777 0.224504,1.200353 0.761227,1.79559 l -2.732434,4.45966 c -1.854135,-1.434517 -3.025154,-3.708204 -3.025154,-6.284452 z m 6.548016,0.01943 c 0,-0.66352 0.556264,-1.170931 1.180811,-1.170931 0.65375,0 1.190472,0.507411 1.190472,1.170931 0,0.644089 -0.536723,1.180812 -1.190472,1.180812 -0.624548,0 -1.180811,-0.536723 -1.180811,-1.180812 z m 1.219784,7.865417 c -1.229555,0 -2.381055,-0.273246 -3.405757,-0.770886 l 2.703154,-4.430349 c 0.292788,0.05852 0.487981,0.07805 0.65386,0.07805 1.16127,0 2.12735,-0.702602 2.605448,-1.990781 h 5.181803 c -0.370733,4.010764 -3.610606,7.113961 -7.738508,7.113959 z"
       id="path275"
       class="ColorScheme-Text"
       fill="currentColor"
       style="stroke-width:1.39486" />
  </g>
</svg>
