<?xml version="1.0" encoding="UTF-8" standalone="no"?>
<svg
   version="1.1"
   viewBox="0 0 54 32"
   id="svg80"
   sodipodi:docname="configure.svg"
   inkscape:version="1.1.2 (0a00cf5339, 2022-02-04, custom)"
   xmlns:inkscape="http://www.inkscape.org/namespaces/inkscape"
   xmlns:sodipodi="http://sodipodi.sourceforge.net/DTD/sodipodi-0.dtd"
   xmlns="http://www.w3.org/2000/svg"
   xmlns:svg="http://www.w3.org/2000/svg">
  <sodipodi:namedview
     id="namedview82"
     pagecolor="#ffffff"
     bordercolor="#666666"
     borderopacity="1.0"
     inkscape:pageshadow="2"
     inkscape:pageopacity="0.0"
     inkscape:pagecheckerboard="0"
     showgrid="false"
     inkscape:zoom="8.671875"
     inkscape:cx="12.684685"
     inkscape:cy="38.976577"
     inkscape:window-width="1920"
     inkscape:window-height="1004"
     inkscape:window-x="0"
     inkscape:window-y="0"
     inkscape:window-maximized="1"
     inkscape:current-layer="svg80" />
  <defs
     id="defs3">
    <style
       id="current-color-scheme"
       type="text/css">.ColorScheme-Text { color:#363636; }</style>
  </defs>
  <g
     id="22-22-configure">
    <rect
       id="rect2316"
       width="22"
       height="22"
       x="0"
       y="10"
       rx="0"
       ry="0"
       style="fill:none" />
    <path
       id="path947"
       d="M 10.974609,12 C 10.709695,12.013342 10.5,12.231656 10.5,12.5 v 0.535156 a 8,8 0 0 0 -3.0507812,0.8125 l -0.265625,-0.458984 c -0.06925,-0.119945 -0.181233,-0.199342 -0.3046876,-0.232422 -0.0014,-3.75e-4 -0.0025,-0.0016 -0.00391,-0.002 -0.00258,-6.68e-4 -0.00522,-0.0013 -0.00781,-0.002 -0.00386,-9.31e-4 -0.00784,-0.0011 -0.011719,-0.002 -0.077466,-0.01683 -0.1593361,-0.0159 -0.2382813,0.0059 0,0 -0.00195,0 -0.00195,0 -0.00195,5.37e-4 -0.00391,0.0014 -0.00586,0.002 -0.037273,0.01104 -0.074162,0.02655 -0.109375,0.04687 -0.026052,0.01504 -0.050026,0.03212 -0.072266,0.05078 -0.00317,0.0027 -0.00668,0.007 -0.00977,0.0098 -0.0021,0.0019 -0.0038,0.004 -0.00586,0.0059 -0.019969,0.01827 -0.038246,0.03777 -0.054687,0.05859 -0.0017,0.0022 -0.0042,0.0037 -0.00586,0.0059 0,0 0,0.002 0,0.002 -0.0014,0.0019 -0.00253,0.004 -0.00391,0.0059 -0.070764,0.09614 -0.1047066,0.213336 -0.095703,0.332031 0.00114,0.01506 0.00332,0.02991 0.00586,0.04492 0.00964,0.05759 0.027595,0.114277 0.058594,0.167969 L 6.578125,14.341797 A 8,8 0 0 0 4.3417969,16.578125 L 3.8886719,16.316406 C 3.6487828,16.177906 3.3435781,16.260111 3.2050781,16.5 c -0.1385,0.239889 -0.056295,0.545094 0.1835938,0.683594 l 0.4589843,0.265625 A 8,8 0 0 0 3.0351562,20.5 H 2.5 C 2.223,20.5 2,20.723 2,21 c 0,0.277 0.223,0.5 0.5,0.5 h 0.5351562 a 8,8 0 0 0 0.8125,3.050781 L 3.3886719,24.816406 C 3.1487828,24.954906 3.0665781,25.260111 3.2050781,25.5 c 0.1385,0.239889 0.4437047,0.322094 0.6835938,0.183594 l 0.453125,-0.261719 a 8,8 0 0 0 2.2363281,2.236328 l -0.2617188,0.453125 c -0.030999,0.05369 -0.048955,0.11038 -0.058594,0.167969 -0.00298,0.01764 -0.0048,0.03504 -0.00586,0.05273 -0.00705,0.118274 0.02769,0.235127 0.099609,0.330078 0,0 0,0.002 0,0.002 0.00166,0.0022 0.00416,0.0037 0.00586,0.0059 0.018102,0.02293 0.038178,0.04466 0.060547,0.06445 0,0 0,0.002 0,0.002 0.00309,0.0027 0.0066,0.0051 0.00977,0.0078 0.022239,0.01866 0.046214,0.03574 0.072266,0.05078 0.052476,0.0303 0.107808,0.04872 0.1640625,0.05859 0.018844,0.0033 0.037728,0.0047 0.056641,0.0059 0.00539,3.22e-4 0.010236,0.0018 0.015625,0.002 0.016452,4.6e-4 0.032493,0.0012 0.048828,0 0.023998,-0.0017 0.046889,-0.0066 0.070313,-0.01172 0.015813,-0.0034 0.031468,-0.0068 0.046875,-0.01172 0.053269,-0.01705 0.1050802,-0.04381 0.1503906,-0.07813 0.025401,-0.01937 0.048629,-0.0419 0.070312,-0.06641 0,0 0.00195,0 0.00195,0 0.00547,-0.0062 0.010428,-0.01304 0.015625,-0.01953 0.015714,-0.01966 0.029984,-0.04001 0.042969,-0.0625 l 0.265625,-0.458984 A 8,8 0 0 0 10.5,28.964844 V 29.5 c 0,0.277 0.223,0.5 0.5,0.5 0.277,0 0.5,-0.223 0.5,-0.5 v -0.535156 a 8,8 0 0 0 3.050781,-0.8125 l 0.265625,0.458984 c 0.1385,0.239889 0.443705,0.322094 0.683594,0.183594 0.239889,-0.1385 0.322094,-0.443705 0.183594,-0.683594 l -0.261719,-0.453125 a 8,8 0 0 0 2.236328,-2.236328 l 0.453125,0.261719 c 0.239889,0.1385 0.545094,0.0563 0.683594,-0.183594 0.1385,-0.239889 0.05629,-0.545094 -0.183594,-0.683594 L 18.152344,24.550781 A 8,8 0 0 0 18.964844,21.5 H 19.5 c 0.277,0 0.5,-0.223 0.5,-0.5 0,-0.277 -0.223,-0.5 -0.5,-0.5 h -0.517578 a 8,8 0 0 0 -0.820313,-3.056641 l 0.449219,-0.259765 c 0.239889,-0.1385 0.322094,-0.443705 0.183594,-0.683594 -0.1385,-0.239889 -0.443705,-0.322094 -0.683594,-0.183594 l -0.447266,0.257813 a 8,8 0 0 0 -2.238281,-2.238281 l 0.257813,-0.447266 c 0.1385,-0.239889 0.0563,-0.545094 -0.183594,-0.683594 -0.239889,-0.1385 -0.545094,-0.0563 -0.683594,0.183594 l -0.259765,0.449219 A 8,8 0 0 0 11.5,13.017578 V 12.5 C 11.5,12.223 11.277,12 11,12 c -0.0087,0 -0.01685,-4.3e-4 -0.02539,0 z M 11,14 a 7,7 0 0 1 6.980469,6.5 H 12.935547 A 2,2 0 0 0 11,19 2,2 0 0 0 10.466797,19.074219 L 7.9472656,14.710938 A 7,7 0 0 1 11,14 Z m -3.9179688,1.214844 2.5175782,4.361328 A 2,2 0 0 0 9,21 2,2 0 0 0 9.5996094,22.423828 L 7.0820312,26.785156 A 7,7 0 0 1 4,21 7,7 0 0 1 7.0820312,15.214844 Z m 2.9472658,4.042968 a 2,2 0 0 0 -0.042969,0.02344 2,2 0 0 1 0.042969,-0.02344 z M 11,20 a 1,1 0 0 1 1,1 1,1 0 0 1 -1,1 1,1 0 0 1 -1,-1 1,1 0 0 1 1,-1 z m 1.933594,1.5 h 5.027344 A 7,7 0 0 1 11,28 7,7 0 0 1 7.9472656,27.289062 L 10.466797,22.925781 A 2,2 0 0 0 11,23 2,2 0 0 0 12.933594,21.5 Z m -2.9472659,1.21875 a 2,2 0 0 0 0.042969,0.02344 2,2 0 0 1 -0.042969,-0.02344 z"
       class="ColorScheme-Text"
       fill="currentColor" />
  </g>
  <g
     id="16-16-configure"
     transform="translate(3.6281 1.6279)">
    <path
       d="m-20.628 11.372v16h16v-16z"
       fill="none"
       stroke-width=".72727"
       id="path75" />
    <path
       class="ColorScheme-Text"
       d="m-14.501 11.632c-0.06435-0.0089-0.13038-0.0043-0.19727 0.01367-0.26756 0.07169-0.42521 0.34377-0.35352 0.61133l0.13672 0.50977a7 7 0 0 0-1.1719 0.5293c-0.01347 0.0063-0.0279 0.0061-0.04102 0.01367-0.01342 0.0078-0.02079 0.02055-0.0332 0.0293a7 7 0 0 0-1.0449 0.74805l-0.37109-0.37109c-0.19587-0.19587-0.51116-0.19587-0.70703 0s-0.19587 0.51116 0 0.70703l0.36914 0.36914a7 7 0 0 0-0.77539 1.0801 7 7 0 0 0-0.54883 1.2109l-0.50391-0.13477c-0.26756-0.07169-0.53964 0.08595-0.61133 0.35352s0.08595 0.53964 0.35352 0.61133l0.50586 0.13672a7 7 0 0 0-2e-3 2.6465l-0.50391 0.13477c-0.26756 0.07169-0.42521 0.34377-0.35352 0.61133s0.34377 0.42521 0.61133 0.35352l0.50977-0.13672a7 7 0 0 0 1.3203 2.291l-0.37109 0.37109c-0.19587 0.19587-0.19587 0.51116 0 0.70703s0.51116 0.19587 0.70703 0l0.36914-0.36914a7 7 0 0 0 1.0801 0.77539 7 7 0 0 0 1.2109 0.54883l-0.13477 0.50391c-0.07169 0.26756 0.08595 0.53964 0.35352 0.61133 0.26756 0.07169 0.53964-0.08595 0.61133-0.35352l0.13672-0.50586a7 7 0 0 0 2.6465 2e-3l0.13477 0.50391c0.07169 0.26756 0.34377 0.42521 0.61133 0.35352s0.42521-0.34377 0.35352-0.61133l-0.13672-0.50976a7 7 0 0 0 2.291-1.3203l0.37109 0.37109c0.19587 0.19587 0.51116 0.19587 0.70703 0s0.19587-0.51116 0-0.70703l-0.36914-0.36914a7 7 0 0 0 0.77539-1.0801 7 7 0 0 0 0.54883-1.2109l0.50391 0.13477c0.26756 0.07169 0.53964-0.08595 0.61133-0.35352 0.07169-0.26756-0.08595-0.53963-0.35352-0.61133l-0.50586-0.13672a7 7 0 0 0 0.12695-1.2949c5.42e-4 -0.0096 0.0059-0.01762 0.0059-0.02734 0-0.01252-0.0069-0.02287-0.0078-0.03516a7 7 0 0 0-0.12305-1.2891l0.50391-0.13477c0.26756-0.07169 0.42521-0.34377 0.35352-0.61133s-0.34377-0.42521-0.61133-0.35352l-0.50976 0.13672a7 7 0 0 0-1.3203-2.291l0.37109-0.37109c0.19587-0.19587 0.19587-0.51116 0-0.70703s-0.51116-0.19587-0.70703 0l-0.36914 0.36914a7 7 0 0 0-1.0801-0.77539 7 7 0 0 0-1.2109-0.54883l0.13477-0.50391c0.07169-0.26756-0.08595-0.53964-0.35352-0.61133-0.26762-0.07174-0.53969 0.08591-0.61139 0.35347l-0.13672 0.50586a7 7 0 0 0-2.6465-2e-3l-0.13477-0.50391c-0.05377-0.20067-0.22101-0.34054-0.41406-0.36719zm1.5898 1.7461a6 6 0 0 1 3.2832 0.79883 6 6 0 0 1 2.9727 4.6953h-4.0391a2 2 0 0 0-1.9336-1.5 2 2 0 0 0-0.5332 0.07422l-2.0215-3.5a6 6 0 0 1 2.2715-0.56836zm-3.1367 1.0723 2.0195 3.4961a2 2 0 0 0-0.59961 1.4258 2 2 0 0 0 0.59766 1.4258l-2.0195 3.498a6 6 0 0 1-1.7734-7.9238 6 6 0 0 1 1.7754-1.9219zm3.4199 3.9219a1 1 0 0 1 1 1 1 1 0 0 1-1 1 1 1 0 0 1-1-1 1 1 0 0 1 1-1zm1.9355 1.5h4.0371a6 6 0 0 1-0.77734 2.5 6 6 0 0 1-7.75 2.4238l2.0195-3.4961a2 2 0 0 0 0.53516 0.07227 2 2 0 0 0 1.9355-1.5z"
       fill="currentColor"
       id="path77" />
  </g>
  <g
     id="configure"
     transform="matrix(2,0,0,2,63.256,-22.744)">
    <path
       d="m -20.628,11.372 v 16 h 16 v -16 z"
       fill="none"
       stroke-width="0.72727"
       id="path940" />
    <path
       class="ColorScheme-Text"
       d="m -14.501,11.632 c -0.06435,-0.0089 -0.13038,-0.0043 -0.19727,0.01367 -0.26756,0.07169 -0.42521,0.34377 -0.35352,0.61133 l 0.13672,0.50977 a 7,7 0 0 0 -1.1719,0.5293 c -0.01347,0.0063 -0.0279,0.0061 -0.04102,0.01367 -0.01342,0.0078 -0.02079,0.02055 -0.0332,0.0293 a 7,7 0 0 0 -1.0449,0.74805 L -17.57718,13.716 c -0.19587,-0.19587 -0.51116,-0.19587 -0.70703,0 -0.19587,0.19587 -0.19587,0.51116 0,0.70703 l 0.36914,0.36914 a 7,7 0 0 0 -0.77539,1.0801 7,7 0 0 0 -0.54883,1.2109 L -19.7432,16.9484 c -0.26756,-0.07169 -0.53964,0.08595 -0.61133,0.35352 -0.07169,0.26757 0.08595,0.53964 0.35352,0.61133 l 0.50586,0.13672 a 7,7 0 0 0 -0.002,2.6465 l -0.50391,0.13477 c -0.26756,0.07169 -0.42521,0.34377 -0.35352,0.61133 0.07169,0.26756 0.34377,0.42521 0.61133,0.35352 l 0.50977,-0.13672 a 7,7 0 0 0 1.3203,2.291 l -0.37109,0.37109 c -0.19587,0.19587 -0.19587,0.51116 0,0.70703 0.19587,0.19587 0.51116,0.19587 0.70703,0 l 0.36914,-0.36914 a 7,7 0 0 0 1.0801,0.77539 7,7 0 0 0 1.2109,0.54883 l -0.13477,0.50391 c -0.07169,0.26756 0.08595,0.53964 0.35352,0.61133 0.26756,0.07169 0.53964,-0.08595 0.61133,-0.35352 l 0.13672,-0.50586 a 7,7 0 0 0 2.6465,0.002 l 0.13477,0.50391 c 0.07169,0.26756 0.34377,0.42521 0.61133,0.35352 0.26756,-0.07169 0.42521,-0.34377 0.35352,-0.61133 l -0.13672,-0.50976 a 7,7 0 0 0 2.291,-1.3203 l 0.37109,0.37109 c 0.19587,0.19587 0.51116,0.19587 0.70703,0 0.19587,-0.19587 0.19587,-0.51116 0,-0.70703 l -0.36914,-0.36914 a 7,7 0 0 0 0.77539,-1.0801 7,7 0 0 0 0.54883,-1.2109 l 0.50391,0.13477 c 0.26756,0.07169 0.53964,-0.08595 0.61133,-0.35352 0.07169,-0.26756 -0.08595,-0.53963 -0.35352,-0.61133 l -0.50586,-0.13672 a 7,7 0 0 0 0.12695,-1.2949 c 5.42e-4,-0.0096 0.0059,-0.01762 0.0059,-0.02734 0,-0.01252 -0.0069,-0.02287 -0.0078,-0.03516 a 7,7 0 0 0 -0.12305,-1.2891 l 0.50391,-0.13477 c 0.26756,-0.07169 0.42521,-0.34377 0.35352,-0.61133 -0.07169,-0.26756 -0.34377,-0.42521 -0.61133,-0.35352 l -0.50976,0.13672 a 7,7 0 0 0 -1.3203,-2.291 l 0.37109,-0.37109 c 0.19587,-0.19587 0.19587,-0.51116 0,-0.70703 -0.19587,-0.19587 -0.51116,-0.19587 -0.70703,0 l -0.36914,0.36914 a 7,7 0 0 0 -1.0801,-0.77539 7,7 0 0 0 -1.2109,-0.54883 l 0.13477,-0.50391 c 0.07169,-0.26756 -0.08595,-0.53964 -0.35352,-0.61133 -0.26762,-0.07174 -0.53969,0.08591 -0.61139,0.35347 l -0.13672,0.50586 a 7,7 0 0 0 -2.6465,-0.002 l -0.13477,-0.50391 c -0.05377,-0.20067 -0.22101,-0.34054 -0.41406,-0.36719 z m 1.5898,1.7461 a 6,6 0 0 1 3.2832,0.79883 6,6 0 0 1 2.9727,4.6953 h -4.0391 a 2,2 0 0 0 -1.9336,-1.5 2,2 0 0 0 -0.5332,0.07422 l -2.0215,-3.5 a 6,6 0 0 1 2.2715,-0.56836 z m -3.1367,1.0723 2.0195,3.4961 a 2,2 0 0 0 -0.59961,1.4258 2,2 0 0 0 0.59766,1.4258 l -2.0195,3.498 a 6,6 0 0 1 -1.7734,-7.9238 6,6 0 0 1 1.7754,-1.9219 z m 3.4199,3.9219 a 1,1 0 0 1 1,1 1,1 0 0 1 -1,1 1,1 0 0 1 -1,-1 1,1 0 0 1 1,-1 z m 1.9355,1.5 h 4.0371 a 6,6 0 0 1 -0.77734,2.5 6,6 0 0 1 -7.75,2.4238 l 2.0195,-3.4961 a 2,2 0 0 0 0.53516,0.07227 2,2 0 0 0 1.9355,-1.5 z"
       fill="currentColor"
       id="path942" />
  </g>
</svg>
