<?xml version="1.0" encoding="UTF-8" standalone="no"?>
<svg
   xmlns:dc="http://purl.org/dc/elements/1.1/"
   xmlns:cc="http://creativecommons.org/ns#"
   xmlns:rdf="http://www.w3.org/1999/02/22-rdf-syntax-ns#"
   xmlns:svg="http://www.w3.org/2000/svg"
   xmlns="http://www.w3.org/2000/svg"
   id="svg17"
   viewBox="0 0 54 32"
   version="1.1">
  <metadata
     id="metadata19">
    <rdf:RDF>
      <cc:Work
         rdf:about="">
        <dc:format>image/svg+xml</dc:format>
        <dc:type
           rdf:resource="http://purl.org/dc/dcmitype/StillImage" />
        <dc:title></dc:title>
      </cc:Work>
    </rdf:RDF>
  </metadata>
  <defs
     id="defs5">
    <style
       type="text/css"
       id="current-color-scheme"> .ColorScheme-Text { color:#363636; } </style>
  </defs>
  <g
     id="22-22-configure">
    <path
       id="path7"
       fill="currentColor"
       class="ColorScheme-Text"
       d="m10.379 11.697c-0.50331 0-0.9082 0.40491-0.9082 0.9082v1.8008c-0.48831 0.14148-0.95908 0.33892-1.4023 0.58789l-1.2754-1.2793c-0.35589-0.35589-0.92926-0.35589-1.2852 0l-1.2852 1.2852c-0.35589 0.35589-0.35589 0.92926 0 1.2852l1.2715 1.2734c-0.24582 0.44507-0.44013 0.9169-0.57812 1.4062h-1.8047c-0.50331 0-0.9082 0.40487-0.9082 0.9082v1.8164c0 0.50333 0.4049 0.9082 0.9082 0.9082h1.8008c0.14148 0.48832 0.33892 0.95908 0.58789 1.4023l-1.2773 1.2773c-0.35589 0.35589-0.35589 0.92927 0 1.2852l1.2852 1.2832c0.35589 0.35589 0.92926 0.35589 1.2852 0l1.2715-1.2715c0.445 0.24631 0.91683 0.44163 1.4062 0.58008v1.8027c0 0.50329 0.4049 0.9082 0.9082 0.9082h1.8164c0.50331 0 0.91016-0.40491 0.91016-0.9082v-1.8008c0.48831-0.14148 0.95712-0.33892 1.4004-0.58789l1.2793 1.2773c0.35589 0.35589 0.92731 0.35589 1.2832 0l1.2852-1.2832c0.35589-0.35589 0.35589-0.92927 0-1.2852l-1.2715-1.2715c0.24641-0.44546 0.43978-0.9183 0.57812-1.4082h1.8047c0.50331 0 0.9082-0.40487 0.9082-0.9082v-1.8164c0-0.50333-0.4049-0.9082-0.9082-0.9082h-1.8027c-0.14148-0.48831-0.33697-0.95908-0.58594-1.4023l1.2773-1.2773c0.35589-0.35589 0.35589-0.92926 0-1.2852l-1.2852-1.2852c-0.35589-0.35589-0.92731-0.35589-1.2832 0l-1.2734 1.2734c-0.44552-0.24592-0.9164-0.44023-1.4062-0.57812v-1.8047c0-0.50329-0.40685-0.9082-0.91016-0.9082zm0.9082 5.2676c2.1079-1.47e-4 3.8166 1.7085 3.8164 3.8164 1.47e-4 2.1079-1.7085 3.8166-3.8164 3.8164-2.1079 1.48e-4 -3.8166-1.7085-3.8164-3.8164-1.475e-4 -2.1079 1.7085-3.8166 3.8164-3.8164z" />
    <path
       id="path9"
       fill="none"
       d="m0 10v22h22v-22h-22z" />
  </g>
  <g
     id="configure">
    <path
       id="path12"
       fill="currentColor"
       class="ColorScheme-Text"
       d="m37.664 4.8008c-0.68924 0-1.2441 0.55492-1.2441 1.2441v2.4648c-0.6687 0.19375-1.3129 0.46375-1.9199 0.80469l-1.748-1.75c-0.48736-0.48736-1.2724-0.48736-1.7598 0l-1.7598 1.7598c-0.48736 0.48736-0.48736 1.2724 0 1.7598l1.7422 1.7422c-0.33663 0.60948-0.60204 1.2557-0.79102 1.9258h-2.4727c-0.68924 0-1.2441 0.55488-1.2441 1.2441v2.4883c0 0.68926 0.5549 1.2441 1.2441 1.2441h2.4668c0.19375 0.6687 0.46375 1.3129 0.80469 1.9199l-1.75 1.75c-0.48736 0.48736-0.48736 1.2705 0 1.7578l1.7598 1.7598c0.48736 0.48736 1.2724 0.48736 1.7598 0l1.7422-1.7422c0.60939 0.3373 1.2556 0.60337 1.9258 0.79297v2.4707c0 0.68922 0.5549 1.2441 1.2441 1.2441h2.4883c0.68924 0 1.2441-0.55492 1.2441-1.2441v-2.4668c0.6687-0.19375 1.3129-0.46375 1.9199-0.80469l1.75 1.75c0.48736 0.48736 1.2704 0.48736 1.7578 0l1.7598-1.7598c0.48736-0.48736 0.48736-1.2705 0-1.7578l-1.7422-1.7422c0.33744-0.61001 0.60352-1.2568 0.79297-1.9277h2.4707c0.68924 0 1.2441-0.55488 1.2441-1.2441v-2.4883c0-0.68926-0.5549-1.2441-1.2441-1.2441h-2.4668c-0.19375-0.6687-0.46375-1.3129-0.80469-1.9199l1.75-1.748c0.48736-0.48736 0.48736-1.2724 0-1.7598l-1.7598-1.7598c-0.48736-0.48736-1.2704-0.48736-1.7578 0l-1.7422 1.7422c-0.6101-0.33677-1.2569-0.60218-1.9277-0.79102v-2.4707c0-0.68922-0.5549-1.2441-1.2441-1.2441zm1.2441 7.2129c2.8866-2.02e-4 5.2268 2.3399 5.2266 5.2266 2.02e-4 2.8866-2.3399 5.2268-5.2266 5.2266-2.8866 2.02e-4 -5.2268-2.3399-5.2266-5.2266-2.02e-4 -2.8866 2.3399-5.2268 5.2266-5.2266z" />
    <path
       id="path14"
       fill="none"
       d="m22 0v32h32v-32h-32z" />
  </g>
</svg>
