<?xml version="1.0" encoding="UTF-8" standalone="no"?>
<svg
   width="32"
   height="32"
   version="1.1"
   viewBox="0 0 32 32"
   id="svg3242"
   sodipodi:docname="device.svg"
   inkscape:version="1.2.2 (b0a8486541, 2022-12-01)"
   xmlns:inkscape="http://www.inkscape.org/namespaces/inkscape"
   xmlns:sodipodi="http://sodipodi.sourceforge.net/DTD/sodipodi-0.dtd"
   xmlns="http://www.w3.org/2000/svg"
   xmlns:svg="http://www.w3.org/2000/svg">
  <sodipodi:namedview
     id="namedview3244"
     pagecolor="#ffffff"
     bordercolor="#666666"
     borderopacity="1.0"
     inkscape:showpageshadow="2"
     inkscape:pageopacity="0.0"
     inkscape:pagecheckerboard="0"
     inkscape:deskcolor="#d1d1d1"
     showgrid="true"
     inkscape:zoom="16"
     inkscape:cx="17.3125"
     inkscape:cy="18.34375"
     inkscape:window-width="1920"
     inkscape:window-height="1014"
     inkscape:window-x="0"
     inkscape:window-y="32"
     inkscape:window-maximized="1"
     inkscape:current-layer="svg3242">
    <inkscape:grid
       type="xygrid"
       id="grid124" />
  </sodipodi:namedview>
  <defs
     id="defs3217">
    <style
       id="current-color-scheme"
       type="text/css">.ColorScheme-Text { color:#363636; }</style>
  </defs>
  <g
     id="16-16-device-notifier"
     class="ColorScheme-Text"
     transform="translate(-321.5,-529.36)"
     fill="currentColor">
    <rect
       x="393.5"
       y="537.36"
       width="16"
       height="16"
       ry="0"
       opacity="0"
       id="rect3226" />
    <g
       transform="translate(-19.5)"
       id="g3234">
      <path
         transform="translate(321,529.36)"
         d="m97 8c-0.55399 0-1 0.44601-1 1v3c-1.108 0-2 0.89201-2 2v4c0 3.324 2.676 6 6 6s6-2.676 6-6v-4c0-1.108-0.89201-2-2-2v-3c0-0.55399-0.44601-1-1-1zm1 1c0.55399 0 1 0.44601 1 1v1c0 0.55399-0.44601 1-1 1s-1-0.44601-1-1v-1c0-0.55399 0.44601-1 1-1zm4 0c0.55399 0 1 0.44601 1 1v1c0 0.55399-0.44601 1-1 1s-1-0.44601-1-1v-1c0-0.55399 0.44601-1 1-1zm-6 4h8c0.55399 0 1 0.44601 1 1v4a5 5 0 0 1-5 5 5 5 0 0 1-5-5v-4c0-0.55399 0.44601-1 1-1z"
         id="path3228" />
      <circle
         cx="421"
         cy="549.36"
         r="2"
         opacity=".25"
         id="circle3230" />
      <circle
         cx="421"
         cy="549.36"
         r="1"
         id="circle3232" />
    </g>
  </g>
  <g
     fill="currentColor"
     class="ColorScheme-Text"
     transform="translate(-288.16232,-528.72159)"
     id="22-22-device-notifier">
    <rect
       id="rect7"
       stroke-width="1.76"
       opacity="0"
       height="22"
       width="22"
       y="534.35999"
       x="326.01999" />
    <path
       id="path15"
       d="m 332,537.36 c -1.5802,0 -2.8538,1.2141 -2.9766,2.7617 l -1.9785,9.7969 c -0.0215,0.14534 -0.0449,0.28993 -0.0449,0.44141 0,1.662 1.338,3 3,3 h 14 c 1.662,0 3,-1.338 3,-3 0,-0.15148 -0.0234,-0.29607 -0.0449,-0.44141 l -1.9785,-9.7969 C 344.85378,538.5741 343.5803,537.36 342,537.36 Z m 0,2 h 10 c 0.46959,0 0.84456,0.3267 0.95312,0.76172 l 1.502,7.2832 c -0.14957,-0.0227 -0.29895,-0.0449 -0.45508,-0.0449 h -14 c -0.15613,0 -0.30551,0.0222 -0.45508,0.0449 l 1.502,-7.2832 c 0.10857,-0.43502 0.48354,-0.76172 0.95312,-0.76172 z m 10.951,9 c 0.0163,-2e-4 0.0325,-2e-4 0.0488,0 1.1046,0 2,0.89543 2,2 0,1.10457 -0.89543,2 -2,2 -0.71397,-5.7e-4 -1.3735,-0.38169 -1.7305,-1 h -11.27 c -0.55398,0 -1,-0.44602 -1,-1 0,-0.55399 0.44602,-1 1,-1 h 11.27 c 0.34812,-0.60347 0.98518,-0.98231 1.6816,-1 z" />
    <circle
       id="circle17"
       opacity="0.35"
       r="1"
       cy="550.35999"
       cx="343" />
  </g>
  <g
     id="device-notifier"
     transform="translate(-0.02000793,-33.000023)">
    <rect
       id="rect599"
       stroke-width="2.56"
       opacity="0"
       height="32"
       width="32"
       y="33.000023"
       x="0.020007931"
       style="color:#363636;fill:#363636" />
    <path
       id="path601"
       class="ColorScheme-Text"
       d="M 9.2739142 38.000023 C 6.950336 38.000023 5.24318 39.744555 4.8032111 42.000023 L 2.1098517 55.568382 C 2.1111117 55.573582 2.1124079 55.578807 2.1137579 55.584007 C 2.0529531 55.879919 2.0200079 56.185593 2.0200079 56.500023 C 2.0200079 56.654754 2.0280184 56.80819 2.0434454 56.959007 L 2.0434454 56.96096 C 2.0588744 57.111114 2.0818408 57.258804 2.1118048 57.40432 C 2.1120587 57.40562 2.1115498 57.407026 2.1118048 57.408226 C 2.4702919 59.169018 3.8510121 60.549738 5.6118048 60.908226 C 5.6130448 60.908484 5.6144611 60.90797 5.6157111 60.908226 C 5.7612362 60.937726 5.9087212 60.961407 6.0590704 60.976585 L 6.0610236 60.976585 C 6.2120457 60.991725 6.3648548 61.000023 6.5200079 61.000023 L 25.520008 61.000023 C 25.830788 61.000023 26.134769 60.968916 26.428211 60.908226 C 28.189003 60.549738 29.569723 59.169018 29.928211 57.408226 C 29.928466 57.406926 29.927957 57.40552 29.928211 57.40432 C 29.958181 57.258804 29.98114 57.111114 29.99657 56.96096 L 29.99657 56.959007 C 30.012 56.808233 30.020008 56.654754 30.020008 56.500023 C 30.020008 56.193154 29.988144 55.894793 29.930164 55.605492 C 29.931664 55.593152 29.93297 55.580772 29.93407 55.568382 L 27.238758 42.000023 C 26.807587 39.799348 25.091633 38.000023 22.768055 38.000023 L 9.2739142 38.000023 z M 9.2739142 40.000023 L 22.768055 40.000023 C 23.981912 40.000023 24.969499 40.855955 25.199695 42.000023 L 27.254383 52.345726 C 26.72082 52.123742 26.135797 52.000023 25.520008 52.000023 L 6.5200079 52.000023 C 5.9048679 52.000023 5.3206967 52.124186 4.7875861 52.345726 L 6.8403204 42.000023 C 7.070517 40.855955 8.0600578 40.000023 9.2739142 40.000023 z M 6.5200079 54.000023 L 25.520008 54.000023 C 26.724038 54.000023 27.72261 54.842527 27.963367 55.972679 C 27.975297 56.028689 27.982441 56.086064 27.990711 56.142601 C 27.995511 56.176421 28.002876 56.209911 28.006336 56.244164 C 28.014836 56.328414 28.020008 56.413461 28.020008 56.500023 C 28.020008 56.673148 28.002417 56.842848 27.969227 57.005882 C 27.968971 57.007182 27.969484 57.008589 27.969227 57.009789 C 27.769125 57.984955 27.00494 58.74914 26.029774 58.949242 C 26.028474 58.949499 26.027067 58.948986 26.025867 58.949242 C 25.862824 58.982442 25.693133 59.000023 25.520008 59.000023 L 6.5200079 59.000023 C 6.3468838 59.000023 6.177185 58.982432 6.0141486 58.949242 C 6.0128886 58.948986 6.0115023 58.949499 6.0102423 58.949242 C 5.0350763 58.74914 4.2708906 57.984955 4.0707892 57.009789 C 4.0705396 57.008489 4.0710372 57.007082 4.0707892 57.005882 C 4.0375998 56.84284 4.0200079 56.673148 4.0200079 56.500023 C 4.0200079 56.413223 4.0247878 56.328747 4.0336798 56.244164 C 4.0371398 56.209914 4.0444888 56.176424 4.0493048 56.142601 C 4.0575748 56.086061 4.0647346 56.028687 4.0766486 55.972679 L 4.0766486 55.970726 C 4.3181147 54.841565 5.3166449 54.000023 6.5200079 54.000023 z "
       fill="currentColor" />
    <circle
       id="circle609"
       opacity="0.35"
       r="1.5"
       cy="56.5"
       cx="25.520008"
       class="ColorScheme-Text"
       fill="currentColor" />
  </g>
</svg>
