<?xml version="1.0" encoding="UTF-8" standalone="no"?>
<svg
   width="32"
   height="32"
   version="1.1"
   viewBox="0 0 32 32"
   id="svg28"
   sodipodi:docname="device.svg"
   inkscape:version="1.2.2 (b0a8486541, 2022-12-01)"
   xmlns:inkscape="http://www.inkscape.org/namespaces/inkscape"
   xmlns:sodipodi="http://sodipodi.sourceforge.net/DTD/sodipodi-0.dtd"
   xmlns="http://www.w3.org/2000/svg"
   xmlns:svg="http://www.w3.org/2000/svg">
  <sodipodi:namedview
     id="namedview30"
     pagecolor="#ffffff"
     bordercolor="#666666"
     borderopacity="1.0"
     inkscape:showpageshadow="2"
     inkscape:pageopacity="0.0"
     inkscape:pagecheckerboard="0"
     inkscape:deskcolor="#d1d1d1"
     showgrid="true"
     inkscape:zoom="16"
     inkscape:cx="25.5625"
     inkscape:cy="16.46875"
     inkscape:window-width="3840"
     inkscape:window-height="2028"
     inkscape:window-x="0"
     inkscape:window-y="64"
     inkscape:window-maximized="1"
     inkscape:current-layer="svg28">
    <inkscape:grid
       type="xygrid"
       id="grid1081"
       spacingx="0.5"
       spacingy="0.5"
       empspacing="2"
       color="#c500e5"
       opacity="0.14901961" />
  </sodipodi:namedview>
  <defs
     id="defs3">
    <style
       id="current-color-scheme"
       type="text/css">.ColorScheme-Text { color:#363636; }</style>
  </defs>
  <g
     id="22-22-device-notifier">
    <rect
       x="44"
       y="4.9999852"
       width="22"
       height="22"
       opacity="0"
       id="rect23"
       style="color:#363636;fill:#363636" />
    <path
       id="path190"
       d="m 51.351562,8.5 c -1.643518,0 -2.864263,0.764645 -3.470703,2.214844 L 44.875,17.66211 C 44.62012,18.251009 44.5,18.7705 44.5,19.5 c 0,2.364197 1.674807,4 4.214844,4 H 61.283203 C 63.8232,23.5 65.5,21.864197 65.5,19.5 c 0,-0.7119 -0.10351,-1.222635 -0.34961,-1.802734 L 62.126953,10.714844 C 61.511754,9.264645 60.291049,8.5 58.65625,8.5 Z m 0.01758,1.5 h 7.259766 c 0.913997,0 1.591825,0.396485 1.890625,1.152344 l 1.916012,4.533203 C 62.084045,15.571247 61.696302,15.5 61.283202,15.5 H 48.714844 c -0.41309,0 -0.791019,0.07125 -1.142579,0.185547 l 1.916016,-4.533203 C 49.787112,10.396485 50.463881,10 51.36914,10 Z m -2.654297,7 h 12.568359 c 1.581999,0 2.720701,1.102502 2.720701,2.5 0,1.546799 -1.138703,2.5 -2.720702,2.5 h -12.56836 c -1.582029,0 -2.710938,-1.093801 -2.710938,-2.5 0,-1.397499 1.128909,-2.5 2.710938,-2.5 z m 12.789063,1.5 c -0.552285,0 -1,0.447715 -1,1 0,0.552285 0.447715,1 1,1 0.552285,0 1,-0.447715 1,-1 0,-0.552285 -0.447715,-1 -1,-1 z"
       class="ColorScheme-Text"
       fill="currentColor" />
  </g>
  <g
     id="device-notifier">
    <rect
       x="0"
       y="-1.4648437e-05"
       width="32"
       height="32"
       fill-opacity="0"
       id="rect7"
       style="color:#363636;fill:#363636" />
    <path
       id="path1870"
       d="m 12.214847,7.0000005 c -2.016674,0 -3.760521,1.085441 -4.525391,2.919922 L 4.572269,18.033203 c -0.242504,0.562405 -0.479619,1.23458 -0.548828,2.005859 -0.01279,0.142485 -0.02344,0.286184 -0.02344,0.435547 0,0.0046 -2.1e-5,0.0091 0,0.01367 -1e-5,0.0039 0,0.0078 0,0.01172 0,0.129404 0.0089,0.25624 0.01953,0.382812 C 4.213186,23.194682 6.136411,25 8.5,25 h 15 c 2.363589,0 4.286814,-1.805318 4.480469,-4.117188 0.0106,-0.126571 0.01953,-0.253407 0.01953,-0.382812 0,-0.004 10e-6,-0.0078 0,-0.01172 2.1e-5,-0.0046 0,-0.0091 0,-0.01367 0,-0.929674 -0.262987,-1.735806 -0.544922,-2.402343 l -3.136719,-8.1562495 -0.002,-0.002 c -0.774763,-1.828971 -2.513137,-2.914016 -4.521433,-2.914016 z m 0,1.5 h 7.580078 c 1.540172,0 2.572094,0.651222 3.142578,1.9999995 l 2.181641,5.802734 C 24.616556,16.10968 24.07218,16 23.500003,16 h -15 C 7.932854,16 7.39347,16.108992 6.894534,16.298828 L 9.072269,10.5 l 0.002,-0.002 C 9.635754,9.1511855 10.664838,8.4999535 12.214894,8.4999535 Z M 8.500003,17.5 h 15 c 1.661994,0 3,1.338006 3,3 0,1.661994 -1.338006,3 -3,3 h -15 c -1.661994,0 -3,-1.338006 -3,-3 0,-1.661994 1.338006,-3 3,-3 z m 15,2 a 1,1 0 0 0 -1,1 1,1 0 0 0 1,1 1,1 0 0 0 1,-1 1,1 0 0 0 -1,-1 z"
       class="ColorScheme-Text"
       fill="currentColor" />
  </g>
</svg>
