<svg width="32" height="32" version="1.1" viewBox="0 0 32 32" xmlns="http://www.w3.org/2000/svg">
 <defs>
  <style id="current-color-scheme" type="text/css">.ColorScheme-Text { color:#363636; }</style>
 </defs>
 <g id="device-notifier" class="ColorScheme-Text" transform="translate(-321,-529.36)" fill="currentColor">
  <path d="m329 533.36c-1.662 0-2.6099 1.3844-3 3l-3.8613 15.988c-8.4e-4 4e-3 -1e-3 8e-3 -2e-3 0.0117h2e-3c-0.0825 0.321-0.13867 0.65255-0.13867 1 0 2.216 1.784 4 4 4h22c2.216 0 4-1.784 4-4 0-0.34745-0.0562-0.679-0.13867-1h0.0215l-3.8828-16c-0.39187-1.6151-1.338-3-3-3zm-3 18h22c1.108 0 2 0.89199 2 2s-0.89199 2-2 2h-22c-1.108 0-2-0.89199-2-2s0.89199-2 2-2z"/>
  <rect x="321" y="529.36" width="32" height="32" fill-opacity="0"/>
  <circle cx="346" cy="553.36" r="1"/>
 </g>
 <g id="16-16-device-notifier" class="ColorScheme-Text" transform="translate(-321.5,-529.36)" fill="currentColor">
  <rect x="393.5" y="537.36" width="16" height="16" ry="0" opacity="0"/>
  <g transform="translate(-19.5)">
   <path transform="translate(321,529.36)" d="m97 8c-0.55399 0-1 0.44601-1 1v3c-1.108 0-2 0.89201-2 2v4c0 3.324 2.676 6 6 6s6-2.676 6-6v-4c0-1.108-0.89201-2-2-2v-3c0-0.55399-0.44601-1-1-1zm1 1c0.55399 0 1 0.44601 1 1v1c0 0.55399-0.44601 1-1 1s-1-0.44601-1-1v-1c0-0.55399 0.44601-1 1-1zm4 0c0.55399 0 1 0.44601 1 1v1c0 0.55399-0.44601 1-1 1s-1-0.44601-1-1v-1c0-0.55399 0.44601-1 1-1zm-6 4h8c0.55399 0 1 0.44601 1 1v4a5 5 0 0 1-5 5 5 5 0 0 1-5-5v-4c0-0.55399 0.44601-1 1-1z"/>
   <circle cx="421" cy="549.36" r="2" opacity=".25"/>
   <circle cx="421" cy="549.36" r="1"/>
  </g>
 </g>
 <g id="22-22-device-notifier" class="ColorScheme-Text" transform="translate(-321,-529.36)" fill="currentColor">
  <rect x="365" y="534.36" width="22" height="22" opacity="0"/>
  <path d="m372 536.36c-0.55401 0-1 0.446-1 1v4h-1c-1.108 0-2 0.892-2 2v3c0 4.4183 3.5817 8 8 8s8-3.5817 8-8v-3c0-1.108-0.89199-2-2-2h-1v-4c0-0.554-0.44599-1-1-1zm2 2c0.554 0 1 0.446 1 1v1c0 0.554-0.446 1-1 1s-1-0.446-1-1v-1c0-0.554 0.446-1 1-1zm4 0c0.554 0 1 0.446 1 1v1c0 0.554-0.446 1-1 1s-1-0.446-1-1v-1c0-0.554 0.446-1 1-1zm-8 5h12v3c0 3.324-2.676 6-6 6s-6-2.676-6-6z"/>
 </g>
</svg>
