<?xml version="1.0" encoding="UTF-8" standalone="no"?>
<svg
   id="svg86"
   viewBox="0 0 22 22"
   version="1.1"
   height="22"
   width="22"
   sodipodi:docname="disk.svg"
   inkscape:version="1.2.2 (b0a8486541, 2022-12-01)"
   xmlns:inkscape="http://www.inkscape.org/namespaces/inkscape"
   xmlns:sodipodi="http://sodipodi.sourceforge.net/DTD/sodipodi-0.dtd"
   xmlns="http://www.w3.org/2000/svg"
   xmlns:svg="http://www.w3.org/2000/svg"
   xmlns:rdf="http://www.w3.org/1999/02/22-rdf-syntax-ns#"
   xmlns:cc="http://creativecommons.org/ns#"
   xmlns:dc="http://purl.org/dc/elements/1.1/">
  <sodipodi:namedview
     id="namedview581"
     pagecolor="#ffffff"
     bordercolor="#666666"
     borderopacity="1.0"
     inkscape:showpageshadow="2"
     inkscape:pageopacity="0.0"
     inkscape:pagecheckerboard="0"
     inkscape:deskcolor="#d1d1d1"
     showgrid="true"
     inkscape:zoom="5.3636363"
     inkscape:cx="102.72881"
     inkscape:cy="63.855933"
     inkscape:window-width="1920"
     inkscape:window-height="1014"
     inkscape:window-x="0"
     inkscape:window-y="32"
     inkscape:window-maximized="1"
     inkscape:current-layer="svg86">
    <inkscape:grid
       type="xygrid"
       id="grid597" />
  </sodipodi:namedview>
  <metadata
     id="metadata88">
    <rdf:RDF>
      <cc:Work
         rdf:about="">
        <dc:format>image/svg+xml</dc:format>
        <dc:type
           rdf:resource="http://purl.org/dc/dcmitype/StillImage" />
        <dc:title />
      </cc:Work>
    </rdf:RDF>
  </metadata>
  <defs
     id="defs5">
    <style
       type="text/css"
       id="current-color-scheme">.ColorScheme-Text {
        color:#363636;
      }
      .ColorScheme-Background {
        color:#efefef;
      }
      .ColorScheme-Highlight {
        color:#3498db;
      }
      .ColorScheme-ViewText {
        color:#363636;
      }
      .ColorScheme-ViewBackground {
        color:#fcfcfc;
      }
      .ColorScheme-ViewHover {
        color:#93cee9;
      }
      .ColorScheme-ViewFocus{
        color:#3daee9;
      }
      .ColorScheme-ButtonText {
        color:#363636;
      }
      .ColorScheme-ButtonBackground {
        color:#efefef;
      }
      .ColorScheme-ButtonHover {
        color:#93cee9;
      }
      .ColorScheme-ButtonFocus{
        color:#3daee9;
      }
      .ColorScheme-NegativeText{
        color:#e74c3c;
      }</style>
  </defs>
  <g
     fill="currentColor"
     class="ColorScheme-Text"
     transform="translate(-326,-534.36)"
     id="22-22-disk-quota">
    <rect
       id="rect7"
       stroke-width="1.76"
       opacity="0"
       height="22"
       width="22"
       y="534.36"
       x="326.02" />
    <path
       id="path9"
       d="m336.94 540.36a3.75 3 0 0 0-3.6777 3 3.75 3 0 0 0 3.75 3 3.75 3 0 0 0 3.75-3h-1.25a2.5 2 0 0 1-2.5 2 2.5 2 0 0 1-2.5-2 2.5 2 0 0 1 2.4844-2 2.5 2 0 0 1 0.0156 0v-1a3.75 3 0 0 0-0.0723 0z" />
    <path
       id="path11"
       opacity=".35"
       d="m337 541.36a2.5 2 0 0 0-2.4844 2 2.5 2 0 0 0 2.5 2 2.5 2 0 0 0 2.5-2h-2c-0.277 0-0.5-0.223-0.5-0.5v-1.5a2.5 2 0 0 0-0.0156 0z" />
    <ellipse
       id="ellipse13"
       ry="1"
       rx="1.25"
       cy="543.36"
       cx="337.02" />
    <path
       id="path15"
       d="m 332,537.36 c -1.5802,0 -2.8538,1.2141 -2.9766,2.7617 l -1.9785,9.7969 c -0.0215,0.14534 -0.0449,0.28993 -0.0449,0.44141 0,1.662 1.338,3 3,3 h 14 c 1.662,0 3,-1.338 3,-3 0,-0.15148 -0.0234,-0.29607 -0.0449,-0.44141 l -1.9785,-9.7969 c -0.12282,-1.5476 -1.3963,-2.7617 -2.9766,-2.7617 z m 0,2 h 10 c 0.46959,0 0.84456,0.3267 0.95312,0.76172 l 1.502,7.2832 c -0.14957,-0.0227 -0.29895,-0.0449 -0.45508,-0.0449 h -14 c -0.15613,0 -0.30551,0.0222 -0.45508,0.0449 l 1.502,-7.2832 c 0.10857,-0.43502 0.48354,-0.76172 0.95312,-0.76172 z m 10.951,9 c 0.0163,-2e-4 0.0325,-2e-4 0.0488,0 1.1046,0 2,0.89543 2,2 0,1.10457 -0.89543,2 -2,2 -0.71397,-5.7e-4 -1.3735,-0.38169 -1.7305,-1 h -11.27 c -0.55398,0 -1,-0.44602 -1,-1 0,-0.55399 0.44602,-1 1,-1 h 11.27 c 0.34812,-0.60347 0.98518,-0.98231 1.6816,-1 z" />
    <circle
       id="circle17"
       opacity="0.35"
       r="1"
       cy="550.35999"
       cx="343" />
  </g>
  <g
     fill="currentColor"
     class="ColorScheme-Text"
     transform="translate(-326,-534.36)"
     id="22-22-disk-quota-missing">
    <path
       id="path22"
       fill="#f47750"
       d="m367 543.36c-0.55228 0-1 0.44772-1 1s0.44772 4 1 4 1-3.4477 1-4-0.44772-1-1-1zm0 6c-0.55228 0-1 0.44772-1 1s0.44772 1 1 1 1-0.44772 1-1-0.44772-1-1-1z" />
    <rect
       id="rect24"
       stroke-width="1.76"
       opacity="0"
       height="22"
       width="22"
       y="534.35999"
       x="350.004" />
    <path
       id="path26"
       stroke-width="1.4907"
       stroke-linejoin="round"
       d="m 360.924,540.36 a 3.75,3 0 0 0 -3.6777,3 3.75,3 0 0 0 3.75,3 3.75,3 0 0 0 3.75,-3 h -1.25 a 2.5,2 0 0 1 -2.5,2 2.5,2 0 0 1 -2.5,-2 2.5,2 0 0 1 2.4844,-2 2.5,2 0 0 1 0.0156,0 v -1 a 3.75,3 0 0 0 -0.0723,0 z" />
    <path
       id="path28"
       opacity="0.35"
       d="m 360.984,541.36 a 2.5,2 0 0 0 -2.4844,2 2.5,2 0 0 0 2.5,2 2.5,2 0 0 0 2.5,-2 h -2 c -0.277,0 -0.5,-0.223 -0.5,-0.5 v -1.5 a 2.5,2 0 0 0 -0.0156,0 z" />
    <ellipse
       id="ellipse30"
       ry="1"
       rx="1.25"
       cy="543.35999"
       cx="361.004" />
    <path
       id="path32"
       d="m 355.988,537.36 c -1.5802,0 -2.8538,1.2141 -2.9766,2.7617 l -1.9785,9.7969 c -0.0215,0.14534 -0.0449,0.28993 -0.0449,0.44141 0,1.662 1.338,3 3,3 h 14 c 1.662,0 3,-1.338 3,-3 0,-0.15148 -0.0234,-0.29607 -0.0449,-0.44141 l -1.9785,-9.7969 c -0.12282,-1.5476 -1.3963,-2.7617 -2.9766,-2.7617 z m 0,2 h 10 c 0.46959,0 0.84456,0.3267 0.95312,0.76172 l 0.4707,2.2812 c 0.9018,0.1917 1.5918,1.0037 1.5918,1.957 0,0.27318 -0.0328,0.56354 -0.0859,0.98438 -0.0531,0.42085 -0.12871,0.92065 -0.22461,1.4141 -0.0959,0.4934 -0.20726,0.97261 -0.35938,1.3945 -0.0652,0.18082 -0.14114,0.35235 -0.25195,0.5332 0.41816,0.27286 0.71913,0.69227 0.84375,1.1758 0.002,0.007 0.002,0.0147 0.004,0.0215 0.0272,0.11092 0.0448,0.22396 0.0527,0.33789 0.004,0.0476 0.0215,0.0893 0.0215,0.13867 0,0.33073 -0.0921,0.63928 -0.23828,0.91602 -0.0179,0.035 -0.0367,0.0696 -0.0566,0.10352 -0.0343,0.0567 -0.0698,0.11113 -0.10938,0.16406 -0.0426,0.0578 -0.0882,0.11317 -0.13672,0.16602 -0.0319,0.0343 -0.0635,0.0675 -0.0977,0.0996 -0.0714,0.0681 -0.14782,0.13072 -0.22852,0.1875 -0.0158,0.011 -0.0308,0.0226 -0.0469,0.0332 -0.0895,0.0582 -0.18358,0.10915 -0.28125,0.15234 -0.0214,0.01 -0.0427,0.0185 -0.0645,0.0273 -0.004,0.002 -0.008,0.004 -0.0117,0.006 -0.0958,0.0382 -0.1944,0.0688 -0.29492,0.0918 -0.0216,0.005 -0.0426,0.0114 -0.0645,0.0156 -0.12164,0.0237 -0.24522,0.0362 -0.36915,0.0371 -0.005,2e-5 -0.0104,2e-5 -0.0156,0 -0.71397,-5.6e-4 -1.3735,-0.38169 -1.7305,-1 h -11.27 c -0.55398,0 -1,-0.44602 -1,-1 0,-0.55399 0.44602,-1 1,-1 h 11.27 c 0.16143,-0.27902 0.38792,-0.51488 0.66016,-0.6875 -0.10587,-0.17573 -0.18057,-0.34331 -0.24414,-0.51953 -0.0888,-0.24636 -0.16245,-0.51612 -0.22852,-0.79297 h -11.457 c -0.15613,0 -0.30551,0.0222 -0.45508,0.0449 l 1.502,-7.2832 c 0.10857,-0.43502 0.48354,-0.76172 0.95312,-0.76172 z" />
  </g>
  <g
     transform="translate(-277.02 -534.36)"
     id="22-22-disk-quota-low">
    <rect
       id="rect39"
       opacity="0"
       height="22"
       width="22"
       y="534.36"
       x="326.02" />
    <path
       id="path41"
       fill="#fdbc4b"
       d="m336.94 540.36a3.75 3 0 0 0-3.6777 3 3.75 3 0 0 0 3.75 3 3.75 3 0 0 0 3.75-3h-1.25a2.5 2 0 0 1-2.5 2 2.5 2 0 0 1-2.5-2 2.5 2 0 0 1 2.4844-2 2.5 2 0 0 1 0.0156 0v-1a3.75 3 0 0 0-0.0723 0z" />
    <path
       id="path43"
       opacity=".35"
       fill="#fdbc4b"
       d="m337 541.36a2.5 2 0 0 0-2.4844 2 2.5 2 0 0 0 2.5 2 2.5 2 0 0 0 2.5-2h-2c-0.277 0-0.5-0.223-0.5-0.5v-1.5a2.5 2 0 0 0-0.0156 0z" />
    <ellipse
       id="ellipse45"
       fill="#fdbc4b"
       ry="1"
       rx="1.25"
       cy="543.36"
       cx="337.02" />
    <g
       id="g51"
       fill="currentColor"
       class="ColorScheme-Text"
       transform="translate(23)">
      <path
         id="path47"
         d="m-17 3c-1.5802 0-2.8538 1.2141-2.9766 2.7617l-1.9785 9.7969c-0.02151 0.14534-0.04493 0.28993-0.04493 0.44141 0 1.662 1.338 3 3 3h14c1.662 0 3-1.338 3-3 0-0.15148-0.023422-0.29607-0.044922-0.44141l-1.9785-9.7969c-0.12282-1.5476-1.3963-2.7617-2.9766-2.7617zm0 2h10c0.46959 0 0.84456 0.3267 0.95312 0.76172l1.502 7.2832c-0.14957-0.0227-0.29895-0.04492-0.45508-0.04492h-14c-0.15613 0-0.30551 0.02222-0.45508 0.04492l1.502-7.2832c0.10857-0.43502 0.48354-0.76172 0.95312-0.76172zm10.951 9c0.016275-1.99e-4 0.032553-1.99e-4 0.048828 0 1.1046 0 2 0.89543 2 2s-0.89543 2-2 2c-0.71397-5.65e-4 -1.3735-0.38169-1.7305-1h-11.27c-0.55398 0-1-0.44602-1-1 0-0.55399 0.44602-1 1-1h11.27c0.34812-0.60347 0.98518-0.98231 1.6816-1z"
         transform="translate(326,534.36)" />
      <circle
         id="circle49"
         opacity=".35"
         r="1"
         cy="550.36"
         cx="320" />
    </g>
  </g>
  <g
     transform="translate(-252.02 -534.36)"
     id="22-22-disk-quota-high">
    <rect
       id="rect54"
       opacity="0"
       height="22"
       width="22"
       y="534.36"
       x="326.02" />
    <path
       id="path56"
       fill="#e74c3c"
       d="m336.94 540.36a3.75 3 0 0 0-3.6777 3 3.75 3 0 0 0 3.75 3 3.75 3 0 0 0 3.75-3h-1.25a2.5 2 0 0 1-2.5 2 2.5 2 0 0 1-2.5-2 2.5 2 0 0 1 2.4844-2 2.5 2 0 0 1 0.0156 0v-1a3.75 3 0 0 0-0.0723 0z" />
    <path
       id="path58"
       stroke-width=".99382"
       stroke-linejoin="round"
       stroke-linecap="round"
       opacity=".35"
       fill="#e74c3c"
       d="m337 541.36a2.5 2 0 0 0-2.4844 2 2.5 2 0 0 0 2.5 2 2.5 2 0 0 0 2.5-2h-2c-0.277 0-0.5-0.223-0.5-0.5v-1.5a2.5 2 0 0 0-0.0156 0z" />
    <ellipse
       id="ellipse60"
       fill="#e74c3c"
       ry="1"
       rx="1.25"
       cy="543.36"
       cx="337.02" />
    <g
       id="g66"
       fill="currentColor"
       class="ColorScheme-Text"
       transform="translate(23)">
      <path
         id="path62"
         d="m-17 3c-1.5802 0-2.8538 1.2141-2.9766 2.7617l-1.9785 9.7969c-0.02151 0.14534-0.04493 0.28993-0.04493 0.44141 0 1.662 1.338 3 3 3h14c1.662 0 3-1.338 3-3 0-0.15148-0.023422-0.29607-0.044922-0.44141l-1.9785-9.7969c-0.12282-1.5476-1.3963-2.7617-2.9766-2.7617zm0 2h10c0.46959 0 0.84456 0.3267 0.95312 0.76172l1.502 7.2832c-0.14957-0.0227-0.29895-0.04492-0.45508-0.04492h-14c-0.15613 0-0.30551 0.02222-0.45508 0.04492l1.502-7.2832c0.10857-0.43502 0.48354-0.76172 0.95312-0.76172zm10.951 9c0.016275-1.99e-4 0.032553-1.99e-4 0.048828 0 1.1046 0 2 0.89543 2 2s-0.89543 2-2 2c-0.71397-5.65e-4 -1.3735-0.38169-1.7305-1h-11.27c-0.55398 0-1-0.44602-1-1 0-0.55399 0.44602-1 1-1h11.27c0.34812-0.60347 0.98518-0.98231 1.6816-1z"
         transform="translate(326,534.36)" />
      <circle
         id="circle64"
         opacity=".35"
         r="1"
         cy="550.36"
         cx="320" />
    </g>
  </g>
  <g
     transform="translate(-251,-534.36)"
     id="22-22-disk-quota-critical">
    <path
       id="path69"
       fill="#e74c3c"
       d="m367 543.36c-0.55228 0-1 0.44772-1 1s0.44772 4 1 4 1-3.4477 1-4-0.44772-1-1-1zm0 6c-0.55228 0-1 0.44772-1 1s0.44772 1 1 1 1-0.44772 1-1-0.44772-1-1-1z" />
    <g
       id="g83"
       transform="translate(23.984)">
      <rect
         id="rect71"
         stroke-width="1.76"
         opacity="0"
         height="22"
         width="22"
         y="534.36"
         x="326.02" />
      <path
         id="path73"
         fill="#e74c3c"
         d="m336.94 540.36a3.75 3 0 0 0-3.6777 3 3.75 3 0 0 0 3.75 3 3.75 3 0 0 0 3.75-3h-1.25a2.5 2 0 0 1-2.5 2 2.5 2 0 0 1-2.5-2 2.5 2 0 0 1 2.4844-2 2.5 2 0 0 1 0.0156 0v-1a3.75 3 0 0 0-0.0723 0z" />
      <path
         id="path75"
         opacity=".35"
         fill="#e74c3c"
         d="m337 541.36a2.5 2 0 0 0-2.4844 2 2.5 2 0 0 0 2.5 2 2.5 2 0 0 0 2.5-2h-2c-0.277 0-0.5-0.223-0.5-0.5v-1.5a2.5 2 0 0 0-0.0156 0z" />
      <ellipse
         id="ellipse77"
         fill="#e74c3c"
         ry="1"
         rx="1.25"
         cy="543.36"
         cx="337.02" />
      <g
         id="g81"
         transform="translate(23)">
        <path
           id="path79"
           fill="currentColor"
           class="ColorScheme-Text"
           d="m29.984 3c-1.5802 0-2.8538 1.2141-2.9766 2.7617l-1.9785 9.7969c-0.02151 0.14534-0.04492 0.28993-0.04492 0.44141 0 1.662 1.338 3 3 3h14c1.662 0 3-1.338 3-3 0-0.15148-0.02342-0.29607-0.04492-0.44141l-1.9785-9.7969c-0.12282-1.5476-1.3963-2.7617-2.9766-2.7617zm0 2h10c0.46959 0 0.84456 0.3267 0.95312 0.76172l0.4707 2.2812c0.9018 0.1917 1.5918 1.0037 1.5918 1.957 0 0.27318-0.03284 0.56354-0.08594 0.98438-0.05312 0.42085-0.12871 0.92065-0.22461 1.4141-0.09591 0.4934-0.20726 0.97261-0.35938 1.3945-0.06519 0.18082-0.14114 0.35235-0.25195 0.5332 0.41816 0.27286 0.71913 0.69227 0.84375 1.1758 0.0022 0.0068 0.0018 0.01466 0.0039 0.02149 0.02719 0.11092 0.04484 0.22396 0.05273 0.33789 0.0042 0.04755 0.0215 0.0893 0.0215 0.13867 0 0.33073-0.09207 0.63928-0.23828 0.91602-0.01786 0.03505-0.03675 0.06958-0.05664 0.10352-0.03432 0.05668-0.06979 0.11113-0.10938 0.16406-0.04256 0.05775-0.0882 0.11317-0.13672 0.16602-0.03186 0.03434-0.06352 0.06753-0.09766 0.09961-0.07144 0.06805-0.14782 0.13072-0.22852 0.1875-0.01577 0.01101-0.03079 0.02263-0.04687 0.0332-0.08953 0.05821-0.18358 0.10915-0.28125 0.15234-0.02141 0.0096-0.04267 0.01847-0.06445 0.02734-0.0039 2e-3 -0.0078 0.0039-0.01172 0.0059-0.09579 0.03816-0.1944 0.06885-0.29492 0.0918-0.02162 0.0049-0.04259 0.01143-0.06445 0.01563-0.12164 0.02374-0.24522 0.03616-0.36915 0.03707-0.0052 2e-5 -0.01042 2e-5 -0.01563 0-0.71397-5.65e-4 -1.3735-0.38169-1.7305-1h-11.27c-0.55398 0-1-0.44602-1-1 0-0.55399 0.44602-1 1-1h11.27c0.16143-0.27902 0.38792-0.51488 0.66016-0.6875-0.10587-0.17573-0.18057-0.34331-0.24414-0.51953-0.08882-0.24636-0.16245-0.51612-0.22852-0.79297h-11.457c-0.15613 0-0.30551 0.02222-0.45508 0.04492l1.502-7.2832c0.10857-0.43502 0.48354-0.76172 0.95312-0.76172z"
           transform="translate(279.02,534.36)" />
      </g>
    </g>
  </g>
  <g
     id="disk-quota">
    <rect
       id="rect599"
       stroke-width="2.56"
       opacity="0"
       height="32"
       width="32"
       y="33.000023"
       x="6.9601058e-10"
       style="color:#363636;fill:#363636" />
    <path
       id="path601"
       d="m 15.904297,41.726562 c -2.972181,0.04575 -5.351248,1.987051 -5.349609,4.365235 2.45e-4,2.409997 2.442581,4.363516 5.455078,4.363281 3.011734,-6.28e-4 5.45288,-1.953894 5.453125,-4.363281 h -1.81836 c -6.13e-4,1.6058 -1.627514,2.907497 -3.634765,2.908203 -2.008014,1.57e-4 -3.636106,-1.301792 -3.636719,-2.908203 -7.72e-4,-1.599878 1.613474,-2.9 3.613281,-2.910156 0.0078,-2e-5 0.01563,-2e-5 0.02344,0 v -1.455079 c -0.03516,-2.72e-4 -0.07031,-2.72e-4 -0.105469,0 z m 0.115234,2.910157 c -1.004483,-7.8e-5 -1.818727,0.651491 -1.818359,1.455078 9.8e-4,0.802824 0.814829,1.453204 1.818359,1.453125 1.003531,7.9e-5 1.81738,-0.650301 1.81836,-1.453125 3.68e-4,-0.803587 -0.813876,-1.455157 -1.81836,-1.455078 z"
       class="ColorScheme-Text"
       fill="currentColor" />
    <path
       id="path603"
       opacity="0.35"
       fill="currentColor"
       class="ColorScheme-Text"
       d="m 15.990934,43.181862 a 3.6363638,2.909091 0 0 0 -3.613673,2.909091 3.6363638,2.909091 0 0 0 3.636363,2.909091 3.6363638,2.909091 0 0 0 3.636364,-2.909091 h -2.909091 c -0.402909,0 -0.727273,-0.324364 -0.727273,-0.727273 v -2.181818 a 3.6363638,2.909091 0 0 0 -0.02269,0 z" />
    <circle
       id="circle609"
       opacity="0.35"
       r="1.5"
       cy="56.5"
       cx="25.5"
       class="ColorScheme-Text"
       fill="currentColor" />
    <path
       id="path601-6"
       class="ColorScheme-Text"
       d="m 9.2538906,38 c -2.323578,0 -4.030734,1.744532 -4.470703,4 l -2.693359,13.568359 c 0.0013,0.0052 0.0026,0.01042 0.0039,0.01563 -0.06081,0.295912 -0.09375,0.601586 -0.09375,0.916016 0,0.154731 0.008,0.308167 0.02344,0.458984 v 0.002 c 0.01543,0.150154 0.0384,0.297844 0.06836,0.44336 2.54e-4,0.0013 -2.55e-4,0.0027 0,0.0039 0.358487,1.760792 1.739207,3.141512 3.5,3.5 0.0012,2.58e-4 0.0027,-2.56e-4 0.0039,0 0.145525,0.0295 0.29301,0.05318 0.443359,0.06836 h 0.002 c 0.151022,0.01514 0.303831,0.02344 0.458984,0.02344 H 25.500018 c 0.31078,0 0.614761,-0.03111 0.908203,-0.0918 1.760792,-0.358488 3.141512,-1.739208 3.5,-3.5 2.55e-4,-0.0013 -2.54e-4,-0.0027 0,-0.0039 0.02997,-0.145516 0.05293,-0.293206 0.06836,-0.44336 v -0.002 c 0.01543,-0.150774 0.02344,-0.304253 0.02344,-0.458984 0,-0.306869 -0.03186,-0.60523 -0.08984,-0.894531 0.0015,-0.01234 0.0028,-0.02472 0.0039,-0.03711 L 27.218768,42 c -0.431171,-2.200675 -2.147125,-4 -4.470703,-4 z m 0,2 H 22.748031 c 1.213857,0 2.201444,0.855932 2.43164,2 l 2.054688,10.345703 C 26.700796,52.123719 26.115773,52 25.499984,52 H 6.4999846 c -0.61514,0 -1.199311,0.124163 -1.732422,0.345703 L 6.8202966,42 c 0.230197,-1.144068 1.219738,-2 2.433594,-2 z M 6.4999846,54 H 25.499984 c 1.20403,0 2.202602,0.842504 2.443359,1.972656 0.01193,0.05601 0.01907,0.113385 0.02734,0.169922 0.0048,0.03382 0.01216,0.06731 0.01563,0.101563 0.0085,0.08425 0.01367,0.169297 0.01367,0.255859 0,0.173125 -0.01759,0.342825 -0.05078,0.505859 -2.56e-4,0.0013 2.57e-4,0.0027 0,0.0039 -0.200102,0.975166 -0.964287,1.739351 -1.939453,1.939453 -0.0013,2.57e-4 -0.0027,-2.56e-4 -0.0039,0 -0.163043,0.0332 -0.332734,0.05078 -0.505859,0.05078 H 6.4999846 c -0.173124,0 -0.342823,-0.01759 -0.505859,-0.05078 -0.0013,-2.56e-4 -0.0026,2.57e-4 -0.0039,0 -0.975166,-0.200102 -1.739352,-0.964287 -1.939453,-1.939453 -2.5e-4,-0.0013 2.48e-4,-0.0027 0,-0.0039 -0.03319,-0.163042 -0.05078,-0.332734 -0.05078,-0.505859 0,-0.0868 0.0048,-0.171276 0.01367,-0.255859 0.0035,-0.03425 0.01081,-0.06774 0.01563,-0.101563 0.0083,-0.05654 0.01543,-0.113914 0.02734,-0.169922 v -0.002 c 0.241466,-1.129161 1.239996,-1.970703 2.443359,-1.970703 z"
       fill="currentColor" />
  </g>
  <g
     id="disk-quota-missing">
    <rect
       id="rect1653"
       stroke-width="2.56"
       opacity="0"
       height="32"
       width="32"
       y="33.000023"
       x="31.986376"
       style="color:#363636;fill:#363636" />
    <path
       id="path1655"
       class="ColorScheme-Text"
       d="m 47.890625,41.726562 c -2.972181,0.04575 -5.351248,1.987051 -5.349609,4.365235 2.45e-4,2.409997 2.442581,4.363516 5.455078,4.363281 3.011734,-6.28e-4 5.45288,-1.953894 5.453125,-4.363281 h -1.81836 c -6.13e-4,1.6058 -1.627514,2.907497 -3.634765,2.908203 -2.008014,1.57e-4 -3.636106,-1.301792 -3.636719,-2.908203 -7.72e-4,-1.599878 1.613474,-2.9 3.613281,-2.910156 0.0078,-2e-5 0.01563,-2e-5 0.02344,0 v -1.455079 c -0.03516,-2.72e-4 -0.07031,-2.72e-4 -0.105469,0 z m 0.115234,2.910157 c -1.004483,-7.8e-5 -1.818727,0.651491 -1.818359,1.455078 9.8e-4,0.802824 0.814829,1.453204 1.818359,1.453125 1.003531,7.9e-5 1.81738,-0.650301 1.81836,-1.453125 3.68e-4,-0.803587 -0.813876,-1.455157 -1.81836,-1.455078 z"
       fill="currentColor" />
    <path
       id="path1657"
       opacity="0.35"
       fill="currentColor"
       class="ColorScheme-Text"
       d="M 47.97731,43.181862 A 3.6363638,2.909091 0 0 0 44.363637,46.090953 3.6363638,2.909091 0 0 0 48,49.000044 3.6363638,2.909091 0 0 0 51.636364,46.090953 H 48.727273 C 48.324364,46.090953 48,45.766589 48,45.36368 v -2.181818 a 3.6363638,2.909091 0 0 0 -0.02269,0 z" />
    <path
       style="color:#000000;fill:#f47750;stroke-width:2;-inkscape-stroke:none"
       d="m 57.500005,45.999996 c -0.828424,0 -1.500005,0.67158 -1.500005,1.5 0,0.828421 0.671581,6.000002 1.500005,6.000002 0.828414,0 1.499995,-5.171551 1.499995,-6.000002 0,-0.82845 -0.671581,-1.5 -1.499995,-1.5 z m 0,9.000003 C 56.671581,54.999999 56,55.671579 56,56.499999 56,57.32842 56.671581,58 57.500005,58 58.328419,58 59,57.32842 59,56.499999 c 0,-0.82842 -0.671581,-1.5 -1.499995,-1.5 z"
       id="path1198" />
    <path
       id="path513"
       class="ColorScheme-Text"
       d="M 41.253906 38 C 38.930331 38 37.223172 39.744534 36.783203 42 L 34.089844 55.568359 C 34.091144 55.573559 34.09245 55.578774 34.09375 55.583984 C 34.03294 55.879896 34 56.18557 34 56.5 C 34 56.654731 34.007998 56.808168 34.023438 56.958984 L 34.023438 56.960938 C 34.038867 57.111091 34.061837 57.258781 34.091797 57.404297 C 34.092051 57.405597 34.091542 57.407003 34.091797 57.408203 C 34.450284 59.168993 35.831006 60.549715 37.591797 60.908203 C 37.592997 60.908461 37.594503 60.907947 37.595703 60.908203 C 37.741228 60.937703 37.888714 60.961383 38.039062 60.976562 L 38.041016 60.976562 C 38.192037 60.991702 38.344847 61 38.5 61 L 57.5 61 C 57.81078 61 58.114761 60.968893 58.408203 60.908203 C 60.168993 60.549715 61.549715 59.168993 61.908203 57.408203 C 61.908458 57.406903 61.907949 57.405497 61.908203 57.404297 C 61.938173 57.258781 61.961133 57.111091 61.976562 56.960938 L 61.976562 56.958984 C 61.991992 56.808211 62 56.654731 62 56.5 C 62 56.193131 61.968136 55.894769 61.910156 55.605469 C 61.911656 55.593129 61.912963 55.580749 61.914062 55.568359 L 59.21875 42 C 58.787579 39.799327 57.071623 38 54.748047 38 L 41.253906 38 z M 41.253906 40 L 54.748047 40 C 55.961903 40 56.949492 40.855933 57.179688 42 L 57.779297 45.017578 C 59.019283 45.158853 60 46.225507 60 47.5 C 60 47.84222 59.953424 48.29082 59.875 48.912109 C 59.796576 49.533399 59.68412 50.275807 59.542969 51.001953 C 59.452318 51.468302 59.350664 51.92127 59.234375 52.34375 C 59.234208 52.344355 59.234542 52.345098 59.234375 52.345703 C 59.169733 52.580403 59.101017 52.807804 59.025391 53.017578 C 58.919428 53.311498 58.808895 53.576203 58.628906 53.839844 C 58.557147 53.944954 58.377287 54.018398 58.201172 54.101562 C 59.076839 54.3556 59.751374 55.071447 59.943359 55.972656 C 59.950482 56.006096 59.954017 56.040274 59.958984 56.074219 C 59.962337 56.097129 59.967371 56.119796 59.970703 56.142578 C 59.975503 56.176398 59.982858 56.209888 59.986328 56.244141 C 59.986979 56.250588 59.987671 56.257215 59.988281 56.263672 C 59.996451 56.340888 60 56.419719 60 56.5 C 60 56.585554 59.994947 56.670427 59.986328 56.753906 C 59.986264 56.754549 59.986393 56.755217 59.986328 56.755859 C 59.977711 56.838673 59.96589 56.919661 59.949219 57 C 59.948842 57.001871 59.949599 57.00399 59.949219 57.005859 C 59.948963 57.007159 59.949476 57.008566 59.949219 57.009766 C 59.941523 57.047272 59.927314 57.082279 59.917969 57.119141 C 59.904417 57.171144 59.889848 57.222754 59.873047 57.273438 C 59.853761 57.333067 59.834082 57.391673 59.810547 57.449219 C 59.802792 57.467817 59.793347 57.485531 59.785156 57.503906 C 59.53411 58.077329 59.077329 58.53411 58.503906 58.785156 C 58.485531 58.793347 58.467817 58.802792 58.449219 58.810547 C 58.391673 58.834082 58.333067 58.853761 58.273438 58.873047 C 58.222755 58.889848 58.171144 58.904417 58.119141 58.917969 C 58.082279 58.927314 58.047272 58.941523 58.009766 58.949219 C 58.008466 58.949476 58.007059 58.948963 58.005859 58.949219 C 58.00399 58.949599 58.001871 58.948842 58 58.949219 C 57.838066 58.982822 57.671108 59 57.5 59 L 38.5 59 C 38.326876 59 38.157176 58.982409 37.994141 58.949219 C 37.992841 58.948963 37.991534 58.949476 37.990234 58.949219 C 37.015069 58.749117 36.250882 57.984931 36.050781 57.009766 C 36.050531 57.008466 36.051029 57.007059 36.050781 57.005859 C 36.017591 56.842818 36 56.673125 36 56.5 C 36 56.4132 36.004802 56.328724 36.013672 56.244141 C 36.017172 56.209891 36.024477 56.176401 36.029297 56.142578 C 36.037597 56.086038 36.044731 56.028664 36.056641 55.972656 L 36.056641 55.970703 C 36.298106 54.841543 37.296638 54 38.5 54 L 56.591797 54 C 56.497204 53.951687 56.413453 53.90189 56.371094 53.839844 C 56.191104 53.576202 56.080573 53.3115 55.974609 53.017578 C 55.862315 52.706096 55.765026 52.362098 55.675781 52 L 38.5 52 C 37.884861 52 37.300689 52.124163 36.767578 52.345703 L 38.820312 42 C 39.050509 40.855933 40.040051 40 41.253906 40 z "
       fill="currentColor" />
  </g>
  <g
     id="disk-quota-low">
    <rect
       id="rect1663"
       stroke-width="2.56"
       opacity="0"
       height="32"
       width="32"
       y="33.000023"
       x="64"
       style="color:#363636;fill:#363636" />
    <path
       id="path1667"
       opacity="0.35"
       d="m 79.990934,43.181862 a 3.6363638,2.909091 0 0 0 -3.613673,2.909091 3.6363638,2.909091 0 0 0 3.636363,2.909091 3.6363638,2.909091 0 0 0 3.636364,-2.909091 h -2.909091 c -0.402909,0 -0.727273,-0.324364 -0.727273,-0.727273 v -2.181818 a 3.6363638,2.909091 0 0 0 -0.02269,0 z"
       style="fill:#fdbc4b;fill-opacity:1" />
    <circle
       id="circle1669"
       opacity="0.35"
       r="1.5"
       cy="56.5"
       cx="89.5"
       class="ColorScheme-Text"
       fill="currentColor" />
    <path
       id="path1712"
       d="m 79.904297,41.726562 c -2.972181,0.04575 -5.351248,1.987051 -5.349609,4.365235 2.45e-4,2.409997 2.442581,4.363516 5.455078,4.363281 3.011734,-6.28e-4 5.45288,-1.953894 5.453125,-4.363281 h -1.81836 c -6.13e-4,1.6058 -1.627514,2.907497 -3.634765,2.908203 -2.008014,1.57e-4 -3.636106,-1.301792 -3.636719,-2.908203 -7.72e-4,-1.599878 1.613474,-2.9 3.613281,-2.910156 0.0078,-2e-5 0.01563,-2e-5 0.02344,0 v -1.455079 c -0.03516,-2.72e-4 -0.07031,-2.72e-4 -0.105469,0 z m 0.115234,2.910157 c -1.004483,-7.8e-5 -1.818727,0.651491 -1.818359,1.455078 9.8e-4,0.802824 0.814829,1.453204 1.818359,1.453125 1.003531,7.9e-5 1.81738,-0.650301 1.81836,-1.453125 3.68e-4,-0.803587 -0.813876,-1.455157 -1.81836,-1.455078 z"
       style="fill:#fdbc4b;fill-opacity:1" />
    <path
       id="path515"
       class="ColorScheme-Text"
       d="m 73.252913,38 c -2.323578,0 -4.030734,1.744532 -4.470703,4 l -2.693359,13.568359 c 0.0013,0.0052 0.0026,0.01042 0.0039,0.01563 -0.06081,0.295912 -0.09375,0.601586 -0.09375,0.916016 0,0.154731 0.008,0.308167 0.02344,0.458984 v 0.002 c 0.01543,0.150154 0.0384,0.297844 0.06836,0.44336 2.54e-4,0.0013 -2.55e-4,0.0027 0,0.0039 0.358487,1.760792 1.739207,3.141512 3.5,3.5 0.0012,2.58e-4 0.0027,-2.56e-4 0.0039,0 0.145525,0.0295 0.29301,0.05318 0.443359,0.06836 h 0.002 c 0.151022,0.01514 0.303831,0.02344 0.458984,0.02344 H 89.49904 c 0.31078,0 0.614761,-0.03111 0.908203,-0.0918 1.760792,-0.358488 3.141512,-1.739208 3.5,-3.5 2.55e-4,-0.0013 -2.54e-4,-0.0027 0,-0.0039 0.02997,-0.145516 0.05293,-0.293206 0.06836,-0.44336 v -0.002 c 0.01543,-0.150774 0.02344,-0.304253 0.02344,-0.458984 0,-0.306869 -0.03186,-0.60523 -0.08984,-0.894531 0.0015,-0.01234 0.0028,-0.02472 0.0039,-0.03711 L 91.21779,42 c -0.431171,-2.200675 -2.147125,-4 -4.470703,-4 z m 0,2 h 13.49414 c 1.213857,0 2.201444,0.855932 2.43164,2 l 2.054688,10.345703 C 90.699818,52.123719 90.114795,52 89.499006,52 H 70.499007 c -0.61514,0 -1.199311,0.124163 -1.732422,0.345703 L 70.819319,42 c 0.230197,-1.144068 1.219738,-2 2.433594,-2 z m -2.753906,14 h 18.999999 c 1.20403,0 2.202602,0.842504 2.443359,1.972656 0.01193,0.05601 0.01907,0.113385 0.02734,0.169922 0.0048,0.03382 0.01216,0.06731 0.01563,0.101563 0.0085,0.08425 0.01367,0.169297 0.01367,0.255859 0,0.173125 -0.01759,0.342825 -0.05078,0.505859 -2.56e-4,0.0013 2.57e-4,0.0027 0,0.0039 -0.200102,0.975166 -0.964287,1.739351 -1.939453,1.939453 -0.0013,2.57e-4 -0.0027,-2.56e-4 -0.0039,0 -0.163043,0.0332 -0.332734,0.05078 -0.505859,0.05078 H 70.499007 c -0.173124,0 -0.342823,-0.01759 -0.505859,-0.05078 -0.0013,-2.56e-4 -0.0026,2.57e-4 -0.0039,0 -0.975166,-0.200102 -1.739352,-0.964287 -1.939453,-1.939453 -2.5e-4,-0.0013 2.48e-4,-0.0027 0,-0.0039 -0.03319,-0.163042 -0.05078,-0.332734 -0.05078,-0.505859 0,-0.0868 0.0048,-0.171276 0.01367,-0.255859 0.0035,-0.03425 0.01081,-0.06774 0.01563,-0.101563 0.0083,-0.05654 0.01543,-0.113914 0.02734,-0.169922 v -0.002 c 0.241466,-1.129161 1.239996,-1.970703 2.443359,-1.970703 z"
       fill="currentColor" />
  </g>
  <g
     id="disk-quota-high">
    <rect
       id="rect2274"
       stroke-width="2.56"
       opacity="0"
       height="32"
       width="32"
       y="33.000023"
       x="95.986374"
       style="color:#363636;fill:#363636" />
    <path
       id="path2278"
       opacity="0.35"
       d="m 111.97731,43.181862 a 3.6363638,2.909091 0 0 0 -3.61367,2.909091 3.6363638,2.909091 0 0 0 3.63636,2.909091 3.6363638,2.909091 0 0 0 3.63636,-2.909091 h -2.90909 C 112.32436,46.090953 112,45.766589 112,45.36368 v -2.181818 a 3.6363638,2.909091 0 0 0 -0.0227,0 z"
       style="fill:#e74c3c;fill-opacity:1" />
    <circle
       id="circle2280"
       opacity="0.35"
       r="1.5"
       cy="56.5"
       cx="121.48637"
       class="ColorScheme-Text"
       fill="currentColor" />
    <path
       id="path2282"
       d="m 111.89067,41.726562 c -2.97218,0.04575 -5.35124,1.987051 -5.34961,4.365235 2.5e-4,2.409997 2.44258,4.363516 5.45508,4.363281 3.01174,-6.28e-4 5.45288,-1.953894 5.45313,-4.363281 h -1.81836 c -6.2e-4,1.6058 -1.62752,2.907497 -3.63477,2.908203 -2.00801,1.57e-4 -3.6361,-1.301792 -3.63672,-2.908203 -7.7e-4,-1.599878 1.61348,-2.9 3.61328,-2.910156 0.008,-2e-5 0.0156,-2e-5 0.0234,0 v -1.455079 c -0.0352,-2.72e-4 -0.0703,-2.72e-4 -0.10546,0 z m 0.11524,2.910157 c -1.00449,-7.8e-5 -1.81873,0.651491 -1.81836,1.455078 9.8e-4,0.802824 0.81483,1.453204 1.81836,1.453125 1.00353,7.9e-5 1.81738,-0.650301 1.81836,-1.453125 3.7e-4,-0.803587 -0.81388,-1.455157 -1.81836,-1.455078 z"
       style="fill:#e74c3c;fill-opacity:1" />
    <path
       id="path517"
       class="ColorScheme-Text"
       d="m 105.25369,38 c -2.32357,0 -4.03073,1.744532 -4.4707,4 l -2.69336,13.568359 c 0.001,0.0052 0.003,0.01042 0.004,0.01563 -0.0608,0.295912 -0.0937,0.601586 -0.0937,0.916016 0,0.154731 0.008,0.308167 0.0234,0.458984 v 0.002 c 0.0154,0.150154 0.0384,0.297844 0.0684,0.44336 2.5e-4,0.0013 -2.5e-4,0.0027 0,0.0039 0.35849,1.760792 1.73921,3.141512 3.5,3.5 0.001,2.58e-4 0.003,-2.56e-4 0.004,0 0.14553,0.0295 0.29301,0.05318 0.44336,0.06836 h 0.002 c 0.15102,0.01514 0.30383,0.02344 0.45898,0.02344 h 19 c 0.31078,0 0.61476,-0.03111 0.9082,-0.0918 1.76079,-0.358488 3.14151,-1.739208 3.5,-3.5 2.6e-4,-0.0013 -2.5e-4,-0.0027 0,-0.0039 0.03,-0.145516 0.0529,-0.293206 0.0684,-0.44336 v -0.002 c 0.0154,-0.150774 0.0234,-0.304253 0.0234,-0.458984 0,-0.306869 -0.0319,-0.60523 -0.0898,-0.894531 0.001,-0.01234 0.003,-0.02472 0.004,-0.03711 L 123.21857,42 c -0.43117,-2.200675 -2.14713,-4 -4.4707,-4 z m 0,2 h 13.49414 c 1.21386,0 2.20145,0.855932 2.43164,2 l 2.05469,10.345703 C 122.7006,52.123719 122.11558,52 121.49979,52 h -19 c -0.61514,0 -1.19931,0.124163 -1.73242,0.345703 L 102.8201,42 c 0.2302,-1.144068 1.21974,-2 2.43359,-2 z m -2.7539,14 h 19 c 1.20403,0 2.2026,0.842504 2.44336,1.972656 0.0119,0.05601 0.0191,0.113385 0.0273,0.169922 0.005,0.03382 0.0122,0.06731 0.0156,0.101563 0.009,0.08425 0.0137,0.169297 0.0137,0.255859 0,0.173125 -0.0176,0.342825 -0.0508,0.505859 -2.6e-4,0.0013 2.5e-4,0.0027 0,0.0039 -0.20011,0.975166 -0.96429,1.739351 -1.93946,1.939453 -0.001,2.57e-4 -0.003,-2.56e-4 -0.004,0 -0.16304,0.0332 -0.33273,0.05078 -0.50586,0.05078 h -19 c -0.17313,0 -0.34283,-0.01759 -0.50586,-0.05078 -0.001,-2.56e-4 -0.003,2.57e-4 -0.004,0 -0.97517,-0.200102 -1.73935,-0.964287 -1.93945,-1.939453 -2.5e-4,-0.0013 2.4e-4,-0.0027 0,-0.0039 -0.0332,-0.163042 -0.0508,-0.332734 -0.0508,-0.505859 0,-0.0868 0.005,-0.171276 0.0137,-0.255859 0.003,-0.03425 0.0108,-0.06774 0.0156,-0.101563 0.008,-0.05654 0.0154,-0.113914 0.0273,-0.169922 v -0.002 c 0.24146,-1.129161 1.23999,-1.970703 2.44335,-1.970703 z"
       fill="currentColor" />
  </g>
  <g
     id="disk-quota-critical">
    <rect
       id="rect2509"
       stroke-width="2.56"
       opacity="0"
       height="32"
       width="32"
       y="33.000023"
       x="128"
       style="color:#363636;fill:#363636" />
    <path
       id="path2513"
       opacity="0.35"
       d="m 143.99093,43.181862 a 3.6363638,2.909091 0 0 0 -3.61367,2.909091 3.6363638,2.909091 0 0 0 3.63636,2.909091 3.6363638,2.909091 0 0 0 3.63637,-2.909091 h -2.90909 c -0.40291,0 -0.72728,-0.324364 -0.72728,-0.727273 v -2.181818 a 3.6363638,2.909091 0 0 0 -0.0227,0 z"
       style="fill:#e74c3c;fill-opacity:1" />
    <path
       style="fill:#e74c3c"
       d="m 153.51363,45.999996 c -0.82843,0 -1.50001,0.67158 -1.50001,1.5 0,0.828421 0.67158,6.000002 1.50001,6.000002 0.82841,0 1.49999,-5.171551 1.49999,-6.000002 0,-0.82845 -0.67158,-1.5 -1.49999,-1.5 z m 0,9.000003 c -0.82843,0 -1.50001,0.67158 -1.50001,1.5 0,0.828421 0.67158,1.500001 1.50001,1.500001 0.82841,0 1.49999,-0.67158 1.49999,-1.500001 0,-0.82842 -0.67158,-1.5 -1.49999,-1.5 z"
       id="path2515" />
    <path
       id="path2519"
       d="m 143.90425,41.726562 c -2.97218,0.04575 -5.35125,1.987051 -5.34961,4.365235 2.4e-4,2.409997 2.44258,4.363516 5.45508,4.363281 3.01173,-6.28e-4 5.45288,-1.953894 5.45312,-4.363281 h -1.81836 c -6.1e-4,1.6058 -1.62751,2.907497 -3.63476,2.908203 -2.00802,1.57e-4 -3.63611,-1.301792 -3.63672,-2.908203 -7.7e-4,-1.599878 1.61347,-2.9 3.61328,-2.910156 0.008,-2e-5 0.0156,-2e-5 0.0234,0 v -1.455079 c -0.0352,-2.72e-4 -0.0703,-2.72e-4 -0.10547,0 z m 0.11523,2.910157 c -1.00448,-7.8e-5 -1.81872,0.651491 -1.81836,1.455078 9.8e-4,0.802824 0.81483,1.453204 1.81836,1.453125 1.00353,7.9e-5 1.81738,-0.650301 1.81836,-1.453125 3.7e-4,-0.803587 -0.81387,-1.455157 -1.81836,-1.455078 z"
       style="fill:#e74c3c;fill-opacity:1" />
    <path
       id="path1205"
       class="ColorScheme-Text"
       d="m 137.25293,38 c -2.32358,0 -4.03074,1.744534 -4.4707,4 l -2.69336,13.568359 c 0.001,0.0052 0.003,0.01042 0.004,0.01563 -0.0608,0.295912 -0.0937,0.601586 -0.0937,0.916016 0,0.154731 0.008,0.308168 0.0234,0.458984 v 0.002 c 0.0154,0.150153 0.0384,0.297843 0.0684,0.443359 2.5e-4,0.0013 -2.6e-4,0.0027 0,0.0039 0.35849,1.76079 1.73921,3.141512 3.5,3.5 0.001,2.58e-4 0.003,-2.56e-4 0.004,0 0.14552,0.0295 0.29301,0.05318 0.44336,0.06836 h 0.002 C 134.19106,60.991702 134.34387,61 134.49902,61 h 19 c 0.31078,0 0.61476,-0.03111 0.90821,-0.0918 1.76079,-0.358488 3.14151,-1.73921 3.5,-3.5 2.5e-4,-0.0013 -2.6e-4,-0.0027 0,-0.0039 0.03,-0.145516 0.0529,-0.293206 0.0684,-0.443359 v -0.002 c 0.0154,-0.150773 0.0234,-0.304253 0.0234,-0.458984 0,-0.306869 -0.0319,-0.605231 -0.0898,-0.894531 0.001,-0.01234 0.003,-0.02472 0.004,-0.03711 L 155.21777,42 c -0.43117,-2.200673 -2.14712,-4 -4.4707,-4 z m 0,2 h 13.49414 c 1.21386,0 2.20144,0.855933 2.43164,2 l 0.59961,3.017578 c 1.23999,0.141275 2.2207,1.207929 2.2207,2.482422 0,0.34222 -0.0466,0.79082 -0.125,1.412109 -0.0784,0.62129 -0.19088,1.363698 -0.33203,2.089844 -0.0906,0.466349 -0.1923,0.919317 -0.30859,1.341797 -1.7e-4,6.05e-4 1.6e-4,0.0013 0,0.002 -0.0646,0.2347 -0.13336,0.462101 -0.20899,0.671875 -0.10596,0.29392 -0.21649,0.558625 -0.39648,0.822266 -0.0718,0.10511 -0.25162,0.178554 -0.42774,0.261718 0.87567,0.254038 1.55021,0.969885 1.74219,1.871094 0.007,0.03344 0.0107,0.06762 0.0156,0.101563 0.003,0.02291 0.008,0.04558 0.0117,0.06836 0.005,0.03382 0.0122,0.06731 0.0156,0.101563 6.5e-4,0.0064 0.001,0.01307 0.002,0.01953 0.008,0.07722 0.0117,0.156047 0.0117,0.236328 0,0.08555 -0.005,0.170427 -0.0137,0.253906 -6e-5,6.43e-4 7e-5,0.0013 0,0.002 -0.009,0.08281 -0.0204,0.163802 -0.0371,0.244141 -3.8e-4,0.0019 3.8e-4,0.004 0,0.0059 -2.5e-4,0.0013 2.6e-4,0.0027 0,0.0039 -0.008,0.03751 -0.0219,0.07251 -0.0312,0.109375 -0.0135,0.052 -0.0281,0.103613 -0.0449,0.154297 -0.0193,0.05963 -0.039,0.118235 -0.0625,0.175781 -0.008,0.0186 -0.0172,0.03631 -0.0254,0.05469 -0.25105,0.573423 -0.70783,1.030204 -1.28125,1.28125 -0.0184,0.0082 -0.0361,0.01764 -0.0547,0.02539 -0.0575,0.02354 -0.11615,0.04321 -0.17578,0.0625 -0.0507,0.0168 -0.10229,0.03137 -0.1543,0.04492 -0.0369,0.0093 -0.0719,0.02355 -0.10937,0.03125 -0.001,2.57e-4 -0.003,-2.56e-4 -0.004,0 -0.002,3.8e-4 -0.004,-3.77e-4 -0.006,0 -0.16193,0.0336 -0.32889,0.05078 -0.5,0.05078 h -19 c -0.17312,0 -0.34282,-0.01759 -0.50586,-0.05078 -0.001,-2.56e-4 -0.003,2.57e-4 -0.004,0 -0.97517,-0.200102 -1.73936,-0.964288 -1.93946,-1.939453 -2.5e-4,-0.0013 2.5e-4,-0.0027 0,-0.0039 -0.0332,-0.163041 -0.0508,-0.332734 -0.0508,-0.505859 0,-0.0868 0.005,-0.171276 0.0137,-0.255859 0.003,-0.03425 0.0108,-0.06774 0.0156,-0.101563 0.008,-0.05654 0.0154,-0.113914 0.0273,-0.169922 v -0.002 C 132.29713,54.841543 133.29566,54 134.49902,54 h 18.0918 c -0.0946,-0.04831 -0.17834,-0.09811 -0.2207,-0.160156 C 152.19013,53.576202 152.0796,53.3115 151.97363,53.017578 151.86134,52.706096 151.76405,52.362098 151.6748,52 h -17.17578 c -0.61514,0 -1.19931,0.124163 -1.73242,0.345703 L 134.81934,42 c 0.23019,-1.144067 1.21973,-2 2.43359,-2 z"
       fill="currentColor" />
  </g>
</svg>
