<?xml version="1.0" encoding="UTF-8" standalone="no"?>
<svg
   id="svg86"
   viewBox="0 0 32 32"
   version="1.1"
   height="32"
   width="32"
   sodipodi:docname="disk.svg"
   inkscape:version="1.3.2 (091e20ef0f, 2023-11-25)"
   xmlns:inkscape="http://www.inkscape.org/namespaces/inkscape"
   xmlns:sodipodi="http://sodipodi.sourceforge.net/DTD/sodipodi-0.dtd"
   xmlns="http://www.w3.org/2000/svg"
   xmlns:svg="http://www.w3.org/2000/svg">
  <sodipodi:namedview
     id="namedview2621"
     pagecolor="#ffffff"
     bordercolor="#666666"
     borderopacity="1.0"
     inkscape:showpageshadow="2"
     inkscape:pageopacity="0.0"
     inkscape:pagecheckerboard="0"
     inkscape:deskcolor="#d1d1d1"
     showgrid="true"
     inkscape:zoom="11.313709"
     inkscape:cx="-13.655999"
     inkscape:cy="38.360541"
     inkscape:window-width="1920"
     inkscape:window-height="1010"
     inkscape:window-x="0"
     inkscape:window-y="34"
     inkscape:window-maximized="1"
     inkscape:current-layer="svg86">
    <inkscape:grid
       type="xygrid"
       id="grid2665"
       spacingx="0.5"
       spacingy="0.5"
       empspacing="2"
       color="#e500e5"
       opacity="0.14902"
       originx="0"
       originy="0"
       units="px"
       visible="true" />
  </sodipodi:namedview>
  <defs
     id="defs5">
    <style
       type="text/css"
       id="current-color-scheme">.ColorScheme-Text {
        color:#363636;
      }
      .ColorScheme-Background {
        color:#efefef;
      }
      .ColorScheme-Highlight {
        color:#3498db;
      }
      .ColorScheme-ViewText {
        color:#363636;
      }
      .ColorScheme-ViewBackground {
        color:#fcfcfc;
      }
      .ColorScheme-ViewHover {
        color:#93cee9;
      }
      .ColorScheme-ViewFocus{
        color:#3daee9;
      }
      .ColorScheme-ButtonText {
        color:#363636;
      }
      .ColorScheme-ButtonBackground {
        color:#efefef;
      }
      .ColorScheme-ButtonHover {
        color:#93cee9;
      }
      .ColorScheme-ButtonFocus{
        color:#3daee9;
      }
      .ColorScheme-NegativeText{
        color:#e74c3c;
      }</style>
  </defs>
  <g
     id="disk-quota"
     class="ColorScheme-Text"
     fill="currentColor">
    <rect
       x="0"
       y="0"
       width="32"
       height="32"
       fill-opacity="0"
       id="rect7-3"
       style="color:#363636;fill:#363636" />
    <path
       id="path1870"
       d="M 12.214844,7 C 10.198176,7 8.45432,8.0854463 7.689453,9.9199219 L 6.310547,13.513672 A 7,7 0 0 1 6.5,13.5 7,7 0 0 1 7.892578,13.640625 L 9.072266,10.5 l 0.002,-0.002 C 9.635654,9.1512332 10.664791,8.5 12.214844,8.5 h 7.580078 c 1.540166,0 2.572097,0.6512264 3.142578,2 l 2.181641,5.802734 C 24.616553,16.109683 24.072174,16 23.5,16 H 11.859375 a 7,7 0 0 1 0.964844,1.5 H 23.5 c 1.661988,0 3,1.338012 3,3 0,1.661988 -1.338012,3 -3,3 H 12.816406 A 7,7 0 0 1 11.853516,25 H 23.5 c 2.363583,0 4.286814,-1.805324 4.480469,-4.117188 C 27.991069,20.756244 28,20.629405 28,20.5 c 0,-0.004 10e-6,-0.0078 0,-0.01172 2.1e-5,-0.0046 0,-0.0091 0,-0.01367 0,-0.929671 -0.262987,-1.735809 -0.544922,-2.402343 l -3.136719,-8.1562504 -0.002,-0.00195 C 23.541693,8.0850928 21.803212,7 19.794922,7 Z M 23.5,19.5 c -0.552283,0 -1,0.447717 -1,1 0,0.552283 0.447717,1 1,1 0.552283,0 1,-0.447717 1,-1 0,-0.552283 -0.447717,-1 -1,-1 z" />
    <path
       id="path3155"
       d="M 6.5 15 A 5.5 5.5 0 0 0 1 20.5 A 5.5 5.5 0 0 0 6.5 26 A 5.5 5.5 0 0 0 12 20.5 A 5.5 5.5 0 0 0 6.5 15 z M 6.5 16.5 A 4 4 0 0 1 10.5 20.5 A 4 4 0 0 1 6.5 24.5 A 4 4 0 0 1 2.5 20.5 A 4 4 0 0 1 6.5 16.5 z M 6.5 18 A 2.5 2.5 0 0 0 4 20.5 A 2.5 2.5 0 0 0 6.5 23 A 2.5 2.5 0 0 0 9 20.5 A 2.5 2.5 0 0 0 6.5 18 z " />
    <path
       id="path3958"
       d="M 9,20.5 A 2.5,2.5 0 0 1 6.5,23 v 1.5 a 4,4 0 0 0 4,-4 z"
       style="opacity:0.15" />
    <path
       id="path4015"
       d="m 6.5,16.5 a 4,4 0 0 0 -4,4 4,4 0 0 0 4,4 V 23 A 2.5,2.5 0 0 1 4,20.5 2.5,2.5 0 0 1 6.5,18 v -0.5 z"
       style="opacity:0.35" />
  </g>
  <g
     id="disk-quota-missing">
    <rect
       x="33"
       y="0"
       width="32"
       height="32"
       fill-opacity="0"
       id="rect4120"
       style="color:#363636;fill:#363636" />
    <g
       id="g4180"
       class="ColorScheme-Text"
       fill="currentColor">
      <path
         id="path4122"
         d="M 45.214844 7 C 43.198178 7 41.454319 8.0854481 40.689453 9.9199219 L 39.310547 13.513672 A 7 7 0 0 1 39.5 13.5 A 7 7 0 0 1 40.892578 13.640625 L 42.072266 10.5 L 42.074219 10.498047 C 42.635606 9.1512814 43.664792 8.5 45.214844 8.5 L 52.794922 8.5 C 53.644356 8.5 54.338622 8.6995706 54.886719 9.1035156 C 55.30065 8.7493586 55.828135 8.5294269 56.400391 8.5058594 C 55.495645 7.5432897 54.213515 7 52.794922 7 L 45.214844 7 z M 58.818359 13.814453 C 58.783142 14.234485 58.742989 14.670618 58.699219 15.107422 C 58.606661 16.031117 58.498693 16.93761 58.365234 17.673828 C 58.338906 17.819069 58.31241 17.955195 58.283203 18.087891 C 59.021328 18.633386 59.5 19.507692 59.5 20.5 C 59.5 22.161986 58.161986 23.5 56.5 23.5 L 45.816406 23.5 A 7 7 0 0 1 44.853516 25 L 56.5 25 C 58.863581 25 60.786814 23.194674 60.980469 20.882812 C 60.991069 20.756245 61 20.629405 61 20.5 C 61 20.496 61.00001 20.492201 61 20.488281 C 61.000021 20.483681 61 20.479179 61 20.474609 C 61 19.544939 60.737013 18.738799 60.455078 18.072266 L 58.818359 13.814453 z M 44.859375 16 A 7 7 0 0 1 45.824219 17.5 L 54.605469 17.5 C 54.527869 17.044828 54.460487 16.536098 54.398438 16 L 44.859375 16 z M 56.5 20 C 56.241605 20 56 20.241605 56 20.5 C 56 20.758395 56.241605 21 56.5 21 C 56.758395 21 57 20.758395 57 20.5 C 57 20.241605 56.758395 20 56.5 20 z " />
      <path
         id="path4124"
         d="M 39.5 15 A 5.5 5.5 0 0 0 34 20.5 A 5.5 5.5 0 0 0 39.5 26 A 5.5 5.5 0 0 0 45 20.5 A 5.5 5.5 0 0 0 39.5 15 z M 39.5 16.5 A 4 4 0 0 1 43.5 20.5 A 4 4 0 0 1 39.5 24.5 A 4 4 0 0 1 35.5 20.5 A 4 4 0 0 1 39.5 16.5 z M 39.5 18 A 2.5 2.5 0 0 0 37 20.5 A 2.5 2.5 0 0 0 39.5 23 A 2.5 2.5 0 0 0 42 20.5 A 2.5 2.5 0 0 0 39.5 18 z " />
      <path
         id="path4128"
         d="M 42,20.5 A 2.5,2.5 0 0 1 39.5,23 v 1.5 a 4,4 0 0 0 4,-4 z"
         style="opacity:0.15" />
      <path
         id="path4130"
         d="m 39.5,16.5 a 4,4 0 0 0 -4,4 4,4 0 0 0 4,4 V 23 A 2.5,2.5 0 0 1 37,20.5 2.5,2.5 0 0 1 39.5,18 v -0.5 z"
         style="opacity:0.35" />
    </g>
    <path
       style="fill:#f47750"
       d="m 56.5,10 c -0.55228,0 -1,0.44772 -1,1 0,0.55228 0.44772,7.5 1,7.5 0.55228,0 1,-6.9477 1,-7.5 0,-0.5523 -0.44772,-1 -1,-1 z m 0,9.5 c -0.55228,0 -1,0.44772 -1,1 0,0.55228 0.44772,1 1,1 0.55228,0 1,-0.44772 1,-1 0,-0.55228 -0.44772,-1 -1,-1 z"
       id="path4168" />
  </g>
  <g
     id="disk-quota-low">
    <rect
       x="66"
       y="0"
       width="32"
       height="32"
       fill-opacity="0"
       id="rect4194"
       style="color:#363636;fill:#363636" />
    <path
       id="path4196"
       d="M 78.214844,7 C 76.198176,7 74.45432,8.0854463 73.689453,9.9199219 L 72.310547,13.513672 A 7,7 0 0 1 72.5,13.5 7,7 0 0 1 73.892578,13.640625 L 75.072266,10.5 l 0.002,-0.002 C 75.635654,9.1512332 76.664791,8.5 78.214844,8.5 h 7.580078 c 1.540166,0 2.572097,0.6512264 3.142578,2 l 2.181641,5.802734 C 90.616553,16.109683 90.072174,16 89.5,16 H 77.859375 a 7,7 0 0 1 0.964844,1.5 H 89.5 c 1.661988,0 3,1.338012 3,3 0,1.661988 -1.338012,3 -3,3 H 78.816406 A 7,7 0 0 1 77.853516,25 H 89.5 c 2.363583,0 4.286814,-1.805324 4.480469,-4.117188 C 93.991069,20.756244 94,20.629405 94,20.5 c 0,-0.004 1e-5,-0.0078 0,-0.01172 2.1e-5,-0.0046 0,-0.0091 0,-0.01367 0,-0.929671 -0.262987,-1.735809 -0.544922,-2.402343 l -3.136719,-8.1562504 -0.002,-0.00195 C 89.541693,8.0850928 87.803212,7 85.794922,7 Z M 89.5,19.5 c -0.552283,0 -1,0.447717 -1,1 0,0.552283 0.447717,1 1,1 0.552283,0 1,-0.447717 1,-1 0,-0.552283 -0.447717,-1 -1,-1 z"
       class="ColorScheme-Text"
       fill="currentColor" />
    <path
       id="path4198"
       d="M 72.5 15 A 5.5 5.5 0 0 0 67 20.5 A 5.5 5.5 0 0 0 72.5 26 A 5.5 5.5 0 0 0 78 20.5 A 5.5 5.5 0 0 0 72.5 15 z M 72.5 16.5 A 4 4 0 0 1 76.5 20.5 A 4 4 0 0 1 72.5 24.5 A 4 4 0 0 1 68.5 20.5 A 4 4 0 0 1 72.5 16.5 z M 72.5 18 A 2.5 2.5 0 0 0 70 20.5 A 2.5 2.5 0 0 0 72.5 23 A 2.5 2.5 0 0 0 75 20.5 A 2.5 2.5 0 0 0 72.5 18 z "
       style="fill:#fdbc4b;fill-opacity:1" />
    <path
       id="path4202"
       d="M 75,20.5 A 2.5,2.5 0 0 1 72.5,23 v 1.5 a 4,4 0 0 0 4,-4 z"
       style="opacity:0.15;fill:#fdbc4b;fill-opacity:1" />
    <path
       id="path4204"
       d="m 72.5,16.5 a 4,4 0 0 0 -4,4 4,4 0 0 0 4,4 V 23 A 2.5,2.5 0 0 1 70,20.5 2.5,2.5 0 0 1 72.5,18 v -0.5 z"
       style="opacity:0.35;fill:#fdbc4b;fill-opacity:1" />
  </g>
  <g
     id="disk-quota-high">
    <rect
       x="99"
       y="0"
       width="32"
       height="32"
       fill-opacity="0"
       id="rect4800"
       style="color:#363636;fill:#363636" />
    <path
       id="path4802"
       d="m 111.21484,7 c -2.01666,0 -3.76052,1.0854463 -4.52539,2.9199219 l -1.3789,3.5937501 A 7,7 0 0 1 105.5,13.5 a 7,7 0 0 1 1.39258,0.140625 L 108.07227,10.5 l 0.002,-0.002 C 108.63565,9.1512332 109.66479,8.5 111.21484,8.5 h 7.58008 c 1.54017,0 2.5721,0.6512264 3.14258,2 l 2.18164,5.802734 C 123.61655,16.109683 123.07217,16 122.5,16 h -11.64062 a 7,7 0 0 1 0.96484,1.5 H 122.5 c 1.66199,0 3,1.338012 3,3 0,1.661988 -1.33801,3 -3,3 H 111.81641 A 7,7 0 0 1 110.85352,25 H 122.5 c 2.36358,0 4.28681,-1.805324 4.48047,-4.117188 C 126.99107,20.756244 127,20.629405 127,20.5 c 0,-0.004 1e-5,-0.0078 0,-0.01172 2e-5,-0.0046 0,-0.0091 0,-0.01367 0,-0.929671 -0.26299,-1.735809 -0.54492,-2.402343 l -3.13672,-8.1562504 -0.002,-0.00195 C 122.54169,8.0850928 120.80321,7 118.79492,7 Z M 122.5,19.5 c -0.55228,0 -1,0.447717 -1,1 0,0.552283 0.44772,1 1,1 0.55228,0 1,-0.447717 1,-1 0,-0.552283 -0.44772,-1 -1,-1 z"
       class="ColorScheme-Text"
       fill="currentColor" />
    <path
       id="path4804"
       d="m 105.5,15 a 5.5,5.5 0 0 0 -5.5,5.5 5.5,5.5 0 0 0 5.5,5.5 5.5,5.5 0 0 0 5.5,-5.5 5.5,5.5 0 0 0 -5.5,-5.5 z m 0,1.5 a 4,4 0 0 1 4,4 4,4 0 0 1 -4,4 4,4 0 0 1 -4,-4 4,4 0 0 1 4,-4 z m 0,1.5 a 2.5,2.5 0 0 0 -2.5,2.5 2.5,2.5 0 0 0 2.5,2.5 2.5,2.5 0 0 0 2.5,-2.5 2.5,2.5 0 0 0 -2.5,-2.5 z"
       style="fill:#e74c3c;fill-opacity:1" />
    <path
       id="path4806"
       d="m 108,20.5 a 2.5,2.5 0 0 1 -2.5,2.5 v 1.5 a 4,4 0 0 0 4,-4 z"
       style="opacity:0.15;fill:#e74c3c;fill-opacity:1" />
    <path
       id="path4808"
       d="m 105.5,16.5 a 4,4 0 0 0 -4,4 4,4 0 0 0 4,4 V 23 A 2.5,2.5 0 0 1 103,20.5 2.5,2.5 0 0 1 105.5,18 v -0.5 z"
       style="opacity:0.35;fill:#e74c3c;fill-opacity:1" />
  </g>
  <g
     id="disk-quota-critical">
    <rect
       x="132"
       y="0"
       width="32"
       height="32"
       fill-opacity="0"
       id="rect5102"
       style="color:#363636;fill:#363636" />
    <path
       id="path5104"
       d="m 144.21484,7 c -2.01666,0 -3.76052,1.0854481 -4.52539,2.9199219 l -1.3789,3.5937501 A 7,7 0 0 1 138.5,13.5 a 7,7 0 0 1 1.39258,0.140625 L 141.07227,10.5 l 0.002,-0.002 C 141.63561,9.1512814 142.66479,8.5 144.21484,8.5 h 7.58008 c 0.84944,0 1.5437,0.1995706 2.0918,0.6035156 0.41393,-0.354157 0.94141,-0.5740887 1.51367,-0.5976562 C 154.49564,7.5432897 153.21351,7 151.79492,7 Z m 13.60352,6.814453 c -0.0352,0.420032 -0.0754,0.856165 -0.11914,1.292969 -0.0926,0.923695 -0.20053,1.830188 -0.33399,2.566406 -0.0263,0.145241 -0.0528,0.281367 -0.082,0.414063 0.73813,0.545495 1.2168,1.419801 1.2168,2.412109 0,1.661986 -1.33801,3 -3,3 H 144.81641 A 7,7 0 0 1 143.85352,25 H 155.5 c 2.36358,0 4.28681,-1.805326 4.48047,-4.117188 C 159.99107,20.756245 160,20.629405 160,20.5 c 0,-0.004 1e-5,-0.0078 0,-0.01172 2e-5,-0.0046 0,-0.0091 0,-0.01367 0,-0.92967 -0.26299,-1.73581 -0.54492,-2.402343 z M 143.85937,16 a 7,7 0 0 1 0.96485,1.5 h 8.78125 c -0.0776,-0.455172 -0.14498,-0.963902 -0.20703,-1.5 z M 155.5,20 c -0.2584,0 -0.5,0.241605 -0.5,0.5 0,0.258395 0.2416,0.5 0.5,0.5 0.25839,0 0.5,-0.241605 0.5,-0.5 0,-0.258395 -0.24161,-0.5 -0.5,-0.5 z"
       class="ColorScheme-Text"
       fill="currentColor" />
    <path
       id="path5106"
       d="m 138.5,15 a 5.5,5.5 0 0 0 -5.5,5.5 5.5,5.5 0 0 0 5.5,5.5 5.5,5.5 0 0 0 5.5,-5.5 5.5,5.5 0 0 0 -5.5,-5.5 z m 0,1.5 a 4,4 0 0 1 4,4 4,4 0 0 1 -4,4 4,4 0 0 1 -4,-4 4,4 0 0 1 4,-4 z m 0,1.5 a 2.5,2.5 0 0 0 -2.5,2.5 2.5,2.5 0 0 0 2.5,2.5 2.5,2.5 0 0 0 2.5,-2.5 2.5,2.5 0 0 0 -2.5,-2.5 z"
       style="fill:#e74c3c;fill-opacity:1" />
    <path
       id="path5108"
       d="m 141,20.5 a 2.5,2.5 0 0 1 -2.5,2.5 v 1.5 a 4,4 0 0 0 4,-4 z"
       style="opacity:0.15;fill:#e74c3c;fill-opacity:1" />
    <path
       id="path5110"
       d="m 138.5,16.5 a 4,4 0 0 0 -4,4 4,4 0 0 0 4,4 V 23 A 2.5,2.5 0 0 1 136,20.5 2.5,2.5 0 0 1 138.5,18 v -0.5 z"
       style="opacity:0.35;fill:#e74c3c;fill-opacity:1" />
    <path
       style="fill:#e74c3c;fill-opacity:1"
       d="m 155.5,10 c -0.55228,0 -1,0.44772 -1,1 0,0.55228 0.44772,7.5 1,7.5 0.55228,0 1,-6.9477 1,-7.5 0,-0.5523 -0.44772,-1 -1,-1 z m 0,9.5 c -0.55228,0 -1,0.44772 -1,1 0,0.55228 0.44772,1 1,1 0.55228,0 1,-0.44772 1,-1 0,-0.55228 -0.44772,-1 -1,-1 z"
       id="path5114" />
  </g>
  <g
     id="22-22-disk-quota"
     class="ColorScheme-Text"
     fill="currentColor">
    <rect
       x="4.9960942"
       y="36.999985"
       width="22"
       height="22"
       opacity="0"
       id="rect23"
       style="color:#363636;fill:#363636" />
    <path
       id="path190"
       d="M 12.347656 40.5 C 10.70414 40.5 9.4833925 41.264646 8.8769531 42.714844 L 7.5195312 45.851562 A 6 6 0 0 1 9.4921875 45.5 L 10.484375 43.152344 C 10.783206 42.396486 11.459976 42 12.365234 42 L 19.625 42 C 20.538996 42 21.216825 42.396486 21.515625 43.152344 L 23.431641 47.685547 C 23.080141 47.571247 22.692396 47.5 22.279297 47.5 L 13.970703 47.5 A 6 6 0 0 1 14.953125 49 L 22.279297 49 C 23.861294 49 25 50.102503 25 51.5 C 25 53.046797 23.861294 54 22.279297 54 L 14.953125 54 A 6 6 0 0 1 13.964844 55.5 L 22.279297 55.5 C 24.819291 55.5 26.496094 53.864195 26.496094 51.5 C 26.496094 50.788101 26.392584 50.277364 26.146484 49.697266 L 23.123047 42.714844 C 22.507848 41.264646 21.287141 40.5 19.652344 40.5 L 12.347656 40.5 z M 22.5 50.5 C 21.947716 50.5 21.5 50.947716 21.5 51.5 C 21.5 52.052284 21.947716 52.5 22.5 52.5 C 23.052284 52.5 23.5 52.052284 23.5 51.5 C 23.5 50.947716 23.052284 50.5 22.5 50.5 z " />
    <path
       id="path5388"
       d="M 9.5 47 A 4.5 4.5 0 0 0 5 51.5 A 4.5 4.5 0 0 0 9.5 56 A 4.5 4.5 0 0 0 14 51.5 A 4.5 4.5 0 0 0 9.5 47 z M 9.5 48.5 A 3 3 0 0 1 12.5 51.5 A 3 3 0 0 1 9.5 54.5 A 3 3 0 0 1 6.5 51.5 A 3 3 0 0 1 9.5 48.5 z M 9.5 50 A 1.5 1.5 0 0 0 8 51.5 A 1.5 1.5 0 0 0 9.5 53 A 1.5 1.5 0 0 0 11 51.5 A 1.5 1.5 0 0 0 9.5 50 z " />
    <path
       id="circle5390"
       d="M 9.5 48.5 A 3 3 0 0 0 6.5 51.5 A 3 3 0 0 0 9.5 54.5 L 9.5 48.5 z "
       style="opacity:0.35" />
    <path
       id="path5452"
       d="M 9.5 51.5 L 9.5 54.5 A 3 3 0 0 0 12.5 51.5 L 9.5 51.5 z "
       style="opacity:0.15" />
  </g>
</svg>
