<?xml version="1.0" encoding="UTF-8" standalone="no"?>
<svg
   id="svg38"
   viewBox="0 0 54 32"
   version="1.1"
   sodipodi:docname="drive.svg"
   inkscape:version="1.3 (0e150ed6c4, 2023-07-21)"
   xmlns:inkscape="http://www.inkscape.org/namespaces/inkscape"
   xmlns:sodipodi="http://sodipodi.sourceforge.net/DTD/sodipodi-0.dtd"
   xmlns="http://www.w3.org/2000/svg"
   xmlns:svg="http://www.w3.org/2000/svg">
  <sodipodi:namedview
     id="namedview1"
     pagecolor="#ffffff"
     bordercolor="#666666"
     borderopacity="1.0"
     inkscape:showpageshadow="2"
     inkscape:pageopacity="0.0"
     inkscape:pagecheckerboard="0"
     inkscape:deskcolor="#d1d1d1"
     showgrid="true"
     inkscape:zoom="4.2536892"
     inkscape:cx="2.3509005"
     inkscape:cy="12.224682"
     inkscape:current-layer="svg38">
    <inkscape:grid
       id="grid2"
       units="px"
       originx="0"
       originy="0"
       spacingx="1"
       spacingy="1"
       empcolor="#0099e5"
       empopacity="0.30196078"
       color="#0099e5"
       opacity="0.14901961"
       empspacing="5"
       dotted="false"
       gridanglex="30"
       gridanglez="30"
       visible="true" />
  </sodipodi:namedview>
  <defs
     id="defs5">
    <style
       type="text/css"
       id="current-color-scheme">.ColorScheme-Text { color:#363636; }</style>
  </defs>
  <g
     fill="currentColor"
     transform="translate(74.8481,-0.999)"
     class="ColorScheme-Text"
     id="16-16-drive">
    <path
       id="path7"
       fill="none"
       d="m -14.847,16 v 16 h 16 V 16 Z" />
    <path
       id="path9"
       d="m -10.8481,15.999 c -1.108,0 -1.8626,0.90056 -2,2 l -1,8 v 4 c 0,1.108 0.892,2 2,2 h 10 c 1.108,0 2,-0.892 2,-2 v -4 l -1,-8 c -0.13743,-1.0994 -0.892,-2 -2,-2 z m 0,1 h 8 c 0.554,0 0.93128,0.45028 1,1 l 1,8 v 4 c 0,0.554 -0.446,1 -1,1 h -10 c -0.554,0 -1,-0.446 -1,-1 v -4 l 1,-8 c 0.0687,-0.54972 0.446,-1 1,-1 z" />
    <path
       id="path11"
       d="m -12.8481,25.999 -0.1355,1 c -0.0744,0.54898 0.45608,1 1.0226,1 h 10.226 c 0.56651,0 1.097,-0.45102 1.0226,-1 l -0.13549,-1 c 0,0.554 -0.32058,1 -0.88709,1 h -10.226 c -0.56651,0 -0.88709,-0.446 -0.88709,-1 z" />
    <rect
       id="rect13"
       height="1"
       width="1"
       y="28.999001"
       x="-2.8480999" />
    <path
       id="path17"
       d="m -8.9665,17.997 -1.415,1.315 0.707,0.657 1.414,-1.314 z m 4.241,0 -0.707,0.658 1.414,1.314 0.707,-0.657 z m -2.12,1.428 c -1.1,0 -2,0.837 -2,1.857 0,1.02 0.9,1.858 2,1.858 1.098,0 2,-0.838 2,-1.858 0,-1.02 -0.902,-1.857 -2,-1.857 z m 0,0.928 c 0.557,0 1,0.41 1,0.93 0,0.517 -0.443,0.928 -1,0.928 -0.559,0 -1,-0.41 -1,-0.929 0,-0.518 0.441,-0.929 1,-0.929 z m -1,3.715 v 0.929 h 2 v -0.929 z" />
  </g>
  <g
     id="drive">
    <rect
       x="0"
       y="6.1035183e-07"
       width="32"
       height="32"
       fill-opacity="0"
       id="rect7"
       style="color:#363636;fill:#363636" />
    <path
       id="path1870"
       d="m 12.214847,7.0000158 c -2.016674,0 -3.760521,1.085441 -4.525391,2.919922 L 4.572269,18.033218 c -0.242504,0.562405 -0.479619,1.23458 -0.548828,2.005859 -0.01279,0.142485 -0.02344,0.286184 -0.02344,0.435547 0,0.0046 -2.1e-5,0.0091 0,0.01367 -1e-5,0.0039 0,0.0078 0,0.01172 0,0.129404 0.0089,0.25624 0.01953,0.382812 0.193655,2.311871 2.11688,4.117189 4.480469,4.117189 h 15 c 2.363589,0 4.286814,-1.805318 4.480469,-4.117188 0.0106,-0.126571 0.01953,-0.253407 0.01953,-0.382812 0,-0.004 10e-6,-0.0078 0,-0.01172 2.1e-5,-0.0046 0,-0.0091 0,-0.01367 0,-0.929674 -0.262987,-1.735806 -0.544922,-2.402343 l -3.136719,-8.1562492 -0.002,-0.002 c -0.774763,-1.828971 -2.513137,-2.914016 -4.521433,-2.914016 z m 0,1.5 h 7.580078 c 1.540172,0 2.572094,0.651222 3.142578,1.9999992 l 2.181641,5.802734 C 24.616556,16.109695 24.07218,16.000015 23.500003,16.000015 h -15 c -0.567149,0 -1.106533,0.108992 -1.605469,0.298828 l 2.177735,-5.798828 0.002,-0.002 C 9.635754,9.1512008 10.664838,8.4999688 12.214894,8.4999688 Z M 8.500003,17.500015 h 15 c 1.661994,0 3,1.338006 3,3 0,1.661994 -1.338006,3 -3,3 h -15 c -1.661994,0 -3,-1.338006 -3,-3 0,-1.661994 1.338006,-3 3,-3 z m 15,2 a 1,1 0 0 0 -1,1 1,1 0 0 0 1,1 1,1 0 0 0 1,-1 1,1 0 0 0 -1,-1 z"
       class="ColorScheme-Text"
       fill="currentColor" />
    <path
       id="rect4"
       d="M 9.5 19 C 9.2230003 19 9 19.223 9 19.5 L 9 21.5 C 9 21.777 9.2230003 22 9.5 22 C 9.7769997 22 10 21.777 10 21.5 L 10 19.5 C 10 19.223 9.7769997 19 9.5 19 z M 11.5 19 C 11.223 19 11 19.223 11 19.5 L 11 21.5 C 11 21.777 11.223 22 11.5 22 C 11.777 22 12 21.777 12 21.5 L 12 19.5 C 12 19.223 11.777 19 11.5 19 z M 13.5 19 C 13.223 19 13 19.223 13 19.5 L 13 21.5 C 13 21.777 13.223 22 13.5 22 C 13.777 22 14 21.777 14 21.5 L 14 19.5 C 14 19.223 13.777 19 13.5 19 z "
       class="ColorScheme-Text"
       fill="currentColor" />
  </g>
  <g
     id="22-22-drive">
    <rect
       x="32"
       y="10"
       width="22"
       height="22"
       opacity="0"
       id="rect23"
       style="color:#363636;fill:#363636" />
    <path
       id="path190"
       d="m 39.351562,13.500015 c -1.643518,0 -2.864263,0.764645 -3.470703,2.214844 L 32.875,22.662125 c -0.25488,0.588899 -0.375,1.10839 -0.375,1.83789 0,2.364197 1.674807,4 4.214844,4 h 12.568359 c 2.539997,0 4.216797,-1.635803 4.216797,-4 0,-0.7119 -0.10351,-1.222635 -0.34961,-1.802734 L 50.126953,15.714859 C 49.511754,14.26466 48.291049,13.500015 46.65625,13.500015 Z m 0.01758,1.5 h 7.259766 c 0.913997,0 1.591825,0.396485 1.890625,1.152344 l 1.916012,4.533203 c -0.3515,-0.1143 -0.739243,-0.185547 -1.152343,-0.185547 H 36.714844 c -0.41309,0 -0.791019,0.07125 -1.142579,0.185547 l 1.916016,-4.533203 c 0.298831,-0.755859 0.9756,-1.152344 1.880859,-1.152344 z m -2.654297,7 h 12.568359 c 1.581999,0 2.720701,1.102502 2.720701,2.5 0,1.546799 -1.138703,2.5 -2.720702,2.5 h -12.56836 c -1.582029,0 -2.710938,-1.093801 -2.710938,-2.5 0,-1.397499 1.128909,-2.5 2.710938,-2.5 z m 12.789063,1.5 c -0.552285,0 -1,0.447715 -1,1 0,0.552285 0.447715,1 1,1 0.552285,0 1,-0.447715 1,-1 0,-0.552285 -0.447715,-1 -1,-1 z"
       class="ColorScheme-Text"
       fill="currentColor" />
    <path
       id="path6"
       d="M 37.5,23 C 37.223,23 37,23.223 37,23.5 v 2 c 0,0.277 0.223,0.5 0.5,0.5 0.277,0 0.5,-0.223 0.5,-0.5 v -2 C 38,23.223 37.777,23 37.5,23 Z m 2,0 C 39.223,23 39,23.223 39,23.5 v 2 c 0,0.277 0.223,0.5 0.5,0.5 0.277,0 0.5,-0.223 0.5,-0.5 v -2 C 40,23.223 39.777,23 39.5,23 Z m 2,0 C 41.223,23 41,23.223 41,23.5 v 2 c 0,0.277 0.223,0.5 0.5,0.5 0.277,0 0.5,-0.223 0.5,-0.5 v -2 C 42,23.223 41.777,23 41.5,23 Z"
       class="ColorScheme-Text"
       fill="currentColor" />
  </g>
</svg>
