<?xml version="1.0" encoding="UTF-8" standalone="no"?>
<svg
   xmlns:dc="http://purl.org/dc/elements/1.1/"
   xmlns:cc="http://creativecommons.org/ns#"
   xmlns:rdf="http://www.w3.org/1999/02/22-rdf-syntax-ns#"
   xmlns:svg="http://www.w3.org/2000/svg"
   xmlns="http://www.w3.org/2000/svg"
   id="svg38"
   viewBox="0 0 54 32"
   version="1.1">
  <metadata
     id="metadata40">
    <rdf:RDF>
      <cc:Work
         rdf:about="">
        <dc:format>image/svg+xml</dc:format>
        <dc:type
           rdf:resource="http://purl.org/dc/dcmitype/StillImage" />
        <dc:title></dc:title>
      </cc:Work>
    </rdf:RDF>
  </metadata>
  <defs
     id="defs5">
    <style
       type="text/css"
       id="current-color-scheme">.ColorScheme-Text { color:#363636; }</style>
  </defs>
  <g
     fill="currentColor"
     transform="translate(33.847 58)"
     class="ColorScheme-Text"
     id="16-16-drive">
    <path
       id="path7"
       fill="none"
       d="m-14.847 16v16h16v-16z" />
    <g
       id="g19"
       transform="translate(-7.6681 -11.971)">
      <g
         id="g15"
         transform="translate(-449.18 -148.03)">
        <path
           id="path9"
           d="m446 176c-1.108 0-1.8626 0.90056-2 2l-1 8v4c0 1.108 0.892 2 2 2h10c1.108 0 2-0.892 2-2v-4l-1-8c-0.13743-1.0994-0.892-2-2-2zm0 1h8c0.554 0 0.93128 0.45028 1 1l1 8v4c0 0.554-0.446 1-1 1h-10c-0.554 0-1-0.446-1-1v-4l1-8c0.0687-0.54972 0.446-1 1-1z" />
        <path
           id="path11"
           d="m444 186-0.1355 1c-0.0744 0.54898 0.45608 1 1.0226 1h10.226c0.56651 0 1.097-0.45102 1.0226-1l-0.13549-1c0 0.554-0.32058 1-0.88709 1h-10.226c-0.56651 0-0.88709-0.446-0.88709-1z" />
        <rect
           id="rect13"
           height="1"
           width="1"
           y="189"
           x="454" />
      </g>
      <path
         id="path17"
         d="m-1.2984 29.968-1.415 1.315 0.707 0.657 1.414-1.314zm4.241 0-0.707 0.658 1.414 1.314 0.707-0.657zm-2.12 1.428c-1.1 0-2 0.837-2 1.857s0.9 1.858 2 1.858c1.098 0 2-0.838 2-1.858s-0.902-1.857-2-1.857zm0 0.928c0.557 0 1 0.41 1 0.93 0 0.517-0.443 0.928-1 0.928-0.559 0-1-0.41-1-0.929 0-0.518 0.441-0.929 1-0.929zm-1 3.715v0.929h2v-0.929z" />
    </g>
  </g>
  <g
     fill="currentColor"
     transform="translate(20 -2)"
     class="ColorScheme-Text"
     id="22-22-drive">
    <rect
       id="rect22"
       fill="none"
       height="22"
       width="22"
       y="42"
       x="-5" />
    <path
       id="path24"
       d="m0.66602 45c-1.108 0-1.74 0.92296-2 2l-2.582 10.885c-0.0499 0.19754-0.083984 0.40176-0.083984 0.61523 0 1.385 1.115 2.5 2.5 2.5h15c1.385 0 2.5-1.115 2.5-2.5 0-0.17114-0.01828-0.3387-0.05078-0.5-2e-3 -9e-3 -0.0039-0.01679-0.0059-0.02539l-2.6093-10.975c-0.26124-1.0768-0.892-2-2-2zm0.33398 1h10c0.55401 0 0.88237 0.45862 1 1l1.7383 8c0.11763 0.54137-0.44599 1-1 1h-13.477c-0.55401 0-1.1176-0.45863-1-1l1.7383-8c0.11763-0.54138 0.44599-1 1-1zm-2.5 11h15c0.83099 0 1.5 0.66901 1.5 1.5s-0.66901 1.5-1.5 1.5h-15c-0.83099 0-1.5-0.66901-1.5-1.5s0.66901-1.5 1.5-1.5z" />
    <ellipse
       id="ellipse26"
       ry=".5"
       rx=".5"
       cy="58.5"
       cx="12.5" />
    <path
       id="path28"
       d="m3.88 47-1.415 1.315 0.707 0.657 1.414-1.314zm4.241 0-0.707 0.658 1.414 1.314 0.707-0.657zm-2.12 1.428c-1.1 0-2 0.837-2 1.857s0.9 1.858 2 1.858c1.098 0 2-0.838 2-1.858s-0.902-1.857-2-1.857zm0 0.928c0.557 0 1 0.41 1 0.93 0 0.517-0.443 0.928-1 0.928-0.559 0-1-0.41-1-0.929 0-0.518 0.441-0.929 1-0.929zm-1 3.715v0.929h2v-0.929z" />
  </g>
  <g
     fill="currentColor"
     transform="translate(-32 -35)"
     class="ColorScheme-Text"
     id="drive">
    <rect
       id="rect31"
       fill="none"
       height="32"
       width="32"
       y="35"
       x="43" />
    <path
       id="path33"
       d="m51 39c-1.662 0-2.6099 1.3844-3 3l-3.8613 15.988c-8.4e-4 4e-3 -9.53e-4 8e-3 -2e-3 0.01172h2e-3c-0.0825 0.321-0.13867 0.65255-0.13867 1 0 2.216 1.784 4 4 4h22c2.216 0 4-1.784 4-4 0-0.34745-0.0562-0.679-0.13867-1h0.02148l-3.8828-16c-0.39187-1.6151-1.338-3-3-3zm4.916 3.8184 1.0273 0.95703-2.0566 1.9121-1.0293-0.95703zm6.1699 0 2.0566 1.9121-1.0293 0.95703-2.0566-1.9121zm-3.084 2.0762c1.5971 0 2.9082 1.2175 2.9082 2.7012 0 1.4836-1.3111 2.7031-2.9082 2.7031-1.6 0-2.9102-1.2195-2.9102-2.7031s1.3102-2.7012 2.9102-2.7012zm0 1.3496c-0.81309 0-1.4551 0.59811-1.4551 1.3516 0 0.75491 0.64199 1.3516 1.4551 1.3516 0.81018 0 1.4531-0.59761 1.4531-1.3496 0-0.75636-0.64294-1.3535-1.4531-1.3535zm-1.4551 5.4043h2.9082v1.3516h-2.9082zm-9.5469 5.3516h22c1.108 0 2 0.89199 2 2s-0.89199 2-2 2h-22c-1.108 0-2-0.89199-2-2s0.89199-2 2-2z" />
    <ellipse
       id="ellipse35"
       ry="1"
       rx="1"
       cy="59"
       cx="68" />
  </g>
</svg>
