<?xml version="1.0" encoding="UTF-8" standalone="no"?>
<svg
   id="svg38"
   viewBox="0 0 54 32"
   version="1.1"
   sodipodi:docname="drive.svg"
   inkscape:version="1.3 (0e150ed6c4, 2023-07-21)"
   xmlns:inkscape="http://www.inkscape.org/namespaces/inkscape"
   xmlns:sodipodi="http://sodipodi.sourceforge.net/DTD/sodipodi-0.dtd"
   xmlns="http://www.w3.org/2000/svg"
   xmlns:svg="http://www.w3.org/2000/svg">
  <sodipodi:namedview
     id="namedview1"
     pagecolor="#ffffff"
     bordercolor="#666666"
     borderopacity="1.0"
     inkscape:showpageshadow="2"
     inkscape:pageopacity="0.0"
     inkscape:pagecheckerboard="0"
     inkscape:deskcolor="#d1d1d1"
     showgrid="true"
     inkscape:zoom="5.6568543"
     inkscape:cx="57.010484"
     inkscape:cy="21.831922"
     inkscape:window-width="1920"
     inkscape:window-height="1012"
     inkscape:window-x="0"
     inkscape:window-y="32"
     inkscape:window-maximized="1"
     inkscape:current-layer="svg38">
    <inkscape:grid
       id="grid1"
       units="px"
       originx="0"
       originy="0"
       spacingx="1"
       spacingy="1"
       empcolor="#0099e5"
       empopacity="0.30196078"
       color="#0099e5"
       opacity="0.14901961"
       empspacing="5"
       dotted="false"
       gridanglex="30"
       gridanglez="30"
       visible="true" />
  </sodipodi:namedview>
  <defs
     id="defs5">
    <style
       type="text/css"
       id="current-color-scheme">.ColorScheme-Text { color:#363636; }</style>
  </defs>
  <g
     fill="currentColor"
     transform="translate(74.8481,0.001)"
     class="ColorScheme-Text"
     id="16-16-drive">
    <path
       id="path7"
       fill="none"
       d="m -14.847,16 v 16 h 16 V 16 Z" />
    <g
       id="g19"
       transform="translate(-7.6681,-11.971)">
      <g
         id="g15"
         transform="translate(-449.18,-148.03)">
        <path
           id="path9"
           d="m 446,176 c -1.108,0 -1.8626,0.90056 -2,2 l -1,8 v 4 c 0,1.108 0.892,2 2,2 h 10 c 1.108,0 2,-0.892 2,-2 v -4 l -1,-8 c -0.13743,-1.0994 -0.892,-2 -2,-2 z m 0,1 h 8 c 0.554,0 0.93128,0.45028 1,1 l 1,8 v 4 c 0,0.554 -0.446,1 -1,1 h -10 c -0.554,0 -1,-0.446 -1,-1 v -4 l 1,-8 c 0.0687,-0.54972 0.446,-1 1,-1 z" />
        <path
           id="path11"
           d="m 444,186 -0.1355,1 c -0.0744,0.54898 0.45608,1 1.0226,1 h 10.226 c 0.56651,0 1.097,-0.45102 1.0226,-1 l -0.13549,-1 c 0,0.554 -0.32058,1 -0.88709,1 h -10.226 c -0.56651,0 -0.88709,-0.446 -0.88709,-1 z" />
        <rect
           id="rect13"
           height="1"
           width="1"
           y="189"
           x="454" />
      </g>
      <path
         id="path17"
         d="m -1.2984,29.968 -1.415,1.315 0.707,0.657 1.414,-1.314 z m 4.241,0 -0.707,0.658 1.414,1.314 0.707,-0.657 z m -2.12,1.428 c -1.1,0 -2,0.837 -2,1.857 0,1.02 0.9,1.858 2,1.858 1.098,0 2,-0.838 2,-1.858 0,-1.02 -0.902,-1.857 -2,-1.857 z m 0,0.928 c 0.557,0 1,0.41 1,0.93 0,0.517 -0.443,0.928 -1,0.928 -0.559,0 -1,-0.41 -1,-0.929 0,-0.518 0.441,-0.929 1,-0.929 z m -1,3.715 v 0.929 h 2 v -0.929 z" />
    </g>
  </g>
  <g
     id="22-22-drive">
    <path
       id="path28"
       d="m 40.879,15.4645 -1.415,1.315 0.707,0.657 1.414,-1.314 z m 4.241,0 -0.707,0.658 1.414,1.314 0.707,-0.657 z M 43,16.8925 c -1.1,0 -2,0.837 -2,1.857 0,1.02 0.9,1.858 2,1.858 1.098,0 2,-0.838 2,-1.858 0,-1.02 -0.902,-1.857 -2,-1.857 z m 0,0.928 c 0.557,0 1,0.41 1,0.93 0,0.517 -0.443,0.928 -1,0.928 -0.559,0 -1,-0.41 -1,-0.929 0,-0.518 0.441,-0.929 1,-0.929 z m -1,3.715 v 0.929 h 2 v -0.929 z"
       class="ColorScheme-Text"
       fill="currentColor" />
    <rect
       id="rect7"
       height="22"
       width="22"
       y="10"
       x="32"
       style="fill:none" />
    <path
       id="path15"
       d="m 38,13 c -1.5802,0 -2.8538,1.2141 -2.9766,2.7617 l -1.9785,9.7969 C 33.0234,25.70394 33,25.84853 33,26.00001 c 0,1.662 1.338,3 3,3 h 14 c 1.662,0 3,-1.338 3,-3 0,-0.15148 -0.0234,-0.29607 -0.0449,-0.44141 L 50.9766,15.7617 C 50.85378,14.2141 49.5803,13 48,13 Z m 0,2 h 10 c 0.46959,0 0.84456,0.3267 0.95312,0.76172 l 1.502,7.2832 c -0.14957,-0.0227 -0.29895,-0.0449 -0.45508,-0.0449 h -14 c -0.15613,0 -0.30551,0.0222 -0.45508,0.0449 l 1.502,-7.2832 C 37.15553,15.3267 37.5305,15 38.00008,15 Z m 10.951,9 c 0.0163,-2e-4 0.0325,-2e-4 0.0488,0 1.1046,0 2,0.89543 2,2 0,1.10457 -0.89543,2 -2,2 -0.71397,-5.7e-4 -1.3735,-0.38169 -1.7305,-1 h -11.27 c -0.55398,0 -1,-0.44602 -1,-1 0,-0.55399 0.44602,-1 1,-1 h 11.27 c 0.34812,-0.60347 0.98518,-0.98231 1.6816,-1 z"
       class="ColorScheme-Text"
       fill="currentColor" />
    <circle
       id="circle17"
       opacity="0.35"
       r="1"
       cy="26"
       cx="49"
       class="ColorScheme-Text"
       fill="currentColor" />
  </g>
  <g
     id="drive"
     transform="translate(-10.999995)">
    <rect
       id="rect31"
       fill="none"
       height="32"
       width="32"
       y="0"
       x="11"
       style="color:#363636" />
    <path
       id="path33"
       d="m 23.91605,6.8183 1.0273,0.95703 -2.0566,1.9121 -1.0293,-0.95703 z m 6.1699,0 2.0566,1.9121 -1.0293,0.95703 -2.0566,-1.9121 z m -3.084,2.0762 c 1.5971,0 2.9082,1.2175 2.9082,2.7012 0,1.4836 -1.3111,2.7031 -2.9082,2.7031 -1.6,0 -2.9102,-1.2195 -2.9102,-2.7031 0,-1.4836 1.3102,-2.7012 2.9102,-2.7012 z m 0,1.3496 c -0.81309,0 -1.4551,0.59811 -1.4551,1.3516 0,0.75491 0.64199,1.3516 1.4551,1.3516 0.81018,0 1.4531,-0.59761 1.4531,-1.3496 0,-0.75636 -0.64294,-1.3535 -1.4531,-1.3535 z m -1.4551,5.4043 h 2.9082 V 17 h -2.9082 z"
       class="ColorScheme-Text"
       fill="currentColor" />
    <path
       id="path601"
       class="ColorScheme-Text"
       d="m 20.253907,4 c -2.323578,0 -4.030733,1.744532 -4.470702,4 l -2.69336,13.568359 c 0.0013,0.0052 0.0026,0.01042 0.0039,0.01563 -0.06081,0.295912 -0.09375,0.601586 -0.09375,0.916016 0,0.154731 0.008,0.308167 0.02344,0.458984 v 0.002 c 0.01543,0.150154 0.03839,0.297844 0.06836,0.44336 2.54e-4,0.0013 -2.55e-4,0.0027 0,0.0039 0.358487,1.760792 1.739207,3.141512 3.499999,3.499999 0.0012,2.59e-4 0.0027,-2.56e-4 0.0039,0 0.145524,0.0295 0.293009,0.05318 0.443359,0.06836 h 0.002 c 0.151022,0.01514 0.30383,0.02344 0.458984,0.02344 H 36.5 c 0.31078,0 0.614761,-0.03111 0.908203,-0.0918 1.760792,-0.358488 3.141513,-1.739207 3.5,-3.5 2.55e-4,-0.0013 -2.54e-4,-0.0027 0,-0.0039 0.02997,-0.145516 0.05293,-0.293206 0.06836,-0.44336 v -0.002 c 0.01543,-0.150773 0.02344,-0.304253 0.02344,-0.458984 0,-0.306869 -0.03186,-0.60523 -0.08984,-0.894531 0.0015,-0.01234 0.0028,-0.02472 0.0039,-0.03711 L 38.218751,8 C 37.78758,5.799325 36.071626,4 33.748048,4 Z m 0,2 h 13.494142 c 1.213856,0 2.201444,0.855932 2.43164,2 l 2.054688,10.345703 C 37.700814,18.123719 37.115791,18 36.500002,18 h -19 c -0.61514,0 -1.19931,0.124162 -1.732422,0.345703 L 17.820313,8 c 0.230198,-1.144068 1.219739,-2 2.433594,-2 z m -2.753906,14 h 19 c 1.20403,0 2.202602,0.842504 2.443359,1.972656 0.01193,0.05601 0.01907,0.113385 0.02734,0.169922 0.0048,0.03382 0.01216,0.06731 0.01563,0.101562 C 38.99483,22.32839 39,22.413437 39,22.5 c 0,0.173124 -0.01759,0.342825 -0.05078,0.505859 -2.55e-4,0.0013 2.57e-4,0.0027 0,0.0039 -0.200102,0.975166 -0.964287,1.739351 -1.939453,1.939453 -0.0013,2.57e-4 -0.0027,-2.56e-4 -0.0039,0 -0.163043,0.0332 -0.332734,0.05078 -0.505859,0.05078 H 17.500001 c -0.173124,0 -0.342823,-0.01759 -0.505859,-0.05078 -0.0013,-2.56e-4 -0.0027,2.57e-4 -0.0039,0 -0.975166,-0.200102 -1.739352,-0.964287 -1.939454,-1.939453 -2.49e-4,-0.0013 2.48e-4,-0.0027 0,-0.0039 -0.03319,-0.163042 -0.05078,-0.332734 -0.05078,-0.505859 0,-0.0868 0.0048,-0.171276 0.01367,-0.25586 0.0035,-0.03425 0.01081,-0.06774 0.01563,-0.101562 0.0083,-0.05654 0.01543,-0.113915 0.02734,-0.169922 v -0.002 c 0.241467,-1.129161 1.239997,-1.970703 2.44336,-1.970703 z"
       fill="currentColor" />
    <circle
       id="circle609"
       opacity="0.35"
       r="1.5"
       cy="22.5"
       cx="36.5"
       class="ColorScheme-Text"
       fill="currentColor" />
  </g>
</svg>
