<?xml version="1.0" encoding="UTF-8" standalone="no"?>
<svg
   id="svg17"
   viewBox="0 0 54 32"
   version="1.1"
   sodipodi:docname="edit.svg"
   inkscape:version="1.2.2 (b0a8486541, 2022-12-01)"
   xmlns:inkscape="http://www.inkscape.org/namespaces/inkscape"
   xmlns:sodipodi="http://sodipodi.sourceforge.net/DTD/sodipodi-0.dtd"
   xmlns="http://www.w3.org/2000/svg"
   xmlns:svg="http://www.w3.org/2000/svg">
  <sodipodi:namedview
     id="namedview12"
     pagecolor="#ffffff"
     bordercolor="#666666"
     borderopacity="1.0"
     inkscape:showpageshadow="2"
     inkscape:pageopacity="0.0"
     inkscape:pagecheckerboard="0"
     inkscape:deskcolor="#d1d1d1"
     showgrid="false"
     inkscape:zoom="14.75"
     inkscape:cx="13.762712"
     inkscape:cy="31.966102"
     inkscape:window-width="3840"
     inkscape:window-height="2034"
     inkscape:window-x="0"
     inkscape:window-y="58"
     inkscape:window-maximized="1"
     inkscape:current-layer="svg17" />
  <defs
     id="defs5">
    <style
       type="text/css"
       id="current-color-scheme">.ColorScheme-NegativeText {
        color:#da4453;
      }</style>
  </defs>
  <g
     id="22-22-edit-delete">
    <path
       id="path7"
       fill="none"
       d="M 0,10 V 32 H 22 V 10 Z"
       style="color:#da4453" />
    <path
       d="m 7.3426331,30.000005 h 7.3227209 c 1.227074,0 2.015901,-0.741052 2.079635,-1.968114 l 0.533893,-11.474117 h 0.876495 c 0.406335,0 0.717115,-0.318614 0.717115,-0.717165 0,-0.3984 -0.318757,-0.701178 -0.717115,-0.701178 h -3.537891 v -1.1952 c 0,-1.227099 -0.780849,-1.944227 -2.111548,-1.944227 H 9.4780969 c -1.3306984,0 -2.1115568,0.717128 -2.1115568,1.944227 v 1.1952 H 3.8446326 c -0.3984027,0 -0.7171246,0.310677 -0.7171246,0.701178 0,0.406413 0.3187238,0.717165 0.7171246,0.717165 H 4.721127 l 0.5338658,11.474117 c 0.063742,1.235037 0.844619,1.968114 2.0876403,1.968114 z M 8.8565358,14.015966 c 0,-0.406412 0.2868472,-0.669354 0.7250941,-0.669354 h 2.8207751 c 0.438248,0 0.725094,0.262677 0.725094,0.669354 v 1.123465 H 8.8565358 Z M 7.5019946,28.573649 c -0.4382475,0 -0.7569694,-0.326551 -0.7808765,-0.7968 L 6.1872614,16.557774 h 9.6015436 l -0.517937,11.219075 c -0.01587,0.478148 -0.326646,0.7968 -0.780849,0.7968 z m 1.1473849,-1.28281 c 0.3426936,0 0.5578273,-0.215055 0.5498487,-0.533896 L 8.960158,18.422329 c -0.00797,-0.318614 -0.2310879,-0.525921 -0.5577362,-0.525921 -0.334715,0 -0.5498491,0.215055 -0.5418713,0.53382 l 0.2390702,8.33469 c 0.00797,0.318614 0.2310879,0.525921 0.5497588,0.525921 z m 2.3506165,0 c 0.334624,0 0.565714,-0.207118 0.565714,-0.525921 v -8.33469 c 0,-0.318614 -0.231088,-0.53382 -0.565714,-0.53382 -0.334625,0 -0.557737,0.215055 -0.557737,0.53382 v 8.33469 c 0,0.318614 0.223113,0.525921 0.557737,0.525921 z m 2.350616,0.0076 c 0.318667,0 0.54178,-0.215055 0.549758,-0.533896 l 0.23907,-8.33469 c 0.008,-0.318614 -0.207156,-0.525845 -0.541871,-0.525845 -0.326646,0 -0.549758,0.207118 -0.557736,0.525845 l -0.239071,8.33469 c -0.008,0.310678 0.207156,0.533896 0.54985,0.533896 z"
       id="path329"
       class="ColorScheme-NegativeText"
       fill="currentColor" />
  </g>
  <g
     id="edit-delete">
    <path
       id="path12"
       fill="none"
       d="M 22,0 V 32 H 54 V 0 Z"
       style="color:#da4453" />
    <path
       d="m 33.529885,27 h 8.949992 c 1.499757,0 2.463879,-0.905729 2.541776,-2.405473 l 0.652535,-14.023919 h 1.071272 c 0.496632,0 0.876475,-0.389417 0.876475,-0.8765346 0,-0.486934 -0.389592,-0.856996 -0.876475,-0.856996 H 42.421371 V 7.3762772 c 0,-1.4997876 -0.954371,-2.3762774 -2.580781,-2.3762774 h -3.700694 c -1.62641,0 -2.580792,0.8764898 -2.580792,2.3762774 v 1.4608003 h -4.304553 c -0.486937,0 -0.876486,0.379717 -0.876486,0.856996 0,0.4967265 0.389552,0.8765345 0.876486,0.8765345 h 1.071271 l 0.652502,14.023919 C 31.056229,26.104017 32.010636,27 33.529885,27 Z M 35.38021,7.4639533 c 0,-0.4967258 0.350591,-0.8180993 0.886226,-0.8180993 h 3.447614 c 0.535636,0 0.886226,0.3210496 0.886226,0.8180993 V 8.8370775 H 35.38021 Z M 33.72466,25.256676 c -0.535635,0 -0.925185,-0.399117 -0.954405,-0.973867 L 32.117764,10.570608 h 11.735219 l -0.633034,13.712201 c -0.0194,0.584403 -0.399234,0.973867 -0.954371,0.973867 z m 1.402359,-1.567879 c 0.418847,0 0.681789,-0.262845 0.672037,-0.65254 L 35.506859,12.849508 c -0.0098,-0.389417 -0.282441,-0.642792 -0.681677,-0.642792 -0.409096,0 -0.672038,0.262844 -0.662288,0.652447 l 0.292198,10.186841 c 0.0098,0.389417 0.282441,0.642793 0.671927,0.642793 z m 2.872976,0 c 0.408984,0 0.691428,-0.253143 0.691428,-0.642791 V 12.859163 c 0,-0.389418 -0.282441,-0.652447 -0.691428,-0.652447 -0.408987,0 -0.681679,0.262844 -0.681679,0.652447 v 10.186841 c 0,0.389417 0.272694,0.642793 0.681679,0.642793 z m 2.872975,0.0093 c 0.389481,0 0.662175,-0.262845 0.671926,-0.65254 l 0.292197,-10.186842 c 0.0098,-0.389417 -0.253191,-0.642699 -0.662287,-0.642699 -0.399234,0 -0.671927,0.253143 -0.681677,0.642699 l -0.292198,10.186842 c -0.0098,0.379718 0.25319,0.65254 0.672039,0.65254 z"
       id="path537"
       class="ColorScheme-NegativeText"
       fill="currentColor" />
  </g>
</svg>
