<?xml version="1.0" encoding="UTF-8" standalone="no"?>
<svg
   id="svg213"
   version="1.1"
   height="154"
   width="242"
   sodipodi:docname="fcitx.svg"
   inkscape:version="1.2.2 (b0a8486541, 2022-12-01)"
   xmlns:inkscape="http://www.inkscape.org/namespaces/inkscape"
   xmlns:sodipodi="http://sodipodi.sourceforge.net/DTD/sodipodi-0.dtd"
   xmlns="http://www.w3.org/2000/svg"
   xmlns:svg="http://www.w3.org/2000/svg"
   xmlns:rdf="http://www.w3.org/1999/02/22-rdf-syntax-ns#"
   xmlns:cc="http://creativecommons.org/ns#"
   xmlns:dc="http://purl.org/dc/elements/1.1/">
  <sodipodi:namedview
     id="namedview129"
     pagecolor="#ffffff"
     bordercolor="#000000"
     borderopacity="0.25"
     inkscape:showpageshadow="2"
     inkscape:pageopacity="0.0"
     inkscape:pagecheckerboard="0"
     inkscape:deskcolor="#d1d1d1"
     showgrid="true"
     inkscape:zoom="16"
     inkscape:cx="132.40625"
     inkscape:cy="71.84375"
     inkscape:window-width="3840"
     inkscape:window-height="2034"
     inkscape:window-x="0"
     inkscape:window-y="58"
     inkscape:window-maximized="1"
     inkscape:current-layer="svg213">
    <inkscape:grid
       type="xygrid"
       id="grid1629" />
  </sodipodi:namedview>
  <metadata
     id="metadata217">
    <rdf:RDF>
      <cc:Work
         rdf:about="">
        <dc:format>image/svg+xml</dc:format>
        <dc:type
           rdf:resource="http://purl.org/dc/dcmitype/StillImage" />
        <dc:title />
      </cc:Work>
    </rdf:RDF>
  </metadata>
  <defs
     id="defs3">
    <style
       type="text/css"
       id="current-color-scheme">.ColorScheme-Text { color:#363636; }</style>
  </defs>
  <g
     id="fcitx-pinyin">
    <path
       id="path5"
       fill="currentColor"
       d="m6 3c-1.662 0-3 1.338-3 3v10c0 1.662 1.338 3 3 3h10c1.662 0 3-1.338 3-3v-10c0-1.662-1.338-3-3-3zm4.9004 1.7012 1.5 2-0.39844 0.29883h1.9961l-0.39844-0.29883 1.5-2 0.80078 0.59961-1.2754 1.6992h2.375v1h-2v3h2v1h-2v5h-1v-5h-2.041c-0.096 1.119-0.47678 2.0286-0.92578 2.8066-0.621 1.075-1.6914 2.0586-1.6914 2.0586l-0.68359-0.72852s1.0128-0.97008 1.5098-1.8301c0.402-0.695 0.70497-1.4116 0.79297-2.3066h-1.9609v-0.94141l-1 0.5v5.4414h-3v-1h2v-3.9395l-1.7773 0.88672-0.44531-0.89453 2.2227-1.1113v-2.9414h-2v-1h2v-2h1v2h1v1h-1v2.4395l0.77734-0.38672 0.44531 0.89453-0.10547 0.052734h1.8828v-3h-1v-1h1.375l-1.2754-1.6992zm1.0996 3.2988v3h2v-3z"
       class="ColorScheme-Text" />
    <path
       id="path7"
       fill="none"
       d="m0 0h22v22h-22z" />
  </g>
  <g
     id="fcitx-shuangpin">
    <path
       id="path10"
       fill="currentColor"
       d="m50 3c-1.662 0-3 1.338-3 3v10c0 1.662 1.338 3 3 3h10c1.662 0 3-1.338 3-3v-10c0-1.662-1.338-3-3-3h-10zm-1 2h5.5488l-0.050781 0.54883s-0.32761 3.5209-1.2246 6.1289c0.6511 0.97991 1.2642 1.9846 1.8379 3.0117l-0.86914 0.49024c-0.53902-0.954-0.98488-1.689-1.4219-2.375-1.395 3.125-3.3652 4.4883-3.3652 4.4883l-0.55664-0.83203s1.9707-1.3133 3.2637-4.6562c-0.766-1.106-1.6347-2.2202-3.0527-3.9902l0.78125-0.62695c1.181 1.475 1.974 2.4921 2.668 3.4551 0.552-1.906 0.79814-3.9996 0.86914-4.6426h-4.4277v-1zm6 0h6v0.5c0 2.147-0.83303 4.9682-1.707 6.9082-0.111 0.246-0.24219 0.46536-0.36719 0.69336 0.624 1.083 1.4598 2.1135 2.8438 3.2305l-0.62695 0.7793c-1.282-1.034-2.1467-2.0405-2.8027-3.0645-1.394 1.987-3.1035 3.0371-3.1035 3.0371l-0.51758-0.85547s1.7804-1.1006 3.0684-3.1426c-0.337-0.649-0.62072-1.3072-0.88672-1.9922-0.75795-1.957-1.2085-4.5018-1.3105-5.0938h-0.58984v-1zm1.6074 1c0.14 0.765 0.56855 3.0334 1.2266 4.7324 0.16738 0.43214 0.34714 0.85943 0.53906 1.2812l0.007812-0.015625c0.75703-1.68 1.434-4.145 1.543-5.998h-3.3164z"
       class="ColorScheme-Text" />
    <path
       id="path12"
       fill="none"
       d="m44 0h22v22h-22z" />
  </g>
  <g
     id="fcitx-wubi">
    <path
       id="path15"
       fill="currentColor"
       d="m160 3c-1.662 0-3 1.338-3 3v10c0 1.662 1.338 3 3 3h10c1.662 0 3-1.338 3-3v-10c0-1.662-1.338-3-3-3h-10zm0 3h9v1h-4.0977l-0.66601 3h3.7637v5h2v1h-10v-1h2.0996l0.88867-4h-1.9883v-1h2.2109l0.66601-3h-3.877v-1zm4.0137 5-0.89062 4h3.877v-4h-2.9863z"
       class="ColorScheme-Text" />
    <path
       id="path17"
       fill="none"
       d="m154 0h22v22h-22z" />
  </g>
  <g
     id="fcitx-googlepinyin">
    <path
       id="path20"
       fill="currentColor"
       d="m6 47.002c-1.662 0-3 1.338-3 3v10c0 1.662 1.338 3 3 3h10c1.662 0 3-1.338 3-3v-10c0-1.662-1.338-3-3-3h-10zm5.0078 2.5c1.2953 1.74e-4 2.5487 0.45811 3.5391 1.293l-1.291 1.5293c-1.3385-1.1366-3.3132-1.1006-4.6094 0.083984-1.3038 1.177-1.5296 3.1396-0.52734 4.582 1 1.45 2.9007 1.9289 4.4707 1.1289 0.8479-0.43334 1.4796-1.1972 1.7461-2.1113h-3.3359v-2h3.3438l-0.001953-0.007812h2.0566c0.434 2.355-0.70844 4.7834-2.8984 5.9004-2.4559 1.2473-5.4557 0.49008-7.0254-1.7734-1.5619-2.2691-1.2092-5.3429 0.82617-7.1992 0.98671-0.89547 2.2654-1.4015 3.5977-1.4238 0.03645-0.00103 0.072915-0.001649 0.10937-0.001953z"
       class="ColorScheme-Text" />
    <path
       id="path22"
       fill="none"
       d="m0 44h22v22h-22z" />
  </g>
  <g
     id="fcitx-sunpinyin">
    <path
       id="path25"
       fill="currentColor"
       d="m33 45.514c-0.256 0-0.511 0.099-0.707 0.295l-2.191 2.191h-3.102c-0.554 0-1 0.446-1 1v3.1l-2.193 2.193a0.998 0.998 0 0 0 0 1.414l2.193 2.193v3.1c0 0.554 0.446 1 1 1h3.1l2.193 2.193a0.998 0.998 0 0 0 1.414 0l2.193-2.193h3.1c0.554 0 1-0.446 1-1v-3.102l2.191-2.191a0.998 0.998 0 0 0 0-1.414l-2.191-2.191v-3.102c0-0.554-0.446-1-1-1h-3.102l-2.191-2.191a0.998 0.998 0 0 0-0.707-0.295zm-0.1 3.186 1.5 2-0.398 0.299h1.996l-0.398-0.299 1.5-2 0.8 0.6-1.275 1.7h2.375v1h-2v3h2v1h-2v5h-1v-5h-2.041c-0.096 1.119-0.477 2.03-0.926 2.807-0.62 1.075-1.691 2.058-1.691 2.058l-0.684-0.728s1.013-0.97 1.51-1.83c0.401-0.695 0.704-1.412 0.793-2.307h-1.961v-0.941l-1 0.5v5.441h-3v-1h2v-3.941l-1.777 0.888-0.446-0.894 2.223-1.113v-2.94h-2v-1h2v-2h1v2h1v1h-1v2.441l0.777-0.388 0.446 0.894-0.106 0.053h1.883v-3h-1v-1h1.375l-1.275-1.7 0.8-0.599zm1.1 3.3v3h2v-3z"
       class="ColorScheme-Text" />
    <path
       id="path27"
       fill="none"
       d="m22 44h22v22h-22z" />
  </g>
  <g
     transform="translate(0 -38)"
     id="fcitx-emoji">
    <path
       id="path30"
       fill="none"
       d="M0 170h22v22H0z" />
    <path
       id="path32"
       fill="currentColor"
       d="M3.223 150.053l-.446.894 4 2 .446-.894-4-2zm15.554 0l-4 2 .446.894 4-2-.446-.894zM4 153a1 1 0 0 0-1 1 1 1 0 0 0 1 1 1 1 0 0 0 1-1 1 1 0 0 0-1-1zm14 0a1 1 0 0 0-1 1 1 1 0 0 0 1 1 1 1 0 0 0 1-1 1 1 0 0 0-1-1zm-9.9 1.7c-.81 1.08-1.235 2.288-1.16 3.335.037.524.21 1.022.568 1.39.358.37.888.575 1.492.575.961 0 1.639-.68 2-1.457.361.776 1.039 1.457 2 1.457.604 0 1.134-.205 1.492-.574.359-.37.531-.867.569-1.39.074-1.048-.35-2.257-1.16-3.337l-.801.602c.69.92 1.015 1.961.964 2.664-.025.351-.133.603-.29.765-.158.163-.378.27-.774.27-.528 0-.84-.307-1.107-.895-.268-.587-.393-1.41-.393-2.105h-1c0 .694-.125 1.518-.393 2.105-.267.588-.58.895-1.107.895-.396 0-.616-.107-.773-.27-.158-.162-.266-.414-.291-.765-.05-.703.274-1.744.964-2.664l-.8-.602z"
       transform="translate(0 26)"
       class="ColorScheme-Text" />
  </g>
  <g
     id="fcitx-erbi">
    <path
       id="path35"
       fill="currentColor"
       d="m138 3c-1.662 0-3 1.338-3 3v10c0 1.662 1.338 3 3 3h10c1.662 0 3-1.338 3-3v-10c0-1.662-1.338-3-3-3h-10zm0 4h10v1h-10v-1zm-1 7h12v1h-12v-1z"
       class="ColorScheme-Text" />
    <path
       id="path37"
       fill="none"
       d="m132 0h22v22h-22z" />
  </g>
  <g
     id="fcitx-ziranma">
    <path
       id="path40"
       fill="currentColor"
       d="m204 3c-1.662 0-3 1.338-3 3v10c0 1.662 1.338 3 3 3h10c1.662 0 3-1.338 3-3v-10c0-1.662-1.338-3-3-3h-10zm3.6797 1.6152 0.64062 0.76953-1.9375 1.6152h7.6172v10h-10v-10h0.81836l2.8613-2.3848zm-2.6797 3.3848v2h6v1h-6v2h6v1h-6v2h8v-8h-8z"
       class="ColorScheme-Text" />
    <path
       id="path42"
       fill="none"
       d="m198 0h22v22h-22z" />
  </g>
  <g
     id="fcitx-quanpin">
    <path
       id="path45"
       fill="currentColor"
       d="m28 3c-1.662 0-3 1.338-3 3v10c0 1.662 1.338 3 3 3h10c1.662 0 3-1.338 3-3v-10c0-1.662-1.338-3-3-3h-10zm4.5098 1.9023 0.98047 0.19531c-0.00999 0.049996-0.033875 0.096484-0.046875 0.14648 1.877 2.289 5.7324 3.7871 5.7324 3.7871l-0.35156 0.9375s-0.80822-0.32089-1.8242-0.83789v0.86914h-3.5v2h2.5v1h-2.5v3h4.5v1h-10v-1h4.5v-3h-2.5v-1h2.5v-2h-3.5v-0.82422c-1.03 0.501-1.8301 0.79492-1.8301 0.79492l-0.33984-0.94141s1.3413-0.48934 2.7363-1.2773c1.396-0.789 2.7574-1.9196 2.9434-2.8496zm0.49023 1.3301c-0.668 0.996-1.8454 1.7716-2.9414 2.3906-0.247 0.14-0.4837 0.25595-0.7207 0.37695h7.3965c-1.191-0.63-2.6184-1.5526-3.7344-2.7676z"
       class="ColorScheme-Text" />
    <path
       id="path47"
       fill="none"
       d="m22 0h22v22h-22z" />
  </g>
  <g
     id="fcitx-cangjie">
    <path
       id="path50"
       fill="currentColor"
       d="m226 3c-1.662 0-3 1.338-3 3v10c0 1.662 1.338 3 3 3h10c1.662 0 3-1.338 3-3v-10c0-1.662-1.338-3-3-3h-10zm4.584 1.7227h0.83204c1.844 2.765 5.6465 3.2812 5.6465 3.2812l-0.125 0.99219c0-1e-7 -0.8335-0.12316-1.9375-0.53516v4.5391h-7.0547c-0.04124 0.33966-0.11515 0.67454-0.2207 1h7.2754v3h-8v-1.377c-0.022 0.04-0.04441 0.086-0.06641 0.125-0.52103 0.91105-1.043 1.5645-1.043 1.5645l-0.78124-0.625c-1e-5 0 0.47703-0.59555 0.95703-1.4355 0.48-0.839 0.93359-1.919 0.93359-2.752v-4.0391c-1.104 0.411-1.9375 0.53516-1.9375 0.53516l-0.125-0.99219s3.8025-0.51625 5.6465-3.2812zm0.41602 0.98047c-0.859 1.07-1.9336 1.7989-2.9336 2.2969h2.5312l-0.875-0.58398 0.55468-0.83203 1.5 1-0.27734 0.41602h2.4336c-1.001-0.498-2.0746-1.2269-2.9336-2.2969zm-3 3.2969v1h5v1h-5v1h6v-3h-6zm0 6v1h6v-1h-6z"
       class="ColorScheme-Text" />
    <path
       id="path52"
       fill="none"
       d="m220 0h22v22h-22z" />
  </g>
  <g
     id="fcitx-bopomofo">
    <path
       id="path55"
       fill="currentColor"
       d="m72 3c-1.662 0-3 1.338-3 3v10c0 1.662 1.338 3 3 3h10c1.662 0 3-1.338 3-3v-10c0-1.662-1.338-3-3-3h-10zm5.3008 1.5996 2 1.5-0.60156 0.80078-2-1.5 0.60156-0.80078zm-5.9473 0.046875 2 2-0.70703 0.70703-2-2 0.70703-0.70703zm2.6465 2.3535h9v1h-4v3h3v1h-3v4h4v1h-9v-1h4v-4h-3v-1h3v-3h-4v-1zm-2.6465 0.64648 2 2-0.70703 0.70703-2-2 0.70703-0.70703zm1.1719 3.1953 0.94922 0.31641-2 6-0.94922-0.31641 2-6z"
       class="ColorScheme-Text" />
    <path
       id="path57"
       fill="none"
       d="m66 0h22v22h-22z" />
  </g>
  <g
     id="fcitx-chewing">
    <path
       id="path60"
       fill="currentColor"
       d="m94 3c-1.662 0-3 1.338-3 3v10c0 1.662 1.338 3 3 3h10c1.662 0 3-1.338 3-3v-10c0-1.662-1.338-3-3-3h-10zm-1 2h6v1h-2v3h2l-0.40039-0.30078c0-1e-7 1.4004-1.9492 1.4004-3.6992h1c0 0.709-0.16481 1.389-0.38281 2h1.3828v-2h1v2h2v1h-2v2h2v1h-5v-1h2v-2h-1.8027c-0.398 0.79002-0.79688 1.3008-0.79688 1.3008l-0.40039-0.30078v8h-6v-8h1v-3h-1v-1zm2 1v3h1v-3h-1zm0 4v3h-1v1h3v1h-3v1h4v-6h-1v3h-1v-3h-1zm5 2h5v5h-5v-5zm1 1v3h3v-3h-3z"
       class="ColorScheme-Text" />
    <path
       id="path62"
       fill="none"
       d="m88 0h22v22h-22z" />
  </g>
  <g
     id="fcitx-rime">
    <path
       id="path65"
       fill="currentColor"
       d="m116 3c-1.662 0-3 1.338-3 3v10c0 1.662 1.338 3 3 3h10c1.662 0 3-1.338 3-3v-10c0-1.662-1.338-3-3-3h-10zm4 2h1v6.9824c1.811-0.082 2.7207-0.60619 3.2617-1.4922 0.59-0.965 0.73828-2.5102 0.73828-4.4902h1c0 2.02-0.10172 3.7248-0.88672 5.0098-0.726 1.189-2.0633 1.8747-4.1133 1.9707v3.0195h5v1h-11v-1h5v-3.0195c-2.05-0.096-3.3873-0.7817-4.1133-1.9707-0.785-1.285-0.88672-2.9898-0.88672-5.0098h1c0 1.98 0.14828 3.5252 0.73828 4.4902 0.542 0.88601 1.4507 1.4112 3.2617 1.4922v-6.9824z"
       class="ColorScheme-Text" />
    <path
       id="path67"
       fill="none"
       d="m110 0h22v22h-22z" />
  </g>
  <g
     transform="translate(0 -60)"
     id="fcitx-unikey">
    <path
       id="path70"
       fill="none"
       d="M0 170h22v22H0z" />
    <path
       id="path72"
       fill="currentColor"
       d="M4 126v8h3v7h8v-7h3v-8h-7zm1 1h6v6H5zm7 0h5v6h-5zm-6 1v1.5c0 .806.123 1.423.484 1.875.362.452.933.625 1.516.625s1.154-.173 1.516-.625c.361-.452.484-1.07.484-1.875V128H9v1.5c0 .694-.127 1.077-.266 1.25-.138.173-.317.25-.734.25s-.596-.077-.734-.25c-.139-.173-.266-.556-.266-1.25V128zm8 0v4h1v-4zm-6 6h6v6H8zm2 1H9v4h1v-2.498L12 139h1v-4h-1v2.498z"
       transform="translate(0 48)"
       class="ColorScheme-Text" />
  </g>
  <g
     id="fcitx-anthy"><path
   id="path75"
   fill="none"
   d="m0 66h22v22h-22z" />
<path
   id="path77"
   fill="currentColor"
   d="m11 69c-1.099 0-2 0.901-2 2v2e-3c1e-3 0.609 0.333 1.122 0.795 1.496-0.145 0.976-0.373 2.233-0.77 3.256-0.211 0.546-0.467 1.014-0.734 1.316s-0.507 0.43-0.791 0.43c-0.298 0-0.54-0.111-0.793-0.348-0.253-0.236-0.495-0.6-0.701-1.037-0.38-0.804-0.608-1.815-0.762-2.644 0.44-0.375 0.756-0.88 0.756-1.471 0-1.099-0.901-2-2-2s-2 0.901-2 2c1e-3 0.821 0.564 1.455 1.299 1.758l1.781 10.242h11.84l1.781-10.24c0.736-0.303 1.3-0.938 1.299-1.76 0-1.099-0.901-2-2-2s-2 0.901-2 2c0 0.592 0.316 1.096 0.756 1.47-0.154 0.83-0.382 1.841-0.762 2.645-0.206 0.436-0.448 0.801-0.701 1.037-0.254 0.237-0.495 0.348-0.793 0.348-0.284 0-0.524-0.128-0.791-0.43-0.267-0.301-0.523-0.77-0.734-1.316-0.397-1.022-0.625-2.278-0.77-3.254 0.462-0.374 0.795-0.89 0.795-1.5 0-1.099-0.901-2-2-2zm0 1c0.558 0 1 0.442 1 1 0 0.384-0.218 0.73-0.563 0.898l-0.326 0.159-0.222-2e-3 -0.326-0.159c-0.34326-0.16677-0.56168-0.51437-0.563-0.896v-2e-3c-0.00337-0.55335 0.44666-1.0025 1-0.998zm-7 1c0.558 0 1 0.442 1 1 6.06e-4 0.37382-0.20836 0.71643-0.541 0.887l-0.293 0.152-0.328-0.055c-0.48378-0.07645-0.83956-0.49422-0.838-0.984 0-0.558 0.442-1 1-1zm14 0c0.558 0 1 0.442 1 1 0 0.493-0.35 0.907-0.838 0.986l-0.326 0.055-0.295-0.154c-0.33264-0.17057-0.54161-0.51318-0.541-0.887 0-0.558 0.442-1 1-1z"
   class="ColorScheme-Text" />






fill=&quot;currentColor&quot;/&gt;
 </g>
  <g
     id="fcitx-libkkc">
    <path
       id="path80"
       fill="currentColor"
       d="m28 69c-1.662 0-3 1.338-3 3v10c0 1.662 1.338 3 3 3h10c1.662 0 3-1.338 3-3v-10c0-1.662-1.338-3-3-3h-10zm-1 4h1v4.293l2.293-2.293h0.70703v-2h1v4.293l2.293-2.293h1.4141l-3 3 3 3h-1.4141l-2.293-2.293v2.293h-1.707l-2.293-2.293v2.293h-1v-8zm10 2c0.58298 0 1.1095 0.15448 1.4785 0.52148 0.367 0.369 0.52148 0.89552 0.52148 1.4785h-1c0-0.417-0.095516-0.63948-0.22852-0.77148-0.131-0.133-0.35448-0.22852-0.77148-0.22852s-0.63948 0.095516-0.77148 0.22852c-0.133 0.131-0.22852 0.35448-0.22852 0.77148v2c0 0.417 0.095516 0.64048 0.22852 0.77148 0.131 0.133 0.35448 0.22852 0.77148 0.22852s0.63948-0.095516 0.77148-0.22852c0.133-0.131 0.22852-0.35448 0.22852-0.77148h1c0 0.58298-0.15448 1.1105-0.52148 1.4785-0.369 0.367-0.89554 0.52148-1.4785 0.52148s-1.1105-0.15448-1.4785-0.52148c-0.367-0.369-0.52148-0.89552-0.52148-1.4785v-2c0-0.58298 0.15448-1.1105 0.52148-1.4785 0.369-0.367 0.89552-0.52148 1.4785-0.52148zm-6 0.70703-2.293 2.293 2.293 2.293v-4.5859z"
       class="ColorScheme-Text" />
    <path
       id="path82"
       fill="none"
       d="m22 66h22v22h-22z" />
  </g>
  <g
     id="fcitx-libskk">
    <path
       id="path85"
       fill="currentColor"
       d="m50 69c-1.662 0-3 1.338-3 3v10c0 1.662 1.338 3 3 3h10c1.662 0 3-1.338 3-3v-10c0-1.662-1.338-3-3-3h-10zm3 4h1v4.293l2.293-2.293h0.70703v-2h1v4.293l2.293-2.293h1.4141l-3 3 3 3h-1.4141l-2.293-2.293v2.293h-1.707l-2.293-2.293v2.293h-1v-2c0 0.58298-0.15448 1.1105-0.52148 1.4785-0.369 0.367-0.89554 0.52148-1.4785 0.52148s-1.1105-0.15448-1.4785-0.52148c-0.367-0.369-0.52148-0.89552-0.52148-1.4785h1c0 0.417 0.095516 0.64048 0.22852 0.77148 0.131 0.133 0.35448 0.22852 0.77148 0.22852s0.63948-0.095516 0.77148-0.22852c0.133-0.131 0.22852-0.35448 0.22852-0.77148s-0.095516-0.63948-0.22852-0.77148c-0.131-0.133-0.35448-0.22852-0.77148-0.22852-0.58298 0-1.1105-0.15448-1.4785-0.52148-0.367-0.369-0.52148-0.89554-0.52148-1.4785s0.15448-1.1105 0.52148-1.4785c0.369-0.367 0.89554-0.52148 1.4785-0.52148s1.1095 0.15448 1.4785 0.52148c0.367 0.369 0.52148 0.89552 0.52148 1.4785v-3zm0 3h-1c0-0.417-0.095516-0.63948-0.22852-0.77148-0.131-0.133-0.35448-0.22852-0.77148-0.22852s-0.63948 0.095516-0.77148 0.22852c-0.133 0.131-0.22852 0.35448-0.22852 0.77148s0.095516 0.64048 0.22852 0.77148c0.131 0.133 0.35448 0.22852 0.77148 0.22852 0.58298 0 1.1095 0.15448 1.4785 0.52148 0.367 0.369 0.52148 0.89552 0.52148 1.4785v-3zm4-0.29297-2.293 2.293 2.293 2.293v-4.5859z"
       class="ColorScheme-Text" />
    <path
       id="path87"
       fill="none"
       d="m44.021 66.021h22v22h-22z" />
  </g>
  <g
     id="fcitx-hangul">
    <path
       id="path90"
       fill="currentColor"
       d="m6 91c-1.662 0-3 1.338-3 3v10c0 1.662 1.338 3 3 3h10c1.662 0 3-1.338 3-3v-10c0-1.662-1.338-3-3-3h-10zm2 2h2v1h-2v-1zm6 1h1v3h2v1h-2v4h-1v-8zm-8 1h6v1h-6v-1zm3 2c1.597 0 3 1.058 3 2.5s-1.403 2.5-3 2.5-3-1.058-3-2.5 1.403-2.5 3-2.5zm0 1c-1.165 0-2 0.733-2 1.5s0.835 1.5 2 1.5 2-0.733 2-1.5-0.835-1.5-2-1.5zm-1 5h1v1h7v1h-8v-2z"
       class="ColorScheme-Text" />
    <path
       id="path92"
       fill="none"
       d="m0 88h22v22h-22z" />
  </g>
  <circle
     id="circle95"
     fill="currentColor"
     r="0"
     cy="99"
     cx="143"
     class="ColorScheme-Text" />
  <g
     transform="translate(154 -82)"
     id="fcitx-fullwidth-inactive">
    <path
       id="path97"
       fill="none"
       d="M0 170h22v22H0z" />
    <path
       id="path99"
       fill="currentColor"
       d="M167.566 91.432A8 8 0 0 1 168 94a8 8 0 0 1-8 8 8 8 0 0 1-2.566-.432A8 8 0 0 0 165 107a8 8 0 0 0 8-8 8 8 0 0 0-5.434-7.568z"
       transform="translate(-154 82)"
       class="ColorScheme-Text" />
  </g>
  <g
     transform="translate(154 -60)"
     id="fcitx-punc-inactive">
    <path
       id="path102"
       fill="none"
       d="M0 170h22v22H0z" />
    <circle
       id="circle104"
       fill="currentColor"
       r="1.5"
       cy="180.5"
       cx="7.5"
       class="ColorScheme-Text" />
    <path
       id="path106"
       fill="currentColor"
       d="M14.5 179a1.5 1.5 0 0 0-1.5 1.5 1.5 1.5 0 0 0 1.5 1.5 1.5 1.5 0 0 0 .047-.002c-.533.94-1.348 1.602-1.348 1.602l.602.8s1.967-1.426 2.162-3.572A1.5 1.5 0 0 0 16 180.5a1.5 1.5 0 0 0-1.5-1.5z"
       class="ColorScheme-Text" />
  </g>
  <g
     transform="translate(132 -60)"
     id="fcitx-punc-active">
    <path
       id="path109"
       fill="currentColor"
       d="M7.5 178a2.508 2.508 0 0 0-2.5 2.5c0 1.375 1.125 2.5 2.5 2.5s2.5-1.125 2.5-2.5-1.125-2.5-2.5-2.5zm0 1c.834 0 1.5.666 1.5 1.5s-.666 1.5-1.5 1.5-1.5-.666-1.5-1.5.666-1.5 1.5-1.5z"
       class="ColorScheme-Text" />
    <path
       id="path111"
       fill="none"
       d="M0 170h22v22H0z" />
    <path
       id="path113"
       fill="currentColor"
       d="M212.5 96a2.508 2.508 0 0 0-2.5 2.5c0 1.375 1.125 2.5 2.5 2.5.365 0 .71-.084 1.023-.227a3.874 3.874 0 0 1-1.306 1.502c-.895.616-1.78.729-1.78.729l.125.992s1.116-.137 2.221-.896c1.105-.76 2.217-2.202 2.217-4.6 0-1.375-1.125-2.5-2.5-2.5zm0 1c.834 0 1.5.666 1.5 1.5s-.666 1.5-1.5 1.5-1.5-.666-1.5-1.5.666-1.5 1.5-1.5z"
       transform="translate(-198 82)"
       class="ColorScheme-Text" />
  </g>
  <g
     transform="translate(132 -38)"
     id="fcitx-chttrans-inactive">
    <path
       id="path116"
       fill="none"
       d="M0 170h22v22H0z" />
    <path
       id="path118"
       fill="currentColor"
       d="M138.81 113.406c-.507 1.367-1.347 2.598-2.519 3.692l.996.761c.195-.039.742-.722 1.64-2.05h.762c.43.625.801 1.27 1.114 1.933l1.172-.644-.938-1.29h2.05v-1.113h-3.632l.469-.937-1.113-.352zm6.036 0c-.47 1.328-1.27 2.54-2.403 3.633l.996.762c.665-.625 1.172-1.29 1.524-1.992h.996c.43.586.8 1.21 1.113 1.875l1.055-.645c-.273-.43-.566-.84-.879-1.23h2.461v-1.114h-4.16c.156-.312.293-.625.41-.937l-1.113-.352zm-5.45 4.102l-.996.586c.547.547.957 1.094 1.23 1.64l1.114-.586a7.528 7.528 0 0 0-1.348-1.64zm1.993.527v.996h6.386v6.035c0 .547-.136.82-.41.82-.39 0-.898-.019-1.523-.058l.293 1.113c.547.04 1.015.059 1.406.059.469 0 .82-.137 1.055-.41.234-.274.351-.664.351-1.172v-7.383h-7.558zm-3.985 1.582V127h1.172v-7.383h-1.172zm2.871.645v5.039h5.391v-5.04h-5.39zm1.114.996h3.164v.996h-3.164v-.996zm0 1.933h3.164v1.114h-3.164v-1.114zM135 128v1h16v-1h-16z"
       transform="translate(-132 60)"
       class="ColorScheme-Text" />
  </g>
  <g
     transform="translate(154 -38)"
     id="fcitx-chttrans-active">
    <path
       id="path121"
       fill="none"
       d="M0 170h22v22H0z" />
    <path
       id="path123"
       fill="currentColor"
       d="M160.02 113.465c-.313.703-.899 1.387-1.758 2.05l.82.645c.39-.273.762-.644 1.113-1.113h5.45v-.879h-4.864c.04-.117.098-.254.176-.41l-.937-.293zm7.148 0a9.114 9.114 0 0 1-1.875 3.34l.703.761.586-.703a6.784 6.784 0 0 0 1.23 1.524c-.625.508-1.367.957-2.226 1.347l.82.88a14.66 14.66 0 0 0 2.227-1.466 14.006 14.006 0 0 0 2.344 1.465l.761-.937c-.937-.39-1.738-.82-2.402-1.29a6.443 6.443 0 0 0 1.406-2.519h.82v-.996h-3.867l.47-1.113-.997-.293zm-7.266 2.285l-.351 1.7h-1.172v.937h.996l-.352 1.758h4.395v.351h.996l.059-.351H165v-.88h-.469l.117-.878h.938v-.938h-.82l.234-1.699h-5.098zm7.325.117h2.402c-.195.664-.547 1.29-1.055 1.875a10.674 10.674 0 0 1-1.406-1.758c.04-.039.059-.078.059-.117zm-6.446.703h.762c.195.235.39.528.586.88h-1.524l.176-.88zm1.7 0h1.464l-.117.88h-.762l-.586-.88zm-1.993 1.817h.762c.195.234.41.527.645.879h-1.583l.176-.88zm1.758 0h1.465l-.176.879h-.762a6.542 6.542 0 0 0-.527-.88zm5.684 1.933c-1.25.742-2.11 1.153-2.578 1.23-.704.118-1.954.196-3.75.235a8.109 8.109 0 0 0 1.875-.879l-.762-.527c-.781.547-1.758.976-2.93 1.289l.117.82c1.172 0 2.364-.039 3.575-.117-1.25.469-2.774.879-4.57 1.23l.175.938c1.758 0 3.535-.059 5.332-.176v1.23c0 .313-.117.47-.351.47-.43 0-.86-.06-1.29-.176l.176 1.054c.352.079.723.118 1.114.118.625 0 1.035-.098 1.23-.293.195-.196.293-.528.293-.996v-1.524a69.146 69.146 0 0 0 3.984-.469c.313.313.586.645.82.996l1.114-.527a14.92 14.92 0 0 0-2.813-2.578l-1.054.469c.43.273.82.586 1.172.937-1.563.313-3.965.528-7.207.645 2.617-.586 5.039-1.504 7.265-2.754l-.937-.645zm-.88 4.278l-.468.937c1.29.313 2.578.742 3.867 1.29l.469-.997c-1.211-.469-2.5-.879-3.867-1.23zm-4.687.117c-1.133.469-2.383.84-3.75 1.113l.703.996c1.485-.39 2.754-.898 3.809-1.523l-.762-.586zM157 128v1h16v-1h-16z"
       transform="translate(-154 60)"
       class="ColorScheme-Text" />
  </g>
  <g
     transform="translate(22)"
     id="fcitx-handwriting-inactive"><path
   id="path142"
   fill="currentColor"
   d="m235.14 112.57-3.272 12.207 1.07 3.739 2.795-2.703 3.27-12.207-0.482-0.131zm0.707 1.223 1.931 0.518-0.26 0.968-1.931-0.52zm-11.522 5.66c-0.21558 7e-3 -0.4306 0.0257-0.644 0.057-0.66267 0.0767-0.54767 1.0707 0.115 0.994 7e-3 -5.2e-4 0.014-1e-3 0.021-2e-3 0.42-0.058 0.71-0.056 0.872-0.03 0.16 0.027 0.164 0.058 0.152 0.042-0.012-0.017 6e-3 -0.01-6e-3 0.092-0.0266 0.15379-0.0685 0.30454-0.125 0.45-0.134 0.374-0.351 0.824-0.41 1.327-0.03 0.251-0.015 0.54 0.133 0.806 0.147 0.268 0.42 0.468 0.738 0.575 0.153 0.05 0.213 0.04 0.309 0.045 0.095 4e-3 0.2 5e-3 0.316 5e-3 0.231 0 0.504-3e-3 0.758 4e-3 0.032 1e-3 0.047 6e-3 0.078 8e-3 -0.09 0.056-0.146 0.098-0.252 0.158-0.533 0.301-1.218 0.645-1.781 1.022-0.282 0.188-0.536 0.383-0.737 0.621-0.2 0.238-0.37 0.576-0.287 0.95 0.083 0.372 0.37 0.631 0.73 0.825 0.361 0.195 0.834 0.352 1.481 0.498 1.051 0.238 2.36 0.169 3.543 0.221s2.169 0.26 2.553 0.703c0.43478 0.53533 1.224-0.15134 0.754-0.656-0.756-0.871-2.016-0.992-3.262-1.047s-2.55-0.01-3.367-0.195c-0.596-0.135-1-0.28-1.227-0.403-0.227-0.122-0.235-0.195-0.228-0.162s-0.019 0.023 0.076-0.09c0.15702-0.16564 0.33405-0.3111 0.527-0.433 0.482-0.322 1.152-0.663 1.717-0.982 0.26187-0.14135 0.51319-0.30144 0.752-0.479 0.214-0.166 0.466-0.33 0.477-0.752 6e-3 -0.246-0.165-0.47-0.305-0.564-0.12064-0.0787-0.2555-0.13305-0.397-0.16-0.26932-0.0542-0.54328-0.082-0.818-0.083-0.282-8e-3 -0.562-4e-3 -0.783-4e-3 -0.11 0-0.206 0-0.272-3e-3 -0.0215-1e-3 -0.0429-4e-3 -0.064-8e-3 0.012 4e-3 0.013 7e-3 0.027 0.011-0.05-0.016-0.047-0.015-0.027-0.011-0.114-0.043-0.142-0.077-0.154-0.098-0.013-0.023-0.03-0.08-0.016-0.205 0.03-0.25 0.206-0.675 0.36-1.105 0.076-0.216 0.148-0.436 0.175-0.678 0.028-0.242 6e-3 -0.535-0.176-0.787-0.181-0.252-0.478-0.39-0.798-0.444-0.17458-0.0275-0.35136-0.0385-0.528-0.033z"
   transform="translate(-22)"
   class="ColorScheme-Text" />






fill=&quot;currentColor&quot;/&gt;
  <path
   id="path144"
   fill="none"
   d="m198 110h22v22h-22z" />
<path
   id="path146"
   fill="none"
   d="m198 110h22v22h-22z" />
</g>
  <g
     transform="translate(22)"
     id="fcitx-remind-inactive"><path
   id="path159"
   fill="currentColor"
   d="m209 91c-3.308 0-6 2.692-6 6-4.2e-4 0.01902 2e-4 0.03769 2e-3 0.05664 0.014 2.321 0.85914 3.5095 1.6191 4.3945 0.764 0.893 1.3789 1.4418 1.3789 3.0488v2.5h2v1h2v-1h2v-2.5c0-1.607 0.63462-2.304 1.3906-3.25 0.75-0.936 1.5885-2.1035 1.6055-4.1875 0.00295-0.020559 0.00386-0.041769 0.00386-0.062499 0-3.308-2.692-6-6-6zm-1.8535 6.1465h0.70704l1.1465 1.1465 1.1465-1.1465h0.70704l1.5 1.5-0.70704 0.70703-1.1465-1.1465-1.1465 1.1465h-0.70704l-1.1465-1.1465-1.1465 1.1465-0.70704-0.70703z"
   class="ColorScheme-Text" />






fill=&quot;currentColor&quot;/&gt;
  <path
   id="path161"
   fill="none"
   d="m198 88h22v22h-22z" />
</g>
  <g
     transform="translate(0,22)"
     id="fcitx-pinyin-libpinyin">
    <path
       id="path176"
       fill="currentColor"
       d="m6 3c-1.662 0-3 1.338-3 3v10c0 1.662 1.338 3 3 3h10c1.662 0 3-1.338 3-3v-10c0-1.662-1.338-3-3-3zm4.9004 1.7012 1.5 2-0.39844 0.29883h1.9961l-0.39844-0.29883 1.5-2 0.80078 0.59961-1.2754 1.6992h2.375v1h-2v3h2v1h-2v5h-1v-5h-2.041c-0.096 1.119-0.47678 2.0286-0.92578 2.8066-0.621 1.075-1.6914 2.0586-1.6914 2.0586l-0.68359-0.72852s1.0128-0.97008 1.5098-1.8301c0.402-0.695 0.70497-1.4116 0.79297-2.3066h-1.9609v-0.94141l-1 0.5v5.4414h-3v-1h2v-3.9395l-1.7773 0.88672-0.44531-0.89453 2.2227-1.1113v-2.9414h-2v-1h2v-2h1v2h1v1h-1v2.4395l0.77734-0.38672 0.44531 0.89453-0.10547 0.052734h1.8828v-3h-1v-1h1.375l-1.2754-1.6992zm1.0996 3.2988v3h2v-3z"
       class="ColorScheme-Text" />
    <path
       id="path178"
       fill="none"
       d="m0 0h22v22h-22z" />
  </g>
  <g
     transform="translate(0,22)"
     id="fcitx-shuangpin-libpinyin">
    <path
       id="path181"
       fill="currentColor"
       d="m 50,3 c -1.662,0 -3,1.338 -3,3 v 10 c 0,1.662 1.338,3 3,3 h 10 c 1.662,0 3,-1.338 3,-3 V 6 C 63,4.338 61.662,3 60,3 Z m -1,2 h 5.5488 l -0.05078,0.54883 c 0,0 -0.32761,3.5209 -1.2246,6.1289 0.6511,0.97991 1.2642,1.9846 1.8379,3.0117 l -0.86914,0.49024 c -0.53902,-0.954 -0.98488,-1.689 -1.4219,-2.375 -1.395,3.125 -3.3652,4.4883 -3.3652,4.4883 l -0.55664,-0.83203 c 0,0 1.9707,-1.3133 3.2637,-4.6562 -0.766,-1.106 -1.6347,-2.2202 -3.0527,-3.9902 l 0.78125,-0.62695 c 1.181,1.475 1.974,2.4921 2.668,3.4551 0.552,-1.906 0.79814,-3.9996 0.86914,-4.6426 h -4.4277 z m 6,0 h 6 v 0.5 c 0,2.147 -0.83303,4.9682 -1.707,6.9082 -0.111,0.246 -0.24219,0.46536 -0.36719,0.69336 0.624,1.083 1.4598,2.1135 2.8438,3.2305 l -0.62695,0.7793 c -1.282,-1.034 -2.1467,-2.0405 -2.8027,-3.0645 -1.394,1.987 -3.1035,3.0371 -3.1035,3.0371 l -0.51758,-0.85547 c 0,0 1.7804,-1.1006 3.0684,-3.1426 -0.337,-0.649 -0.62072,-1.3072 -0.88672,-1.9922 -0.75795,-1.957 -1.2085,-4.5018 -1.3105,-5.0938 h -0.58984 z m 1.6074,1 c 0.14,0.765 0.56855,3.0334 1.2266,4.7324 0.16738,0.43214 0.34714,0.85943 0.53906,1.2812 l 0.0078,-0.01563 c 0.75704,-1.68 1.434,-4.145 1.543,-5.998 z"
       class="ColorScheme-Text" />
    <path
       id="path183"
       fill="none"
       d="M 44,0 H 66 V 22 H 44 Z" />
  </g>
  <g
     transform="translate(0,22)"
     id="fcitx-quanpin-libpinyin">
    <path
       id="path186"
       fill="currentColor"
       d="m 28,3 c -1.662,0 -3,1.338 -3,3 v 10 c 0,1.662 1.338,3 3,3 h 10 c 1.662,0 3,-1.338 3,-3 V 6 C 41,4.338 39.662,3 38,3 Z m 4.5098,1.9023 0.98047,0.19531 c -0.01,0.049996 -0.03388,0.096484 -0.04687,0.14648 1.877,2.289 5.7324,3.7871 5.7324,3.7871 l -0.35156,0.9375 c 0,0 -0.80822,-0.32089 -1.8242,-0.83789 v 0.86914 h -3.5 v 2 h 2.5 v 1 h -2.5 v 3 h 4.5 v 1 h -10 v -1 h 4.5 v -3 h -2.5 v -1 h 2.5 v -2 h -3.5 V 9.17572 c -1.03,0.501 -1.8301,0.79492 -1.8301,0.79492 L 26.8301,9.02923 c 0,0 1.3413,-0.48934 2.7363,-1.2773 1.396,-0.789 2.7574,-1.9196 2.9434,-2.8496 z m 0.49023,1.3301 c -0.668,0.996 -1.8454,1.7716 -2.9414,2.3906 -0.247,0.14 -0.4837,0.25595 -0.7207,0.37695 h 7.3965 c -1.191,-0.63 -2.6184,-1.5526 -3.7344,-2.7676 z"
       class="ColorScheme-Text" />
    <path
       id="path188"
       fill="none"
       d="M 22,0 H 44 V 22 H 22 Z" />
  </g>
  <g
     transform="translate(0,22)"
     id="fcitx-bopomofo-libpinyin">
    <path
       id="path191"
       fill="currentColor"
       d="m 72,3 c -1.662,0 -3,1.338 -3,3 v 10 c 0,1.662 1.338,3 3,3 h 10 c 1.662,0 3,-1.338 3,-3 V 6 C 85,4.338 83.662,3 82,3 Z m 5.3008,1.5996 2,1.5 -0.60156,0.80078 -2,-1.5 z m -5.9473,0.046875 2,2 -0.70703,0.70703 -2,-2 z M 74,6.999975 h 9 v 1 h -4 v 3 h 3 v 1 h -3 v 4 h 4 v 1 h -9 v -1 h 4 v -4 h -3 v -1 h 3 v -3 h -4 z m -2.6465,0.64648 2,2 -0.70703,0.70703 -2,-2 z m 1.1719,3.1953 0.94922,0.31641 -2,6 -0.94922,-0.31641 z"
       class="ColorScheme-Text" />
    <path
       id="path193"
       fill="none"
       d="M 66,0 H 88 V 22 H 66 Z" />
  </g>
  <g
     transform="translate(0,22)"
     id="fcitx-chewing-libpinyin">
    <path
       id="path196"
       fill="currentColor"
       d="m 94,3 c -1.662,0 -3,1.338 -3,3 v 10 c 0,1.662 1.338,3 3,3 h 10 c 1.662,0 3,-1.338 3,-3 V 6 c 0,-1.662 -1.338,-3 -3,-3 z m -1,2 h 6 v 1 h -2 v 3 h 2 L 98.59961,8.69922 c 0,-1e-7 1.4004,-1.9492 1.4004,-3.6992 h 1 c 0,0.709 -0.16481,1.389 -0.38281,2 H 102 v -2 h 1 v 2 h 2 v 1 h -2 v 2 h 2 v 1 h -5 v -1 h 2 v -2 h -1.8027 c -0.398,0.79002 -0.79688,1.3008 -0.79688,1.3008 L 99.00003,9.00004 v 8 h -6 v -8 h 1 v -3 h -1 z m 2,1 v 3 h 1 V 6 Z m 0,4 v 3 h -1 v 1 h 3 v 1 h -3 v 1 h 4 v -6 h -1 v 3 h -1 v -3 z m 5,2 h 5 v 5 h -5 z m 1,1 v 3 h 3 v -3 z"
       class="ColorScheme-Text" />
    <path
       id="path198"
       fill="none"
       d="m 88,0 h 22 V 22 H 88 Z" />
  </g>
  <g
     transform="translate(132 -82)"
     id="fcitx-fullwidth-active">
    <rect
       id="rect201"
       fill="none"
       height="22"
       width="22"
       y="170"
       x="-2.471e-9" />
    <ellipse
       id="ellipse203"
       fill="currentColor"
       ry="8"
       rx="8"
       cy="181"
       cx="11"
       class="ColorScheme-Text" />
  </g>
  <g
     id="fcitx-wbpy">
    <path
       id="path206"
       fill="currentColor"
       d="m182 3c-1.662 0-3 1.338-3 3v10c0 1.662 1.338 3 3 3h7v-3h-7v-1h2.0996l0.88867-4h-1.9883v-1h2.2109l0.66601-3h-3.877v-1h9v1h-4.0977l-0.66601 3h3.7637v1.2754c0.295-0.1711 0.63307-0.27539 1-0.27539h4v-5c0-1.662-1.338-3-3-3h-10zm4.0137 8-0.89062 4h3.877v-4h-2.9863z"
       class="ColorScheme-Text" />
    <path
       id="path208"
       fill="none"
       d="m176 0h22v22h-22z" />
    <path
       id="path210"
       stroke-width="1.732"
       stroke-linejoin="round"
       fill="currentColor"
       d="m191 12c-0.554 0-1 0.446-1 1v6c0 0.554 0.446 1 1 1h4c0.554 0 1-0.446 1-1v-6c0-0.554-0.446-1-1-1h-4zm0 0.95703h0.5c0.75 0 1.5317-0.016799 2.2207 0.21289 0.3445 0.11483 0.67639 0.30519 0.91602 0.61328 0.23962 0.30809 0.36328 0.7155 0.36328 1.1738s-0.12366 0.86574-0.36328 1.1738c-0.23963 0.30809-0.57152 0.49845-0.91602 0.61328-0.53383 0.17794-1.1334 0.15946-1.7207 0.16406v2.0488h-1v-6zm1 1.043v1.9141c0.52807-0.0121 1.0828-0.012 1.4043-0.11914 0.218-0.0727 0.35486-0.16356 0.44336-0.27734 0.0885-0.11379 0.15234-0.26888 0.15234-0.56055s-0.0638-0.44676-0.15234-0.56055c-0.0885-0.11378-0.22536-0.20467-0.44336-0.27734-0.32152-0.10717-0.87623-0.10704-1.4043-0.11914z"
       class="ColorScheme-Text"
       style="opacity:0.45" />
  </g>
  <g
     id="22-22-fcitx-sogoupinyin"
     transform="translate(154,66.005)">
    <path
       id="rect569"
       class="ColorScheme-Text"
       d="M -38.005859 -40.999141 C -39.664612 -40.999141 -41 -39.663752 -41 -38.005 L -41 -27.993281 C -41 -26.334529 -39.664612 -24.999141 -38.005859 -24.999141 L -27.994141 -24.999141 C -26.335388 -24.999141 -25 -26.334529 -25 -27.993281 L -25 -38.005 C -25 -39.663752 -26.335388 -40.999141 -27.994141 -40.999141 L -38.005859 -40.999141 z M -33.378906 -39.003047 C -32.932898 -39.010547 -32.479916 -38.999951 -32.128906 -38.967891 C -30.36531 -38.800891 -28.829857 -38.251873 -27.505859 -37.301875 C -27.060861 -36.986365 -27.051837 -37.024748 -27.859375 -36.09875 C -28.516893 -35.346742 -28.616827 -35.282325 -28.779297 -35.325312 C -28.820797 -35.333812 -29.008615 -35.423372 -29.203125 -35.530391 C -30.212133 -36.094899 -31.355496 -36.502952 -32.246094 -36.612422 C -32.724072 -36.670422 -33.093616 -36.600852 -33.285156 -36.407344 C -33.382656 -36.310344 -33.420489 -36.053297 -33.355469 -35.909297 C -33.237979 -35.638787 -32.780058 -35.37915 -31.5625 -34.893672 C -29.820004 -34.195654 -29.094906 -33.823913 -28.378906 -33.262812 C -27.665388 -32.702304 -27.222139 -32.038826 -27.056641 -31.303828 C -26.956471 -30.85032 -26.992806 -30.101795 -27.128906 -29.721797 C -27.267426 -29.330787 -27.447198 -29.052203 -27.742188 -28.725703 C -28.567216 -27.806185 -30.134145 -27.177078 -32.056641 -27.022578 C -32.407629 -26.996578 -33.405547 -26.999088 -33.685547 -27.022578 C -34.914045 -27.127578 -35.568511 -27.248203 -36.349609 -27.538203 C -36.815119 -27.709703 -37.092911 -27.846476 -37.505859 -28.088984 C -37.886379 -28.310484 -38.578672 -28.82299 -38.826172 -29.0675 C -39.076742 -29.31251 -39.071484 -29.384865 -38.708984 -29.739375 C -38.151976 -30.282883 -37.396569 -30.954859 -37.292969 -31.010859 C -37.155989 -31.084359 -37.11873 -31.073629 -36.65625 -30.770625 C -36.19671 -30.467615 -35.63917 -30.194687 -35.076172 -29.997187 C -34.277664 -29.711678 -33.703326 -29.589578 -33.048828 -29.585078 C -32.691818 -29.583078 -32.624057 -29.604516 -32.435547 -29.671016 C -32.152547 -29.774016 -32.030166 -29.892906 -32.009766 -30.133906 C -31.997866 -30.285906 -32.028569 -30.351156 -32.105469 -30.477656 C -32.302449 -30.789166 -32.723837 -31.040235 -34.109375 -31.663203 C -35.264873 -32.184713 -35.665947 -32.386993 -36.185547 -32.694453 C -37.409045 -33.419471 -38.058033 -34.142127 -38.332031 -35.083125 C -38.414331 -35.350135 -38.387594 -36.051594 -38.308594 -36.356562 C -38.164584 -36.861572 -37.946655 -37.249469 -37.578125 -37.610469 C -36.905117 -38.276487 -35.86209 -38.735188 -34.558594 -38.934687 C -34.267574 -38.978187 -33.824936 -38.994947 -33.378906 -39.003047 z "
       fill="currentColor" />
    <path
       id="path213"
       d="m -44,-44.005 h 22 v 22 h -22 z"
       fill="none" />
  </g>
  <g
     id="fcitx-sogouwubi"
     transform="translate(154,66.005)">
    <path
       id="rect1784"
       d="M -16 -41.005 C -17.661996 -41.005 -19 -39.666996 -19 -38.005 L -19 -28.005 C -19 -26.343004 -17.661996 -25.005 -16 -25.005 L -11 -25.005 L -11 -27.999141 L -16 -27.999141 L -16 -28.999141 L -13.900391 -28.999141 L -13.011719 -32.999141 L -15 -32.999141 L -15 -33.999141 L -12.789062 -33.999141 L -12.123047 -36.999141 L -16 -36.999141 L -16 -37.999141 L -7 -37.999141 L -7 -36.999141 L -11.097656 -36.999141 L -11.763672 -33.999141 L -8 -33.999141 L -8 -33.005 L -3 -33.005 L -3 -38.005 C -3 -39.666996 -4.3380034 -41.005 -6 -41.005 L -16 -41.005 z M -11.986328 -32.999141 L -12.876953 -28.999141 L -11 -28.999141 L -11 -31.005 C -11 -32.071449 -10.172988 -32.935664 -9.1230469 -32.999141 L -11.986328 -32.999141 z "
       class="ColorScheme-Text"
       fill="currentColor" />
    <path
       id="path218"
       d="M -22,-44.007 H 0 v 22 h -22 z"
       fill="none" />
    <path
       id="rect780"
       d="m -9.0000005,-33 c -1.1079985,0 -2.0000005,0.892001 -2.0000005,2 v 6 c 0,1.107999 0.892002,2 2.0000005,2 h 6 c 1.107999,0 2,-0.892001 2,-2 v -6 c 0,-1.107999 -0.892001,-2 -2,-2 z m 2.8105469,2.001953 c 0.2229998,-0.0037 0.4494991,0.0016 0.625,0.01758 0.8817798,0.0835 1.6485621,0.357084 2.3105471,0.832031 0.222496,0.157738 0.227978,0.138613 -0.175782,0.601563 -0.328752,0.375964 -0.379704,0.408212 -0.460937,0.386719 -0.02075,-0.0042 -0.1136848,-0.05 -0.2109375,-0.103516 -0.5044934,-0.282224 -1.0761947,-0.484334 -1.5214844,-0.539062 -0.2389843,-0.02901 -0.4237634,0.0047 -0.5195312,0.101562 -0.048748,0.04849 -0.067665,0.176054 -0.035156,0.248047 0.058743,0.13524 0.2877185,0.2651 0.8964844,0.507813 0.8712297,0.348971 1.2338052,0.535888 1.5917967,0.816406 0.356753,0.280225 0.577408,0.611056 0.660156,0.978515 0.05008,0.226731 0.032894,0.601037 -0.035156,0.791016 -0.06926,0.195484 -0.159149,0.334814 -0.306641,0.498047 -0.412505,0.459708 -1.1969749,0.774322 -2.1582029,0.851562 -0.1754909,0.01299 -0.6744564,0.01174 -0.8144531,0 -0.6142358,-0.0525 -0.9414902,-0.112828 -1.3320312,-0.257812 -0.2327496,-0.08574 -0.3716549,-0.154149 -0.578125,-0.275391 -0.1902557,-0.110738 -0.5364091,-0.366039 -0.6601563,-0.488281 -0.1252821,-0.122492 -0.1226524,-0.158702 0.058594,-0.335938 0.2784987,-0.271724 0.6571857,-0.60872 0.7089844,-0.636718 0.068489,-0.03675 0.087126,-0.03039 0.3183594,0.121094 0.2297648,0.151487 0.5075689,0.287979 0.7890625,0.386718 0.3992457,0.14274 0.6864293,0.202829 1.0136719,0.205078 0.1785008,9.75e-4 0.2123877,-0.0098 0.3066406,-0.04297 0.1414966,-0.05149 0.2026908,-0.109983 0.2128906,-0.230469 0.00595,-0.076 -0.00843,-0.108631 -0.046875,-0.171875 -0.098489,-0.155737 -0.3091992,-0.282299 -1.0019531,-0.59375 -0.5777367,-0.260726 -0.7792685,-0.361912 -1.0390625,-0.515625 -0.6117359,-0.362471 -0.935269,-0.72291 -1.0722656,-1.193359 -0.041149,-0.13349 -0.027781,-0.484251 0.011719,-0.636719 0.072003,-0.252478 0.1809737,-0.446474 0.3652344,-0.626953 0.3364971,-0.332974 0.8580307,-0.562371 1.5097656,-0.66211 0.1455066,-0.02175 0.3668339,-0.02916 0.5898432,-0.0332 z"
       fill="currentColor"
       class="ColorScheme-Text"
       style="opacity:0.45" />
  </g>
  <g
     id="fcitx-remind-active">
    <path
       class="ColorScheme-Text"
       d="m 209,91 c -1.1196,0 -2.1645,0.31337 -3.0625,0.84961 A 3.5,3.5 0 0 1 206,92.5 3.5,3.5 0 0 1 203.0996,95.9492 C 203.0388,96.29115 203,96.64085 203,97 c -4.2e-4,0.01902 2e-4,0.03769 0.002,0.05664 0.014,2.321 0.85914,3.5095 1.6191,4.3945 0.764,0.893 1.3789,1.4418 1.3789,3.0488 v 2.5 h 2 v 1 h 2 v -1 h 2 v -2.5 c 0,-1.607 0.63462,-2.304 1.3906,-3.25 0.75,-0.936 1.5885,-2.1035 1.6055,-4.1875 0.003,-0.02056 0.004,-0.04177 0.004,-0.0625 0,-3.308 -2.692,-6 -6,-6 z m -1.8535,6.1465 h 0.70704 l 1.1465,1.1465 1.1465,-1.1465 h 0.70704 l 1.5,1.5 -0.70704,0.70703 -1.1465,-1.1465 -1.1465,1.1465 h -0.70704 l -1.1465,-1.1465 -1.1465,1.1465 -0.70704,-0.70703 1.5,-1.5 z"
       fill="currentColor"
       id="path177" />
    <path
       d="m 198,88 h 22 v 22 h -22 z"
       fill="none"
       id="path179" />
    <circle
       cx="202.5"
       cy="92.5"
       r="2.5"
       fill="#42d15b"
       id="circle181" />
  </g>
  <g
     id="fcitx-handwriting-active">
    <path
       class="ColorScheme-Text"
       d="m 213.14,112.57 -3.272,12.207 1.07,3.739 2.795,-2.703 3.27,-12.207 -0.482,-0.131 z m 0.707,1.223 1.931,0.518 -0.26,0.968 -1.931,-0.52 z m -11.522,5.66 c -0.21558,0.007 -0.4306,0.0257 -0.644,0.057 -0.66133,0.0907 -0.52533,1.0827 0.136,0.992 0.42,-0.058 0.71,-0.056 0.872,-0.03 0.16,0.027 0.164,0.058 0.152,0.042 -0.012,-0.017 0.006,-0.01 -0.006,0.092 -0.0266,0.15379 -0.0685,0.30454 -0.125,0.45 -0.134,0.374 -0.351,0.824 -0.41,1.327 -0.03,0.251 -0.015,0.54 0.133,0.806 0.147,0.268 0.42,0.468 0.738,0.575 0.153,0.05 0.213,0.04 0.309,0.045 0.095,0.004 0.2,0.005 0.316,0.005 0.231,0 0.504,-0.003 0.758,0.004 0.032,0.001 0.047,0.006 0.078,0.008 -0.09,0.056 -0.146,0.098 -0.252,0.158 -0.533,0.301 -1.218,0.645 -1.781,1.022 -0.282,0.188 -0.536,0.383 -0.737,0.621 -0.2,0.238 -0.37,0.576 -0.287,0.95 0.083,0.372 0.37,0.631 0.73,0.825 0.361,0.195 0.834,0.352 1.481,0.498 1.051,0.238 2.36,0.169 3.543,0.221 1.183,0.052 2.169,0.26 2.553,0.703 0.43478,0.53533 1.224,-0.15134 0.754,-0.656 -0.756,-0.871 -2.016,-0.992 -3.262,-1.047 -1.246,-0.055 -2.55,-0.01 -3.367,-0.195 -0.596,-0.135 -1,-0.28 -1.227,-0.403 -0.227,-0.122 -0.235,-0.195 -0.228,-0.162 0.007,0.033 -0.019,0.023 0.076,-0.09 0.15702,-0.16564 0.33405,-0.3111 0.527,-0.433 0.482,-0.322 1.152,-0.663 1.717,-0.982 0.26187,-0.14135 0.51319,-0.30144 0.752,-0.479 0.214,-0.166 0.466,-0.33 0.477,-0.752 0.006,-0.246 -0.165,-0.47 -0.305,-0.564 -0.12064,-0.0787 -0.2555,-0.13305 -0.397,-0.16 -0.26932,-0.0542 -0.54328,-0.082 -0.818,-0.083 -0.282,-0.008 -0.562,-0.004 -0.783,-0.004 -0.11,0 -0.206,0 -0.272,-0.003 -0.0215,-0.001 -0.0429,-0.004 -0.064,-0.008 0.012,0.004 0.013,0.007 0.027,0.011 -0.05,-0.016 -0.047,-0.015 -0.027,-0.011 -0.114,-0.043 -0.142,-0.077 -0.154,-0.098 -0.013,-0.023 -0.03,-0.08 -0.016,-0.205 0.03,-0.25 0.206,-0.675 0.36,-1.105 0.076,-0.216 0.148,-0.436 0.175,-0.678 0.028,-0.242 0.006,-0.535 -0.176,-0.787 -0.181,-0.252 -0.478,-0.39 -0.798,-0.444 -0.17458,-0.0275 -0.35136,-0.0385 -0.528,-0.033 z"
       fill="currentColor"
       id="path184" />
    <g
       stroke-linecap="round"
       id="g192">
      <path
         d="m 198,110 h 22 v 22 h -22 z"
         fill="none"
         id="path186-3" />
      <path
         d="m 198,110 h 22 v 22 h -22 z"
         fill="none"
         id="path188-6" />
      <circle
         cx="202.5"
         cy="114.5"
         r="2.5"
         fill="#42d15b"
         id="circle190" />
    </g>
  </g>
  <g
     id="fcitx-kbd"
     transform="translate(145,52)">
    <path
       id="rect298"
       d="m 14,11 c -1.661998,0 -3,1.338002 -3,3 v 10 c 0,1.661998 1.338002,3 3,3 h 14 c 1.661998,0 3,-1.338002 3,-3 V 14 c 0,-1.661998 -1.338002,-3 -3,-3 z m 4,3 c 1.104499,0 2,0.895501 2,2 v 1 h 2 v -1 c 0,-1.104499 0.895371,-2 2,-2 1.104499,0 2,0.895501 2,2 0,1.104499 -0.895501,2 -2,2 h -1 v 2 h 1 c 1.104499,2.5e-4 2,0.895501 2,2 0,1.104499 -0.895501,2 -2,2 -1.104499,0 -2,-0.895501 -2,-2 v -1 h -2 v 1 c 0,1.104499 -0.895371,2 -2,2 -1.104499,0 -2,-0.895501 -2,-2 0,-1.104499 0.895501,-2 2,-2 h 1 v -2 h -1 c -1.104499,0 -2,-0.895501 -2,-2 0,-1.104499 0.895501,-2 2,-2 z m 0,1 c -0.552249,0 -1,0.447751 -1,1 0,0.552129 0.447751,1 1,1 h 1 v -1 c 0,-0.552249 -0.447751,-1 -1,-1 z m 6,0 c -0.552249,0 -1,0.447751 -1,1 v 1 h 1 c 0.552249,0 1,-0.447751 1,-1 0,-0.552249 -0.447751,-1 -1,-1 z m -4,3 v 2 h 2 v -2 z m -2,3 c -0.552249,0 -1,0.447751 -1,1 0,0.552249 0.447751,1 1,1 0.552249,0 1,-0.447751 1,-1 v -1 z m 5,0 v 1 c 0,0.552249 0.447751,1 1,1 0.552249,0 1,-0.447751 1,-1 0,-0.552249 -0.447751,-1 -1,-1 z"
       class="ColorScheme-Text"
       fill="currentColor" />
    <path
       d="M 10,8 H 32 V 30 H 10 Z"
       fill="none"
       id="path240" />
  </g>
  <g
     id="fcitx">
    <path
       id="path500"
       class="ColorScheme-Text"
       d="M 132 63 C 130.338 63 129 64.338008 129 66 L 129 76 C 129 77.661992 130.338 79 132 79 L 146 79 C 147.662 79 149 77.661992 149 76 L 149 66 C 149 64.338008 147.662 63 146 63 L 132 63 z M 138.16211 67 L 139.83789 67 L 143.83789 75 L 142.16211 75 L 141.16211 73 L 136.83789 73 L 135.83789 75 L 134.16211 75 L 138.16211 67 z M 139 68.675781 L 137.58789 71.5 L 140.41211 71.5 L 139 68.675781 z "
       fill="currentColor" />
    <path
       d="m 128,60 h 22 v 22 h -22 z"
       fill="none"
       id="path502" />
  </g>
  <g
     id="fcitx-vk-active">
    <path
       id="path459"
       class="ColorScheme-Text"
       d="M 184 63 C 182.338 63 181 64.338004 181 66 L 181 76 C 181 77.661996 182.338 79 184 79 L 196.3418 79 A 3.5 3.5 0 0 1 196 77.5 A 3.5 3.5 0 0 1 199.5 74 A 3.5 3.5 0 0 1 201 74.337891 L 201 66 C 201 64.338004 199.662 63 198 63 L 184 63 z M 188 66 C 189.1045 66 190 66.895502 190 68 L 190 69 L 192 69 L 192 68 C 192 66.895502 192.89537 66 194 66 C 195.1045 66 196 66.895502 196 68 C 196 69.104498 195.1045 70 194 70 L 193 70 L 193 72 L 194 72 C 195.1045 72.00025 196 72.895502 196 74 C 196 75.104498 195.1045 76 194 76 C 192.8955 76 192 75.104498 192 74 L 192 73 L 190 73 L 190 74 C 190 75.104498 189.10463 76 188 76 C 186.8955 76 186 75.104498 186 74 C 186 72.895502 186.8955 72 188 72 L 189 72 L 189 70 L 188 70 C 186.8955 70 186 69.104498 186 68 C 186 66.895502 186.8955 66 188 66 z M 188 67 C 187.44775 67 187 67.447752 187 68 C 187 68.552128 187.44775 69 188 69 L 189 69 L 189 68 C 189 67.447752 188.55225 67 188 67 z M 194 67 C 193.44775 67 193 67.447752 193 68 L 193 69 L 194 69 C 194.55225 69 195 68.552248 195 68 C 195 67.447752 194.55225 67 194 67 z M 190 70 L 190 72 L 192 72 L 192 70 L 190 70 z M 188 73 C 187.44775 73 187 73.447752 187 74 C 187 74.552248 187.44775 75 188 75 C 188.55225 75 189 74.552248 189 74 L 189 73 L 188 73 z M 193 73 L 193 74 C 193 74.552248 193.44775 75 194 75 C 194.55225 75 195 74.552248 195 74 C 195 73.447752 194.55225 73 194 73 L 193 73 z "
       fill="currentColor" />
    <path
       d="m 180,60 h 22 v 22 h -22 z"
       fill="none"
       id="path461" />
    <circle
       id="circle471"
       cx="199.5"
       cy="77.5"
       r="2.5"
       style="fill:#42d15b;fill-opacity:1" />
  </g>
  <g
     id="fcitx-vk-inactive">
    <path
       id="path488"
       class="ColorScheme-Text"
       d="m 209,63 c -1.662,0 -3,1.338004 -3,3 v 10 c 0,1.661996 1.338,3 3,3 h 12.3418 A 3.5,3.5 0 0 1 221,77.5 3.5,3.5 0 0 1 224.5,74 3.5,3.5 0 0 1 226,74.337891 V 66 c 0,-1.661996 -1.338,-3 -3,-3 z m 4,3 c 1.1045,0 2,0.895502 2,2 v 1 h 2 v -1 c 0,-1.104498 0.89537,-2 2,-2 1.1045,0 2,0.895502 2,2 0,1.104498 -0.8955,2 -2,2 h -1 v 2 h 1 c 1.1045,2.5e-4 2,0.895502 2,2 0,1.104498 -0.8955,2 -2,2 -1.1045,0 -2,-0.895502 -2,-2 v -1 h -2 v 1 c 0,1.104498 -0.89537,2 -2,2 -1.1045,0 -2,-0.895502 -2,-2 0,-1.104498 0.8955,-2 2,-2 h 1 v -2 h -1 c -1.1045,0 -2,-0.895502 -2,-2 0,-1.104498 0.8955,-2 2,-2 z m 0,1 c -0.55225,0 -1,0.447752 -1,1 0,0.552128 0.44775,1 1,1 h 1 v -1 c 0,-0.552248 -0.44775,-1 -1,-1 z m 6,0 c -0.55225,0 -1,0.447752 -1,1 v 1 h 1 c 0.55225,0 1,-0.447752 1,-1 0,-0.552248 -0.44775,-1 -1,-1 z m -4,3 v 2 h 2 v -2 z m -2,3 c -0.55225,0 -1,0.447752 -1,1 0,0.552248 0.44775,1 1,1 0.55225,0 1,-0.447752 1,-1 v -1 z m 5,0 v 1 c 0,0.552248 0.44775,1 1,1 0.55225,0 1,-0.447752 1,-1 0,-0.552248 -0.44775,-1 -1,-1 z"
       fill="currentColor" />
    <path
       d="m 205,60 h 22 v 22 h -22 z"
       fill="none"
       id="path490" />
    <circle
       id="circle500"
       cx="224.5"
       cy="77.5"
       r="2.5"
       class="ColorScheme-Text"
       fill="currentColor"
       style="opacity:0.35" />
  </g>
</svg>
