<?xml version="1.0" encoding="UTF-8" standalone="no"?>
<svg
   id="svg36"
   viewBox="0 0 22 22"
   version="1.1"
   height="22"
   width="22"
   sodipodi:docname="go.svg"
   inkscape:version="1.2.1 (9c6d41e410, 2022-07-14)"
   xmlns:inkscape="http://www.inkscape.org/namespaces/inkscape"
   xmlns:sodipodi="http://sodipodi.sourceforge.net/DTD/sodipodi-0.dtd"
   xmlns="http://www.w3.org/2000/svg"
   xmlns:svg="http://www.w3.org/2000/svg"
   xmlns:rdf="http://www.w3.org/1999/02/22-rdf-syntax-ns#"
   xmlns:cc="http://creativecommons.org/ns#"
   xmlns:dc="http://purl.org/dc/elements/1.1/">
  <sodipodi:namedview
     id="namedview635"
     pagecolor="#ffffff"
     bordercolor="#000000"
     borderopacity="0.25"
     inkscape:showpageshadow="2"
     inkscape:pageopacity="0.0"
     inkscape:pagecheckerboard="0"
     inkscape:deskcolor="#d1d1d1"
     showgrid="false"
     inkscape:zoom="10.727273"
     inkscape:cx="11"
     inkscape:cy="11"
     inkscape:window-width="1368"
     inkscape:window-height="688"
     inkscape:window-x="0"
     inkscape:window-y="44"
     inkscape:window-maximized="1"
     inkscape:current-layer="svg36" />
  <metadata
     id="metadata40">
    <rdf:RDF>
      <cc:Work
         rdf:about="">
        <dc:format>image/svg+xml</dc:format>
        <dc:type
           rdf:resource="http://purl.org/dc/dcmitype/StillImage" />
        <dc:title />
      </cc:Work>
    </rdf:RDF>
  </metadata>
  <defs
     id="defs3">
    <style
       type="text/css"
       id="current-color-scheme">.ColorScheme-Text {
        color:#31363b;
      }
      .ColorScheme-Background {
        color:#eff0f1;
      }
      .ColorScheme-Highlight {
        color:#3daee9;
      }
      .ColorScheme-ViewText {
        color:#31363b;
      }
      .ColorScheme-ViewBackground {
        color:#fcfcfc;
      }
      .ColorScheme-ViewHover {
        color:#93cee9;
      }
      .ColorScheme-ViewFocus{
        color:#3daee9;
      }
      .ColorScheme-ButtonText {
        color:#31363b;
      }
      .ColorScheme-ButtonBackground {
        color:#eff0f1;
      }
      .ColorScheme-ButtonHover {
        color:#93cee9;
      }
      .ColorScheme-ButtonFocus{
        color:#3daee9;
      }</style>
  </defs>
  <g
     transform="translate(-326,-534.36)"
     id="go-down">
    <rect
       id="rect10"
       fill="none"
       height="22"
       width="22"
       y="534.36"
       x="414" />
    <g
       id="g14"
       transform="translate(414,-496)">
      <path
         id="path12"
         fill="currentColor"
         d="m3.707 7-0.70703 0.70703 8 8 8-8-0.70703-0.70703-7.293 7.293-7.293-7.293z"
         transform="translate(-5e-7,1030.4)"
         class="ColorScheme-Text" />
    </g>
  </g>
  <g
     transform="translate(-326,-534.36)"
     id="go-next">
    <rect
       id="rect17"
       fill="none"
       height="22"
       width="22"
       y="534.36"
       x="370" />
    <g
       id="g21"
       transform="translate(370,-496)">
      <path
         id="path19"
         fill="currentColor"
         d="m7.707 3-0.70703 0.70703 7.293 7.293-7.293 7.293 0.70703 0.70703 8-8-8-8z"
         transform="translate(-5e-7,1030.4)"
         class="ColorScheme-Text" />
    </g>
  </g>
  <g
     transform="translate(-326,-534.36)"
     id="go-previous">
    <rect
       id="rect24"
       fill="none"
       height="22"
       width="22"
       y="534.36"
       x="348" />
    <g
       id="g28"
       transform="translate(348,-496)">
      <path
         id="path26"
         fill="currentColor"
         d="m14.293 3-8 8 8 8 0.70703-0.70703-7.293-7.293 7.293-7.293-0.70703-0.70703z"
         transform="translate(-5e-7,1030.4)"
         class="ColorScheme-Text" />
    </g>
  </g>
  <g
     transform="translate(-326,-534.36)"
     id="go-up">
    <rect
       id="rect31"
       fill="none"
       height="22"
       width="22"
       y="534.36"
       x="392" />
    <path
       id="path33"
       fill-rule="evenodd"
       fill="currentColor"
       d="m403 543.36-5 4h10z"
       class="ColorScheme-Text" />
  </g>
  <g
     id="go-home">
    <path
       id="rect4180"
       d="m 0,-2e-5 h 22 v 22 H 0 Z"
       fill="none" />
    <path
       class="ColorScheme-Text"
       d="m 10.999991,3.00579 c -0.12781,0 -0.25558,0.04855 -0.35352,0.14648 l -7.0703006,7.0723 c -0.1958701,0.19587 -0.1958701,0.51116 0,0.70703 0.19587,0.19587 0.51116,0.19587 0.7070299,0 l 0.7168,-0.7168 V 16 c 0,1.108 0.892,2 2,2 h 8.0000007 c 1.108,0 2,-0.892 2,-2 v -5.7852 l 0.716799,0.7168 c 0.19587,0.19587 0.51116,0.19587 0.70703,0 0.19587,-0.19587 0.19587,-0.51116 0,-0.70703 L 11.353531,3.15227 C 11.255601,3.05434 11.127821,3.00579 11.00001,3.00579 Z m 0,1.209 5,5 v 6.7852 c 0,0.554 -0.446,1 -1,1 h -2 v -3 c 0,-1.108 -0.892,-2 -2,-2 -1.1080006,0 -2.0000007,0.892 -2.0000007,2 v 3 h -2 c -0.554,0 -1,-0.446 -1,-1 v -6.7852 z"
       fill="currentColor"
       id="path307" />
  </g>
</svg>
