<?xml version="1.0" encoding="UTF-8" standalone="no"?>
<svg
   width="70"
   height="256"
   version="1.1"
   viewBox="0 0 70 256"
   id="svg99"
   sodipodi:docname="input.svg"
   inkscape:version="1.2.2 (b0a8486541, 2022-12-01)"
   xmlns:inkscape="http://www.inkscape.org/namespaces/inkscape"
   xmlns:sodipodi="http://sodipodi.sourceforge.net/DTD/sodipodi-0.dtd"
   xmlns="http://www.w3.org/2000/svg"
   xmlns:svg="http://www.w3.org/2000/svg">
  <sodipodi:namedview
     id="namedview101"
     pagecolor="#ffffff"
     bordercolor="#666666"
     borderopacity="1.0"
     inkscape:showpageshadow="2"
     inkscape:pageopacity="0.0"
     inkscape:pagecheckerboard="0"
     inkscape:deskcolor="#d1d1d1"
     showgrid="true"
     inkscape:zoom="2.8284271"
     inkscape:cx="86.267027"
     inkscape:cy="185.43875"
     inkscape:window-width="3840"
     inkscape:window-height="2028"
     inkscape:window-x="0"
     inkscape:window-y="64"
     inkscape:window-maximized="1"
     inkscape:current-layer="svg99">
    <inkscape:grid
       type="xygrid"
       id="grid384"
       spacingx="0.5"
       spacingy="0.5"
       color="#e500bb"
       opacity="0.14901961"
       empspacing="2" />
  </sodipodi:namedview>
  <defs
     id="defs3">
    <style
       id="current-color-scheme"
       type="text/css">.ColorScheme-Text {
        color:#363636;
      }
      .ColorScheme-Background {
        color:#efefef;
      }
      .ColorScheme-Highlight {
        color:#3daee9;
      }
      .ColorScheme-ViewText {
        color:#363636;
      }
      .ColorScheme-ViewBackground {
        color:#fcfcfc;
      }
      .ColorScheme-ViewHover {
        color:#93cee9;
      }
      .ColorScheme-ViewFocus{
        color:#3daee9;
      }
      .ColorScheme-ButtonText {
        color:#363636;
      }
      .ColorScheme-ButtonBackground {
        color:#ffffff;
      }
      .ColorScheme-ButtonHover {
        color:#93cee9;
      }
      .ColorScheme-ButtonFocus{
        color:#3daee9;
      }</style>
  </defs>
  <g
     id="22-22-input-mouse-battery">
    <rect
       x="16"
       y="233.99998"
       width="22"
       height="22"
       ry="0"
       fill="none"
       id="rect5" />
    <path
       class="ColorScheme-Text"
       d="m 21,237 -2,5 h 2 v 3 l 2,-5 h -2 z"
       fill="currentColor"
       id="path9" />
    <path
       id="rect5356"
       class="ColorScheme-Text"
       d="M 29.5 237 C 26.453006 237 24 239.453 24 242.5 L 24 247.5 C 24 250.547 26.453006 253 29.5 253 C 32.546994 253 35 250.547 35 247.5 L 35 242.5 C 35 239.453 32.546994 237 29.5 237 z M 29.5 238.5 C 31.715996 238.5 33.5 240.284 33.5 242.5 L 33.5 247.5 C 33.5 249.716 31.715996 251.5 29.5 251.5 C 27.284004 251.5 25.5 249.716 25.5 247.5 L 25.5 242.5 C 25.5 240.284 27.284004 238.5 29.5 238.5 z M 29.5 240 C 29.223 240 29 240.223 29 240.5 L 29 242.5 C 29 242.777 29.223 243 29.5 243 C 29.777 243 30 242.777 30 242.5 L 30 240.5 C 30 240.223 29.777 240 29.5 240 z "
       fill="currentColor" />
  </g>
  <g
     id="22-22-input-keyboard-battery"
     transform="translate(16,10)">
    <rect
       x="0.0099999998"
       y="127.99998"
       width="22"
       height="22"
       ry="0"
       fill="none"
       id="rect12" />
    <path
       id="path14"
       class="ColorScheme-Text"
       d="M 6.9941406 131 C 5.3321423 131 3.9941406 132.338 3.9941406 134 L 3.9941406 141 C 3.9941406 143 4.9941426 144.00025 6.9941406 145 L 11 147.00195 L 14.994141 145 C 16.989643 144 17.994141 143 17.994141 141 L 17.994141 140 L 16.5 140 L 16.5 141.08398 C 16.5 141.91498 15.830999 142.58398 15 142.58398 L 7 142.58398 C 6.1690008 142.58398 5.5 141.91498 5.5 141.08398 L 5.5 134 C 5.5 133.169 6.1690008 132.5 7 132.5 L 14 132.5 L 14 131 L 6.9941406 131 z "
       fill="currentColor" />
    <path
       id="path3873"
       class="ColorScheme-Text"
       d="m 16.009766,131 -2,5 h 2 v 3 l 2,-5 h -2 z m -5.572266,3.00195 -2.4375,6 h 1.0742188 l 0.40625,-1 h 3.0390622 l 0.40625,1 H 14 V 140 l -2.439453,-5.99805 h -0.537109 l -0.02344,0.01 -0.02344,-0.01 z m 0.5625,1.25782 1.113281,2.74218 H 9.8867188 Z"
       fill="currentColor" />
  </g>
  <g
     id="22-22-input-caps-on"
     transform="translate(16,10)">
    <rect
       x="0.0049988707"
       y="160.002"
       width="22"
       height="22"
       fill="none"
       id="rect39" />
    <path
       id="path41"
       class="ColorScheme-Text"
       d="M 7 163 C 5.3380017 163 4 164.338 4 166 L 4 173 C 4 175 5.000002 176.00025 7 177 L 11.005859 179.00195 L 15 177 C 16.995502 176 18 175 18 173 L 18 166 C 18 164.338 16.661998 163 15 163 L 7 163 z M 7 164.5 L 15 164.5 C 15.830999 164.5 16.5 165.169 16.5 166 L 16.5 173.08398 C 16.5 173.91498 15.830999 174.58398 15 174.58398 L 7 174.58398 C 6.1690008 174.58398 5.5 173.91498 5.5 173.08398 L 5.5 166 C 5.5 165.169 6.1690008 164.5 7 164.5 z "
       fill="currentColor" />
    <path
       id="path3174"
       class="ColorScheme-Text"
       d="m 10.443359,166.00195 -2.4374996,6 h 1.0742187 l 0.40625,-1 h 3.0390629 l 0.40625,1 h 1.074218 l -2.439453,-6 h -0.537109 l -0.02344,0.01 -0.02344,-0.01 z m 0.5625,1.25782 1.113282,2.74218 H 9.8925781 Z"
       fill="currentColor" />
  </g>
  <g
     id="22-22-input-keyboard-brightness"
     transform="translate(84,8)">
    <rect
       x="-67.995003"
       y="98.001999"
       width="22"
       height="22"
       fill="none"
       id="rect12358" />
    <path
       id="path12360"
       class="ColorScheme-Text"
       d="M 7 99 C 5.3380017 99 4 100.338 4 102 L 4 109 C 4 111 5.000002 112.00025 7 113 L 11.005859 115.00195 L 15 113 C 16.995502 112 18 111 18 109 L 18 104 L 16.5 104 L 16.5 109.04102 C 16.5 109.87201 15.830999 110.54102 15 110.54102 L 7 110.54102 C 6.1690008 110.54102 5.5 109.87201 5.5 109.04102 L 5.5 101.95898 C 5.5 101.12799 6.1690008 100.45898 7 100.45898 L 13 100.45898 L 13 99 L 7 99 z "
       transform="translate(-68,2)"
       fill="currentColor" />
    <path
       id="path1380"
       class="ColorScheme-Text"
       d="m -52,101 c -1.1046,0 -2,0.89543 -2,2 0,1.10457 0.89543,2 2,2 1.10457,0 2,-0.89543 2,-2 0,-1.10457 -0.89543,-2 -2,-2 z m 0,1 v 2 c -0.55228,0 -1,-0.44771 -1,-1 0,-0.55228 0.44772,-1 1,-1 z m -5.556641,2.00195 -2.4375,6 h 1.074219 l 0.40625,-1 h 3.039063 l 0.40625,1 h 1.074218 l -2.439453,-6 h -0.537109 l -0.02344,0.01 -0.02344,-0.01 z m 0.5625,1.25782 1.113282,2.74218 h -2.226563 z"
       fill="currentColor" />
  </g>
  <g
     id="22-22-input-num-on"
     transform="translate(16,10)">
    <rect
       x="0.0049988707"
       y="192.002"
       width="22"
       height="22"
       fill="none"
       id="rect13381" />
    <path
       id="path13383"
       class="ColorScheme-Text"
       d="M 7 195 C 5.3380017 195 4 196.338 4 198 L 4 205 C 4 207 5.000002 208.00025 7 209 L 11.005859 211.00195 L 15 209 C 16.995502 208 18 207 18 205 L 18 198 C 18 196.338 16.661998 195 15 195 L 7 195 z M 7 196.45898 L 15 196.45898 C 15.830999 196.45898 16.5 197.12799 16.5 197.95898 L 16.5 205.04102 C 16.5 205.87201 15.830999 206.54102 15 206.54102 L 7 206.54102 C 6.1690008 206.54102 5.5 205.87201 5.5 205.04102 L 5.5 197.95898 C 5.5 197.12799 6.1690008 196.45898 7 196.45898 z "
       fill="currentColor" />
    <path
       class="ColorScheme-Text"
       d="m 11,198 v 1 h -1 v 1 h 1 v 4 h -1 v 1 h 3 v -1 h -1 v -6 z"
       fill="currentColor"
       id="path13395" />
  </g>
  <g
     id="input-num-on"
     transform="translate(16,10)">
    <rect
       x="22.0051"
       y="182.004"
       width="32"
       height="32"
       fill="none"
       id="rect13387" />
    <path
       id="path13389"
       class="ColorScheme-Text"
       d="m 33,187.5 c -2.769997,0 -5,2.23 -5,5 v 11 c 0,2.77 3.000002,4.2 5,5 l 5,2 5,-2 c 1.999998,-0.8 5,-2.23 5,-5 v -11 c 0,-2.77 -2.230003,-5 -5,-5 z m -0.02539,1.5 h 10.050782 c 1.925057,0 3.474609,1.54955 3.474609,3.47461 v 9.05078 c 0,1.92506 -1.549552,3.47461 -3.474609,3.47461 H 32.974609 C 31.049552,205 29.5,203.45045 29.5,201.52539 v -9.05078 C 29.5,190.54955 31.049552,189 32.97461,189 Z"
       fill="currentColor"
       sodipodi:nodetypes="sssscssssssssssssss" />
    <path
       class="ColorScheme-Text"
       d="m 37,192 v 2 h -2 v 2 h 2 v 4 h -2 v 2 h 6 v -2 h -2 v -8 z"
       fill="currentColor"
       id="path13401" />
  </g>
  <g
     id="16-16-input-mouse-battery"
     transform="translate(15.99,10)">
    <path
       class="ColorScheme-Text"
       d="m -7.99,234 -2,5 h 2 v 3 l 2,-5 h -2 z"
       fill="currentColor"
       id="path34" />
    <rect
       x="-15.99"
       y="229.99998"
       width="16"
       height="16"
       fill="none"
       id="rect36" />
    <path
       id="rect5515"
       class="ColorScheme-Text"
       d="M -7.9997656 231 C -10.769763 231 -12.999766 233.23 -12.999766 236 L -12.999766 240 C -12.999766 242.77 -10.769763 245 -7.9997656 245 C -5.2297684 245 -2.9997656 242.77 -2.9997656 240 L -2.9997656 236 C -2.9997656 233.23 -5.2297684 231 -7.9997656 231 z M -7.99 232 C -5.7740022 232 -3.99 233.784 -3.99 236 L -3.99 240 C -3.99 242.216 -5.7740022 244 -7.99 244 C -10.205998 244 -11.99 242.216 -11.99 240 L -11.99 236 C -11.99 233.784 -10.205998 232 -7.99 232 z "
       fill="currentColor" />
  </g>
  <g
     id="input-mouse-battery"
     transform="translate(13,10)">
    <g
       id="g6641"
       transform="translate(-2,-10)">
      <rect
         x="27"
         y="224"
         width="32"
         height="32"
         ry="0"
         fill="none"
         id="rect369" />
    </g>
    <path
       id="rect5902"
       class="ColorScheme-Text"
       d="M 41 217 C 36.014005 217 32 221.014 32 226 L 32 234 C 32 238.986 36.014005 243 41 243 C 45.985995 243 50 238.986 50 234 L 50 226 C 50 221.014 45.985995 217 41 217 z M 41 218.5 C 45.154996 218.5 48.5 221.845 48.5 226 L 48.5 234 C 48.5 238.155 45.154996 241.5 41 241.5 C 36.845004 241.5 33.5 238.155 33.5 234 L 33.5 226 C 33.5 221.845 36.845004 218.5 41 218.5 z "
       fill="currentColor" />
    <path
       id="rect6127"
       d="m 41,221 c -0.554,0 -1,0.446 -1,1 v 4 c 0,0.554 0.446,1 1,1 0.554,0 1,-0.446 1,-1 v -4 c 0,-0.554 -0.446,-1 -1,-1 z m 0,8 -3,6 h 3 v 4 l 3,-6 h -3 z"
       class="ColorScheme-Text"
       fill="currentColor" />
  </g>
  <g
     id="22-22-input-keyboard"
     transform="translate(0,-2.0000005)">
    <path
       id="rect298-3"
       d="m 14,11 c -1.661998,0 -3,1.338002 -3,3 v 10 c 0,1.661998 1.338002,3 3,3 h 14 c 1.661998,0 3,-1.338002 3,-3 V 14 c 0,-1.661998 -1.338002,-3 -3,-3 z m 4,3 c 1.104499,0 2,0.895501 2,2 v 1 h 2 v -1 c 0,-1.104499 0.895371,-2 2,-2 1.104499,0 2,0.895501 2,2 0,1.104499 -0.895501,2 -2,2 h -1 v 2 h 1 c 1.104499,2.5e-4 2,0.895501 2,2 0,1.104499 -0.895501,2 -2,2 -1.104499,0 -2,-0.895501 -2,-2 v -1 h -2 v 1 c 0,1.104499 -0.895371,2 -2,2 -1.104499,0 -2,-0.895501 -2,-2 0,-1.104499 0.895501,-2 2,-2 h 1 v -2 h -1 c -1.104499,0 -2,-0.895501 -2,-2 0,-1.104499 0.895501,-2 2,-2 z m 0,1 c -0.552249,0 -1,0.447751 -1,1 0,0.552129 0.447751,1 1,1 h 1 v -1 c 0,-0.552249 -0.447751,-1 -1,-1 z m 6,0 c -0.552249,0 -1,0.447751 -1,1 v 1 h 1 c 0.552249,0 1,-0.447751 1,-1 0,-0.552249 -0.447751,-1 -1,-1 z m -4,3 v 2 h 2 v -2 z m -2,3 c -0.552249,0 -1,0.447751 -1,1 0,0.552249 0.447751,1 1,1 0.552249,0 1,-0.447751 1,-1 v -1 z m 5,0 v 1 c 0,0.552249 0.447751,1 1,1 0.552249,0 1,-0.447751 1,-1 0,-0.552249 -0.447751,-1 -1,-1 z"
       class="ColorScheme-Text"
       fill="currentColor" />
    <path
       d="M 10,8 H 32 V 30 H 10 Z"
       fill="none"
       id="path240-6" />
  </g>
  <g
     id="22-22-input-keyboard-virtual-on"
     transform="translate(-170,-23)">
    <path
       id="path459"
       class="ColorScheme-Text"
       d="m 184,63 c -1.662,0 -3,1.338004 -3,3 v 10 c 0,1.661996 1.338,3 3,3 h 12.3418 A 3.5,3.5 0 0 1 196,77.5 3.5,3.5 0 0 1 199.5,74 3.5,3.5 0 0 1 201,74.337891 V 66 c 0,-1.661996 -1.338,-3 -3,-3 z m 4,3 c 1.1045,0 2,0.895502 2,2 v 1 h 2 v -1 c 0,-1.104498 0.89537,-2 2,-2 1.1045,0 2,0.895502 2,2 0,1.104498 -0.8955,2 -2,2 h -1 v 2 h 1 c 1.1045,2.5e-4 2,0.895502 2,2 0,1.104498 -0.8955,2 -2,2 -1.1045,0 -2,-0.895502 -2,-2 v -1 h -2 v 1 c 0,1.104498 -0.89537,2 -2,2 -1.1045,0 -2,-0.895502 -2,-2 0,-1.104498 0.8955,-2 2,-2 h 1 v -2 h -1 c -1.1045,0 -2,-0.895502 -2,-2 0,-1.104498 0.8955,-2 2,-2 z m 0,1 c -0.55225,0 -1,0.447752 -1,1 0,0.552128 0.44775,1 1,1 h 1 v -1 c 0,-0.552248 -0.44775,-1 -1,-1 z m 6,0 c -0.55225,0 -1,0.447752 -1,1 v 1 h 1 c 0.55225,0 1,-0.447752 1,-1 0,-0.552248 -0.44775,-1 -1,-1 z m -4,3 v 2 h 2 v -2 z m -2,3 c -0.55225,0 -1,0.447752 -1,1 0,0.552248 0.44775,1 1,1 0.55225,0 1,-0.447752 1,-1 v -1 z m 5,0 v 1 c 0,0.552248 0.44775,1 1,1 0.55225,0 1,-0.447752 1,-1 0,-0.552248 -0.44775,-1 -1,-1 z"
       fill="currentColor" />
    <path
       d="m 180,60 h 22 v 22 h -22 z"
       fill="none"
       id="path461" />
    <circle
       id="circle471"
       cx="199.5"
       cy="77.5"
       r="2.5"
       style="fill:#42d15b;fill-opacity:1" />
  </g>
  <g
     id="22-22-input-keyboard-virtual-off"
     transform="translate(-195,6.9999995)">
    <path
       id="path488"
       class="ColorScheme-Text"
       d="m 209,63 c -1.662,0 -3,1.338004 -3,3 v 10 c 0,1.661996 1.338,3 3,3 h 12.3418 A 3.5,3.5 0 0 1 221,77.5 3.5,3.5 0 0 1 224.5,74 3.5,3.5 0 0 1 226,74.337891 V 66 c 0,-1.661996 -1.338,-3 -3,-3 z m 4,3 c 1.1045,0 2,0.895502 2,2 v 1 h 2 v -1 c 0,-1.104498 0.89537,-2 2,-2 1.1045,0 2,0.895502 2,2 0,1.104498 -0.8955,2 -2,2 h -1 v 2 h 1 c 1.1045,2.5e-4 2,0.895502 2,2 0,1.104498 -0.8955,2 -2,2 -1.1045,0 -2,-0.895502 -2,-2 v -1 h -2 v 1 c 0,1.104498 -0.89537,2 -2,2 -1.1045,0 -2,-0.895502 -2,-2 0,-1.104498 0.8955,-2 2,-2 h 1 v -2 h -1 c -1.1045,0 -2,-0.895502 -2,-2 0,-1.104498 0.8955,-2 2,-2 z m 0,1 c -0.55225,0 -1,0.447752 -1,1 0,0.552128 0.44775,1 1,1 h 1 v -1 c 0,-0.552248 -0.44775,-1 -1,-1 z m 6,0 c -0.55225,0 -1,0.447752 -1,1 v 1 h 1 c 0.55225,0 1,-0.447752 1,-1 0,-0.552248 -0.44775,-1 -1,-1 z m -4,3 v 2 h 2 v -2 z m -2,3 c -0.55225,0 -1,0.447752 -1,1 0,0.552248 0.44775,1 1,1 0.55225,0 1,-0.447752 1,-1 v -1 z m 5,0 v 1 c 0,0.552248 0.44775,1 1,1 0.55225,0 1,-0.447752 1,-1 0,-0.552248 -0.44775,-1 -1,-1 z"
       fill="currentColor" />
    <path
       d="m 205,60 h 22 v 22 h -22 z"
       fill="none"
       id="path490" />
    <circle
       id="circle500"
       cx="224.5"
       cy="77.5"
       r="2.5"
       class="ColorScheme-Text"
       fill="currentColor"
       style="opacity:0.35" />
  </g>
  <g
     id="input-keyboard"
     transform="translate(0,-1.0000005)">
    <path
       d="M 38,1 H 70 V 33.000001 H 38 Z"
       fill="none"
       id="path364"
       style="stroke-width:1.45455" />
    <path
       id="rect370"
       d="m 43,6 c -2.215998,0 -4,1.7840022 -4,4 v 15 c 0,2.215998 1.784002,4 4,4 h 22 c 2.215998,0 4,-1.784002 4,-4 V 10 C 69,7.7840022 67.215998,6 65,6 Z m 6.5,4 c 1.656746,0 3,1.343254 3,3 v 1.5 h 3 V 13 c 0,-1.656746 1.343059,-3 3,-3 1.656746,0 3,1.343254 3,3 0,1.656746 -1.343254,3 -3,3 H 57 v 3 h 1.5 c 1.656746,3.75e-4 3,1.343254 3,3 0,1.656746 -1.343254,3 -3,3 -1.656746,0 -3,-1.343254 -3,-3 v -1.5 h -3 V 22 c 0,1.656746 -1.343059,3 -3,3 -1.656746,0 -3,-1.343254 -3,-3 0,-1.656746 1.343254,-3 3,-3 H 51 v -3 h -1.5 c -1.656746,0 -3,-1.343254 -3,-3 0,-1.656746 1.343254,-3 3,-3 z m 0,1.5 c -0.828372,0 -1.5,0.671628 -1.5,1.5 0,0.828193 0.671628,1.5 1.5,1.5 H 51 V 13 c 0,-0.828372 -0.671628,-1.5 -1.5,-1.5 z m 9,0 C 57.671628,11.5 57,12.171628 57,13 v 1.5 h 1.5 c 0.828372,0 1.5,-0.671628 1.5,-1.5 0,-0.828372 -0.671628,-1.5 -1.5,-1.5 z m -6,4.5 v 3 h 3 v -3 z m -3,4.5 c -0.828372,0 -1.5,0.671628 -1.5,1.5 0,0.828372 0.671628,1.5 1.5,1.5 0.828372,0 1.5,-0.671628 1.5,-1.5 v -1.5 z m 7.5,0 V 22 c 0,0.828372 0.671628,1.5 1.5,1.5 0.828372,0 1.5,-0.671628 1.5,-1.5 0,-0.828372 -0.671628,-1.5 -1.5,-1.5 z"
       class="ColorScheme-Text"
       fill="currentColor" />
  </g>
  <g
     id="input-keyboard-virtual-on"
     transform="translate(0,-1.0000005)">
    <path
       d="M 38,33 H 70 V 65.000001 H 38 Z"
       fill="none"
       id="path918"
       style="stroke-width:1.45455" />
    <path
       id="path920"
       class="ColorScheme-Text"
       d="m 43,38 c -2.215996,0 -4,1.784004 -4,4 v 15 c 0,2.215996 1.784004,4 4,4 H 62.181641 A 5,5 0 0 1 61.5,58.5 a 5,5 0 0 1 5,-5 5,5 0 0 1 2.5,0.671875 V 42 c 0,-2.215996 -1.784004,-4 -4,-4 z m 6.5,4 c 1.656744,0 3,1.343256 3,3 v 1.5 h 3 V 45 c 0,-1.656744 1.343061,-3 3,-3 1.656744,0 3,1.343256 3,3 0,1.656744 -1.343256,3 -3,3 H 57 v 3 h 1.5 c 1.656744,3.75e-4 3,1.343256 3,3 0,1.656744 -1.343256,3 -3,3 -1.656744,0 -3,-1.343256 -3,-3 v -1.5 h -3 V 54 c 0,1.656744 -1.343061,3 -3,3 -1.656744,0 -3,-1.343256 -3,-3 0,-1.656744 1.343256,-3 3,-3 H 51 v -3 h -1.5 c -1.656744,0 -3,-1.343256 -3,-3 0,-1.656744 1.343256,-3 3,-3 z m 0,1.5 c -0.828371,0 -1.5,0.671629 -1.5,1.5 0,0.828192 0.671629,1.5 1.5,1.5 H 51 V 45 c 0,-0.828371 -0.671629,-1.5 -1.5,-1.5 z m 9,0 C 57.671629,43.5 57,44.171629 57,45 v 1.5 h 1.5 c 0.828371,0 1.5,-0.671629 1.5,-1.5 0,-0.828371 -0.671629,-1.5 -1.5,-1.5 z m -6,4.5 v 3 h 3 v -3 z m -3,4.5 c -0.828371,0 -1.5,0.671629 -1.5,1.5 0,0.828371 0.671629,1.5 1.5,1.5 0.828371,0 1.5,-0.671629 1.5,-1.5 v -1.5 z m 7.5,0 V 54 c 0,0.828371 0.671629,1.5 1.5,1.5 0.828371,0 1.5,-0.671629 1.5,-1.5 0,-0.828371 -0.671629,-1.5 -1.5,-1.5 z"
       fill="currentColor" />
    <circle
       id="circle417"
       cx="66.5"
       cy="58.5"
       r="3.5"
       style="fill:#42d15b;fill-opacity:1" />
  </g>
  <g
     id="input-keyboard-brightness">
    <rect
       x="38.0051"
       y="96.003998"
       width="32"
       height="32"
       fill="none"
       id="rect12364" />
    <path
       id="path12366"
       class="ColorScheme-Text"
       d="m 49,101.5 c -2.769997,0 -5,2.23 -5,5 v 11 c 0,2.77 3.000002,4.2 5,5 l 5,2 5,-2 c 1.999998,-0.8 5,-2.23 5,-5 v -7 h -1.5 v 5.02539 C 62.5,117.45045 60.950448,119 59.025391,119 H 48.974609 C 47.049552,119 45.5,117.45045 45.5,115.52539 v -9.05078 C 45.5,104.54955 47.049552,103 48.974609,103 H 56 v -1.5 z"
       fill="currentColor"
       sodipodi:nodetypes="sssscssccssssssccs" />
    <path
       id="path2118"
       class="ColorScheme-Text"
       d="m 61,100 c -0.277,0 -0.5,0.223 -0.5,0.5 v 1 c 0,0.277 0.223,0.5 0.5,0.5 0.277,0 0.5,-0.223 0.5,-0.5 v -1 c 0,-0.277 -0.223,-0.5 -0.5,-0.5 z m -3.181641,1.31836 c -0.12781,0 -0.255575,0.0485 -0.353515,0.14648 -0.19587,0.19587 -0.19587,0.51117 0,0.70704 l 0.707031,0.70703 c 0.19587,0.19587 0.511161,0.19587 0.707031,0 0.19587,-0.19587 0.19587,-0.51116 0,-0.70703 l -0.707031,-0.70704 c -0.09793,-0.0979 -0.225706,-0.14648 -0.353516,-0.14648 z m 6.363282,0 c -0.12781,0 -0.255576,0.0485 -0.353516,0.14648 l -0.707031,0.70704 c -0.19586,0.19587 -0.19586,0.51116 0,0.70703 0.19587,0.19587 0.511171,0.19587 0.707031,0 l 0.707031,-0.70703 c 0.19586,-0.19587 0.19586,-0.51117 0,-0.70704 -0.0979,-0.0979 -0.225705,-0.14648 -0.353515,-0.14648 z M 61,103 c -1.1046,0 -2,0.89543 -2,2 0,1.10457 0.89543,2 2,2 1.1046,0 2,-0.89543 2,-2 0,-1.10457 -0.89543,-2 -2,-2 z m 0,1 v 2 c -0.55228,0 -1,-0.44772 -1,-1 0,-0.55228 0.44772,-1 1,-1 z m -4.5,0.5 c -0.277,0 -0.5,0.223 -0.5,0.5 0,0.277 0.223,0.5 0.5,0.5 h 1 c 0.277,0 0.5,-0.223 0.5,-0.5 0,-0.277 -0.223,-0.5 -0.5,-0.5 z m 8,0 c -0.277,0 -0.5,0.223 -0.5,0.5 0,0.277 0.223,0.5 0.5,0.5 h 1 c 0.277,0 0.5,-0.223 0.5,-0.5 0,-0.277 -0.223,-0.5 -0.5,-0.5 z m -5.974609,2.47461 c -0.12781,0 -0.255576,0.0486 -0.353516,0.14648 l -0.707031,0.70704 c -0.19587,0.19586 -0.19587,0.51116 0,0.70703 0.19587,0.19587 0.511161,0.19587 0.707031,0 l 0.707031,-0.70703 c 0.19587,-0.19587 0.19587,-0.51117 0,-0.70704 -0.09793,-0.0979 -0.225705,-0.14648 -0.353515,-0.14648 z m 4.949218,0 c -0.12781,0 -0.255575,0.0486 -0.353515,0.14648 -0.19586,0.19587 -0.19586,0.51117 0,0.70704 l 0.707031,0.70703 c 0.19587,0.19587 0.511161,0.19587 0.707031,0 0.19586,-0.19587 0.19586,-0.51117 0,-0.70703 l -0.707031,-0.70704 c -0.0979,-0.0979 -0.225706,-0.14648 -0.353516,-0.14648 z M 61,108 c -0.277,0 -0.5,0.223 -0.5,0.5 v 1 c 0,0.277 0.223,0.5 0.5,0.5 0.277,0 0.5,-0.223 0.5,-0.5 v -1 c 0,-0.277 -0.223,-0.5 -0.5,-0.5 z"
       fill="currentColor" />
    <path
       id="path665"
       d="M 52.886719 106 L 49.078125 116 L 50.683594 116 L 51.636719 113.5 L 56.363281 113.5 L 57.316406 116 L 58.921875 116 L 55.113281 106 L 52.886719 106 z M 54 107.29688 L 55.792969 112 L 52.207031 112 L 54 107.29688 z "
       fill="currentColor"
       class="ColorScheme-Text" />
  </g>
  <g
     id="input-keyboard-battery">
    <rect
       x="38.010002"
       y="127.99998"
       width="32"
       height="32"
       ry="0"
       fill="none"
       id="rect22" />
    <path
       id="path2237"
       class="ColorScheme-Text"
       d="m 62.009766,132 -2,5 h 2 v 3 l 2,-5 h -2 z"
       fill="currentColor"
       sodipodi:nodetypes="ccccccc" />
    <path
       id="path1440"
       class="ColorScheme-Text"
       d="m 49,133.5 c -2.769997,0 -5,2.23 -5,5 v 11 c 0,2.77 3.000002,4.2 5,5 l 5,2 5,-2 c 1.999998,-0.8 5,-2.23 5,-5 v -9 h -1.5 v 7.02539 C 62.5,149.45045 60.950448,151 59.025391,151 H 48.974609 C 47.049552,151 45.5,149.45045 45.5,147.52539 v -9.05078 C 45.5,136.54955 47.049552,135 48.974609,135 H 59 v -1.5 z"
       fill="currentColor"
       sodipodi:nodetypes="sssscssccssssssccs" />
    <path
       id="path1444"
       d="m 52.886719,138 -3.808594,10 h 1.605469 l 0.953125,-2.5 h 4.726562 l 0.953125,2.5 h 1.605469 L 55.113281,138 Z M 54,139.29688 55.792969,144 h -3.585938 z"
       fill="currentColor"
       class="ColorScheme-Text" />
  </g>
  <g
     id="input-caps-on">
    <rect
       x="38.0051"
       y="160.004"
       width="32"
       height="32"
       fill="none"
       id="rect49" />
    <path
       id="path51"
       class="ColorScheme-Text"
       d="m 49,165.5 c -2.769997,0 -5,2.23 -5,5 v 11 c 0,2.77 3.000002,4.2 5,5 l 5,2 5,-2 c 1.999998,-0.8 5,-2.23 5,-5 v -11 c 0,-2.77 -2.230003,-5 -5,-5 z m -0.02539,1.5 h 10.050782 c 1.925057,0 3.474609,1.54955 3.474609,3.47461 v 9.05078 c 0,1.92506 -1.549552,3.47461 -3.474609,3.47461 H 48.974609 C 47.049552,183 45.5,181.45045 45.5,179.52539 v -9.05078 C 45.5,168.54955 47.049552,167 48.97461,167 Z"
       fill="currentColor"
       sodipodi:nodetypes="sssscssssssssssssss" />
    <path
       id="path1467"
       d="m 52.88672,170 -3.8086,10 h 1.60547 l 0.95313,-2.5 h 4.72656 l 0.95313,2.5 h 1.60546 L 55.11328,170 Z M 54,171.29688 55.79297,176 h -3.58594 z"
       fill="currentColor"
       class="ColorScheme-Text" />
  </g>
  <g
     id="input-keyboard-virtual-off"
     transform="translate(0,-1.0000005)">
    <circle
       id="circle485"
       cx="66.5"
       cy="90.5"
       r="3.5"
       class="ColorScheme-Text"
       fill="currentColor"
       style="opacity:0.35" />
    <path
       d="M 38,65 H 70 V 97.000001 H 38 Z"
       fill="none"
       id="path937"
       style="stroke-width:1.45455" />
    <path
       id="path939"
       class="ColorScheme-Text"
       d="m 43,70 c -2.215996,0 -4,1.784004 -4,4 v 15 c 0,2.215996 1.784004,4 4,4 H 62.181641 A 5,5 0 0 1 61.5,90.5 a 5,5 0 0 1 5,-5 5,5 0 0 1 2.5,0.671875 V 74 c 0,-2.215996 -1.784004,-4 -4,-4 z m 6.5,4 c 1.656744,0 3,1.343256 3,3 v 1.5 h 3 V 77 c 0,-1.656744 1.343061,-3 3,-3 1.656744,0 3,1.343256 3,3 0,1.656744 -1.343256,3 -3,3 H 57 v 3 h 1.5 c 1.656744,3.75e-4 3,1.343256 3,3 0,1.656744 -1.343256,3 -3,3 -1.656744,0 -3,-1.343256 -3,-3 v -1.5 h -3 V 86 c 0,1.656744 -1.343061,3 -3,3 -1.656744,0 -3,-1.343256 -3,-3 0,-1.656744 1.343256,-3 3,-3 H 51 v -3 h -1.5 c -1.656744,0 -3,-1.343256 -3,-3 0,-1.656744 1.343256,-3 3,-3 z m 0,1.5 c -0.828371,0 -1.5,0.671629 -1.5,1.5 0,0.828192 0.671629,1.5 1.5,1.5 H 51 V 77 c 0,-0.828371 -0.671629,-1.5 -1.5,-1.5 z m 9,0 C 57.671629,75.5 57,76.171629 57,77 v 1.5 h 1.5 c 0.828371,0 1.5,-0.671629 1.5,-1.5 0,-0.828371 -0.671629,-1.5 -1.5,-1.5 z m -6,4.5 v 3 h 3 v -3 z m -3,4.5 c -0.828371,0 -1.5,0.671629 -1.5,1.5 0,0.828371 0.671629,1.5 1.5,1.5 0.828371,0 1.5,-0.671629 1.5,-1.5 v -1.5 z m 7.5,0 V 86 c 0,0.828371 0.671629,1.5 1.5,1.5 0.828371,0 1.5,-0.671629 1.5,-1.5 0,-0.828371 -0.671629,-1.5 -1.5,-1.5 z"
       fill="currentColor" />
  </g>
</svg>
