<?xml version="1.0" encoding="UTF-8" standalone="no"?>
<svg
   width="70"
   height="256"
   version="1.1"
   viewBox="0 0 70 256"
   id="svg99"
   sodipodi:docname="input.svg"
   inkscape:version="1.2.2 (b0a8486541, 2022-12-01)"
   xmlns:inkscape="http://www.inkscape.org/namespaces/inkscape"
   xmlns:sodipodi="http://sodipodi.sourceforge.net/DTD/sodipodi-0.dtd"
   xmlns:xlink="http://www.w3.org/1999/xlink"
   xmlns="http://www.w3.org/2000/svg"
   xmlns:svg="http://www.w3.org/2000/svg">
  <sodipodi:namedview
     id="namedview101"
     pagecolor="#ffffff"
     bordercolor="#666666"
     borderopacity="1.0"
     inkscape:showpageshadow="2"
     inkscape:pageopacity="0.0"
     inkscape:pagecheckerboard="0"
     inkscape:deskcolor="#d1d1d1"
     showgrid="true"
     inkscape:zoom="1.3037281"
     inkscape:cx="243.14885"
     inkscape:cy="70.950375"
     inkscape:window-width="1920"
     inkscape:window-height="1004"
     inkscape:window-x="0"
     inkscape:window-y="0"
     inkscape:window-maximized="1"
     inkscape:current-layer="svg99">
    <inkscape:grid
       type="xygrid"
       id="grid384" />
  </sodipodi:namedview>
  <defs
     id="defs3">
    <style
       id="current-color-scheme"
       type="text/css">.ColorScheme-Text {
        color:#363636;
      }
      .ColorScheme-Background {
        color:#efefef;
      }
      .ColorScheme-Highlight {
        color:#3daee9;
      }
      .ColorScheme-ViewText {
        color:#363636;
      }
      .ColorScheme-ViewBackground {
        color:#fcfcfc;
      }
      .ColorScheme-ViewHover {
        color:#93cee9;
      }
      .ColorScheme-ViewFocus{
        color:#3daee9;
      }
      .ColorScheme-ButtonText {
        color:#363636;
      }
      .ColorScheme-ButtonBackground {
        color:#ffffff;
      }
      .ColorScheme-ButtonHover {
        color:#93cee9;
      }
      .ColorScheme-ButtonFocus{
        color:#3daee9;
      }</style>
  </defs>
  <use
     id="fcitx-vk-inactive"
     transform="translate(104,-6)"
     width="100%"
     height="100%"
     opacity=".5"
     xlink:href="#fcitx-kbd" />
  <g
     id="22-22-input-keyboard">
    <path
       class="ColorScheme-Text"
       d="m 18,14 c 1.1045,0 2,0.8955 2,2 v 1 h 2 v -1 c 0,-1.1045 0.89537,-2 2,-2 1.1045,0 2,0.8955 2,2 0,1.1045 -0.8955,2 -2,2 h -1 v 2 h 1 c 1.1045,2.5e-4 2,0.8955 2,2 0,1.1045 -0.8955,2 -2,2 -1.1045,0 -2,-0.8955 -2,-2 v -1 h -2 v 1 c 0,1.1045 -0.89537,2 -2,2 -1.1045,0 -2,-0.8955 -2,-2 0,-1.1045 0.8955,-2 2,-2 h 1 v -2 h -1 c -1.1045,0 -2,-0.8955 -2,-2 0,-1.1045 0.8955,-2 2,-2 z m 0,1 c -0.55225,0 -1,0.44775 -1,1 0,0.55213 0.44775,1 1,1 h 1 v -1 c 0,-0.55225 -0.44775,-1 -1,-1 z m 6,0 c -0.55225,0 -1,0.44775 -1,1 v 1 h 1 c 0.55225,0 1,-0.44775 1,-1 0,-0.55225 -0.44775,-1 -1,-1 z m -4,3 v 2 h 2 v -2 z m -2,3 c -0.55225,0 -1,0.44775 -1,1 0,0.55225 0.44775,1 1,1 0.55225,0 1,-0.44775 1,-1 v -1 z m 5,0 v 1 c 0,0.55225 0.44775,1 1,1 0.55225,0 1,-0.44775 1,-1 0,-0.55225 -0.44775,-1 -1,-1 z"
       fill="currentColor"
       id="path65" />
    <path
       d="m10 8h22v22h-22z"
       fill="none"
       id="path67" />
    <path
       id="rect534"
       class="ColorScheme-Text"
       d="M 16 11 C 14.338004 11 13 12.338004 13 14 L 13 24 C 13 25.661996 14.338004 27 16 27 L 26 27 C 27.661996 27 29 25.661996 29 24 L 29 14 C 29 12.338004 27.661996 11 26 11 L 16 11 z M 16 13 L 26 13 C 26.553999 13 27 13.446001 27 14 L 27 24 C 27 24.553999 26.553999 25 26 25 L 16 25 C 15.446001 25 15 24.553999 15 24 L 15 14 C 15 13.446001 15.446001 13 16 13 z "
       fill="currentColor" />
  </g>
  <g
     id="input-keyboard">
    <rect
       x="38"
       y="-5.6172e-6"
       width="32"
       height="32"
       fill="none"
       id="rect89" />
    <path
       class="ColorScheme-Text"
       fill="currentColor"
       d="M 48.5,7 C 50.432997,7 52,8.5670034 52,10.5 V 12 h 4 V 10.5 C 56,8.5670034 57.567003,7 59.5,7 61.432997,7 63,8.5670034 63,10.5 63,12.432997 61.432997,14 59.5,14 H 58 v 4 h 1.5 C 61.432997,18 63,19.567003 63,21.5 63,23.432997 61.432997,25 59.5,25 57.567003,25 56,23.432997 56,21.5 V 20 h -4 v 1.5 C 52,23.432997 50.432997,25 48.5,25 46.567003,25 45,23.432997 45,21.5 45,19.567003 46.567003,18 48.5,18 H 50 V 14 H 48.5 C 46.567003,14 45,12.432997 45,10.5 45,8.5670034 46.567003,7 48.5,7 Z m 0,2 C 47.671573,9 47,9.6715729 47,10.5 47,11.328427 47.671573,12 48.5,12 H 50 V 10.5 C 50,9.6715729 49.328427,9 48.5,9 Z m 11,0 C 58.671573,9 58,9.6715729 58,10.5 V 12 h 1.5 C 60.328427,12 61,11.328427 61,10.5 61,9.6715729 60.328427,9 59.5,9 Z M 52,14 v 4 h 4 v -4 z m -3.5,6 c -0.828427,0 -1.5,0.671573 -1.5,1.5 0,0.828427 0.671573,1.5 1.5,1.5 0.828427,0 1.5,-0.671573 1.5,-1.5 V 20 Z m 9.5,0 v 1.5 C 58,22.328427 58.671573,23 59.5,23 60.328427,23 61,22.328427 61,21.5 61,20.671573 60.328427,20 59.5,20 Z"
       id="path91" />
    <path
       id="rect938"
       d="M 46 3 C 43.230003 3 41 5.2300028 41 8 L 41 24 C 41 26.769997 43.230003 29 46 29 L 62 29 C 64.769997 29 67 26.769997 67 24 L 67 8 C 67 5.2300028 64.769997 3 62 3 L 46 3 z M 46 5 L 62 5 C 63.661998 5 65 6.3380017 65 8 L 65 24 C 65 25.661998 63.661998 27 62 27 L 46 27 C 44.338002 27 43 25.661998 43 24 L 43 8 C 43 6.3380017 44.338002 5 46 5 z "
       class="ColorScheme-Text"
       fill="currentColor" />
  </g>
  <g
     id="22-22-input-keyboard-virtual-on">
    <path
       id="path1069"
       class="ColorScheme-Text"
       d="M 18 46 C 16.895501 46 16 46.895501 16 48 C 16 49.104499 16.895501 50 18 50 L 19 50 L 19 52 L 18 52 C 16.895501 52 16 52.895501 16 54 C 16 55.104499 16.895501 56 18 56 C 19.104629 56 20 55.104499 20 54 L 20 53 L 22 53 L 22 54 C 22 54.774267 22.440348 55.444981 23.083984 55.777344 A 3.5 3.5 0 0 1 23.435547 54.826172 C 23.172766 54.645974 23 54.342671 23 54 L 23 53 L 24 53 C 24.342671 53 24.645974 53.172766 24.826172 53.435547 A 3.5 3.5 0 0 1 25.777344 53.083984 C 25.444981 52.440406 24.774267 52.000175 24 52 L 23 52 L 23 50 L 24 50 C 25.104499 50 26 49.104499 26 48 C 26 46.895501 25.104499 46 24 46 C 22.895371 46 22 46.895501 22 48 L 22 49 L 20 49 L 20 48 C 20 46.895501 19.104499 46 18 46 z M 18 47 C 18.552249 47 19 47.447751 19 48 L 19 49 L 18 49 C 17.447751 49 17 48.552129 17 48 C 17 47.447751 17.447751 47 18 47 z M 24 47 C 24.552249 47 25 47.447751 25 48 C 25 48.552249 24.552249 49 24 49 L 23 49 L 23 48 C 23 47.447751 23.447751 47 24 47 z M 20 50 L 22 50 L 22 52 L 20 52 L 20 50 z M 18 53 L 19 53 L 19 54 C 19 54.552249 18.552249 55 18 55 C 17.447751 55 17 54.552249 17 54 C 17 53.447751 17.447751 53 18 53 z "
       fill="currentColor" />
    <path
       d="M 10,40 H 32 V 62 H 10 Z"
       fill="none"
       id="path1071" />
    <path
       id="path1073"
       class="ColorScheme-Text"
       d="M 16 43 C 14.338006 43 13 44.338006 13 46 L 13 56 C 13 57.661994 14.338006 59 16 59 L 24.0625 59 A 3.5 3.5 0 0 1 23.035156 57 L 16 57 C 15.446002 57 15 56.553998 15 56 L 15 46 C 15 45.446002 15.446002 45 16 45 L 26 45 C 26.553998 45 27 45.446002 27 46 L 27 53.035156 A 3.5 3.5 0 0 1 29 54.052734 L 29 46 C 29 44.338006 27.661994 43 26 43 L 16 43 z "
       fill="currentColor" />
    <circle
       id="path1132"
       cx="26.5"
       cy="56.5"
       r="2.5"
       style="fill:#42d15b;fill-opacity:1" />
  </g>
  <g
     id="22-22-input-keyboard-virtual-off"
     transform="translate(0,64)"
     style="opacity:0.35">
    <path
       class="ColorScheme-Text"
       d="m 18,14 c 1.1045,0 2,0.8955 2,2 v 1 h 2 v -1 c 0,-1.1045 0.89537,-2 2,-2 1.1045,0 2,0.8955 2,2 0,1.1045 -0.8955,2 -2,2 h -1 v 2 h 1 c 1.1045,2.5e-4 2,0.8955 2,2 0,1.1045 -0.8955,2 -2,2 -1.1045,0 -2,-0.8955 -2,-2 v -1 h -2 v 1 c 0,1.1045 -0.89537,2 -2,2 -1.1045,0 -2,-0.8955 -2,-2 0,-1.1045 0.8955,-2 2,-2 h 1 v -2 h -1 c -1.1045,0 -2,-0.8955 -2,-2 0,-1.1045 0.8955,-2 2,-2 z m 0,1 c -0.55225,0 -1,0.44775 -1,1 0,0.55213 0.44775,1 1,1 h 1 v -1 c 0,-0.55225 -0.44775,-1 -1,-1 z m 6,0 c -0.55225,0 -1,0.44775 -1,1 v 1 h 1 c 0.55225,0 1,-0.44775 1,-1 0,-0.55225 -0.44775,-1 -1,-1 z m -4,3 v 2 h 2 v -2 z m -2,3 c -0.55225,0 -1,0.44775 -1,1 0,0.55225 0.44775,1 1,1 0.55225,0 1,-0.44775 1,-1 v -1 z m 5,0 v 1 c 0,0.55225 0.44775,1 1,1 0.55225,0 1,-0.44775 1,-1 0,-0.55225 -0.44775,-1 -1,-1 z"
       fill="currentColor"
       id="path1769" />
    <path
       d="M 10,8 H 32 V 30 H 10 Z"
       fill="none"
       id="path1771" />
    <path
       id="path1773"
       class="ColorScheme-Text"
       d="m 16,11 c -1.661996,0 -3,1.338004 -3,3 v 10 c 0,1.661996 1.338004,3 3,3 h 10 c 1.661996,0 3,-1.338004 3,-3 V 14 c 0,-1.661996 -1.338004,-3 -3,-3 z m 0,2 h 10 c 0.553999,0 1,0.446001 1,1 v 10 c 0,0.553999 -0.446001,1 -1,1 H 16 c -0.553999,0 -1,-0.446001 -1,-1 V 14 c 0,-0.553999 0.446001,-1 1,-1 z"
       fill="currentColor" />
  </g>
  <g
     id="input-keyboard-virtual-off"
     transform="translate(0,64)"
     style="opacity:0.35">
    <rect
       x="38"
       y="-5.6171998e-06"
       width="32"
       height="32"
       fill="none"
       id="rect1787" />
    <path
       class="ColorScheme-Text"
       fill="currentColor"
       d="M 48.5,7 C 50.432997,7 52,8.5670034 52,10.5 V 12 h 4 V 10.5 C 56,8.5670034 57.567003,7 59.5,7 61.432997,7 63,8.5670034 63,10.5 63,12.432997 61.432997,14 59.5,14 H 58 v 4 h 1.5 C 61.432997,18 63,19.567003 63,21.5 63,23.432997 61.432997,25 59.5,25 57.567003,25 56,23.432997 56,21.5 V 20 h -4 v 1.5 C 52,23.432997 50.432997,25 48.5,25 46.567003,25 45,23.432997 45,21.5 45,19.567003 46.567003,18 48.5,18 H 50 V 14 H 48.5 C 46.567003,14 45,12.432997 45,10.5 45,8.5670034 46.567003,7 48.5,7 Z m 0,2 C 47.671573,9 47,9.6715729 47,10.5 47,11.328427 47.671573,12 48.5,12 H 50 V 10.5 C 50,9.6715729 49.328427,9 48.5,9 Z m 11,0 C 58.671573,9 58,9.6715729 58,10.5 V 12 h 1.5 C 60.328427,12 61,11.328427 61,10.5 61,9.6715729 60.328427,9 59.5,9 Z M 52,14 v 4 h 4 v -4 z m -3.5,6 c -0.828427,0 -1.5,0.671573 -1.5,1.5 0,0.828427 0.671573,1.5 1.5,1.5 0.828427,0 1.5,-0.671573 1.5,-1.5 V 20 Z m 9.5,0 v 1.5 C 58,22.328427 58.671573,23 59.5,23 60.328427,23 61,22.328427 61,21.5 61,20.671573 60.328427,20 59.5,20 Z"
       id="path1789" />
    <path
       id="path1791"
       d="m 46,3 c -2.769997,0 -5,2.2300028 -5,5 v 16 c 0,2.769997 2.230003,5 5,5 h 16 c 2.769997,0 5,-2.230003 5,-5 V 8 C 67,5.2300028 64.769997,3 62,3 Z m 0,2 h 16 c 1.661998,0 3,1.3380017 3,3 v 16 c 0,1.661998 -1.338002,3 -3,3 H 46 c -1.661998,0 -3,-1.338002 -3,-3 V 8 c 0,-1.6619983 1.338002,-3 3,-3 z"
       class="ColorScheme-Text"
       fill="currentColor" />
  </g>
  <g
     id="input-keyboard-virtual-on">
    <rect
       x="38"
       y="31.999994"
       width="32"
       height="32"
       fill="none"
       id="rect1779" />
    <path
       id="path1781"
       class="ColorScheme-Text"
       d="M 48.5 39 C 46.567005 39 45 40.567005 45 42.5 C 45 44.432995 46.567005 46 48.5 46 L 50 46 L 50 50 L 48.5 50 C 46.567005 50 45 51.567005 45 53.5 C 45 55.432995 46.567005 57 48.5 57 C 50.432995 57 52 55.432995 52 53.5 L 52 52 L 56 52 L 56 53.5 C 56 54.920399 56.846797 56.14082 58.0625 56.689453 A 5.5 5.5 0 0 1 58.730469 54.785156 C 58.293734 54.522941 58 54.046491 58 53.5 L 58 52 L 59.5 52 C 60.046491 52 60.522941 52.293734 60.785156 52.730469 A 5.5 5.5 0 0 1 62.689453 52.0625 C 62.14082 50.846797 60.920399 50 59.5 50 L 58 50 L 58 46 L 59.5 46 C 61.432995 46 63 44.432995 63 42.5 C 63 40.567005 61.432995 39 59.5 39 C 57.567005 39 56 40.567005 56 42.5 L 56 44 L 52 44 L 52 42.5 C 52 40.567005 50.432995 39 48.5 39 z M 48.5 41 C 49.328426 41 50 41.671574 50 42.5 L 50 44 L 48.5 44 C 47.671574 44 47 43.328426 47 42.5 C 47 41.671574 47.671574 41 48.5 41 z M 59.5 41 C 60.328426 41 61 41.671574 61 42.5 C 61 43.328426 60.328426 44 59.5 44 L 58 44 L 58 42.5 C 58 41.671574 58.671574 41 59.5 41 z M 52 46 L 56 46 L 56 50 L 52 50 L 52 46 z M 48.5 52 L 50 52 L 50 53.5 C 50 54.328426 49.328426 55 48.5 55 C 47.671574 55 47 54.328426 47 53.5 C 47 52.671574 47.671574 52 48.5 52 z "
       fill="currentColor" />
    <path
       id="path1783"
       class="ColorScheme-Text"
       d="M 46 35 C 43.230006 35 41 37.230006 41 40 L 41 56 C 41 58.769994 43.230006 61 46 61 L 59.267578 61 A 5.5 5.5 0 0 1 58.212891 59 L 46 59 C 44.338004 59 43 57.661996 43 56 L 43 40 C 43 38.338004 44.338004 37 46 37 L 62 37 C 63.661996 37 65 38.338004 65 40 L 65 52.208984 A 5.5 5.5 0 0 1 67 53.257812 L 67 40 C 67 37.230006 64.769994 35 62 35 L 46 35 z "
       fill="currentColor" />
    <circle
       id="path1850"
       cx="63.5"
       cy="57.5"
       r="3.5"
       style="fill:#42d15b;fill-opacity:1" />
  </g>
  <g
     id="22-22-input-mouse-battery"
     transform="translate(-310,-300.36)">
    <rect
       x="326"
       y="534.35999"
       width="22"
       height="22"
       ry="0"
       fill="none"
       id="rect5" />
    <path
       id="path7"
       class="ColorScheme-Text"
       d="m 13.509766,227 c -3.047,0 -5.5000004,2.676 -5.5000004,6 v 4 c 0,3.324 2.4530004,6 5.5000004,6 3.047,0 5.5,-2.676 5.5,-6 v -4 c 0,-3.324 -2.453,-6 -5.5,-6 z M 13.5,229 c 1.939,0 3.5,1.561 3.5,3.5 v 5 c 0,1.939 -1.561,3.5 -3.5,3.5 -1.939,0 -3.5,-1.561 -3.5,-3.5 v -5 c 0,-1.939 1.561,-3.5 3.5,-3.5 z"
       transform="translate(325.99,310.36)"
       fill="currentColor" />
    <path
       class="ColorScheme-Text"
       d="m 331,537.36 -2,5 h 2 v 3 l 2,-5 h -2 z"
       fill="currentColor"
       id="path9" />
    <rect
       id="rect5356"
       width="1"
       height="3"
       x="338.98999"
       y="541.35999"
       rx="0.5"
       ry="0.5"
       fill="currentColor"
       class="ColorScheme-Text" />
  </g>
  <g
     id="22-22-input-keyboard-battery"
     transform="translate(16,10)">
    <rect
       x="0.0099999998"
       y="127.99998"
       width="22"
       height="22"
       ry="0"
       fill="none"
       id="rect12" />
    <path
       id="path14"
       class="ColorScheme-Text"
       d="m 6.9941406,131 c -1.662,0 -3,1.338 -3,3 v 7 c 0,2 1,3.00025 3,4 L 11,147.00195 14.994141,145 c 1.995504,-1 3,-2 3,-4 v -1 H 16 v 1 c 0,0.554 -0.446,1 -1,1 H 7 c -0.554,0 -1,-0.446 -1,-1 v -7 c 0,-0.554 0.446,-1 1,-1 h 7 v -2 z"
       fill="currentColor" />
    <path
       id="path3873"
       class="ColorScheme-Text"
       d="m 16.009766,131 -2,5 h 2 v 3 l 2,-5 h -2 z m -5.572266,3.00195 -2.4375,6 h 1.0742188 l 0.40625,-1 h 3.0390622 l 0.40625,1 H 14 V 140 l -2.439453,-5.99805 h -0.537109 l -0.02344,0.01 -0.02344,-0.01 z m 0.5625,1.25782 1.113281,2.74218 H 9.8867188 Z"
       fill="currentColor" />
  </g>
  <g
     id="input-keyboard-battery"
     transform="translate(16,10)">
    <rect
       x="22.01"
       y="117.99998"
       width="32"
       height="32"
       ry="0"
       fill="none"
       id="rect22" />
    <path
       id="path24"
       class="ColorScheme-Text"
       d="m 33.009766,123 c -2.77,0 -5,2.23 -5,5 v 12 c 0,2.77 3,4.2 5,5 l 5,2 5,-2 c 2,-0.8 5,-2.23 5,-5 v -9 h -2 v 7 c 0,1.662 -1.338,3 -3,3 h -10 c -1.662,0 -3,-1.338 -3,-3 v -10 c 0,-1.662 1.338,-3 3,-3 H 43 v -2 z"
       fill="currentColor"
       style="color:#363636" />
    <path
       id="path2237"
       class="ColorScheme-Text"
       d="m 46.009766,122 -2,5 h 2 v 3 l 2,-5 h -2 z m -9.095704,6 -3.660156,10 h 1.97461 l 0.814453,-2.49414 h 3.855469 L 40.705078,138 h 2.060547 l -3.472656,-10 z m 1.064454,1.58594 1.382812,4.26367 h -2.77539 z"
       fill="currentColor" />
  </g>
  <g
     id="22-22-input-caps-on"
     transform="translate(16,10)">
    <rect
       x="0.0049988707"
       y="160.002"
       width="22"
       height="22"
       fill="none"
       id="rect39" />
    <path
       id="path41"
       class="ColorScheme-Text"
       d="m 7,163 c -1.662,0 -3,1.338 -3,3 v 7 c 0,2 1,3.00025 3,4 l 4.005859,2.00195 L 15,177 c 1.995504,-1 3,-2 3,-4 v -7 c 0,-1.662 -1.338,-3 -3,-3 z m 0,2 h 8 c 0.554,0 1,0.446 1,1 v 7 c 0,0.554 -0.446,1 -1,1 H 7 c -0.554,0 -1,-0.446 -1,-1 v -7 c 0,-0.554 0.446,-1 1,-1 z"
       fill="currentColor" />
    <path
       id="path3174"
       class="ColorScheme-Text"
       d="m 10.443359,166.00195 -2.4374996,6 h 1.0742187 l 0.40625,-1 h 3.0390629 l 0.40625,1 h 1.074218 l -2.439453,-6 h -0.537109 l -0.02344,0.01 -0.02344,-0.01 z m 0.5625,1.25782 1.113282,2.74218 H 9.8925781 Z"
       fill="currentColor" />
  </g>
  <g
     id="input-caps-on"
     transform="translate(16,10)">
    <rect
       x="22.0051"
       y="150.004"
       width="32"
       height="32"
       fill="none"
       id="rect49" />
    <path
       id="path51"
       class="ColorScheme-Text"
       d="m 33,155 c -2.77,0 -5,2.23 -5,5 v 12 c 0,2.77 3,4.2 5,5 l 5,2 5,-2 c 2,-0.8 5,-2.23 5,-5 v -12 c 0,-2.77 -2.23,-5 -5,-5 z m 0,2 h 10 c 1.662,0 3,1.338 3,3 v 10 c 0,1.662 -1.338,3 -3,3 H 33 c -1.662,0 -3,-1.338 -3,-3 v -10 c 0,-1.662 1.338,-3 3,-3 z"
       fill="currentColor" />
    <path
       id="path2433"
       class="ColorScheme-Text"
       d="m 36.904297,160 -3.660156,10 h 1.974609 l 0.814453,-2.49414 h 3.855469 L 40.695312,170 h 2.060547 l -3.472656,-10 z m 1.064453,1.58594 1.382812,4.26367 h -2.77539 z"
       fill="currentColor" />
  </g>
  <g
     id="22-22-input-keyboard-brightness"
     transform="translate(84,8)">
    <rect
       x="-67.995003"
       y="98.001999"
       width="22"
       height="22"
       fill="none"
       id="rect12358" />
    <path
       id="path12360"
       class="ColorScheme-Text"
       d="m 7,99 c -1.662,0 -3,1.338 -3,3 v 7 c 0,2 1,3.00025 3,4 l 4.005859,2.00195 L 15,113 c 1.995504,-1 3,-2 3,-4 v -5 h -2 v 5 c 0,0.554 -0.446,1 -1,1 H 7 c -0.554,0 -1,-0.446 -1,-1 v -7 c 0,-0.554 0.446,-1 1,-1 h 6 v -2 z"
       transform="translate(-68,2)"
       fill="currentColor" />
    <path
       id="path1380"
       class="ColorScheme-Text"
       d="m -52,101 c -1.1046,0 -2,0.89543 -2,2 0,1.10457 0.89543,2 2,2 1.10457,0 2,-0.89543 2,-2 0,-1.10457 -0.89543,-2 -2,-2 z m 0,1 v 2 c -0.55228,0 -1,-0.44771 -1,-1 0,-0.55228 0.44772,-1 1,-1 z m -5.556641,2.00195 -2.4375,6 h 1.074219 l 0.40625,-1 h 3.039063 l 0.40625,1 h 1.074218 l -2.439453,-6 h -0.537109 l -0.02344,0.01 -0.02344,-0.01 z m 0.5625,1.25782 1.113282,2.74218 h -2.226563 z"
       fill="currentColor" />
  </g>
  <g
     id="input-keyboard-brightness"
     transform="translate(84,8)">
    <rect
       x="-45.9949"
       y="88.003998"
       width="32"
       height="32"
       fill="none"
       id="rect12364" />
    <path
       id="path12366"
       class="ColorScheme-Text"
       d="m -35,93 c -2.77,0 -5,2.23 -5,5 v 12 c 0,2.77 3,4.2 5,5 l 5,2 5,-2 c 2,-0.8 5,-2.23 5,-5 v -7 h -2 v 5 c 0,1.662 -1.338,3 -3,3 h -10 c -1.662,0 -3,-1.338 -3,-3 V 98 c 0,-1.662 1.338,-3 3,-3 h 7 v -2 z"
       fill="currentColor" />
    <path
       id="path2118"
       class="ColorScheme-Text"
       d="m -23,92 c -0.277,0 -0.5,0.223 -0.5,0.5 v 1 c 0,0.277 0.223,0.5 0.5,0.5 0.277,0 0.5,-0.223 0.5,-0.5 v -1 c 0,-0.277 -0.223,-0.5 -0.5,-0.5 z m -3.181641,1.318359 c -0.12781,0 -0.255575,0.04851 -0.353515,0.146485 -0.19587,0.19587 -0.19587,0.511161 0,0.707031 l 0.707031,0.707031 c 0.19587,0.19587 0.511161,0.19587 0.707031,0 0.19587,-0.19587 0.19587,-0.511161 0,-0.707031 l -0.707031,-0.707031 c -0.09793,-0.0979 -0.225706,-0.146485 -0.353516,-0.146485 z m 6.363282,0 c -0.12781,0 -0.255576,0.04851 -0.353516,0.146485 l -0.707031,0.707031 c -0.19586,0.19587 -0.19586,0.511161 0,0.707031 0.19587,0.19587 0.511171,0.19587 0.707031,0 l 0.707031,-0.707031 c 0.19586,-0.19587 0.19586,-0.511161 0,-0.707031 -0.0979,-0.0979 -0.225705,-0.146485 -0.353515,-0.146485 z M -23,95 c -1.1046,0 -2,0.89543 -2,2 0,1.10457 0.89543,2 2,2 1.1046,0 2,-0.89543 2,-2 0,-1.10457 -0.89543,-2 -2,-2 z m 0,1 v 2 c -0.55228,0 -1,-0.44772 -1,-1 0,-0.55228 0.44772,-1 1,-1 z m -4.5,0.5 c -0.277,0 -0.5,0.223 -0.5,0.5 0,0.277 0.223,0.5 0.5,0.5 h 1 c 0.277,0 0.5,-0.223 0.5,-0.5 0,-0.277 -0.223,-0.5 -0.5,-0.5 z m 8,0 c -0.277,0 -0.5,0.223 -0.5,0.5 0,0.277 0.223,0.5 0.5,0.5 h 1 c 0.277,0 0.5,-0.223 0.5,-0.5 0,-0.277 -0.223,-0.5 -0.5,-0.5 z m -11.595703,1.5 -3.660156,10 h 1.974609 l 0.814453,-2.49414 h 3.855469 L -27.304688,108 h 2.060547 l -3.472656,-10 z m 5.621094,0.974609 c -0.12781,0 -0.255576,0.0486 -0.353516,0.146485 l -0.707031,0.707031 c -0.19587,0.195865 -0.19587,0.511165 0,0.707035 0.19587,0.19587 0.511161,0.19587 0.707031,0 l 0.707031,-0.707035 c 0.19587,-0.19587 0.19587,-0.511161 0,-0.707031 -0.09793,-0.0979 -0.225705,-0.146485 -0.353515,-0.146485 z m 4.949218,0 c -0.12781,0 -0.255575,0.0486 -0.353515,0.146485 -0.19586,0.19587 -0.19586,0.511161 0,0.707031 l 0.707031,0.707035 c 0.19587,0.19587 0.511161,0.19587 0.707031,0 0.19586,-0.19587 0.19586,-0.51117 0,-0.707035 l -0.707031,-0.707031 c -0.0979,-0.0979 -0.225706,-0.146485 -0.353516,-0.146485 z m -9.505859,0.611329 1.382812,4.263672 h -2.77539 z M -23,100 c -0.277,0 -0.5,0.223 -0.5,0.5 v 1 c 0,0.277 0.223,0.5 0.5,0.5 0.277,0 0.5,-0.223 0.5,-0.5 v -1 c 0,-0.277 -0.223,-0.5 -0.5,-0.5 z"
       fill="currentColor" />
  </g>
  <g
     id="22-22-input-num-on"
     transform="translate(16,10)">
    <rect
       x="0.0049988707"
       y="192.002"
       width="22"
       height="22"
       fill="none"
       id="rect13381" />
    <path
       id="path13383"
       class="ColorScheme-Text"
       d="m 7,195 c -1.662,0 -3,1.338 -3,3 v 7 c 0,2 1,3.00025 3,4 l 4.005859,2.00195 L 15,209 c 1.995504,-1 3,-2 3,-4 v -7 c 0,-1.662 -1.338,-3 -3,-3 z m 0,2 h 8 c 0.554,0 1,0.446 1,1 v 7 c 0,0.554 -0.446,1 -1,1 H 7 c -0.554,0 -1,-0.446 -1,-1 v -7 c 0,-0.554 0.446,-1 1,-1 z"
       fill="currentColor" />
    <path
       class="ColorScheme-Text"
       d="m 11,198 v 1 h -1 v 1 h 1 v 4 h -1 v 1 h 3 v -1 h -1 v -6 z"
       fill="currentColor"
       id="path13395" />
  </g>
  <g
     id="input-num-on"
     transform="translate(16,10)">
    <rect
       x="22.0051"
       y="182.004"
       width="32"
       height="32"
       fill="none"
       id="rect13387" />
    <path
       id="path13389"
       class="ColorScheme-Text"
       d="m 33,187 c -2.77,0 -5,2.23 -5,5 v 12 c 0,2.77 3,4.2 5,5 l 5,2 5,-2 c 2,-0.8 5,-2.23 5,-5 v -12 c 0,-2.77 -2.23,-5 -5,-5 z m 0,2 h 10 c 1.662,0 3,1.338 3,3 v 10 c 0,1.662 -1.338,3 -3,3 H 33 c -1.662,0 -3,-1.338 -3,-3 v -10 c 0,-1.662 1.338,-3 3,-3 z"
       fill="currentColor" />
    <path
       class="ColorScheme-Text"
       d="m 37,192 v 2 h -2 v 2 h 2 v 4 h -2 v 2 h 6 v -2 h -2 v -8 z"
       fill="currentColor"
       id="path13401" />
  </g>
  <g
     id="16-16-input-mouse-battery"
     transform="translate(15.99,10)">
    <path
       class="ColorScheme-Text"
       d="m -7.99,234 -2,5 h 2 v 3 l 2,-5 h -2 z"
       fill="currentColor"
       id="path34" />
    <rect
       x="-15.99"
       y="229.99998"
       width="16"
       height="16"
       fill="none"
       id="rect36" />
    <path
       id="rect5515"
       d="m -8,231 c -2.77,0 -5,2.23 -5,5 v 4 c 0,2.77 2.23,5 5,5 2.77,0 5,-2.23 5,-5 v -4 c 0,-2.77 -2.23,-5 -5,-5 z m 0,2 c 1.662,0 3,1.338 3,3 v 4 c 0,1.662 -1.338,3 -3,3 -1.662,0 -3,-1.338 -3,-3 v -4 c 0,-1.662 1.338,-3 3,-3 z"
       class="ColorScheme-Text"
       fill="currentColor" />
  </g>
  <g
     id="input-mouse-battery"
     transform="translate(13,10)">
    <g
       id="g6641"
       transform="translate(-2,-10)">
      <rect
         x="27"
         y="224"
         width="32"
         height="32"
         ry="0"
         fill="none"
         id="rect369" />
    </g>
    <path
       id="rect5902"
       d="m 41,217 c -4.986,0 -9,4.014 -9,9 v 8 c 0,4.986 4.014,9 9,9 4.986,0 9,-4.014 9,-9 v -8 c 0,-4.986 -4.014,-9 -9,-9 z m 0,2 c 3.878,0 7,3.122 7,7 v 8 c 0,3.878 -3.122,7 -7,7 -3.878,0 -7,-3.122 -7,-7 v -8 c 0,-3.878 3.122,-7 7,-7 z"
       class="ColorScheme-Text"
       fill="currentColor" />
    <path
       id="rect6127"
       d="m 41,221 c -0.554,0 -1,0.446 -1,1 v 4 c 0,0.554 0.446,1 1,1 0.554,0 1,-0.446 1,-1 v -4 c 0,-0.554 -0.446,-1 -1,-1 z m 0,8 -3,6 h 3 v 4 l 3,-6 h -3 z"
       class="ColorScheme-Text"
       fill="currentColor" />
  </g>
</svg>
