<?xml version="1.0" encoding="UTF-8" standalone="no"?>
<svg
   width="70"
   height="256"
   version="1.1"
   viewBox="0 0 70 256"
   id="svg99"
   sodipodi:docname="input.svg"
   inkscape:version="1.2.1 (9c6d41e410, 2022-07-14, custom)"
   xmlns:inkscape="http://www.inkscape.org/namespaces/inkscape"
   xmlns:sodipodi="http://sodipodi.sourceforge.net/DTD/sodipodi-0.dtd"
   xmlns:xlink="http://www.w3.org/1999/xlink"
   xmlns="http://www.w3.org/2000/svg"
   xmlns:svg="http://www.w3.org/2000/svg">
  <sodipodi:namedview
     id="namedview101"
     pagecolor="#ffffff"
     bordercolor="#666666"
     borderopacity="1.0"
     inkscape:pageshadow="2"
     inkscape:pageopacity="0.0"
     inkscape:pagecheckerboard="0"
     showgrid="true"
     inkscape:snap-bbox="true"
     inkscape:bbox-nodes="true"
     inkscape:snap-nodes="false"
     inkscape:zoom="2.1679687"
     inkscape:cx="42.897297"
     inkscape:cy="17.758559"
     inkscape:window-width="1368"
     inkscape:window-height="692"
     inkscape:window-x="0"
     inkscape:window-y="0"
     inkscape:window-maximized="1"
     inkscape:current-layer="svg99"
     inkscape:showpageshadow="2"
     inkscape:deskcolor="#d1d1d1">
    <inkscape:grid
       type="xygrid"
       id="grid1141" />
  </sodipodi:namedview>
  <defs
     id="defs3">
    <style
       id="current-color-scheme"
       type="text/css">.ColorScheme-Text {
        color:#363636;
      }
      .ColorScheme-Background {
        color:#efefef;
      }
      .ColorScheme-Highlight {
        color:#3daee9;
      }
      .ColorScheme-ViewText {
        color:#363636;
      }
      .ColorScheme-ViewBackground {
        color:#fcfcfc;
      }
      .ColorScheme-ViewHover {
        color:#93cee9;
      }
      .ColorScheme-ViewFocus{
        color:#3daee9;
      }
      .ColorScheme-ButtonText {
        color:#363636;
      }
      .ColorScheme-ButtonBackground {
        color:#ffffff;
      }
      .ColorScheme-ButtonHover {
        color:#93cee9;
      }
      .ColorScheme-ButtonFocus{
        color:#3daee9;
      }</style>
  </defs>
  <use
     id="fcitx-vk-inactive"
     transform="translate(104,-6)"
     width="100%"
     height="100%"
     opacity=".5"
     xlink:href="#fcitx-kbd" />
  <g
     id="22-22-input-keyboard"
     transform="translate(6,2)">
    <path
       class="ColorScheme-Text"
       d="m 14,11 c -1.108,0 -2,0.892 -2,2 v 12 c 0,1.108 0.892,2 2,2 h 14 c 1.108,0 2,-0.892 2,-2 V 13 c 0,-1.108 -0.892,-2 -2,-2 z m 4,3 c 1.1045,0 2,0.8955 2,2 v 1 h 2 v -1 c 0,-1.1045 0.89537,-2 2,-2 1.1045,0 2,0.8955 2,2 0,1.1045 -0.8955,2 -2,2 h -1 v 2 h 1 c 1.1045,2.5e-4 2,0.8955 2,2 0,1.1045 -0.8955,2 -2,2 -1.1045,0 -2,-0.8955 -2,-2 v -1 h -2 v 1 c 0,1.1045 -0.89537,2 -2,2 -1.1045,0 -2,-0.8955 -2,-2 0,-1.1045 0.8955,-2 2,-2 h 1 v -2 h -1 c -1.1045,0 -2,-0.8955 -2,-2 0,-1.1045 0.8955,-2 2,-2 z m 0,1 c -0.55225,0 -1,0.44775 -1,1 0,0.55213 0.44775,1 1,1 h 1 v -1 c 0,-0.55225 -0.44775,-1 -1,-1 z m 6,0 c -0.55225,0 -1,0.44775 -1,1 v 1 h 1 c 0.55225,0 1,-0.44775 1,-1 0,-0.55225 -0.44775,-1 -1,-1 z m -4,3 v 2 h 2 v -2 z m -2,3 c -0.55225,0 -1,0.44775 -1,1 0,0.55225 0.44775,1 1,1 0.55225,0 1,-0.44775 1,-1 v -1 z m 5,0 v 1 c 0,0.55225 0.44775,1 1,1 0.55225,0 1,-0.44775 1,-1 0,-0.55225 -0.44775,-1 -1,-1 z"
       fill="currentColor"
       id="path65" />
    <path
       d="M 10,8 H 32 V 30 H 10 Z"
       fill="none"
       id="path67" />
  </g>
  <g
     id="22-22-input-keyboard-virtual-on"
     transform="translate(5,3)">
    <path
       class="ColorScheme-Text"
       d="m 15,42 c -1.108,0 -2,0.892 -2,2 v 12 c 0,1.108 0.892,2 2,2 h 11.346 a 3.5,3.5 0 0 1 -0.3418,-1.5 3.5,3.5 0 0 1 3.5,-3.5 3.5,3.5 0 0 1 1.4961,0.33984 v -9.3398 c 0,-1.108 -0.892,-2 -2,-2 z m 4,3 c 1.1045,0 2,0.8955 2,2 v 1 h 2 v -1 c 0,-1.1045 0.89537,-2 2,-2 1.1045,0 2,0.8955 2,2 0,1.1045 -0.8955,2 -2,2 h -1 v 2 h 1 c 1.1045,2.5e-4 2,0.8955 2,2 0,1.1045 -0.8955,2 -2,2 -1.1045,0 -2,-0.8955 -2,-2 v -1 h -2 v 1 c 0,1.1045 -0.89537,2 -2,2 -1.1045,0 -2,-0.8955 -2,-2 0,-1.1045 0.8955,-2 2,-2 h 1 v -2 h -1 c -1.1045,0 -2,-0.8955 -2,-2 0,-1.1045 0.8955,-2 2,-2 z m 0,1 c -0.55225,0 -1,0.44775 -1,1 0,0.55213 0.44775,1 1,1 h 1 v -1 c 0,-0.55225 -0.44775,-1 -1,-1 z m 6,0 c -0.55225,0 -1,0.44775 -1,1 v 1 h 1 c 0.55225,0 1,-0.44775 1,-1 0,-0.55225 -0.44775,-1 -1,-1 z m -4,3 v 2 h 2 v -2 z m -2,3 c -0.55225,0 -1,0.44775 -1,1 0,0.55225 0.44775,1 1,1 0.55225,0 1,-0.44775 1,-1 v -1 z m 5,0 v 1 c 0,0.55225 0.44775,1 1,1 0.55225,0 1,-0.44775 1,-1 0,-0.55225 -0.44775,-1 -1,-1 z"
       fill="currentColor"
       id="path70" />
    <path
       d="M 11,39 H 33 V 61 H 11 Z"
       fill="none"
       id="path72" />
    <path
       class="ColorScheme-PositiveText"
       d="m 29.503,54 a 2.5,2.5 0 0 0 -2.5,2.5 2.5,2.5 0 0 0 2.5,2.5 2.5,2.5 0 0 0 2.5,-2.5 2.5,2.5 0 0 0 -2.5,-2.5 z"
       fill="#42d15b"
       id="path74" />
  </g>
  <g
     id="22-22-input-keyboard-virtual-off"
     transform="translate(6,66)">
    <path
       class="ColorScheme-Text"
       d="m 14,11 c -1.108,0 -2,0.892 -2,2 v 12 c 0,1.108 0.892,2 2,2 h 14 c 1.108,0 2,-0.892 2,-2 V 13 c 0,-1.108 -0.892,-2 -2,-2 z m 4,3 c 1.1045,0 2,0.8955 2,2 v 1 h 2 v -1 c 0,-1.1045 0.89537,-2 2,-2 1.1045,0 2,0.8955 2,2 0,1.1045 -0.8955,2 -2,2 h -1 v 2 h 1 c 1.1045,2.5e-4 2,0.8955 2,2 0,1.1045 -0.8955,2 -2,2 -1.1045,0 -2,-0.8955 -2,-2 v -1 h -2 v 1 c 0,1.1045 -0.89537,2 -2,2 -1.1045,0 -2,-0.8955 -2,-2 0,-1.1045 0.8955,-2 2,-2 h 1 v -2 h -1 c -1.1045,0 -2,-0.8955 -2,-2 0,-1.1045 0.8955,-2 2,-2 z m 0,1 c -0.55225,0 -1,0.44775 -1,1 0,0.55213 0.44775,1 1,1 h 1 v -1 c 0,-0.55225 -0.44775,-1 -1,-1 z m 6,0 c -0.55225,0 -1,0.44775 -1,1 v 1 h 1 c 0.55225,0 1,-0.44775 1,-1 0,-0.55225 -0.44775,-1 -1,-1 z m -4,3 v 2 h 2 v -2 z m -2,3 c -0.55225,0 -1,0.44775 -1,1 0,0.55225 0.44775,1 1,1 0.55225,0 1,-0.44775 1,-1 v -1 z m 5,0 v 1 c 0,0.55225 0.44775,1 1,1 0.55225,0 1,-0.44775 1,-1 0,-0.55225 -0.44775,-1 -1,-1 z"
       fill="currentColor"
       opacity="0.35"
       id="path77" />
    <path
       d="M 10,8 H 32 V 30 H 10 Z"
       fill="none"
       id="path79" />
  </g>
  <g
     id="input-keyboard">
    <rect
       x="38"
       y="-5.6172e-6"
       width="32"
       height="32"
       fill="none"
       id="rect89" />
    <path
       class="ColorScheme-Text"
       fill="currentColor"
       d="m 44,3 c -2.77,0 -5,2.23 -5,5 v 16 c 0,2.77 2.23,5 5,5 h 20 c 2.77,0 5,-2.23 5,-5 V 8 C 69,5.23 66.77,3 64,3 Z m 4.5,4 C 50.432997,7 52,8.5670034 52,10.5 V 12 h 4 V 10.5 C 56,8.5670034 57.567003,7 59.5,7 61.432997,7 63,8.5670034 63,10.5 63,12.432997 61.432997,14 59.5,14 H 58 v 4 h 1.5 C 61.432997,18 63,19.567003 63,21.5 63,23.432997 61.432997,25 59.5,25 57.567003,25 56,23.432997 56,21.5 V 20 h -4 v 1.5 C 52,23.432997 50.432997,25 48.5,25 46.567003,25 45,23.432997 45,21.5 45,19.567003 46.567003,18 48.5,18 H 50 V 14 H 48.5 C 46.567003,14 45,12.432997 45,10.5 45,8.5670034 46.567003,7 48.5,7 Z m 0,2 C 47.671573,9 47,9.6715729 47,10.5 47,11.328427 47.671573,12 48.5,12 H 50 V 10.5 C 50,9.6715729 49.328427,9 48.5,9 Z m 11,0 C 58.671573,9 58,9.6715729 58,10.5 V 12 h 1.5 C 60.328427,12 61,11.328427 61,10.5 61,9.6715729 60.328427,9 59.5,9 Z M 52,14 v 4 h 4 v -4 z m -3.5,6 c -0.828427,0 -1.5,0.671573 -1.5,1.5 0,0.828427 0.671573,1.5 1.5,1.5 0.828427,0 1.5,-0.671573 1.5,-1.5 V 20 Z m 9.5,0 v 1.5 C 58,22.328427 58.671573,23 59.5,23 60.328427,23 61,22.328427 61,21.5 61,20.671573 60.328427,20 59.5,20 Z"
       id="path91" />
  </g>
  <g
     id="22-22-input-mouse-battery"
     transform="translate(-310,-300.36)">
    <rect
       x="326"
       y="534.35999"
       width="22"
       height="22"
       ry="0"
       fill="none"
       id="rect5" />
    <path
       id="path7"
       class="ColorScheme-Text"
       d="m 13.509766,227 c -3.047,0 -5.5000004,2.676 -5.5000004,6 v 4 c 0,3.324 2.4530004,6 5.5000004,6 3.047,0 5.5,-2.676 5.5,-6 v -4 c 0,-3.324 -2.453,-6 -5.5,-6 z M 13.5,229 c 1.939,0 3.5,1.561 3.5,3.5 v 5 c 0,1.939 -1.561,3.5 -3.5,3.5 -1.939,0 -3.5,-1.561 -3.5,-3.5 v -5 c 0,-1.939 1.561,-3.5 3.5,-3.5 z"
       transform="translate(325.99,310.36)"
       fill="currentColor" />
    <path
       class="ColorScheme-Text"
       d="m 331,537.36 -2,5 h 2 v 3 l 2,-5 h -2 z"
       fill="currentColor"
       id="path9" />
    <rect
       id="rect5356"
       width="1"
       height="3"
       x="338.98999"
       y="541.35999"
       rx="0.5"
       ry="0.5"
       fill="currentColor"
       class="ColorScheme-Text" />
  </g>
  <g
     id="22-22-input-keyboard-battery"
     transform="translate(16,10)">
    <rect
       x="0.0099999998"
       y="127.99998"
       width="22"
       height="22"
       ry="0"
       fill="none"
       id="rect12" />
    <path
       id="path14"
       class="ColorScheme-Text"
       d="m 6.9941406,131 c -1.662,0 -3,1.338 -3,3 v 7 c 0,2 1,3.00025 3,4 L 11,147.00195 14.994141,145 c 1.995504,-1 3,-2 3,-4 v -1 H 16 v 1 c 0,0.554 -0.446,1 -1,1 H 7 c -0.554,0 -1,-0.446 -1,-1 v -7 c 0,-0.554 0.446,-1 1,-1 h 7 v -2 z"
       fill="currentColor" />
    <path
       id="path3873"
       class="ColorScheme-Text"
       d="m 16.009766,131 -2,5 h 2 v 3 l 2,-5 h -2 z m -5.572266,3.00195 -2.4375,6 h 1.0742188 l 0.40625,-1 h 3.0390622 l 0.40625,1 H 14 V 140 l -2.439453,-5.99805 h -0.537109 l -0.02344,0.01 -0.02344,-0.01 z m 0.5625,1.25782 1.113281,2.74218 H 9.8867188 Z"
       fill="currentColor" />
  </g>
  <g
     id="input-keyboard-battery"
     transform="translate(16,10)">
    <rect
       x="22.01"
       y="117.99998"
       width="32"
       height="32"
       ry="0"
       fill="none"
       id="rect22" />
    <path
       id="path24"
       class="ColorScheme-Text"
       d="m 33.009766,123 c -2.77,0 -5,2.23 -5,5 v 12 c 0,2.77 3,4.2 5,5 l 5,2 5,-2 c 2,-0.8 5,-2.23 5,-5 v -9 h -2 v 7 c 0,1.662 -1.338,3 -3,3 h -10 c -1.662,0 -3,-1.338 -3,-3 v -10 c 0,-1.662 1.338,-3 3,-3 H 43 v -2 z"
       fill="currentColor" />
    <path
       id="path2237"
       class="ColorScheme-Text"
       d="m 46.009766,122 -2,5 h 2 v 3 l 2,-5 h -2 z m -9.095704,6 -3.660156,10 h 1.97461 l 0.814453,-2.49414 h 3.855469 L 40.705078,138 h 2.060547 l -3.472656,-10 z m 1.064454,1.58594 1.382812,4.26367 h -2.77539 z"
       fill="currentColor" />
  </g>
  <g
     id="22-22-input-caps-on"
     transform="translate(16,10)">
    <rect
       x="0.0049988707"
       y="160.002"
       width="22"
       height="22"
       fill="none"
       id="rect39" />
    <path
       id="path41"
       class="ColorScheme-Text"
       d="m 7,163 c -1.662,0 -3,1.338 -3,3 v 7 c 0,2 1,3.00025 3,4 l 4.005859,2.00195 L 15,177 c 1.995504,-1 3,-2 3,-4 v -7 c 0,-1.662 -1.338,-3 -3,-3 z m 0,2 h 8 c 0.554,0 1,0.446 1,1 v 7 c 0,0.554 -0.446,1 -1,1 H 7 c -0.554,0 -1,-0.446 -1,-1 v -7 c 0,-0.554 0.446,-1 1,-1 z"
       fill="currentColor" />
    <path
       id="path3174"
       class="ColorScheme-Text"
       d="m 10.443359,166.00195 -2.4374996,6 h 1.0742187 l 0.40625,-1 h 3.0390629 l 0.40625,1 h 1.074218 l -2.439453,-6 h -0.537109 l -0.02344,0.01 -0.02344,-0.01 z m 0.5625,1.25782 1.113282,2.74218 H 9.8925781 Z"
       fill="currentColor" />
  </g>
  <g
     id="input-caps-on"
     transform="translate(16,10)">
    <rect
       x="22.0051"
       y="150.004"
       width="32"
       height="32"
       fill="none"
       id="rect49" />
    <path
       id="path51"
       class="ColorScheme-Text"
       d="m 33,155 c -2.77,0 -5,2.23 -5,5 v 12 c 0,2.77 3,4.2 5,5 l 5,2 5,-2 c 2,-0.8 5,-2.23 5,-5 v -12 c 0,-2.77 -2.23,-5 -5,-5 z m 0,2 h 10 c 1.662,0 3,1.338 3,3 v 10 c 0,1.662 -1.338,3 -3,3 H 33 c -1.662,0 -3,-1.338 -3,-3 v -10 c 0,-1.662 1.338,-3 3,-3 z"
       fill="currentColor" />
    <path
       id="path2433"
       class="ColorScheme-Text"
       d="m 36.904297,160 -3.660156,10 h 1.974609 l 0.814453,-2.49414 h 3.855469 L 40.695312,170 h 2.060547 l -3.472656,-10 z m 1.064453,1.58594 1.382812,4.26367 h -2.77539 z"
       fill="currentColor" />
  </g>
  <g
     id="22-22-input-keyboard-brightness"
     transform="translate(84,8)">
    <rect
       x="-67.995003"
       y="98.001999"
       width="22"
       height="22"
       fill="none"
       id="rect12358" />
    <path
       id="path12360"
       class="ColorScheme-Text"
       d="m 7,99 c -1.662,0 -3,1.338 -3,3 v 7 c 0,2 1,3.00025 3,4 l 4.005859,2.00195 L 15,113 c 1.995504,-1 3,-2 3,-4 v -5 h -2 v 5 c 0,0.554 -0.446,1 -1,1 H 7 c -0.554,0 -1,-0.446 -1,-1 v -7 c 0,-0.554 0.446,-1 1,-1 h 6 v -2 z"
       transform="translate(-68,2)"
       fill="currentColor" />
    <path
       id="path1380"
       class="ColorScheme-Text"
       d="m -52,101 c -1.1046,0 -2,0.89543 -2,2 0,1.10457 0.89543,2 2,2 1.10457,0 2,-0.89543 2,-2 0,-1.10457 -0.89543,-2 -2,-2 z m 0,1 v 2 c -0.55228,0 -1,-0.44771 -1,-1 0,-0.55228 0.44772,-1 1,-1 z m -5.556641,2.00195 -2.4375,6 h 1.074219 l 0.40625,-1 h 3.039063 l 0.40625,1 h 1.074218 l -2.439453,-6 h -0.537109 l -0.02344,0.01 -0.02344,-0.01 z m 0.5625,1.25782 1.113282,2.74218 h -2.226563 z"
       fill="currentColor" />
  </g>
  <g
     id="input-keyboard-brightness"
     transform="translate(84,8)">
    <rect
       x="-45.9949"
       y="88.003998"
       width="32"
       height="32"
       fill="none"
       id="rect12364" />
    <path
       id="path12366"
       class="ColorScheme-Text"
       d="m -35,93 c -2.77,0 -5,2.23 -5,5 v 12 c 0,2.77 3,4.2 5,5 l 5,2 5,-2 c 2,-0.8 5,-2.23 5,-5 v -7 h -2 v 5 c 0,1.662 -1.338,3 -3,3 h -10 c -1.662,0 -3,-1.338 -3,-3 V 98 c 0,-1.662 1.338,-3 3,-3 h 7 v -2 z"
       fill="currentColor" />
    <path
       id="path2118"
       class="ColorScheme-Text"
       d="m -23,92 c -0.277,0 -0.5,0.223 -0.5,0.5 v 1 c 0,0.277 0.223,0.5 0.5,0.5 0.277,0 0.5,-0.223 0.5,-0.5 v -1 c 0,-0.277 -0.223,-0.5 -0.5,-0.5 z m -3.181641,1.318359 c -0.12781,0 -0.255575,0.04851 -0.353515,0.146485 -0.19587,0.19587 -0.19587,0.511161 0,0.707031 l 0.707031,0.707031 c 0.19587,0.19587 0.511161,0.19587 0.707031,0 0.19587,-0.19587 0.19587,-0.511161 0,-0.707031 l -0.707031,-0.707031 c -0.09793,-0.0979 -0.225706,-0.146485 -0.353516,-0.146485 z m 6.363282,0 c -0.12781,0 -0.255576,0.04851 -0.353516,0.146485 l -0.707031,0.707031 c -0.19586,0.19587 -0.19586,0.511161 0,0.707031 0.19587,0.19587 0.511171,0.19587 0.707031,0 l 0.707031,-0.707031 c 0.19586,-0.19587 0.19586,-0.511161 0,-0.707031 -0.0979,-0.0979 -0.225705,-0.146485 -0.353515,-0.146485 z M -23,95 c -1.1046,0 -2,0.89543 -2,2 0,1.10457 0.89543,2 2,2 1.1046,0 2,-0.89543 2,-2 0,-1.10457 -0.89543,-2 -2,-2 z m 0,1 v 2 c -0.55228,0 -1,-0.44772 -1,-1 0,-0.55228 0.44772,-1 1,-1 z m -4.5,0.5 c -0.277,0 -0.5,0.223 -0.5,0.5 0,0.277 0.223,0.5 0.5,0.5 h 1 c 0.277,0 0.5,-0.223 0.5,-0.5 0,-0.277 -0.223,-0.5 -0.5,-0.5 z m 8,0 c -0.277,0 -0.5,0.223 -0.5,0.5 0,0.277 0.223,0.5 0.5,0.5 h 1 c 0.277,0 0.5,-0.223 0.5,-0.5 0,-0.277 -0.223,-0.5 -0.5,-0.5 z m -11.595703,1.5 -3.660156,10 h 1.974609 l 0.814453,-2.49414 h 3.855469 L -27.304688,108 h 2.060547 l -3.472656,-10 z m 5.621094,0.974609 c -0.12781,0 -0.255576,0.0486 -0.353516,0.146485 l -0.707031,0.707031 c -0.19587,0.195865 -0.19587,0.511165 0,0.707035 0.19587,0.19587 0.511161,0.19587 0.707031,0 l 0.707031,-0.707035 c 0.19587,-0.19587 0.19587,-0.511161 0,-0.707031 -0.09793,-0.0979 -0.225705,-0.146485 -0.353515,-0.146485 z m 4.949218,0 c -0.12781,0 -0.255575,0.0486 -0.353515,0.146485 -0.19586,0.19587 -0.19586,0.511161 0,0.707031 l 0.707031,0.707035 c 0.19587,0.19587 0.511161,0.19587 0.707031,0 0.19586,-0.19587 0.19586,-0.51117 0,-0.707035 l -0.707031,-0.707031 c -0.0979,-0.0979 -0.225706,-0.146485 -0.353516,-0.146485 z m -9.505859,0.611329 1.382812,4.263672 h -2.77539 z M -23,100 c -0.277,0 -0.5,0.223 -0.5,0.5 v 1 c 0,0.277 0.223,0.5 0.5,0.5 0.277,0 0.5,-0.223 0.5,-0.5 v -1 c 0,-0.277 -0.223,-0.5 -0.5,-0.5 z"
       fill="currentColor" />
  </g>
  <g
     id="22-22-input-num-on"
     transform="translate(16,10)">
    <rect
       x="0.0049988707"
       y="192.002"
       width="22"
       height="22"
       fill="none"
       id="rect13381" />
    <path
       id="path13383"
       class="ColorScheme-Text"
       d="m 7,195 c -1.662,0 -3,1.338 -3,3 v 7 c 0,2 1,3.00025 3,4 l 4.005859,2.00195 L 15,209 c 1.995504,-1 3,-2 3,-4 v -7 c 0,-1.662 -1.338,-3 -3,-3 z m 0,2 h 8 c 0.554,0 1,0.446 1,1 v 7 c 0,0.554 -0.446,1 -1,1 H 7 c -0.554,0 -1,-0.446 -1,-1 v -7 c 0,-0.554 0.446,-1 1,-1 z"
       fill="currentColor" />
    <path
       class="ColorScheme-Text"
       d="m 11,198 v 1 h -1 v 1 h 1 v 4 h -1 v 1 h 3 v -1 h -1 v -6 z"
       fill="currentColor"
       id="path13395" />
  </g>
  <g
     id="input-num-on"
     transform="translate(16,10)">
    <rect
       x="22.0051"
       y="182.004"
       width="32"
       height="32"
       fill="none"
       id="rect13387" />
    <path
       id="path13389"
       class="ColorScheme-Text"
       d="m 33,187 c -2.77,0 -5,2.23 -5,5 v 12 c 0,2.77 3,4.2 5,5 l 5,2 5,-2 c 2,-0.8 5,-2.23 5,-5 v -12 c 0,-2.77 -2.23,-5 -5,-5 z m 0,2 h 10 c 1.662,0 3,1.338 3,3 v 10 c 0,1.662 -1.338,3 -3,3 H 33 c -1.662,0 -3,-1.338 -3,-3 v -10 c 0,-1.662 1.338,-3 3,-3 z"
       fill="currentColor" />
    <path
       class="ColorScheme-Text"
       d="m 37,192 v 2 h -2 v 2 h 2 v 4 h -2 v 2 h 6 v -2 h -2 v -8 z"
       fill="currentColor"
       id="path13401" />
  </g>
  <g
     id="16-16-input-mouse-battery"
     transform="translate(15.99,10)">
    <path
       class="ColorScheme-Text"
       d="m -7.99,234 -2,5 h 2 v 3 l 2,-5 h -2 z"
       fill="currentColor"
       id="path34" />
    <rect
       x="-15.99"
       y="229.99998"
       width="16"
       height="16"
       fill="none"
       id="rect36" />
    <path
       id="rect5515"
       d="m -8,231 c -2.77,0 -5,2.23 -5,5 v 4 c 0,2.77 2.23,5 5,5 2.77,0 5,-2.23 5,-5 v -4 c 0,-2.77 -2.23,-5 -5,-5 z m 0,2 c 1.662,0 3,1.338 3,3 v 4 c 0,1.662 -1.338,3 -3,3 -1.662,0 -3,-1.338 -3,-3 v -4 c 0,-1.662 1.338,-3 3,-3 z"
       class="ColorScheme-Text"
       fill="currentColor" />
  </g>
  <g
     id="input-mouse-battery"
     transform="translate(13,10)">
    <g
       id="g6641"
       transform="translate(-2,-10)">
      <rect
         x="27"
         y="224"
         width="32"
         height="32"
         ry="0"
         fill="none"
         id="rect369" />
    </g>
    <path
       id="rect5902"
       d="m 41,217 c -4.986,0 -9,4.014 -9,9 v 8 c 0,4.986 4.014,9 9,9 4.986,0 9,-4.014 9,-9 v -8 c 0,-4.986 -4.014,-9 -9,-9 z m 0,2 c 3.878,0 7,3.122 7,7 v 8 c 0,3.878 -3.122,7 -7,7 -3.878,0 -7,-3.122 -7,-7 v -8 c 0,-3.878 3.122,-7 7,-7 z"
       class="ColorScheme-Text"
       fill="currentColor" />
    <path
       id="rect6127"
       d="m 41,221 c -0.554,0 -1,0.446 -1,1 v 4 c 0,0.554 0.446,1 1,1 0.554,0 1,-0.446 1,-1 v -4 c 0,-0.554 -0.446,-1 -1,-1 z m 0,8 -3,6 h 3 v 4 l 3,-6 h -3 z"
       class="ColorScheme-Text"
       fill="currentColor" />
  </g>
  <g
     id="input-keyboard-virtual-off"
     transform="translate(0,64)">
    <rect
       x="38"
       y="-5.6171998e-06"
       width="32"
       height="32"
       fill="none"
       id="rect457" />
    <path
       class="ColorScheme-Text"
       fill="currentColor"
       d="m 44,3 c -2.77,0 -5,2.23 -5,5 v 16 c 0,2.77 2.23,5 5,5 h 20 c 2.77,0 5,-2.23 5,-5 V 8 C 69,5.23 66.77,3 64,3 Z m 4.5,4 C 50.432997,7 52,8.5670034 52,10.5 V 12 h 4 V 10.5 C 56,8.5670034 57.567003,7 59.5,7 61.432997,7 63,8.5670034 63,10.5 63,12.432997 61.432997,14 59.5,14 H 58 v 4 h 1.5 C 61.432997,18 63,19.567003 63,21.5 63,23.432997 61.432997,25 59.5,25 57.567003,25 56,23.432997 56,21.5 V 20 h -4 v 1.5 C 52,23.432997 50.432997,25 48.5,25 46.567003,25 45,23.432997 45,21.5 45,19.567003 46.567003,18 48.5,18 H 50 V 14 H 48.5 C 46.567003,14 45,12.432997 45,10.5 45,8.5670034 46.567003,7 48.5,7 Z m 0,2 C 47.671573,9 47,9.6715729 47,10.5 47,11.328427 47.671573,12 48.5,12 H 50 V 10.5 C 50,9.6715729 49.328427,9 48.5,9 Z m 11,0 C 58.671573,9 58,9.6715729 58,10.5 V 12 h 1.5 C 60.328427,12 61,11.328427 61,10.5 61,9.6715729 60.328427,9 59.5,9 Z M 52,14 v 4 h 4 v -4 z m -3.5,6 c -0.828427,0 -1.5,0.671573 -1.5,1.5 0,0.828427 0.671573,1.5 1.5,1.5 0.828427,0 1.5,-0.671573 1.5,-1.5 V 20 Z m 9.5,0 v 1.5 C 58,22.328427 58.671573,23 59.5,23 60.328427,23 61,22.328427 61,21.5 61,20.671573 60.328427,20 59.5,20 Z"
       id="path459"
       style="opacity:0.35" />
  </g>
  <g
     id="input-keyboard-virtual-on">
    <rect
       x="38"
       y="31.999994"
       width="32"
       height="32"
       fill="none"
       id="rect451" />
    <path
       id="path453"
       class="ColorScheme-Text"
       d="M 44 35 C 41.230003 35 39 37.230003 39 40 L 39 56 C 39 58.769997 41.230003 61 44 61 L 63.357422 61 A 4 4 0 0 1 62 58 A 4 4 0 0 1 66 54 A 4 4 0 0 1 69 55.357422 L 69 40 C 69 37.230003 66.769997 35 64 35 L 44 35 z M 48.5 39 C 50.432995 39 52 40.567005 52 42.5 L 52 44 L 56 44 L 56 42.5 C 56 40.567005 57.567005 39 59.5 39 C 61.432995 39 63 40.567005 63 42.5 C 63 44.432995 61.432995 46 59.5 46 L 58 46 L 58 50 L 59.5 50 C 61.432995 50 63 51.567005 63 53.5 C 63 55.432995 61.432995 57 59.5 57 C 57.567005 57 56 55.432995 56 53.5 L 56 52 L 52 52 L 52 53.5 C 52 55.432995 50.432995 57 48.5 57 C 46.567005 57 45 55.432995 45 53.5 C 45 51.567005 46.567005 50 48.5 50 L 50 50 L 50 46 L 48.5 46 C 46.567005 46 45 44.432995 45 42.5 C 45 40.567005 46.567005 39 48.5 39 z M 48.5 41 C 47.671574 41 47 41.671574 47 42.5 C 47 43.328426 47.671574 44 48.5 44 L 50 44 L 50 42.5 C 50 41.671574 49.328426 41 48.5 41 z M 59.5 41 C 58.671574 41 58 41.671574 58 42.5 L 58 44 L 59.5 44 C 60.328426 44 61 43.328426 61 42.5 C 61 41.671574 60.328426 41 59.5 41 z M 52 46 L 52 50 L 56 50 L 56 46 L 52 46 z M 48.5 52 C 47.671574 52 47 52.671574 47 53.5 C 47 54.328426 47.671574 55 48.5 55 C 49.328426 55 50 54.328426 50 53.5 L 50 52 L 48.5 52 z M 58 52 L 58 53.5 C 58 54.328426 58.671574 55 59.5 55 C 60.328426 55 61 54.328426 61 53.5 C 61 52.671574 60.328426 52 59.5 52 L 58 52 z "
       fill="currentColor" />
    <path
       d="m 66,55 a 3,3 0 0 0 -3,3 3,3 0 0 0 3,3 3,3 0 0 0 3,-3 3,3 0 0 0 -3,-3 z"
       fill="#42d15b"
       id="path469" />
  </g>
</svg>
