<?xml version="1.0" encoding="UTF-8" standalone="no"?>
<svg
   width="70"
   height="256"
   version="1.1"
   viewBox="0 0 70 256"
   id="svg99"
   sodipodi:docname="input.svg"
   inkscape:version="1.2.2 (b0a8486541, 2022-12-01)"
   xmlns:inkscape="http://www.inkscape.org/namespaces/inkscape"
   xmlns:sodipodi="http://sodipodi.sourceforge.net/DTD/sodipodi-0.dtd"
   xmlns:xlink="http://www.w3.org/1999/xlink"
   xmlns="http://www.w3.org/2000/svg"
   xmlns:svg="http://www.w3.org/2000/svg">
  <sodipodi:namedview
     id="namedview101"
     pagecolor="#ffffff"
     bordercolor="#666666"
     borderopacity="1.0"
     inkscape:showpageshadow="2"
     inkscape:pageopacity="0.0"
     inkscape:pagecheckerboard="0"
     inkscape:deskcolor="#d1d1d1"
     showgrid="true"
     inkscape:zoom="3.6874999"
     inkscape:cx="33.084746"
     inkscape:cy="60.881357"
     inkscape:window-width="1920"
     inkscape:window-height="1014"
     inkscape:window-x="0"
     inkscape:window-y="32"
     inkscape:window-maximized="1"
     inkscape:current-layer="svg99">
    <inkscape:grid
       type="xygrid"
       id="grid384" />
  </sodipodi:namedview>
  <defs
     id="defs3">
    <style
       id="current-color-scheme"
       type="text/css">.ColorScheme-Text {
        color:#363636;
      }
      .ColorScheme-Background {
        color:#efefef;
      }
      .ColorScheme-Highlight {
        color:#3daee9;
      }
      .ColorScheme-ViewText {
        color:#363636;
      }
      .ColorScheme-ViewBackground {
        color:#fcfcfc;
      }
      .ColorScheme-ViewHover {
        color:#93cee9;
      }
      .ColorScheme-ViewFocus{
        color:#3daee9;
      }
      .ColorScheme-ButtonText {
        color:#363636;
      }
      .ColorScheme-ButtonBackground {
        color:#ffffff;
      }
      .ColorScheme-ButtonHover {
        color:#93cee9;
      }
      .ColorScheme-ButtonFocus{
        color:#3daee9;
      }</style>
  </defs>
  <use
     id="fcitx-vk-inactive"
     transform="translate(104,-6)"
     width="100%"
     height="100%"
     opacity=".5"
     xlink:href="#fcitx-kbd" />
  <g
     id="22-22-input-mouse-battery"
     transform="translate(-310,-300.36)">
    <rect
       x="326"
       y="534.35999"
       width="22"
       height="22"
       ry="0"
       fill="none"
       id="rect5" />
    <path
       id="path7"
       class="ColorScheme-Text"
       d="m 13.509766,227 c -3.047,0 -5.5000004,2.676 -5.5000004,6 v 4 c 0,3.324 2.4530004,6 5.5000004,6 3.047,0 5.5,-2.676 5.5,-6 v -4 c 0,-3.324 -2.453,-6 -5.5,-6 z M 13.5,229 c 1.939,0 3.5,1.561 3.5,3.5 v 5 c 0,1.939 -1.561,3.5 -3.5,3.5 -1.939,0 -3.5,-1.561 -3.5,-3.5 v -5 c 0,-1.939 1.561,-3.5 3.5,-3.5 z"
       transform="translate(325.99,310.36)"
       fill="currentColor" />
    <path
       class="ColorScheme-Text"
       d="m 331,537.36 -2,5 h 2 v 3 l 2,-5 h -2 z"
       fill="currentColor"
       id="path9" />
    <rect
       id="rect5356"
       width="1"
       height="3"
       x="338.98999"
       y="541.35999"
       rx="0.5"
       ry="0.5"
       fill="currentColor"
       class="ColorScheme-Text" />
  </g>
  <g
     id="22-22-input-keyboard-battery"
     transform="translate(16,10)">
    <rect
       x="0.0099999998"
       y="127.99998"
       width="22"
       height="22"
       ry="0"
       fill="none"
       id="rect12" />
    <path
       id="path14"
       class="ColorScheme-Text"
       d="m 6.9941406,131 c -1.662,0 -3,1.338 -3,3 v 7 c 0,2 1,3.00025 3,4 L 11,147.00195 14.994141,145 c 1.995504,-1 3,-2 3,-4 v -1 H 16 v 1 c 0,0.554 -0.446,1 -1,1 H 7 c -0.554,0 -1,-0.446 -1,-1 v -7 c 0,-0.554 0.446,-1 1,-1 h 7 v -2 z"
       fill="currentColor" />
    <path
       id="path3873"
       class="ColorScheme-Text"
       d="m 16.009766,131 -2,5 h 2 v 3 l 2,-5 h -2 z m -5.572266,3.00195 -2.4375,6 h 1.0742188 l 0.40625,-1 h 3.0390622 l 0.40625,1 H 14 V 140 l -2.439453,-5.99805 h -0.537109 l -0.02344,0.01 -0.02344,-0.01 z m 0.5625,1.25782 1.113281,2.74218 H 9.8867188 Z"
       fill="currentColor" />
  </g>
  <g
     id="input-keyboard-battery"
     transform="translate(16,10)">
    <rect
       x="22.01"
       y="117.99998"
       width="32"
       height="32"
       ry="0"
       fill="none"
       id="rect22" />
    <path
       id="path24"
       class="ColorScheme-Text"
       d="m 33.009766,123 c -2.77,0 -5,2.23 -5,5 v 12 c 0,2.77 3,4.2 5,5 l 5,2 5,-2 c 2,-0.8 5,-2.23 5,-5 v -9 h -2 v 7 c 0,1.662 -1.338,3 -3,3 h -10 c -1.662,0 -3,-1.338 -3,-3 v -10 c 0,-1.662 1.338,-3 3,-3 H 43 v -2 z"
       fill="currentColor"
       style="color:#363636" />
    <path
       id="path2237"
       class="ColorScheme-Text"
       d="m 46.009766,122 -2,5 h 2 v 3 l 2,-5 h -2 z m -9.095704,6 -3.660156,10 h 1.97461 l 0.814453,-2.49414 h 3.855469 L 40.705078,138 h 2.060547 l -3.472656,-10 z m 1.064454,1.58594 1.382812,4.26367 h -2.77539 z"
       fill="currentColor" />
  </g>
  <g
     id="22-22-input-caps-on"
     transform="translate(16,10)">
    <rect
       x="0.0049988707"
       y="160.002"
       width="22"
       height="22"
       fill="none"
       id="rect39" />
    <path
       id="path41"
       class="ColorScheme-Text"
       d="m 7,163 c -1.662,0 -3,1.338 -3,3 v 7 c 0,2 1,3.00025 3,4 l 4.005859,2.00195 L 15,177 c 1.995504,-1 3,-2 3,-4 v -7 c 0,-1.662 -1.338,-3 -3,-3 z m 0,2 h 8 c 0.554,0 1,0.446 1,1 v 7 c 0,0.554 -0.446,1 -1,1 H 7 c -0.554,0 -1,-0.446 -1,-1 v -7 c 0,-0.554 0.446,-1 1,-1 z"
       fill="currentColor" />
    <path
       id="path3174"
       class="ColorScheme-Text"
       d="m 10.443359,166.00195 -2.4374996,6 h 1.0742187 l 0.40625,-1 h 3.0390629 l 0.40625,1 h 1.074218 l -2.439453,-6 h -0.537109 l -0.02344,0.01 -0.02344,-0.01 z m 0.5625,1.25782 1.113282,2.74218 H 9.8925781 Z"
       fill="currentColor" />
  </g>
  <g
     id="input-caps-on"
     transform="translate(16,10)">
    <rect
       x="22.0051"
       y="150.004"
       width="32"
       height="32"
       fill="none"
       id="rect49" />
    <path
       id="path51"
       class="ColorScheme-Text"
       d="m 33,155 c -2.77,0 -5,2.23 -5,5 v 12 c 0,2.77 3,4.2 5,5 l 5,2 5,-2 c 2,-0.8 5,-2.23 5,-5 v -12 c 0,-2.77 -2.23,-5 -5,-5 z m 0,2 h 10 c 1.662,0 3,1.338 3,3 v 10 c 0,1.662 -1.338,3 -3,3 H 33 c -1.662,0 -3,-1.338 -3,-3 v -10 c 0,-1.662 1.338,-3 3,-3 z"
       fill="currentColor" />
    <path
       id="path2433"
       class="ColorScheme-Text"
       d="m 36.904297,160 -3.660156,10 h 1.974609 l 0.814453,-2.49414 h 3.855469 L 40.695312,170 h 2.060547 l -3.472656,-10 z m 1.064453,1.58594 1.382812,4.26367 h -2.77539 z"
       fill="currentColor" />
  </g>
  <g
     id="22-22-input-keyboard-brightness"
     transform="translate(84,8)">
    <rect
       x="-67.995003"
       y="98.001999"
       width="22"
       height="22"
       fill="none"
       id="rect12358" />
    <path
       id="path12360"
       class="ColorScheme-Text"
       d="m 7,99 c -1.662,0 -3,1.338 -3,3 v 7 c 0,2 1,3.00025 3,4 l 4.005859,2.00195 L 15,113 c 1.995504,-1 3,-2 3,-4 v -5 h -2 v 5 c 0,0.554 -0.446,1 -1,1 H 7 c -0.554,0 -1,-0.446 -1,-1 v -7 c 0,-0.554 0.446,-1 1,-1 h 6 v -2 z"
       transform="translate(-68,2)"
       fill="currentColor" />
    <path
       id="path1380"
       class="ColorScheme-Text"
       d="m -52,101 c -1.1046,0 -2,0.89543 -2,2 0,1.10457 0.89543,2 2,2 1.10457,0 2,-0.89543 2,-2 0,-1.10457 -0.89543,-2 -2,-2 z m 0,1 v 2 c -0.55228,0 -1,-0.44771 -1,-1 0,-0.55228 0.44772,-1 1,-1 z m -5.556641,2.00195 -2.4375,6 h 1.074219 l 0.40625,-1 h 3.039063 l 0.40625,1 h 1.074218 l -2.439453,-6 h -0.537109 l -0.02344,0.01 -0.02344,-0.01 z m 0.5625,1.25782 1.113282,2.74218 h -2.226563 z"
       fill="currentColor" />
  </g>
  <g
     id="input-keyboard-brightness"
     transform="translate(84,8)">
    <rect
       x="-45.9949"
       y="88.003998"
       width="32"
       height="32"
       fill="none"
       id="rect12364" />
    <path
       id="path12366"
       class="ColorScheme-Text"
       d="m -35,93 c -2.77,0 -5,2.23 -5,5 v 12 c 0,2.77 3,4.2 5,5 l 5,2 5,-2 c 2,-0.8 5,-2.23 5,-5 v -7 h -2 v 5 c 0,1.662 -1.338,3 -3,3 h -10 c -1.662,0 -3,-1.338 -3,-3 V 98 c 0,-1.662 1.338,-3 3,-3 h 7 v -2 z"
       fill="currentColor" />
    <path
       id="path2118"
       class="ColorScheme-Text"
       d="m -23,92 c -0.277,0 -0.5,0.223 -0.5,0.5 v 1 c 0,0.277 0.223,0.5 0.5,0.5 0.277,0 0.5,-0.223 0.5,-0.5 v -1 c 0,-0.277 -0.223,-0.5 -0.5,-0.5 z m -3.181641,1.318359 c -0.12781,0 -0.255575,0.04851 -0.353515,0.146485 -0.19587,0.19587 -0.19587,0.511161 0,0.707031 l 0.707031,0.707031 c 0.19587,0.19587 0.511161,0.19587 0.707031,0 0.19587,-0.19587 0.19587,-0.511161 0,-0.707031 l -0.707031,-0.707031 c -0.09793,-0.0979 -0.225706,-0.146485 -0.353516,-0.146485 z m 6.363282,0 c -0.12781,0 -0.255576,0.04851 -0.353516,0.146485 l -0.707031,0.707031 c -0.19586,0.19587 -0.19586,0.511161 0,0.707031 0.19587,0.19587 0.511171,0.19587 0.707031,0 l 0.707031,-0.707031 c 0.19586,-0.19587 0.19586,-0.511161 0,-0.707031 -0.0979,-0.0979 -0.225705,-0.146485 -0.353515,-0.146485 z M -23,95 c -1.1046,0 -2,0.89543 -2,2 0,1.10457 0.89543,2 2,2 1.1046,0 2,-0.89543 2,-2 0,-1.10457 -0.89543,-2 -2,-2 z m 0,1 v 2 c -0.55228,0 -1,-0.44772 -1,-1 0,-0.55228 0.44772,-1 1,-1 z m -4.5,0.5 c -0.277,0 -0.5,0.223 -0.5,0.5 0,0.277 0.223,0.5 0.5,0.5 h 1 c 0.277,0 0.5,-0.223 0.5,-0.5 0,-0.277 -0.223,-0.5 -0.5,-0.5 z m 8,0 c -0.277,0 -0.5,0.223 -0.5,0.5 0,0.277 0.223,0.5 0.5,0.5 h 1 c 0.277,0 0.5,-0.223 0.5,-0.5 0,-0.277 -0.223,-0.5 -0.5,-0.5 z m -11.595703,1.5 -3.660156,10 h 1.974609 l 0.814453,-2.49414 h 3.855469 L -27.304688,108 h 2.060547 l -3.472656,-10 z m 5.621094,0.974609 c -0.12781,0 -0.255576,0.0486 -0.353516,0.146485 l -0.707031,0.707031 c -0.19587,0.195865 -0.19587,0.511165 0,0.707035 0.19587,0.19587 0.511161,0.19587 0.707031,0 l 0.707031,-0.707035 c 0.19587,-0.19587 0.19587,-0.511161 0,-0.707031 -0.09793,-0.0979 -0.225705,-0.146485 -0.353515,-0.146485 z m 4.949218,0 c -0.12781,0 -0.255575,0.0486 -0.353515,0.146485 -0.19586,0.19587 -0.19586,0.511161 0,0.707031 l 0.707031,0.707035 c 0.19587,0.19587 0.511161,0.19587 0.707031,0 0.19586,-0.19587 0.19586,-0.51117 0,-0.707035 l -0.707031,-0.707031 c -0.0979,-0.0979 -0.225706,-0.146485 -0.353516,-0.146485 z m -9.505859,0.611329 1.382812,4.263672 h -2.77539 z M -23,100 c -0.277,0 -0.5,0.223 -0.5,0.5 v 1 c 0,0.277 0.223,0.5 0.5,0.5 0.277,0 0.5,-0.223 0.5,-0.5 v -1 c 0,-0.277 -0.223,-0.5 -0.5,-0.5 z"
       fill="currentColor" />
  </g>
  <g
     id="22-22-input-num-on"
     transform="translate(16,10)">
    <rect
       x="0.0049988707"
       y="192.002"
       width="22"
       height="22"
       fill="none"
       id="rect13381" />
    <path
       id="path13383"
       class="ColorScheme-Text"
       d="m 7,195 c -1.662,0 -3,1.338 -3,3 v 7 c 0,2 1,3.00025 3,4 l 4.005859,2.00195 L 15,209 c 1.995504,-1 3,-2 3,-4 v -7 c 0,-1.662 -1.338,-3 -3,-3 z m 0,2 h 8 c 0.554,0 1,0.446 1,1 v 7 c 0,0.554 -0.446,1 -1,1 H 7 c -0.554,0 -1,-0.446 -1,-1 v -7 c 0,-0.554 0.446,-1 1,-1 z"
       fill="currentColor" />
    <path
       class="ColorScheme-Text"
       d="m 11,198 v 1 h -1 v 1 h 1 v 4 h -1 v 1 h 3 v -1 h -1 v -6 z"
       fill="currentColor"
       id="path13395" />
  </g>
  <g
     id="input-num-on"
     transform="translate(16,10)">
    <rect
       x="22.0051"
       y="182.004"
       width="32"
       height="32"
       fill="none"
       id="rect13387" />
    <path
       id="path13389"
       class="ColorScheme-Text"
       d="m 33,187 c -2.77,0 -5,2.23 -5,5 v 12 c 0,2.77 3,4.2 5,5 l 5,2 5,-2 c 2,-0.8 5,-2.23 5,-5 v -12 c 0,-2.77 -2.23,-5 -5,-5 z m 0,2 h 10 c 1.662,0 3,1.338 3,3 v 10 c 0,1.662 -1.338,3 -3,3 H 33 c -1.662,0 -3,-1.338 -3,-3 v -10 c 0,-1.662 1.338,-3 3,-3 z"
       fill="currentColor" />
    <path
       class="ColorScheme-Text"
       d="m 37,192 v 2 h -2 v 2 h 2 v 4 h -2 v 2 h 6 v -2 h -2 v -8 z"
       fill="currentColor"
       id="path13401" />
  </g>
  <g
     id="16-16-input-mouse-battery"
     transform="translate(15.99,10)">
    <path
       class="ColorScheme-Text"
       d="m -7.99,234 -2,5 h 2 v 3 l 2,-5 h -2 z"
       fill="currentColor"
       id="path34" />
    <rect
       x="-15.99"
       y="229.99998"
       width="16"
       height="16"
       fill="none"
       id="rect36" />
    <path
       id="rect5515"
       d="m -8,231 c -2.77,0 -5,2.23 -5,5 v 4 c 0,2.77 2.23,5 5,5 2.77,0 5,-2.23 5,-5 v -4 c 0,-2.77 -2.23,-5 -5,-5 z m 0,2 c 1.662,0 3,1.338 3,3 v 4 c 0,1.662 -1.338,3 -3,3 -1.662,0 -3,-1.338 -3,-3 v -4 c 0,-1.662 1.338,-3 3,-3 z"
       class="ColorScheme-Text"
       fill="currentColor" />
  </g>
  <g
     id="input-mouse-battery"
     transform="translate(13,10)">
    <g
       id="g6641"
       transform="translate(-2,-10)">
      <rect
         x="27"
         y="224"
         width="32"
         height="32"
         ry="0"
         fill="none"
         id="rect369" />
    </g>
    <path
       id="rect5902"
       d="m 41,217 c -4.986,0 -9,4.014 -9,9 v 8 c 0,4.986 4.014,9 9,9 4.986,0 9,-4.014 9,-9 v -8 c 0,-4.986 -4.014,-9 -9,-9 z m 0,2 c 3.878,0 7,3.122 7,7 v 8 c 0,3.878 -3.122,7 -7,7 -3.878,0 -7,-3.122 -7,-7 v -8 c 0,-3.878 3.122,-7 7,-7 z"
       class="ColorScheme-Text"
       fill="currentColor" />
    <path
       id="rect6127"
       d="m 41,221 c -0.554,0 -1,0.446 -1,1 v 4 c 0,0.554 0.446,1 1,1 0.554,0 1,-0.446 1,-1 v -4 c 0,-0.554 -0.446,-1 -1,-1 z m 0,8 -3,6 h 3 v 4 l 3,-6 h -3 z"
       class="ColorScheme-Text"
       fill="currentColor" />
  </g>
  <g
     id="22-22-input-keyboard"
     transform="translate(0,-2.0000005)">
    <path
       id="rect298-3"
       d="m 14,11 c -1.661998,0 -3,1.338002 -3,3 v 10 c 0,1.661998 1.338002,3 3,3 h 14 c 1.661998,0 3,-1.338002 3,-3 V 14 c 0,-1.661998 -1.338002,-3 -3,-3 z m 4,3 c 1.104499,0 2,0.895501 2,2 v 1 h 2 v -1 c 0,-1.104499 0.895371,-2 2,-2 1.104499,0 2,0.895501 2,2 0,1.104499 -0.895501,2 -2,2 h -1 v 2 h 1 c 1.104499,2.5e-4 2,0.895501 2,2 0,1.104499 -0.895501,2 -2,2 -1.104499,0 -2,-0.895501 -2,-2 v -1 h -2 v 1 c 0,1.104499 -0.895371,2 -2,2 -1.104499,0 -2,-0.895501 -2,-2 0,-1.104499 0.895501,-2 2,-2 h 1 v -2 h -1 c -1.104499,0 -2,-0.895501 -2,-2 0,-1.104499 0.895501,-2 2,-2 z m 0,1 c -0.552249,0 -1,0.447751 -1,1 0,0.552129 0.447751,1 1,1 h 1 v -1 c 0,-0.552249 -0.447751,-1 -1,-1 z m 6,0 c -0.552249,0 -1,0.447751 -1,1 v 1 h 1 c 0.552249,0 1,-0.447751 1,-1 0,-0.552249 -0.447751,-1 -1,-1 z m -4,3 v 2 h 2 v -2 z m -2,3 c -0.552249,0 -1,0.447751 -1,1 0,0.552249 0.447751,1 1,1 0.552249,0 1,-0.447751 1,-1 v -1 z m 5,0 v 1 c 0,0.552249 0.447751,1 1,1 0.552249,0 1,-0.447751 1,-1 0,-0.552249 -0.447751,-1 -1,-1 z"
       class="ColorScheme-Text"
       fill="currentColor" />
    <path
       d="M 10,8 H 32 V 30 H 10 Z"
       fill="none"
       id="path240-6" />
  </g>
  <g
     id="22-22-input-keyboard-virtual-on"
     transform="translate(-170,-23)">
    <path
       id="path459"
       class="ColorScheme-Text"
       d="m 184,63 c -1.662,0 -3,1.338004 -3,3 v 10 c 0,1.661996 1.338,3 3,3 h 12.3418 A 3.5,3.5 0 0 1 196,77.5 3.5,3.5 0 0 1 199.5,74 3.5,3.5 0 0 1 201,74.337891 V 66 c 0,-1.661996 -1.338,-3 -3,-3 z m 4,3 c 1.1045,0 2,0.895502 2,2 v 1 h 2 v -1 c 0,-1.104498 0.89537,-2 2,-2 1.1045,0 2,0.895502 2,2 0,1.104498 -0.8955,2 -2,2 h -1 v 2 h 1 c 1.1045,2.5e-4 2,0.895502 2,2 0,1.104498 -0.8955,2 -2,2 -1.1045,0 -2,-0.895502 -2,-2 v -1 h -2 v 1 c 0,1.104498 -0.89537,2 -2,2 -1.1045,0 -2,-0.895502 -2,-2 0,-1.104498 0.8955,-2 2,-2 h 1 v -2 h -1 c -1.1045,0 -2,-0.895502 -2,-2 0,-1.104498 0.8955,-2 2,-2 z m 0,1 c -0.55225,0 -1,0.447752 -1,1 0,0.552128 0.44775,1 1,1 h 1 v -1 c 0,-0.552248 -0.44775,-1 -1,-1 z m 6,0 c -0.55225,0 -1,0.447752 -1,1 v 1 h 1 c 0.55225,0 1,-0.447752 1,-1 0,-0.552248 -0.44775,-1 -1,-1 z m -4,3 v 2 h 2 v -2 z m -2,3 c -0.55225,0 -1,0.447752 -1,1 0,0.552248 0.44775,1 1,1 0.55225,0 1,-0.447752 1,-1 v -1 z m 5,0 v 1 c 0,0.552248 0.44775,1 1,1 0.55225,0 1,-0.447752 1,-1 0,-0.552248 -0.44775,-1 -1,-1 z"
       fill="currentColor" />
    <path
       d="m 180,60 h 22 v 22 h -22 z"
       fill="none"
       id="path461" />
    <circle
       id="circle471"
       cx="199.5"
       cy="77.5"
       r="2.5"
       style="fill:#42d15b;fill-opacity:1" />
  </g>
  <g
     id="22-22-input-keyboard-virtual-off"
     transform="translate(-195,6.9999995)">
    <path
       id="path488"
       class="ColorScheme-Text"
       d="m 209,63 c -1.662,0 -3,1.338004 -3,3 v 10 c 0,1.661996 1.338,3 3,3 h 12.3418 A 3.5,3.5 0 0 1 221,77.5 3.5,3.5 0 0 1 224.5,74 3.5,3.5 0 0 1 226,74.337891 V 66 c 0,-1.661996 -1.338,-3 -3,-3 z m 4,3 c 1.1045,0 2,0.895502 2,2 v 1 h 2 v -1 c 0,-1.104498 0.89537,-2 2,-2 1.1045,0 2,0.895502 2,2 0,1.104498 -0.8955,2 -2,2 h -1 v 2 h 1 c 1.1045,2.5e-4 2,0.895502 2,2 0,1.104498 -0.8955,2 -2,2 -1.1045,0 -2,-0.895502 -2,-2 v -1 h -2 v 1 c 0,1.104498 -0.89537,2 -2,2 -1.1045,0 -2,-0.895502 -2,-2 0,-1.104498 0.8955,-2 2,-2 h 1 v -2 h -1 c -1.1045,0 -2,-0.895502 -2,-2 0,-1.104498 0.8955,-2 2,-2 z m 0,1 c -0.55225,0 -1,0.447752 -1,1 0,0.552128 0.44775,1 1,1 h 1 v -1 c 0,-0.552248 -0.44775,-1 -1,-1 z m 6,0 c -0.55225,0 -1,0.447752 -1,1 v 1 h 1 c 0.55225,0 1,-0.447752 1,-1 0,-0.552248 -0.44775,-1 -1,-1 z m -4,3 v 2 h 2 v -2 z m -2,3 c -0.55225,0 -1,0.447752 -1,1 0,0.552248 0.44775,1 1,1 0.55225,0 1,-0.447752 1,-1 v -1 z m 5,0 v 1 c 0,0.552248 0.44775,1 1,1 0.55225,0 1,-0.447752 1,-1 0,-0.552248 -0.44775,-1 -1,-1 z"
       fill="currentColor" />
    <path
       d="m 205,60 h 22 v 22 h -22 z"
       fill="none"
       id="path490" />
    <circle
       id="circle500"
       cx="224.5"
       cy="77.5"
       r="2.5"
       class="ColorScheme-Text"
       fill="currentColor"
       style="opacity:0.35" />
  </g>
  <g
     id="input-keyboard"
     transform="translate(0,-1.0000005)">
    <path
       d="M 38,1 H 70 V 33.000001 H 38 Z"
       fill="none"
       id="path364"
       style="stroke-width:1.45455" />
    <path
       id="rect370"
       d="m 43,6 c -2.215998,0 -4,1.7840022 -4,4 v 15 c 0,2.215998 1.784002,4 4,4 h 22 c 2.215998,0 4,-1.784002 4,-4 V 10 C 69,7.7840022 67.215998,6 65,6 Z m 6.5,4 c 1.656746,0 3,1.343254 3,3 v 1.5 h 3 V 13 c 0,-1.656746 1.343059,-3 3,-3 1.656746,0 3,1.343254 3,3 0,1.656746 -1.343254,3 -3,3 H 57 v 3 h 1.5 c 1.656746,3.75e-4 3,1.343254 3,3 0,1.656746 -1.343254,3 -3,3 -1.656746,0 -3,-1.343254 -3,-3 v -1.5 h -3 V 22 c 0,1.656746 -1.343059,3 -3,3 -1.656746,0 -3,-1.343254 -3,-3 0,-1.656746 1.343254,-3 3,-3 H 51 v -3 h -1.5 c -1.656746,0 -3,-1.343254 -3,-3 0,-1.656746 1.343254,-3 3,-3 z m 0,1.5 c -0.828372,0 -1.5,0.671628 -1.5,1.5 0,0.828193 0.671628,1.5 1.5,1.5 H 51 V 13 c 0,-0.828372 -0.671628,-1.5 -1.5,-1.5 z m 9,0 C 57.671628,11.5 57,12.171628 57,13 v 1.5 h 1.5 c 0.828372,0 1.5,-0.671628 1.5,-1.5 0,-0.828372 -0.671628,-1.5 -1.5,-1.5 z m -6,4.5 v 3 h 3 v -3 z m -3,4.5 c -0.828372,0 -1.5,0.671628 -1.5,1.5 0,0.828372 0.671628,1.5 1.5,1.5 0.828372,0 1.5,-0.671628 1.5,-1.5 v -1.5 z m 7.5,0 V 22 c 0,0.828372 0.671628,1.5 1.5,1.5 0.828372,0 1.5,-0.671628 1.5,-1.5 0,-0.828372 -0.671628,-1.5 -1.5,-1.5 z"
       class="ColorScheme-Text"
       fill="currentColor" />
  </g>
  <g
     id="input-keyboard-virtual-on"
     transform="translate(0,-1.0000005)">
    <path
       d="M 38,33 H 70 V 65.000001 H 38 Z"
       fill="none"
       id="path918"
       style="stroke-width:1.45455" />
    <path
       id="path920"
       class="ColorScheme-Text"
       d="m 43,38 c -2.215996,0 -4,1.784004 -4,4 v 15 c 0,2.215996 1.784004,4 4,4 H 62.181641 A 5,5 0 0 1 61.5,58.5 a 5,5 0 0 1 5,-5 5,5 0 0 1 2.5,0.671875 V 42 c 0,-2.215996 -1.784004,-4 -4,-4 z m 6.5,4 c 1.656744,0 3,1.343256 3,3 v 1.5 h 3 V 45 c 0,-1.656744 1.343061,-3 3,-3 1.656744,0 3,1.343256 3,3 0,1.656744 -1.343256,3 -3,3 H 57 v 3 h 1.5 c 1.656744,3.75e-4 3,1.343256 3,3 0,1.656744 -1.343256,3 -3,3 -1.656744,0 -3,-1.343256 -3,-3 v -1.5 h -3 V 54 c 0,1.656744 -1.343061,3 -3,3 -1.656744,0 -3,-1.343256 -3,-3 0,-1.656744 1.343256,-3 3,-3 H 51 v -3 h -1.5 c -1.656744,0 -3,-1.343256 -3,-3 0,-1.656744 1.343256,-3 3,-3 z m 0,1.5 c -0.828371,0 -1.5,0.671629 -1.5,1.5 0,0.828192 0.671629,1.5 1.5,1.5 H 51 V 45 c 0,-0.828371 -0.671629,-1.5 -1.5,-1.5 z m 9,0 C 57.671629,43.5 57,44.171629 57,45 v 1.5 h 1.5 c 0.828371,0 1.5,-0.671629 1.5,-1.5 0,-0.828371 -0.671629,-1.5 -1.5,-1.5 z m -6,4.5 v 3 h 3 v -3 z m -3,4.5 c -0.828371,0 -1.5,0.671629 -1.5,1.5 0,0.828371 0.671629,1.5 1.5,1.5 0.828371,0 1.5,-0.671629 1.5,-1.5 v -1.5 z m 7.5,0 V 54 c 0,0.828371 0.671629,1.5 1.5,1.5 0.828371,0 1.5,-0.671629 1.5,-1.5 0,-0.828371 -0.671629,-1.5 -1.5,-1.5 z"
       fill="currentColor" />
    <circle
       id="circle417"
       cx="66.5"
       cy="58.5"
       r="3.5"
       style="fill:#42d15b;fill-opacity:1" />
  </g>
  <g
     id="input-keyboard-virtual-off"
     transform="translate(0,-1.0000005)">
    <circle
       id="circle485"
       cx="66.5"
       cy="90.5"
       r="3.5"
       class="ColorScheme-Text"
       fill="currentColor"
       style="opacity:0.35" />
    <path
       d="M 38,65 H 70 V 97.000001 H 38 Z"
       fill="none"
       id="path937"
       style="stroke-width:1.45455" />
    <path
       id="path939"
       class="ColorScheme-Text"
       d="m 43,70 c -2.215996,0 -4,1.784004 -4,4 v 15 c 0,2.215996 1.784004,4 4,4 H 62.181641 A 5,5 0 0 1 61.5,90.5 a 5,5 0 0 1 5,-5 5,5 0 0 1 2.5,0.671875 V 74 c 0,-2.215996 -1.784004,-4 -4,-4 z m 6.5,4 c 1.656744,0 3,1.343256 3,3 v 1.5 h 3 V 77 c 0,-1.656744 1.343061,-3 3,-3 1.656744,0 3,1.343256 3,3 0,1.656744 -1.343256,3 -3,3 H 57 v 3 h 1.5 c 1.656744,3.75e-4 3,1.343256 3,3 0,1.656744 -1.343256,3 -3,3 -1.656744,0 -3,-1.343256 -3,-3 v -1.5 h -3 V 86 c 0,1.656744 -1.343061,3 -3,3 -1.656744,0 -3,-1.343256 -3,-3 0,-1.656744 1.343256,-3 3,-3 H 51 v -3 h -1.5 c -1.656744,0 -3,-1.343256 -3,-3 0,-1.656744 1.343256,-3 3,-3 z m 0,1.5 c -0.828371,0 -1.5,0.671629 -1.5,1.5 0,0.828192 0.671629,1.5 1.5,1.5 H 51 V 77 c 0,-0.828371 -0.671629,-1.5 -1.5,-1.5 z m 9,0 C 57.671629,75.5 57,76.171629 57,77 v 1.5 h 1.5 c 0.828371,0 1.5,-0.671629 1.5,-1.5 0,-0.828371 -0.671629,-1.5 -1.5,-1.5 z m -6,4.5 v 3 h 3 v -3 z m -3,4.5 c -0.828371,0 -1.5,0.671629 -1.5,1.5 0,0.828371 0.671629,1.5 1.5,1.5 0.828371,0 1.5,-0.671629 1.5,-1.5 v -1.5 z m 7.5,0 V 86 c 0,0.828371 0.671629,1.5 1.5,1.5 0.828371,0 1.5,-0.671629 1.5,-1.5 0,-0.828371 -0.671629,-1.5 -1.5,-1.5 z"
       fill="currentColor" />
  </g>
</svg>
