<svg width="70" height="256" version="1.1" viewBox="0 0 70 256" xmlns="http://www.w3.org/2000/svg" xmlns:xlink="http://www.w3.org/1999/xlink">
 <defs>
  <style id="current-color-scheme" type="text/css">.ColorScheme-Text {
        color:#363636;
      }
      .ColorScheme-Background {
        color:#efefef;
      }
      .ColorScheme-Highlight {
        color:#3daee9;
      }
      .ColorScheme-ViewText {
        color:#363636;
      }
      .ColorScheme-ViewBackground {
        color:#fcfcfc;
      }
      .ColorScheme-ViewHover {
        color:#93cee9;
      }
      .ColorScheme-ViewFocus{
        color:#3daee9;
      }
      .ColorScheme-ButtonText {
        color:#363636;
      }
      .ColorScheme-ButtonBackground {
        color:#ffffff;
      }
      .ColorScheme-ButtonHover {
        color:#93cee9;
      }
      .ColorScheme-ButtonFocus{
        color:#3daee9;
      }</style>
 </defs>
 <g id="22-22-input-mouse-battery" transform="translate(-310 -300.36)">
  <rect x="326" y="534.36" width="22" height="22" ry="0" fill="none"/>
  <path class="ColorScheme-Text" transform="translate(326 534.36)" d="m13.5 3c-3.047 0-5.5 2.676-5.5 6v4c0 3.324 2.453 6 5.5 6s5.5-2.676 5.5-6v-4c0-3.324-2.453-6-5.5-6zm0 1c2.493 0 4.5 2.007 4.5 4.5v5c0 2.493-2.007 4.5-4.5 4.5s-4.5-2.007-4.5-4.5v-5c0-2.493 2.007-4.5 4.5-4.5zm0 2c-0.277 0-0.5 0.223-0.5 0.5v2c0 0.277 0.223 0.5 0.5 0.5s0.5-0.223 0.5-0.5v-2c0-0.277-0.223-0.5-0.5-0.5z" fill="currentColor"/>
  <path class="ColorScheme-Text" d="m331 537.36-2 5h2v3l2-5h-2z" fill="currentColor"/>
 </g>
 <g id="22-22-input-keyboard-battery" transform="translate(-332 -396.36)">
  <rect x="348" y="534.36" width="22" height="22" ry="0" fill="none"/>
  <path class="ColorScheme-Text" transform="translate(332 396.36)" d="m20 141v14l7 2 7-2v-5h-1v2h-12v-10h8v-1h-9zm12 0-2 5h2v3l2-5h-2v-3zm-5.5625 3-2.4375 6h1.0742l0.40625-1h3.0391l0.40625 1h1.0742l-2.4395-6h-0.53711l-0.023438 0.00977-0.023438-0.00977h-0.53906zm0.5625 1.2578 1.1133 2.7422h-2.2266l1.1133-2.7422zm-6 7.7422h12v1h-12v-1z" fill="currentColor"/>
 </g>
 <g id="22-22-input-keyboard-brightness" transform="translate(-354 -428.36)">
  <rect x="370" y="534.36" width="22" height="22" ry="0" fill="none"/>
  <path class="ColorScheme-Text" transform="translate(354 428.36)" d="m20 109v14l7 2 7-2v-9h-1v6h-12v-10h8v-1h-9zm12 0c-1.1046 0-2 0.89543-2 2s0.89543 2 2 2 2-0.89543 2-2-0.89543-2-2-2zm0 1v2c-0.55228 0-1-0.44771-1-1 0-0.55228 0.44772-1 1-1zm-5.5625 2-2.4375 6h1.0742l0.40625-1h3.0391l0.40625 1h1.0742l-2.4395-6h-0.53711l-0.023438 0.00977-0.023438-0.00977h-0.53906zm0.5625 1.2578 1.1133 2.7422h-2.2266l1.1133-2.7422zm-6 7.7422h12v1h-12v-1z" fill="currentColor"/>
 </g>
 <g id="input-keyboard-battery" transform="translate(-332 -428.36)">
  <rect x="370" y="556.36" width="32" height="32" ry="0" fill="none"/>
  <path class="ColorScheme-Text" transform="translate(332 428.36)" d="m44 132v20l10 4 10-4v-11h-1v8h-18v-16h14v-1h-15zm18 0-2 5h2v3l2-5h-2v-3zm-8.5938 4-4.4062 10h1.3008l1.3223-3h4.7227l1.3496 3h1.3047l-4.5-10h-1.0938zm0.55273 1.6953 1.9375 4.3047h-3.834l1.8965-4.3047zm-8.959 12.305h18v1h-18v-1z" fill="currentColor"/>
 </g>
 <g id="input-keyboard-brightness" transform="translate(-364 -460.36)">
  <rect x="402" y="556.36" width="32" height="32" ry="0" fill="none"/>
  <path class="ColorScheme-Text" transform="translate(364 460.36)" d="m44 100v20l10 4 10-4v-10h-1v7h-18v-16h12v-1h-13zm9.4062 4-4.4062 10h1.3008l1.3223-3h4.7227l1.3496 3h1.3047l-4.5-10h-1.0938zm0.55273 1.6953 1.9375 4.3047h-3.834l1.8965-4.3047zm-8.959 12.305h18v1h-18v-1z" fill="currentColor"/>
  <path class="ColorScheme-Text" transform="translate(326 534.36)" d="m100 25c-0.277 0-0.5 0.223-0.5 0.5v1c0 0.277 0.223 0.5 0.5 0.5s0.5-0.223 0.5-0.5v-1c0-0.277-0.223-0.5-0.5-0.5zm-3.1816 1.3184c-0.12781 0-0.25558 0.04855-0.35352 0.14648-0.19587 0.19587-0.19587 0.51116 0 0.70703l0.70703 0.70703c0.19587 0.19587 0.51116 0.19587 0.70703 0s0.19587-0.51116 0-0.70703l-0.70703-0.70703c-0.09793-0.09793-0.22571-0.14648-0.35352-0.14648zm6.3633 0c-0.12781 0-0.25558 0.04855-0.35352 0.14648l-0.70703 0.70703c-0.19586 0.19587-0.19586 0.51116 0 0.70703 0.19587 0.19587 0.51117 0.19587 0.70703 0l0.70704-0.70703c0.19586-0.19587 0.19586-0.51116 0-0.70703-0.0979-0.09793-0.22571-0.14648-0.35352-0.14648zm-3.1816 1.6816c-1.1046 0-2 0.89543-2 2s0.89543 2 2 2c1.1046 0 2-0.89543 2-2s-0.89543-2-2-2zm0 1v2c-0.55228 0-1-0.44772-1-1s0.44772-1 1-1zm-4.5 0.5c-0.277 0-0.5 0.223-0.5 0.5s0.223 0.5 0.5 0.5h1c0.277 0 0.5-0.223 0.5-0.5s-0.223-0.5-0.5-0.5zm8 0c-0.277 0-0.5 0.223-0.5 0.5s0.223 0.5 0.5 0.5h1c0.277 0 0.5-0.223 0.5-0.5s-0.223-0.5-0.5-0.5zm-5.9746 2.4746c-0.12781 0-0.25558 0.04855-0.35352 0.14648l-0.70703 0.70703c-0.19587 0.19587-0.19587 0.51116 0 0.70703s0.51116 0.19587 0.70703 0l0.70703-0.70703c0.19587-0.19587 0.19587-0.51116 0-0.70703-0.09793-0.09793-0.22571-0.14648-0.35352-0.14648zm4.9492 0c-0.12781 0-0.25558 0.04855-0.35352 0.14648-0.19586 0.19587-0.19586 0.51116 0 0.70703l0.70703 0.70703c0.19587 0.19587 0.51117 0.19587 0.70704 0 0.19586-0.19587 0.19586-0.51116 0-0.70703l-0.70704-0.70703c-0.0979-0.09793-0.2257-0.14648-0.35351-0.14648zm-2.4746 1.0254c-0.277 0-0.5 0.223-0.5 0.5v1c0 0.277 0.223 0.5 0.5 0.5s0.5-0.223 0.5-0.5v-1c0-0.277-0.223-0.5-0.5-0.5z" fill="currentColor"/>
 </g>
 <g id="input-mouse-battery" transform="translate(-332 -332.36)">
  <path class="ColorScheme-Text" d="m386 560.36a8 9 0 0 0-8 9v6a8 9 0 0 0 8 9 8 9 0 0 0 8-9v-6a8 9 0 0 0-8-9zm0 1a7 8 0 0 1 7 8v6a7 8 0 0 1-7 8 7 8 0 0 1-7-8v-6a7 8 0 0 1 7-8zm0 3a1 1 0 0 0-1 1v3a1 1 0 0 0 1 1 1 1 0 0 0 1-1v-3a1 1 0 0 0-1-1zm0 8-2 5h2v3l2-5h-2z" fill="currentColor"/>
  <rect x="370" y="556.36" width="32" height="32" ry="0" fill="none"/>
 </g>
 <g id="16-16-input-mouse-battery" transform="translate(-303 -297.36)">
  <path class="ColorScheme-Text" transform="translate(319 457.36)" d="m-8 82a4 4 0 0 0-4 4v4a4 4 0 0 0 4 4 4 4 0 0 0 4-4v-4a4 4 0 0 0-4-4zm0 1a3 3 0 0 1 3 3v4a3 3 0 0 1-3 3 3 3 0 0 1-3-3v-4a3 3 0 0 1 3-3zm0 1-2 5h2v3l2-5h-2z" fill="currentColor"/>
  <rect x="303" y="537.36" width="16" height="16" fill="none"/>
 </g>
 <g id="22-22-input-caps-on" transform="translate(59.241 23.259)">
  <rect x="-43.241" y="146.74" width="22" height="22" opacity=".001"/>
  <path class="ColorScheme-Text" d="m-39.241 149.74v14l7 2 7-2v-14zm1 1h12v10h-12zm5.4375 2-2.4375 6h1.0742l0.40625-1h3.0391l0.40625 1h1.0742l-2.4394-6h-0.53711l-0.0234 0.01-0.0234-0.01zm0.5625 1.2578 1.1133 2.7422h-2.2266zm-6 7.7422h12v1h-12z" fill="currentColor"/>
 </g>
 <g id="22-22-input-num-on" transform="translate(-8 85)">
  <rect x="24" y="117" width="22" height="22" opacity=".001"/>
  <path class="ColorScheme-Text" d="m28 120v14l7 2 7-2v-14zm1 1h12v10h-12zm6 2v1h-1v1h1v3h-1v1h3v-1h-1v-5zm-6 9h12v1h-12z" fill="currentColor"/>
 </g>
 <g id="input-caps-on" transform="translate(19 48)">
  <rect x="19" y="112" width="32" height="32" opacity=".001"/>
  <path class="ColorScheme-Text" d="m25 116v20l10 4 10-4v-20h-1zm1 1h18v16h-18zm8.4062 3-4.4062 10h1.3008l1.3223-3h4.7226l1.3496 3h1.3047l-4.5-10zm0.55273 1.6953 1.9375 4.3047h-3.834zm-8.959 12.305h18v1h-18z" fill="currentColor"/>
 </g>
 <g id="input-num-on" transform="translate(19 80)">
  <rect x="19" y="112" width="32" height="32" opacity=".001"/>
  <path class="ColorScheme-Text" d="m25 116v20l10 4 10-4v-20h-1zm1 1h18v16h-18zm9 3v2h-2v1h2v6h-2v1h5v-1h-2v-9zm-9 14h18v1h-18z" fill="currentColor"/>
 </g>
 <use id="fcitx-vk-inactive" transform="translate(104,-6)" width="100%" height="100%" opacity=".5" xlink:href="#fcitx-kbd"/>
 <g id="22-22-input-keyboard">
  <path class="ColorScheme-Text" d="m14 11c-1.108 0-2 0.892-2 2v12c0 1.108 0.892 2 2 2h14c1.108 0 2-0.892 2-2v-12c0-1.108-0.892-2-2-2h-14zm4 3c1.1045 0 2 0.8955 2 2v1h2v-1c0-1.1045 0.89537-2 2-2 1.1045 0 2 0.8955 2 2s-0.8955 2-2 2h-1v2h1c1.1045 2.5e-4 2 0.8955 2 2s-0.8955 2-2 2-2-0.8955-2-2v-1h-2v1c0 1.1045-0.89537 2-2 2-1.1045 0-2-0.8955-2-2s0.8955-2 2-2h1v-2h-1c-1.1045 0-2-0.8955-2-2s0.8955-2 2-2zm0 1c-0.55225 0-1 0.44775-1 1 0 0.55213 0.44775 1 1 1h1v-1c0-0.55225-0.44775-1-1-1zm6 0c-0.55225 0-1 0.44775-1 1v1h1c0.55225 0 1-0.44775 1-1s-0.44775-1-1-1zm-4 3v2h2v-2h-2zm-2 3c-0.55225 0-1 0.44775-1 1s0.44775 1 1 1 1-0.44775 1-1v-1h-1zm5 0v1c0 0.55225 0.44775 1 1 1s1-0.44775 1-1-0.44775-1-1-1h-1z" fill="currentColor"/>
  <path d="m10 8h22v22h-22z" fill="none"/>
 </g>
 <g id="22-22-input-keyboard-virtual-on" transform="translate(-2)">
  <path class="ColorScheme-Text" d="m15 42c-1.108 0-2 0.892-2 2v12c0 1.108 0.892 2 2 2h11.346a3.5 3.5 0 0 1-0.3418-1.5 3.5 3.5 0 0 1 3.5-3.5 3.5 3.5 0 0 1 1.4961 0.33984v-9.3398c0-1.108-0.892-2-2-2zm4 3c1.1045 0 2 0.8955 2 2v1h2v-1c0-1.1045 0.89537-2 2-2 1.1045 0 2 0.8955 2 2s-0.8955 2-2 2h-1v2h1c1.1045 2.5e-4 2 0.8955 2 2s-0.8955 2-2 2-2-0.8955-2-2v-1h-2v1c0 1.1045-0.89537 2-2 2-1.1045 0-2-0.8955-2-2s0.8955-2 2-2h1v-2h-1c-1.1045 0-2-0.8955-2-2s0.8955-2 2-2zm0 1c-0.55225 0-1 0.44775-1 1 0 0.55213 0.44775 1 1 1h1v-1c0-0.55225-0.44775-1-1-1zm6 0c-0.55225 0-1 0.44775-1 1v1h1c0.55225 0 1-0.44775 1-1s-0.44775-1-1-1zm-4 3v2h2v-2zm-2 3c-0.55225 0-1 0.44775-1 1s0.44775 1 1 1 1-0.44775 1-1v-1zm5 0v1c0 0.55225 0.44775 1 1 1s1-0.44775 1-1-0.44775-1-1-1z" fill="currentColor"/>
  <path d="m11 39h22v22h-22z" fill="none"/>
  <path class="ColorScheme-PositiveText" d="m29.503 54a2.5 2.5 0 0 0-2.5 2.5 2.5 2.5 0 0 0 2.5 2.5 2.5 2.5 0 0 0 2.5-2.5 2.5 2.5 0 0 0-2.5-2.5z" fill="#42d15b"/>
 </g>
 <g id="22-22-input-keyboard-virtual-off" transform="translate(-1,64)">
  <path class="ColorScheme-Text" d="m14 11c-1.108 0-2 0.892-2 2v12c0 1.108 0.892 2 2 2h14c1.108 0 2-0.892 2-2v-12c0-1.108-0.892-2-2-2zm4 3c1.1045 0 2 0.8955 2 2v1h2v-1c0-1.1045 0.89537-2 2-2 1.1045 0 2 0.8955 2 2s-0.8955 2-2 2h-1v2h1c1.1045 2.5e-4 2 0.8955 2 2s-0.8955 2-2 2-2-0.8955-2-2v-1h-2v1c0 1.1045-0.89537 2-2 2-1.1045 0-2-0.8955-2-2s0.8955-2 2-2h1v-2h-1c-1.1045 0-2-0.8955-2-2s0.8955-2 2-2zm0 1c-0.55225 0-1 0.44775-1 1 0 0.55213 0.44775 1 1 1h1v-1c0-0.55225-0.44775-1-1-1zm6 0c-0.55225 0-1 0.44775-1 1v1h1c0.55225 0 1-0.44775 1-1s-0.44775-1-1-1zm-4 3v2h2v-2zm-2 3c-0.55225 0-1 0.44775-1 1s0.44775 1 1 1 1-0.44775 1-1v-1zm5 0v1c0 0.55225 0.44775 1 1 1s1-0.44775 1-1-0.44775-1-1-1z" fill="currentColor" opacity=".35"/>
  <path d="m10 8h22v22h-22z" fill="none"/>
 </g>
 <g id="input-keyboard-virtual-on">
  <rect x="37" y="34" width="32" height="32" fill="none"/>
  <path class="ColorScheme-Text" fill="currentColor" d="m46 38c-2.77 0-5 2.23-5 5v14c0 2.77 2.23 5 5 5h14c0.11166 0 0.22028-0.008495 0.33008-0.015625-0.21748-0.46463-0.33017-0.97134-0.33008-1.4844 0-1.933 1.567-3.5 3.5-3.5 0.51301-9.1e-5 1.0197 0.11259 1.4844 0.33008 0.0071-0.10979 0.015625-0.21842 0.015625-0.33008v-14c0-2.77-2.23-5-5-5h-14zm1.5 3a3.5 3.5 0 0 1 3.5 3.5v1.5h4v-1.5a3.5 3.5 0 0 1 3.5-3.5 3.5 3.5 0 0 1 3.5 3.5 3.5 3.5 0 0 1-3.5 3.5h-1.5v4h1.5a3.5 3.5 0 0 1 3.5 3.5 3.5 3.5 0 0 1-3.5 3.5 3.5 3.5 0 0 1-3.5-3.5v-1.5h-4v1.5a3.5 3.5 0 0 1-3.5 3.5 3.5 3.5 0 0 1-3.5-3.5 3.5 3.5 0 0 1 3.5-3.5h1.5v-4h-1.5a3.5 3.5 0 0 1-3.5-3.5 3.5 3.5 0 0 1 3.5-3.5zm0 2a1.5 1.5 0 0 0-1.5 1.5 1.5 1.5 0 0 0 1.5 1.5h1.5v-1.5a1.5 1.5 0 0 0-1.5-1.5zm11 0a1.5 1.5 0 0 0-1.5 1.5v1.5h1.5a1.5 1.5 0 0 0 1.5-1.5 1.5 1.5 0 0 0-1.5-1.5zm-7.5 5v4h4v-4h-4zm-3.5 6a1.5 1.5 0 0 0-1.5 1.5 1.5 1.5 0 0 0 1.5 1.5 1.5 1.5 0 0 0 1.5-1.5v-1.5h-1.5zm9.5 0v1.5a1.5 1.5 0 0 0 1.5 1.5 1.5 1.5 0 0 0 1.5-1.5 1.5 1.5 0 0 0-1.5-1.5h-1.5z"/>
  <path d="m63.5 58a2.5 2.5 0 0 0-2.5 2.5 2.5 2.5 0 0 0 2.5 2.5 2.5 2.5 0 0 0 2.5-2.5 2.5 2.5 0 0 0-2.5-2.5z" fill="#42d15b"/>
 </g>
 <g id="input-keyboard">
  <rect x="38" y="-5.6172e-6" width="32" height="32" fill="none"/>
  <path class="ColorScheme-Text" fill="currentColor" d="m47 4c-2.77 0-5 2.23-5 5v14c0 2.77 2.23 5 5 5h14c2.77 0 5-2.23 5-5v-14c0-2.77-2.23-5-5-5h-14zm1.5 3a3.5 3.5 0 0 1 3.5 3.5v1.5h4v-1.5a3.5 3.5 0 0 1 3.5-3.5 3.5 3.5 0 0 1 3.5 3.5 3.5 3.5 0 0 1-3.5 3.5h-1.5v4h1.5a3.5 3.5 0 0 1 3.5 3.5 3.5 3.5 0 0 1-3.5 3.5 3.5 3.5 0 0 1-3.5-3.5v-1.5h-4v1.5a3.5 3.5 0 0 1-3.5 3.5 3.5 3.5 0 0 1-3.5-3.5 3.5 3.5 0 0 1 3.5-3.5h1.5v-4h-1.5a3.5 3.5 0 0 1-3.5-3.5 3.5 3.5 0 0 1 3.5-3.5zm0 2a1.5 1.5 0 0 0-1.5 1.5 1.5 1.5 0 0 0 1.5 1.5h1.5v-1.5a1.5 1.5 0 0 0-1.5-1.5zm11 0a1.5 1.5 0 0 0-1.5 1.5v1.5h1.5a1.5 1.5 0 0 0 1.5-1.5 1.5 1.5 0 0 0-1.5-1.5zm-7.5 5v4h4v-4h-4zm-3.5 6a1.5 1.5 0 0 0-1.5 1.5 1.5 1.5 0 0 0 1.5 1.5 1.5 1.5 0 0 0 1.5-1.5v-1.5h-1.5zm9.5 0v1.5a1.5 1.5 0 0 0 1.5 1.5 1.5 1.5 0 0 0 1.5-1.5 1.5 1.5 0 0 0-1.5-1.5h-1.5z"/>
 </g>
 <g id="input-keyboard-virtual-off" transform="translate(-1 66)" opacity=".35">
  <rect x="38" y="-5.6172e-6" width="32" height="32" fill="none"/>
  <path class="ColorScheme-Text" fill="currentColor" transform="translate(1,-66)" d="m46 70c-2.77 0-5 2.23-5 5v14c0 2.77 2.23 5 5 5h14c2.77 0 5-2.23 5-5v-14c0-2.77-2.23-5-5-5h-14zm1.5 3a3.5 3.5 0 0 1 3.5 3.5v1.5h4v-1.5a3.5 3.5 0 0 1 3.5-3.5 3.5 3.5 0 0 1 3.5 3.5 3.5 3.5 0 0 1-3.5 3.5h-1.5v4h1.5a3.5 3.5 0 0 1 3.5 3.5 3.5 3.5 0 0 1-3.5 3.5 3.5 3.5 0 0 1-3.5-3.5v-1.5h-4v1.5a3.5 3.5 0 0 1-3.5 3.5 3.5 3.5 0 0 1-3.5-3.5 3.5 3.5 0 0 1 3.5-3.5h1.5v-4h-1.5a3.5 3.5 0 0 1-3.5-3.5 3.5 3.5 0 0 1 3.5-3.5zm0 2a1.5 1.5 0 0 0-1.5 1.5 1.5 1.5 0 0 0 1.5 1.5h1.5v-1.5a1.5 1.5 0 0 0-1.5-1.5zm11 0a1.5 1.5 0 0 0-1.5 1.5v1.5h1.5a1.5 1.5 0 0 0 1.5-1.5 1.5 1.5 0 0 0-1.5-1.5zm-7.5 5v4h4v-4h-4zm-3.5 6a1.5 1.5 0 0 0-1.5 1.5 1.5 1.5 0 0 0 1.5 1.5 1.5 1.5 0 0 0 1.5-1.5v-1.5h-1.5zm9.5 0v1.5a1.5 1.5 0 0 0 1.5 1.5 1.5 1.5 0 0 0 1.5-1.5 1.5 1.5 0 0 0-1.5-1.5h-1.5z"/>
 </g>
</svg>
