<?xml version="1.0" encoding="UTF-8" standalone="no"?>
<svg
   id="svg30"
   viewBox="0 0 32 32"
   version="1.1"
   sodipodi:docname="kdeconnect.svg"
   inkscape:version="1.2.2 (b0a8486541, 2022-12-01)"
   xmlns:inkscape="http://www.inkscape.org/namespaces/inkscape"
   xmlns:sodipodi="http://sodipodi.sourceforge.net/DTD/sodipodi-0.dtd"
   xmlns="http://www.w3.org/2000/svg"
   xmlns:svg="http://www.w3.org/2000/svg">
  <sodipodi:namedview
     id="namedview4439"
     pagecolor="#ffffff"
     bordercolor="#666666"
     borderopacity="1.0"
     inkscape:showpageshadow="2"
     inkscape:pageopacity="0.0"
     inkscape:pagecheckerboard="0"
     inkscape:deskcolor="#d1d1d1"
     showgrid="true"
     inkscape:zoom="10.429825"
     inkscape:cx="13.135407"
     inkscape:cy="13.75862"
     inkscape:window-width="3840"
     inkscape:window-height="2028"
     inkscape:window-x="0"
     inkscape:window-y="64"
     inkscape:window-maximized="1"
     inkscape:current-layer="svg30">
    <inkscape:grid
       type="xygrid"
       id="grid4450"
       spacingx="0.5"
       spacingy="0.5"
       empspacing="2"
       color="#e500dd"
       opacity="0.14901961" />
  </sodipodi:namedview>
  <defs
     id="defs3">
    <style
       type="text/css"
       id="current-color-scheme">.ColorScheme-Text { color:#363636; }</style>
  </defs>
  <g
     id="22-22-kdeconnect">
    <rect
       id="rect10"
       fill="none"
       height="22"
       width="22"
       y="4.9999852"
       x="34"
       style="color:#363636" />
    <path
       id="path14"
       fill="currentColor"
       d="m 44.624998,12.99998 -0.208006,0.830554 c -0.189098,0.0504 -0.370809,0.125251 -0.540535,0.222661 l -0.732424,-0.439457 -0.530275,0.530275 0.439457,0.732424 c -0.09854,0.170041 -0.174383,0.352254 -0.225586,0.541998 L 42,15.624978 v 0.750004 l 0.830554,0.208006 c 0.0504,0.189098 0.125251,0.370809 0.222661,0.540535 l -0.439457,0.732424 0.530275,0.530275 0.732424,-0.439457 c 0.170041,0.09854 0.352254,0.174383 0.541998,0.225586 l 0.206543,0.827629 h 0.750004 l 0.208006,-0.830554 c 0.189098,-0.0504 0.370809,-0.125251 0.540535,-0.222661 l 0.732424,0.439457 0.530275,-0.530275 -0.439457,-0.732424 c 0.09854,-0.170041 0.174383,-0.352254 0.225586,-0.541998 L 48,16.374982 v -0.750004 l -0.830554,-0.208006 c -0.0504,-0.189098 -0.125251,-0.370809 -0.222661,-0.540535 l 0.439457,-0.732424 -0.530275,-0.530275 -0.732424,0.439457 c -0.170041,-0.09854 -0.352254,-0.174383 -0.541998,-0.225586 L 45.375002,12.99998 Z M 45,14.499988 c 0.04988,1.5e-5 0.09976,0.0023 0.149416,0.0075 0.04965,0.0045 0.09902,0.01222 0.147945,0.02197 0.04943,0.0102 0.09833,0.02295 0.146491,0.0381 0.0477,0.01478 0.09464,0.03187 0.140626,0.0513 0.04598,0.0192 0.09094,0.04073 0.134761,0.06442 0.0438,0.02423 0.08631,0.05063 0.127448,0.0791 0.04155,0.02828 0.08162,0.05858 0.120113,0.09082 0.03833,0.03233 0.075,0.06653 0.109868,0.102541 0.0345,0.03547 0.06728,0.0726 0.09815,0.11133 0.03135,0.03953 0.06068,0.08058 0.08789,0.123046 0.02708,0.04215 0.05197,0.0857 0.0747,0.130373 0.02228,0.0444 0.0423,0.08985 0.06008,0.136231 0.01853,0.0465 0.03465,0.09394 0.04838,0.142088 0.0132,0.04823 0.02392,0.09716 0.03225,0.146491 0.0083,0.0495 0.01418,0.09934 0.01755,0.149408 0.003,0.0351 0.0045,0.07028 0.0045,0.105443 -1.5e-5,0.04988 -0.0022,0.09976 -0.0075,0.149416 -0.0045,0.04965 -0.01223,0.09902 -0.02197,0.147945 -0.0102,0.04943 -0.02295,0.09833 -0.0381,0.146491 -0.01478,0.0477 -0.03187,0.09464 -0.0513,0.140626 -0.0192,0.04597 -0.04072,0.09094 -0.06442,0.134761 -0.02422,0.0438 -0.05062,0.08631 -0.0791,0.127448 -0.02828,0.04155 -0.05858,0.08162 -0.09083,0.120113 -0.03233,0.03833 -0.06653,0.075 -0.102541,0.109868 -0.03547,0.0345 -0.0726,0.06728 -0.111323,0.09815 -0.03952,0.03135 -0.08058,0.06068 -0.123053,0.08789 -0.04215,0.02707 -0.08569,0.05198 -0.130366,0.0747 -0.0444,0.02228 -0.08985,0.0423 -0.13623,0.06008 -0.0465,0.01845 -0.09395,0.03458 -0.142096,0.0483 -0.04822,0.0132 -0.09715,0.02393 -0.146483,0.03225 -0.0495,0.0083 -0.09935,0.01418 -0.149416,0.01755 -0.02092,0.003 -0.04192,0.0053 -0.063,0.0075 h -0.102541 c -0.02985,-0.0015 -0.05963,-0.0038 -0.08935,-0.0075 -0.04965,-0.0045 -0.09903,-0.01223 -0.147953,-0.02198 -0.04943,-0.0102 -0.09833,-0.02295 -0.146484,-0.0381 -0.0477,-0.01478 -0.09464,-0.03187 -0.140625,-0.0513 -0.04598,-0.0192 -0.09095,-0.04072 -0.134769,-0.06442 -0.0438,-0.02423 -0.0863,-0.05063 -0.12744,-0.07909 -0.04155,-0.02828 -0.08162,-0.05858 -0.120121,-0.09083 -0.02257,-0.01988 -0.04455,-0.04035 -0.06593,-0.0615 l -0.06593,-0.06593 c -0.02648,-0.02783 -0.0519,-0.05663 -0.07617,-0.08642 -0.03135,-0.03953 -0.06068,-0.08058 -0.08789,-0.123053 -0.02708,-0.04215 -0.05197,-0.08569 -0.0747,-0.130366 -0.02228,-0.0444 -0.0423,-0.08985 -0.06008,-0.136231 -0.01853,-0.0465 -0.03465,-0.09395 -0.04838,-0.142095 -0.0132,-0.04823 -0.02392,-0.09715 -0.03225,-0.146484 -0.0083,-0.0495 -0.01418,-0.09934 -0.01755,-0.149415 -0.003,-0.0351 -0.0045,-0.07028 -0.0045,-0.105466 1.5e-5,-0.04988 0.0022,-0.09976 0.0075,-0.149416 0.0045,-0.04965 0.01223,-0.09903 0.02197,-0.147953 0.0102,-0.04942 0.02295,-0.09833 0.0381,-0.146483 0.01478,-0.0477 0.03187,-0.09464 0.0513,-0.140626 0.0192,-0.04598 0.04072,-0.09095 0.06442,-0.134768 0.02423,-0.0438 0.05062,-0.0863 0.0791,-0.127441 0.02828,-0.04155 0.05858,-0.08162 0.09083,-0.12012 0.03233,-0.03833 0.06653,-0.075 0.102541,-0.109861 0.03547,-0.0345 0.0726,-0.06728 0.111323,-0.09815 0.03952,-0.03135 0.08058,-0.06068 0.123053,-0.08789 0.04215,-0.02707 0.08569,-0.05198 0.130366,-0.0747 0.0444,-0.02227 0.08985,-0.0423 0.13623,-0.06007 0.0465,-0.01845 0.09395,-0.03465 0.142096,-0.04838 0.04822,-0.0132 0.09715,-0.02393 0.146483,-0.03225 0.0495,-0.0083 0.09935,-0.01417 0.149416,-0.01755 0.03502,-0.0038 0.0702,-0.006 0.105465,-0.0075 z"
       class="ColorScheme-Text" />
    <path
       id="rect4452"
       d="M 41.5,7 C 40.115002,7 39,8.1150028 39,9.5 v 14 c 0,1.384998 1.115002,2.5 2.5,2.5 h 7 C 49.884998,26 51,24.884998 51,23.5 V 9.5 C 51,8.1150028 49.884998,7 48.5,7 Z m 0,1.5 h 1 V 9 c 0,0.2769997 0.223,0.5 0.5,0.5 h 4 c 0.277,0 0.5,-0.2230003 0.5,-0.5 V 8.5 h 1 c 0.553998,0 1,0.4460012 1,1 v 14 c 0,0.553998 -0.446002,1 -1,1 h -7 c -0.553998,0 -1,-0.446002 -1,-1 v -14 c 0,-0.5539988 0.446002,-1 1,-1 z"
       class="ColorScheme-Text"
       fill="currentColor" />
    <rect
       id="rect4459"
       width="6"
       height="1"
       x="42"
       y="22.5"
       rx="0.5"
       ry="0.5"
       style="opacity:0.5"
       class="ColorScheme-Text"
       fill="currentColor" />
  </g>
  <g
     id="kdeconnect">
    <rect
       id="rect23"
       fill="none"
       height="32"
       width="32"
       y="-1.4648437e-05"
       x="0"
       style="color:#363636" />
    <rect
       id="rect25"
       ry="0.5"
       height="1"
       width="7"
       y="24.5"
       x="12.5"
       rx="0.5"
       class="ColorScheme-Text"
       fill="currentColor" />
    <path
       id="path27"
       fill="currentColor"
       d="m 15.5625,12.5 -0.242672,0.968974 c -0.220614,0.0588 -0.432608,0.146125 -0.630621,0.25977 l -0.854489,-0.512697 -0.618651,0.618651 0.512697,0.854489 c -0.114966,0.19838 -0.203446,0.410961 -0.263182,0.632327 L 12.50002,15.56248 v 0.875 l 0.968974,0.242672 c 0.0588,0.220614 0.146125,0.432608 0.25977,0.630621 l -0.512697,0.854489 0.618651,0.618651 0.854489,-0.512697 c 0.19838,0.114966 0.410961,0.203446 0.632327,0.263182 L 15.5625,19.49996 h 0.875 l 0.242672,-0.968974 c 0.220614,-0.0588 0.432608,-0.146125 0.630621,-0.25977 l 0.854489,0.512697 0.618651,-0.618651 -0.512697,-0.854489 c 0.114966,-0.19838 0.203446,-0.410961 0.263182,-0.632327 L 19.49998,16.43748 v -0.875 l -0.968974,-0.242672 c -0.0588,-0.220614 -0.146125,-0.432608 -0.25977,-0.630621 l 0.512697,-0.854489 -0.618651,-0.618651 -0.854489,0.512697 c -0.19838,-0.114966 -0.410961,-0.203446 -0.632327,-0.263182 L 16.4375,12.5 Z M 16,14.249999 c 0.05819,1.7e-5 0.116392,0.0026 0.174317,0.0087 0.05793,0.0053 0.115527,0.01426 0.172603,0.02564 0.05766,0.0119 0.114721,0.02678 0.170905,0.04445 0.05565,0.01724 0.110407,0.03719 0.164062,0.05985 0.05364,0.0224 0.106094,0.04751 0.15722,0.07516 0.0511,0.02826 0.100695,0.05906 0.148689,0.09229 0.04847,0.03299 0.09523,0.06834 0.140131,0.105953 0.04471,0.03771 0.0875,0.07761 0.128178,0.11963 0.04025,0.04139 0.07849,0.0847 0.114503,0.129885 0.03657,0.04611 0.07079,0.09401 0.102532,0.143553 0.03159,0.04917 0.06064,0.09998 0.08715,0.152101 0.02599,0.0518 0.04935,0.104825 0.07009,0.158935 0.02161,0.05425 0.04042,0.109602 0.05644,0.165768 0.0154,0.05626 0.02791,0.113348 0.03763,0.170905 0.0097,0.05775 0.01654,0.115903 0.02047,0.174309 0.0035,0.04095 0.0053,0.08199 0.0053,0.123016 -1.8e-5,0.05819 -0.0026,0.116392 -0.0087,0.174317 -0.0053,0.05793 -0.01426,0.115527 -0.02564,0.172603 -0.0119,0.05766 -0.02678,0.114721 -0.04445,0.170905 -0.01724,0.05565 -0.03719,0.110407 -0.05985,0.164062 -0.0224,0.05364 -0.04751,0.106094 -0.07516,0.15722 -0.02826,0.0511 -0.05906,0.100695 -0.09229,0.148689 -0.03299,0.04847 -0.06834,0.09523 -0.105962,0.140131 -0.03771,0.04471 -0.07761,0.0875 -0.11963,0.128178 -0.04139,0.04025 -0.0847,0.07849 -0.129877,0.114503 -0.04611,0.03657 -0.09401,0.07079 -0.143561,0.102532 -0.04917,0.03159 -0.09997,0.06064 -0.152092,0.08715 -0.0518,0.02599 -0.104825,0.04935 -0.158935,0.07009 -0.05425,0.02153 -0.109611,0.04034 -0.165777,0.05635 -0.05626,0.0154 -0.113339,0.02791 -0.170896,0.03763 -0.05775,0.0097 -0.115903,0.01654 -0.174318,0.02048 -0.02441,0.0035 -0.04891,0.0061 -0.0735,0.0087 h -0.11963 c -0.03482,-0.0018 -0.06956,-0.0044 -0.104247,-0.0087 -0.05793,-0.0053 -0.115535,-0.01426 -0.172611,-0.02564 -0.05766,-0.0119 -0.114713,-0.02678 -0.170896,-0.04445 -0.05565,-0.01724 -0.110408,-0.03719 -0.164063,-0.05985 -0.05364,-0.0224 -0.106102,-0.04751 -0.157228,-0.07516 -0.0511,-0.02826 -0.100687,-0.05906 -0.14868,-0.09228 -0.04847,-0.03299 -0.09523,-0.06834 -0.14014,-0.105962 -0.02634,-0.02319 -0.05198,-0.04708 -0.07691,-0.07175 l -0.07691,-0.07691 c -0.03089,-0.03246 -0.06055,-0.06606 -0.08887,-0.100826 -0.03658,-0.04611 -0.07079,-0.09401 -0.102541,-0.143561 -0.03159,-0.04917 -0.06064,-0.09997 -0.08715,-0.152092 -0.02599,-0.0518 -0.04935,-0.104825 -0.07009,-0.158935 -0.02161,-0.05425 -0.04043,-0.109611 -0.05644,-0.165778 -0.0154,-0.05626 -0.02791,-0.113338 -0.03763,-0.170896 -0.0097,-0.05775 -0.01654,-0.115902 -0.02047,-0.174317 -0.0035,-0.04095 -0.0053,-0.08199 -0.0053,-0.123043 1.8e-5,-0.05819 0.0026,-0.116392 0.0088,-0.174317 0.0053,-0.05793 0.01426,-0.115535 0.02564,-0.172611 0.0119,-0.05766 0.02678,-0.114712 0.04445,-0.170896 0.01724,-0.05565 0.03719,-0.110408 0.05985,-0.164063 0.0224,-0.05364 0.04751,-0.106102 0.07516,-0.157228 0.02826,-0.0511 0.05906,-0.100686 0.09229,-0.14868 0.03299,-0.04847 0.06834,-0.09523 0.105962,-0.14014 0.03771,-0.04471 0.07761,-0.0875 0.11963,-0.12817 0.04139,-0.04025 0.0847,-0.07849 0.129877,-0.114502 0.04611,-0.03658 0.09401,-0.07079 0.143561,-0.102541 0.04917,-0.03159 0.09997,-0.06064 0.152092,-0.08715 0.0518,-0.02599 0.104825,-0.04935 0.158935,-0.07009 0.05425,-0.02153 0.109611,-0.04043 0.165777,-0.05644 0.05626,-0.0154 0.113339,-0.02791 0.170896,-0.03763 0.05775,-0.0097 0.115903,-0.01654 0.174318,-0.02047 0.04086,-0.0044 0.0819,-0.007 0.123042,-0.0088 z"
       class="ColorScheme-Text" />
    <path
       id="rect4509"
       d="M 11.5 4 C 10.115002 4 9 5.1150028 9 6.5 L 9 25.5 C 9 26.884998 10.115002 28 11.5 28 L 20.5 28 C 21.884998 28 23 26.884998 23 25.5 L 23 6.5 C 23 5.1150028 21.884998 4 20.5 4 L 11.5 4 z M 11.5 5.5 L 13 5.5 L 13 6 C 13 6.2769997 13.223 6.5 13.5 6.5 L 18.5 6.5 C 18.777 6.5 19 6.2769997 19 6 L 19 5.5 L 20.5 5.5 C 21.053998 5.5 21.5 5.9460012 21.5 6.5 L 21.5 25.5 C 21.5 26.053998 21.053998 26.5 20.5 26.5 L 11.5 26.5 C 10.946002 26.5 10.5 26.053998 10.5 25.5 L 10.5 6.5 C 10.5 5.9460012 10.946002 5.5 11.5 5.5 z "
       class="ColorScheme-Text"
       fill="currentColor" />
  </g>
  <g
     id="16-16-kdeconnect">
    <path
       id="path4566"
       fill="currentColor"
       d="m -11.375002,17 -0.208006,0.830554 c -0.189098,0.0504 -0.370809,0.125251 -0.540535,0.222661 l -0.732424,-0.439457 -0.530275,0.530275 0.439457,0.732424 c -0.09854,0.170041 -0.174383,0.352254 -0.225586,0.541998 L -14,19.624998 v 0.750004 l 0.830554,0.208006 c 0.0504,0.189098 0.125251,0.370809 0.222661,0.540535 l -0.439457,0.732424 0.530275,0.530275 0.732424,-0.439457 c 0.170041,0.09854 0.352254,0.174383 0.541998,0.225586 L -11.375002,23 h 0.750004 l 0.208006,-0.830554 c 0.189098,-0.0504 0.370809,-0.125251 0.540535,-0.222661 l 0.732424,0.439457 0.530275,-0.530275 -0.439457,-0.732424 c 0.09854,-0.170041 0.174383,-0.352254 0.225586,-0.541998 L -8,20.375002 v -0.750004 l -0.830554,-0.208006 c -0.0504,-0.189098 -0.125251,-0.370809 -0.222661,-0.540535 l 0.439457,-0.732424 -0.530275,-0.530275 -0.732424,0.439457 c -0.170041,-0.09854 -0.352254,-0.174383 -0.541998,-0.225586 L -10.624998,17 Z M -11,18.500008 c 0.04988,1.5e-5 0.09976,0.0023 0.149416,0.0075 0.04965,0.0045 0.09902,0.01222 0.147945,0.02197 0.04943,0.0102 0.09833,0.02295 0.146491,0.0381 0.0477,0.01478 0.09464,0.03187 0.140626,0.0513 0.04598,0.0192 0.09094,0.04073 0.134761,0.06442 0.0438,0.02423 0.08631,0.05063 0.127448,0.0791 0.04155,0.02828 0.08162,0.05858 0.120113,0.09082 0.03833,0.03233 0.075,0.06653 0.109868,0.102541 0.0345,0.03547 0.06728,0.0726 0.09815,0.11133 0.03135,0.03953 0.06068,0.08058 0.08789,0.123046 0.02708,0.04215 0.05197,0.0857 0.0747,0.130373 0.02228,0.0444 0.0423,0.08985 0.06008,0.136231 0.01853,0.0465 0.03465,0.09394 0.04838,0.142088 0.0132,0.04823 0.02392,0.09716 0.03225,0.146491 0.0083,0.0495 0.01418,0.09934 0.01755,0.149408 0.003,0.0351 0.0045,0.07028 0.0045,0.105443 -1.5e-5,0.04988 -0.0022,0.09976 -0.0075,0.149416 -0.0045,0.04965 -0.01223,0.09902 -0.02197,0.147945 -0.0102,0.04943 -0.02295,0.09833 -0.0381,0.146491 -0.01478,0.0477 -0.03187,0.09464 -0.0513,0.140626 -0.0192,0.04597 -0.04072,0.09094 -0.06442,0.134761 -0.02422,0.0438 -0.05062,0.08631 -0.0791,0.127448 -0.02828,0.04155 -0.05858,0.08162 -0.09083,0.120113 -0.03233,0.03833 -0.06653,0.075 -0.102541,0.109868 -0.03547,0.0345 -0.0726,0.06728 -0.111323,0.09815 -0.03952,0.03135 -0.08058,0.06068 -0.123053,0.08789 -0.04215,0.02707 -0.08569,0.05198 -0.130366,0.0747 -0.0444,0.02228 -0.08985,0.0423 -0.13623,0.06008 -0.0465,0.01845 -0.09395,0.03458 -0.142096,0.0483 -0.04822,0.0132 -0.09715,0.02393 -0.146483,0.03225 -0.0495,0.0083 -0.09935,0.01418 -0.149416,0.01755 -0.02092,0.003 -0.04192,0.0053 -0.063,0.0075 h -0.102541 c -0.02985,-0.0015 -0.05963,-0.0038 -0.08935,-0.0075 -0.04965,-0.0045 -0.09903,-0.01223 -0.147953,-0.02198 -0.04943,-0.0102 -0.09833,-0.02295 -0.146484,-0.0381 -0.0477,-0.01478 -0.09464,-0.03187 -0.140625,-0.0513 -0.04598,-0.0192 -0.09095,-0.04072 -0.134769,-0.06442 -0.0438,-0.02423 -0.0863,-0.05063 -0.12744,-0.07909 -0.04155,-0.02828 -0.08162,-0.05858 -0.120121,-0.09083 -0.02257,-0.01988 -0.04455,-0.04035 -0.06593,-0.0615 l -0.06593,-0.06593 c -0.02648,-0.02783 -0.0519,-0.05663 -0.07617,-0.08642 -0.03135,-0.03953 -0.06068,-0.08058 -0.08789,-0.123053 -0.02708,-0.04215 -0.05197,-0.08569 -0.0747,-0.130366 -0.02228,-0.0444 -0.0423,-0.08985 -0.06008,-0.136231 -0.01853,-0.0465 -0.03465,-0.09395 -0.04838,-0.142095 -0.0132,-0.04823 -0.02392,-0.09715 -0.03225,-0.146484 -0.0083,-0.0495 -0.01418,-0.09934 -0.01755,-0.149415 -0.003,-0.0351 -0.0045,-0.07028 -0.0045,-0.105466 1.5e-5,-0.04988 0.0022,-0.09976 0.0075,-0.149416 0.0045,-0.04965 0.01223,-0.09903 0.02197,-0.147953 0.0102,-0.04942 0.02295,-0.09833 0.0381,-0.146483 0.01478,-0.0477 0.03187,-0.09464 0.0513,-0.140626 0.0192,-0.04598 0.04072,-0.09095 0.06442,-0.134768 0.02423,-0.0438 0.05062,-0.0863 0.0791,-0.127441 0.02828,-0.04155 0.05858,-0.08162 0.09083,-0.12012 0.03233,-0.03833 0.06653,-0.075 0.102541,-0.109861 0.03547,-0.0345 0.0726,-0.06728 0.111323,-0.09815 0.03952,-0.03135 0.08058,-0.06068 0.123053,-0.08789 0.04215,-0.02707 0.08569,-0.05198 0.130366,-0.0747 0.0444,-0.02227 0.08985,-0.0423 0.13623,-0.06007 0.0465,-0.01845 0.09395,-0.03465 0.142096,-0.04838 0.04822,-0.0132 0.09715,-0.02393 0.146483,-0.03225 0.0495,-0.0083 0.09935,-0.01417 0.149416,-0.01755 0.03502,-0.0038 0.0702,-0.006 0.105465,-0.0075 z"
       class="ColorScheme-Text" />
    <rect
       id="rect4570"
       width="4"
       height="0.5"
       x="-13"
       y="25.5"
       rx="0.25"
       ry="0.25"
       style="opacity:0.5;stroke-width:0.57735"
       class="ColorScheme-Text"
       fill="currentColor" />
    <rect
       id="rect4574"
       width="16"
       height="16"
       x="-19"
       y="12.5"
       rx="0"
       ry="0"
       style="fill:none" />
    <path
       id="rect4702"
       d="m -13.5,13 c -1.107998,0 -2,0.892002 -2,2 v 11 c 0,1.107998 0.892002,2 2,2 h 5 c 1.1079978,0 2,-0.892002 2,-2 V 15 c 0,-1.107998 -0.8920022,-2 -2,-2 z m 0,1 h 1 c 0,0.277 0.223,0.5 0.5,0.5 h 2 c 0.2769994,0 0.5,-0.223 0.5,-0.5 h 1 c 0.3462489,0 0.6507226,0.173535 0.8300781,0.439453 C -7.5623086,14.599004 -7.5,14.792251 -7.5,15 v 11 c 0,0.553998 -0.4460012,1 -1,1 h -5 c -0.103875,0 -0.204775,-0.01579 -0.298828,-0.04492 -0.03135,-0.0097 -0.06187,-0.02059 -0.0918,-0.0332 C -14.249781,26.770468 -14.5,26.415498 -14.5,26 V 15 c 0,-0.03463 0.0025,-0.06786 0.0059,-0.101562 0.04082,-0.404384 0.319101,-0.73699 0.695313,-0.853516 0.03135,-0.0097 0.06505,-0.01875 0.09766,-0.02539 C -13.635957,14.006254 -13.56925,14 -13.5,14 Z"
       class="ColorScheme-Text"
       fill="currentColor"
       sodipodi:nodetypes="sssssssssscsscssssssccsscccs" />
  </g>
</svg>
