<?xml version="1.0" encoding="UTF-8" standalone="no"?>
<svg
   id="svg17"
   viewBox="0 0 54 32"
   version="1.1"
   sodipodi:docname="keyboard.svg"
   inkscape:version="1.2.2 (b0a8486541, 2022-12-01)"
   xmlns:inkscape="http://www.inkscape.org/namespaces/inkscape"
   xmlns:sodipodi="http://sodipodi.sourceforge.net/DTD/sodipodi-0.dtd"
   xmlns="http://www.w3.org/2000/svg"
   xmlns:svg="http://www.w3.org/2000/svg"
   xmlns:rdf="http://www.w3.org/1999/02/22-rdf-syntax-ns#"
   xmlns:cc="http://creativecommons.org/ns#"
   xmlns:dc="http://purl.org/dc/elements/1.1/">
  <sodipodi:namedview
     id="namedview2559"
     pagecolor="#ffffff"
     bordercolor="#666666"
     borderopacity="1.0"
     inkscape:showpageshadow="2"
     inkscape:pageopacity="0.0"
     inkscape:pagecheckerboard="0"
     inkscape:deskcolor="#d1d1d1"
     showgrid="true"
     inkscape:zoom="22.627417"
     inkscape:cx="51.088465"
     inkscape:cy="20.749165"
     inkscape:window-width="3840"
     inkscape:window-height="2028"
     inkscape:window-x="0"
     inkscape:window-y="64"
     inkscape:window-maximized="1"
     inkscape:current-layer="svg17">
    <inkscape:grid
       type="xygrid"
       id="grid2781"
       spacingx="0.5"
       spacingy="0.5"
       empspacing="2"
       color="#7000e5"
       opacity="0.14901961" />
  </sodipodi:namedview>
  <metadata
     id="metadata19">
    <rdf:RDF>
      <cc:Work
         rdf:about="">
        <dc:format>image/svg+xml</dc:format>
        <dc:type
           rdf:resource="http://purl.org/dc/dcmitype/StillImage" />
      </cc:Work>
    </rdf:RDF>
  </metadata>
  <defs
     id="defs5">
    <style
       type="text/css"
       id="current-color-scheme"> .ColorScheme-Text { color:#363636; } </style>
  </defs>
  <g
     id="22-22-keyboard-layout"
     transform="translate(-10,2)">
    <path
       d="M 10,8 H 32 V 30 H 10 Z"
       fill="none"
       id="path67" />
    <path
       id="rect1682"
       d="m 13,12 c -1.384998,0 -2.5,1.115002 -2.5,2.5 v 9 c 0,1.384998 1.115002,2.5 2.5,2.5 h 16 c 1.384997,0 2.5,-1.115002 2.5,-2.5 v -9 C 31.5,13.115002 30.384997,12 29,12 Z m 0,1.5 h 16 c 0.553999,0 1,0.446002 1,1 v 9 c 0,0.553998 -0.446001,1 -1,1 H 13 c -0.553998,0 -1,-0.446002 -1,-1 v -9 c 0,-0.553998 0.446002,-1 1,-1 z m 1.306641,2 C 14.13691,15.5 14,15.63691 14,15.806641 v 0.886718 C 14,16.86309 14.13691,17 14.306641,17 H 15.19336 C 15.363091,17 15.5,16.86309 15.5,16.693359 V 15.806641 C 15.5,15.63691 15.363091,15.5 15.19336,15.5 Z m 2.5,0 C 16.63691,15.5 16.5,15.63691 16.5,15.806641 v 0.886718 C 16.5,16.86309 16.63691,17 16.806641,17 H 17.69336 C 17.863091,17 18,16.86309 18,16.693359 V 15.806641 C 18,15.63691 17.863091,15.5 17.69336,15.5 Z m 2.5,0 C 19.13691,15.5 19,15.63691 19,15.806641 v 0.886718 C 19,16.86309 19.13691,17 19.306641,17 H 20.19336 C 20.363091,17 20.5,16.86309 20.5,16.693359 V 15.806641 C 20.5,15.63691 20.363091,15.5 20.19336,15.5 Z m 2.5,0 C 21.63691,15.5 21.5,15.63691 21.5,15.806641 v 0.886718 C 21.5,16.86309 21.63691,17 21.806641,17 H 22.69336 C 22.863091,17 23,16.86309 23,16.693359 V 15.806641 C 23,15.63691 22.863091,15.5 22.69336,15.5 Z m 2.5,0 C 24.13691,15.5 24,15.63691 24,15.806641 v 0.886718 C 24,16.86309 24.13691,17 24.306641,17 H 25.19336 C 25.363091,17 25.5,16.86309 25.5,16.693359 V 15.806641 C 25.5,15.63691 25.363091,15.5 25.19336,15.5 Z m 2.5,0 C 26.63691,15.5 26.5,15.63691 26.5,15.806641 v 0.886718 C 26.5,16.86309 26.63691,17 26.806641,17 H 27.69336 C 27.863091,17 28,16.86309 28,16.693359 V 15.806641 C 28,15.63691 27.863091,15.5 27.69336,15.5 Z m -12.5,2.5 C 14.13691,18 14,18.13691 14,18.306641 v 0.886718 C 14,19.36309 14.13691,19.5 14.306641,19.5 H 15.19336 C 15.363091,19.5 15.5,19.36309 15.5,19.193359 V 18.306641 C 15.5,18.13691 15.363091,18 15.19336,18 Z m 2.5,0 C 16.63691,18 16.5,18.13691 16.5,18.306641 v 0.886718 C 16.5,19.36309 16.63691,19.5 16.806641,19.5 H 17.69336 C 17.863091,19.5 18,19.36309 18,19.193359 V 18.306641 C 18,18.13691 17.863091,18 17.69336,18 Z m 2.5,0 C 19.13691,18 19,18.13691 19,18.306641 v 0.886718 C 19,19.36309 19.13691,19.5 19.306641,19.5 H 20.19336 C 20.363091,19.5 20.5,19.36309 20.5,19.193359 V 18.306641 C 20.5,18.13691 20.363091,18 20.19336,18 Z m 2.5,0 C 21.63691,18 21.5,18.13691 21.5,18.306641 v 0.886718 C 21.5,19.36309 21.63691,19.5 21.806641,19.5 H 22.69336 C 22.863091,19.5 23,19.36309 23,19.193359 V 18.306641 C 23,18.13691 22.863091,18 22.69336,18 Z m 2.5,0 C 24.13691,18 24,18.13691 24,18.306641 v 0.886718 C 24,19.36309 24.13691,19.5 24.306641,19.5 H 25.19336 C 25.363091,19.5 25.5,19.36309 25.5,19.193359 V 18.306641 C 25.5,18.13691 25.363091,18 25.19336,18 Z m 2.5,0 C 26.63691,18 26.5,18.13691 26.5,18.306641 v 0.886718 C 26.5,19.36309 26.63691,19.5 26.806641,19.5 H 27.69336 C 27.863091,19.5 28,19.36309 28,19.193359 V 18.306641 C 28,18.13691 27.863091,18 27.69336,18 Z m -12.5,2.5 C 14.13691,20.5 14,20.63691 14,20.806641 v 0.886718 C 14,21.86309 14.13691,22 14.306641,22 H 15.19336 C 15.363091,22 15.5,21.86309 15.5,21.693359 V 20.806641 C 15.5,20.63691 15.363091,20.5 15.19336,20.5 Z m 2.482422,0 C 16.629311,20.5 16.5,20.629311 16.5,20.789062 v 0.921876 C 16.5,21.870689 16.629311,22 16.789063,22 h 8.421875 C 25.37069,22 25.5,21.870689 25.5,21.710938 V 20.789062 C 25.5,20.629311 25.37069,20.5 25.210938,20.5 Z m 10.017578,0 C 26.63691,20.5 26.5,20.63691 26.5,20.806641 v 0.886718 C 26.5,21.86309 26.63691,22 26.806641,22 H 27.69336 C 27.863091,22 28,21.86309 28,21.693359 V 20.806641 C 28,20.63691 27.863091,20.5 27.69336,20.5 Z"
       class="ColorScheme-Text"
       fill="currentColor" />
  </g>
  <g
     id="keyboard-layout">
    <path
       d="M 22,0 H 54.000002 V 32.000001 H 22 Z"
       fill="none"
       id="path1730"
       style="stroke-width:1.45455" />
    <path
       id="rect1738"
       d="M 26.5 6 C 24.561004 6 23 7.5610038 23 9.5 L 23 22.5 C 23 24.438996 24.561004 26 26.5 26 L 49.5 26 C 51.438996 26 53 24.438996 53 22.5 L 53 9.5 C 53 7.5610038 51.438996 6 49.5 6 L 26.5 6 z M 26.5 7.5 L 49.5 7.5 C 50.607998 7.5 51.5 8.3920022 51.5 9.5 L 51.5 22.5 C 51.5 23.607998 50.607998 24.5 49.5 24.5 L 26.5 24.5 C 25.392002 24.5 24.5 23.607998 24.5 22.5 L 24.5 9.5 C 24.5 8.3920022 25.392002 7.5 26.5 7.5 z M 27.5 11 C 27.223 11 27 11.223 27 11.5 L 27 12.5 C 27 12.777 27.223 13 27.5 13 L 28.5 13 C 28.777 13 29 12.777 29 12.5 L 29 11.5 C 29 11.223 28.777 11 28.5 11 L 27.5 11 z M 31.5 11 C 31.223 11 31 11.223 31 11.5 L 31 12.5 C 31 12.777 31.223 13 31.5 13 L 32.5 13 C 32.777 13 33 12.777 33 12.5 L 33 11.5 C 33 11.223 32.777 11 32.5 11 L 31.5 11 z M 35.5 11 C 35.223 11 35 11.223 35 11.5 L 35 12.5 C 35 12.777 35.223 13 35.5 13 L 36.5 13 C 36.777 13 37 12.777 37 12.5 L 37 11.5 C 37 11.223 36.777 11 36.5 11 L 35.5 11 z M 39.5 11 C 39.223 11 39 11.223 39 11.5 L 39 12.5 C 39 12.777 39.223 13 39.5 13 L 40.5 13 C 40.777 13 41 12.777 41 12.5 L 41 11.5 C 41 11.223 40.777 11 40.5 11 L 39.5 11 z M 43.5 11 C 43.223 11 43 11.223 43 11.5 L 43 12.5 C 43 12.777 43.223 13 43.5 13 L 44.5 13 C 44.777 13 45 12.777 45 12.5 L 45 11.5 C 45 11.223 44.777 11 44.5 11 L 43.5 11 z M 47.5 11 C 47.223 11 47 11.223 47 11.5 L 47 12.5 C 47 12.777 47.223 13 47.5 13 L 48.5 13 C 48.777 13 49 12.777 49 12.5 L 49 11.5 C 49 11.223 48.777 11 48.5 11 L 47.5 11 z M 27.5 15 C 27.223 15 27 15.223 27 15.5 L 27 16.5 C 27 16.777 27.223 17 27.5 17 L 28.5 17 C 28.777 17 29 16.777 29 16.5 L 29 15.5 C 29 15.223 28.777 15 28.5 15 L 27.5 15 z M 31.5 15 C 31.223 15 31 15.223 31 15.5 L 31 16.5 C 31 16.777 31.223 17 31.5 17 L 32.5 17 C 32.777 17 33 16.777 33 16.5 L 33 15.5 C 33 15.223 32.777 15 32.5 15 L 31.5 15 z M 35.5 15 C 35.223 15 35 15.223 35 15.5 L 35 16.5 C 35 16.777 35.223 17 35.5 17 L 36.5 17 C 36.777 17 37 16.777 37 16.5 L 37 15.5 C 37 15.223 36.777 15 36.5 15 L 35.5 15 z M 39.5 15 C 39.223 15 39 15.223 39 15.5 L 39 16.5 C 39 16.777 39.223 17 39.5 17 L 40.5 17 C 40.777 17 41 16.777 41 16.5 L 41 15.5 C 41 15.223 40.777 15 40.5 15 L 39.5 15 z M 43.5 15 C 43.223 15 43 15.223 43 15.5 L 43 16.5 C 43 16.777 43.223 17 43.5 17 L 44.5 17 C 44.777 17 45 16.777 45 16.5 L 45 15.5 C 45 15.223 44.777 15 44.5 15 L 43.5 15 z M 47.5 15 C 47.223 15 47 15.223 47 15.5 L 47 16.5 C 47 16.777 47.223 17 47.5 17 L 48.5 17 C 48.777 17 49 16.777 49 16.5 L 49 15.5 C 49 15.223 48.777 15 48.5 15 L 47.5 15 z M 27.5 19 C 27.223 19 27 19.223 27 19.5 L 27 20.5 C 27 20.777 27.223 21 27.5 21 L 28.5 21 C 28.777 21 29 20.777 29 20.5 L 29 19.5 C 29 19.223 28.777 19 28.5 19 L 27.5 19 z M 31.5 19 C 31.223 19 31 19.223 31 19.5 L 31 20.5 C 31 20.777 31.223 21 31.5 21 L 44.5 21 C 44.777 21 45 20.777 45 20.5 L 45 19.5 C 45 19.223 44.777 19 44.5 19 L 31.5 19 z M 47.5 19 C 47.223 19 47 19.223 47 19.5 L 47 20.5 C 47 20.777 47.223 21 47.5 21 L 48.5 21 C 48.777 21 49 20.777 49 20.5 L 49 19.5 C 49 19.223 48.777 19 48.5 19 L 47.5 19 z "
       class="ColorScheme-Text"
       fill="currentColor" />
  </g>
</svg>
