<?xml version="1.0" encoding="UTF-8" standalone="no"?>
<svg
   id="svg17"
   viewBox="0 0 54 32"
   version="1.1"
   sodipodi:docname="keyboard.svg"
   inkscape:version="1.2.2 (b0a8486541, 2022-12-01)"
   xmlns:inkscape="http://www.inkscape.org/namespaces/inkscape"
   xmlns:sodipodi="http://sodipodi.sourceforge.net/DTD/sodipodi-0.dtd"
   xmlns="http://www.w3.org/2000/svg"
   xmlns:svg="http://www.w3.org/2000/svg"
   xmlns:rdf="http://www.w3.org/1999/02/22-rdf-syntax-ns#"
   xmlns:cc="http://creativecommons.org/ns#"
   xmlns:dc="http://purl.org/dc/elements/1.1/">
  <sodipodi:namedview
     id="namedview2559"
     pagecolor="#ffffff"
     bordercolor="#666666"
     borderopacity="1.0"
     inkscape:showpageshadow="2"
     inkscape:pageopacity="0.0"
     inkscape:pagecheckerboard="0"
     inkscape:deskcolor="#d1d1d1"
     showgrid="true"
     inkscape:zoom="10.429825"
     inkscape:cx="22.819175"
     inkscape:cy="14.381833"
     inkscape:window-width="1436"
     inkscape:window-height="463"
     inkscape:window-x="210"
     inkscape:window-y="163"
     inkscape:window-maximized="0"
     inkscape:current-layer="22-22-keyboard-layout">
    <inkscape:grid
       type="xygrid"
       id="grid2781" />
  </sodipodi:namedview>
  <metadata
     id="metadata19">
    <rdf:RDF>
      <cc:Work
         rdf:about="">
        <dc:format>image/svg+xml</dc:format>
        <dc:type
           rdf:resource="http://purl.org/dc/dcmitype/StillImage" />
        <dc:title />
      </cc:Work>
    </rdf:RDF>
  </metadata>
  <defs
     id="defs5">
    <style
       type="text/css"
       id="current-color-scheme"> .ColorScheme-Text { color:#363636; } </style>
  </defs>
  <g
     fill="currentColor"
     class="ColorScheme-Text"
     transform="translate(-16)"
     id="keyboard-layout">
    <rect
       id="rect12"
       fill="none"
       height="32"
       width="32"
       y="-5.6172e-6"
       x="38" />
    <path
       id="path14"
       d="m43 7c-1.662 0-3 1.338-3 3v12c0 1.662 1.338 3 3 3h22c1.662 0 3-1.338 3-3v-12c0-1.662-1.338-3-3-3zm0 2h22c0.554 0 1 0.446 1 1v12c0 0.554-0.446 1-1 1h-22c-0.554 0-1-0.446-1-1v-12c0-0.554 0.446-1 1-1zm0.5 2c-0.277 0-0.5 0.223-0.5 0.5s0.223 0.5 0.5 0.5h21c0.277 0 0.5-0.223 0.5-0.5s-0.223-0.5-0.5-0.5zm0.5 2c-0.554 0-1 0.446-1 1s0.446 1 1 1h0.86328c0.554 0 1-0.446 1-1s-0.446-1-1-1zm4 0c-0.554 0-1 0.446-1 1s0.446 1 1 1 1-0.446 1-1-0.446-1-1-1zm3 0c-0.554 0-1 0.446-1 1s0.446 1 1 1 1-0.446 1-1-0.446-1-1-1zm3 0c-0.554 0-1 0.446-1 1s0.446 1 1 1 1-0.446 1-1-0.446-1-1-1zm3 0c-0.554 0-1 0.446-1 1s0.446 1 1 1 1-0.446 1-1-0.446-1-1-1zm3 0c-0.554 0-1 0.446-1 1s0.446 1 1 1 1-0.446 1-1-0.446-1-1-1zm3 0c-0.554 0-1 0.446-1 1s0.446 1 1 1h0.86328c0.554 0 1-0.446 1-1s-0.446-1-1-1zm-19 3c-0.554 0-1 0.446-1 1s0.446 1 1 1 1-0.446 1-1-0.446-1-1-1zm3 0c-0.554 0-1 0.446-1 1s0.446 1 1 1 1-0.446 1-1-0.446-1-1-1zm3 0c-0.554 0-1 0.446-1 1s0.446 1 1 1 1-0.446 1-1-0.446-1-1-1zm3 0c-0.554 0-1 0.446-1 1s0.446 1 1 1 1-0.446 1-1-0.446-1-1-1zm3 0c-0.554 0-1 0.446-1 1s0.446 1 1 1 1-0.446 1-1-0.446-1-1-1zm3 0c-0.554 0-1 0.446-1 1s0.446 1 1 1 1-0.446 1-1-0.446-1-1-1zm3 0c-0.554 0-1 0.446-1 1s0.446 1 1 1h2c0.554 0 1-0.446 1-1s-0.446-1-1-1zm-18 3c-0.554 0-1 0.446-1 1s0.446 1 1 1h0.86328c0.554 0 1-0.446 1-1s-0.446-1-1-1zm4 0c-0.554 0-1 0.446-1 1s0.446 1 1 1 1-0.446 1-1-0.446-1-1-1zm3.1367 0c-0.554 0-1 0.446-1 1s0.446 1 1 1h5.8633c0.554 0 1-0.446 1-1s-0.446-1-1-1zm8.8633 0c-0.554 0-1 0.446-1 1s0.446 1 1 1 1-0.446 1-1-0.446-1-1-1zm3 0c-0.554 0-1 0.446-1 1s0.446 1 1 1h0.86328c0.554 0 1-0.446 1-1s-0.446-1-1-1z" />
  </g>
  <g
     id="22-22-keyboard-layout"
     transform="translate(-10,2)">
    <path
       class="ColorScheme-Text"
       d="m 18,14 c 1.1045,0 2,0.8955 2,2 v 1 h 2 v -1 c 0,-1.1045 0.89537,-2 2,-2 1.1045,0 2,0.8955 2,2 0,1.1045 -0.8955,2 -2,2 h -1 v 2 h 1 c 1.1045,2.5e-4 2,0.8955 2,2 0,1.1045 -0.8955,2 -2,2 -1.1045,0 -2,-0.8955 -2,-2 v -1 h -2 v 1 c 0,1.1045 -0.89537,2 -2,2 -1.1045,0 -2,-0.8955 -2,-2 0,-1.1045 0.8955,-2 2,-2 h 1 v -2 h -1 c -1.1045,0 -2,-0.8955 -2,-2 0,-1.1045 0.8955,-2 2,-2 z m 0,1 c -0.55225,0 -1,0.44775 -1,1 0,0.55213 0.44775,1 1,1 h 1 v -1 c 0,-0.55225 -0.44775,-1 -1,-1 z m 6,0 c -0.55225,0 -1,0.44775 -1,1 v 1 h 1 c 0.55225,0 1,-0.44775 1,-1 0,-0.55225 -0.44775,-1 -1,-1 z m -4,3 v 2 h 2 v -2 z m -2,3 c -0.55225,0 -1,0.44775 -1,1 0,0.55225 0.44775,1 1,1 0.55225,0 1,-0.44775 1,-1 v -1 z m 5,0 v 1 c 0,0.55225 0.44775,1 1,1 0.55225,0 1,-0.44775 1,-1 0,-0.55225 -0.44775,-1 -1,-1 z"
       fill="currentColor"
       id="path65" />
    <path
       d="M 10,8 H 32 V 30 H 10 Z"
       fill="none"
       id="path67" />
    <path
       id="rect534"
       class="ColorScheme-Text"
       d="m 16,11 c -1.661996,0 -3,1.338004 -3,3 v 10 c 0,1.661996 1.338004,3 3,3 h 10 c 1.661996,0 3,-1.338004 3,-3 V 14 c 0,-1.661996 -1.338004,-3 -3,-3 z m 0,2 h 10 c 0.553999,0 1,0.446001 1,1 v 10 c 0,0.553999 -0.446001,1 -1,1 H 16 c -0.553999,0 -1,-0.446001 -1,-1 V 14 c 0,-0.553999 0.446001,-1 1,-1 z"
       fill="currentColor" />
  </g>
</svg>
