<svg version="1.1" viewBox="0 0 32 32" xmlns="http://www.w3.org/2000/svg">
 <defs>
  <style id="current-color-scheme" type="text/css">.ColorScheme-Text { color:#363636; }</style>
 </defs>
 <g id="22-22-klipper" class="ColorScheme-Text" fill="currentColor">
  <path d="m49 5h22v22h-22z" color="#363636" fill="none"/>
  <path d="m59.949 7a2 2 0 0 0-1.9512 2h-1.998c-1.662 0-3 1.338-3 3v9c0 1.662 1.338 3 3 3h8c1.662 0 3-1.338 3-3v-9c0-1.662-1.338-3-3-3h-2.002a2 2 0 0 0-2-2 2 2 0 0 0-0.0488 0zm0.0488 1a1 1 0 0 1 1 1 1 1 0 0 1 0 2e-3 1 1 0 0 1 0 2e-3 1 1 0 0 1 0 2e-3 1 1 0 0 1 0 2e-3 1 1 0 0 1 0 2e-3 1 1 0 0 1 0 2e-3c-2e-3 0.13009-0.0275 0.25358-0.0742 0.36719a1 1 0 0 1-6e-3 0.01758 1 1 0 0 1-2e-3 0.0039c-0.0496 0.11313-0.1194 0.21613-0.20508 0.30273a1 1 0 0 1-8e-3 0.0078c-0.088 0.08707-0.19326 0.15727-0.30859 0.20703l-2e-3 2e-3a1 1 0 0 1-6e-3 2e-3c-1e-3 5.36e-4 -3e-3 0.0014-4e-3 2e-3 -0.11682 0.048736-0.24621 0.075768-0.38215 0.075768a1 1 0 0 1-2e-3 0c-0.13241-2.59e-4 -0.25746-0.02723-0.37305-0.07422a1 1 0 0 1-0.0234-0.0098c-0.11373-0.04967-0.21771-0.11902-0.30468-0.20508-6.6e-4 -6.36e-4 -3e-3 -0.0033-4e-3 -0.0039l-4e-3 -4e-3c-0.0871-0.08802-0.15727-0.19326-0.20703-0.30859-9.4e-4 -0.0022-3e-3 -0.0056-4e-3 -0.0078a1 1 0 0 1-4e-3 -0.0039c-0.04742-0.11806-0.07384-0.24677-0.07384-0.38271h-2e-3a1 1 0 0 1 1-1zm-3.998 2.5h8c0.831 0 1.5 0.669 1.5 1.5v9c0 0.831-0.669 1.5-1.5 1.5h-8c-0.831 0-1.5-0.669-1.5-1.5v-9c0-0.831 0.669-1.5 1.5-1.5z"/>
  <rect x="56.5" y="13" width="7" height="1" rx=".5" ry=".5" stroke-width="1.0378"/>
  <rect x="56.5" y="16" width="5.5" height="1" rx=".5" ry=".5" stroke-width=".91987"/>
 </g>
 <g id="klipper" class="ColorScheme-Text" fill="currentColor">
  <rect x="-2.8954e-8" y="-1e-6" width="32" height="32" color="#363636" fill="none"/>
  <path d="m16 5c-1.1046 0-2 0.89543-2 2h-4c-1.939 0-3.5 1.561-3.5 3.5v13c0 1.939 1.561 3.5 3.5 3.5h12c1.939 0 3.5-1.561 3.5-3.5v-13c0-1.939-1.561-3.5-3.5-3.5h-4c0-1.1046-0.89543-2-2-2zm0 1c0.55228 0 1 0.44772 1 1s-0.44772 1-1 1-1-0.44772-1-1 0.44772-1 1-1zm-6 2.5h12c1.108 0 2 0.892 2 2v13c0 1.108-0.892 2-2 2h-12c-1.108 0-2-0.892-2-2v-13c0-1.108 0.892-2 2-2z"/>
  <rect x="11" y="13" width="10" height="1" rx=".5" ry=".5"/>
  <rect x="11" y="18" width="8" height="1" rx=".5" ry=".5"/>
 </g>
</svg>
