<?xml version="1.0" encoding="UTF-8" standalone="no"?>
<!-- Created with Inkscape (http://www.inkscape.org/) -->
<svg xmlns:dc="http://purl.org/dc/elements/1.1/" xmlns:cc="http://creativecommons.org/ns#" xmlns:rdf="http://www.w3.org/1999/02/22-rdf-syntax-ns#" xmlns:svg="http://www.w3.org/2000/svg" xmlns="http://www.w3.org/2000/svg" xmlns:sodipodi="http://sodipodi.sourceforge.net/DTD/sodipodi-0.dtd" xmlns:inkscape="http://www.inkscape.org/namespaces/inkscape" id="svg4153" version="1.1" inkscape:version="0.91 r13725" width="22" height="22" sodipodi:docname="kteatime.svg" viewBox="0 0 22 22">
  <metadata id="metadata4159">
    <rdf:RDF>
      <cc:Work rdf:about="">
        <dc:format>image/svg+xml</dc:format>
        <dc:type rdf:resource="http://purl.org/dc/dcmitype/StillImage"/>
        <dc:title/>
      </cc:Work>
    </rdf:RDF>
  </metadata>
  <defs id="defs4157">
    <style type="text/css" id="current-color-scheme">
      .ColorScheme-Text {
        color:#31363b;
      }
      .ColorScheme-Background {
        color:#eff0f1;
      }
      .ColorScheme-Highlight {
        color:#3daee9;
      }
      .ColorScheme-ViewText {
        color:#31363b;
      }
      .ColorScheme-ViewBackground {
        color:#fcfcfc;
      }
      .ColorScheme-ViewHover {
        color:#93cee9;
      }
      .ColorScheme-ViewFocus{
        color:#3daee9;
      }
      .ColorScheme-ButtonText {
        color:#31363b;
      }
      .ColorScheme-ButtonBackground {
        color:#eff0f1;
      }
      .ColorScheme-ButtonHover {
        color:#93cee9;
      }
      .ColorScheme-ButtonFocus{
        color:#3daee9;
      }
      </style>
  </defs>
  <sodipodi:namedview pagecolor="#363636" bordercolor="#666666" borderopacity="1" objecttolerance="10" gridtolerance="10000" guidetolerance="10" inkscape:pageopacity="0" inkscape:pageshadow="2" inkscape:window-width="2560" inkscape:window-height="1027" id="namedview4155" inkscape:document-units="px" showgrid="true" inkscape:showpageshadow="false" borderlayer="true" inkscape:zoom="30.341309" inkscape:cx="12.577022" inkscape:cy="9.1339781" inkscape:window-x="-8" inkscape:window-y="-8" inkscape:window-maximized="1" inkscape:current-layer="svg4153">
    <inkscape:grid type="xygrid" id="grid4140"/>
    <sodipodi:guide position="0,22" orientation="22,0" id="guide4146"/>
    <sodipodi:guide position="0,0" orientation="0,22" id="guide4148"/>
    <sodipodi:guide position="22,0" orientation="-22,0" id="guide4150"/>
    <sodipodi:guide position="22,22" orientation="0,-22" id="guide4152"/>
    <sodipodi:guide position="3,19" orientation="16,0" id="guide4154"/>
    <sodipodi:guide position="18,3" orientation="0,16" id="guide4156"/>
    <sodipodi:guide position="19,3" orientation="-16,0" id="guide4158"/>
    <sodipodi:guide position="19,19" orientation="0,-16" id="guide4160"/>
  </sodipodi:namedview>
  <inkscape:clipboard style="opacity:0.01000001;fill:#00000f;fill-opacity:0;stroke-width:1;stroke-linecap:butt;stroke-linejoin:miter;stroke-miterlimit:4;stroke-dasharray:none;stroke-dashoffset:0;stroke-opacity:1;stroke:none" min="0,0" max="22,22"/>
  <g id="kteatime">
    <rect y="1.2212453e-015" x="1.2212453e-015" height="22" width="22" id="rect3825" style="fill:#566060;fill-opacity:0;stroke:none"/>
    <path inkscape:connector-curvature="0" style="opacity:1;fill:currentColor;fill-opacity:1;stroke:none" d="m 10,2 0,2 1,0 0,-2 -1,0 z M 7,3 7,4 8,4 8,3 7,3 Z m 6,0 0,1 1,0 0,-1 -1,0 z m -8,2 0,12 12,0 0,-3 1,0 c 1.108,0 2,-0.892 2,-2 L 20,8 C 20,6.892 19.108,6 18,6 L 17,6 17,5 5,5 Z M 6,6 9,6 9,7 8,7 C 7.446,7 7,7.446 7,8 l 0,5 c 0,0.554 0.446,1 1,1 l 3,0 c 0.554,0 1,-0.446 1,-1 L 12,8 C 12,7.446 11.554,7 11,7 L 10,7 10,6 16,6 16,16 6,16 6,6 Z m 11,1 1,0 c 0.554,0 1,0.446 1,1 l 0,4 c 0,0.554 -0.446,1 -1,1 l -1,0 0,-6 z m -9,2 3,0 0,4 -3,0 0,-4 z m -5,9 0,1 16,0 0,-1 -16,0 z" id="rect4168" class="ColorScheme-Text"/>
  </g>
</svg>
