<?xml version="1.0" encoding="UTF-8" standalone="no"?>
<svg
   width="22"
   height="22"
   sodipodi:docname="kteatime.svg"
   viewBox="0 0 22 22"
   version="1.1"
   id="svg550"
   inkscape:version="1.2.2 (b0a8486541, 2022-12-01)"
   xmlns:inkscape="http://www.inkscape.org/namespaces/inkscape"
   xmlns:sodipodi="http://sodipodi.sourceforge.net/DTD/sodipodi-0.dtd"
   xmlns="http://www.w3.org/2000/svg"
   xmlns:svg="http://www.w3.org/2000/svg">
  <defs
     id="defs4157">
    <style
       type="text/css"
       id="current-color-scheme">
      .ColorScheme-Text {
        color:#31363b;
      }
      .ColorScheme-Background {
        color:#eff0f1;
      }
      .ColorScheme-Highlight {
        color:#3daee9;
      }
      .ColorScheme-ViewText {
        color:#31363b;
      }
      .ColorScheme-ViewBackground {
        color:#fcfcfc;
      }
      .ColorScheme-ViewHover {
        color:#93cee9;
      }
      .ColorScheme-ViewFocus{
        color:#3daee9;
      }
      .ColorScheme-ButtonText {
        color:#31363b;
      }
      .ColorScheme-ButtonBackground {
        color:#eff0f1;
      }
      .ColorScheme-ButtonHover {
        color:#93cee9;
      }
      .ColorScheme-ButtonFocus{
        color:#3daee9;
      }
      </style>
  </defs>
  <sodipodi:namedview
     pagecolor="#ffffff"
     bordercolor="#666666"
     borderopacity="1"
     objecttolerance="10"
     gridtolerance="10000"
     guidetolerance="10"
     inkscape:pageopacity="0"
     inkscape:pageshadow="2"
     inkscape:window-width="1368"
     inkscape:window-height="700"
     id="namedview4155"
     inkscape:document-units="px"
     showgrid="false"
     inkscape:showpageshadow="false"
     borderlayer="true"
     inkscape:zoom="15.170655"
     inkscape:cx="13.677722"
     inkscape:cy="12.886722"
     inkscape:window-x="0"
     inkscape:window-y="32"
     inkscape:window-maximized="1"
     inkscape:current-layer="svg550"
     inkscape:pagecheckerboard="0"
     inkscape:deskcolor="#d4d4d4">
    <inkscape:grid
       type="xygrid"
       id="grid4140" />
  </sodipodi:namedview>
  <g
     id="kteatime">
    <rect
       y="1.2212453e-015"
       x="1.2212453e-015"
       height="22"
       width="22"
       id="rect3825"
       style="fill:#566060;fill-opacity:0;stroke:none" />
    <path
       style="opacity:1;fill:currentColor;fill-opacity:1;stroke:none"
       d="m 10,2 0,2 1,0 0,-2 -1,0 z M 7,3 7,4 8,4 8,3 7,3 Z m 6,0 0,1 1,0 0,-1 -1,0 z m -8,2 0,12 12,0 0,-3 1,0 c 1.108,0 2,-0.892 2,-2 L 20,8 C 20,6.892 19.108,6 18,6 L 17,6 17,5 5,5 Z M 6,6 9,6 9,7 8,7 C 7.446,7 7,7.446 7,8 l 0,5 c 0,0.554 0.446,1 1,1 l 3,0 c 0.554,0 1,-0.446 1,-1 L 12,8 C 12,7.446 11.554,7 11,7 L 10,7 10,6 16,6 16,16 6,16 6,6 Z m 11,1 1,0 c 0.554,0 1,0.446 1,1 l 0,4 c 0,0.554 -0.446,1 -1,1 l -1,0 0,-6 z m -9,2 3,0 0,4 -3,0 0,-4 z m -5,9 0,1 16,0 0,-1 -16,0 z"
       id="rect4168"
       class="ColorScheme-Text" />
  </g>
</svg>
