<?xml version="1.0" encoding="UTF-8" standalone="no"?>
<svg
   id="svg"
   width="22"
   height="22"
   version="1.1"
   sodipodi:docname="manjaro.svg"
   inkscape:version="1.2.2 (b0a8486541, 2022-12-01)"
   xmlns:inkscape="http://www.inkscape.org/namespaces/inkscape"
   xmlns:sodipodi="http://sodipodi.sourceforge.net/DTD/sodipodi-0.dtd"
   xmlns="http://www.w3.org/2000/svg"
   xmlns:svg="http://www.w3.org/2000/svg">
  <sodipodi:namedview
     id="namedview259"
     pagecolor="#ffffff"
     bordercolor="#666666"
     borderopacity="1.0"
     inkscape:showpageshadow="2"
     inkscape:pageopacity="0.0"
     inkscape:pagecheckerboard="0"
     inkscape:deskcolor="#d1d1d1"
     showgrid="true"
     inkscape:zoom="21.454546"
     inkscape:cx="17.991525"
     inkscape:cy="-27.849576"
     inkscape:window-width="3840"
     inkscape:window-height="2028"
     inkscape:window-x="0"
     inkscape:window-y="64"
     inkscape:window-maximized="1"
     inkscape:current-layer="svg">
    <inkscape:grid
       type="xygrid"
       id="grid261" />
  </sodipodi:namedview>
  <defs
     id="defs241">
    <style
       id="current-color-scheme"
       type="text/css">.ColorScheme-Text { color:#363636; }</style>
  </defs>
  <g
     id="22-22-manjaro-settings-manager"
     class="ColorScheme-Text"
     fill="currentColor">
    <rect
       width="22"
       height="22"
       fill-opacity="0"
       id="rect243" />
    <path
       d="M 6,3 C 4.338,3 3,4.338 3,6 v 10 c 0,1.662 1.338,3 3,3 H 8 V 7 h 5 V 3 Z m 8,0 v 16 h 2 c 1.662,0 3,-1.338 3,-3 V 6 C 19,4.338 17.662,3 16,3 Z M 9,8 v 11 h 4 V 8 Z"
       id="path245"
       sodipodi:nodetypes="ssssccccsccsssscccccc" />
  </g>
  <g
     id="manjaro-settings-manager"
     class="ColorScheme-Text"
     fill="currentColor">
    <path
       id="path248"
       d="M 5.3333333,-33 C 3.4866686,-33 2,-31.513331 2,-29.666667 v 13.333334 C 2,-14.486669 3.4866686,-13 5.3333333,-13 H 7.5555556 V -27.444444 H 15 V -33 Z m 11.1111107,0 v 20 h 2.222223 C 20.513331,-13 22,-14.486669 22,-16.333333 V -29.666667 C 22,-31.513331 20.513331,-33 18.666667,-33 Z M 9,-26 v 13 l 6,0 v -13 z"
       sodipodi:nodetypes="ssssccccsccsssscccccc"
       style="stroke-width:1.11111" />
    <rect
       x="-4"
       y="-39"
       width="32"
       height="32"
       ry=".64"
       fill-opacity="0"
       id="rect250" />
  </g>
  <g
     id="16-16-manjaro-settings-manager"
     class="ColorScheme-Text"
     transform="translate(-299 -510.36)"
     fill="currentColor">
    <rect
       x="303"
       y="537.36"
       width="16"
       height="16"
       fill="none"
       id="rect253" />
    <path
       transform="translate(299 510.36)"
       d="m8 29c-1.108 0-2 0.892-2 2v8c0 1.108 0.892 2 2 2h1v-9h5v-3h-6zm7 0v12h1c1.108 0 2-0.892 2-2v-8c0-1.108-0.892-2-2-2h-1zm-5 4v8h4v-8h-4z"
       id="path255" />
  </g>
</svg>
