<?xml version="1.0" encoding="UTF-8" standalone="no"?>
<svg
   width="76"
   height="32"
   version="1.1"
   viewBox="0 0 20.108389 8.4667"
   id="svg53"
   sodipodi:docname="media.svg"
   inkscape:version="1.2.2 (b0a8486541, 2022-12-01)"
   xmlns:inkscape="http://www.inkscape.org/namespaces/inkscape"
   xmlns:sodipodi="http://sodipodi.sourceforge.net/DTD/sodipodi-0.dtd"
   xmlns:xlink="http://www.w3.org/1999/xlink"
   xmlns="http://www.w3.org/2000/svg"
   xmlns:svg="http://www.w3.org/2000/svg"
   xmlns:rdf="http://www.w3.org/1999/02/22-rdf-syntax-ns#"
   xmlns:cc="http://creativecommons.org/ns#"
   xmlns:dc="http://purl.org/dc/elements/1.1/">
  <sodipodi:namedview
     id="namedview36"
     pagecolor="#ffffff"
     bordercolor="#000000"
     borderopacity="0.25"
     inkscape:showpageshadow="2"
     inkscape:pageopacity="0.0"
     inkscape:pagecheckerboard="0"
     inkscape:deskcolor="#d1d1d1"
     showgrid="false"
     inkscape:zoom="1.84375"
     inkscape:cx="160.81356"
     inkscape:cy="-45.830509"
     inkscape:window-width="1368"
     inkscape:window-height="692"
     inkscape:window-x="0"
     inkscape:window-y="0"
     inkscape:window-maximized="1"
     inkscape:current-layer="svg53" />
  <metadata
     id="metadata57">
    <rdf:RDF>
      <cc:Work
         rdf:about="">
        <dc:format>image/svg+xml</dc:format>
        <dc:type
           rdf:resource="http://purl.org/dc/dcmitype/StillImage" />
        <dc:title />
      </cc:Work>
    </rdf:RDF>
  </metadata>
  <defs
     id="defs3">
    <style
       type="text/css"
       id="current-color-scheme">.ColorScheme-Text { color:#363636; } </style>
  </defs>
  <g
     id="22-22-media-playback-paused"
     transform="matrix(0.26458,0,0,0.26458,0.52914934,1.3229139)">
    <rect
       x="0.00021085"
       y="3.0110999e-05"
       width="22"
       height="22"
       fill-opacity="0"
       id="rect5" />
    <path
       class="ColorScheme-Text"
       d="m 10.99,2 a 9,9 0 0 0 -8.9902,9 9,9 0 0 0 9,9 9,9 0 0 0 9,-9 9,9 0 0 0 -9,-9 9,9 0 0 0 -0.0098,0 z m -0.08398,2 a 7,7 0 0 1 0.09375,0 7,7 0 0 1 7,7 7,7 0 0 1 -7,7 7,7 0 0 1 -7,-7 7,7 0 0 1 6.9062,-7 z m -1.9062,4 c -0.554,0 -1,0.446 -1,1 v 4 c 0,0.554 0.446,1 1,1 0.554,0 1,-0.446 1,-1 V 9 c 0,-0.554 -0.446,-1 -1,-1 z m 4,0 c -0.554,0 -1,0.446 -1,1 v 4 c 0,0.554 0.446,1 1,1 0.554,0 1,-0.446 1,-1 V 9 c 0,-0.554 -0.446,-1 -1,-1 z"
       fill="currentColor"
       id="path7" />
  </g>
  <g
     id="22-22-media-playback-playing"
     transform="matrix(0.26458,0,0,0.26458,7.0776124,7.4082619)">
    <rect
       x="0.00021085"
       y="-23"
       width="22"
       height="22"
       fill-opacity="0"
       id="rect10" />
    <path
       class="ColorScheme-Text"
       transform="translate(-25.002,-23)"
       d="m 35.992,2 a 9,9 0 0 0 -8.9902,9 9,9 0 0 0 9,9 9,9 0 0 0 9,-9 9,9 0 0 0 -9,-9 9,9 0 0 0 -0.0098,0 z m -0.08594,2 a 7,7 0 0 1 0.002,0 7,7 0 0 1 0.09375,0 7,7 0 0 1 7,7 7,7 0 0 1 -7,7 7,7 0 0 1 -7,-7 7,7 0 0 1 6.9043,-7 z m -1.3477,3.8027 C 34.39739,7.82265 34.26379,7.892585 34.15602,8.01364 34.04826,8.1347 33.99391,8.27712 33.99391,8.43942 v 5.1211 c 0,0.1623 0.05436,0.30472 0.16211,0.42578 0.10776,0.12106 0.24138,0.19098 0.40234,0.21094 0.16097,0.01996 0.30705,-0.01563 0.44141,-0.10742 l 3.7148,-2.5605 c 0.1184,-0.08115 0.20087,-0.19181 0.24609,-0.32617 0.04524,-0.13569 0.04524,-0.26992 0,-0.4043 -0.04524,-0.13436 -0.12706,-0.2437 -0.24414,-0.32617 l -3.7168,-2.5625 C 34.8658,7.817058 34.71884,7.78236 34.55831,7.80276 Z"
       fill="currentColor"
       id="path12" />
  </g>
  <g
     id="22-22-media-playback-stopped"
     transform="matrix(0.26458,0,0,0.26458,0.92629185,8.2020019)">
    <rect
       x="48"
       y="-26"
       width="22"
       height="22"
       fill-opacity="0"
       id="rect15" />
    <path
       class="ColorScheme-Text"
       transform="translate(0,-26)"
       d="m 58.99,2 a 9,9 0 0 0 -8.9902,9 9,9 0 0 0 9,9 9,9 0 0 0 9,-9 9,9 0 0 0 -9,-9 9,9 0 0 0 -0.0098,0 z m -0.08594,2 a 7,7 0 0 1 0.002,0 7,7 0 0 1 0.09371,0 7,7 0 0 1 7,7 7,7 0 0 1 -7,7 7,7 0 0 1 -7,-7 7,7 0 0 1 6.9043,-7 z m -1.9043,4 c -0.554,0 -1,0.446 -1,1 v 4 c 0,0.554 0.446,1 1,1 h 4 c 0.554,0 1,-0.446 1,-1 V 9 c 0,-0.554 -0.446,-1 -1,-1 z"
       fill="currentColor"
       id="path17" />
  </g>
  <g
     id="22-22-media-record"
     transform="matrix(0.26458,0,0,0.26458,0.86025506,1.3229103)">
    <rect
       x="73"
       y="4.3869e-05"
       width="22"
       height="22"
       fill-opacity="0"
       id="rect20" />
    <path
       class="ColorScheme-Text"
       d="m 83.99,2 a 9,9 0 0 0 -8.9902,9 9,9 0 0 0 9,9 9,9 0 0 0 9,-9 9,9 0 0 0 -9,-9 9,9 0 0 0 -0.0098,0 z m -0.08594,2 a 7,7 0 0 1 0.002,0 7,7 0 0 1 0.09371,0 7,7 0 0 1 7,7 7,7 0 0 1 -7,7 7,7 0 0 1 -7,-7 7,7 0 0 1 6.9043,-7 z m 0.03516,3 a 4,4 0 0 0 -3.9395,4 4,4 0 0 0 4,4 4,4 0 0 0 4,-4 4,4 0 0 0 -4,-4 4,4 0 0 0 -0.06055,0 z"
       fill="currentColor"
       id="path22" />
  </g>
  <g
     id="22-22-media-seek-forward"
     transform="matrix(0.26458,0,0,0.26458,33.271468,7.4082619)">
    <rect
       x="0.00021085"
       y="-23"
       width="22"
       height="22"
       fill-opacity="0"
       id="rect25" />
    <path
       class="ColorScheme-Text"
       transform="translate(-123,-23)"
       d="m 133.99,2 a 9,9 0 0 0 -8.9902,9 9,9 0 0 0 9,9 9,9 0 0 0 9,-9 9,9 0 0 0 -9,-9 9,9 0 0 0 -0.01,0 z m -0.0859,2 a 7,7 0 0 1 0.002,0 7,7 0 0 1 0.0937,0 7,7 0 0 1 7,7 7,7 0 0 1 -7,7 7,7 0 0 1 -7,-7 7,7 0 0 1 6.9043,-7 z m -3.3418,3.8027 c -0.16096,0.01995 -0.29457,0.089885 -0.40234,0.21094 -0.10776,0.12106 -0.16211,0.26348 -0.16211,0.42578 v 5.1211 c 0,0.1623 0.0544,0.30472 0.16211,0.42578 0.10776,0.12106 0.24138,0.19098 0.40234,0.21094 0.16097,0.01996 0.30705,-0.01563 0.44141,-0.10742 l 2.9941,-2.0645 v 1.5352 c 0,0.1623 0.0543,0.30472 0.16211,0.42578 0.10776,0.12106 0.24138,0.19098 0.40234,0.21094 0.16097,0.01996 0.30705,-0.01563 0.44141,-0.10742 l 3.7148,-2.5605 c 0.1184,-0.08115 0.20088,-0.19181 0.2461,-0.32617 0.0452,-0.13569 0.0452,-0.26992 0,-0.4043 -0.0452,-0.13436 -0.12707,-0.2437 -0.24414,-0.32617 l -3.7168,-2.5625 c -0.13392,-0.093122 -0.28088,-0.12782 -0.44141,-0.10742 -0.16096,0.01995 -0.29457,0.089885 -0.40234,0.21094 -0.10775,0.12106 -0.16211,0.26348 -0.16211,0.42578 v 1.5352 l -2.9941,-2.0645 c -0.13392,-0.093122 -0.28088,-0.12782 -0.44141,-0.10742 z"
       fill="currentColor"
       id="path27" />
  </g>
  <g
     id="22-22-media-seek-backward"
     transform="matrix(-0.26458,0,0,0.26458,32.543874,7.4082619)">
    <rect
       x="0.00021085"
       y="-23"
       width="22"
       height="22"
       fill-opacity="0"
       id="rect30" />
    <path
       class="ColorScheme-Text"
       transform="matrix(-1,0,0,1,120,-23)"
       d="m 109,2 a 9,9 0 0 0 -9,9 9,9 0 0 0 9,9 9,9 0 0 0 9,-9 9,9 0 0 0 -8.9902,-9 9,9 0 0 0 -0.01,0 z m 0,2 a 7,7 0 0 1 0.0937,0 7,7 0 0 1 6.9062,7 7,7 0 0 1 -7,7 7,7 0 0 1 -7,-7 7,7 0 0 1 7,-7 z m -0.5625,3.8027 c -0.16052,-0.020399 -0.30748,0.0143 -0.4414,0.10742 l -3.7168,2.5625 c -0.11708,0.08247 -0.1989,0.19181 -0.24414,0.32617 -0.0452,0.13438 -0.0452,0.2686 0,0.4043 0.0452,0.13436 0.12769,0.24502 0.24609,0.32617 l 3.7148,2.5605 c 0.13435,0.0918 0.28044,0.12738 0.4414,0.10742 0.16097,-0.01996 0.29459,-0.08988 0.40235,-0.21094 0.10775,-0.12106 0.16211,-0.26348 0.16211,-0.42578 v -1.5352 l 2.9941,2.0645 c 0.13435,0.0918 0.28044,0.12738 0.4414,0.10742 0.16097,-0.01996 0.29459,-0.08988 0.40235,-0.21094 0.10775,-0.12106 0.16211,-0.26348 0.16211,-0.42578 v -5.1211 c 0,-0.1623 -0.0544,-0.30472 -0.16211,-0.42578 -0.10777,-0.12105 -0.24138,-0.19099 -0.40235,-0.21094 -0.16052,-0.020399 -0.30748,0.0143 -0.4414,0.10742 l -2.9941,2.0645 v -1.5352 c 0,-0.1623 -0.0544,-0.30472 -0.16211,-0.42578 -0.10777,-0.12105 -0.24138,-0.19099 -0.40235,-0.21094 z"
       fill="currentColor"
       id="path32" />
  </g>
  <g
     id="22-22-media-skip-forward"
     transform="matrix(0.26458,0,0,0.26458,1.3898478,1.3229138)">
    <rect
       x="170"
       y="3.0518e-05"
       width="22"
       height="22"
       fill-opacity="0"
       id="rect35" />
    <path
       class="ColorScheme-Text"
       d="m 180.99,2 a 9,9 0 0 0 -8.9902,9 9,9 0 0 0 9,9 9,9 0 0 0 9,-9 9,9 0 0 0 -9,-9 9,9 0 0 0 -0.01,0 z m -0.0859,2 a 7,7 0 0 1 0.002,0 7,7 0 0 1 0.0937,0 7,7 0 0 1 7,7 7,7 0 0 1 -7,7 7,7 0 0 1 -7,-7 7,7 0 0 1 6.9043,-7 z m -3.3418,3.8027 c -0.16097,0.01995 -0.29457,0.089885 -0.40234,0.21094 -0.1078,0.12106 -0.16215,0.26348 -0.16215,0.42578 v 5.1211 c 0,0.1623 0.0543,0.30472 0.16211,0.42578 0.10775,0.12106 0.24137,0.19098 0.40234,0.21094 0.16097,0.01996 0.30705,-0.01563 0.44141,-0.10742 l 3.7148,-2.5605 c 0.1184,-0.08115 0.20088,-0.19181 0.2461,-0.32617 0.0452,-0.13569 0.0452,-0.26992 0,-0.4043 -0.0452,-0.13436 -0.12706,-0.2437 -0.24414,-0.32617 l -3.7168,-2.5625 c -0.13392,-0.093122 -0.28089,-0.12782 -0.44141,-0.10742 z m 6.4355,0.19727 c -0.554,0 -1,0.446 -1,1 v 4 c 0,0.554 0.446,1 1,1 0.554,0 1,-0.446 1,-1 v -4 c 0,-0.554 -0.446,-1 -1,-1 z"
       fill="currentColor"
       id="path37" />
  </g>
  <g
     id="22-22-media-skip-backward"
     transform="matrix(-0.26458,0,0,0.26458,90.619345,1.3229138)">
    <rect
       x="170"
       y="3.0518e-05"
       width="22"
       height="22"
       fill-opacity="0"
       id="rect40" />
    <path
       class="ColorScheme-Text"
       transform="matrix(-1,0,0,1,339,0)"
       d="m 158,2 a 9,9 0 0 0 -9,9 9,9 0 0 0 9,9 9,9 0 0 0 9,-9 9,9 0 0 0 -8.9902,-9 9,9 0 0 0 -0.01,0 z m 0,2 a 7,7 0 0 1 0.0937,0 7,7 0 0 1 6.9062,7 7,7 0 0 1 -7,7 7,7 0 0 1 -7,-7 7,7 0 0 1 7,-7 z m 3.4375,3.8027 c -0.16052,-0.020399 -0.30748,0.0143 -0.4414,0.10742 l -3.7168,2.5625 c -0.11708,0.08247 -0.19894,0.19181 -0.24414,0.32617 -0.0452,0.13438 -0.0452,0.2686 0,0.4043 0.0452,0.13436 0.12769,0.24502 0.24609,0.32617 l 3.7148,2.5605 c 0.13436,0.0918 0.28043,0.12738 0.4414,0.10742 0.16097,-0.01996 0.2946,-0.08988 0.40235,-0.21094 0.1078,-0.12106 0.16211,-0.26348 0.16211,-0.42578 v -5.1211 c 0,-0.1623 -0.0543,-0.30472 -0.16211,-0.42578 -0.10777,-0.12105 -0.24138,-0.19099 -0.40235,-0.21094 z m -6.4355,0.19727 c -0.554,0 -1,0.446 -1,1 v 4 c 0,0.554 0.446,1 1,1 0.554,0 1,-0.446 1,-1 v -4 c 0,-0.554 -0.446,-1 -1,-1 z"
       fill="currentColor"
       id="path42" />
  </g>
  <g
     id="22-22-media-eject"
     transform="matrix(0,-0.26458,0.26458,0,52.916903,52.122282)">
    <rect
       x="170"
       y="3.0518e-05"
       width="22"
       height="22"
       fill-opacity="0"
       id="rect45" />
    <path
       class="ColorScheme-Text"
       transform="rotate(90,194.5,-2.4991)"
       d="m 208,2 a 9,9 0 0 0 -9,9 9,9 0 0 0 0,0.0098 9,9 0 0 0 9,8.9902 9,9 0 0 0 9,-9 9,9 0 0 0 -9,-9 z m -0.0937,2 A 7,7 0 0 1 208,4 a 7,7 0 0 1 7,7 7,7 0 0 1 -7,7 7,7 0 0 1 -7,-6.9062 7,7 0 0 1 0,-0.09375 7,7 0 0 1 6.9062,-7 z M 208,5.7559 c -0.0845,0 -0.16806,0.014769 -0.25195,0.042969 -0.16777,0.0564 -0.30328,0.15849 -0.40625,0.30469 l -3.1992,4.6406 c -0.11628,0.16722 -0.16024,0.35035 -0.13477,0.55078 0.0249,0.201 0.11252,0.36738 0.26367,0.50195 0.15116,0.13456 0.3286,0.20312 0.53125,0.20312 h 6.3945 c 0.20265,0 0.38008,-0.06846 0.53125,-0.20312 0.15116,-0.13454 0.2407,-0.30095 0.26562,-0.50195 0.0249,-0.20099 -0.0221,-0.38301 -0.13672,-0.55078 l -3.1973,-4.6387 c -0.10133,-0.14784 -0.23848,-0.25018 -0.40625,-0.30664 -0.0847,-0.0282 -0.1694,-0.042969 -0.25391,-0.042969 z M 205,13 c -0.55398,0 -1,0.446 -1,1 0,0.554 0.44602,1 1,1 h 6 c 0.55398,0 1,-0.446 1,-1 0,-0.554 -0.44602,-1 -1,-1 z"
       fill="currentColor"
       id="path47" />
  </g>
  <g
     id="22-22-media-playback-pause"
     transform="matrix(0.26458,0,0,0.26458,0.79373371,10.583367)">
    <rect
       x="0.00021085"
       y="3.0110999e-05"
       width="22"
       height="22"
       fill-opacity="0"
       id="rect1018" />
    <path
       class="ColorScheme-Text"
       d="m 10.99,2 a 9,9 0 0 0 -8.9902,9 9,9 0 0 0 9,9 9,9 0 0 0 9,-9 9,9 0 0 0 -9,-9 9,9 0 0 0 -0.0098,0 z m -0.08398,2 a 7,7 0 0 1 0.09375,0 7,7 0 0 1 7,7 7,7 0 0 1 -7,7 7,7 0 0 1 -7,-7 7,7 0 0 1 6.9062,-7 z m -1.9062,4 c -0.554,0 -1,0.446 -1,1 v 4 c 0,0.554 0.446,1 1,1 0.554,0 1,-0.446 1,-1 V 9 c 0,-0.554 -0.446,-1 -1,-1 z m 4,0 c -0.554,0 -1,0.446 -1,1 v 4 c 0,0.554 0.446,1 1,1 0.554,0 1,-0.446 1,-1 V 9 c 0,-0.554 -0.446,-1 -1,-1 z"
       fill="currentColor"
       id="path1020" />
  </g>
  <g
     id="22-22-media-playback-start"
     transform="matrix(0.26458,0,0,0.26458,7.1436258,16.668715)">
    <rect
       x="0.00021085"
       y="-23"
       width="22"
       height="22"
       fill-opacity="0"
       id="rect1012" />
    <path
       class="ColorScheme-Text"
       transform="translate(-25.002,-23)"
       d="m 35.992,2 a 9,9 0 0 0 -8.9902,9 9,9 0 0 0 9,9 9,9 0 0 0 9,-9 9,9 0 0 0 -9,-9 9,9 0 0 0 -0.0098,0 z m -0.08594,2 a 7,7 0 0 1 0.002,0 7,7 0 0 1 0.09375,0 7,7 0 0 1 7,7 7,7 0 0 1 -7,7 7,7 0 0 1 -7,-7 7,7 0 0 1 6.9043,-7 z m -1.3477,3.8027 C 34.39739,7.82265 34.26379,7.892585 34.15602,8.01364 34.04826,8.1347 33.99391,8.27712 33.99391,8.43942 v 5.1211 c 0,0.1623 0.05436,0.30472 0.16211,0.42578 0.10776,0.12106 0.24138,0.19098 0.40234,0.21094 0.16097,0.01996 0.30705,-0.01563 0.44141,-0.10742 l 3.7148,-2.5605 c 0.1184,-0.08115 0.20087,-0.19181 0.24609,-0.32617 0.04524,-0.13569 0.04524,-0.26992 0,-0.4043 -0.04524,-0.13436 -0.12706,-0.2437 -0.24414,-0.32617 l -3.7168,-2.5625 C 34.8658,7.817058 34.71884,7.78236 34.55831,7.80276 Z"
       fill="currentColor"
       id="path1014" />
  </g>
  <g
     id="22-22-media-playback-stop"
     transform="matrix(0.26458,0,0,0.26458,0.79373372,17.462455)">
    <rect
       x="48"
       y="-26"
       width="22"
       height="22"
       fill-opacity="0"
       id="rect1006" />
    <path
       class="ColorScheme-Text"
       transform="translate(0,-26)"
       d="m 58.99,2 a 9,9 0 0 0 -8.9902,9 9,9 0 0 0 9,9 9,9 0 0 0 9,-9 9,9 0 0 0 -9,-9 9,9 0 0 0 -0.0098,0 z m -0.08594,2 a 7,7 0 0 1 0.002,0 7,7 0 0 1 0.09371,0 7,7 0 0 1 7,7 7,7 0 0 1 -7,7 7,7 0 0 1 -7,-7 7,7 0 0 1 6.9043,-7 z m -1.9043,4 c -0.554,0 -1,0.446 -1,1 v 4 c 0,0.554 0.446,1 1,1 h 4 c 0.554,0 1,-0.446 1,-1 V 9 c 0,-0.554 -0.446,-1 -1,-1 z"
       fill="currentColor"
       id="path1008" />
  </g>
  <g
     id="media-playback-paused"
     transform="matrix(0.26458437,0,0,0.26458437,-31.887536,-47.716777)">
    <rect
       id="rect4420"
       width="32"
       height="32"
       x="-25"
       y="122"
       rx="0"
       ry="0"
       style="fill:none" />
    <path
       id="rect2469"
       d="m -9,124 a 14,14 0 0 0 -14,14 14,14 0 0 0 14,14 14,14 0 0 0 14,-14 14,14 0 0 0 -14,-14 z m 0,2 a 12,12 0 0 1 12,12 12,12 0 0 1 -12,12 12,12 0 0 1 -12,-12 12,12 0 0 1 12,-12 z m -4,6 c -0.554,0 -1,0.446 -1,1 v 10 c 0,0.554 0.446,1 1,1 0.554,0 1,-0.446 1,-1 v -10 c 0,-0.554 -0.446,-1 -1,-1 z m 8,0 c -0.554,0 -1,0.446 -1,1 v 10 c 0,0.554 0.446,1 1,1 0.554,0 1,-0.446 1,-1 v -10 c 0,-0.554 -0.446,-1 -1,-1 z"
       class="ColorScheme-Text"
       fill="currentColor" />
  </g>
  <g
     id="media-playback-playing"
     transform="matrix(0.26458437,0,0,0.26458437,-32.152121,-47.716777)">
    <rect
       id="rect4637"
       width="32"
       height="32"
       x="23"
       y="122"
       rx="0"
       ry="0"
       style="fill:none" />
    <path
       id="path3205"
       d="m 39,124 a 14,14 0 0 0 -14,14 14,14 0 0 0 14,14 14,14 0 0 0 14,-14 14,14 0 0 0 -14,-14 z m 0,2 a 12,12 0 0 1 12,12 12,12 0 0 1 -12,12 12,12 0 0 1 -12,-12 12,12 0 0 1 12,-12 z m -2.689453,6.00586 c -0.393665,-0.003 -0.78689,0.0922 -1.138672,0.28516 -0.712336,0.3916 -1.170689,1.14235 -1.171875,1.96093 v 7.50391 c 0.0013,1.71822 1.972802,2.79455 3.449219,1.93555 l 6.429687,-3.75196 h 0.002 c 1.437166,-0.83889 1.437156,-3.03218 0,-3.87109 h -0.002 l -6.429687,-3.75195 h -0.002 c -0.346065,-0.20018 -0.7374,-0.30686 -1.136719,-0.31055 z m -0.01953,2 c 0.0554,5.1e-4 0.109639,0.0152 0.154296,0.041 l 6.425782,3.75 c 0.223765,0.13202 0.225867,0.28417 0,0.41601 l -6.427735,3.75 c -0.237241,0.13805 -0.44319,0.0143 -0.44336,-0.20896 v -7.49805 -0.002 c 6.5e-4,-0.0809 0.04181,-0.15984 0.134766,-0.21094 0.04316,-0.0233 0.09695,-0.0376 0.15625,-0.0371 z"
       class="ColorScheme-Text"
       fill="currentColor" />
  </g>
  <g
     id="media-playback-stopped"
     transform="matrix(0.26458437,0,0,0.26458437,-31.887536,-47.716777)">
    <rect
       id="rect4639"
       width="32"
       height="32"
       x="73"
       y="122"
       rx="0"
       ry="0"
       style="fill:none" />
    <path
       id="path3967"
       d="m 89,124 a 14,14 0 0 0 -14,14 14,14 0 0 0 14,14 14,14 0 0 0 14,-14 14,14 0 0 0 -14,-14 z m 0,2 a 12,12 0 0 1 12,12 12,12 0 0 1 -12,12 12,12 0 0 1 -12,-12 12,12 0 0 1 12,-12 z m -3,6 c -1.662,0 -3,1.338 -3,3 v 6 c 0,1.662 1.338,3 3,3 h 6 c 1.662,0 3,-1.338 3,-3 v -6 c 0,-1.662 -1.338,-3 -3,-3 z m 0,2 h 6 c 0.554,0 1,0.446 1,1 v 6 c 0,0.554 -0.446,1 -1,1 h -6 c -0.554,0 -1,-0.446 -1,-1 v -6 c 0,-0.554 0.446,-1 1,-1 z"
       class="ColorScheme-Text"
       fill="currentColor" />
  </g>
  <use
     x="0"
     y="0"
     xlink:href="#media-playback-paused"
     id="media-playback-pause"
     transform="translate(44.362269)"
     width="100%"
     height="100%" />
  <use
     x="0"
     y="0"
     xlink:href="#media-playback-playing"
     id="media-playback-start"
     transform="translate(44.450174)"
     width="100%"
     height="100%" />
  <use
     x="0"
     y="0"
     xlink:href="#media-playback-stopped"
     id="media-playback-stop"
     transform="translate(44.362269)"
     width="100%"
     height="100%" />
  <g
     id="media-record"
     transform="matrix(0.26458437,0,0,0.26458437,-26.06668,-24.168768)">
    <rect
       id="rect5296"
       width="32"
       height="32"
       x="270.66776"
       y="33"
       rx="0"
       ry="0"
       style="fill:none" />
    <path
       id="path5298"
       d="m 286,35 c -7.73199,0 -14,6.268014 -14,14 0,7.731986 6.26801,14 14,14 7.73199,0 14,-6.268014 14,-14 0,-7.731986 -6.26801,-14 -14,-14 z m 0,2 c 6.62742,0 12,5.372583 12,12 0,6.627417 -5.37258,12 -12,12 -6.62742,0 -12,-5.372583 -12,-12 0,-6.627417 5.37258,-12 12,-12 z"
       style="fill:#da4453;fill-opacity:1" />
    <circle
       id="circle7868"
       cx="286"
       cy="49"
       r="9"
       style="fill:#da4453" />
  </g>
  <g
     id="media-seek-backward"
     transform="matrix(0.26458437,0,0,0.26458437,-36.659871,-24.168768)">
    <rect
       id="rect11643"
       width="32"
       height="32"
       x="-396"
       y="33"
       rx="0"
       ry="0"
       style="fill:none"
       transform="scale(-1,1)" />
    <path
       id="path11645"
       d="m 380,34.998393 c 7.73199,0 14,6.268014 14,14 0,7.731986 -6.26801,14 -14,14 -7.73199,0 -14,-6.268014 -14,-14 0,-7.731986 6.26801,-14 14,-14 z m 0,2 c -6.62742,0 -12,5.372583 -12,12 0,6.627417 5.37258,12 12,12 6.62742,0 12,-5.372583 12,-12 0,-6.627417 -5.37258,-12 -12,-12 z"
       class="ColorScheme-Text"
       fill="currentColor" />
    <path
       id="path11647"
       d="m 386.03711,43.000346 c 0.31193,0.0058 0.62437,0.08399 0.9082,0.236328 0.64747,0.34733 1.05437,1.026938 1.05469,1.761719 v 8 c -3.3e-4,1.541455 -1.82664,2.518856 -3.10938,1.664062 L 380,51.40269 v 1.595703 c -3.3e-4,1.541455 -1.82665,2.518856 -3.10938,1.664062 l -6,-4 c -1.15771,-0.772114 -1.15772,-2.556009 0,-3.328124 l 6,-4 c 0.3064,-0.204083 0.65773,-0.315113 1.01368,-0.332032 0.35595,-0.01692 0.71663,0.06027 1.04101,0.234375 0.64747,0.34733 1.05437,1.026938 1.05469,1.761719 v 1.595703 l 4.89062,-3.259765 c 0.3064,-0.204083 0.65773,-0.315113 1.01368,-0.332032 0.0445,-0.0021 0.0883,-0.0028 0.13281,-0.002 z m -0.0371,1.998047 -6,4 6,4 z m -8,0 -6,4 6,4 z"
       class="ColorScheme-Text"
       fill="currentColor" />
  </g>
  <g
     id="media-skip-backward"
     transform="matrix(-0.26458437,0,0,0.26458437,222.89739,-24.168768)">
    <rect
       id="rect11713"
       width="32"
       height="32"
       x="494"
       y="33"
       rx="0"
       ry="0"
       style="fill:none" />
    <path
       id="path11715"
       d="m 510,34.998393 c -7.73199,0 -14,6.268014 -14,14 0,7.731986 6.26801,14 14,14 7.73199,0 14,-6.268014 14,-14 0,-7.731986 -6.26801,-14 -14,-14 z m 0,2 c 6.62742,0 12,5.372583 12,12 0,6.627417 -5.37258,12 -12,12 -6.62742,0 -12,-5.372583 -12,-12 0,-6.627417 5.37258,-12 12,-12 z"
       class="ColorScheme-Text"
       fill="currentColor" />
    <path
       id="path12720"
       d="M 512.85352,43.003906 A 2.0002,2.0002 0 0 1 514.25,43.4375 l 5,4.001953 a 2.0002,2.0002 0 0 1 0,3.123047 l -5,3.998047 a 2.0002,2.0002 0 0 1 -3.25,-1.5625 v -0.636719 l -2.75,2.199219 a 2.0002,2.0002 0 0 1 -3.25,-1.5625 v -8 a 2.0002,2.0002 0 0 1 1.13477,-1.802735 2.0002,2.0002 0 0 1 0.71875,-0.191406 2.0002,2.0002 0 0 1 1.39648,0.433594 l 2.75,2.201172 v -0.640625 a 2.0002,2.0002 0 0 1 1.13477,-1.802735 2.0002,2.0002 0 0 1 0.71875,-0.191406 z M 513,44.998047 v 8 L 518,49 Z m -6,0 v 8 l 4,-3.199219 v -1.599609 z"
       class="ColorScheme-Text"
       fill="currentColor" />
    <rect
       id="rect12067"
       width="2"
       height="12"
       x="-503"
       y="43"
       rx="1"
       ry="1"
       class="ColorScheme-Text"
       fill="currentColor"
       transform="scale(-1,1)" />
  </g>
  <g
     id="media-eject"
     transform="matrix(0.26458437,0,0,0.26458437,-57.828171,-24.168768)">
    <rect
       id="rect12993"
       width="32"
       height="32"
       x="-65"
       y="618"
       rx="0"
       ry="0"
       style="fill:none"
       transform="rotate(-90)" />
    <path
       id="path12995"
       d="m 620,49 c 0,7.731986 6.26801,14 14,14 7.73199,0 14,-6.268014 14,-14 0,-7.731986 -6.26801,-14 -14,-14 -7.73199,0 -14,6.268014 -14,14 z m 2,0 c 0,-6.627417 5.37258,-12 12,-12 6.62742,0 12,5.372583 12,12 0,6.627417 -5.37258,12 -12,12 -6.62742,0 -12,-5.372583 -12,-12 z m 6.00586,0.689453 c 0,-0.393676 0.0922,0.78689 0.28516,1.138672 0.3916,0.712336 1.14235,1.170689 1.96093,1.171875 h 7.50391 c 1.71822,-0.0013 2.79455,-1.972802 1.93555,-3.449219 l -3.75196,-6.429687 v -0.002 c -0.83889,-1.437166 -3.03218,-1.437156 -3.87109,0 v 0.002 l -3.75195,6.429687 v 0.002 c -0.20018,0.346065 -0.31055,1.536055 -0.31055,1.136719 z m 2,0.01953 c 0.0554,-0.0014 0.0152,-0.109639 0.041,-0.154296 l 3.75,-6.425782 c 0.13202,-0.223765 0.28417,-0.225867 0.41601,0 l 3.75,6.427735 c 0.13805,0.237241 0.0143,0.44319 -0.20896,0.44336 h -7.49805 -0.002 c -0.0809,0 -0.15984,-0.04181 -0.21094,-0.134766 -0.0233,-0.04316 -0.0964,-0.154768 -0.0371,-0.15625 z"
       class="ColorScheme-Text"
       fill="currentColor" />
    <rect
       id="rect13466"
       width="2"
       height="12"
       x="-56"
       y="-640"
       rx="1"
       ry="1"
       class="ColorScheme-Text"
       fill="currentColor"
       transform="matrix(0,-1,-1,0,0,0)" />
  </g>
  <use
     x="0"
     y="0"
     xlink:href="#media-seek-backward"
     id="media-seek-forward"
     transform="matrix(-1,0,0,1,138.35757,3.6489752e-8)"
     width="100%"
     height="100%" />
  <use
     x="0"
     y="0"
     xlink:href="#media-skip-backward"
     id="media-skip-forward"
     transform="matrix(-1,0,0,1,186.77651,3.6489752e-8)"
     width="100%"
     height="100%" />
</svg>
