<?xml version="1.0" encoding="UTF-8" standalone="no"?>
<svg
   width="16"
   height="16"
   version="1.1"
   id="svg3638"
   sodipodi:docname="microphone.svg"
   inkscape:version="1.2.2 (b0a8486541, 2022-12-01)"
   xmlns:inkscape="http://www.inkscape.org/namespaces/inkscape"
   xmlns:sodipodi="http://sodipodi.sourceforge.net/DTD/sodipodi-0.dtd"
   xmlns="http://www.w3.org/2000/svg"
   xmlns:svg="http://www.w3.org/2000/svg">
  <sodipodi:namedview
     id="namedview3640"
     pagecolor="#ffffff"
     bordercolor="#666666"
     borderopacity="1.0"
     inkscape:showpageshadow="2"
     inkscape:pageopacity="0.0"
     inkscape:pagecheckerboard="0"
     inkscape:deskcolor="#d1d1d1"
     showgrid="true"
     inkscape:zoom="22.627417"
     inkscape:cx="39.111844"
     inkscape:cy="1.6351844"
     inkscape:window-width="3840"
     inkscape:window-height="2092"
     inkscape:window-x="0"
     inkscape:window-y="0"
     inkscape:window-maximized="1"
     inkscape:current-layer="svg3638">
    <inkscape:grid
       type="xygrid"
       id="grid3759" />
  </sodipodi:namedview>
  <defs
     id="defs3632">
    <style
       id="current-color-scheme"
       type="text/css">.ColorScheme-Text { color:#333333
; } .ColorScheme-Highlight { color:#5294e2; }</style>
  </defs>
  <g
     id="microphone-sensitivity-high">
    <path
       class="ColorScheme-Text"
       d="M 8,0 C 6.338,0 5,1.338 5,3 v 6.0254 c 0,1.662 1.338,3 3,3 1.662,0 3,-1.338 3,-3 V 3 C 11,1.338 9.662,0 8,0 Z m 0,1 c 1.108,0 2,0.892 2,2 v 6.0254 c 0,1.108 -0.892,2 -2,2 -1.108,0 -2,-0.892 -2,-2 V 3 C 6,1.892 6.892,1 8,1 Z M 3.5,7.0234 v 0.00195 c -0.277,0 -0.5,0.223 -0.5,0.5 v 1.5 c 0,2.6 1.967,4.7246 4.5,4.9746 V 15 h -2 c -0.6666664,0 -0.6666664,1 0,1 h 5 c 0.666666,0 0.666666,-1 0,-1 h -2 v -1.00205 c 2.557504,-0.25141 4.505424,-2.404771 4.5,-4.9745969 v -1.5 c 0,-0.6666664 -1,-0.6666664 -1,0 v 1.5 c 0,2.2159999 -1.784,3.9999999 -4,3.9999999 -2.216,0 -4,-1.784 -4,-3.9999999 v -1.5 c 0,-0.277 -0.223,-0.5 -0.5,-0.5 z"
       fill="currentColor"
       id="path3634" />
    <rect
       class="ColorScheme-Text"
       x="7"
       y="2"
       width="2"
       height="8"
       rx="1"
       ry="1"
       fill="currentColor"
       opacity=".35"
       id="rect3636" />
    <rect
       id="rect3862"
       width="16"
       height="16"
       x="0"
       y="0"
       rx="0"
       ry="0"
       style="fill:none" />
  </g>
  <g
     id="microphone-sensitivity-medium"
     transform="translate(16)">
    <path
       class="ColorScheme-Text"
       d="M 8,0 C 6.338,0 5,1.338 5,3 v 6.0254 c 0,1.662 1.338,3 3,3 1.662,0 3,-1.338 3,-3 V 3 C 11,1.338 9.662,0 8,0 Z m 0,1 c 1.108,0 2,0.892 2,2 v 6.0254 c 0,1.108 -0.892,2 -2,2 -1.108,0 -2,-0.892 -2,-2 V 3 C 6,1.892 6.892,1 8,1 Z M 3.5,7.0234 v 0.00195 c -0.277,0 -0.5,0.223 -0.5,0.5 v 1.5 c 0,2.6 1.967,4.7246 4.5,4.9746 V 15 h -2 c -0.6666664,0 -0.6666664,1 0,1 h 5 c 0.666666,0 0.666666,-1 0,-1 h -2 v -1.00205 c 2.557504,-0.25141 4.505424,-2.404771 4.5,-4.9745969 v -1.5 c 0,-0.6666664 -1,-0.6666664 -1,0 v 1.5 c 0,2.2159999 -1.784,3.9999999 -4,3.9999999 -2.216,0 -4,-1.784 -4,-3.9999999 v -1.5 c 0,-0.277 -0.223,-0.5 -0.5,-0.5 z"
       fill="currentColor"
       id="path3871" />
    <rect
       class="ColorScheme-Text"
       x="7"
       y="6"
       width="2"
       height="4"
       rx="1"
       ry="1"
       fill="currentColor"
       opacity="0.35"
       id="rect3873" />
    <rect
       id="rect3875"
       width="16"
       height="16"
       x="0"
       y="0"
       rx="0"
       ry="0"
       style="fill:none" />
  </g>
  <g
     id="microphone-sensitivity-low"
     transform="translate(32)">
    <path
       class="ColorScheme-Text"
       d="M 8,0 C 6.338,0 5,1.338 5,3 v 6.0254 c 0,1.662 1.338,3 3,3 1.662,0 3,-1.338 3,-3 V 3 C 11,1.338 9.662,0 8,0 Z m 0,1 c 1.108,0 2,0.892 2,2 v 6.0254 c 0,1.108 -0.892,2 -2,2 -1.108,0 -2,-0.892 -2,-2 V 3 C 6,1.892 6.892,1 8,1 Z M 3.5,7.0234 v 0.00195 c -0.277,0 -0.5,0.223 -0.5,0.5 v 1.5 c 0,2.6 1.967,4.7246 4.5,4.9746 V 15 h -2 c -0.6666664,0 -0.6666664,1 0,1 h 5 c 0.666666,0 0.666666,-1 0,-1 h -2 v -1.00205 c 2.557504,-0.25141 4.505424,-2.404771 4.5,-4.9745969 v -1.5 c 0,-0.6666664 -1,-0.6666664 -1,0 v 1.5 c 0,2.2159999 -1.784,3.9999999 -4,3.9999999 -2.216,0 -4,-1.784 -4,-3.9999999 v -1.5 c 0,-0.277 -0.223,-0.5 -0.5,-0.5 z"
       fill="currentColor"
       id="path3879" />
    <rect
       id="rect3883"
       width="16"
       height="16"
       x="0"
       y="0"
       rx="0"
       ry="0"
       style="fill:none" />
  </g>
  <g
     id="microphone-sensitivity-muted">
    <path
       class="ColorScheme-Text"
       d="m 56,0 c -1.662,0 -3,1.338 -3,3 v 6.0254 c 0,1.662 1.338,3 3,3 1.662,0 3,-1.338 3,-3 V 3 C 59,1.338 57.662,0 56,0 Z m 0,1 c 1.108,0 2,0.892 2,2 v 6.0254 c 0,1.108 -0.892,2 -2,2 -1.108,0 -2,-0.892 -2,-2 V 3 c 0,-1.108 0.892,-2 2,-2 z m -4.5,6.0234 v 0.00195 c -0.277,0 -0.5,0.223 -0.5,0.5 v 1.5 c 0,2.6 1.967,4.7246 4.5,4.9746 V 15 h -2 c -0.666666,0 -0.666666,1 0,1 h 5 c 0.666666,0 0.666666,-1 0,-1 h -2 v -1.00205 c 2.557504,-0.25141 4.505424,-2.404771 4.5,-4.9745969 v -1.5 c 0,-0.6666664 -1,-0.6666664 -1,0 v 1.5 c 0,2.2159999 -1.784,3.9999999 -4,3.9999999 -2.216,0 -4,-1.784 -4,-3.9999999 v -1.5 c 0,-0.277 -0.223,-0.5 -0.5,-0.5 z"
       fill="currentColor"
       id="path3887"
       style="opacity:0.35" />
    <rect
       id="rect3889"
       width="16"
       height="16"
       x="48"
       y="0"
       rx="0"
       ry="0"
       style="fill:none" />
    <rect
       class="ColorScheme-Text"
       transform="rotate(45)"
       x="35.254833"
       y="-34.441124"
       width="20"
       height="1"
       rx="0.5"
       ry="0.5"
       fill="currentColor"
       id="rect3898" />
  </g>
</svg>
