<?xml version="1.0" encoding="UTF-8" standalone="no"?>
<svg
   version="1.1"
   viewBox="0 0 22 22"
   id="svg49"
   sodipodi:docname="notifications.svg"
   inkscape:version="1.2.2 (b0a8486541, 2022-12-01)"
   xmlns:inkscape="http://www.inkscape.org/namespaces/inkscape"
   xmlns:sodipodi="http://sodipodi.sourceforge.net/DTD/sodipodi-0.dtd"
   xmlns="http://www.w3.org/2000/svg"
   xmlns:svg="http://www.w3.org/2000/svg">
  <sodipodi:namedview
     id="namedview51"
     pagecolor="#ffffff"
     bordercolor="#666666"
     borderopacity="1.0"
     inkscape:showpageshadow="2"
     inkscape:pageopacity="0.0"
     inkscape:pagecheckerboard="0"
     inkscape:deskcolor="#d1d1d1"
     showgrid="true"
     inkscape:zoom="11.313708"
     inkscape:cx="-38.493128"
     inkscape:cy="33.01305"
     inkscape:window-width="3840"
     inkscape:window-height="2034"
     inkscape:window-x="0"
     inkscape:window-y="58"
     inkscape:window-maximized="1"
     inkscape:current-layer="svg49">
    <inkscape:grid
       type="xygrid"
       id="grid340"
       spacingx="0.5"
       spacingy="0.5"
       empspacing="2"
       color="#9300e5"
       opacity="0.14901961" />
  </sodipodi:namedview>
  <defs
     id="defs3">
    <style
       id="current-color-scheme"
       type="text/css">.ColorScheme-Text { color:#363636; }</style>
  </defs>
  <g
     id="notifications">
    <rect
       width="32"
       height="32"
       ry="0"
       opacity="0"
       id="rect7414"
       x="0"
       y="30.96875"
       style="color:#363636;fill:#363636;stroke-width:1.45455" />
    <path
       id="path1984"
       d="m 16.011718,36.5 c -0.811322,0 -1.632846,0.336866 -2.179688,0.919922 -0.362185,0.38617 -0.433807,0.90824 -0.566407,1.402344 -1.045707,0.393717 -1.997254,1.133512 -2.611328,2.24414 -0.7029805,1.271427 -1.0736875,2.903629 -1.1406245,4.980469 -0.099,1.659624 -0.499058,2.73733 -0.734373,2.988281 -0.422578,0.448431 -0.947649,0.884194 -1.357422,1.308594 -0.270132,0.279278 -0.42137,0.652471 -0.421875,1.041016 V 51.5 c 8.3e-5,0.828392 0.671607,1.499917 1.5,1.5 h 3.4999975 a 4,4 0 0 0 4.000001,4 4,4 0 0 0 4,-4 h 3.5 c 0.828392,-8.3e-5 1.499918,-0.671608 1.5,-1.5 v -0.115234 c 2e-5,-0.388272 -0.150503,-0.761429 -0.419921,-1.041016 -0.378903,-0.392467 -0.894282,-0.839441 -1.330079,-1.300781 -0.233182,-0.252315 -0.639069,-1.356068 -0.74414,-3.041016 -0.07081,-2.053326 -0.436796,-3.670566 -1.132813,-4.933594 C 20.760595,39.956974 19.806942,39.215932 18.757812,38.822266 18.627521,38.330543 18.55886,37.811989 18.197265,37.423828 17.650781,36.837198 16.824065,36.5 16.011718,36.5 Z m 0,1.5 c 0.906548,0 1.48358,0.651038 1.535156,1.617188 0.02051,0.258268 0.164903,0.372497 0.41211,0.439453 1.658722,0.411327 2.925165,2.203228 3.048828,6.039062 0.113342,1.817578 0.44198,3.213096 1.142578,3.96875 0.504731,0.5357 1.081772,1.042887 1.349609,1.320313 V 51.5 H 8.5000005 v -0.115234 c 0.267864,-0.277426 0.866278,-0.784613 1.371092,-1.320313 0.7108425,-0.755654 1.0395565,-2.151172 1.1425775,-3.96875 0.12363,-3.835834 1.402376,-5.627735 3.050781,-6.039062 0.257522,-0.06695 0.389643,-0.181185 0.410157,-0.439453 C 14.526188,38.651038 15.115487,38 16.011718,38 Z m -2.51172,15 h 5.000001 a 2.5,2.5 0 0 1 -2.5,2.5 2.5,2.5 0 0 1 -2.500001,-2.5 z"
       class="ColorScheme-Text"
       fill="currentColor" />
  </g>
  <g
     id="notifications-disabled"
     transform="translate(-63.99805)">
    <rect
       width="32"
       height="32"
       ry="0"
       opacity="0"
       id="rect2191"
       x="95.986328"
       y="30.96875"
       style="color:#363636;fill:#363636;stroke-width:1.45455" />
    <path
       id="path2193"
       d="m 111.99805,36.5 c -0.81132,0 -1.63285,0.336866 -2.17969,0.919922 -0.36219,0.38617 -0.43381,0.90824 -0.56641,1.402344 -1.0457,0.393717 -1.99725,1.133512 -2.61132,2.24414 -0.70299,1.271427 -1.07369,2.903629 -1.14063,4.980469 -0.099,1.659624 -0.49906,2.73733 -0.73437,2.988281 -0.42258,0.448431 -0.94765,0.884194 -1.35742,1.308594 -0.27014,0.279278 -0.42137,0.652471 -0.42188,1.041016 V 51.5 c 8e-5,0.828392 0.67161,1.499917 1.5,1.5 h 3.5 a 4,4 0 0 0 4,4 4,4 0 0 0 4,-4 h 3.5 c 0.82839,-8.3e-5 1.49992,-0.671608 1.5,-1.5 v -0.115234 c 2e-5,-0.388272 -0.1505,-0.761429 -0.41992,-1.041016 -0.37891,-0.392467 -0.89428,-0.839441 -1.33008,-1.300781 -0.23318,-0.252315 -0.63907,-1.356068 -0.74414,-3.041016 -0.0708,-2.053326 -0.4368,-3.670566 -1.13281,-4.933594 -0.61246,-1.111385 -1.56611,-1.852427 -2.61524,-2.246093 -0.13029,-0.491723 -0.19895,-1.010277 -0.56055,-1.398438 C 113.63711,36.837198 112.8104,36.5 111.99805,36.5 Z m 0,1.5 c 0.90655,0 1.48358,0.651038 1.53515,1.617188 0.0205,0.258268 0.16491,0.372497 0.41211,0.439453 1.65873,0.411327 2.92517,2.203228 3.04883,6.039062 0.11334,1.817578 0.44198,3.213096 1.14258,3.96875 0.50473,0.5357 1.08177,1.042887 1.34961,1.320313 V 51.5 h -15 v -0.115234 c 0.26786,-0.277426 0.86628,-0.784613 1.37109,-1.320313 0.71084,-0.755654 1.03956,-2.151172 1.14258,-3.96875 0.12363,-3.835834 1.40238,-5.627735 3.05078,-6.039062 0.25752,-0.06695 0.38964,-0.181185 0.41016,-0.439453 C 110.51252,38.651038 111.10182,38 111.99805,38 Z m -2.51172,15 h 5 a 2.5,2.5 0 0 1 -2.5,2.5 2.5,2.5 0 0 1 -2.5,-2.5 z"
       class="ColorScheme-Text"
       fill="currentColor"
       style="opacity:0.35" />
    <rect
       id="rect2197"
       width="32"
       height="1.5"
       x="96.398216"
       y="-46.724373"
       rx="0.75"
       ry="0.75"
       class="ColorScheme-Text"
       fill="currentColor"
       transform="rotate(45)" />
  </g>
  <g
     id="22-22-notifications">
    <rect
       width="22"
       height="22"
       ry="0"
       opacity="0"
       id="rect2284"
       x="2.5e-07"
       y="0"
       style="color:#363636;fill:#363636" />
    <path
       id="path2296"
       d="M 11.007812,2.5 C 10.29859,2.5 9.561371,2.8207521 9.09375,3.34375 8.830399,3.6382875 8.807856,4.0178179 8.693359,4.3710938 7.965896,4.6741174 7.237223,5.1559416 6.757812,5.9492188 6.165446,6.9294018 5.893799,8.167967 5.84375,9.796875 5.771,11.043353 5.449687,11.826495 5.388672,11.894531 5.097165,12.219015 4.728736,12.53553 4.396484,12.896484 4.141625,13.173319 4.000108,13.535824 4,13.912109 V 14 c 8.3e-5,0.828392 0.671608,1.499917 1.5,1.5 h 2 A 3.5,3.5 0 0 0 11,19 3.5,3.5 0 0 0 14.5,15.5 h 2 c 0.828392,-8.3e-5 1.499917,-0.671608 1.5,-1.5 v -0.08789 c -1.08e-4,-0.376285 -0.141625,-0.73879 -0.396484,-1.015625 -0.304448,-0.330777 -0.665529,-0.657777 -0.96875,-0.99414 -0.06076,-0.06874 -0.389217,-0.876332 -0.464844,-2.148438 C 16.116362,8.148338 15.847375,6.9235904 15.261719,5.9511729 14.783261,5.1567487 14.052657,4.6743206 13.322266,4.3710938 13.209654,4.0196252 13.190517,3.6436216 12.927734,3.3476562 12.460224,2.8211076 11.716486,2.5 11.007812,2.5 Z m 0,1.5 c 0.664805,0 1.08718,0.500949 1.125,1.2441406 0.01505,0.1986701 0.121449,0.2863856 0.302735,0.3378906 1.216399,0.316407 2.145642,1.3110705 2.236328,4.2617188 0.08312,1.398141 0.324118,2.47146 0.837891,3.052734 0.370137,0.412077 0.793818,0.802223 0.990234,1.015625 V 14 H 5.5 V 13.91211 C 5.696433,13.698708 6.13371,13.308562 6.503906,12.896485 7.025195,12.315211 7.266248,11.241892 7.341797,9.843751 7.432457,6.8931027 8.371244,5.8984391 9.580078,5.5820322 9.768928,5.5305272 9.865816,5.4428117 9.880859,5.2441416 9.918682,4.500947 10.350575,4 11.007812,4 Z M 9,15.5 h 4 a 2,2 0 0 1 -2,2 2,2 0 0 1 -2,-2 z"
       class="ColorScheme-Text"
       fill="currentColor" />
  </g>
  <g
     id="22-22-notifications-disabled"
     transform="translate(-44)">
    <rect
       width="22"
       height="22"
       ry="0"
       opacity="0"
       id="rect2359"
       x="65.992188"
       y="0"
       style="color:#363636;fill:#363636" />
    <path
       id="path2361"
       d="m 77,2.5 c -0.709222,0 -1.446441,0.3207521 -1.914062,0.84375 -0.263351,0.2945375 -0.285894,0.6740679 -0.400391,1.0273438 -0.727463,0.3030236 -1.456136,0.7848478 -1.935547,1.578125 -0.592366,0.980183 -0.864013,2.2187482 -0.914062,3.8476562 -0.07275,1.246478 -0.394063,2.02962 -0.455078,2.097656 -0.291507,0.324484 -0.659936,0.640999 -0.992188,1.001953 -0.254859,0.276835 -0.396376,0.63934 -0.396484,1.015625 V 14 c 8.3e-5,0.828392 0.671608,1.499917 1.5,1.5 h 2 a 3.5,3.5 0 0 0 3.5,3.5 3.5,3.5 0 0 0 3.5,-3.5 h 2 c 0.828392,-8.3e-5 1.499917,-0.671608 1.5,-1.5 V 13.91211 C 83.99208,13.535825 83.850563,13.17332 83.595704,12.896485 83.291256,12.565708 82.930175,12.238708 82.626954,11.902345 82.566194,11.833605 82.237737,11.026013 82.16211,9.753907 82.10855,8.148338 81.839563,6.9235904 81.253907,5.9511729 80.775449,5.1567487 80.044845,4.6743206 79.314454,4.3710938 79.201842,4.0196252 79.182705,3.6436216 78.919922,3.3476562 78.452412,2.8211076 77.708674,2.5 77,2.5 Z M 77,4 c 0.664805,0 1.08718,0.500949 1.125,1.2441406 0.01505,0.1986701 0.121449,0.2863856 0.302735,0.3378906 1.216399,0.316407 2.145642,1.3110705 2.236328,4.2617188 0.08312,1.398141 0.324118,2.47146 0.837891,3.052734 0.370137,0.412077 0.793818,0.802223 0.990234,1.015625 V 14 h -11 v -0.08789 c 0.196433,-0.213402 0.63371,-0.603548 1.003906,-1.015625 0.521289,-0.581274 0.762342,-1.654593 0.837891,-3.052734 0.09066,-2.9506483 1.029447,-3.9453119 2.238281,-4.2617188 0.18885,-0.051505 0.285738,-0.1392205 0.300781,-0.3378906 C 75.91087,4.500947 76.342763,4 77,4 Z m -2.007812,11.5 h 4 a 2,2 0 0 1 -2,2 2,2 0 0 1 -2,-2 z"
       class="ColorScheme-Text"
       fill="currentColor"
       style="opacity:0.35" />
    <rect
       id="rect2367"
       width="28"
       height="1.5"
       x="48.219872"
       y="-47.413525"
       transform="rotate(45)"
       rx="0.75"
       ry="0.75"
       class="ColorScheme-Text"
       fill="currentColor" />
  </g>
</svg>
