<svg version="1.1" viewBox="0 0 22 22" xmlns="http://www.w3.org/2000/svg">
 <defs>
  <style id="current-color-scheme" type="text/css">.ColorScheme-Text { color:#363636; }</style>
 </defs>
 <path id="expander-bottom" d="m-18 23 2-2 2 2z" class="ColorScheme-Text" fill="currentColor"/>
 <path id="expander-top" d="m-18 17 2 2 2-2z" class="ColorScheme-Text" fill="currentColor"/>
 <path id="expander-right" d="m-13 18-2 2 2 2z" class="ColorScheme-Text" fill="currentColor"/>
 <path id="expander-left" d="m-19 18 2 2-2 2z" class="ColorScheme-Text" fill="currentColor"/>
 <g id="notification-empty" class="ColorScheme-Text" fill="currentColor">
  <rect width="22" height="22" ry="0" opacity="0"/>
  <path class="ColorScheme-Text" d="m10.994 2.0097c-1.2263 0.0072165-2.1578 1.1054-1.9648 2.3164l-0.042969 0.013672c-2.3258 0.82764-3.9902 3.0482-3.9902 5.6582v2.002h0.00391c-1.888e-4 0.84085-0.32954 1.642-0.75781 2.3418-0.47964 0.78375-1.4188 1.4875-1.9492 1.9492-0.356 0.30992-0.39174 1.0243 0 1.416 0.19841 0.19841 0.45742 0.29359 0.7168 0.29102h15.98c0.25938 0.0026 0.51839-0.09261 0.7168-0.29102 0.39174-0.39174 0.356-1.1061 0-1.416-0.5304-0.46174-1.4696-1.1655-1.9492-1.9492-0.42827-0.69981-0.75762-1.501-0.75781-2.3418h0.0039v-2.002c0-2.61-1.6644-4.8306-3.9902-5.6582l-0.04297-0.013672c0.19293-1.211-0.73858-2.3092-1.9648-2.3164-2e-3 -1.2e-5 -0.0039 6e-6 -0.0059 0-2e-3 5.8e-6 -0.0039-1.17e-5 -0.0059 0zm0.0059 3.9883c2.2107 0 4.0039 1.7912 4.0039 4.002v2.0001h-0.0039c4.68e-4 1.3712 0.45966 2.7259 1.3418 3.7578l0.20703 0.24219h-11.098l0.20703-0.24219c0.79483-1.1006 1.3413-2.3866 1.3418-3.7578h-0.00391v-2.0001c3.8e-6 -2.2107 1.7932-4.002 4.0039-4.002zm-2.002 13c0 1.3346 1.001 2.002 2.002 2.002s2.002-0.66732 2.002-2.002z" fill="currentColor"/>
 </g>
 <g id="notification-progress-active" class="ColorScheme-Text" transform="translate(55.997 -.004652)" fill="currentColor">
  <rect x="40" y="-1" width="22" height="22" fill-opacity="0"/>
  <path d="m51 1a9 9 0 0 0-9 9 9 9 0 0 0 9 9 9 9 0 0 0 9-9 9 9 0 0 0-9-9zm0 2a7 7 0 0 1 7 7 7 7 0 0 1-7 7 7 7 0 0 1-7-7 7 7 0 0 1 7-7z"/>
  <circle cx="51" cy="10" r="6"/>
 </g>
 <g id="notification-progress-inactive" class="ColorScheme-Text" transform="translate(56.998,39)" fill="currentColor">
  <rect x="40" y="-1" width="22" height="22" fill-opacity="0"/>
  <path class="ColorScheme-Text" d="m51 1a9 9 0 0 0-9 9 9 9 0 0 0 9 9 9 9 0 0 0 9-9 9 9 0 0 0-9-9zm0 2a7 7 0 0 1 7 7 7 7 0 0 1-7 7 7 7 0 0 1-7-7 7 7 0 0 1 7-7z" fill="currentColor"/>
  <circle class="ColorScheme-Text" cx="51" cy="10" r="6" fill="currentColor" opacity=".15"/>
 </g>
 <g id="notification-active" class="ColorScheme-Text" transform="translate(0,28.131)" fill="currentColor">
  <circle class="ColorScheme-Text" cx="67" cy="-25" r="3" fill="currentColor"/>
  <rect x="51.002" y="-31.998" width="22" height="22" ry="0" opacity="0"/>
  <path class="ColorScheme-Text" d="m61.996-29.988c-1.2263 0.0072-2.1578 1.1054-1.9648 2.3164l-0.04297 0.01367c-2.3258 0.82764-3.9902 3.0482-3.9902 5.6582v2.002h0.0039c-1.89e-4 0.84085-0.32954 1.642-0.75781 2.3418-0.47964 0.78375-1.4188 1.4875-1.9492 1.9492-0.356 0.30992-0.39174 1.0243 0 1.416 0.19841 0.19841 0.45742 0.29359 0.7168 0.29102h15.98c0.25938 0.0026 0.51839-0.09261 0.7168-0.29102 0.39174-0.39174 0.356-1.1061 0-1.416-0.5304-0.46174-1.4696-1.1655-1.9492-1.9492-0.42827-0.69981-0.75762-1.501-0.75781-2.3418h0.0039v-1.1348a4 4 0 0 1-1.0058 0.13281 4 4 0 0 1-0.99414-0.13086v1.1328h-0.0039c4.68e-4 1.3712 0.45966 2.7259 1.3418 3.7578l0.20703 0.24219h-11.098l0.20703-0.24219c0.79483-1.1006 1.3413-2.3866 1.3418-3.7578h-0.0039v-2c4e-6 -2.2107 1.7932-4.002 4.0039-4.002 0.37972 0 0.73978 0.06923 1.0879 0.16797a4 4 0 0 1 0.92578-1.8262l-0.04297-0.01367c0.19293-1.211-0.73862-2.3092-1.9648-2.3164-2e-3 -1.2e-5 -0.0039 6e-6 -0.0059 0-2e-3 6e-6 -0.0039-1.2e-5 -0.0059 0zm-1.9961 16.988c0 1.3346 1.001 2.002 2.002 2.002s2.002-0.66727 2.002-2.002z" fill="currentColor"/>
 </g>
 <g id="notification-inactive" class="ColorScheme-Text" transform="translate(0,67.988)" fill="currentColor">
  <circle class="ColorScheme-Text" cx="67" cy="-25" r="3" fill="currentColor" opacity=".35"/>
  <rect x="51.002" y="-31.998" width="22" height="22" ry="0" opacity="0"/>
  <path class="ColorScheme-Text" d="m61.996-29.988c-1.2263 0.0072-2.1578 1.1054-1.9648 2.3164l-0.04297 0.01367c-2.3258 0.82764-3.9902 3.0482-3.9902 5.6582v2.002h0.0039c-1.89e-4 0.84085-0.32954 1.642-0.75781 2.3418-0.47964 0.78375-1.4188 1.4875-1.9492 1.9492-0.356 0.30992-0.39174 1.0243 0 1.416 0.19841 0.19841 0.45742 0.29359 0.7168 0.29102h15.98c0.25938 0.0026 0.51839-0.09261 0.7168-0.29102 0.39174-0.39174 0.356-1.1061 0-1.416-0.5304-0.46174-1.4696-1.1655-1.9492-1.9492-0.42827-0.69981-0.75762-1.501-0.75781-2.3418h0.0039v-1.1348a4 4 0 0 1-1.0058 0.13281 4 4 0 0 1-0.99414-0.13086v1.1328h-0.0039c4.68e-4 1.3712 0.45966 2.7259 1.3418 3.7578l0.20703 0.24219h-11.098l0.20703-0.24219c0.79483-1.1006 1.3413-2.3866 1.3418-3.7578h-0.0039v-2c4e-6 -2.2107 1.7932-4.002 4.0039-4.002 0.37972 0 0.73978 0.06923 1.0879 0.16797a4 4 0 0 1 0.92578-1.8262l-0.04297-0.01367c0.19293-1.211-0.73862-2.3092-1.9648-2.3164-2e-3 -1.2e-5 -0.0039 6e-6 -0.0059 0-2e-3 6e-6 -0.0039-1.2e-5 -0.0059 0zm-1.9961 16.988c0 1.3346 1.001 2.002 2.002 2.002s2.002-0.66727 2.002-2.002z" fill="currentColor"/>
 </g>
 <g id="notification-disabled" class="ColorScheme-Text" transform="translate(0 -30.684)" fill="currentColor">
  <path class="ColorScheme-Text" d="m2.6582 66.829 18.276 18.276c0.42187 0.42187 0.44613 1.0769 0.05439 1.4686-0.39174 0.39174-1.0467 0.36748-1.4686-0.05439l-18.276-18.276c-0.42187-0.42187-0.44613-1.0769-0.054393-1.4686 0.39174-0.39174 1.0467-0.36748 1.4686 0.05439z"/>
  <rect class="ColorScheme-Text" x=".089057" y="65.674" width="22" height="22" ry="0" opacity="0"/>
  <path class="ColorScheme-Text" d="m10.994 67.684c-1.2263 0.007216-2.1578 1.1054-1.9648 2.3164l-0.042969 0.01367c-2.3258 0.82764-3.9902 3.0482-3.9902 5.6582v2.002h0.00391c-1.888e-4 0.84085-0.32954 1.642-0.75781 2.3418-0.47964 0.78375-1.4188 1.4875-1.9492 1.9492-0.356 0.30992-0.39174 1.0243 0 1.416 0.19841 0.19841 0.45742 0.29359 0.7168 0.29102h15.98c0.25938 0.0026 0.51839-0.09261 0.7168-0.29102 0.39174-0.39174 0.356-1.1061 0-1.416-0.5304-0.46174-1.4696-1.1655-1.9492-1.9492-0.42827-0.69981-0.75762-1.501-0.75781-2.3418h0.0039v-2.002c0-2.61-1.6644-4.8306-3.9902-5.6582l-0.04297-0.01367c0.19293-1.211-0.73858-2.3092-1.9648-2.3164-2e-3 -1.2e-5 -0.0039 6e-6 -0.0059 0-2e-3 6e-6 -0.0039-1.2e-5 -0.0059 0zm0.0059 3.9883c2.2107 0 4.0039 1.7912 4.0039 4.002v2.0001h-0.0039c4.68e-4 1.3712 0.45966 2.7259 1.3418 3.7578l0.20703 0.24219h-11.098l0.20703-0.24219c0.79483-1.1006 1.3413-2.3866 1.3418-3.7578h-0.00391v-2.0001c3.8e-6 -2.2107 1.7932-4.002 4.0039-4.002zm-2.002 13c0 1.3346 1.001 2.002 2.002 2.002s2.002-0.66732 2.002-2.002z" opacity=".35"/>
 </g>
</svg>
