<?xml version="1.0" encoding="UTF-8" standalone="no"?>
<svg
   xmlns:dc="http://purl.org/dc/elements/1.1/"
   xmlns:cc="http://creativecommons.org/ns#"
   xmlns:rdf="http://www.w3.org/1999/02/22-rdf-syntax-ns#"
   xmlns:svg="http://www.w3.org/2000/svg"
   xmlns="http://www.w3.org/2000/svg"
   id="svg49"
   viewBox="0 0 22 22"
   version="1.1">
  <metadata
     id="metadata51">
    <rdf:RDF>
      <cc:Work
         rdf:about="">
        <dc:format>image/svg+xml</dc:format>
        <dc:type
           rdf:resource="http://purl.org/dc/dcmitype/StillImage" />
        <dc:title></dc:title>
      </cc:Work>
    </rdf:RDF>
  </metadata>
  <defs
     id="defs5">
    <style
       type="text/css"
       id="current-color-scheme"> .ColorScheme-Text { color:#363636; } </style>
  </defs>
  <path
     fill="currentColor"
     d="m-18 23 2-2 2 2z"
     class="ColorScheme-Text"
     id="expander-bottom" />
  <path
     fill="currentColor"
     d="m-18 17 2 2 2-2z"
     class="ColorScheme-Text"
     id="expander-top" />
  <path
     fill="currentColor"
     d="m-13 18-2 2 2 2z"
     class="ColorScheme-Text"
     id="expander-right" />
  <path
     fill="currentColor"
     d="m-19 18 2 2-2 2z"
     class="ColorScheme-Text"
     id="expander-left" />
  <g
     fill="currentColor"
     class="ColorScheme-Text"
     id="notification-empty">
    <rect
       id="rect11"
       style="paint-order:stroke fill markers"
       stroke-width="1.5172"
       opacity="0"
       ry="0"
       height="22"
       width="22" />
    <path
       id="path13"
       stroke-width=".019546"
       fill="currentColor"
       d="m10.994 1c-1.2263 0.0072165-2.1578 1.1054-1.9648 2.3164l-0.042969 0.013672c-2.3258 0.82764-3.9902 3.0482-3.9902 5.6582v3.0117h0.0039062c-1.888e-4 0.84085-0.32954 1.642-0.75781 2.3418-0.47964 0.78375-1.4188 1.4875-1.9492 1.9492-0.356 0.30992-0.39174 1.0243 0 1.416 0.19841 0.19841 0.45742 0.29359 0.7168 0.29102h15.98c0.25938 0.0026 0.51839-0.09261 0.7168-0.29102 0.39174-0.39174 0.356-1.1061 0-1.416-0.5304-0.46174-1.4696-1.1655-1.9492-1.9492-0.42827-0.69981-0.75762-1.501-0.75781-2.3418h0.0039v-3.0117c0-2.61-1.6644-4.8306-3.9902-5.6582l-0.04297-0.013672c0.19293-1.211-0.73858-2.3092-1.9648-2.3164-2e-3 -1.2e-5 -0.0039 6e-6 -0.0059 0-2e-3 5.8e-6 -0.0039-1.166e-5 -0.0059 0zm0.005859 3.9883c2.2107 0 4.0039 1.7912 4.0039 4.002v3.0098h-0.003906c4.68e-4 1.3712 0.45966 2.7259 1.3418 3.7578l0.20703 0.24219h-11.098l0.20703-0.24219c0.79483-1.1006 1.3413-2.3866 1.3418-3.7578h-0.00391v-3.0098c3.8e-6 -2.2107 1.7932-4.002 4.0039-4.002zm-2.002 14.01c0 1.3346 1.001 2.002 2.002 2.002 1.001 0 2.002-0.66732 2.002-2.002z" />
  </g>
  <g
     fill="currentColor"
     class="ColorScheme-Text"
     transform="translate(55.997 -.004652)"
     id="notification-progress-active">
    <rect
       id="rect16"
       fill-opacity="0"
       height="22"
       width="22"
       y="-1"
       x="40"
       class="ColorScheme-Text" />
    <path
       id="path18"
       fill="currentColor"
       d="m51 1a9 9 0 0 0-9 9 9 9 0 0 0 9 9 9 9 0 0 0 9-9 9 9 0 0 0-9-9zm0 2a7 7 0 0 1 7 7 7 7 0 0 1-7 7 7 7 0 0 1-7-7 7 7 0 0 1 7-7z" />
    <circle
       id="circle20"
       fill="currentColor"
       r="6"
       cy="10"
       cx="51" />
  </g>
  <g
     transform="translate(56.998 39)"
     id="notification-progress-inactive">
    <rect
       id="rect23"
       fill-opacity="0"
       height="22"
       width="22"
       y="-1"
       x="40"
       fill="currentColor"
       class="ColorScheme-Text" />
    <path
       id="path25"
       fill="currentColor"
       class="ColorScheme-Text"
       d="m51 1a9 9 0 0 0-9 9 9 9 0 0 0 9 9 9 9 0 0 0 9-9 9 9 0 0 0-9-9zm0 2a7 7 0 0 1 7 7 7 7 0 0 1-7 7 7 7 0 0 1-7-7 7 7 0 0 1 7-7z" />
    <circle
       id="circle27"
       opacity=".15"
       fill="currentColor"
       class="ColorScheme-Text"
       r="6"
       cy="10"
       cx="51" />
  </g>
  <g
     fill="currentColor"
     class="ColorScheme-Text"
     transform="translate(0 40.684)"
     id="notification-disabled">
    <rect
       id="rect30"
       opacity="0"
       ry="0"
       height="22"
       width="22" />
    <path
       id="path32"
       fill="currentColor"
       d="m10.994 1c-1.2263 0.0072165-2.1578 1.1054-1.9648 2.3164l-0.042969 0.013672c-2.3258 0.82764-3.9902 3.0482-3.9902 5.6582v3.0117h0.0039062c-1.888e-4 0.84085-0.32954 1.642-0.75781 2.3418-0.47964 0.78375-1.4188 1.4875-1.9492 1.9492-0.356 0.30992-0.39174 1.0243 0 1.416 0.19841 0.19841 0.45742 0.29359 0.7168 0.29102h15.98c0.25938 0.0026 0.51839-0.09261 0.7168-0.29102 0.39174-0.39174 0.356-1.1061 0-1.416-0.5304-0.46174-1.4696-1.1655-1.9492-1.9492-0.42827-0.69981-0.75762-1.501-0.75781-2.3418h0.0039v-3.0117c0-2.61-1.6644-4.8306-3.9902-5.6582l-0.04297-0.013672c0.19293-1.211-0.73858-2.3092-1.9648-2.3164-2e-3 -1.2e-5 -0.0039 6e-6 -0.0059 0-2e-3 5.8e-6 -0.0039-1.166e-5 -0.0059 0zm0.005859 3.9883c2.2107 0 4.0039 1.7912 4.0039 4.002v3.0098h-0.003906c4.68e-4 1.3712 0.45966 2.7259 1.3418 3.7578l0.20703 0.24219h-11.098l0.20703-0.24219c0.79483-1.1006 1.3413-2.3866 1.3418-3.7578h-0.00391v-3.0098c3.8e-6 -2.2107 1.7932-4.002 4.0039-4.002zm-2.002 14.01c0 1.3346 1.001 2.002 2.002 2.002 1.001 0 2.002-0.66732 2.002-2.002z" />
  </g>
  <g
     fill="currentColor"
     class="ColorScheme-Text"
     transform="translate(0 -67.332)"
     id="notification-active">
    <rect
       id="rect35"
       opacity="0"
       ry="0"
       height="22"
       width="22"
       y="68"
       x="49.006" />
    <path
       id="path37"
       fill="currentColor"
       d="m60 69c-1.2263 0.0072-2.1578 1.1054-1.9648 2.3164l-0.04297 0.01367c-2.3258 0.82764-3.9902 3.0482-3.9902 5.6582v3.0117h0.0039c-1.89e-4 0.84085-0.32954 1.642-0.75781 2.3418-0.47964 0.78375-1.4188 1.4875-1.9492 1.9492-0.356 0.30992-0.39174 1.0243 0 1.416 0.19841 0.19841 0.45742 0.29359 0.7168 0.29102h15.98c0.25938 0.0026 0.51839-0.09261 0.7168-0.29102 0.39174-0.39174 0.356-1.1061 0-1.416-0.53039-0.46174-1.4696-1.1655-1.9492-1.9492-0.42827-0.69981-0.75762-1.501-0.75781-2.3418h0.0039v-2.1309a4 4 0 0 1-1.0098 0.13086 4 4 0 0 1-0.99023-0.125v2.125h-0.0039c4.68e-4 1.3712 0.45966 2.7259 1.3418 3.7578l0.20702 0.24219h-11.098l0.20703-0.24219c0.79483-1.1006 1.3413-2.3866 1.3418-3.7578h-0.0039v-3.0098c4e-6 -2.2107 1.7932-4.002 4.0039-4.002 0.37828 0 0.73704 0.06995 1.084 0.16797a4 4 0 0 1 0.93164-1.8242c-8.15e-4 -2.9e-4 -0.0011-0.0017-2e-3 -2e-3l-0.04297-0.01367c0.19297-1.2109-0.73855-2.3092-1.9648-2.3164-2e-3 -1.2e-5 -0.0039 6e-6 -0.0059 0-2e-3 6e-6 -0.0039-1.2e-5 -0.0059 0zm-1.9961 17.998c0 1.3346 1.001 2.002 2.002 2.002 1.001 0 2.002-0.66732 2.002-2.002z" />
    <circle
       id="circle39"
       fill="currentColor"
       r="3"
       cy="74"
       cx="65" />
  </g>
  <g
     fill="currentColor"
     class="ColorScheme-Text"
     transform="translate(-.003906 -28)"
     id="notification-inactive">
    <rect
       id="rect42"
       opacity="0"
       ry="0"
       height="22"
       width="22"
       y="68"
       x="49.006" />
    <path
       id="path44"
       fill="currentColor"
       d="m60 69c-1.2263 0.0072-2.1578 1.1054-1.9648 2.3164l-0.04297 0.01367c-2.3258 0.82764-3.9902 3.0482-3.9902 5.6582v3.0117h0.0039c-1.89e-4 0.84085-0.32954 1.642-0.75781 2.3418-0.47964 0.78375-1.4188 1.4875-1.9492 1.9492-0.356 0.30992-0.39174 1.0243 0 1.416 0.19841 0.19841 0.45742 0.29359 0.7168 0.29102h15.98c0.25938 0.0026 0.51839-0.09261 0.7168-0.29102 0.39174-0.39174 0.356-1.1061 0-1.416-0.53039-0.46174-1.4696-1.1655-1.9492-1.9492-0.42827-0.69981-0.75762-1.501-0.75781-2.3418h0.0039v-2.1309a4 4 0 0 1-1.0098 0.13086 4 4 0 0 1-0.99023-0.125v2.125h-0.0039c4.68e-4 1.3712 0.45966 2.7259 1.3418 3.7578l0.20702 0.24219h-11.098l0.20703-0.24219c0.79483-1.1006 1.3413-2.3866 1.3418-3.7578h-0.0039v-3.0098c4e-6 -2.2107 1.7932-4.002 4.0039-4.002 0.37828 0 0.73704 0.06995 1.084 0.16797a4 4 0 0 1 0.93164-1.8242c-8.15e-4 -2.9e-4 -0.0011-0.0017-2e-3 -2e-3l-0.04297-0.01367c0.19297-1.2109-0.73855-2.3092-1.9648-2.3164-2e-3 -1.2e-5 -0.0039 6e-6 -0.0059 0-2e-3 6e-6 -0.0039-1.2e-5 -0.0059 0zm-1.9961 17.998c0 1.3346 1.001 2.002 2.002 2.002 1.001 0 2.002-0.66732 2.002-2.002z" />
    <circle
       id="circle46"
       opacity=".35"
       fill="currentColor"
       r="3"
       cy="74"
       cx="65" />
  </g>
</svg>
