<?xml version="1.0" encoding="UTF-8" standalone="no"?>
<svg
   version="1.1"
   viewBox="0 0 22 22"
   id="svg49"
   sodipodi:docname="notification.svg"
   inkscape:version="1.2.2 (b0a8486541, 2022-12-01)"
   xmlns:inkscape="http://www.inkscape.org/namespaces/inkscape"
   xmlns:sodipodi="http://sodipodi.sourceforge.net/DTD/sodipodi-0.dtd"
   xmlns="http://www.w3.org/2000/svg"
   xmlns:svg="http://www.w3.org/2000/svg">
  <sodipodi:namedview
     id="namedview51"
     pagecolor="#ffffff"
     bordercolor="#666666"
     borderopacity="1.0"
     inkscape:showpageshadow="2"
     inkscape:pageopacity="0.0"
     inkscape:pagecheckerboard="0"
     inkscape:deskcolor="#d1d1d1"
     showgrid="true"
     inkscape:zoom="15.999999"
     inkscape:cx="89.906254"
     inkscape:cy="27.875001"
     inkscape:window-width="3840"
     inkscape:window-height="2034"
     inkscape:window-x="0"
     inkscape:window-y="58"
     inkscape:window-maximized="1"
     inkscape:current-layer="svg49">
    <inkscape:grid
       type="xygrid"
       id="grid340"
       spacingx="0.5"
       spacingy="0.5"
       empspacing="2"
       color="#9300e5"
       opacity="0.14901961" />
  </sodipodi:namedview>
  <defs
     id="defs3">
    <style
       id="current-color-scheme"
       type="text/css">.ColorScheme-Text { color:#363636; }</style>
  </defs>
  <path
     id="expander-bottom"
     d="m-18 23 2-2 2 2z"
     class="ColorScheme-Text"
     fill="currentColor" />
  <path
     id="expander-top"
     d="m-18 17 2 2 2-2z"
     class="ColorScheme-Text"
     fill="currentColor" />
  <path
     id="expander-right"
     d="m-13 18-2 2 2 2z"
     class="ColorScheme-Text"
     fill="currentColor" />
  <path
     id="expander-left"
     d="m-19 18 2 2-2 2z"
     class="ColorScheme-Text"
     fill="currentColor" />
  <g
     id="22-22-notification-progress-active"
     transform="translate(48,1)">
    <rect
       x="40"
       y="-1"
       width="22"
       height="22"
       fill-opacity="0"
       id="rect14" />
    <path
       id="path16"
       d="M 51 1 A 9 9 0 0 0 42 10 A 9 9 0 0 0 51 19 A 9 9 0 0 0 60 10 A 9 9 0 0 0 51 1 z M 51 2.5 A 7.5 7.5 0 0 1 58.5 10 A 7.5 7.5 0 0 1 51 17.5 A 7.5 7.5 0 0 1 43.5 10 A 7.5 7.5 0 0 1 51 2.5 z "
       class="ColorScheme-Text"
       fill="currentColor" />
    <circle
       cx="51"
       cy="10"
       r="6"
       id="circle18"
       style="fill:#4cb0ff;fill-opacity:1" />
  </g>
  <g
     id="22-22-notification-progress-inactive"
     class="ColorScheme-Text"
     transform="translate(70,1)"
     fill="currentColor">
    <rect
       x="40"
       y="-1"
       width="22"
       height="22"
       fill-opacity="0"
       id="rect21" />
    <path
       id="path23"
       d="M 51 1 A 9 9 0 0 0 42 10 A 9 9 0 0 0 51 19 A 9 9 0 0 0 60 10 A 9 9 0 0 0 51 1 z M 51 2.5 A 7.5 7.5 0 0 1 58.5 10 A 7.5 7.5 0 0 1 51 17.5 A 7.5 7.5 0 0 1 43.5 10 A 7.5 7.5 0 0 1 51 2.5 z " />
    <circle
       class="ColorScheme-Text"
       cx="51"
       cy="10"
       r="6"
       fill="currentColor"
       id="circle25"
       style="opacity:0.35" />
  </g>
  <g
     id="notification-progress-active"
     transform="matrix(1.4545455,0,0,1.4545455,69.818179,32.454545)">
    <rect
       x="40"
       y="-1"
       width="22"
       height="22"
       fill-opacity="0"
       id="rect1351" />
    <path
       id="path1353"
       d="M 51,3.1250002 C 47.20294,3.1247427 44.124744,6.2029396 44.125001,10 44.124743,13.79706 47.20294,16.875258 51,16.875 54.797061,16.875258 57.875258,13.79706 57.875,10 57.875257,6.2029396 54.797061,3.1247427 51,3.1250002 Z m 0,1.03125 A 5.84375,5.84375 0 0 1 56.84375,10 5.84375,5.84375 0 0 1 51,15.84375 5.84375,5.84375 0 0 1 45.156251,10 5.84375,5.84375 0 0 1 51,4.1562502 Z"
       class="ColorScheme-Text"
       fill="currentColor" />
    <circle
       cx="51"
       cy="10"
       r="4.46875"
       id="circle1355"
       style="fill:#4cb0ff;fill-opacity:1" />
  </g>
  <g
     id="notification-progress-inactive"
     transform="translate(56.000878,-94)"
     class="ColorScheme-Text"
     fill="currentColor">
    <rect
       x="105"
       y="125.00001"
       width="32"
       height="32"
       fill-opacity="0"
       id="rect1365" />
    <path
       id="path1367"
       d="m 120.99912,131 c -5.52299,-3.7e-4 -10.00037,4.47701 -10,10 -3.7e-4,5.52299 4.47701,10.00037 10,10 5.523,3.7e-4 10.00037,-4.47701 10,-10 3.7e-4,-5.52299 -4.477,-10.00037 -10,-10 z m 0,1.5 a 8.5,8.5 0 0 1 8.5,8.5 8.5,8.5 0 0 1 -8.5,8.5 8.5,8.5 0 0 1 -8.5,-8.5 8.5,8.5 0 0 1 8.5,-8.5 z" />
    <circle
       cx="121"
       cy="141"
       r="6"
       id="circle1369"
       style="opacity:0.35" />
  </g>
  <g
     id="notification-empty">
    <rect
       width="32"
       height="32"
       ry="0"
       opacity="0"
       id="rect7414"
       x="0"
       y="30.96875"
       style="color:#363636;fill:#363636;stroke-width:1.45455" />
    <path
       id="path1984"
       d="m 16.011718,36.5 c -0.811322,0 -1.632846,0.336866 -2.179688,0.919922 -0.362185,0.38617 -0.433807,0.90824 -0.566407,1.402344 -1.045707,0.393717 -1.997254,1.133512 -2.611328,2.24414 -0.7029805,1.271427 -1.0736875,2.903629 -1.1406245,4.980469 -0.099,1.659624 -0.499058,2.73733 -0.734373,2.988281 -0.422578,0.448431 -0.947649,0.884194 -1.357422,1.308594 -0.270132,0.279278 -0.42137,0.652471 -0.421875,1.041016 V 51.5 c 8.3e-5,0.828392 0.671607,1.499917 1.5,1.5 h 3.4999975 a 4,4 0 0 0 4.000001,4 4,4 0 0 0 4,-4 h 3.5 c 0.828392,-8.3e-5 1.499918,-0.671608 1.5,-1.5 v -0.115234 c 2e-5,-0.388272 -0.150503,-0.761429 -0.419921,-1.041016 -0.378903,-0.392467 -0.894282,-0.839441 -1.330079,-1.300781 -0.233182,-0.252315 -0.639069,-1.356068 -0.74414,-3.041016 -0.07081,-2.053326 -0.436796,-3.670566 -1.132813,-4.933594 C 20.760595,39.956974 19.806942,39.215932 18.757812,38.822266 18.627521,38.330543 18.55886,37.811989 18.197265,37.423828 17.650781,36.837198 16.824065,36.5 16.011718,36.5 Z m 0,1.5 c 0.906548,0 1.48358,0.651038 1.535156,1.617188 0.02051,0.258268 0.164903,0.372497 0.41211,0.439453 1.658722,0.411327 2.925165,2.203228 3.048828,6.039062 0.113342,1.817578 0.44198,3.213096 1.142578,3.96875 0.504731,0.5357 1.081772,1.042887 1.349609,1.320313 V 51.5 H 8.5000005 v -0.115234 c 0.267864,-0.277426 0.866278,-0.784613 1.371092,-1.320313 0.7108425,-0.755654 1.0395565,-2.151172 1.1425775,-3.96875 0.12363,-3.835834 1.402376,-5.627735 3.050781,-6.039062 0.257522,-0.06695 0.389643,-0.181185 0.410157,-0.439453 C 14.526188,38.651038 15.115487,38 16.011718,38 Z m -2.51172,15 h 5.000001 a 2.5,2.5 0 0 1 -2.5,2.5 2.5,2.5 0 0 1 -2.500001,-2.5 z"
       class="ColorScheme-Text"
       fill="currentColor" />
  </g>
  <g
     id="notification-active">
    <rect
       width="32"
       height="32"
       ry="0"
       opacity="0"
       id="rect2004"
       x="31.988281"
       y="30.96875"
       style="color:#363636;fill:#363636;stroke-width:1.45455" />
    <path
       id="path2006"
       class="ColorScheme-Text"
       d="M 48 36.5 C 47.188679 36.5 46.367154 36.836866 45.820312 37.419922 C 45.458128 37.806091 45.386506 38.328162 45.253906 38.822266 C 44.2082 39.215982 43.256652 39.955779 42.642578 41.066406 C 41.939598 42.337832 41.568889 43.970037 41.501953 46.046875 C 41.402953 47.706497 41.002893 48.784206 40.767578 49.035156 C 40.345002 49.483587 39.819929 49.91935 39.410156 50.34375 C 39.140025 50.623028 38.988786 50.996221 38.988281 51.384766 L 38.988281 51.5 C 38.988364 52.328391 39.659889 52.999917 40.488281 53 L 43.988281 53 A 4 4 0 0 0 47.988281 57 A 4 4 0 0 0 51.988281 53 L 55.488281 53 C 56.316672 52.999917 56.988199 52.328391 56.988281 51.5 L 56.988281 51.384766 C 56.988301 50.996494 56.837777 50.623337 56.568359 50.34375 C 56.189457 49.951283 55.674078 49.504308 55.238281 49.042969 C 55.005099 48.790654 54.599212 47.686899 54.494141 46.001953 C 54.470004 45.302051 54.408561 44.656496 54.314453 44.054688 A 4 4 0 0 1 52.857422 44.474609 C 52.927721 44.970096 52.977083 45.506017 52.996094 46.095703 C 53.109436 47.913279 53.438075 49.3088 54.138672 50.064453 C 54.643402 50.600153 55.220445 51.10734 55.488281 51.384766 L 55.488281 51.5 L 40.488281 51.5 L 40.488281 51.384766 C 40.756144 51.10734 41.354562 50.600153 41.859375 50.064453 C 42.570216 49.3088 42.898932 47.913279 43.001953 46.095703 C 43.125583 42.259873 44.404331 40.467967 46.052734 40.056641 C 46.310256 39.989691 46.442377 39.875455 46.462891 39.617188 C 46.514471 38.651038 47.10377 38 48 38 C 48.448917 38 48.81656 38.159 49.080078 38.4375 A 4 4 0 0 1 50.083984 37.326172 C 49.539549 36.801606 48.764834 36.5 48 36.5 z M 45.488281 53 L 50.488281 53 A 2.5 2.5 0 0 1 47.988281 55.5 A 2.5 2.5 0 0 1 45.488281 53 z "
       fill="currentColor" />
    <circle
       id="circle2022"
       cx="52.5"
       cy="40.5"
       r="2.5"
       style="fill:#4cb0ff;fill-opacity:1" />
  </g>
  <g
     id="notification-inactive"
     transform="translate(32)">
    <rect
       width="32"
       height="32"
       ry="0"
       opacity="0"
       id="rect2043"
       x="31.988281"
       y="30.96875"
       style="color:#363636;fill:#363636;stroke-width:1.45455" />
    <path
       id="path2045"
       class="ColorScheme-Text"
       d="m 48,36.5 c -0.811321,0 -1.632846,0.336866 -2.179688,0.919922 -0.362184,0.386169 -0.433806,0.90824 -0.566406,1.402344 -1.045706,0.393716 -1.997254,1.133513 -2.611328,2.24414 -0.70298,1.271426 -1.073689,2.903631 -1.140625,4.980469 -0.099,1.659622 -0.49906,2.737331 -0.734375,2.988281 -0.422576,0.448431 -0.947649,0.884194 -1.357422,1.308594 -0.270131,0.279278 -0.42137,0.652471 -0.421875,1.041016 V 51.5 c 8.3e-5,0.828391 0.671608,1.499917 1.5,1.5 h 3.5 a 4,4 0 0 0 4,4 4,4 0 0 0 4,-4 h 3.5 c 0.828391,-8.3e-5 1.499918,-0.671609 1.5,-1.5 v -0.115234 c 2e-5,-0.388272 -0.150504,-0.761429 -0.419922,-1.041016 -0.378902,-0.392467 -0.894281,-0.839442 -1.330078,-1.300781 -0.233182,-0.252315 -0.639069,-1.35607 -0.74414,-3.041016 -0.02414,-0.699902 -0.08558,-1.345457 -0.179688,-1.947265 a 4,4 0 0 1 -1.457031,0.419921 c 0.0703,0.495487 0.119661,1.031408 0.138672,1.621094 0.113342,1.817576 0.441981,3.213097 1.142578,3.96875 0.50473,0.5357 1.081773,1.042887 1.349609,1.320313 V 51.5 h -15 v -0.115234 c 0.267863,-0.277426 0.866281,-0.784613 1.371094,-1.320313 0.710841,-0.755653 1.039557,-2.151174 1.142578,-3.96875 0.12363,-3.83583 1.402378,-5.627736 3.050781,-6.039062 0.257522,-0.06695 0.389643,-0.181186 0.410157,-0.439453 C 46.514471,38.651038 47.10377,38 48,38 c 0.448917,0 0.81656,0.159 1.080078,0.4375 a 4,4 0 0 1 1.003906,-1.111328 C 49.539549,36.801606 48.764834,36.5 48,36.5 Z M 45.488281,53 h 5 a 2.5,2.5 0 0 1 -2.5,2.5 2.5,2.5 0 0 1 -2.5,-2.5 z"
       fill="currentColor" />
    <circle
       id="circle2047"
       cx="52.5"
       cy="40.5"
       r="2.5"
       class="ColorScheme-Text"
       fill="currentColor"
       style="opacity:0.35" />
  </g>
  <g
     id="notification-disabled">
    <rect
       width="32"
       height="32"
       ry="0"
       opacity="0"
       id="rect2191"
       x="95.986328"
       y="30.96875"
       style="color:#363636;fill:#363636;stroke-width:1.45455" />
    <path
       id="path2193"
       d="m 111.99805,36.5 c -0.81132,0 -1.63285,0.336866 -2.17969,0.919922 -0.36219,0.38617 -0.43381,0.90824 -0.56641,1.402344 -1.0457,0.393717 -1.99725,1.133512 -2.61132,2.24414 -0.70299,1.271427 -1.07369,2.903629 -1.14063,4.980469 -0.099,1.659624 -0.49906,2.73733 -0.73437,2.988281 -0.42258,0.448431 -0.94765,0.884194 -1.35742,1.308594 -0.27014,0.279278 -0.42137,0.652471 -0.42188,1.041016 V 51.5 c 8e-5,0.828392 0.67161,1.499917 1.5,1.5 h 3.5 a 4,4 0 0 0 4,4 4,4 0 0 0 4,-4 h 3.5 c 0.82839,-8.3e-5 1.49992,-0.671608 1.5,-1.5 v -0.115234 c 2e-5,-0.388272 -0.1505,-0.761429 -0.41992,-1.041016 -0.37891,-0.392467 -0.89428,-0.839441 -1.33008,-1.300781 -0.23318,-0.252315 -0.63907,-1.356068 -0.74414,-3.041016 -0.0708,-2.053326 -0.4368,-3.670566 -1.13281,-4.933594 -0.61246,-1.111385 -1.56611,-1.852427 -2.61524,-2.246093 -0.13029,-0.491723 -0.19895,-1.010277 -0.56055,-1.398438 C 113.63711,36.837198 112.8104,36.5 111.99805,36.5 Z m 0,1.5 c 0.90655,0 1.48358,0.651038 1.53515,1.617188 0.0205,0.258268 0.16491,0.372497 0.41211,0.439453 1.65873,0.411327 2.92517,2.203228 3.04883,6.039062 0.11334,1.817578 0.44198,3.213096 1.14258,3.96875 0.50473,0.5357 1.08177,1.042887 1.34961,1.320313 V 51.5 h -15 v -0.115234 c 0.26786,-0.277426 0.86628,-0.784613 1.37109,-1.320313 0.71084,-0.755654 1.03956,-2.151172 1.14258,-3.96875 0.12363,-3.835834 1.40238,-5.627735 3.05078,-6.039062 0.25752,-0.06695 0.38964,-0.181185 0.41016,-0.439453 C 110.51252,38.651038 111.10182,38 111.99805,38 Z m -2.51172,15 h 5 a 2.5,2.5 0 0 1 -2.5,2.5 2.5,2.5 0 0 1 -2.5,-2.5 z"
       class="ColorScheme-Text"
       fill="currentColor"
       style="opacity:0.35" />
    <rect
       id="rect2197"
       width="32"
       height="1.5"
       x="96.398216"
       y="-46.724373"
       rx="0.75"
       ry="0.75"
       class="ColorScheme-Text"
       fill="currentColor"
       transform="rotate(45)" />
  </g>
  <g
     id="22-22-notification-empty">
    <rect
       width="22"
       height="22"
       ry="0"
       opacity="0"
       id="rect2284"
       x="2.5e-07"
       y="0"
       style="color:#363636;fill:#363636" />
    <path
       id="path2296"
       d="M 11.007812,2.5 C 10.29859,2.5 9.561371,2.8207521 9.09375,3.34375 8.830399,3.6382875 8.807856,4.0178179 8.693359,4.3710938 7.965896,4.6741174 7.237223,5.1559416 6.757812,5.9492188 6.165446,6.9294018 5.893799,8.167967 5.84375,9.796875 5.771,11.043353 5.449687,11.826495 5.388672,11.894531 5.097165,12.219015 4.728736,12.53553 4.396484,12.896484 4.141625,13.173319 4.000108,13.535824 4,13.912109 V 14 c 8.3e-5,0.828392 0.671608,1.499917 1.5,1.5 h 2 A 3.5,3.5 0 0 0 11,19 3.5,3.5 0 0 0 14.5,15.5 h 2 c 0.828392,-8.3e-5 1.499917,-0.671608 1.5,-1.5 v -0.08789 c -1.08e-4,-0.376285 -0.141625,-0.73879 -0.396484,-1.015625 -0.304448,-0.330777 -0.665529,-0.657777 -0.96875,-0.99414 -0.06076,-0.06874 -0.389217,-0.876332 -0.464844,-2.148438 C 16.116362,8.148338 15.847375,6.9235904 15.261719,5.9511729 14.783261,5.1567487 14.052657,4.6743206 13.322266,4.3710938 13.209654,4.0196252 13.190517,3.6436216 12.927734,3.3476562 12.460224,2.8211076 11.716486,2.5 11.007812,2.5 Z m 0,1.5 c 0.664805,0 1.08718,0.500949 1.125,1.2441406 0.01505,0.1986701 0.121449,0.2863856 0.302735,0.3378906 1.216399,0.316407 2.145642,1.3110705 2.236328,4.2617188 0.08312,1.398141 0.324118,2.47146 0.837891,3.052734 0.370137,0.412077 0.793818,0.802223 0.990234,1.015625 V 14 H 5.5 V 13.91211 C 5.696433,13.698708 6.13371,13.308562 6.503906,12.896485 7.025195,12.315211 7.266248,11.241892 7.341797,9.843751 7.432457,6.8931027 8.371244,5.8984391 9.580078,5.5820322 9.768928,5.5305272 9.865816,5.4428117 9.880859,5.2441416 9.918682,4.500947 10.350575,4 11.007812,4 Z M 9,15.5 h 4 a 2,2 0 0 1 -2,2 2,2 0 0 1 -2,-2 z"
       class="ColorScheme-Text"
       fill="currentColor" />
  </g>
  <g
     id="22-22-notification-active">
    <rect
       width="22"
       height="22"
       ry="0"
       opacity="0"
       id="rect2322"
       x="21.992188"
       y="0"
       style="color:#363636;fill:#363636" />
    <path
       id="path2324"
       class="ColorScheme-Text"
       d="M 33 2.5 C 32.290779 2.5 31.553558 2.8207526 31.085938 3.34375 C 30.822587 3.6382872 30.800044 4.0178182 30.685547 4.3710938 C 29.958085 4.674117 29.229411 5.1559423 28.75 5.9492188 C 28.157635 6.9294008 27.885986 8.1679686 27.835938 9.796875 C 27.763188 11.043352 27.441874 11.826495 27.380859 11.894531 C 27.089353 12.219015 26.720924 12.535531 26.388672 12.896484 C 26.133813 13.173319 25.992295 13.535825 25.992188 13.912109 L 25.992188 14 C 25.99227 14.828391 26.663796 15.499917 27.492188 15.5 L 29.492188 15.5 A 3.5 3.5 0 0 0 32.992188 19 A 3.5 3.5 0 0 0 36.492188 15.5 L 38.492188 15.5 C 39.320579 15.499917 39.992105 14.828391 39.992188 14 L 39.992188 13.912109 C 39.99208 13.535825 39.850562 13.173319 39.595703 12.896484 C 39.291255 12.565708 38.930174 12.238706 38.626953 11.902344 C 38.566193 11.833604 38.237736 11.026011 38.162109 9.7539062 C 38.156915 9.5981972 38.148011 9.4494441 38.138672 9.3007812 A 3.5 3.5 0 0 1 37 9.5 A 3.5 3.5 0 0 1 36.644531 9.4746094 C 36.651588 9.5954859 36.660124 9.715599 36.664062 9.84375 C 36.747182 11.24189 36.988181 12.315211 37.501953 12.896484 C 37.87209 13.308561 38.295772 13.698708 38.492188 13.912109 L 38.492188 14 L 27.492188 14 L 27.492188 13.912109 C 27.68862 13.698708 28.125898 13.308561 28.496094 12.896484 C 29.017382 12.315211 29.258435 11.24189 29.333984 9.84375 C 29.424644 6.8931047 30.363433 5.8984378 31.572266 5.5820312 C 31.761115 5.5305263 31.858004 5.4428105 31.873047 5.2441406 C 31.91087 4.5009468 32.342764 4 33 4 C 33.378585 4 33.679899 4.1623208 33.875 4.4394531 A 3.5 3.5 0 0 1 34.833984 3.2617188 C 34.364385 2.7878868 33.668072 2.5 33 2.5 z M 30.992188 15.5 L 34.992188 15.5 A 2 2 0 0 1 32.992188 17.5 A 2 2 0 0 1 30.992188 15.5 z "
       fill="currentColor" />
    <circle
       id="circle2332"
       cx="37"
       cy="6"
       r="2"
       style="fill:#4cb0ff;fill-opacity:1" />
  </g>
  <g
     id="22-22-notification-inactive"
     transform="translate(22)">
    <rect
       width="22"
       height="22"
       ry="0"
       opacity="0"
       id="rect2351"
       x="21.992188"
       y="0"
       style="color:#363636;fill:#363636" />
    <path
       id="path2353"
       class="ColorScheme-Text"
       d="m 33,2.5 c -0.709221,0 -1.446442,0.3207526 -1.914062,0.84375 -0.263351,0.2945372 -0.285894,0.6740682 -0.400391,1.0273438 -0.727462,0.3030232 -1.456136,0.7848485 -1.935547,1.578125 -0.592365,0.980182 -0.864014,2.2187498 -0.914062,3.8476562 -0.07275,1.246477 -0.394064,2.02962 -0.455079,2.097656 -0.291506,0.324484 -0.659935,0.641 -0.992187,1.001953 -0.254859,0.276835 -0.396377,0.639341 -0.396484,1.015625 V 14 c 8.2e-5,0.828391 0.671608,1.499917 1.5,1.5 h 2 a 3.5,3.5 0 0 0 3.5,3.5 3.5,3.5 0 0 0 3.5,-3.5 h 2 c 0.828391,-8.3e-5 1.499917,-0.671609 1.5,-1.5 v -0.08789 c -1.08e-4,-0.376284 -0.141626,-0.73879 -0.396485,-1.015625 -0.304448,-0.330776 -0.665529,-0.657778 -0.96875,-0.99414 -0.06076,-0.06874 -0.389217,-0.876333 -0.464844,-2.1484378 -0.0052,-0.155709 -0.0141,-0.3044621 -0.02344,-0.453125 A 3.5,3.5 0 0 1 37,9.5 3.5,3.5 0 0 1 36.644531,9.4746094 c 0.0071,0.1208765 0.01559,0.2409896 0.01953,0.3691406 0.08312,1.39814 0.324119,2.471461 0.837891,3.052734 0.370137,0.412077 0.793819,0.802224 0.990235,1.015625 V 14 h -11 v -0.08789 c 0.196432,-0.213401 0.63371,-0.603548 1.003906,-1.015625 0.521288,-0.581273 0.762341,-1.654594 0.83789,-3.052734 0.09066,-2.9506453 1.029449,-3.9453122 2.238282,-4.2617188 0.188849,-0.051505 0.285738,-0.1392207 0.300781,-0.3378906 C 31.91087,4.5009468 32.342764,4 33,4 c 0.378585,0 0.679899,0.1623208 0.875,0.4394531 A 3.5,3.5 0 0 1 34.833984,3.2617188 C 34.364385,2.7878868 33.668072,2.5 33,2.5 Z m -2.007812,13 h 4 a 2,2 0 0 1 -2,2 2,2 0 0 1 -2,-2 z"
       fill="currentColor" />
    <circle
       id="circle2355"
       cx="37"
       cy="6"
       r="2"
       class="ColorScheme-Text"
       fill="currentColor"
       style="opacity:0.35" />
  </g>
  <g
     id="22-22-notification-disabled">
    <rect
       width="22"
       height="22"
       ry="0"
       opacity="0"
       id="rect2359"
       x="65.992188"
       y="0"
       style="color:#363636;fill:#363636" />
    <path
       id="path2361"
       d="m 77,2.5 c -0.709222,0 -1.446441,0.3207521 -1.914062,0.84375 -0.263351,0.2945375 -0.285894,0.6740679 -0.400391,1.0273438 -0.727463,0.3030236 -1.456136,0.7848478 -1.935547,1.578125 -0.592366,0.980183 -0.864013,2.2187482 -0.914062,3.8476562 -0.07275,1.246478 -0.394063,2.02962 -0.455078,2.097656 -0.291507,0.324484 -0.659936,0.640999 -0.992188,1.001953 -0.254859,0.276835 -0.396376,0.63934 -0.396484,1.015625 V 14 c 8.3e-5,0.828392 0.671608,1.499917 1.5,1.5 h 2 a 3.5,3.5 0 0 0 3.5,3.5 3.5,3.5 0 0 0 3.5,-3.5 h 2 c 0.828392,-8.3e-5 1.499917,-0.671608 1.5,-1.5 V 13.91211 C 83.99208,13.535825 83.850563,13.17332 83.595704,12.896485 83.291256,12.565708 82.930175,12.238708 82.626954,11.902345 82.566194,11.833605 82.237737,11.026013 82.16211,9.753907 82.10855,8.148338 81.839563,6.9235904 81.253907,5.9511729 80.775449,5.1567487 80.044845,4.6743206 79.314454,4.3710938 79.201842,4.0196252 79.182705,3.6436216 78.919922,3.3476562 78.452412,2.8211076 77.708674,2.5 77,2.5 Z M 77,4 c 0.664805,0 1.08718,0.500949 1.125,1.2441406 0.01505,0.1986701 0.121449,0.2863856 0.302735,0.3378906 1.216399,0.316407 2.145642,1.3110705 2.236328,4.2617188 0.08312,1.398141 0.324118,2.47146 0.837891,3.052734 0.370137,0.412077 0.793818,0.802223 0.990234,1.015625 V 14 h -11 v -0.08789 c 0.196433,-0.213402 0.63371,-0.603548 1.003906,-1.015625 0.521289,-0.581274 0.762342,-1.654593 0.837891,-3.052734 0.09066,-2.9506483 1.029447,-3.9453119 2.238281,-4.2617188 0.18885,-0.051505 0.285738,-0.1392205 0.300781,-0.3378906 C 75.91087,4.500947 76.342763,4 77,4 Z m -2.007812,11.5 h 4 a 2,2 0 0 1 -2,2 2,2 0 0 1 -2,-2 z"
       class="ColorScheme-Text"
       fill="currentColor"
       style="opacity:0.35" />
    <rect
       id="rect2367"
       width="28"
       height="1.5"
       x="48.219872"
       y="-47.413525"
       transform="rotate(45)"
       rx="0.75"
       ry="0.75"
       class="ColorScheme-Text"
       fill="currentColor" />
  </g>
</svg>
