<?xml version="1.0" encoding="UTF-8" standalone="no"?>
<svg
   id="svg118"
   viewBox="0 0 22 22"
   version="1.1"
   sodipodi:docname="preferences.svg"
   inkscape:version="1.2.2 (b0a8486541, 2022-12-01)"
   xmlns:inkscape="http://www.inkscape.org/namespaces/inkscape"
   xmlns:sodipodi="http://sodipodi.sourceforge.net/DTD/sodipodi-0.dtd"
   xmlns="http://www.w3.org/2000/svg"
   xmlns:svg="http://www.w3.org/2000/svg"
   xmlns:rdf="http://www.w3.org/1999/02/22-rdf-syntax-ns#"
   xmlns:cc="http://creativecommons.org/ns#"
   xmlns:dc="http://purl.org/dc/elements/1.1/">
  <sodipodi:namedview
     id="namedview68"
     pagecolor="#ffffff"
     bordercolor="#666666"
     borderopacity="1.0"
     inkscape:pageshadow="2"
     inkscape:pageopacity="0.0"
     inkscape:pagecheckerboard="0"
     showgrid="true"
     inkscape:zoom="16"
     inkscape:cx="66.1875"
     inkscape:cy="-39.5"
     inkscape:window-width="2270"
     inkscape:window-height="471"
     inkscape:window-x="232"
     inkscape:window-y="811"
     inkscape:window-maximized="0"
     inkscape:current-layer="svg118"
     inkscape:showpageshadow="2"
     inkscape:deskcolor="#d1d1d1">
    <inkscape:grid
       type="xygrid"
       id="grid975"
       spacingx="0.5"
       spacingy="0.5"
       color="#c700e5"
       opacity="0.14901961"
       empspacing="2" />
  </sodipodi:namedview>
  <metadata
     id="metadata122">
    <rdf:RDF>
      <cc:Work
         rdf:about="">
        <dc:format>image/svg+xml</dc:format>
        <dc:type
           rdf:resource="http://purl.org/dc/dcmitype/StillImage" />
      </cc:Work>
    </rdf:RDF>
  </metadata>
  <defs
     id="defs3">
    <style
       type="text/css"
       id="current-color-scheme">.ColorScheme-Text { color:#363636; }</style>
  </defs>
  <g
     id="preferences-desktop-notification">
    <rect
       id="rect5"
       fill-opacity="0"
       height="22"
       width="22"
       y="40"
       x="-1"
       style="color:#363636;fill:#363636" />
    <path
       id="circle11"
       class="ColorScheme-Text"
       d="M 10 42.5 A 8 8 0 0 0 2 50.5 A 8 8 0 0 0 10 58.5 A 8 8 0 0 0 18 50.5 A 8 8 0 0 0 10 42.5 z M 10 44 A 6.5 6.5 0 0 1 16.5 50.5 A 6.5 6.5 0 0 1 10 57 A 6.5 6.5 0 0 1 3.5 50.5 A 6.5 6.5 0 0 1 10 44 z M 10 45.5 C 9.5845008 45.5 9.229932 45.834985 9.25 46.25 L 9.5273438 51.998047 C 9.5474118 52.413061 9.7915786 52.5 10 52.5 C 10.241329 52.5 10.498659 52.4132 10.515625 51.998047 L 10.75 46.25 C 10.766965 45.834846 10.4155 45.5 10 45.5 z M 10 53.5 A 0.75 0.75 0 0 0 9.25 54.25 A 0.75 0.75 0 0 0 10 55 A 0.75 0.75 0 0 0 10.75 54.25 A 0.75 0.75 0 0 0 10 53.5 z "
       fill="currentColor" />
  </g>
  <g
     id="16-16-preferences-desktop-display-randr">
    <path
       id="rect1587"
       d="m -23,0.5 c -1.384998,0 -2.5,1.1150028 -2.5,2.5 v 6 c 0,1.384997 1.115002,2.5 2.5,2.5 h 11 c 1.384998,0 2.5,-1.115003 2.5,-2.5 V 3 c 0,-1.3849972 -1.115002,-2.5 -2.5,-2.5 z m 0,1 h 11 c 0.830998,0 1.5,0.6690016 1.5,1.5 v 6 c 0,0.8309984 -0.669002,1.5 -1.5,1.5 h -11 c -0.830998,0 -1.5,-0.6690016 -1.5,-1.5 V 3 c 0,-0.8309984 0.669002,-1.5 1.5,-1.5 z m 9,1 c -0.277,0 -0.5,0.2230003 -0.5,0.5 0,0.2769997 0.223,0.5 0.5,0.5 h 1.5 V 5 c 0,0.2769997 0.223,0.5 0.5,0.5 0.277,0 0.5,-0.2230003 0.5,-0.5 V 3 c 0,-0.2769997 -0.223,-0.5 -0.5,-0.5 z m -9,4 c -0.277,0 -0.5,0.2230003 -0.5,0.5 v 2 c 0,0.2769997 0.223,0.5 0.5,0.5 h 2 c 0.277,0 0.5,-0.2230003 0.5,-0.5 0,-0.2769997 -0.223,-0.5 -0.5,-0.5 h -1.5 V 7 c 0,-0.2769997 -0.223,-0.5 -0.5,-0.5 z m 2,6 c -0.277,0 -0.5,0.223 -0.5,0.5 0,0.277 0.223,0.5 0.5,0.5 h 7 c 0.277,0 0.5,-0.223 0.5,-0.5 0,-0.277 -0.223,-0.5 -0.5,-0.5 z"
       class="ColorScheme-Text"
       fill="currentColor" />
    <rect
       id="rect2146"
       width="16"
       height="16"
       x="-25.5"
       y="-1"
       rx="0"
       ry="0"
       style="fill:none" />
  </g>
  <g
     id="22-22-preferences-desktop-display-randr">
    <rect
       id="rect16-3"
       fill-opacity="0"
       height="22"
       width="22"
       x="0"
       y="0"
       style="color:#363636;fill:#363636" />
    <path
       id="rect2976"
       class="ColorScheme-Text"
       d="M 2.5 2 C 1.1150034 2 0 3.1150042 0 4.5 L 0 14.5 C 0 15.884997 1.1150034 17 2.5 17 L 19.5 17 C 20.884997 17 22 15.884997 22 14.5 L 22 4.5 C 22 3.1150042 20.884997 2 19.5 2 L 2.5 2 z M 2.5 3.5 L 19.5 3.5 C 20.053997 3.5 20.5 3.9460018 20.5 4.5 L 20.5 14.5 C 20.5 15.053997 20.053997 15.5 19.5 15.5 L 2.5 15.5 C 1.9460026 15.5 1.5 15.053997 1.5 14.5 L 1.5 4.5 C 1.5 3.9460018 1.9460026 3.5 2.5 3.5 z M 16 5 L 19 8 L 19 5 L 16 5 z M 3 11 L 3 14 L 6 14 L 3 11 z M 6.75 18.5 C 6.3345004 18.5 6 18.8345 6 19.25 C 6 19.6655 6.3345004 20 6.75 20 L 15.75 20 C 16.1655 20 16.5 19.6655 16.5 19.25 C 16.5 18.8345 16.1655 18.5 15.75 18.5 L 6.75 18.5 z "
       fill="currentColor" />
  </g>
  <g
     id="preferences-desktop-display-randr">
    <rect
       id="rect33-6"
       fill-opacity="0"
       height="32"
       width="32"
       x="-5"
       y="-36"
       style="color:#363636;fill:#363636" />
    <path
       id="path2984"
       d="m 0.5,-30 c -1.384998,0 -2.5,1.115003 -2.5,2.5 v 12 c 0,1.384998 1.115002,2.5 2.5,2.5 h 21 c 1.384998,0 2.5,-1.115002 2.5,-2.5 v -12 c 0,-1.384997 -1.115002,-2.5 -2.5,-2.5 z m 0,1.5 h 21 c 0.553998,0 1,0.446001 1,1 v 12 c 0,0.553998 -0.446002,1 -1,1 h -21 c -0.553998,0 -1,-0.446002 -1,-1 v -12 c 0,-0.553999 0.446002,-1 1,-1 z m 4.75,17 c -0.4155,0 -0.75,0.3345 -0.75,0.75 0,0.4155 0.3345,0.75 0.75,0.75 h 11.5 c 0.4155,0 0.75,-0.3345 0.75,-0.75 0,-0.4155 -0.3345,-0.75 -0.75,-0.75 z"
       class="ColorScheme-Text"
       fill="currentColor" />
    <path
       id="path3302"
       class="ColorScheme-Text"
       d="m 18,-27 3,3 v -3 z m -17,8 v 3 h 3 z"
       fill="currentColor" />
  </g>
  <g
     id="22-22-preferences-system-bluetooth">
    <rect
       id="rect44"
       fill="none"
       height="22"
       width="22"
       x="68"
       y="0"
       style="color:#363636" />
    <path
       id="path3581"
       d="m 79.187794,2.7522159 a 0.750075,0.750075 0 0 0 -0.267578,0.074219 0.750075,0.750075 0 0 0 -0.419922,0.6738281 v 5.9394531 l -3.78125,-3.0253906 a 0.75,0.75 0 0 0 -1.054688,0.1171875 0.75,0.75 0 0 0 0.117188,1.0546875 l 4.267578,3.4140625 -4.267578,3.414062 a 0.75,0.75 0 0 0 -0.117188,1.054688 0.75,0.75 0 0 0 1.054688,0.117188 l 3.78125,-3.025391 v 5.939453 a 0.750075,0.750075 0 0 0 1.210938,0.591797 l 4.5,-3.5 a 0.750075,0.750075 0 0 0 0.03711,-1.152344 L 80.3792,11.000262 84.248341,7.5608097 a 0.750075,0.750075 0 0 0 -0.03711,-1.1523438 l -4.5,-3.5 a 0.750075,0.750075 0 0 0 -0.523437,-0.15625 z m 0.8125,2.28125 2.578125,2.0058594 -2.578125,2.2910156 z m 0,7.6367181 2.578125,2.291016 -2.578125,2.005859 z"
       class="ColorScheme-Text"
       fill="currentColor" />
  </g>
  <g
     id="22-22-preferences-system-bluetooth-activated"
     transform="translate(-7.5)">
    <rect
       id="rect4086"
       fill="none"
       height="22"
       width="22"
       x="99.999702"
       y="0"
       style="color:#363636" />
    <path
       id="path4088"
       class="ColorScheme-Text"
       d="M 111.1875,2.7519531 A 0.750075,0.750075 0 0 0 110.91992,2.8261719 0.750075,0.750075 0 0 0 110.5,3.5 v 5.9394531 l -3.78125,-3.0253906 a 0.75,0.75 0 0 0 -1.05469,0.1171875 0.75,0.75 0 0 0 0.11719,1.0546875 L 110.04883,11 l -4.26758,3.414062 a 0.75,0.75 0 0 0 -0.11719,1.054688 0.75,0.75 0 0 0 1.05469,0.117188 L 110.5,12.560547 V 18.5 a 0.750075,0.750075 0 0 0 1.21094,0.591797 l 4.5,-3.5 a 0.750075,0.750075 0 0 0 0.0371,-1.152344 L 112.37891,11 116.24805,7.5605469 a 0.750075,0.750075 0 0 0 -0.0371,-1.1523438 l -4.5,-3.5 a 0.750075,0.750075 0 0 0 -0.52344,-0.15625 z M 112,5.0332031 114.57812,7.0390625 112,9.3300781 Z M 101,10 a 1,1 0 0 0 -1,1 1,1 0 0 0 1,1 1,1 0 0 0 1,-1 1,1 0 0 0 -1,-1 z m 4,0 a 1,1 0 0 0 -1,1 1,1 0 0 0 1,1 1,1 0 0 0 1,-1 1,1 0 0 0 -1,-1 z m 12,0 a 1,1 0 0 0 -1,1 1,1 0 0 0 1,1 1,1 0 0 0 1,-1 1,1 0 0 0 -1,-1 z m 4,0 a 1,1 0 0 0 -1,1 1,1 0 0 0 1,1 1,1 0 0 0 1,-1 1,1 0 0 0 -1,-1 z m -9,2.669922 2.57812,2.291016 L 112,16.966797 Z"
       fill="currentColor" />
  </g>
  <g
     id="22-22-preferences-system-bluetooth-inactive">
    <rect
       id="rect4216"
       fill="none"
       height="22"
       width="22"
       x="42.999706"
       y="0"
       style="color:#363636" />
    <path
       id="path4218"
       d="M 54.1875,2.7522159 A 0.750075,0.750075 0 0 0 53.919922,2.8264349 0.750075,0.750075 0 0 0 53.5,3.500263 V 9.4397161 L 49.71875,6.4143255 A 0.75,0.75 0 0 0 48.664062,6.531513 0.75,0.75 0 0 0 48.78125,7.5862005 l 4.267578,3.4140625 -4.267578,3.414062 a 0.75,0.75 0 0 0 -0.117188,1.054688 0.75,0.75 0 0 0 1.054688,0.117188 L 53.5,12.56081 v 5.939453 a 0.750075,0.750075 0 0 0 1.210938,0.591797 l 4.5,-3.5 a 0.750075,0.750075 0 0 0 0.03711,-1.152344 l -3.869142,-3.439454 3.869141,-3.4394523 a 0.750075,0.750075 0 0 0 -0.03711,-1.1523438 l -4.5,-3.5 A 0.750075,0.750075 0 0 0 54.1875,2.7522159 Z M 55,5.0334659 57.578125,7.0393253 55,9.3303409 Z M 55,12.670184 57.578125,14.9612 55,16.967059 Z"
       class="ColorScheme-Text"
       fill="currentColor"
       style="opacity:0.35" />
    <rect
       id="rect4224"
       width="22"
       height="1.5"
       x="34.961735"
       y="-31.155384"
       transform="rotate(45)"
       rx="0.75"
       ry="0.75"
       class="ColorScheme-Text"
       fill="currentColor" />
  </g>
  <g
     id="preferences-system-bluetooth"
     transform="translate(-33.99004,-1.532336)">
    <rect
       id="rect84"
       fill="none"
       height="32"
       width="32"
       y="41"
       x="101.48988"
       style="color:#363636" />
    <path
       id="path4233"
       d="m 117.74004,45.9375 c -0.0985,-1.54e-4 -0.19605,0.01909 -0.28711,0.05664 -0.28036,0.116195 -0.46307,0.389879 -0.46289,0.69336 v 8.18468 l -5.24219,-4.822266 c -0.14642,-0.134637 -0.34032,-0.205595 -0.53906,-0.197265 -0.19881,0.0077 -0.3864,0.09416 -0.52148,0.240234 -0.2808,0.305139 -0.26068,0.780233 0.0449,1.060547 l 6.25781,5.757812 v 0.179688 l -6.25781,5.755859 c -0.3043,0.280122 -0.32438,0.753711 -0.0449,1.058594 0.28031,0.305583 0.7554,0.325706 1.06054,0.04492 l 5.24219,-4.822264 V 67.3125 c -10e-4,0.669587 0.80849,1.00543 1.28125,0.53125 l 6,-5.313367 c 0.30283,-0.303299 0.29038,-0.798238 -0.0273,-1.085938 l -4.89067,-4.445312 4.89063,-4.445312 c 0.31768,-0.2877 0.33013,-0.782639 0.0273,-1.085938 l -6,-5.311633 c -0.14102,-0.140524 -0.33213,-0.219219 -0.53121,-0.21875 z m 0.75,2.5625 4.16211,3.473742 -4.16211,3.785157 z m 0,9.739367 4.16211,3.785157 L 118.49004,65.5 Z"
       class="ColorScheme-Text"
       fill="currentColor" />
  </g>
  <g
     id="preferences-system-bluetooth-inactive">
    <rect
       id="rect4268"
       fill="none"
       height="32"
       width="32"
       y="39.467663"
       x="32.999844"
       style="color:#363636" />
    <path
       id="path4270"
       d="m 49.250003,44.405164 c -0.0985,-1.54e-4 -0.19605,0.01909 -0.28711,0.05664 -0.28036,0.116195 -0.46307,0.389879 -0.46289,0.69336 v 8.18468 l -5.24219,-4.822266 c -0.14642,-0.134637 -0.34032,-0.205595 -0.53906,-0.197265 -0.19881,0.0077 -0.3864,0.09416 -0.52148,0.240234 -0.2808,0.305139 -0.26068,0.780233 0.0449,1.060547 l 6.25781,5.757812 v 0.179688 l -6.25781,5.755859 c -0.3043,0.280122 -0.32438,0.753711 -0.0449,1.058594 0.28031,0.305583 0.7554,0.325706 1.06054,0.04492 l 5.24219,-4.822264 v 8.184461 c -10e-4,0.669587 0.80849,1.00543 1.28125,0.53125 l 6,-5.313367 c 0.30283,-0.303299 0.29038,-0.798238 -0.0273,-1.085938 l -4.89067,-4.445312 4.89063,-4.445312 c 0.31768,-0.2877 0.33013,-0.782639 0.0273,-1.085938 l -6,-5.311633 c -0.14102,-0.140524 -0.33213,-0.219219 -0.53121,-0.21875 z m 0.75,2.5625 4.16211,3.473742 -4.16211,3.785157 z m 0,9.739367 4.16211,3.785157 -4.16211,3.475476 z"
       class="ColorScheme-Text"
       fill="currentColor"
       style="opacity:0.35" />
    <rect
       id="rect4276"
       width="32"
       height="1.5"
       x="57.869682"
       y="3.8234389"
       rx="0.75"
       ry="0.75"
       transform="rotate(45)"
       class="ColorScheme-Text"
       fill="currentColor" />
  </g>
  <g
     id="preferences-system-bluetooth-activated">
    <rect
       id="rect4285"
       fill="none"
       height="32"
       width="32"
       y="39.467663"
       x="102.49984"
       style="color:#363636" />
    <path
       id="path4287"
       d="m 118.75,44.405164 c -0.0985,-1.54e-4 -0.19605,0.01909 -0.28711,0.05664 -0.28036,0.116195 -0.46307,0.389879 -0.46289,0.69336 v 8.18468 l -5.24219,-4.822266 c -0.14642,-0.134637 -0.34032,-0.205595 -0.53906,-0.197265 -0.19881,0.0077 -0.3864,0.09416 -0.52148,0.240234 -0.2808,0.305139 -0.26068,0.780233 0.0449,1.060547 l 6.25781,5.757812 v 0.179688 l -6.25781,5.755859 c -0.3043,0.280122 -0.32438,0.753711 -0.0449,1.058594 0.28031,0.305583 0.7554,0.325706 1.06054,0.04492 L 118,57.595703 v 8.184461 c -0.001,0.669587 0.80849,1.00543 1.28125,0.53125 l 6,-5.313367 c 0.30283,-0.303299 0.29038,-0.798238 -0.0273,-1.085938 l -4.89067,-4.445312 4.89063,-4.445312 c 0.31768,-0.2877 0.33013,-0.782639 0.0273,-1.085938 l -6,-5.311633 c -0.14102,-0.140524 -0.33213,-0.219219 -0.53121,-0.21875 z m 0.75,2.5625 4.16211,3.473742 -4.16211,3.785157 z m 0,9.739367 4.16211,3.785157 -4.16211,3.475476 z"
       class="ColorScheme-Text"
       fill="currentColor" />
    <path
       id="path4295"
       class="ColorScheme-Text"
       d="m 105.5,54.5 c -0.55228,0 -1,0.447715 -1,1 0,0.552285 0.44772,1 1,1 0.55228,0 1,-0.447715 1,-1 0,-0.552285 -0.44772,-1 -1,-1 z m 4,0 c -0.55228,0 -1,0.447715 -1,1 0,0.552285 0.44772,1 1,1 0.55228,0 1,-0.447715 1,-1 0,-0.552285 -0.44772,-1 -1,-1 z"
       fill="currentColor" />
    <path
       id="path4301"
       class="ColorScheme-Text"
       d="m 127.5,54.5 c -0.55228,0 -1,0.447715 -1,1 0,0.552285 0.44772,1 1,1 0.55228,0 1,-0.447715 1,-1 0,-0.552285 -0.44772,-1 -1,-1 z m 4,0 c -0.55228,0 -1,0.447715 -1,1 0,0.552285 0.44772,1 1,1 0.55228,0 1,-0.447715 1,-1 0,-0.552285 -0.44772,-1 -1,-1 z"
       fill="currentColor" />
  </g>
  <g
     id="preferences-system-bluetooth-battery">
    <rect
       id="rect4311"
       fill="none"
       height="32"
       width="32"
       y="39.467663"
       x="137.49985"
       style="color:#363636" />
    <path
       id="path4313"
       d="m 150.24951,44.403537 c -0.0985,-1.54e-4 -0.19605,0.01909 -0.28711,0.05664 -0.28036,0.116195 -0.46307,0.389879 -0.46289,0.69336 v 8.18468 l -5.24219,-4.822266 c -0.14642,-0.134637 -0.34032,-0.205595 -0.53906,-0.197265 -0.19881,0.0077 -0.3864,0.09416 -0.52148,0.240234 -0.2808,0.305139 -0.26068,0.780233 0.0449,1.060547 l 6.25781,5.757812 v 0.179688 l -6.25781,5.755859 c -0.3043,0.280122 -0.32438,0.753711 -0.0449,1.058594 0.28031,0.305583 0.7554,0.325706 1.06054,0.04492 l 5.24219,-4.822264 v 8.184461 c -10e-4,0.669587 0.80849,1.00543 1.28125,0.53125 l 6,-5.313367 c 0.30283,-0.303299 0.29038,-0.798238 -0.0273,-1.085938 l -4.89067,-4.445312 4.89063,-4.445312 c 0.31768,-0.2877 0.33013,-0.782639 0.0273,-1.085938 l -6,-5.311633 c -0.14102,-0.140524 -0.33213,-0.219219 -0.53121,-0.21875 z m 0.75,2.5625 4.16211,3.473742 -4.16211,3.785157 z m 0,9.739367 4.16211,3.785157 -4.16211,3.475476 z"
       class="ColorScheme-Text"
       fill="currentColor" />
    <path
       id="path4317"
       fill="currentColor"
       class="ColorScheme-Text"
       d="m 161.49951,44.498373 c -1.662,0 -3,1.338 -3,3 v 16 c 0,1.662 1.338,3 3,3 1.662,0 3,-1.338 3,-3 v -16 c 0,-1.662 -1.338,-3 -3,-3 z m 0,1 c 1.108,0 2,0.892 2,2 v 16 c 0,1.108 -0.892,2 -2,2 -1.108,0 -2,-0.892 -2,-2 v -16 c 0,-1.108 0.892,-2 2,-2 z"
       style="opacity:0.5" />
    <rect
       id="rect4319"
       fill="currentColor"
       class="ColorScheme-Text"
       ry="1"
       height="18"
       width="2"
       y="46.498371"
       x="160.49951" />
  </g>
  <g
     id="22-22-preferences-system-bluetooth-battery">
    <rect
       id="rect4349"
       fill="none"
       height="22"
       width="22"
       x="117.5"
       y="0"
       style="color:#363636" />
    <path
       id="path4351"
       d="M 125.6875,2.7522159 A 0.750075,0.750075 0 0 0 125.41993,2.8264349 0.750075,0.750075 0 0 0 125,3.500263 v 5.9394531 l -3.78125,-3.0253906 a 0.75,0.75 0 0 0 -1.05468,0.1171875 0.75,0.75 0 0 0 0.11718,1.0546875 l 4.26758,3.4140625 -4.26758,3.414062 a 0.75,0.75 0 0 0 -0.11718,1.054688 0.75,0.75 0 0 0 1.05468,0.117188 L 125,12.56081 v 5.939453 a 0.750075,0.750075 0 0 0 1.21094,0.591797 l 4.5,-3.5 a 0.750075,0.750075 0 0 0 0.0371,-1.152344 l -3.86914,-3.439454 3.86914,-3.4394523 a 0.750075,0.750075 0 0 0 -0.0371,-1.1523438 l -4.5,-3.5 a 0.750075,0.750075 0 0 0 -0.52344,-0.15625 z m 0.8125,2.28125 2.57813,2.0058594 L 126.5,9.3303409 Z m 0,7.6367181 2.57813,2.291016 -2.57813,2.005859 z"
       class="ColorScheme-Text"
       fill="currentColor" />
    <path
       id="rect4357"
       d="m 135,3 c -1.385,0 -2.5,1.1150014 -2.5,2.5 v 11 c 0,1.384999 1.115,2.5 2.5,2.5 1.385,0 2.5,-1.115001 2.5,-2.5 V 5.5 C 137.5,4.1150014 136.385,3 135,3 Z m 0,1 c 0.831,0 1.5,0.6690008 1.5,1.5 v 11 c 0,0.830999 -0.669,1.5 -1.5,1.5 -0.831,0 -1.5,-0.669001 -1.5,-1.5 V 5.5 C 133.5,4.6690008 134.169,4 135,4 Z"
       class="ColorScheme-Text"
       fill="currentColor"
       style="opacity:0.5" />
    <rect
       id="rect4362"
       width="1"
       height="12"
       x="134.5"
       y="5"
       rx="0.5"
       ry="0.5"
       fill="currentColor"
       class="ColorScheme-Text" />
  </g>
</svg>
