<svg version="1.1" viewBox="0 0 22 22" xmlns="http://www.w3.org/2000/svg">
 <defs>
  <style id="current-color-scheme" type="text/css">.ColorScheme-Text { color:#363636; }</style>
 </defs>
 <g id="22-22-printer" class="ColorScheme-Text" fill="currentColor">
  <path d="m7 2c-1.108 0-2 0.892-2 2v1c-1.662 0-3 1.338-3 3v6c0 1.662 1.338 3 3 3v1c0 1.108 0.892 2 2 2h8c1.108 0 2-0.892 2-2v-1c1.662 0 3-1.338 3-3v-6c0-1.662-1.338-3-3-3v-1c0-1.108-0.892-2-2-2h-8zm0 2h8v1h-8v-1zm-2 3h12c0.554 0 1 0.446 1 1v6c0 0.554-0.446 1-1 1v-4c0-1.108-0.892-2-2-2h-8c-1.108 0-2 0.892-2 2v4c-0.554 0-1-0.446-1-1v-6c0-0.554 0.446-1 1-1zm2 4h8v4 3h-8v-1-2-4zm1 2v1h6v-1h-6zm0 2v1h6v-1h-6z"/>
  <rect width="22" height="22" fill-opacity="0"/>
 </g>
 <g id="printer" class="ColorScheme-Text" fill="currentColor">
  <g transform="translate(-80.491 3.9007)">
   <path d="m45 15c0 0.554 0.446 1 1 1h1v-1zm16 0v1h1c0.554 0 1-0.446 1-1z"/>
   <path d="m46 14v3c0 1.108 0.892 2 2 2h12c1.108 0 2-0.892 2-2v-3h-1v3c0 0.554-0.446 1-1 1h-12c-0.554 0-1-0.446-1-1v-3z"/>
   <rect x="47" y="5" width="14" height="7" ry="1" opacity=".5"/>
   <path d="m49-6c-1.108 0-2 0.892-2 2v7.3047c0 0.74358 0.4067 1.3838 1.0059 1.7285-3.96e-4 -0.011619-0.0059-0.021484-0.0059-0.033203v-9c0-0.554 0.446-1 1-1h10c0.554 0 1 0.446 1 1v9c0 0.011719-0.0055 0.021584-0.0059 0.033203 0.5992-0.3447 1.0059-0.98493 1.0059-1.7285v-7.3047c0-1.108-0.892-2-2-2z"/>
   <path d="m47-1c-1.108 0-2 0.892-2 2v5h4c-0.554 0-1-0.446-1-1v-6zm13 0v6c0 0.554-0.446 1-1 1h4v-5c0-1.108-0.892-2-2-2z"/>
   <path d="m44 5c-1.108 0-2 0.892-2 2v6c0 1.108 0.892 2 2 2h20c1.108 0 2-0.892 2-2v-6c0-1.108-0.892-2-2-2zm0 1h20c0.554 0 1 0.446 1 1v6c0 0.554-0.446 1-1 1h-20c-0.554 0-1-0.446-1-1v-6c0-0.554 0.446-1 1-1z"/>
  </g>
  <rect x="-42.491" y="-5.5993" width="32" height="32" fill-opacity="0"/>
 </g>
</svg>
