<?xml version="1.0" encoding="UTF-8" standalone="no"?>
<svg
   version="1.1"
   viewBox="0 0 22 22"
   id="svg27"
   sodipodi:docname="printer.svg"
   inkscape:version="1.2.2 (b0a8486541, 2022-12-01)"
   xmlns:inkscape="http://www.inkscape.org/namespaces/inkscape"
   xmlns:sodipodi="http://sodipodi.sourceforge.net/DTD/sodipodi-0.dtd"
   xmlns="http://www.w3.org/2000/svg"
   xmlns:svg="http://www.w3.org/2000/svg">
  <sodipodi:namedview
     id="namedview29"
     pagecolor="#ffffff"
     bordercolor="#666666"
     borderopacity="1.0"
     inkscape:pageshadow="2"
     inkscape:pageopacity="0.0"
     inkscape:pagecheckerboard="0"
     showgrid="true"
     inkscape:snap-bbox="true"
     inkscape:bbox-nodes="true"
     inkscape:snap-nodes="true"
     inkscape:zoom="5.6568543"
     inkscape:cx="-3.8006989"
     inkscape:cy="26.958446"
     inkscape:window-width="3840"
     inkscape:window-height="2034"
     inkscape:window-x="0"
     inkscape:window-y="58"
     inkscape:window-maximized="1"
     inkscape:current-layer="svg27"
     inkscape:showpageshadow="2"
     inkscape:deskcolor="#d1d1d1">
    <inkscape:grid
       type="xygrid"
       id="grid846"
       spacingx="0.5"
       spacingy="0.5"
       empspacing="2"
       color="#e500da"
       opacity="0.14901961" />
  </sodipodi:namedview>
  <defs
     id="defs3">
    <style
       id="current-color-scheme"
       type="text/css">.ColorScheme-Text { color:#363636; }</style>
  </defs>
  <g
     id="22-22-printer">
    <rect
       width="22"
       height="22"
       fill-opacity="0"
       id="rect7"
       x="0"
       y="0"
       style="color:#363636;fill:#363636" />
    <path
       id="rect345"
       d="M 8,3 C 6.8920033,3 6,3.8920032 6,5 V 6 H 5 C 3.8920033,6 3,6.8920033 3,8 v 7 c 0,1.107997 0.8920033,2 2,2 h 1 c 0,1.107998 0.8920022,2 2,2 h 6 c 1.107998,0 2,-0.892002 2,-2 h 1 c 1.107997,0 2,-0.892003 2,-2 V 8 C 19,6.8920033 18.107997,6 17,6 H 16 V 5 C 16,3.8920032 15.107997,3 14,3 Z m 0,1.5 h 6 c 0.277,0 0.5,0.2230006 0.5,0.5 v 1 h -7 V 5 C 7.5,4.7230006 7.7230009,4.5 8,4.5 Z m -3,3 h 12 c 0.277,0 0.5,0.2230009 0.5,0.5 v 7 c 0,0.277 -0.223,0.5 -0.5,0.5 H 16 V 12 c 0,-1.107998 -0.892002,-2 -2,-2 H 8 c -1.1079978,0 -2,0.892002 -2,2 v 3.5 H 5 C 4.7230009,15.5 4.5,15.277 4.5,15 V 8 C 4.5,7.7230009 4.7230009,7.5 5,7.5 Z m 10.5,1 C 15.223858,8.5 15,8.7238576 15,9 15,9.2761424 15.223858,9.5 15.5,9.5 15.776142,9.5 16,9.2761424 16,9 16,8.7238576 15.776142,8.5 15.5,8.5 Z m -7.5,3 h 6 c 0.277,0 0.5,0.223 0.5,0.5 v 5 c 0,0.277 -0.223,0.5 -0.5,0.5 H 8 C 7.7230006,17.5 7.5,17.277 7.5,17 v -5 c 0,-0.277 0.2230006,-0.5 0.5,-0.5 z"
       class="ColorScheme-Text"
       fill="currentColor" />
  </g>
  <g
     id="printer">
    <rect
       width="32"
       height="32"
       id="rect518"
       x="-37"
       y="-3"
       style="fill:none" />
    <path
       id="rect1388"
       d="M -25.5,2 C -26.884997,2 -28,3.1150038 -28,4.5 v 1 h -1 c -1.938994,0 -3.5,1.5610057 -3.5,3.5 v 8.5 c 0,1.938994 1.561006,3.5 3.5,3.5 h 1 v 0.5 c 0,1.384998 1.115002,2.5 2.5,2.5 h 9 c 1.384998,0 2.5,-1.115002 2.5,-2.5 V 21 h 1 c 1.938994,0 3.5,-1.561006 3.5,-3.5 V 9 c 0,-1.9389943 -1.561006,-3.5 -3.5,-3.5 h -1 v -1 C -14,3.1150038 -15.115003,2 -16.5,2 Z m 0,1.5 h 9 c 0.553997,0 1,0.4460022 1,1 v 1 h -11 v -1 c 0,-0.5539978 0.446003,-1 1,-1 z M -29,7 h 16 c 1.107997,0 2,0.8920033 2,2 v 8.5 c 0,1.107997 -0.892003,2 -2,2 h -1 v -5 c 0,-1.384998 -1.115002,-2.5 -2.5,-2.5 h -9 c -1.384998,0 -2.5,1.115002 -2.5,2.5 v 5 h -1 c -1.107997,0 -2,-0.892003 -2,-2 V 9 c 0,-1.1079967 0.892003,-2 2,-2 z m 14,1.5 c -0.552285,0 -1,0.4477153 -1,1 0,0.552285 0.447715,1 1,1 0.552285,0 1,-0.447715 1,-1 0,-0.5522847 -0.447715,-1 -1,-1 z m -10.5,5 h 9 c 0.553998,0 1,0.446002 1,1 v 7 c 0,0.553998 -0.446002,1 -1,1 h -9 c -0.553998,0 -1,-0.446002 -1,-1 v -7 c 0,-0.553998 0.446002,-1 1,-1 z m 1.25,2 c -0.4155,0 -0.75,0.3345 -0.75,0.75 0,0.4155 0.3345,0.75 0.75,0.75 h 6.5 c 0.4155,0 0.75,-0.3345 0.75,-0.75 0,-0.4155 -0.3345,-0.75 -0.75,-0.75 z m 0,3.5 c -0.4155,0 -0.75,0.3345 -0.75,0.75 0,0.4155 0.3345,0.75 0.75,0.75 h 6.5 c 0.4155,0 0.75,-0.3345 0.75,-0.75 0,-0.4155 -0.3345,-0.75 -0.75,-0.75 z"
       class="ColorScheme-Text"
       fill="currentColor" />
  </g>
</svg>
