<?xml version="1.0" encoding="UTF-8" standalone="no"?>
<svg
   xmlns:dc="http://purl.org/dc/elements/1.1/"
   xmlns:cc="http://creativecommons.org/ns#"
   xmlns:rdf="http://www.w3.org/1999/02/22-rdf-syntax-ns#"
   xmlns:svg="http://www.w3.org/2000/svg"
   xmlns="http://www.w3.org/2000/svg"
   xmlns:sodipodi="http://sodipodi.sourceforge.net/DTD/sodipodi-0.dtd"
   xmlns:inkscape="http://www.inkscape.org/namespaces/inkscape"
   sodipodi:docname="quassel.svgz"
   height="100%"
   width="100%"
   inkscape:version="1.0 (4035a4fb49, 2020-05-01)"
   version="1.1"
   id="svg"
   viewBox="0 0 22 22">
  <defs
     id="defs81">
    <style
       type="text/css"
       id="current-color-scheme">
      .ColorScheme-Text {
        color:#7B7C7E;
      }
      .ColorScheme-Background{
        color:#EFF0F1;
      }
      .ColorScheme-Highlight{
        color:#3DAEE6;
      }
      .ColorScheme-ViewText {
        color:#7B7C7E;
      }
      .ColorScheme-ViewBackground{
        color:#FCFCFC;
      }
      .ColorScheme-ViewHover {
        color:#3DAEE6;
      }
      .ColorScheme-ViewFocus{
        color:#1E92FF;
      }
      .ColorScheme-ButtonText {
        color:#7B7C7E;
      }
      .ColorScheme-ButtonBackground{
        color:#EFF0F1;
      }
      .ColorScheme-ButtonHover {
        color:#3DAEE6;
      }
      .ColorScheme-ButtonFocus{
        color:#1E92FF;
      }
</style>
  </defs>
  <metadata
     id="metadata34">
    <rdf:RDF>
      <cc:Work
         rdf:about="">
        <dc:format>image/svg+xml</dc:format>
        <dc:type
           rdf:resource="http://purl.org/dc/dcmitype/StillImage" />
        <dc:title></dc:title>
      </cc:Work>
    </rdf:RDF>
  </metadata>
  <sodipodi:namedview
     inkscape:document-rotation="0"
     inkscape:snap-bbox="true"
     inkscape:guide-bbox="true"
     showguides="true"
     borderlayer="true"
     inkscape:current-layer="svg"
     inkscape:window-maximized="1"
     inkscape:window-y="32"
     inkscape:window-x="0"
     inkscape:cy="7.741729"
     inkscape:cx="18.732909"
     inkscape:zoom="11.313708"
     showgrid="true"
     id="namedview32"
     inkscape:window-height="1048"
     inkscape:window-width="1920"
     inkscape:pageshadow="2"
     inkscape:pageopacity="0.03921569"
     guidetolerance="10"
     gridtolerance="10"
     objecttolerance="10"
     borderopacity="1"
     bordercolor="#666666"
     pagecolor="#5c5c5c">
    <inkscape:grid
       empopacity="0.07843137"
       empcolor="#0000ff"
       opacity="0.03921569"
       color="#0000ff"
       snapvisiblegridlinesonly="true"
       enabled="true"
       visible="true"
       empspacing="4"
       id="grid3046"
       type="xygrid" />
  </sodipodi:namedview>
  <g
     transform="translate(-1,-1)"
     id="quassel">
    <rect
       style="fill:#363636;fill-opacity:0.01000001;stroke:none;opacity:0"
       id="rect3881"
       width="22"
       height="22"
       x="1"
       y="1" />
    <path
       inkscape:connector-curvature="0"
       class="ColorScheme-Text"
       id="path2999"
       transform="translate(1,1)"
       d="m 11,3 c -4.418278,0 -8,3.581722 -8,8 0,4.418278 3.581722,8 8,8 4.418278,0 8,-3.581722 8,-8 0,-4.418278 -3.581722,-8 -8,-8 z m 0,1 c 3.865993,0 7,3.1340068 7,7 0,3.865993 -3.134007,7 -7,7 C 7.1340068,18 4,14.865993 4,11 4,7.1340068 7.1340068,4 11,4 z m 2,7 c -1.656854,0 -3,1.343146 -3,3 0,1.656854 1.343146,3 3,3 1.656854,0 3,-1.343146 3,-3 0,-1.656854 -1.343146,-3 -3,-3 z"
       style="fill:#363636;fill-opacity:1;stroke:none" />
  </g>
  <g
     id="quassel_inactive"
     transform="translate(-25,-1)">
    <rect
       y="1"
       x="1"
       height="22"
       width="22"
       id="rect3777"
       style="fill:#363636;fill-opacity:0.01000001;stroke:none;opacity:0" />
    <path
       style="opacity:0.2;fill:#363636;fill-opacity:1;stroke:none"
       d="m 11,3 c -4.418278,0 -8,3.581722 -8,8 0,4.418278 3.581722,8 8,8 4.418278,0 8,-3.581722 8,-8 0,-4.418278 -3.581722,-8 -8,-8 z m 0,1 c 3.865993,0 7,3.1340068 7,7 0,3.865993 -3.134007,7 -7,7 C 7.1340068,18 4,14.865993 4,11 4,7.1340068 7.1340068,4 11,4 z m 2,7 c -1.656854,0 -3,1.343146 -3,3 0,1.656854 1.343146,3 3,3 1.656854,0 3,-1.343146 3,-3 0,-1.656854 -1.343146,-3 -3,-3 z"
       transform="translate(1,1)"
       id="path3779"
       class="ColorScheme-Text"
       inkscape:connector-curvature="0" />
  </g>
  <g
     id="quassel_message"
     transform="translate(23,-1)">
    <rect
       y="1"
       x="1"
       height="22"
       width="22"
       id="rect3785"
       style="fill:#363636;fill-opacity:0.01000001;stroke:none;opacity:0" />
    <path
       style="fill:currentColor;fill-opacity:1;stroke:none"
       d="m 11,3 c -4.418278,0 -8,3.581722 -8,8 0,4.418278 3.581722,8 8,8 4.418278,0 8,-3.581722 8,-8 0,-4.418278 -3.581722,-8 -8,-8 z m 0,1 c 3.865993,0 7,3.1340068 7,7 0,3.865993 -3.134007,7 -7,7 C 7.1340068,18 4,14.865993 4,11 4,7.1340068 7.1340068,4 11,4 z m 2,7 c -1.656854,0 -3,1.343146 -3,3 0,1.656854 1.343146,3 3,3 1.656854,0 3,-1.343146 3,-3 0,-1.656854 -1.343146,-3 -3,-3 z"
       transform="translate(1,1)"
       id="path3787"
       class="ColorScheme-Highlight"
       inkscape:connector-curvature="0" />
  </g>
</svg>
