<?xml version="1.0" encoding="UTF-8" standalone="no"?>
<svg
   version="1.1"
   viewBox="0 0 54 32"
   id="svg20"
   sodipodi:docname="start.svg"
   inkscape:version="1.2.2 (b0a8486541, 2022-12-01)"
   xmlns:inkscape="http://www.inkscape.org/namespaces/inkscape"
   xmlns:sodipodi="http://sodipodi.sourceforge.net/DTD/sodipodi-0.dtd"
   xmlns="http://www.w3.org/2000/svg"
   xmlns:svg="http://www.w3.org/2000/svg">
  <sodipodi:namedview
     id="namedview22"
     pagecolor="#ffffff"
     bordercolor="#666666"
     borderopacity="1.0"
     inkscape:pageshadow="2"
     inkscape:pageopacity="0.0"
     inkscape:pagecheckerboard="0"
     showgrid="true"
     inkscape:zoom="11.446291"
     inkscape:cx="12.449448"
     inkscape:cy="12.88627"
     inkscape:window-width="1920"
     inkscape:window-height="1014"
     inkscape:window-x="0"
     inkscape:window-y="32"
     inkscape:window-maximized="1"
     inkscape:current-layer="svg20"
     inkscape:showpageshadow="2"
     inkscape:deskcolor="#d1d1d1">
    <inkscape:grid
       type="xygrid"
       id="grid830" />
  </sodipodi:namedview>
  <defs
     id="defs3">
    <style
       id="current-color-scheme"
       type="text/css">.ColorScheme-Text { color:#363636; }</style>
  </defs>
  <g
     id="16-16-start-here-kde"
     class="ColorScheme-Text"
     transform="translate(24,39)"
     fill="currentColor">
    <rect
       x="-40"
       y="-23"
       width="16"
       height="16"
       ry=".45344"
       opacity="0"
       id="rect5" />
    <path
       d="m -29.939,-20.73459 c 0.4829,-0.60124 0.81032,-1.4181 0.71998,-2.246 -0.69552,0.02917 -1.5621,0.4831 -2.0641,1.0668 -0.44346,0.51791 -0.83742,1.3644 -0.73539,2.1624 0.78053,0.05826 1.5799,-0.39496 2.0795,-0.98313 z m 1.7598,5.2017 c -0.01668,-1.7705 1.4487,-2.6302 1.5151,-2.6712 -0.82904,-1.21 -2.1145,-1.374 -2.5678,-1.3889 -1.0803,-0.11007 -2.1261,0.64909 -2.6772,0.64909 -0.56087,-7.8e-5 -1.4079,-0.63596 -2.3201,-0.61787 -1.1758,0.01758 -2.2769,0.69842 -2.8797,1.7527 -1.2409,2.1549 -0.31584,5.3199 0.87605,7.0575 0.59706,0.85536 1.2926,1.8074 2.2048,1.7698 0.89221,-0.033911 1.2248,-0.56649 2.3032,-0.56649 1.0671,0 1.3797,0.56649 2.3106,0.54826 0.95809,-0.015711 1.5606,-0.8569 2.137,-1.7158 0.68644,-0.97981 0.96361,-1.9404 0.97467,-1.9915 -0.02136,-0.0079 -1.8571,-0.70607 -1.8767,-2.8257 z"
       id="path7" />
  </g>
  <g
     id="22-22-start-here-kde"
     class="ColorScheme-Text"
     transform="matrix(1.375,0,0,1.375,55,41.625)"
     fill="currentColor">
    <rect
       x="-40"
       y="-23"
       width="16"
       height="16"
       ry=".45344"
       opacity="0"
       id="rect10" />
    <path
       d="m -30.28691,-19.66296 c 0.401401,-0.499729 0.673546,-1.178702 0.598451,-1.866803 -0.578129,0.02424 -1.298468,0.401541 -1.71569,0.886722 -0.36861,0.430471 -0.696077,1.134102 -0.611262,1.797301 0.648785,0.04843 1.31327,-0.328281 1.728491,-0.817149 z m 1.462777,4.323505 c -0.01386,-1.471601 1.204165,-2.186103 1.259366,-2.220201 -0.689106,-1.005703 -1.757593,-1.142002 -2.134312,-1.154403 -0.897978,-0.09149 -1.767194,0.53951 -2.225316,0.53951 -0.466206,-6.4e-5 -1.170262,-0.52859 -1.928502,-0.51356 -0.977361,0.01462 -1.8926,0.580511 -2.393626,1.456801 -1.031454,1.791102 -0.262524,4.421706 0.728188,5.866007 0.496286,0.710951 1.074357,1.5023013 1.832695,1.471002 0.741621,-0.028181 1.018055,-0.470851 1.914402,-0.470851 0.886967,0 1.146761,0.470851 1.920601,0.4557012 0.796372,-0.013056 1.297268,-0.7122312 1.776294,-1.4261022 0.570579,-0.814381 0.800972,-1.612802 0.810162,-1.655302 -0.01775,-0.0064 -1.54368,-0.586861 -1.559982,-2.348602 z"
       id="path12" />
  </g>
  <g
     id="start-here-kde"
     class="ColorScheme-Text"
     transform="matrix(2,0,0,2,102,46)"
     fill="currentColor">
    <rect
       x="-40"
       y="-23"
       width="16"
       height="16"
       ry=".45344"
       opacity="0"
       id="rect15" />
    <path
       d="m -30.379919,-19.22013 c 0.37944,-0.472401 0.636712,-1.114203 0.565729,-1.764704 -0.546508,0.02292 -1.227462,0.379581 -1.621882,0.838232 -0.348457,0.406932 -0.658003,1.072102 -0.577829,1.699003 0.613301,0.04577 1.241463,-0.31032 1.633982,-0.77246 z m 1.38277,4.087009 c -0.0131,-1.391103 1.138356,-2.066605 1.190458,-2.098805 -0.651422,-0.950712 -1.661482,-1.079502 -2.0176,-1.091302 -0.848862,-0.0865 -1.670584,0.510001 -2.103606,0.510001 -0.440702,-6.1e-5 -1.106255,-0.499681 -1.822991,-0.48547 -0.923916,0.01381 -1.78909,0.54876 -2.262713,1.377202 -0.975079,1.693104 -0.248173,4.17991 0.688365,5.545212 0.469143,0.672072 1.015651,1.4201031 1.732386,1.3906031 0.701055,-0.026645 0.962408,-0.4451011 1.80979,-0.4451011 0.838463,0 1.084055,0.4451011 1.815592,0.430781 0.752818,-0.01234 1.226261,-0.673281 1.679184,-1.348103 0.539377,-0.769851 0.757168,-1.524602 0.765859,-1.564803 -0.01678,-0.0063 -1.459175,-0.554771 -1.474674,-2.220206 z"
       id="path17" />
  </g>
</svg>
