<?xml version="1.0" encoding="UTF-8" standalone="no"?>
<svg
   version="1.1"
   viewBox="0 0 54 128"
   id="svg197"
   sodipodi:docname="system.svg"
   inkscape:version="1.2.2 (b0a8486541, 2022-12-01)"
   xmlns:inkscape="http://www.inkscape.org/namespaces/inkscape"
   xmlns:sodipodi="http://sodipodi.sourceforge.net/DTD/sodipodi-0.dtd"
   xmlns="http://www.w3.org/2000/svg"
   xmlns:svg="http://www.w3.org/2000/svg">
  <sodipodi:namedview
     id="namedview199"
     pagecolor="#ffffff"
     bordercolor="#666666"
     borderopacity="1.0"
     inkscape:pageshadow="2"
     inkscape:pageopacity="0.0"
     inkscape:pagecheckerboard="0"
     showgrid="true"
     inkscape:snap-bbox="true"
     inkscape:snap-bbox-edge-midpoints="false"
     inkscape:bbox-nodes="true"
     inkscape:snap-smooth-nodes="true"
     inkscape:zoom="5.6568545"
     inkscape:cx="45.166444"
     inkscape:cy="13.523417"
     inkscape:window-width="3840"
     inkscape:window-height="2034"
     inkscape:window-x="0"
     inkscape:window-y="58"
     inkscape:window-maximized="1"
     inkscape:current-layer="svg197"
     inkscape:snap-nodes="false"
     inkscape:showpageshadow="2"
     inkscape:deskcolor="#d1d1d1"
     showguides="true">
    <inkscape:grid
       type="xygrid"
       id="grid1038"
       spacingx="0.5"
       spacingy="0.5"
       empspacing="2"
       color="#e500b2"
       opacity="0.14901961" />
  </sodipodi:namedview>
  <defs
     id="defs3">
    <style
       id="current-color-scheme"
       type="text/css">.ColorScheme-Text { color:#363636; }</style>
  </defs>
  <g
     id="22-22-system-save-session"
     transform="translate(62,94)">
    <path
       class="ColorScheme-Text"
       d="m 3,13.004 v 16 H 19 V 16.305 H 18.993 L 19,16.29 15.707,12.997 15.699,13.012 V 12.997 H 3 Z m 1,1.0018 h 3 v 5 h 8 v -5 h 0.29298 l 2.707,2.707 v 11.293 h -2 v -7 h -10 v 7 h -2 v -14 z m 4,0 h 3.9004 v 4 H 8 Z m -1,8.0001 h 8 v 6 H 7 Z"
       fill="currentColor"
       id="path5" />
    <path
       d="M 0,10 V 32 H 22 V 10 Z"
       fill="none"
       id="path7" />
  </g>
  <g
     id="system-save-session"
     transform="translate(62,94)">
    <path
       class="ColorScheme-Text"
       d="M 26,4 V 28 H 50 V 10 L 44,4 Z m 1,1 h 5 v 8 H 43 V 5 h 0.58594 l 5.4141,5.4141 v 16.586 h -4 v -8 h -14 v 8 h -4 v -22 z m 6,0 h 6 v 7 h -6 z m -1,15 h 12 v 7 H 32 Z"
       fill="currentColor"
       id="path10" />
    <path
       d="M 22,0 V 32 H 54 V 0 Z"
       fill="none"
       id="path12" />
  </g>
  <g
     id="22-22-system-users"
     transform="translate(62,30)">
    <path
       class="ColorScheme-Text"
       d="m 14,13 c -1.662,0 -3,1.338 -3,3 0,1.662 1.338,3 3,3 1.662,0 3,-1.338 3,-3 0,-1.662 -1.338,-3 -3,-3 z m -6,3 c -1.662,0 -3,1.338 -3,3 0,1.662 1.338,3 3,3 1.662,0 3,-1.338 3,-3 0,-1.662 -1.338,-3 -3,-3 z m 6,4 c -0.64635,0 -1.256,0.13409 -1.8184,0.36133 l 0.45508,0.91406 C 13.0645,21.11489 13.51444,21 13.99998,21 c 2.216,0 4,1.784 4,4 h -3.5 l 0.5,1 h 4 v -1 c 0,-2.77 -2.23,-5 -5,-5 z m -6,3 c -2.77,0 -5,2.23 -5,5 v 1 h 10 v -1 c 0,-2.77 -2.23,-5 -5,-5 z m 0,1 c 2.216,0 4,1.784 4,4 H 4 c 0,-2.216 1.784,-4 4,-4 z"
       fill="currentColor"
       id="path15" />
    <path
       d="M 0,10 V 32 H 22 V 10 Z"
       fill="none"
       id="path17" />
  </g>
  <g
     id="system-users"
     transform="translate(62,30)">
    <path
       class="ColorScheme-Text"
       d="M 42.5,4 A 4.5,4.5 0 0 0 38,8.5 4.5,4.5 0 0 0 42.5,13 4.5,4.5 0 0 0 47,8.5 4.5,4.5 0 0 0 42.5,4 Z m 0,1 A 3.5,3.5 0 0 1 46,8.5 3.5,3.5 0 0 1 42.5,12 3.5,3.5 0 0 1 39,8.5 3.5,3.5 0 0 1 42.5,5 Z m -9,4 C 31.0147,9 29,11.0147 29,13.5 29,15.9853 31.0147,18 33.5,18 35.9853,18 38,15.9853 38,13.5 38,11.0147 35.9853,9 33.5,9 Z m 0,1 A 3.5,3.5 0 0 1 37,13.5 3.5,3.5 0 0 1 33.5,17 3.5,3.5 0 0 1 30,13.5 3.5,3.5 0 0 1 33.5,10 Z m 9,4 c -0.88285,0.003 -1.7583,0.17228 -2.5859,0.5 -0.06618,0.42368 -0.17413,0.83977 -0.32226,1.2422 0.90271,-0.48731 1.8984,-0.74142 2.9082,-0.74219 3.5899,0 6.5,3.134 6.5,7 h -8.3418 c 0.17032,0.32329 0.3255,0.65711 0.46484,1 h 8.877 v -1 c 0,-4.4183 -3.3579,-8 -7.5,-8 z m -9,5 C 29.3579,19 26,22.5817 26,27 v 1 h 15 v -1 c 0,-4.4183 -3.3579,-8 -7.5,-8 z m 0,1 c 3.5899,0 6.5,3.134 6.5,7 H 27 c 0,-3.866 2.9101,-7 6.5,-7 z"
       fill="currentColor"
       id="path20" />
    <path
       d="M 22,0 V 32 H 54 V 0 Z"
       fill="none"
       id="path22" />
  </g>
  <g
     id="22-22-system-search"
     transform="translate(62,-2)">
    <path
       d="M 0,10 V 32 H 22 V 10 Z"
       fill="none"
       id="path5-3" />
    <path
       class="ColorScheme-Text"
       d="m 9.4939,13.994 c -3.026,0 -5.5,2.474 -5.5,5.5 0,3.026 2.474,5.5 5.5,5.5 a 5.46,5.46 0 0 0 3.112,-0.975 l 3.681,3.682 a 1,1 0 1 0 1.414,-1.414 l -3.681,-3.682 a 5.46,5.46 0 0 0 0.974,-3.111 c 0,-3.026 -2.474,-5.5 -5.5,-5.5 z m 0,1.25 a 4.25,4.25 0 0 1 4.25,4.25 4.25,4.25 0 0 1 -4.25,4.25 4.25,4.25 0 0 1 -4.25,-4.25 4.25,4.25 0 0 1 4.25,-4.25 z"
       fill="currentColor"
       id="path7-6" />
  </g>
  <g
     id="system-user-list"
     transform="translate(62,62)">
    <path
       class="ColorScheme-Text"
       d="m 45,9 c -0.58947,0 -1.133,0.17457 -1.5938,0.46875 0.04318,0.46425 0.0075,0.92267 -0.008,1.3359 0.37711,-0.50585 0.9708,-0.80409 1.6018,-0.80463 1.1046,0 2,0.89543 2,2 0,1.10457 -0.89543,2 -2,2 -1.0405,-5.56e-4 -1.9068,-0.7989 -1.9922,-1.8359 -0.18434,0.41948 -0.46466,0.77032 -0.6956,1.0996 -10e-4,0.0013 -0.003,0.0026 -0.004,0.0039 0.476,1.0197 1.4888,1.7324 2.6918,1.7324 1.6612,0 2.998,-1.338 2.998,-3 0,-1.662 -1.3369,-3 -2.998,-3 z m -7,9 c 4.432,0 8,3.568 8,8 H 30 c 0,-4.432 3.568,-8 8,-8 z m 1e-5,-1 c -4.9856,0 -9,3.7166 -9,8.3333 V 27 h 18 v -1.6667 c 0,-4.6167 -4.0144,-8.3333 -9,-8.3333 z m 6.9765,-1 c -1.2619,4.88e-4 -2.3962,0.47884 -3.2754,1.2402 0.38003,0.15615 0.76608,0.33575 1.1424,0.50783 0.005,0.0025 0.009,0.0052 0.0137,0.0078 0.61531,-0.44993 1.3332,-0.75586 2.1173,-0.75586 2.2269,5e-5 4.0234,2.338 4.0234,4 h -2.7285 c 0.19616,0.3391 0.30158,0.64811 0.449,1 h 3.2815 v -1 c 0,-2.7694 -2.2402,-4.9989 -5.0215,-5 z M 37.99991,6 c 2.2092,0 4,1.7909 4,4 0,2.2091 -1.7908,4 -4,4 -2.2092,0 -4,-1.7909 -4,-4 0,-2.2091 1.7908,-4 4,-4 z m 0,-1 c -2.7614,0 -5,2.2386 -5,5 0,2.7614 2.2386,5 5,5 2.3508,0 4.3227,-1.6223 4.8571,-3.8084 0.09336,-0.38187 0.14286,-0.78094 0.14286,-1.1916 0,-2.7614 -2.2386,-5 -5,-5 z m -6.9766,11 c 1.2619,4.88e-4 2.3962,0.47884 3.2754,1.2402 -0.40446,0.16292 -0.80548,0.35541 -1.1561,0.51561 -0.61531,-0.44991 -1.3332,-0.75584 -2.1173,-0.75584 -2.2269,5e-5 -4.0234,2.338 -4.0234,4 h 2.7285 c -0.18697,0.33326 -0.31833,0.6897 -0.449,1 h -3.2815 v -1 c 0,-2.7694 2.2402,-4.9989 5.0215,-5 z M 30.99792,9 c 0.58947,0 1.133,0.17457 1.5938,0.46875 -0.04841,0.46007 -0.0093,0.92754 0.008,1.3359 -0.37711,-0.50585 -0.9708,-0.80409 -1.6018,-0.80463 -1.1046,0 -2,0.89543 -2,2 0,1.10457 0.89543,2 2,2 1.0405,-5.56e-4 1.9068,-0.7989 1.9922,-1.8359 0.18831,0.40268 0.47165,0.77011 0.6956,1.0996 10e-4,0.0013 0.003,0.0026 0.004,0.0039 -0.476,1.0197 -1.4888,1.7324 -2.6918,1.7324 -1.6612,0 -2.998,-1.338 -2.998,-3 0,-1.662 1.3369,-3 2.998,-3 z"
       fill="currentColor"
       id="path35" />
    <path
       d="M 22,0 V 32 H 54 V 0 Z"
       fill="none"
       id="path37" />
  </g>
  <g
     id="system-user-prompt"
     transform="translate(62,126)">
    <path
       d="M 22,0 V 32 H 54 V 0 Z"
       fill="none"
       id="path40" />
    <path
       class="ColorScheme-Text"
       d="m 37,10.75 v 1.5 h 5 v -1.5 z m -4,0 v 1.5 h 3 v -1.5 z m -6,0 v 1.5 h 5 v -1.5 z M 26,9 h 24 v 5 H 26 Z M 25,8 v 7 H 51 V 8 Z m 1,10 h 24 v 5 H 26 Z m -1,-1 v 7 h 26 v -7 z m 3.5,2 C 27.67157,19 27,19.67157 27,20.5 27,21.32843 27.67157,22 28.5,22 29.32843,22 30,21.32843 30,20.5 30,19.67157 29.32843,19 28.5,19 Z m 4,0 C 31.67157,19 31,19.67157 31,20.5 31,21.32843 31.67157,22 32.5,22 33.32843,22 34,21.32843 34,20.5 34,19.67157 33.32843,19 32.5,19 Z m 4,0 C 35.67157,19 35,19.67157 35,20.5 35,21.32843 35.67157,22 36.5,22 37.32843,22 38,21.32843 38,20.5 38,19.67157 37.32843,19 36.5,19 Z m 4,0 C 39.67157,19 39,19.67157 39,20.5 39,21.32843 39.67157,22 40.5,22 41.32843,22 42,21.32843 42,20.5 42,19.67157 41.32843,19 40.5,19 Z"
       fill="currentColor"
       id="path42" />
  </g>
  <g
     id="22-22-system-user-prompt"
     transform="matrix(0.6875,0,0,0.6875,46.875,136)">
    <path
       class="ColorScheme-Text"
       d="M 35.818,21.091 A 0.72727,0.72727 0 0 1 35.09073,21.81827 0.72727,0.72727 0 0 1 34.36346,21.091 0.72727,0.72727 0 0 1 35.09073,20.36373 0.72727,0.72727 0 0 1 35.818,21.091 Z m -2.1818,0 A 0.72727,0.72727 0 0 1 32.90893,21.81827 0.72727,0.72727 0 0 1 32.18166,21.091 0.72727,0.72727 0 0 1 32.90893,20.36373 0.72727,0.72727 0 0 1 33.6362,21.091 Z m -2.1818,0 A 0.72727,0.72727 0 0 1 30.72713,21.81827 0.72727,0.72727 0 0 1 29.99986,21.091 0.72727,0.72727 0 0 1 30.72713,20.36373 0.72727,0.72727 0 0 1 31.4544,21.091 Z m -2.1818,0 A 0.72727,0.72727 0 0 1 28.54533,21.81827 0.72727,0.72727 0 0 1 27.81806,21.091 0.72727,0.72727 0 0 1 28.54533,20.36373 0.72727,0.72727 0 0 1 29.2726,21.091 Z m 5.8182,-10.909 h 2.9091 v 1.4545 h -2.9091 z m -2.9091,0 h 1.4545 v 1.4545 h -1.4545 z m -4.3636,0 h 2.9091 v 1.4545 h -2.9091 z m -2.9091,7.2727 v 7.2727 h 26.182 v -7.2727 z m 1.4545,1.4545 h 23.273 v 4.3636 H 26.3635 Z M 24.909,7.2732 v 7.2727 H 51.091 V 7.2732 Z m 1.4545,1.4545 h 23.273 v 4.3636 h -23.273 z"
       fill="currentColor"
       id="path45" />
    <path
       d="M 22,0 V 32 H 54 V 0 Z"
       fill="none"
       id="path47" />
  </g>
  <g
     id="22-22-system-user-list"
     transform="matrix(0.6875,0,0,0.6875,46.875,72)">
    <path
       class="ColorScheme-Text"
       d="m 44.552,10.182 c -0.37453,0 -0.72044,0.10364 -1.0284,0.26989 1.89e-4,0.0019 -0.09527,0.05843 -0.09498,0.06047 0.11476,1.4527 -0.24945,2.3769 -0.66509,3.0986 0.39606,0.5635 1.0484,0.93468 1.7885,0.93468 1.0258,0 1.8861,-0.70799 2.1193,-1.6619 0.04073,-0.16664 0.06255,-0.3407 0.06255,-0.51989 -1.4e-5,-1.205 -0.97684,-2.1818 -2.1818,-2.1818 z m -13.098,0 c 0.37453,0 0.72044,0.10364 1.0284,0.26989 -1.89e-4,0.0019 0.09527,0.05843 0.09498,0.06047 -0.11476,1.4527 0.24946,2.3769 0.66509,3.0986 -0.39606,0.5635 -1.0484,0.93468 -1.7885,0.93468 -1.0258,0 -1.8861,-0.70799 -2.1193,-1.6619 -0.04073,-0.16664 -0.06254,-0.3407 -0.06254,-0.51989 1.4e-5,-1.205 0.97684,-2.1818 2.1818,-2.1818 z m -4.4e-5,5.8182 c 1.2265,0 2.3022,0.56552 2.9602,1.4773 -0.36926,0.19574 -0.745,0.43622 -1.071,0.63066 -0.35836,-0.42266 -1.025,-0.65339 -1.8893,-0.65339 -1.3095,0 -2.1818,0.9608 -2.1818,2.9091 h 1.8182 l -0.72727,1.4545 h -2.5455 l 1e-6,-2.2102 c 1e-6,-2.093 1.622,-3.608 3.6364,-3.608 z m 13.091,1.4e-5 c -1.2265,0 -2.3022,0.56552 -2.9602,1.4773 0.36926,0.19574 0.745,0.43622 1.071,0.63066 0.35836,-0.42266 1.025,-0.65339 1.8893,-0.65339 1.3095,0 2.1818,0.99389 2.1818,2.9091 h -1.8182 l 0.72727,1.4545 h 2.5455 l 2e-6,-2.2102 c 2e-6,-2.093 -1.622,-3.608 -3.6364,-3.608 z m -6.5455,2.9091 c 2.9091,0 5.8182,1.4545 5.8182,5.8182 h -11.636 c 0,-4.3636 2.9091,-5.8182 5.8182,-5.8182 z m 0,-1.4545 c -4.2302,0 -7.2612,2.9743 -7.2698,7.2727 l -0.0029,1.4545 h 14.545 l -0.0029,-1.4545 c -0.0087,-4.3213 -3.0396,-7.2727 -7.2698,-7.2727 z m 7.5e-5,-11.636 c -2.8117,0 -5.091,2.2793 -5.091,5.0909 0,2.8116 2.2793,5.0909 5.091,5.0909 2.3936,0 4.4013,-1.6518 4.9455,-3.8777 0.09498,-0.38881 0.14547,-0.79514 0.14547,-1.2133 0,-2.8116 -2.2793,-5.0909 -5.091,-5.0909 z"
       fill="currentColor"
       id="path50" />
    <path
       d="M 22,0 V 32 H 54 V 0 Z"
       fill="none"
       id="path52" />
  </g>
  <g
     id="system-reboot"
     transform="translate(41,-11.999947)">
    <rect
       id="rect4546"
       width="32"
       height="32"
       x="-41"
       y="44"
       rx="0"
       ry="0"
       style="fill:none" />
    <path
       id="path2104"
       class="ColorScheme-Text"
       d="M -25.035156 49.005806 C -26.752905 49.012206 -28.48186 49.420451 -30.076172 50.2519 A 1 1 0 0 0 -30.5 51.601509 A 1 1 0 0 0 -30.103516 51.988228 A 9.5 9.5 0 0 1 -24.998047 50.497994 A 9.5 9.5 0 0 1 -15.498047 59.997994 A 9.5 9.5 0 0 1 -16.279297 63.738228 L -19.21875 60.798775 C -19.512553 60.504972 -19.985494 60.504972 -20.279297 60.798775 C -20.5731 61.092578 -20.5731 61.565519 -20.279297 61.859322 L -16.857422 65.281197 A 1 1 0 0 0 -16.759766 65.378853 L -16.744141 65.394478 C -16.601307 65.537312 -16.416841 65.611226 -16.230469 65.615181 A 1 1 0 0 0 -16.191406 65.613228 C -16.151278 65.611979 -16.10987 65.6092 -16.070312 65.60151 C -16.067689 65.600999 -16.065119 65.600095 -16.0625 65.599556 A 1 1 0 0 0 -15.246094 65.081978 C -13.02708 60.826982 -13.82622 55.612779 -17.21875 52.218697 A 1.0001 1.0001 0 0 0 -17.220703 52.218697 C -18.918004 50.525497 -21.068134 49.47806 -23.326172 49.132759 C -23.890681 49.04643 -24.462574 49.003683 -25.035156 49.005806 z M -33.769531 54.384713 A 1 1 0 0 0 -33.851562 54.394478 A 1 1 0 0 0 -34.15625 54.427681 A 1 1 0 0 0 -34.742188 54.919869 C -36.95938 59.171366 -36.163769 64.378787 -32.777344 67.773385 A 1.0001 1.0001 0 0 0 -32.775391 67.775338 C -29.380786 71.161739 -24.17142 71.959328 -19.919922 69.742135 A 1 1 0 0 0 -19.496094 68.392525 A 1 1 0 0 0 -19.890625 68.005806 A 9.5 9.5 0 0 1 -24.998047 69.497994 A 9.5 9.5 0 0 1 -34.498047 59.997994 A 9.5 9.5 0 0 1 -33.71875 56.263619 L -30.775391 59.206978 C -30.481588 59.500781 -30.008646 59.500781 -29.714844 59.206978 C -29.421041 58.913176 -29.421041 58.440234 -29.714844 58.146431 L -33.042969 54.818306 A 1 1 0 0 0 -33.367188 54.515572 A 1 1 0 0 0 -33.394531 54.494088 A 1 1 0 0 0 -33.410156 54.490181 C -33.513432 54.431248 -33.627034 54.398351 -33.742188 54.392525 A 1 1 0 0 0 -33.769531 54.384713 z "
       fill="currentColor" />
  </g>
  <g
     id="system-suspend-hibernate"
     transform="translate(40,-10.999969)">
    <rect
       id="rect5108"
       width="32"
       height="32"
       x="-40"
       y="75"
       rx="0"
       ry="0"
       style="fill:none" />
    <path
       id="path4821"
       class="ColorScheme-Text"
       d="M -24 79.999969 A 11 11 0 0 0 -35 90.999969 A 11 11 0 0 0 -24 101.99997 A 11 11 0 0 0 -13 90.999969 A 11 11 0 0 0 -24 79.999969 z M -24 81.499969 A 9.5 9.5 0 0 1 -14.5 90.999969 A 9.5 9.5 0 0 1 -24 100.49997 A 9.5 9.5 0 0 1 -33.5 90.999969 A 9.5 9.5 0 0 1 -24 81.499969 z "
       fill="currentColor" />
    <rect
       id="rect4968"
       width="20"
       height="1.5"
       x="-34"
       y="92.999969"
       rx="0.7500155"
       ry="0.7500155"
       class="ColorScheme-Text"
       fill="currentColor" />
  </g>
  <g
     id="system-lock-screen"
     transform="translate(-32,-112)">
    <g
       id="g7697"
       transform="translate(1)">
      <path
         id="rect6448"
         class="ColorScheme-Text"
         d="M -25 149 C -28.323997 149 -31 151.676 -31 155 L -31 158 L -29.5 158 L -29.5 155 C -29.5 152.507 -27.492998 150.5 -25 150.5 C -22.507002 150.5 -20.5 152.507 -20.5 155 L -20.5 158 L -19 158 L -19 155 C -19 151.676 -21.676003 149 -25 149 z "
         fill="currentColor" />
      <path
         id="rect6102"
         class="ColorScheme-Text"
         d="M -30 157 C -32.769997 157 -35 159.23 -35 162 L -35 168 C -35 170.77 -32.769997 173 -30 173 L -20 173 C -17.230003 173 -15 170.77 -15 168 L -15 162 C -15 159.23 -17.230003 157 -20 157 L -30 157 z M -30 158.5 L -20 158.5 C -18.061002 158.5 -16.5 160.061 -16.5 162 L -16.5 168 C -16.5 169.939 -18.061002 171.5 -20 171.5 L -30 171.5 C -31.938998 171.5 -33.5 169.939 -33.5 168 L -33.5 162 C -33.5 160.061 -31.938998 158.5 -30 158.5 z "
         fill="currentColor" />
    </g>
    <rect
       id="rect7495"
       width="32"
       height="32"
       x="-40"
       y="145"
       rx="0"
       ry="0"
       style="fill:none" />
  </g>
  <g
     id="22-22-system-lock-screen">
    <rect
       style="opacity:1;fill:none;fill-opacity:1;stroke:none;stroke-width:1.62963;stroke-linecap:round;stroke-linejoin:round;stroke-miterlimit:4;stroke-dasharray:none;stroke-opacity:1;paint-order:stroke fill markers"
       id="rect17279"
       width="22"
       height="22"
       x="-32"
       y="39"
       rx="0"
       ry="0" />
    <path
       id="rect11213"
       class="ColorScheme-Text"
       d="m -21,41 c -2.77,0 -5,2.23 -5,5 v 1 h 1 v -1 c 0,-2.216 1.784,-4 4,-4 2.216,0 4,1.784 4,4 v 1 h 1 v -1 c 0,-2.77 -2.23,-5 -5,-5 z"
       fill="currentColor" />
    <path
       id="rect11552"
       class="ColorScheme-Text"
       d="m -25,46 c -2.216,0 -4,1.784 -4,4 v 5 c 0,2.216 1.784,4 4,4 h 8 c 2.216,0 4,-1.784 4,-4 v -5 c 0,-2.216 -1.784,-4 -4,-4 z m 0,1 h 8 c 1.662,0 3,1.338 3,3 v 5 c 0,1.662 -1.338,3 -3,3 h -8 c -1.662,0 -3,-1.338 -3,-3 v -5 c 0,-1.662 1.338,-3 3,-3 z"
       fill="currentColor" />
  </g>
  <g
     id="22-22-system-suspend-hibernate"
     transform="translate(0.0108,1.0000305)">
    <rect
       style="opacity:1;fill:none;fill-opacity:1;stroke:none;stroke-width:1.62963;stroke-linecap:round;stroke-linejoin:round;stroke-miterlimit:4;stroke-dasharray:none;stroke-opacity:1;paint-order:stroke fill markers"
       id="rect17287"
       width="22"
       height="22"
       x="32"
       y="68"
       rx="0"
       ry="0" />
    <path
       id="path14813"
       class="ColorScheme-Text"
       d="m 43.011719,71 a 9,9 0 0 0 -9,9 9,9 0 0 0 9,9 9,9 0 0 0 9,-9 9,9 0 0 0 -9,-9 z M 43,72 a 8,8 0 0 1 8,8 8,8 0 0 1 -8,8 8,8 0 0 1 -8,-8 8,8 0 0 1 8,-8 z"
       transform="translate(-0.0108,-1.0000305)"
       fill="currentColor" />
    <rect
       id="rect14964"
       width="15.978402"
       height="1"
       x="35.010799"
       y="80.999969"
       rx="0"
       ry="0"
       class="ColorScheme-Text"
       style="opacity:1;stroke-width:0.999321"
       fill="currentColor" />
  </g>
  <g
     id="22-22-system-suspend">
    <rect
       style="fill:none;fill-opacity:1;stroke:none;stroke-width:1.62963;stroke-linecap:round;stroke-linejoin:round;stroke-miterlimit:4;stroke-dasharray:none;stroke-opacity:1;paint-order:stroke fill markers"
       id="rect17036"
       width="22"
       height="22"
       x="-32"
       y="7"
       rx="0"
       ry="0" />
    <path
       id="rect961"
       d="m -21.5,11 c -0.277,0 -0.5,0.223 -0.5,0.5 0,0.277 0.223,0.5 0.5,0.5 h 7.792969 l -8.146485,8.146484 C -21.943891,20.236859 -22,20.3615 -22,20.5 c 0,0.277 0.223,0.5 0.5,0.5 h 9 c 0.03463,0 0.06896,-0.0031 0.101562,-0.0098 0.195645,-0.03983 0.34884,-0.193027 0.388672,-0.388672 0.0066,-0.03257 0.0098,-0.0669 0.0098,-0.101528 0,-0.03462 -0.0031,-0.06895 -0.0098,-0.101562 -0.03983,-0.195645 -0.193027,-0.34884 -0.388672,-0.388672 C -12.431045,20.003127 -12.465375,20 -12.5,20 h -7.792969 l 8.126953,-8.126953 c 0.0037,-0.0037 0.0062,-0.0079 0.0098,-0.01172 C -12.060614,11.770361 -12,11.643021 -12,11.5 -12,11.223 -12.223,11 -12.5,11 Z m -8,7 c -0.277,0 -0.5,0.223 -0.5,0.5 0,0.277 0.223,0.5 0.5,0.5 h 4.792969 l -5.111328,5.113281 C -29.929398,24.204844 -30,24.344188 -30,24.5 c 0,0.277 0.223,0.5 0.5,0.5 h 6 c 0.277,0 0.5,-0.223 0.5,-0.5 0,-0.277 -0.223,-0.5 -0.5,-0.5 h -4.792969 l 5.111328,-5.113281 c 0.0018,-0.0015 0.0041,-0.0024 0.0059,-0.0039 0.0036,-0.0036 0.0063,-0.0081 0.0098,-0.01172 C -23.064586,18.779708 -23,18.647905 -23,18.5 c 0,-0.008 3.66e-4,-0.01555 0,-0.02344 5.33e-4,-0.125961 -0.04491,-0.248039 -0.136719,-0.339843 C -23.234178,18.03926 -23.365763,17.99344 -23.5,18 h -0.002 z"
       class="ColorScheme-Text"
       fill="currentColor" />
  </g>
  <g
     id="22-22-system-switch-user">
    <rect
       style="fill:none;fill-opacity:1;stroke:none;stroke-width:1.62963;stroke-linecap:round;stroke-linejoin:round;stroke-miterlimit:4;stroke-dasharray:none;stroke-opacity:1;paint-order:stroke fill markers"
       id="rect17281"
       width="22"
       height="22"
       x="-32"
       y="70"
       rx="0"
       ry="0" />
    <path
       id="rect2430"
       d="m -18.451172,73.048828 c -0.127809,0 -0.255581,0.04855 -0.353516,0.146484 -0.195868,0.19587 -0.195868,0.513116 0,0.708985 L -14.707031,78 H -28.5 c -0.277,0 -0.5,0.223 -0.5,0.5 0,0.277 0.223,0.5 0.5,0.5 h 15 c 0.02874,0 0.05754,-0.0029 0.08594,-0.0078 0.0032,-5.54e-4 0.0066,-0.0013 0.0098,-0.002 0.0101,-0.0019 0.01942,-0.0053 0.0293,-0.0078 0.0167,-0.0043 0.03286,-0.0097 0.04883,-0.01563 0.0045,-0.0017 0.0092,-0.0021 0.01367,-0.0039 0.0066,-0.0026 0.0131,-0.0049 0.01953,-0.0078 0.02492,-0.01139 0.04908,-0.0253 0.07227,-0.04102 0.04082,-0.02753 0.07644,-0.06151 0.107422,-0.09961 0.0095,-0.01168 0.01902,-0.02287 0.02734,-0.03516 0.01571,-0.02319 0.02963,-0.04734 0.04102,-0.07227 0.0029,-0.0064 0.0052,-0.01296 0.0078,-0.01953 0.0018,-0.0045 0.0022,-0.0091 0.0039,-0.01367 0.0038,-0.01038 0.0086,-0.02055 0.01172,-0.03125 0.0017,-0.0058 0.0024,-0.01178 0.0039,-0.01758 0.0025,-0.0099 0.0059,-0.01919 0.0078,-0.0293 6.16e-4,-0.0032 0.0014,-0.0066 0.002,-0.0098 0.005,-0.0284 0.0078,-0.0572 0.0078,-0.08594 0,-0.02925 -0.0027,-0.05899 -0.0078,-0.08789 -4.75e-4,-0.0027 -0.0014,-0.0052 -0.002,-0.0078 -0.0019,-0.0101 -0.0053,-0.01942 -0.0078,-0.0293 -0.0015,-0.0058 -0.0022,-0.01182 -0.0039,-0.01758 -0.0046,-0.01545 -0.0095,-0.02988 -0.01563,-0.04492 -0.0026,-0.0066 -0.0049,-0.0131 -0.0078,-0.01953 -0.01137,-0.02487 -0.02535,-0.04912 -0.04102,-0.07227 -0.01769,-0.02614 -0.03736,-0.05103 -0.06055,-0.07422 l -4.949219,-4.951172 c -0.09793,-0.09793 -0.227659,-0.146484 -0.355469,-0.146484 z M -28.5,83 c -0.02874,0 -0.05754,0.0029 -0.08594,0.0078 -0.0032,5.54e-4 -0.0066,0.0013 -0.0098,0.002 -0.0101,0.0019 -0.01942,0.0053 -0.0293,0.0078 -0.0167,0.0043 -0.03286,0.0097 -0.04883,0.01563 -0.0045,0.0017 -0.0092,0.0021 -0.01367,0.0039 -0.0066,0.0026 -0.0131,0.0049 -0.01953,0.0078 -0.02492,0.01139 -0.04908,0.0253 -0.07227,0.04102 -0.04082,0.02753 -0.07644,0.06151 -0.107422,0.09961 -0.0095,0.01168 -0.01902,0.02287 -0.02734,0.03516 -0.01571,0.02319 -0.02963,0.04734 -0.04102,0.07227 -0.0029,0.0064 -0.0052,0.01296 -0.0078,0.01953 -0.0018,0.0045 -0.0022,0.0091 -0.0039,0.01367 -0.0038,0.01038 -0.0086,0.02055 -0.01172,0.03125 -0.0017,0.0058 -0.0024,0.01178 -0.0039,0.01758 -0.0025,0.0099 -0.0059,0.01919 -0.0078,0.0293 -6.16e-4,0.0032 -0.0014,0.0066 -0.002,0.0098 -0.005,0.0284 -0.0078,0.0572 -0.0078,0.08594 0,0.02925 0.0027,0.05899 0.0078,0.08789 4.75e-4,0.0027 0.0014,0.0052 0.002,0.0078 0.0019,0.0101 0.0053,0.01942 0.0078,0.0293 0.0015,0.0058 0.0022,0.01182 0.0039,0.01758 0.0046,0.01545 0.0095,0.02988 0.01563,0.04492 0.0026,0.0066 0.0049,0.0131 0.0078,0.01953 0.01137,0.02487 0.02535,0.04912 0.04102,0.07227 0.01769,0.02614 0.03736,0.05103 0.06055,0.07422 l 4.949219,4.951172 c 0.09793,0.09793 0.227659,0.146484 0.355469,0.146484 0.127809,0 0.255581,-0.04855 0.353516,-0.146484 0.195868,-0.19587 0.195867,-0.513116 0,-0.708985 L -27.292969,84 H -13.5 c 0.277,0 0.5,-0.223 0.5,-0.5 0,-0.277 -0.223,-0.5 -0.5,-0.5 z"
       class="ColorScheme-Text"
       fill="currentColor" />
  </g>
  <g
     id="22-22-system-shutdown">
    <rect
       style="fill:none;fill-opacity:1;stroke:none;stroke-width:1.62963;stroke-linecap:round;stroke-linejoin:round;stroke-miterlimit:4;stroke-dasharray:none;stroke-opacity:1;paint-order:stroke fill markers"
       id="rect17283"
       width="22"
       height="22"
       x="32.010799"
       y="5.0000801"
       rx="0"
       ry="0" />
    <rect
       id="rect15726"
       width="0.98920059"
       height="9"
       x="42.505402"
       y="6.0000801"
       rx="0.4946003"
       ry="0.4946003"
       class="ColorScheme-Text"
       fill="currentColor"
       style="stroke-width:0.703278" />
    <path
       d="M 47.992187,8.5117188 A 0.5,0.5 0 0 0 47.298828,8.6503906 0.5,0.5 0 0 0 47.4375,9.34375 C 49.663568,10.827746 50.999927,13.324627 51,16 c 0,4.424195 -3.575805,8 -8,8 -4.424195,0 -8,-3.575805 -8,-8 0.0038,-2.673812 1.34236,-5.167152 3.568359,-6.6484375 A 0.5,0.5 0 0 0 38.707031,8.6582031 0.5,0.5 0 0 0 38.013672,8.5195313 C 35.510454,10.185291 34.004229,12.993202 34,16 c 0,4.964635 4.035365,9 9,9 4.964635,0 9,-4.035365 9,-9 -8.3e-5,-3.008551 -1.504521,-5.819475 -4.007813,-7.4882812 z"
       id="path926"
       class="ColorScheme-Text"
       fill="currentColor" />
  </g>
  <g
     id="22-22-system-reboot">
    <rect
       style="fill:none;fill-opacity:1;stroke:none;stroke-width:1.62963;stroke-linecap:round;stroke-linejoin:round;stroke-miterlimit:4;stroke-dasharray:none;stroke-opacity:1;paint-order:stroke fill markers"
       id="rect17285"
       width="22"
       height="22"
       x="32.010799"
       y="37.000053"
       rx="0"
       ry="0" />
    <path
       d="m 43.802734,39.039062 c -2.044049,-0.181381 -4.148971,0.332815 -5.935547,1.576172 a 0.5,0.5 0 0 0 -0.125,0.695313 0.5,0.5 0 0 0 0.695313,0.125 c 3.181224,-2.213955 7.482939,-1.831327 10.224609,0.908203 2.57956,2.589795 2.978513,6.536317 1.16211,9.646484 l -2.453125,-2.453125 a 0.5,0.5 0 0 0 -0.707032,0 0.5,0.5 0 0 0 0,0.707032 l 2.955079,2.955078 a 0.50005,0.50005 0 0 0 0.763671,-0.06836 c 2.484057,-3.569324 2.05776,-8.413739 -1.011718,-11.49414 a 0.50005,0.50005 0 0 0 -0.002,0 c -1.539723,-1.538521 -3.522357,-2.416275 -5.566407,-2.597657 z m -7.80664,3.617188 a 0.50005,0.50005 0 0 0 -0.367188,0.212891 c -2.484058,3.569323 -2.05776,8.413739 1.011719,11.49414 a 0.50005,0.50005 0 0 0 0.002,0.002 c 3.080384,3.069503 7.924818,3.495777 11.494141,1.011719 a 0.5,0.5 0 0 0 0.125,-0.697266 0.5,0.5 0 0 0 -0.697266,-0.123046 c -3.177027,2.21104 -7.472266,1.832564 -10.214844,-0.898438 l -0.002,-0.002 C 34.768807,51.066436 34.371287,47.119605 36.1875,44.009766 l 2.451172,2.451171 a 0.5,0.5 0 0 0 0.707031,0 0.5,0.5 0 0 0 0,-0.707031 L 36.392578,42.800781 A 0.50005,0.50005 0 0 0 35.996094,42.65625 Z"
       id="path1690"
       class="ColorScheme-Text"
       fill="currentColor" />
  </g>
  <g
     id="22-22-system-log-out"
     transform="translate(0,-25.61108)">
    <rect
       style="fill:none;fill-opacity:1;stroke:none;stroke-width:1.62963;stroke-linecap:round;stroke-linejoin:round;stroke-miterlimit:4;stroke-dasharray:none;stroke-opacity:1;paint-order:stroke fill markers"
       id="rect4686"
       width="22"
       height="22"
       x="32.010799"
       y="125"
       rx="0"
       ry="0" />
    <path
       id="path4688"
       class="ColorScheme-Text"
       d="m 43.011719,126.99997 a 9,9 0 0 0 -9,9 9,9 0 0 0 9,9 9,9 0 0 0 9,-9 9,9 0 0 0 -9,-9 z m -0.01172,1 a 8,8 0 0 1 8,8 8,8 0 0 1 -8,8 8,8 0 0 1 -8,-8 8,8 0 0 1 8,-8 z"
       fill="currentColor" />
    <path
       id="rect4798"
       d="m 41.257808,131.25757 c -0.127809,0 -0.255581,0.0486 -0.353515,0.14649 -0.195869,0.19587 -0.195869,0.51116 0,0.70703 l 3.888672,3.88867 -3.888672,3.88867 c -0.195869,0.19587 -0.195869,0.51117 0,0.70703 0.195868,0.19587 0.511163,0.19587 0.707031,0 l 4.205078,-4.20703 c 0.01312,-0.0107 0.02487,-0.0229 0.03711,-0.0351 0.01224,-0.0122 0.02444,-0.024 0.03516,-0.0371 C 45.963652,136.22443 46,136.11165 46,135.99982 c 0,-0.016 -4.23e-4,-0.031 -0.002,-0.0469 -0.01071,-0.11143 -0.05884,-0.22095 -0.144531,-0.30664 -0.01224,-0.0123 -0.02399,-0.0245 -0.03711,-0.0352 l -4.205078,-4.20703 c -0.09793,-0.0979 -0.225706,-0.14649 -0.353516,-0.14649 z"
       class="ColorScheme-Text"
       fill="currentColor" />
  </g>
  <g
     id="system-log-out"
     transform="translate(40,21)">
    <rect
       id="rect6079"
       width="32"
       height="32"
       x="-40"
       y="75"
       rx="0"
       ry="0"
       style="fill:none" />
    <path
       id="path6081"
       class="ColorScheme-Text"
       d="M -24 80 A 11 11 0 0 0 -35 91 A 11 11 0 0 0 -24 102 A 11 11 0 0 0 -13 91 A 11 11 0 0 0 -24 80 z M -24 81.5 A 9.5 9.5 0 0 1 -14.5 91 A 9.5 9.5 0 0 1 -24 100.5 A 9.5 9.5 0 0 1 -33.5 91 A 9.5 9.5 0 0 1 -24 81.5 z "
       fill="currentColor" />
    <path
       id="rect6083"
       class="ColorScheme-Text"
       d="m -25.834029,85.623047 c -0.191715,0 -0.38435,0.0738 -0.53125,0.220703 -0.293803,0.293803 -0.293803,0.766744 0,1.060547 l 4.066406,4.066406 -4.066406,4.064453 c -0.294055,0.294055 -0.294055,0.768446 0,1.0625 0.294054,0.294054 0.766492,0.294055 1.060547,0 l 4.595703,-4.595703 c 3.4e-4,-3.39e-4 -3.39e-4,-0.0016 0,-0.002 0.01802,-0.01802 0.03692,-0.0354 0.05273,-0.05469 3.34e-4,-4.11e-4 -3.34e-4,-0.0015 -1e-6,-0.002 0.01573,-0.01927 0.03139,-0.03823 0.04492,-0.05859 3.14e-4,-4.74e-4 -3.12e-4,-0.0015 0,-0.002 0.01346,-0.02034 0.02584,-0.04124 0.03711,-0.0625 2.77e-4,-5.24e-4 -2.75e-4,-0.0014 0,-0.002 0.0112,-0.02125 0.02224,-0.04245 0.03125,-0.06445 2.35e-4,-5.77e-4 -2.34e-4,-0.0014 0,-0.002 0.0089,-0.02199 0.01667,-0.04384 0.02344,-0.06641 1.81e-4,-6.06e-4 -1.78e-4,-0.0013 0,-0.002 0.0067,-0.02257 0.01305,-0.04537 0.01758,-0.06836 1.23e-4,-6.27e-4 -1.2e-4,-0.0013 0,-0.002 6.25e-4,-0.0032 0.0014,-0.0065 0.002,-0.0098 0.0077,-0.04283 0.0115,-0.08748 0.01172,-0.130859 4e-6,-6.47e-4 -2e-6,-0.0013 0,-0.002 -1e-6,-6.64e-4 1e-6,-0.0013 0,-0.002 -1e-6,-0.0473 -0.0047,-0.094 -0.01367,-0.140625 -1.19e-4,-6.17e-4 1.23e-4,-0.0013 0,-0.002 -0.0045,-0.023 -0.01093,-0.04578 -0.01758,-0.06836 -1.76e-4,-5.93e-4 1.79e-4,-0.0014 0,-0.002 -0.0067,-0.02258 -0.01455,-0.0444 -0.02344,-0.06641 -2.21e-4,-5.44e-4 2.23e-4,-0.0014 0,-0.002 -0.009,-0.02202 -0.0201,-0.04318 -0.03125,-0.06445 -2.61e-4,-4.96e-4 2.63e-4,-0.0015 0,-0.002 -0.01121,-0.02128 -0.0237,-0.04214 -0.03711,-0.0625 -2.87e-4,-4.32e-4 2.88e-4,-0.0015 0,-0.002 -0.01349,-0.02038 -0.02924,-0.0393 -0.04492,-0.05859 -2.98e-4,-3.64e-4 2.98e-4,-0.0016 0,-0.002 -0.01577,-0.01931 -0.03475,-0.03664 -0.05274,-0.05469 -3.38e-4,-3.4e-4 3.4e-4,-0.0016 1e-6,-0.002 l -4.595703,-4.595703 c -0.146902,-0.146902 -0.337584,-0.220703 -0.529297,-0.220703 z"
       fill="currentColor" />
  </g>
  <g
     id="system-shutdown">
    <rect
       id="rect930"
       width="32"
       height="32"
       x="0"
       y="8.0108643e-05"
       style="opacity:0.00100002;fill:currentColor;fill-opacity:1;stroke:none;stroke-width:2.90909;stroke-linecap:round;stroke-linejoin:round;stroke-miterlimit:4;stroke-dasharray:none;stroke-opacity:1" />
    <path
       id="path404"
       d="M 16.498047 5 C 16.082547 5 15.748047 5.3345004 15.748047 5.75 L 15.748047 15.25 C 15.748047 15.6655 16.082547 16 16.498047 16 C 16.913546 16 17.248047 15.6655 17.248047 15.25 L 17.248047 5.75 C 17.248047 5.3345004 16.913546 5 16.498047 5 z M 23.748047 8.5019531 C 23.556105 8.5019531 23.363244 8.5762096 23.216797 8.7226562 C 22.923912 9.0155411 22.923903 9.4903099 23.216797 9.7832031 C 26.92677 13.493176 26.92677 19.506824 23.216797 23.216797 C 19.506824 26.92677 13.493176 26.92677 9.7832031 23.216797 C 6.0732297 19.506824 6.0732297 13.493176 9.7832031 9.7832031 A 0.75 0.75 0 0 0 9.7832031 8.7226562 A 0.75 0.75 0 0 0 8.7226562 8.7226562 C 8.7138663 8.7314462 8.7040665 8.7392349 8.6953125 8.7480469 A 0.75 0.75 0 0 0 8.6894531 8.7578125 C 4.4283677 13.056301 4.4384751 19.993163 8.7226562 24.277344 C 13.018415 28.573102 19.981585 28.573102 24.277344 24.277344 C 28.538631 20.010399 28.569934 13.108288 24.347656 8.8027344 C 24.326186 8.7739064 24.302764 8.7480782 24.277344 8.7226562 C 24.130897 8.5762096 23.939988 8.5019531 23.748047 8.5019531 z "
       class="ColorScheme-Text"
       fill="currentColor" />
  </g>
  <g
     id="system-switch-user">
    <rect
       id="rect9268"
       width="32"
       height="32"
       x="-72"
       y="65.00042"
       rx="0"
       ry="0"
       style="fill:none" />
    <path
       id="rect1128"
       d="M -51.054688 70.695312 C -51.246402 70.695312 -51.437083 70.769114 -51.583984 70.916016 C -51.877787 71.209818 -51.877787 71.68276 -51.583984 71.976562 L -47.560547 76 L -66.25 76 C -66.6655 76 -67 76.3345 -67 76.75 C -67 77.1655 -66.6655 77.5 -66.25 77.5 L -45.75 77.5 C -45.702071 77.5 -45.65465 77.495509 -45.607422 77.486328 C -45.605488 77.48596 -45.603491 77.484758 -45.601562 77.484375 C -45.600329 77.484125 -45.598888 77.484632 -45.597656 77.484375 C -45.594981 77.48383 -45.592508 77.482995 -45.589844 77.482422 C -45.548642 77.473382 -45.508274 77.461395 -45.46875 77.445312 C -45.468207 77.445091 -45.46734 77.445535 -45.466797 77.445312 C -45.455071 77.440561 -45.445013 77.433052 -45.433594 77.427734 C -45.403731 77.413708 -45.37391 77.399052 -45.345703 77.380859 C -45.343249 77.379276 -45.340331 77.378568 -45.337891 77.376953 C -45.326952 77.36976 -45.317167 77.361257 -45.306641 77.353516 C -45.288567 77.34016 -45.271008 77.325732 -45.253906 77.310547 C -45.231135 77.290388 -45.209612 77.268865 -45.189453 77.246094 C -45.174268 77.228992 -45.15984 77.211433 -45.146484 77.193359 C -45.138743 77.182833 -45.13024 77.173048 -45.123047 77.162109 C -45.121432 77.159669 -45.120724 77.156751 -45.119141 77.154297 C -45.100948 77.12609 -45.086292 77.096269 -45.072266 77.066406 C -45.066948 77.054987 -45.059439 77.044929 -45.054688 77.033203 C -45.054455 77.032629 -45.054919 77.031825 -45.054688 77.03125 C -45.038605 76.991726 -45.026618 76.951358 -45.017578 76.910156 C -45.017005 76.907543 -45.01617 76.904962 -45.015625 76.902344 C -45.01498 76.899177 -45.014277 76.895759 -45.013672 76.892578 C -45.004491 76.84535 -45 76.797929 -45 76.75 C -45 76.699409 -45.005395 76.647424 -45.015625 76.597656 C -45.024778 76.553127 -45.037345 76.509418 -45.054688 76.466797 C -45.056001 76.463569 -45.057233 76.460245 -45.058594 76.457031 C -45.060087 76.453489 -45.062907 76.450779 -45.064453 76.447266 C -45.081247 76.409217 -45.099599 76.371373 -45.123047 76.335938 C -45.124332 76.333996 -45.125648 76.332011 -45.126953 76.330078 C -45.128259 76.328141 -45.129536 76.326142 -45.130859 76.324219 C -45.152052 76.293454 -45.17682 76.26439 -45.203125 76.236328 C -45.208813 76.230273 -45.214817 76.224612 -45.220703 76.21875 L -45.230469 76.208984 L -50.523438 70.916016 C -50.670339 70.769114 -50.862973 70.695312 -51.054688 70.695312 z M -66.25 84.5 C -66.301218 84.5 -66.35198 84.50514 -66.402344 84.515625 C -66.405019 84.51617 -66.407492 84.517005 -66.410156 84.517578 C -66.451358 84.526618 -66.491726 84.538605 -66.53125 84.554688 L -66.533203 84.554688 C -66.544929 84.559439 -66.554987 84.566948 -66.566406 84.572266 C -66.598867 84.587512 -66.631626 84.602877 -66.662109 84.623047 C -66.673048 84.63024 -66.682833 84.638743 -66.693359 84.646484 C -66.711433 84.65984 -66.728992 84.674268 -66.746094 84.689453 C -66.768865 84.709612 -66.790388 84.731135 -66.810547 84.753906 C -66.825732 84.771008 -66.84016 84.788567 -66.853516 84.806641 C -66.862981 84.81951 -66.872217 84.83222 -66.880859 84.845703 C -66.899052 84.87391 -66.913708 84.903731 -66.927734 84.933594 C -66.933052 84.945013 -66.940561 84.955071 -66.945312 84.966797 L -66.945312 84.96875 C -66.961395 85.008274 -66.973382 85.048642 -66.982422 85.089844 C -66.983261 85.093744 -66.983597 85.097639 -66.984375 85.101562 C -67.013896 85.24704 -67.001178 85.400241 -66.943359 85.539062 C -66.941339 85.543934 -66.937666 85.547916 -66.935547 85.552734 C -66.91819 85.592058 -66.899464 85.631452 -66.875 85.667969 L -66.873047 85.669922 C -66.871741 85.671859 -66.870464 85.673858 -66.869141 85.675781 C -66.847948 85.706546 -66.82318 85.73561 -66.796875 85.763672 C -66.791529 85.769362 -66.784817 85.77573 -66.779297 85.78125 C -66.776062 85.784472 -66.772825 85.787853 -66.769531 85.791016 L -61.476562 91.083984 C -61.18276 91.377787 -60.709818 91.377787 -60.416016 91.083984 C -60.122213 90.790182 -60.122213 90.31724 -60.416016 90.023438 L -64.439453 86 L -45.75 86 C -45.3345 86 -45 85.6655 -45 85.25 C -45 84.8345 -45.3345 84.5 -45.75 84.5 L -66.25 84.5 z "
       class="ColorScheme-Text"
       fill="currentColor" />
  </g>
  <g
     id="system-suspend">
    <rect
       id="rect8195"
       width="32"
       height="32"
       x="-72.000008"
       y="1"
       rx="0.91428572"
       ry="0.91428572"
       style="fill:none;stroke-width:0.914286" />
    <path
       id="rect1224"
       d="M -56.25 9 C -56.6655 9 -57 9.3345008 -57 9.75 C -57 10.1655 -56.6655 10.5 -56.25 10.5 L -47.560547 10.5 L -56.746094 19.685547 L -56.748047 19.6875 C -56.903035 19.824707 -57 20.025775 -57 20.25 C -57 20.6655 -56.6655 21 -56.25 21 L -45.75 21 C -45.3345 21 -45 20.6655 -45 20.25 C -45 19.8345 -45.3345 19.5 -45.75 19.5 L -54.439453 19.5 L -45.271484 10.330078 C -45.262245 10.322459 -45.254952 10.312733 -45.246094 10.304688 L -45.220703 10.28125 C -45.186409 10.247087 -45.154125 10.210207 -45.126953 10.169922 C -45.125652 10.167992 -45.124331 10.166005 -45.123047 10.164062 C -45.121741 10.162089 -45.120426 10.160187 -45.119141 10.158203 C -45.095498 10.121698 -45.075688 10.08352 -45.058594 10.042969 C -45.057263 10.039812 -45.055975 10.036382 -45.054688 10.033203 C -45.053904 10.031277 -45.053501 10.029275 -45.052734 10.027344 C -45.036766 9.9870176 -45.024472 9.9457961 -45.015625 9.9023438 C -45.015107 9.8997992 -45.014164 9.8970852 -45.013672 9.8945312 C -45.012922 9.8906762 -45.012407 9.8866767 -45.011719 9.8828125 C -45.004117 9.8398268 -45 9.7952326 -45 9.75 C -45 9.7040168 -45.005822 9.6588897 -45.013672 9.6152344 C -45.014116 9.6127642 -45.013204 9.6098834 -45.013672 9.6074219 C -45.014302 9.6041826 -45.014952 9.6008887 -45.015625 9.5976562 C -45.024761 9.552785 -45.03797 9.5102752 -45.054688 9.46875 C -45.073322 9.4224603 -45.095994 9.3790178 -45.123047 9.3378906 C -45.179124 9.2526395 -45.252639 9.1791235 -45.337891 9.1230469 C -45.379018 9.0959942 -45.42246 9.0733231 -45.46875 9.0546875 C -45.510275 9.03797 -45.552785 9.0247605 -45.597656 9.015625 C -45.600813 9.0149822 -45.60425 9.0142751 -45.607422 9.0136719 C -45.609986 9.0131734 -45.612666 9.0141433 -45.615234 9.0136719 C -45.65889 9.0058217 -45.704017 9 -45.75 9 L -56.25 9 z M -66.25 17 C -66.6655 17 -67 17.3345 -67 17.75 C -67 18.1655 -66.6655 18.5 -66.25 18.5 L -61.560547 18.5 L -66.753906 23.695312 C -66.762437 23.703062 -66.773087 23.710618 -66.78125 23.71875 C -66.798195 23.735695 -66.814818 23.752978 -66.830078 23.771484 C -66.830955 23.772546 -66.831161 23.774325 -66.832031 23.775391 C -66.847198 23.793998 -66.861652 23.813945 -66.875 23.833984 L -66.876953 23.835938 C -66.881978 23.84353 -66.885906 23.851646 -66.890625 23.859375 C -66.898504 23.872284 -66.906959 23.885025 -66.914062 23.898438 L -66.914062 23.900391 C -66.915428 23.902982 -66.916636 23.9056 -66.917969 23.908203 C -66.927219 23.926285 -66.93557 23.943986 -66.943359 23.962891 C -66.946861 23.971354 -66.949948 23.979722 -66.953125 23.988281 C -66.957833 24.00098 -66.962765 24.014327 -66.966797 24.027344 C -66.96759 24.02991 -66.967985 24.032583 -66.96875 24.035156 C -66.975002 24.056155 -66.979949 24.075918 -66.984375 24.097656 C -66.987666 24.113669 -66.989955 24.130328 -66.992188 24.146484 C -66.993418 24.155442 -66.995179 24.16477 -66.996094 24.173828 C -67.001056 24.22283 -67.000806 24.271293 -66.996094 24.320312 C -66.994585 24.336508 -66.992749 24.353267 -66.990234 24.369141 C -66.988757 24.378261 -66.986192 24.387413 -66.984375 24.396484 C -66.984014 24.398327 -66.984749 24.400506 -66.984375 24.402344 C -66.980143 24.422674 -66.974691 24.442895 -66.96875 24.462891 C -66.891079 24.726285 -66.67471 24.928923 -66.402344 24.984375 C -66.391435 24.986646 -66.380121 24.988455 -66.369141 24.990234 C -66.355171 24.992447 -66.340392 24.994658 -66.326172 24.996094 C -66.30041 24.998769 -66.275872 25 -66.25 25 L -59.75 25 C -59.3345 25 -59 24.6655 -59 24.25 C -59 23.8345 -59.3345 23.5 -59.75 23.5 L -64.439453 23.5 L -59.285156 18.345703 C -59.28032 18.340867 -59.276161 18.335009 -59.271484 18.330078 L -59.269531 18.328125 C -59.104201 18.190767 -59 17.982721 -59 17.75 C -59 17.3345 -59.3345 17 -59.75 17 L -66.25 17 z "
       class="ColorScheme-Text"
       fill="currentColor" />
  </g>
  <g
     id="system-search">
    <path
       d="m 84,-2 v 32 h 32 V -2 Z"
       fill="none"
       id="path10-7" />
    <path
       id="path557"
       d="m 96.356065,3.0229373 c -2.159124,0.1547842 -4.190128,1.08257 -5.720706,2.6132836 -3.513812,3.5145634 -3.513811,9.2120001 1e-6,12.7265631 3.106241,3.09719 7.992846,3.503955 11.56837,0.96289 l 0.45116,0.451173 1.06055,1.060547 3.89732,3.89732 c 0.58761,0.587604 1.5335,0.587603 2.1211,1e-6 0.58761,-0.58761 0.58761,-1.533493 0,-2.121094 l -3.89733,-3.897322 -1.06054,-1.060549 -0.44336,-0.443359 c 2.54348,-3.57892 2.13327,-8.4708104 -0.9707,-11.5761716 -1.8458,-1.8458793 -4.402099,-2.7994201 -7.005865,-2.6132821 z m 0.642575,1.4765652 c 1.989008,2.99e-4 3.89644,0.7906724 5.30274,2.1972618 2.92818,2.9288024 2.92818,7.6766697 -10e-6,10.6054727 -2.928801,2.928173 -7.676661,2.928173 -10.605463,0 -2.928177,-2.928803 -2.928177,-7.6766663 -1e-6,-10.6054692 1.406293,-1.4065926 3.313728,-2.1969674 5.302734,-2.1972653 z"
       class="ColorScheme-Text"
       fill="currentColor" />
  </g>
  <g
     id="22-22-system-run"
     transform="translate(168.5,9)">
    <rect
       width="22"
       height="22"
       fill="currentColor"
       opacity="0.00100002"
       id="rect1558"
       x="-22"
       y="0" />
    <path
       id="path1560"
       class="ColorScheme-Text"
       d="M -16 3 C -17.661995 3 -19 4.3380057 -19 6 L -19 16 C -19 17.661994 -17.661995 19 -16 19 L -6 19 C -4.3380057 19 -3 17.661994 -3 16 L -3 6 C -3 4.3380057 -4.3380057 3 -6 3 L -16 3 z M -16 4.5 L -6 4.5 C -5.1690008 4.5 -4.5 5.1690008 -4.5 6 L -4.5 16 C -4.5 16.830999 -5.1690008 17.5 -6 17.5 L -16 17.5 C -16.830999 17.5 -17.5 16.830999 -17.5 16 L -17.5 6 C -17.5 5.1690008 -16.830999 4.5 -16 4.5 z "
       fill="currentColor" />
    <path
       id="path528"
       d="m -13,8 v 6 l 5,-3 z"
       class="ColorScheme-Text"
       fill="currentColor" />
  </g>
  <g
     id="system-run">
    <rect
       width="32"
       height="32"
       fill="currentColor"
       opacity="0.00100002"
       id="rect437"
       x="168.5"
       y="9"
       style="stroke-width:1.45455" />
    <path
       id="rect507"
       d="m 181.5,20.500001 v 8.999998 L 189,25 Z"
       class="ColorScheme-Text"
       fill="currentColor" />
    <path
       id="rect634"
       d="M 176.5 13 C 174.284 13 172.5 14.784002 172.5 17 L 172.5 33 C 172.5 35.215998 174.284 37 176.5 37 L 192.5 37 C 194.716 37 196.5 35.215998 196.5 33 L 196.5 17 C 196.5 14.784002 194.716 13 192.5 13 L 176.5 13 z M 176.5 14.5 L 192.5 14.5 C 193.885 14.5 195 15.615001 195 17 L 195 33 C 195 34.384999 193.885 35.5 192.5 35.5 L 176.5 35.5 C 175.115 35.5 174 34.384999 174 33 L 174 17 C 174 15.615001 175.115 14.5 176.5 14.5 z "
       class="ColorScheme-Text"
       fill="currentColor" />
  </g>
</svg>
