<?xml version="1.0" encoding="UTF-8" standalone="no"?>
<svg
   version="1.1"
   viewBox="0 0 54 128"
   id="svg197"
   sodipodi:docname="system.svg"
   inkscape:version="1.1.1 (3bf5ae0d25, 2021-09-20, custom)"
   xmlns:inkscape="http://www.inkscape.org/namespaces/inkscape"
   xmlns:sodipodi="http://sodipodi.sourceforge.net/DTD/sodipodi-0.dtd"
   xmlns="http://www.w3.org/2000/svg"
   xmlns:svg="http://www.w3.org/2000/svg">
  <sodipodi:namedview
     id="namedview199"
     pagecolor="#ffffff"
     bordercolor="#666666"
     borderopacity="1.0"
     inkscape:pageshadow="2"
     inkscape:pageopacity="0.0"
     inkscape:pagecheckerboard="0"
     showgrid="true"
     inkscape:snap-bbox="true"
     inkscape:snap-bbox-edge-midpoints="false"
     inkscape:bbox-nodes="true"
     inkscape:snap-smooth-nodes="true"
     inkscape:zoom="8.609375"
     inkscape:cx="-40.76951"
     inkscape:cy="64.871143"
     inkscape:window-width="1440"
     inkscape:window-height="748"
     inkscape:window-x="0"
     inkscape:window-y="28"
     inkscape:window-maximized="1"
     inkscape:current-layer="svg197"
     inkscape:snap-nodes="false">
    <inkscape:grid
       type="xygrid"
       id="grid1038" />
  </sodipodi:namedview>
  <defs
     id="defs3">
    <style
       id="current-color-scheme"
       type="text/css">.ColorScheme-Text { color:#363636; }</style>
  </defs>
  <g
     id="22-22-system-save-session"
     transform="translate(62,94)">
    <path
       class="ColorScheme-Text"
       d="m 3,13.004 v 16 H 19 V 16.305 H 18.993 L 19,16.29 15.707,12.997 15.699,13.012 V 12.997 H 3 Z m 1,1.0018 h 3 v 5 h 8 v -5 h 0.29298 l 2.707,2.707 v 11.293 h -2 v -7 h -10 v 7 h -2 v -14 z m 4,0 h 3.9004 v 4 H 8 Z m -1,8.0001 h 8 v 6 H 7 Z"
       fill="currentColor"
       id="path5" />
    <path
       d="M 0,10 V 32 H 22 V 10 Z"
       fill="none"
       id="path7" />
  </g>
  <g
     id="system-save-session"
     transform="translate(62,94)">
    <path
       class="ColorScheme-Text"
       d="M 26,4 V 28 H 50 V 10 L 44,4 Z m 1,1 h 5 v 8 H 43 V 5 h 0.58594 l 5.4141,5.4141 v 16.586 h -4 v -8 h -14 v 8 h -4 v -22 z m 6,0 h 6 v 7 h -6 z m -1,15 h 12 v 7 H 32 Z"
       fill="currentColor"
       id="path10" />
    <path
       d="M 22,0 V 32 H 54 V 0 Z"
       fill="none"
       id="path12" />
  </g>
  <g
     id="22-22-system-users"
     transform="translate(62,30)">
    <path
       class="ColorScheme-Text"
       d="m 14,13 c -1.662,0 -3,1.338 -3,3 0,1.662 1.338,3 3,3 1.662,0 3,-1.338 3,-3 0,-1.662 -1.338,-3 -3,-3 z m -6,3 c -1.662,0 -3,1.338 -3,3 0,1.662 1.338,3 3,3 1.662,0 3,-1.338 3,-3 0,-1.662 -1.338,-3 -3,-3 z m 6,4 c -0.64635,0 -1.256,0.13409 -1.8184,0.36133 l 0.45508,0.91406 C 13.0645,21.11489 13.51444,21 13.99998,21 c 2.216,0 4,1.784 4,4 h -3.5 l 0.5,1 h 4 v -1 c 0,-2.77 -2.23,-5 -5,-5 z m -6,3 c -2.77,0 -5,2.23 -5,5 v 1 h 10 v -1 c 0,-2.77 -2.23,-5 -5,-5 z m 0,1 c 2.216,0 4,1.784 4,4 H 4 c 0,-2.216 1.784,-4 4,-4 z"
       fill="currentColor"
       id="path15" />
    <path
       d="M 0,10 V 32 H 22 V 10 Z"
       fill="none"
       id="path17" />
  </g>
  <g
     id="system-users"
     transform="translate(62,30)">
    <path
       class="ColorScheme-Text"
       d="M 42.5,4 A 4.5,4.5 0 0 0 38,8.5 4.5,4.5 0 0 0 42.5,13 4.5,4.5 0 0 0 47,8.5 4.5,4.5 0 0 0 42.5,4 Z m 0,1 A 3.5,3.5 0 0 1 46,8.5 3.5,3.5 0 0 1 42.5,12 3.5,3.5 0 0 1 39,8.5 3.5,3.5 0 0 1 42.5,5 Z m -9,4 C 31.0147,9 29,11.0147 29,13.5 29,15.9853 31.0147,18 33.5,18 35.9853,18 38,15.9853 38,13.5 38,11.0147 35.9853,9 33.5,9 Z m 0,1 A 3.5,3.5 0 0 1 37,13.5 3.5,3.5 0 0 1 33.5,17 3.5,3.5 0 0 1 30,13.5 3.5,3.5 0 0 1 33.5,10 Z m 9,4 c -0.88285,0.003 -1.7583,0.17228 -2.5859,0.5 -0.06618,0.42368 -0.17413,0.83977 -0.32226,1.2422 0.90271,-0.48731 1.8984,-0.74142 2.9082,-0.74219 3.5899,0 6.5,3.134 6.5,7 h -8.3418 c 0.17032,0.32329 0.3255,0.65711 0.46484,1 h 8.877 v -1 c 0,-4.4183 -3.3579,-8 -7.5,-8 z m -9,5 C 29.3579,19 26,22.5817 26,27 v 1 h 15 v -1 c 0,-4.4183 -3.3579,-8 -7.5,-8 z m 0,1 c 3.5899,0 6.5,3.134 6.5,7 H 27 c 0,-3.866 2.9101,-7 6.5,-7 z"
       fill="currentColor"
       id="path20" />
    <path
       d="M 22,0 V 32 H 54 V 0 Z"
       fill="none"
       id="path22" />
  </g>
  <g
     id="22-22-system-search"
     transform="translate(62,-2)">
    <path
       class="ColorScheme-Text"
       d="m 9,13 c -3.324,0 -6,2.676 -6,6 0,3.324 2.676,6 6,6 1.4812,0 2.8306,-0.53468 3.875,-1.418 l 5.418,5.418 0.70703,-0.70703 -5.418,-5.418 c 0.88329,-1.0444 1.418,-2.3938 1.418,-3.875 0,-3.324 -2.676,-6 -6,-6 z m 0,1 c 2.77,0 5,2.23 5,5 0,2.77 -2.23,5 -5,5 -2.77,0 -5,-2.23 -5,-5 0,-2.77 2.23,-5 5,-5 z"
       fill="currentColor"
       id="path25" />
    <path
       d="M 0,10 V 32 H 22 V 10 Z"
       fill="none"
       id="path27" />
  </g>
  <g
     id="system-search"
     transform="translate(62,-2)">
    <path
       class="ColorScheme-Text"
       d="m 35,4 a 9,9 0 0 0 -9,9 9,9 0 0 0 9,9 9,9 0 0 0 5.9941,-2.2988 L 49.2929,28 l 0.70703,-0.70703 -8.3008,-8.3008 a 9,9 0 0 0 2.3008,-5.9922 9,9 0 0 0 -9,-9 z m 0,1 a 8,8 0 0 1 8,8 8,8 0 0 1 -8,8 8,8 0 0 1 -8,-8 8,8 0 0 1 8,-8 z"
       fill="currentColor"
       id="path30" />
    <path
       d="M 22,0 V 32 H 54 V 0 Z"
       fill="none"
       id="path32" />
  </g>
  <g
     id="system-user-list"
     transform="translate(62,62)">
    <path
       class="ColorScheme-Text"
       d="m 45,9 c -0.58947,0 -1.133,0.17457 -1.5938,0.46875 0.04318,0.46425 0.0075,0.92267 -0.008,1.3359 0.37711,-0.50585 0.9708,-0.80409 1.6018,-0.80463 1.1046,0 2,0.89543 2,2 0,1.10457 -0.89543,2 -2,2 -1.0405,-5.56e-4 -1.9068,-0.7989 -1.9922,-1.8359 -0.18434,0.41948 -0.46466,0.77032 -0.6956,1.0996 -10e-4,0.0013 -0.003,0.0026 -0.004,0.0039 0.476,1.0197 1.4888,1.7324 2.6918,1.7324 1.6612,0 2.998,-1.338 2.998,-3 0,-1.662 -1.3369,-3 -2.998,-3 z m -7,9 c 4.432,0 8,3.568 8,8 H 30 c 0,-4.432 3.568,-8 8,-8 z m 1e-5,-1 c -4.9856,0 -9,3.7166 -9,8.3333 V 27 h 18 v -1.6667 c 0,-4.6167 -4.0144,-8.3333 -9,-8.3333 z m 6.9765,-1 c -1.2619,4.88e-4 -2.3962,0.47884 -3.2754,1.2402 0.38003,0.15615 0.76608,0.33575 1.1424,0.50783 0.005,0.0025 0.009,0.0052 0.0137,0.0078 0.61531,-0.44993 1.3332,-0.75586 2.1173,-0.75586 2.2269,5e-5 4.0234,2.338 4.0234,4 h -2.7285 c 0.19616,0.3391 0.30158,0.64811 0.449,1 h 3.2815 v -1 c 0,-2.7694 -2.2402,-4.9989 -5.0215,-5 z M 37.99991,6 c 2.2092,0 4,1.7909 4,4 0,2.2091 -1.7908,4 -4,4 -2.2092,0 -4,-1.7909 -4,-4 0,-2.2091 1.7908,-4 4,-4 z m 0,-1 c -2.7614,0 -5,2.2386 -5,5 0,2.7614 2.2386,5 5,5 2.3508,0 4.3227,-1.6223 4.8571,-3.8084 0.09336,-0.38187 0.14286,-0.78094 0.14286,-1.1916 0,-2.7614 -2.2386,-5 -5,-5 z m -6.9766,11 c 1.2619,4.88e-4 2.3962,0.47884 3.2754,1.2402 -0.40446,0.16292 -0.80548,0.35541 -1.1561,0.51561 -0.61531,-0.44991 -1.3332,-0.75584 -2.1173,-0.75584 -2.2269,5e-5 -4.0234,2.338 -4.0234,4 h 2.7285 c -0.18697,0.33326 -0.31833,0.6897 -0.449,1 h -3.2815 v -1 c 0,-2.7694 2.2402,-4.9989 5.0215,-5 z M 30.99792,9 c 0.58947,0 1.133,0.17457 1.5938,0.46875 -0.04841,0.46007 -0.0093,0.92754 0.008,1.3359 -0.37711,-0.50585 -0.9708,-0.80409 -1.6018,-0.80463 -1.1046,0 -2,0.89543 -2,2 0,1.10457 0.89543,2 2,2 1.0405,-5.56e-4 1.9068,-0.7989 1.9922,-1.8359 0.18831,0.40268 0.47165,0.77011 0.6956,1.0996 10e-4,0.0013 0.003,0.0026 0.004,0.0039 -0.476,1.0197 -1.4888,1.7324 -2.6918,1.7324 -1.6612,0 -2.998,-1.338 -2.998,-3 0,-1.662 1.3369,-3 2.998,-3 z"
       fill="currentColor"
       id="path35" />
    <path
       d="M 22,0 V 32 H 54 V 0 Z"
       fill="none"
       id="path37" />
  </g>
  <g
     id="system-user-prompt"
     transform="translate(62,126)">
    <path
       d="M 22,0 V 32 H 54 V 0 Z"
       fill="none"
       id="path40" />
    <path
       class="ColorScheme-Text"
       d="m 37,10.75 v 1.5 h 5 v -1.5 z m -4,0 v 1.5 h 3 v -1.5 z m -6,0 v 1.5 h 5 v -1.5 z M 26,9 h 24 v 5 H 26 Z M 25,8 v 7 H 51 V 8 Z m 1,10 h 24 v 5 H 26 Z m -1,-1 v 7 h 26 v -7 z m 3.5,2 C 27.67157,19 27,19.67157 27,20.5 27,21.32843 27.67157,22 28.5,22 29.32843,22 30,21.32843 30,20.5 30,19.67157 29.32843,19 28.5,19 Z m 4,0 C 31.67157,19 31,19.67157 31,20.5 31,21.32843 31.67157,22 32.5,22 33.32843,22 34,21.32843 34,20.5 34,19.67157 33.32843,19 32.5,19 Z m 4,0 C 35.67157,19 35,19.67157 35,20.5 35,21.32843 35.67157,22 36.5,22 37.32843,22 38,21.32843 38,20.5 38,19.67157 37.32843,19 36.5,19 Z m 4,0 C 39.67157,19 39,19.67157 39,20.5 39,21.32843 39.67157,22 40.5,22 41.32843,22 42,21.32843 42,20.5 42,19.67157 41.32843,19 40.5,19 Z"
       fill="currentColor"
       id="path42" />
  </g>
  <g
     id="22-22-system-user-prompt"
     transform="matrix(0.6875,0,0,0.6875,46.875,136)">
    <path
       class="ColorScheme-Text"
       d="M 35.818,21.091 A 0.72727,0.72727 0 0 1 35.09073,21.81827 0.72727,0.72727 0 0 1 34.36346,21.091 0.72727,0.72727 0 0 1 35.09073,20.36373 0.72727,0.72727 0 0 1 35.818,21.091 Z m -2.1818,0 A 0.72727,0.72727 0 0 1 32.90893,21.81827 0.72727,0.72727 0 0 1 32.18166,21.091 0.72727,0.72727 0 0 1 32.90893,20.36373 0.72727,0.72727 0 0 1 33.6362,21.091 Z m -2.1818,0 A 0.72727,0.72727 0 0 1 30.72713,21.81827 0.72727,0.72727 0 0 1 29.99986,21.091 0.72727,0.72727 0 0 1 30.72713,20.36373 0.72727,0.72727 0 0 1 31.4544,21.091 Z m -2.1818,0 A 0.72727,0.72727 0 0 1 28.54533,21.81827 0.72727,0.72727 0 0 1 27.81806,21.091 0.72727,0.72727 0 0 1 28.54533,20.36373 0.72727,0.72727 0 0 1 29.2726,21.091 Z m 5.8182,-10.909 h 2.9091 v 1.4545 h -2.9091 z m -2.9091,0 h 1.4545 v 1.4545 h -1.4545 z m -4.3636,0 h 2.9091 v 1.4545 h -2.9091 z m -2.9091,7.2727 v 7.2727 h 26.182 v -7.2727 z m 1.4545,1.4545 h 23.273 v 4.3636 H 26.3635 Z M 24.909,7.2732 v 7.2727 H 51.091 V 7.2732 Z m 1.4545,1.4545 h 23.273 v 4.3636 h -23.273 z"
       fill="currentColor"
       id="path45" />
    <path
       d="M 22,0 V 32 H 54 V 0 Z"
       fill="none"
       id="path47" />
  </g>
  <g
     id="22-22-system-user-list"
     transform="matrix(0.6875,0,0,0.6875,46.875,72)">
    <path
       class="ColorScheme-Text"
       d="m 44.552,10.182 c -0.37453,0 -0.72044,0.10364 -1.0284,0.26989 1.89e-4,0.0019 -0.09527,0.05843 -0.09498,0.06047 0.11476,1.4527 -0.24945,2.3769 -0.66509,3.0986 0.39606,0.5635 1.0484,0.93468 1.7885,0.93468 1.0258,0 1.8861,-0.70799 2.1193,-1.6619 0.04073,-0.16664 0.06255,-0.3407 0.06255,-0.51989 -1.4e-5,-1.205 -0.97684,-2.1818 -2.1818,-2.1818 z m -13.098,0 c 0.37453,0 0.72044,0.10364 1.0284,0.26989 -1.89e-4,0.0019 0.09527,0.05843 0.09498,0.06047 -0.11476,1.4527 0.24946,2.3769 0.66509,3.0986 -0.39606,0.5635 -1.0484,0.93468 -1.7885,0.93468 -1.0258,0 -1.8861,-0.70799 -2.1193,-1.6619 -0.04073,-0.16664 -0.06254,-0.3407 -0.06254,-0.51989 1.4e-5,-1.205 0.97684,-2.1818 2.1818,-2.1818 z m -4.4e-5,5.8182 c 1.2265,0 2.3022,0.56552 2.9602,1.4773 -0.36926,0.19574 -0.745,0.43622 -1.071,0.63066 -0.35836,-0.42266 -1.025,-0.65339 -1.8893,-0.65339 -1.3095,0 -2.1818,0.9608 -2.1818,2.9091 h 1.8182 l -0.72727,1.4545 h -2.5455 l 1e-6,-2.2102 c 1e-6,-2.093 1.622,-3.608 3.6364,-3.608 z m 13.091,1.4e-5 c -1.2265,0 -2.3022,0.56552 -2.9602,1.4773 0.36926,0.19574 0.745,0.43622 1.071,0.63066 0.35836,-0.42266 1.025,-0.65339 1.8893,-0.65339 1.3095,0 2.1818,0.99389 2.1818,2.9091 h -1.8182 l 0.72727,1.4545 h 2.5455 l 2e-6,-2.2102 c 2e-6,-2.093 -1.622,-3.608 -3.6364,-3.608 z m -6.5455,2.9091 c 2.9091,0 5.8182,1.4545 5.8182,5.8182 h -11.636 c 0,-4.3636 2.9091,-5.8182 5.8182,-5.8182 z m 0,-1.4545 c -4.2302,0 -7.2612,2.9743 -7.2698,7.2727 l -0.0029,1.4545 h 14.545 l -0.0029,-1.4545 c -0.0087,-4.3213 -3.0396,-7.2727 -7.2698,-7.2727 z m 7.5e-5,-11.636 c -2.8117,0 -5.091,2.2793 -5.091,5.0909 0,2.8116 2.2793,5.0909 5.091,5.0909 2.3936,0 4.4013,-1.6518 4.9455,-3.8777 0.09498,-0.38881 0.14547,-0.79514 0.14547,-1.2133 0,-2.8116 -2.2793,-5.0909 -5.091,-5.0909 z"
       fill="currentColor"
       id="path50" />
    <path
       d="M 22,0 V 32 H 54 V 0 Z"
       fill="none"
       id="path52" />
  </g>
  <g
     id="system-reboot"
     transform="translate(41,-11.999947)">
    <rect
       id="rect4546"
       width="32"
       height="32"
       x="-41"
       y="44"
       rx="0"
       ry="0"
       style="fill:none" />
    <path
       d="m -23.328125,49.134766 c -2.258042,-0.345302 -4.624247,0.01054 -6.75,1.11914 a 1,1 0 0 0 -0.423828,1.34961 1,1 0 0 0 1.349609,0.423828 c 3.48508,-1.817501 7.734887,-1.166563 10.517578,1.609375 2.779307,2.782285 3.431854,7.03434 1.613282,10.521484 a 1,1 0 0 0 0.423828,1.349609 1,1 0 0 0 1.349609,-0.423828 c 2.219018,-4.255006 1.419881,-9.469194 -1.972656,-12.863281 a 1.0001,1.0001 0 0 0 -0.002,0 c -1.697314,-1.693195 -3.847427,-2.740635 -6.105469,-3.085937 z m -10.830078,5.294921 a 1,1 0 0 0 -0.585938,0.492188 c -2.217198,4.251505 -1.421589,9.458912 1.964844,12.853516 a 1.0001,1.0001 0 0 0 0.002,0.002 c 3.394629,3.386391 8.603963,4.183996 12.855469,1.966797 a 1,1 0 0 0 0.423828,-1.34961 1,1 0 0 0 -1.349609,-0.423828 c -3.484252,1.817069 -7.732898,1.166848 -10.515625,-1.607422 l -0.002,-0.002 c -2.774287,-2.78269 -3.422539,-7.031372 -1.605469,-10.515625 a 1,1 0 0 0 -0.425781,-1.349609 1,1 0 0 0 -0.761719,-0.06641 z"
       id="path2104"
       class="ColorScheme-Text"
       fill="currentColor" />
    <path
       id="rect2921"
       d="m -33.865234,54.375 c -0.255619,0 -0.511163,0.0971 -0.707032,0.292969 -0.391737,0.391737 -0.391737,1.022325 0,1.414062 l 3.208985,3.208985 c 0.391737,0.391737 1.022325,0.391737 1.414062,0 0.391737,-0.391738 0.391737,-1.022326 0,-1.414063 l -3.208984,-3.208984 C -33.354072,54.4721 -33.609615,54.375 -33.865234,54.375 Z m 14.521484,6.037109 c -0.255619,0 -0.511163,0.0971 -0.707031,0.292969 -0.391737,0.391737 -0.391737,1.024279 0,1.416016 l 3.208984,3.208984 c 0.391737,0.391737 1.024279,0.391737 1.416016,0 0.391737,-0.391737 0.391737,-1.022325 0,-1.414062 l -3.210938,-3.210938 c -0.195868,-0.195868 -0.451412,-0.292969 -0.707031,-0.292969 z"
       fill="currentColor"
       class="ColorScheme-Text"
       style="opacity:1" />
  </g>
  <g
     id="system-shutdown"
     transform="translate(42,-7)">
    <rect
       id="rect930"
       width="32"
       height="32"
       x="-42"
       y="7.0000801"
       style="opacity:0.00100002;fill:currentColor;fill-opacity:1;stroke:none;stroke-width:2.90909;stroke-linecap:round;stroke-linejoin:round;stroke-miterlimit:4;stroke-dasharray:none;stroke-opacity:1" />
    <rect
       id="rect1633"
       width="2"
       height="11"
       x="-27"
       y="11"
       rx="1"
       ry="1"
       class="ColorScheme-Text"
       fill="currentColor"
       style="opacity:1" />
    <path
       d="m -19.865233,14.199225 a 1,1 0 0 0 -0.669922,0.36914 1,1 0 0 0 0.15625,1.40625 c 2.135285,1.707649 3.377916,4.291271 3.378906,7.025391 0,4.982403 -4.017597,9 -9,9 -4.982403,0 -9,-4.017597 -9,-9 0.0075,-2.730942 1.253446,-5.308986 3.388672,-7.011719 a 1,1 0 0 0 0.158203,-1.40625 1,1 0 0 0 -1.404297,-0.158203 c -2.609064,2.080594 -4.134088,5.235198 -4.142578,8.572266 a 1.0001,1.0001 0 0 0 0,0.0039 c 0,6.063282 4.936718,11 11,11 6.063282,0 11,-4.936718 11,-11 a 1.0001,1.0001 0 0 0 0,-0.002 c -0.0012,-3.340092 -1.520403,-6.499843 -4.128906,-8.585938 a 1,1 0 0 0 -0.736328,-0.21289 z"
       id="path3147"
       class="ColorScheme-Text"
       fill="currentColor" />
  </g>
  <g
     id="system-suspend-hibernate"
     transform="translate(40,-10.999969)">
    <rect
       id="rect5108"
       width="32"
       height="32"
       x="-40"
       y="75"
       rx="0"
       ry="0"
       style="fill:none" />
    <path
       id="path4821"
       d="m -24,80 a 11,11 0 0 0 -11,11 11,11 0 0 0 11,11 11,11 0 0 0 11,-11 11,11 0 0 0 -11,-11 z m 0,2 a 9,9 0 0 1 9,9 9,9 0 0 1 -9,9 9,9 0 0 1 -9,-9 9,9 0 0 1 9,-9 z"
       class="ColorScheme-Text"
       fill="currentColor" />
    <rect
       id="rect4968"
       width="12"
       height="2"
       x="-30"
       y="90"
       rx="1"
       ry="1"
       class="ColorScheme-Text"
       fill="currentColor"
       style="opacity:1" />
  </g>
  <g
     id="system-lock-screen"
     transform="translate(-32,-112)">
    <g
       id="g7697"
       transform="translate(1)">
      <path
         id="rect6448"
         d="m -25,149 c -3.324,0 -6,2.676 -6,6 v 3 h 2 v -3 c 0,-2.216 1.784,-4 4,-4 2.216,0 4,1.784 4,4 v 3 h 2 v -3 c 0,-3.324 -2.676,-6 -6,-6 z"
         class="ColorScheme-Text"
         fill="currentColor"
         style="opacity:1"
         sodipodi:nodetypes="ssccsssccss" />
      <path
         id="rect6102"
         d="m -30,157 c -2.77,0 -5,2.23 -5,5 v 6 c 0,2.77 2.23,5 5,5 h 10 c 2.77,0 5,-2.23 5,-5 v -6 c 0,-2.77 -2.23,-5 -5,-5 z m 0,2 h 10 c 1.662,0 3,1.338 3,3 v 6 c 0,1.662 -1.338,3 -3,3 h -10 c -1.662,0 -3,-1.338 -3,-3 v -6 c 0,-1.662 1.338,-3 3,-3 z"
         class="ColorScheme-Text"
         fill="currentColor" />
    </g>
    <rect
       id="rect7495"
       width="32"
       height="32"
       x="-40"
       y="145"
       rx="0"
       ry="0"
       style="fill:none" />
  </g>
  <g
     id="system-suspend"
     transform="translate(-72.00001,-144)">
    <g
       id="g8323"
       transform="translate(1,3)">
      <path
         d="m 15,150 a 1,1 0 0 0 -1,1 1,1 0 0 0 1,1 h 7.585937 l -8.292968,8.29297 A 1.0001,1.0001 0 0 0 15,162 h 10 a 1,1 0 0 0 1,-1 1,1 0 0 0 -1,-1 h -7.585938 l 8.292969,-8.29297 A 1.0001,1.0001 0 0 0 25,150 Z"
         id="path7738"
         class="ColorScheme-Text"
         fill="currentColor" />
      <path
         d="m 5,158 a 1,1 0 0 0 -1,1 1,1 0 0 0 1,1 h 3.5859375 l -4.2929688,4.29297 A 1.0001,1.0001 0 0 0 5,166 h 6 a 1,1 0 0 0 1,-1 1,1 0 0 0 -1,-1 H 7.4140625 l 4.2929685,-4.29297 A 1.0001,1.0001 0 0 0 11,158 Z"
         id="path7892"
         class="ColorScheme-Text"
         fill="currentColor"
         style="opacity:1" />
    </g>
    <rect
       id="rect8195"
       width="32"
       height="32"
       x="0"
       y="145"
       rx="0.91428572"
       ry="0.91428572"
       style="fill:none;stroke-width:0.914286" />
  </g>
  <g
     id="system-switch-user"
     transform="translate(-127,-85.048412)">
    <rect
       id="rect9268"
       width="32"
       height="32"
       x="55"
       y="150"
       rx="0"
       ry="0"
       style="fill:none" />
    <g
       id="g9470"
       transform="translate(-3,-1.0004175)">
      <path
         id="rect8810"
         d="m 64,162 c -0.554,0 -1,0.446 -1,1 0,0.554 0.446,1 1,1 h 20 c 0.554,0 1,-0.446 1,-1 0,-0.554 -0.446,-1 -1,-1 z m 0,8 c -0.554,0 -1,0.446 -1,1 0,0.554 0.446,1 1,1 h 20 c 0.554,0 1,-0.446 1,-1 0,-0.554 -0.446,-1 -1,-1 z"
         class="ColorScheme-Text"
         fill="currentColor" />
      <path
         id="rect8814"
         d="m 79.048828,157.04883 c -0.255619,0 -0.511163,0.0971 -0.707031,0.29297 -0.391737,0.39173 -0.391737,1.02232 0,1.41406 l 4.949219,4.95117 c 0.391737,0.39174 1.024278,0.39174 1.416015,0 0.391737,-0.39174 0.391737,-1.02428 0,-1.41601 l -4.951172,-4.94922 c -0.195868,-0.19587 -0.451412,-0.29297 -0.707031,-0.29297 z M 64,170 c -0.255619,0 -0.511163,0.0971 -0.707031,0.29297 -0.391737,0.39174 -0.391737,1.02428 0,1.41601 l 4.951172,4.94922 c 0.391737,0.39174 1.022325,0.39174 1.414062,0 0.391737,-0.39173 0.391737,-1.02232 0,-1.41406 l -4.949219,-4.95117 C 64.513116,170.0971 64.255619,170 64,170 Z"
         class="ColorScheme-Text"
         style="opacity:1"
         fill="currentColor" />
    </g>
  </g>
  <g
     id="22-22-system-lock-screen">
    <rect
       style="opacity:1;fill:none;fill-opacity:1;stroke:none;stroke-width:1.62963;stroke-linecap:round;stroke-linejoin:round;stroke-miterlimit:4;stroke-dasharray:none;stroke-opacity:1;paint-order:stroke fill markers"
       id="rect17279"
       width="22"
       height="22"
       x="-32"
       y="39"
       rx="0"
       ry="0" />
    <path
       id="rect11213"
       class="ColorScheme-Text"
       d="m -21,41 c -2.77,0 -5,2.23 -5,5 v 1 h 1 v -1 c 0,-2.216 1.784,-4 4,-4 2.216,0 4,1.784 4,4 v 1 h 1 v -1 c 0,-2.77 -2.23,-5 -5,-5 z"
       fill="currentColor" />
    <path
       id="rect11552"
       class="ColorScheme-Text"
       d="m -25,46 c -2.216,0 -4,1.784 -4,4 v 5 c 0,2.216 1.784,4 4,4 h 8 c 2.216,0 4,-1.784 4,-4 v -5 c 0,-2.216 -1.784,-4 -4,-4 z m 0,1 h 8 c 1.662,0 3,1.338 3,3 v 5 c 0,1.662 -1.338,3 -3,3 h -8 c -1.662,0 -3,-1.338 -3,-3 v -5 c 0,-1.662 1.338,-3 3,-3 z"
       fill="currentColor" />
  </g>
  <g
     id="22-22-system-suspend-hibernate"
     transform="translate(0.0108,1.0000305)">
    <rect
       style="opacity:1;fill:none;fill-opacity:1;stroke:none;stroke-width:1.62963;stroke-linecap:round;stroke-linejoin:round;stroke-miterlimit:4;stroke-dasharray:none;stroke-opacity:1;paint-order:stroke fill markers"
       id="rect17287"
       width="22"
       height="22"
       x="32"
       y="68"
       rx="0"
       ry="0" />
    <path
       id="path14813"
       class="ColorScheme-Text"
       d="m 43.011719,71 a 9,9 0 0 0 -9,9 9,9 0 0 0 9,9 9,9 0 0 0 9,-9 9,9 0 0 0 -9,-9 z M 43,72 a 8,8 0 0 1 8,8 8,8 0 0 1 -8,8 8,8 0 0 1 -8,-8 8,8 0 0 1 8,-8 z"
       transform="translate(-0.0108,-1.0000305)"
       fill="currentColor" />
    <rect
       id="rect14964"
       width="15.978402"
       height="1"
       x="35.010799"
       y="79.999969"
       rx="0"
       ry="0"
       class="ColorScheme-Text"
       style="opacity:1;stroke-width:0.999321"
       fill="currentColor" />
  </g>
  <g
     id="22-22-system-suspend">
    <rect
       style="fill:none;fill-opacity:1;stroke:none;stroke-width:1.62963;stroke-linecap:round;stroke-linejoin:round;stroke-miterlimit:4;stroke-dasharray:none;stroke-opacity:1;paint-order:stroke fill markers"
       id="rect17036"
       width="22"
       height="22"
       x="-32"
       y="7"
       rx="0"
       ry="0" />
    <path
       id="rect961"
       d="m -21.5,11 c -0.277,0 -0.5,0.223 -0.5,0.5 0,0.277 0.223,0.5 0.5,0.5 h 7.792969 l -8.146485,8.146484 C -21.943891,20.236859 -22,20.3615 -22,20.5 c 0,0.277 0.223,0.5 0.5,0.5 h 9 c 0.03463,0 0.06896,-0.0031 0.101562,-0.0098 0.195645,-0.03983 0.34884,-0.193027 0.388672,-0.388672 0.0066,-0.03257 0.0098,-0.0669 0.0098,-0.101528 0,-0.03462 -0.0031,-0.06895 -0.0098,-0.101562 -0.03983,-0.195645 -0.193027,-0.34884 -0.388672,-0.388672 C -12.431045,20.003127 -12.465375,20 -12.5,20 h -7.792969 l 8.126953,-8.126953 c 0.0037,-0.0037 0.0062,-0.0079 0.0098,-0.01172 C -12.060614,11.770361 -12,11.643021 -12,11.5 -12,11.223 -12.223,11 -12.5,11 Z m -8,7 c -0.277,0 -0.5,0.223 -0.5,0.5 0,0.277 0.223,0.5 0.5,0.5 h 4.792969 l -5.111328,5.113281 C -29.929398,24.204844 -30,24.344188 -30,24.5 c 0,0.277 0.223,0.5 0.5,0.5 h 6 c 0.277,0 0.5,-0.223 0.5,-0.5 0,-0.277 -0.223,-0.5 -0.5,-0.5 h -4.792969 l 5.111328,-5.113281 c 0.0018,-0.0015 0.0041,-0.0024 0.0059,-0.0039 0.0036,-0.0036 0.0063,-0.0081 0.0098,-0.01172 C -23.064586,18.779708 -23,18.647905 -23,18.5 c 0,-0.008 3.66e-4,-0.01555 0,-0.02344 5.33e-4,-0.125961 -0.04491,-0.248039 -0.136719,-0.339843 C -23.234178,18.03926 -23.365763,17.99344 -23.5,18 h -0.002 z"
       class="ColorScheme-Text"
       fill="currentColor" />
  </g>
  <g
     id="22-22-system-switch-user">
    <rect
       style="fill:none;fill-opacity:1;stroke:none;stroke-width:1.62963;stroke-linecap:round;stroke-linejoin:round;stroke-miterlimit:4;stroke-dasharray:none;stroke-opacity:1;paint-order:stroke fill markers"
       id="rect17281"
       width="22"
       height="22"
       x="-32"
       y="70"
       rx="0"
       ry="0" />
    <path
       id="rect2430"
       d="m -18.451172,73.048828 c -0.127809,0 -0.255581,0.04855 -0.353516,0.146484 -0.195868,0.19587 -0.195868,0.513116 0,0.708985 L -14.707031,78 H -28.5 c -0.277,0 -0.5,0.223 -0.5,0.5 0,0.277 0.223,0.5 0.5,0.5 h 15 c 0.02874,0 0.05754,-0.0029 0.08594,-0.0078 0.0032,-5.54e-4 0.0066,-0.0013 0.0098,-0.002 0.0101,-0.0019 0.01942,-0.0053 0.0293,-0.0078 0.0167,-0.0043 0.03286,-0.0097 0.04883,-0.01563 0.0045,-0.0017 0.0092,-0.0021 0.01367,-0.0039 0.0066,-0.0026 0.0131,-0.0049 0.01953,-0.0078 0.02492,-0.01139 0.04908,-0.0253 0.07227,-0.04102 0.04082,-0.02753 0.07644,-0.06151 0.107422,-0.09961 0.0095,-0.01168 0.01902,-0.02287 0.02734,-0.03516 0.01571,-0.02319 0.02963,-0.04734 0.04102,-0.07227 0.0029,-0.0064 0.0052,-0.01296 0.0078,-0.01953 0.0018,-0.0045 0.0022,-0.0091 0.0039,-0.01367 0.0038,-0.01038 0.0086,-0.02055 0.01172,-0.03125 0.0017,-0.0058 0.0024,-0.01178 0.0039,-0.01758 0.0025,-0.0099 0.0059,-0.01919 0.0078,-0.0293 6.16e-4,-0.0032 0.0014,-0.0066 0.002,-0.0098 0.005,-0.0284 0.0078,-0.0572 0.0078,-0.08594 0,-0.02925 -0.0027,-0.05899 -0.0078,-0.08789 -4.75e-4,-0.0027 -0.0014,-0.0052 -0.002,-0.0078 -0.0019,-0.0101 -0.0053,-0.01942 -0.0078,-0.0293 -0.0015,-0.0058 -0.0022,-0.01182 -0.0039,-0.01758 -0.0046,-0.01545 -0.0095,-0.02988 -0.01563,-0.04492 -0.0026,-0.0066 -0.0049,-0.0131 -0.0078,-0.01953 -0.01137,-0.02487 -0.02535,-0.04912 -0.04102,-0.07227 -0.01769,-0.02614 -0.03736,-0.05103 -0.06055,-0.07422 l -4.949219,-4.951172 c -0.09793,-0.09793 -0.227659,-0.146484 -0.355469,-0.146484 z M -28.5,83 c -0.02874,0 -0.05754,0.0029 -0.08594,0.0078 -0.0032,5.54e-4 -0.0066,0.0013 -0.0098,0.002 -0.0101,0.0019 -0.01942,0.0053 -0.0293,0.0078 -0.0167,0.0043 -0.03286,0.0097 -0.04883,0.01563 -0.0045,0.0017 -0.0092,0.0021 -0.01367,0.0039 -0.0066,0.0026 -0.0131,0.0049 -0.01953,0.0078 -0.02492,0.01139 -0.04908,0.0253 -0.07227,0.04102 -0.04082,0.02753 -0.07644,0.06151 -0.107422,0.09961 -0.0095,0.01168 -0.01902,0.02287 -0.02734,0.03516 -0.01571,0.02319 -0.02963,0.04734 -0.04102,0.07227 -0.0029,0.0064 -0.0052,0.01296 -0.0078,0.01953 -0.0018,0.0045 -0.0022,0.0091 -0.0039,0.01367 -0.0038,0.01038 -0.0086,0.02055 -0.01172,0.03125 -0.0017,0.0058 -0.0024,0.01178 -0.0039,0.01758 -0.0025,0.0099 -0.0059,0.01919 -0.0078,0.0293 -6.16e-4,0.0032 -0.0014,0.0066 -0.002,0.0098 -0.005,0.0284 -0.0078,0.0572 -0.0078,0.08594 0,0.02925 0.0027,0.05899 0.0078,0.08789 4.75e-4,0.0027 0.0014,0.0052 0.002,0.0078 0.0019,0.0101 0.0053,0.01942 0.0078,0.0293 0.0015,0.0058 0.0022,0.01182 0.0039,0.01758 0.0046,0.01545 0.0095,0.02988 0.01563,0.04492 0.0026,0.0066 0.0049,0.0131 0.0078,0.01953 0.01137,0.02487 0.02535,0.04912 0.04102,0.07227 0.01769,0.02614 0.03736,0.05103 0.06055,0.07422 l 4.949219,4.951172 c 0.09793,0.09793 0.227659,0.146484 0.355469,0.146484 0.127809,0 0.255581,-0.04855 0.353516,-0.146484 0.195868,-0.19587 0.195867,-0.513116 0,-0.708985 L -27.292969,84 H -13.5 c 0.277,0 0.5,-0.223 0.5,-0.5 0,-0.277 -0.223,-0.5 -0.5,-0.5 z" />
  </g>
  <g
     id="22-22-system-shutdown">
    <rect
       style="fill:none;fill-opacity:1;stroke:none;stroke-width:1.62963;stroke-linecap:round;stroke-linejoin:round;stroke-miterlimit:4;stroke-dasharray:none;stroke-opacity:1;paint-order:stroke fill markers"
       id="rect17283"
       width="22"
       height="22"
       x="32.010799"
       y="5.0000801"
       rx="0"
       ry="0" />
    <rect
       id="rect15726"
       width="2"
       height="9"
       x="42.010799"
       y="6.0000801"
       rx="1"
       ry="1"
       class="ColorScheme-Text"
       fill="currentColor" />
    <path
       d="M 47.992187,8.5117188 A 0.5,0.5 0 0 0 47.298828,8.6503906 0.5,0.5 0 0 0 47.4375,9.34375 C 49.663568,10.827746 50.999927,13.324627 51,16 c 0,4.424195 -3.575805,8 -8,8 -4.424195,0 -8,-3.575805 -8,-8 0.0038,-2.673812 1.34236,-5.167152 3.568359,-6.6484375 A 0.5,0.5 0 0 0 38.707031,8.6582031 0.5,0.5 0 0 0 38.013672,8.5195313 C 35.510454,10.185291 34.004229,12.993202 34,16 c 0,4.964635 4.035365,9 9,9 4.964635,0 9,-4.035365 9,-9 -8.3e-5,-3.008551 -1.504521,-5.819475 -4.007813,-7.4882812 z"
       id="path926"
       class="ColorScheme-Text"
       fill="currentColor" />
  </g>
  <g
     id="22-22-system-reboot">
    <rect
       style="fill:none;fill-opacity:1;stroke:none;stroke-width:1.62963;stroke-linecap:round;stroke-linejoin:round;stroke-miterlimit:4;stroke-dasharray:none;stroke-opacity:1;paint-order:stroke fill markers"
       id="rect17285"
       width="22"
       height="22"
       x="32.010799"
       y="37.000053"
       rx="0"
       ry="0" />
    <path
       d="m 43.802734,39.039062 c -2.044049,-0.181381 -4.148971,0.332815 -5.935547,1.576172 a 0.5,0.5 0 0 0 -0.125,0.695313 0.5,0.5 0 0 0 0.695313,0.125 c 3.181224,-2.213955 7.482939,-1.831327 10.224609,0.908203 2.57956,2.589795 2.978513,6.536317 1.16211,9.646484 l -2.453125,-2.453125 a 0.5,0.5 0 0 0 -0.707032,0 0.5,0.5 0 0 0 0,0.707032 l 2.955079,2.955078 a 0.50005,0.50005 0 0 0 0.763671,-0.06836 c 2.484057,-3.569324 2.05776,-8.413739 -1.011718,-11.49414 a 0.50005,0.50005 0 0 0 -0.002,0 c -1.539723,-1.538521 -3.522357,-2.416275 -5.566407,-2.597657 z m -7.80664,3.617188 a 0.50005,0.50005 0 0 0 -0.367188,0.212891 c -2.484058,3.569323 -2.05776,8.413739 1.011719,11.49414 a 0.50005,0.50005 0 0 0 0.002,0.002 c 3.080384,3.069503 7.924818,3.495777 11.494141,1.011719 a 0.5,0.5 0 0 0 0.125,-0.697266 0.5,0.5 0 0 0 -0.697266,-0.123046 c -3.177027,2.21104 -7.472266,1.832564 -10.214844,-0.898438 l -0.002,-0.002 C 34.768807,51.066436 34.371287,47.119605 36.1875,44.009766 l 2.451172,2.451171 a 0.5,0.5 0 0 0 0.707031,0 0.5,0.5 0 0 0 0,-0.707031 L 36.392578,42.800781 A 0.50005,0.50005 0 0 0 35.996094,42.65625 Z"
       id="path1690"
       class="ColorScheme-Text"
       fill="currentColor" />
  </g>
  <g
     id="22-22-system-log-out"
     transform="translate(0,-25.61108)">
    <rect
       style="fill:none;fill-opacity:1;stroke:none;stroke-width:1.62963;stroke-linecap:round;stroke-linejoin:round;stroke-miterlimit:4;stroke-dasharray:none;stroke-opacity:1;paint-order:stroke fill markers"
       id="rect4686"
       width="22"
       height="22"
       x="32.010799"
       y="125"
       rx="0"
       ry="0" />
    <path
       id="path4688"
       class="ColorScheme-Text"
       d="m 43.011719,126.99997 a 9,9 0 0 0 -9,9 9,9 0 0 0 9,9 9,9 0 0 0 9,-9 9,9 0 0 0 -9,-9 z m -0.01172,1 a 8,8 0 0 1 8,8 8,8 0 0 1 -8,8 8,8 0 0 1 -8,-8 8,8 0 0 1 8,-8 z"
       fill="currentColor" />
    <path
       id="rect4798"
       d="m 41.257808,131.25757 c -0.127809,0 -0.255581,0.0486 -0.353515,0.14649 -0.195869,0.19587 -0.195869,0.51116 0,0.70703 l 3.888672,3.88867 -3.888672,3.88867 c -0.195869,0.19587 -0.195869,0.51117 0,0.70703 0.195868,0.19587 0.511163,0.19587 0.707031,0 l 4.205078,-4.20703 c 0.01312,-0.0107 0.02487,-0.0229 0.03711,-0.0351 0.01224,-0.0122 0.02444,-0.024 0.03516,-0.0371 C 45.963652,136.22443 46,136.11165 46,135.99982 c 0,-0.016 -4.23e-4,-0.031 -0.002,-0.0469 -0.01071,-0.11143 -0.05884,-0.22095 -0.144531,-0.30664 -0.01224,-0.0123 -0.02399,-0.0245 -0.03711,-0.0352 l -4.205078,-4.20703 c -0.09793,-0.0979 -0.225706,-0.14649 -0.353516,-0.14649 z"
       class="ColorScheme-Text"
       fill="currentColor" />
  </g>
  <g
     id="system-log-out"
     transform="translate(40,21)">
    <rect
       id="rect6079"
       width="32"
       height="32"
       x="-40"
       y="75"
       rx="0"
       ry="0"
       style="fill:none" />
    <path
       id="path6081"
       d="m -24,80 a 11,11 0 0 0 -11,11 11,11 0 0 0 11,11 11,11 0 0 0 11,-11 11,11 0 0 0 -11,-11 z m 0,2 a 9,9 0 0 1 9,9 9,9 0 0 1 -9,9 9,9 0 0 1 -9,-9 9,9 0 0 1 9,-9 z"
       class="ColorScheme-Text"
       fill="currentColor" />
    <rect
       id="rect6083"
       width="8"
       height="2"
       x="42.496189"
       y="78.195961"
       rx="1"
       ry="1"
       class="ColorScheme-Text"
       fill="currentColor"
       transform="rotate(45)" />
    <rect
       id="rect6285"
       width="8"
       height="2"
       x="-86.197243"
       y="-50.497475"
       rx="1"
       ry="1"
       class="ColorScheme-Text"
       fill="currentColor"
       transform="matrix(0.70710678,-0.70710678,-0.70710678,-0.70710678,0,0)" />
  </g>
</svg>
