<?xml version="1.0" encoding="UTF-8" standalone="no"?>
<!-- Created with Inkscape (http://www.inkscape.org/) -->

<svg
   id="svg4153"
   version="1.1"
   inkscape:version="1.1.2 (0a00cf5339, 2022-02-04, custom)"
   width="22"
   height="22"
   sodipodi:docname="user.svg"
   viewBox="0 0 22 22"
   xmlns:inkscape="http://www.inkscape.org/namespaces/inkscape"
   xmlns:sodipodi="http://sodipodi.sourceforge.net/DTD/sodipodi-0.dtd"
   xmlns="http://www.w3.org/2000/svg"
   xmlns:svg="http://www.w3.org/2000/svg">
  <defs
     id="defs4157">
    <style
       type="text/css"
       id="current-color-scheme">
      .ColorScheme-Text {
        color:#31363b;
      }
      .ColorScheme-Background {
        color:#eff0f1;
      }
      .ColorScheme-Highlight {
        color:#3daee9;
      }
      .ColorScheme-ViewText {
        color:#31363b;
      }
      .ColorScheme-ViewBackground {
        color:#fcfcfc;
      }
      .ColorScheme-ViewHover {
        color:#93cee9;
      }
      .ColorScheme-ViewFocus{
        color:#3daee9;
      }
      .ColorScheme-ButtonText {
        color:#31363b;
      }
      .ColorScheme-ButtonBackground {
        color:#eff0f1;
      }
      .ColorScheme-ButtonHover {
        color:#93cee9;
      }
      .ColorScheme-ButtonFocus{
        color:#3daee9;
      }
      </style>
  </defs>
  <sodipodi:namedview
     pagecolor="#e5e5e5"
     bordercolor="#666666"
     borderopacity="1"
     objecttolerance="10"
     gridtolerance="10000"
     guidetolerance="10"
     inkscape:pageopacity="0"
     inkscape:pageshadow="2"
     inkscape:window-width="1920"
     inkscape:window-height="999"
     id="namedview4155"
     inkscape:document-units="px"
     showgrid="true"
     inkscape:showpageshadow="false"
     borderlayer="true"
     inkscape:zoom="3.9999998"
     inkscape:cx="-196.62501"
     inkscape:cy="-13.000001"
     inkscape:window-x="0"
     inkscape:window-y="0"
     inkscape:window-maximized="1"
     inkscape:current-layer="svg4153"
     inkscape:pagecheckerboard="0"
     inkscape:snap-bbox="true"
     inkscape:snap-nodes="false"
     inkscape:bbox-nodes="true">
    <inkscape:grid
       type="xygrid"
       id="grid4140" />
  </sodipodi:namedview>
  <g
     id="22-22-user-desktop"
     transform="translate(-287)">
    <rect
       id="rect853"
       width="22"
       height="22"
       x="0"
       y="0"
       style="fill:none" />
    <path
       id="path855"
       d="M 5,4 C 3.338,4 2,5.338 2,7 v 8 c 0,1.662 1.338,3 3,3 h 12 c 1.662,0 3,-1.338 3,-3 V 7 C 20,5.338 18.662,4 17,4 Z m 0,2 h 12 c 0.554,0 1,0.446 1,1 v 8 c 0,0.554 -0.446,1 -1,1 H 5 C 4.446,16 4,15.554 4,15 V 7 C 4,6.446 4.446,6 5,6 Z"
       class="ColorScheme-Text"
       fill="currentColor" />
    <rect
       id="rect857"
       width="10"
       height="2"
       x="6"
       y="12"
       rx="1"
       ry="1"
       class="ColorScheme-Text"
       fill="currentColor"
       style="opacity:1" />
  </g>
  <g
     id="16-16-user-desktop"
     transform="translate(-287,-2)">
    <rect
       id="rect845"
       width="16"
       height="16"
       x="-21"
       y="5"
       rx="0"
       ry="0"
       style="fill:none" />
    <path
       id="path847"
       d="m -18,7 c -1.108,0 -2,0.892 -2,2 v 8 c 0,1.108 0.892,2 2,2 h 10 c 1.108,0 2,-0.892 2,-2 V 9 C -6,7.892 -6.892,7 -8,7 Z m 0,2 h 10 v 8 h -10 z"
       class="ColorScheme-Text"
       fill="currentColor" />
    <rect
       id="rect849"
       width="6"
       height="2"
       x="-16"
       y="14"
       rx="1"
       ry="1"
       class="ColorScheme-Text"
       fill="currentColor"
       style="opacity:1" />
  </g>
  <g
     id="32-32-user-desktop"
     transform="translate(-287)">
    <rect
       id="rect837"
       width="32"
       height="32"
       x="25"
       y="-5"
       rx="0"
       ry="0"
       style="fill:none;stroke-width:0.914286" />
    <path
       id="path839"
       d="m 32,1 c -2.216,0 -4,1.784 -4,4 v 12 c 0,2.216 1.784,4 4,4 h 18 c 2.216,0 4,-1.784 4,-4 V 5 C 54,2.784 52.216,1 50,1 Z m 0,2 h 18 c 1.108,0 2,0.892 2,2 v 12 c 0,1.108 -0.892,2 -2,2 H 32 c -1.108,0 -2,-0.892 -2,-2 V 5 c 0,-1.108 0.892,-2 2,-2 z"
       class="ColorScheme-Text"
       fill="currentColor" />
    <rect
       id="rect841"
       width="18"
       height="2"
       x="32"
       y="15"
       rx="1"
       ry="1"
       class="ColorScheme-Text"
       fill="currentColor"
       style="opacity:1" />
  </g>
  <g
     id="48-48-user-desktop">
    <path
       id="rect846"
       d="m -218,-16 h 48 v 48 h -48 z"
       fill="none" />
    <g
       id="g1632"
       fill="currentColor"
       class="ColorScheme-Text">
      <path
         id="rect1026"
         d="m -209,-6 c -2.77,0 -5,2.23 -5,5 v 18 c 0,2.77 2.23,5 5,5 h 30 c 2.77,0 5,-2.23 5,-5 V -1 c 0,-2.77 -2.23,-5 -5,-5 z m 0,2 h 30 c 1.662,0 3,1.338 3,3 v 18 c 0,1.662 -1.338,3 -3,3 h -30 c -1.662,0 -3,-1.338 -3,-3 V -1 c 0,-1.662 1.338,-3 3,-3 z" />
      <rect
         id="rect1331"
         width="28"
         height="2"
         x="-208"
         y="16"
         ry="1"
         rx="1"
         style="opacity:1" />
    </g>
  </g>
  <g
     id="user-identity">
    <path
       id="rect4585"
       d="m -88,0 h 22 v 22 h -22 z"
       fill="none"
       opacity="0.97" />
    <path
       id="path2584"
       d="m -77,1 a 4.9999986,4.9999986 0 0 0 -5,5 4.9999986,4.9999986 0 0 0 5,5 4.9999986,4.9999986 0 0 0 5,-5 4.9999986,4.9999986 0 0 0 -5,-5 z m 0,2 a 3.0000014,3.0000014 0 0 1 3,3 3.0000014,3.0000014 0 0 1 -3,3 3.0000014,3.0000014 0 0 1 -3,-3 3.0000014,3.0000014 0 0 1 3,-3 z"
       style="opacity:1"
       class="ColorScheme-Text"
       fill="currentColor" />
    <path
       d="m -77,12 c -4.406429,0 -8,3.593571 -8,8 a 1.0001,1.0001 0 0 0 1,1 h 14 a 1.0001,1.0001 0 0 0 1,-1 c 0,-4.406429 -3.593571,-8 -8,-8 z m 0,2 c 2.970232,0 5.309019,2.174667 5.798828,5 H -82.798828 C -82.309019,16.174667 -79.970232,14 -77,14 Z"
       id="path2822"
       class="ColorScheme-Text"
       fill="currentColor" />
  </g>
  <g
     id="user-busy">
    <path
       id="path3407"
       d="m -66,0 h 22 v 22 h -22 z"
       fill="none"
       opacity="0.97" />
    <path
       id="path3409"
       d="m -55,1 a 4.9999986,4.9999986 0 0 0 -5,5 4.9999986,4.9999986 0 0 0 5,5 4.9999986,4.9999986 0 0 0 5,-5 4.9999986,4.9999986 0 0 0 -5,-5 z m 0,2 a 3.0000014,3.0000014 0 0 1 3,3 3.0000014,3.0000014 0 0 1 -3,3 3.0000014,3.0000014 0 0 1 -3,-3 3.0000014,3.0000014 0 0 1 3,-3 z"
       style="opacity:1;fill:#f47750;fill-opacity:1" />
    <path
       id="path3411"
       d="m -55,12 c -4.406429,0 -8,3.593571 -8,8 a 1.0001,1.0001 0 0 0 1,1 h 9.763672 a 4.5,4.5 0 0 1 -0.728516,-2 h -7.833984 c 0.489809,-2.825333 2.828596,-5 5.798828,-5 1.324819,0 2.522746,0.434019 3.488281,1.164062 a 4.5,4.5 0 0 1 1.945313,-1.02539 C -50.995017,12.8132 -52.905265,12 -55,12 Z"
       style="fill:#f47750;fill-opacity:1" />
    <path
       id="path4169"
       style="opacity:1;fill:#f47750;fill-opacity:1"
       d="m -48.5,15 c -1.932997,0 -3.5,1.567003 -3.5,3.5 0,1.932997 1.567003,3.5 3.5,3.5 1.932997,0 3.5,-1.567003 3.5,-3.5 0,-1.932997 -1.567003,-3.5 -3.5,-3.5 z m 0,1 c 0.277,0 0.5,0.223 0.5,0.5 V 18 h 0.5 c 0.277,0 0.5,0.223 0.5,0.5 0,0.277 -0.223,0.5 -0.5,0.5 h -1 c -0.03462,0 -0.06896,-0.0031 -0.101562,-0.0098 -0.03261,-0.0066 -0.06382,-0.01668 -0.09375,-0.0293 -0.02993,-0.01262 -0.05739,-0.02894 -0.08398,-0.04688 -0.02659,-0.01794 -0.05163,-0.03795 -0.07422,-0.06055 -0.02259,-0.02259 -0.04261,-0.04763 -0.06055,-0.07422 -0.01794,-0.02659 -0.03426,-0.05405 -0.04688,-0.08398 -0.01262,-0.02993 -0.02266,-0.06114 -0.0293,-0.09375 C -48.996873,18.568955 -49,18.534625 -49,18.5 v -2 c 0,-0.277 0.223,-0.5 0.5,-0.5 z" />
  </g>
  <g
     id="user-away">
    <path
       id="path4227"
       d="m -22,14 -8,4 2,1 1,3 1,-2 2,1 z"
       fill="#fdbc4b"
       style="opacity:1" />
    <path
       id="path14164"
       d="m -44,0 h 22 v 22 h -22 z"
       fill="none"
       opacity="0.97" />
    <path
       id="path14166"
       d="m -33,1 a 4.9999986,4.9999986 0 0 0 -5,5 4.9999986,4.9999986 0 0 0 5,5 4.9999986,4.9999986 0 0 0 5,-5 4.9999986,4.9999986 0 0 0 -5,-5 z m 0,2 a 3.0000014,3.0000014 0 0 1 3,3 3.0000014,3.0000014 0 0 1 -3,3 3.0000014,3.0000014 0 0 1 -3,-3 3.0000014,3.0000014 0 0 1 3,-3 z"
       style="opacity:1;fill:#fdbc4b;fill-opacity:1" />
    <path
       id="path14168"
       d="m -33,12 c -4.406429,0 -8,3.593571 -8,8 5.5e-5,0.552262 0.447738,0.999945 1,1 h 9.763672 l -0.728516,-2 h -7.833984 c 0.489809,-2.825333 2.828596,-5 5.798828,-5 1.324819,0 2.522746,0.434019 3.488281,1.164062 l 1.945313,-1.02539 C -28.995017,12.8132 -30.905265,12 -33,12 Z"
       style="fill:#fdbc4b;fill-opacity:1"
       sodipodi:nodetypes="scccccsccs" />
  </g>
  <g
     id="user-offline"
     transform="translate(44)">
    <path
       id="path17156"
       d="m -66,0 h 22 v 22 h -22 z"
       fill="none"
       opacity="0.97" />
    <path
       id="path17158"
       d="m -55,1 a 4.9999986,4.9999986 0 0 0 -5,5 4.9999986,4.9999986 0 0 0 5,5 4.9999986,4.9999986 0 0 0 5,-5 4.9999986,4.9999986 0 0 0 -5,-5 z m 0,2 a 3.0000014,3.0000014 0 0 1 3,3 3.0000014,3.0000014 0 0 1 -3,3 3.0000014,3.0000014 0 0 1 -3,-3 3.0000014,3.0000014 0 0 1 3,-3 z"
       style="opacity:1;fill:#bdc3c7;fill-opacity:1" />
    <path
       id="path17160"
       d="m -55,12 c -4.406429,0 -8,3.593571 -8,8 a 1.0001,1.0001 0 0 0 1,1 h 9.763672 a 4.5,4.5 0 0 1 -0.728516,-2 h -7.833984 c 0.489809,-2.825333 2.828596,-5 5.798828,-5 1.324819,0 2.522746,0.434019 3.488281,1.164062 a 4.5,4.5 0 0 1 1.945313,-1.02539 C -50.995017,12.8132 -52.905265,12 -55,12 Z"
       style="fill:#bdc3c7;fill-opacity:1" />
    <path
       id="path17162"
       style="opacity:1;fill:#bdc3c7;fill-opacity:1"
       d="M -4.5,15 C -6.432997,15 -8,16.567003 -8,18.5 -8,20.432997 -6.432997,22 -4.5,22 -2.567003,22 -1,20.432997 -1,18.5 -1,16.567003 -2.567003,15 -4.5,15 Z m -1,3 h 2 c 0.277,0 0.5,0.223 0.5,0.5 0,0.277 -0.223,0.5 -0.5,0.5 h -2 C -5.777,19 -6,18.777 -6,18.5 -6,18.223 -5.777,18 -5.5,18 Z"
       transform="translate(-44)" />
  </g>
  <g
     id="user-online">
    <path
       id="path4144"
       d="M 17.5,15 A 3.5,3.5 0 0 0 14,18.5 3.5,3.5 0 0 0 17.5,22 3.5,3.5 0 0 0 21,18.5 3.5,3.5 0 0 0 17.5,15 Z m 1.5,2 1,1 -3,3 -2,-2 1,-1 1,1 z"
       style="opacity:1;fill:#43be80;fill-opacity:1" />
    <path
       id="path24313"
       d="M 0,0 H 22 V 22 H 0 Z"
       fill="none"
       opacity="0.97" />
    <path
       id="path24315"
       d="m 11,1 a 4.9999986,4.9999986 0 0 0 -5,5 4.9999986,4.9999986 0 0 0 5,5 4.9999986,4.9999986 0 0 0 5,-5 4.9999986,4.9999986 0 0 0 -5,-5 z m 0,2 A 3.0000014,3.0000014 0 0 1 14,6 3.0000014,3.0000014 0 0 1 11,9 3.0000014,3.0000014 0 0 1 8,6 3.0000014,3.0000014 0 0 1 11,3 Z"
       style="opacity:1;fill:#43be80;fill-opacity:1" />
    <path
       id="path24317"
       d="m 11,12 c -4.406429,0 -8,3.593571 -8,8 a 1.0001,1.0001 0 0 0 1,1 h 9.763672 A 4.5,4.5 0 0 1 13.035156,19 H 5.201172 C 5.690981,16.174667 8.029768,14 11,14 c 1.324819,0 2.522746,0.434019 3.488281,1.164062 a 4.5,4.5 0 0 1 1.945313,-1.02539 C 15.004983,12.8132 13.094735,12 11,12 Z"
       style="fill:#43be80;fill-opacity:1" />
  </g>
  <g
     id="user-invisible">
    <path
       id="path4167"
       d="m 37.025126,16.025126 a 3.5,3.5 0 0 0 0,4.949748 3.5,3.5 0 0 0 4.949748,0 3.5,3.5 0 0 0 0,-4.949748 3.5,3.5 0 0 0 -4.949748,0 z m 0.707107,3.535534 2.828427,-2.828427 c 0.195869,-0.195869 0.511237,-0.195872 0.707107,0 0.195869,0.195868 0.195872,0.511237 0,0.707107 l -2.828427,2.828427 c -0.195869,0.195869 -0.511237,0.195872 -0.707107,0 -0.195869,-0.195868 -0.195872,-0.511237 0,-0.707107 z"
       fill="currentColor"
       class="ColorScheme-Text"
       style="opacity:1" />
    <path
       id="path32613"
       d="M 22,0 H 44 V 22 H 22 Z"
       fill="none"
       opacity="0.97" />
    <path
       id="path32615"
       d="m 33,1 a 4.9999986,4.9999986 0 0 0 -5,5 4.9999986,4.9999986 0 0 0 5,5 4.9999986,4.9999986 0 0 0 5,-5 4.9999986,4.9999986 0 0 0 -5,-5 z m 0,2 a 3.0000014,3.0000014 0 0 1 3,3 3.0000014,3.0000014 0 0 1 -3,3 3.0000014,3.0000014 0 0 1 -3,-3 3.0000014,3.0000014 0 0 1 3,-3 z"
       style="opacity:1"
       class="ColorScheme-Text"
       fill="currentColor" />
    <path
       id="path32617"
       class="ColorScheme-Text"
       d="m 33,12 c -4.406429,0 -8,3.593571 -8,8 a 1.0001,1.0001 0 0 0 1,1 h 9.763672 A 4.5,4.5 0 0 1 35.035156,19 H 27.201172 C 27.690981,16.174667 30.029768,14 33,14 c 1.324819,0 2.522746,0.434019 3.488281,1.164062 a 4.5,4.5 0 0 1 1.945313,-1.02539 C 37.004983,12.8132 35.094735,12 33,12 Z"
       fill="currentColor" />
  </g>
  <g
     id="user-away-extended">
    <circle
       id="circle4653"
       cx="61.499969"
       cy="18.5"
       r="3.499985"
       fill="#9b59b6"
       style="opacity:1" />
    <circle
       id="circle4659"
       class="ColorScheme-Background"
       transform="rotate(90)"
       cx="18.5"
       cy="-59.5"
       r="0.5"
       fill="currentColor"
       opacity="0.7" />
    <circle
       id="circle4661"
       class="ColorScheme-Background"
       cx="61.5"
       cy="18.5"
       r="0.5"
       fill="currentColor"
       opacity="0.4" />
    <circle
       id="circle4663"
       class="ColorScheme-Background"
       cx="63.5"
       cy="18.5"
       r="0.5"
       fill="currentColor"
       opacity="0.3" />
    <path
       id="path33146"
       d="M 44,0 H 66 V 22 H 44 Z"
       fill="none"
       opacity="0.97" />
    <path
       id="path33148"
       d="m 55,1 a 4.9999986,4.9999986 0 0 0 -5,5 4.9999986,4.9999986 0 0 0 5,5 4.9999986,4.9999986 0 0 0 5,-5 4.9999986,4.9999986 0 0 0 -5,-5 z m 0,2 a 3.0000014,3.0000014 0 0 1 3,3 3.0000014,3.0000014 0 0 1 -3,3 3.0000014,3.0000014 0 0 1 -3,-3 3.0000014,3.0000014 0 0 1 3,-3 z"
       style="opacity:1;fill:#9b59b6;fill-opacity:1" />
    <path
       id="path33150"
       d="m 55,12 c -4.406429,0 -8,3.593571 -8,8 a 1.0001,1.0001 0 0 0 1,1 h 9.763672 A 4.5,4.5 0 0 1 57.035156,19 H 49.201172 C 49.690981,16.174667 52.029768,14 55,14 c 1.324819,0 2.522746,0.434019 3.488281,1.164062 a 4.5,4.5 0 0 1 1.945313,-1.02539 C 59.004983,12.8132 57.094735,12 55,12 Z"
       style="fill:#9b59b6;fill-opacity:1" />
  </g>
  <g
     id="user-desktop">
    <rect
       id="rect881"
       width="64"
       height="64"
       x="-165"
       y="-20"
       rx="0"
       ry="0"
       style="fill:none;stroke-width:1.82857" />
    <path
       id="path883"
       d="m -151,-8 c -4.432,0 -8,3.568 -8,8 v 24 c 0,4.432 3.568,8 8,8 h 36 c 4.432,0 8,-3.568 8,-8 V 0 c 0,-4.432 -3.568,-8 -8,-8 z m 0,4 h 36 c 2.216,0 4,1.784 4,4 v 24 c 0,2.216 -1.784,4 -4,4 h -36 c -2.216,0 -4,-1.784 -4,-4 V 0 c 0,-2.216 1.784,-4 4,-4 z"
       class="ColorScheme-Text"
       fill="currentColor" />
    <rect
       id="rect885"
       width="36"
       height="4"
       x="-151"
       y="20"
       rx="2"
       ry="2"
       class="ColorScheme-Text"
       fill="currentColor" />
  </g>
</svg>
