<?xml version="1.0" encoding="UTF-8" standalone="no"?>
<svg
   viewBox="0 0 22 22"
   version="1.1"
   id="svg"
   sodipodi:docname="video.svg"
   inkscape:version="1.2.2 (b0a8486541, 2022-12-01)"
   xmlns:inkscape="http://www.inkscape.org/namespaces/inkscape"
   xmlns:sodipodi="http://sodipodi.sourceforge.net/DTD/sodipodi-0.dtd"
   xmlns="http://www.w3.org/2000/svg"
   xmlns:svg="http://www.w3.org/2000/svg">
  <sodipodi:namedview
     id="namedview30"
     pagecolor="#ffffff"
     bordercolor="#666666"
     borderopacity="1.0"
     inkscape:pageshadow="2"
     inkscape:pageopacity="0.0"
     inkscape:pagecheckerboard="0"
     showgrid="true"
     inkscape:zoom="7.4659092"
     inkscape:cx="-101.39421"
     inkscape:cy="15.872146"
     inkscape:window-width="3840"
     inkscape:window-height="2028"
     inkscape:window-x="0"
     inkscape:window-y="64"
     inkscape:window-maximized="1"
     inkscape:current-layer="svg"
     inkscape:showpageshadow="2"
     inkscape:deskcolor="#d1d1d1">
    <inkscape:grid
       type="xygrid"
       id="grid2494"
       spacingx="0.5"
       spacingy="0.5"
       empspacing="2"
       color="#e500e5"
       opacity="0.14901961" />
  </sodipodi:namedview>
  <defs
     id="defs3">
    <style
       type="text/css"
       id="current-color-scheme">.ColorScheme-Text { color:#363636; }</style>
  </defs>
  <g
     id="22-22-video-display-brightness">
    <rect
       id="rect16"
       fill-opacity="0"
       height="22"
       width="22"
       x="0"
       y="0"
       style="color:#363636;fill:#363636" />
    <path
       id="path1033"
       class="ColorScheme-Text"
       d="M 10.974609 4.5 C 10.709695 4.5133421 10.5 4.7316565 10.5 5 L 10.5 5.5 C 10.5 5.7769997 10.723 6 11 6 C 11.277 6 11.5 5.7769997 11.5 5.5 L 11.5 5 C 11.5 4.7230003 11.277 4.5 11 4.5 C 10.991344 4.5 10.983155 4.4995696 10.974609 4.5 z M 8.7128906 5.1035156 C 8.6403167 5.1090207 8.5674687 5.1309688 8.5 5.1699219 C 8.2601112 5.3084217 8.1779064 5.6136268 8.3164062 5.8535156 L 8.5664062 6.2851562 C 8.7049061 6.525045 9.0101112 6.6072499 9.25 6.46875 C 9.4898888 6.3302501 9.5720936 6.025045 9.4335938 5.7851562 L 9.1835938 5.3535156 C 9.084047 5.1810956 8.8983574 5.0894472 8.7128906 5.1035156 z M 13.214844 5.1035156 C 13.054859 5.1146993 12.902969 5.2035851 12.816406 5.3535156 L 12.566406 5.7851562 C 12.427906 6.025045 12.510111 6.3302501 12.75 6.46875 C 12.989889 6.6072499 13.295094 6.525045 13.433594 6.2851562 L 13.683594 5.8535156 C 13.822094 5.6136268 13.739889 5.3084217 13.5 5.1699219 C 13.410042 5.1179844 13.310834 5.0968054 13.214844 5.1035156 z M 11 6.4960938 A 3 3 0 0 0 8 9.4960938 A 3 3 0 0 0 11 12.496094 A 3 3 0 0 0 11.40625 12.466797 A 3 3 0 0 0 11.560547 12.435547 A 3 3 0 0 0 11.810547 12.382812 A 3 3 0 0 0 11.972656 12.328125 A 3 3 0 0 0 12.197266 12.242188 A 3 3 0 0 0 12.351562 12.167969 A 3 3 0 0 0 12.568359 12.048828 A 3 3 0 0 0 12.703125 11.958984 A 3 3 0 0 0 12.900391 11.8125 A 3 3 0 0 0 13.035156 11.693359 A 3 3 0 0 0 13.197266 11.53125 A 3 3 0 0 0 13.316406 11.396484 A 3 3 0 0 0 13.462891 11.199219 A 3 3 0 0 0 13.552734 11.064453 A 3 3 0 0 0 13.671875 10.847656 A 3 3 0 0 0 13.746094 10.695312 A 3 3 0 0 0 13.832031 10.46875 A 3 3 0 0 0 13.886719 10.306641 A 3 3 0 0 0 13.939453 10.056641 A 3 3 0 0 0 13.970703 9.9023438 A 3 3 0 0 0 14 9.4960938 A 3 3 0 0 0 13.998047 9.3652344 A 3 3 0 0 0 13.990234 9.2578125 A 3 3 0 0 0 13.988281 9.2363281 A 3 3 0 0 0 13.986328 9.2285156 A 3 3 0 0 0 13.972656 9.1054688 A 3 3 0 0 0 13.958984 9 A 3 3 0 0 0 13.955078 8.9746094 A 3 3 0 0 0 13.949219 8.9550781 A 3 3 0 0 0 13.927734 8.8476562 A 3 3 0 0 0 13.896484 8.7207031 A 3 3 0 0 0 13.861328 8.5976562 A 3 3 0 0 0 13.861328 8.5957031 A 3 3 0 0 0 13.861328 8.59375 A 3 3 0 0 0 13.824219 8.4863281 A 3 3 0 0 0 13.818359 8.4707031 A 3 3 0 0 0 13.710938 8.2128906 A 3 3 0 0 0 13.644531 8.0820312 A 3 3 0 0 0 13.585938 7.9765625 A 3 3 0 0 0 13.529297 7.8847656 A 3 3 0 0 0 13.494141 7.8300781 A 3 3 0 0 0 13.478516 7.8066406 A 3 3 0 0 0 13.414062 7.7148438 A 3 3 0 0 0 13.410156 7.7089844 A 3 3 0 0 0 13.40625 7.7050781 A 3 3 0 0 0 13.328125 7.6054688 A 3 3 0 0 0 13.318359 7.59375 A 3 3 0 0 0 13.298828 7.5683594 A 3 3 0 0 0 13.222656 7.4824219 A 3 3 0 0 0 13.121094 7.375 A 3 3 0 0 0 13.013672 7.2734375 A 3 3 0 0 0 12.927734 7.1972656 A 3 3 0 0 0 12.902344 7.1777344 A 3 3 0 0 0 12.890625 7.1679688 A 3 3 0 0 0 12.791016 7.0898438 A 3 3 0 0 0 12.787109 7.0859375 A 3 3 0 0 0 12.78125 7.0820312 A 3 3 0 0 0 12.689453 7.0175781 A 3 3 0 0 0 12.667969 7.0019531 A 3 3 0 0 0 12.611328 6.9667969 A 3 3 0 0 0 12.521484 6.9101562 A 3 3 0 0 0 12.414062 6.8515625 A 3 3 0 0 0 12.283203 6.7851562 A 3 3 0 0 0 12.269531 6.7773438 A 3 3 0 0 0 12.011719 6.671875 A 3 3 0 0 0 11.902344 6.6347656 A 3 3 0 0 0 11.900391 6.6347656 A 3 3 0 0 0 11.777344 6.5976562 A 3 3 0 0 0 11.648438 6.5683594 A 3 3 0 0 0 11.541016 6.5449219 A 3 3 0 0 0 11.521484 6.5410156 A 3 3 0 0 0 11.496094 6.5371094 A 3 3 0 0 0 11.390625 6.5234375 A 3 3 0 0 0 11.267578 6.5097656 A 3 3 0 0 0 11.261719 6.5078125 A 3 3 0 0 0 11.238281 6.5058594 A 3 3 0 0 0 11.130859 6.5 A 3 3 0 0 0 11 6.4960938 z M 7.0683594 6.75 C 6.9083748 6.7611837 6.7564843 6.8500695 6.6699219 7 C 6.531422 7.2398888 6.6136268 7.5450939 6.8535156 7.6835938 L 7.2851562 7.9335938 C 7.525045 8.0720936 7.8302501 7.9898888 7.96875 7.75 C 8.1072499 7.5101112 8.025045 7.2049061 7.7851562 7.0664062 L 7.3535156 6.8164062 C 7.2635573 6.7644688 7.1643501 6.7432898 7.0683594 6.75 z M 14.884766 6.75 C 14.804202 6.7521761 14.72145 6.773125 14.646484 6.8164062 L 14.214844 7.0664062 C 13.974955 7.2049061 13.89275 7.5101112 14.03125 7.75 C 14.16975 7.9898888 14.474955 8.0720936 14.714844 7.9335938 L 15.146484 7.6835938 C 15.386373 7.5450939 15.468578 7.2398888 15.330078 7 C 15.234859 6.8350765 15.062005 6.7452126 14.884766 6.75 z M 11 7.2460938 L 11 11.746094 A 2.25 2.25 0 0 1 8.75 9.4960938 A 2.25 2.25 0 0 1 11 7.2460938 z M 6.4746094 9 C 6.2096953 9.0133421 6 9.2316565 6 9.5 C 6 9.7769997 6.2230003 10 6.5 10 L 7 10 C 7.2769997 10 7.5 9.7769997 7.5 9.5 C 7.5 9.2230003 7.2769997 9 7 9 L 6.5 9 C 6.4913438 9 6.483155 8.9995696 6.4746094 9 z M 14.974609 9 C 14.709695 9.0133421 14.5 9.2316565 14.5 9.5 C 14.5 9.7769997 14.723 10 15 10 L 15.5 10 C 15.777 10 16 9.7769997 16 9.5 C 16 9.2230003 15.777 9 15.5 9 L 15 9 C 14.991344 9 14.983155 8.9995696 14.974609 9 z M 7.5234375 11 C 7.442874 11.002176 7.3601215 11.023125 7.2851562 11.066406 L 6.8535156 11.316406 C 6.6136268 11.454906 6.531422 11.760111 6.6699219 12 C 6.8084217 12.239889 7.1136268 12.322094 7.3535156 12.183594 L 7.7851562 11.933594 C 8.025045 11.795094 8.1072499 11.489889 7.96875 11.25 C 7.8735313 11.085076 7.7006772 10.995213 7.5234375 11 z M 14.429688 11 C 14.269703 11.011184 14.117812 11.10007 14.03125 11.25 C 13.89275 11.489889 13.974955 11.795094 14.214844 11.933594 L 14.646484 12.183594 C 14.886373 12.322094 15.191578 12.239889 15.330078 12 C 15.468578 11.760111 15.386373 11.454906 15.146484 11.316406 L 14.714844 11.066406 C 14.624885 11.014469 14.525678 10.99329 14.429688 11 z M 8.9882812 12.462891 C 8.8195497 12.466517 8.6572968 12.557417 8.5664062 12.714844 L 8.3164062 13.146484 C 8.1779064 13.386373 8.2601112 13.691578 8.5 13.830078 C 8.7398888 13.968578 9.0450939 13.886373 9.1835938 13.646484 L 9.4335938 13.214844 C 9.5720936 12.974955 9.4898888 12.66975 9.25 12.53125 C 9.1675382 12.483641 9.0766644 12.460991 8.9882812 12.462891 z M 12.986328 12.462891 C 12.905765 12.465067 12.824965 12.487969 12.75 12.53125 C 12.510111 12.66975 12.427906 12.974955 12.566406 13.214844 L 12.816406 13.646484 C 12.954906 13.886373 13.260111 13.968578 13.5 13.830078 C 13.739889 13.691578 13.822094 13.386373 13.683594 13.146484 L 13.433594 12.714844 C 13.338375 12.54992 13.163568 12.458103 12.986328 12.462891 z M 10.974609 13 C 10.709695 13.013342 10.5 13.231657 10.5 13.5 L 10.5 14 C 10.5 14.277 10.723 14.5 11 14.5 C 11.277 14.5 11.5 14.277 11.5 14 L 11.5 13.5 C 11.5 13.223 11.277 13 11 13 C 10.991344 13 10.983155 12.99957 10.974609 13 z "
       fill="currentColor" />
    <path
       id="rect2976"
       d="M 2.5,2 C 1.115002,2 0,3.1150028 0,4.5 v 10 C 0,15.884998 1.115002,17 2.5,17 h 17 C 20.884998,17 22,15.884998 22,14.5 V 4.5 C 22,3.1150028 20.884998,2 19.5,2 Z m 0,1.5 h 17 c 0.553998,0 1,0.4460012 1,1 v 10 c 0,0.553998 -0.446002,1 -1,1 h -17 c -0.553998,0 -1,-0.446002 -1,-1 v -10 c 0,-0.5539988 0.446002,-1 1,-1 z m 4.25,15 C 6.3345,18.5 6,18.8345 6,19.25 6,19.6655 6.3345,20 6.75,20 h 9 c 0.4155,0 0.75,-0.3345 0.75,-0.75 0,-0.4155 -0.3345,-0.75 -0.75,-0.75 z"
       class="ColorScheme-Text"
       fill="currentColor" />
  </g>
  <g
     id="video-display-brightness">
    <rect
       id="rect33"
       fill-opacity="0"
       height="32"
       width="32"
       x="-5"
       y="-36"
       style="color:#363636;fill:#363636" />
    <path
       id="path2984"
       d="m 0.5,-30 c -1.384998,0 -2.5,1.115003 -2.5,2.5 v 12 c 0,1.384998 1.115002,2.5 2.5,2.5 h 21 c 1.384998,0 2.5,-1.115002 2.5,-2.5 v -12 c 0,-1.384997 -1.115002,-2.5 -2.5,-2.5 z m 0,1.5 h 21 c 0.553998,0 1,0.446001 1,1 v 12 c 0,0.553998 -0.446002,1 -1,1 h -21 c -0.553998,0 -1,-0.446002 -1,-1 v -12 c 0,-0.553999 0.446002,-1 1,-1 z m 4.75,17 c -0.4155,0 -0.75,0.3345 -0.75,0.75 0,0.4155 0.3345,0.75 0.75,0.75 h 11.5 c 0.4155,0 0.75,-0.3345 0.75,-0.75 0,-0.4155 -0.3345,-0.75 -0.75,-0.75 z"
       class="ColorScheme-Text"
       fill="currentColor" />
    <path
       id="path2990"
       d="M 10.974609 -27.5 C 10.709695 -27.486658 10.5 -27.268343 10.5 -27 L 10.5 -26 C 10.5 -25.723 10.723 -25.5 11 -25.5 C 11.277 -25.5 11.5 -25.723 11.5 -26 L 11.5 -27 C 11.5 -27.277 11.277 -27.5 11 -27.5 C 10.991344 -27.5 10.983155 -27.50043 10.974609 -27.5 z M 8.2363281 -26.763672 C 8.1557646 -26.761496 8.0749652 -26.738594 8 -26.695312 C 7.7601112 -26.556813 7.6779064 -26.253561 7.8164062 -26.013672 L 8.3164062 -25.146484 C 8.4549061 -24.906596 8.7601112 -24.826344 9 -24.964844 C 9.2398888 -25.103344 9.3220936 -25.406596 9.1835938 -25.646484 L 8.6835938 -26.513672 C 8.5883751 -26.678595 8.4135678 -26.768459 8.2363281 -26.763672 z M 13.738281 -26.763672 C 13.56955 -26.760046 13.407297 -26.671099 13.316406 -26.513672 L 12.816406 -25.646484 C 12.677906 -25.406596 12.760111 -25.103344 13 -24.964844 C 13.239889 -24.826344 13.545094 -24.906596 13.683594 -25.146484 L 14.183594 -26.013672 C 14.322094 -26.253561 14.239889 -26.556813 14 -26.695312 C 13.917538 -26.742922 13.826664 -26.765571 13.738281 -26.763672 z M 11 -25 A 3.5 3.5 0 0 0 7.5 -21.5 A 3.5 3.5 0 0 0 11 -18 A 3.5 3.5 0 0 0 11.480469 -18.033203 A 3.5 3.5 0 0 0 11.615234 -18.060547 A 3.5 3.5 0 0 0 11.955078 -18.136719 A 3.5 3.5 0 0 0 12.091797 -18.181641 A 3.5 3.5 0 0 0 12.410156 -18.300781 A 3.5 3.5 0 0 0 12.566406 -18.376953 A 3.5 3.5 0 0 0 12.820312 -18.515625 A 3.5 3.5 0 0 0 13 -18.634766 A 3.5 3.5 0 0 0 13.216797 -18.796875 A 3.5 3.5 0 0 0 13.376953 -18.939453 A 3.5 3.5 0 0 0 13.560547 -19.123047 A 3.5 3.5 0 0 0 13.703125 -19.283203 A 3.5 3.5 0 0 0 13.865234 -19.5 A 3.5 3.5 0 0 0 13.984375 -19.679688 A 3.5 3.5 0 0 0 14.123047 -19.933594 A 3.5 3.5 0 0 0 14.199219 -20.089844 A 3.5 3.5 0 0 0 14.318359 -20.408203 A 3.5 3.5 0 0 0 14.363281 -20.544922 A 3.5 3.5 0 0 0 14.439453 -20.884766 A 3.5 3.5 0 0 0 14.466797 -21.019531 A 3.5 3.5 0 0 0 14.5 -21.5 A 3.5 3.5 0 0 0 14.496094 -21.652344 A 3.5 3.5 0 0 0 14.490234 -21.753906 A 3.5 3.5 0 0 0 14.486328 -21.804688 A 3.5 3.5 0 0 0 14.482422 -21.84375 A 3.5 3.5 0 0 0 14.482422 -21.845703 A 3.5 3.5 0 0 0 14.482422 -21.847656 A 3.5 3.5 0 0 0 14.482422 -21.849609 A 3.5 3.5 0 0 0 14.482422 -21.851562 A 3.5 3.5 0 0 0 14.464844 -21.988281 A 3.5 3.5 0 0 0 14.462891 -22.013672 A 3.5 3.5 0 0 0 14.447266 -22.107422 A 3.5 3.5 0 0 0 14.433594 -22.183594 A 3.5 3.5 0 0 0 14.427734 -22.212891 A 3.5 3.5 0 0 0 14.394531 -22.349609 A 3.5 3.5 0 0 0 14.359375 -22.478516 A 3.5 3.5 0 0 0 14.349609 -22.515625 A 3.5 3.5 0 0 0 14.337891 -22.552734 A 3.5 3.5 0 0 0 14.294922 -22.679688 A 3.5 3.5 0 0 0 14.289062 -22.697266 A 3.5 3.5 0 0 0 14.164062 -22.996094 A 3.5 3.5 0 0 0 14.146484 -23.03125 A 3.5 3.5 0 0 0 14.085938 -23.150391 A 3.5 3.5 0 0 0 14.009766 -23.287109 A 3.5 3.5 0 0 0 14.001953 -23.298828 A 3.5 3.5 0 0 0 13.951172 -23.380859 A 3.5 3.5 0 0 0 13.910156 -23.445312 A 3.5 3.5 0 0 0 13.888672 -23.474609 A 3.5 3.5 0 0 0 13.810547 -23.583984 A 3.5 3.5 0 0 0 13.705078 -23.720703 A 3.5 3.5 0 0 0 13.59375 -23.849609 A 3.5 3.5 0 0 0 13.580078 -23.865234 A 3.5 3.5 0 0 0 13.349609 -24.09375 A 3.5 3.5 0 0 0 13.220703 -24.205078 A 3.5 3.5 0 0 0 13.083984 -24.310547 A 3.5 3.5 0 0 0 12.974609 -24.388672 A 3.5 3.5 0 0 0 12.945312 -24.410156 A 3.5 3.5 0 0 0 12.880859 -24.451172 A 3.5 3.5 0 0 0 12.798828 -24.501953 A 3.5 3.5 0 0 0 12.787109 -24.509766 A 3.5 3.5 0 0 0 12.650391 -24.585938 A 3.5 3.5 0 0 0 12.53125 -24.646484 A 3.5 3.5 0 0 0 12.496094 -24.664062 A 3.5 3.5 0 0 0 12.478516 -24.671875 A 3.5 3.5 0 0 0 12.179688 -24.794922 A 3.5 3.5 0 0 0 12.052734 -24.837891 A 3.5 3.5 0 0 0 12.015625 -24.849609 A 3.5 3.5 0 0 0 11.978516 -24.859375 A 3.5 3.5 0 0 0 11.849609 -24.894531 A 3.5 3.5 0 0 0 11.712891 -24.927734 A 3.5 3.5 0 0 0 11.683594 -24.933594 A 3.5 3.5 0 0 0 11.607422 -24.947266 A 3.5 3.5 0 0 0 11.513672 -24.962891 A 3.5 3.5 0 0 0 11.488281 -24.964844 A 3.5 3.5 0 0 0 11.351562 -24.982422 A 3.5 3.5 0 0 0 11.34375 -24.982422 A 3.5 3.5 0 0 0 11.304688 -24.986328 A 3.5 3.5 0 0 0 11.253906 -24.990234 A 3.5 3.5 0 0 0 11.152344 -24.996094 A 3.5 3.5 0 0 0 11 -25 z M 6.2011719 -24.75 C 6.0411873 -24.738816 5.8912499 -24.64993 5.8046875 -24.5 C 5.6661876 -24.260111 5.7464393 -23.954906 5.9863281 -23.816406 L 6.8535156 -23.316406 C 7.0934044 -23.177906 7.3966564 -23.260111 7.5351562 -23.5 C 7.6736561 -23.739889 7.5934044 -24.045094 7.3535156 -24.183594 L 6.4863281 -24.683594 C 6.3963698 -24.735531 6.2971626 -24.75671 6.2011719 -24.75 z M 15.75 -24.75 C 15.669437 -24.747824 15.588637 -24.726875 15.513672 -24.683594 L 14.646484 -24.183594 C 14.406596 -24.045094 14.326344 -23.739889 14.464844 -23.5 C 14.603344 -23.260111 14.906596 -23.177906 15.146484 -23.316406 L 16.013672 -23.816406 C 16.253561 -23.954906 16.333812 -24.260111 16.195312 -24.5 C 16.100094 -24.664924 15.92724 -24.754787 15.75 -24.75 z M 11 -24 L 11 -19 A 2.5 2.5 0 0 1 8.5 -21.5 A 2.5 2.5 0 0 1 11 -24 z M 5.4746094 -22 C 5.2096953 -21.986658 5 -21.768343 5 -21.5 C 5 -21.223 5.2230003 -21 5.5 -21 L 6.5 -21 C 6.7769997 -21 7 -21.223 7 -21.5 C 7 -21.777 6.7769997 -22 6.5 -22 L 5.5 -22 C 5.4913438 -22 5.483155 -22.00043 5.4746094 -22 z M 15.474609 -22 C 15.209695 -21.986658 15 -21.768343 15 -21.5 C 15 -21.223 15.223 -21 15.5 -21 L 16.5 -21 C 16.777 -21 17 -21.223 17 -21.5 C 17 -21.777 16.777 -22 16.5 -22 L 15.5 -22 C 15.491344 -22 15.483155 -22.00043 15.474609 -22 z M 7.0898438 -19.75 C 7.0092803 -19.747824 6.9284809 -19.726875 6.8535156 -19.683594 L 5.9863281 -19.183594 C 5.7464393 -19.045094 5.6661876 -18.739889 5.8046875 -18.5 C 5.9431874 -18.260111 6.2464393 -18.177906 6.4863281 -18.316406 L 7.3535156 -18.816406 C 7.5934044 -18.954906 7.6736561 -19.260111 7.5351562 -19.5 C 7.4399376 -19.664924 7.2670834 -19.754787 7.0898438 -19.75 z M 14.861328 -19.75 C 14.701344 -19.738816 14.551406 -19.64993 14.464844 -19.5 C 14.326344 -19.260111 14.406596 -18.954906 14.646484 -18.816406 L 15.513672 -18.316406 C 15.753561 -18.177906 16.056813 -18.260111 16.195312 -18.5 C 16.333812 -18.739889 16.253561 -19.045094 16.013672 -19.183594 L 15.146484 -19.683594 C 15.056526 -19.735531 14.957319 -19.75671 14.861328 -19.75 z M 8.7382812 -18.103516 C 8.5695497 -18.099889 8.4072968 -18.010943 8.3164062 -17.853516 L 7.8164062 -16.986328 C 7.6779064 -16.746439 7.7601112 -16.443187 8 -16.304688 C 8.2398888 -16.166188 8.5450939 -16.246439 8.6835938 -16.486328 L 9.1835938 -17.353516 C 9.3220936 -17.593404 9.2398888 -17.896656 9 -18.035156 C 8.9175382 -18.082766 8.8266644 -18.105415 8.7382812 -18.103516 z M 13.236328 -18.103516 C 13.155765 -18.10134 13.074965 -18.078437 13 -18.035156 C 12.760111 -17.896656 12.677906 -17.593404 12.816406 -17.353516 L 13.316406 -16.486328 C 13.454906 -16.246439 13.760111 -16.166188 14 -16.304688 C 14.239889 -16.443187 14.322094 -16.746439 14.183594 -16.986328 L 13.683594 -17.853516 C 13.588375 -18.018439 13.413568 -18.108303 13.236328 -18.103516 z M 10.974609 -17.5 C 10.709695 -17.486658 10.5 -17.268343 10.5 -17 L 10.5 -16 C 10.5 -15.723 10.723 -15.5 11 -15.5 C 11.277 -15.5 11.5 -15.723 11.5 -16 L 11.5 -17 C 11.5 -17.277 11.277 -17.5 11 -17.5 C 10.991344 -17.5 10.983155 -17.50043 10.974609 -17.5 z "
       class="ColorScheme-Text"
       fill="currentColor" />
  </g>
</svg>
