<?xml version="1.0" encoding="UTF-8" standalone="no"?>
<svg
   viewBox="0 0 22 22"
   version="1.1"
   id="svg"
   sodipodi:docname="video.svg"
   inkscape:version="1.1.1 (3bf5ae0d25, 2021-09-20, custom)"
   xmlns:inkscape="http://www.inkscape.org/namespaces/inkscape"
   xmlns:sodipodi="http://sodipodi.sourceforge.net/DTD/sodipodi-0.dtd"
   xmlns="http://www.w3.org/2000/svg"
   xmlns:svg="http://www.w3.org/2000/svg"
   xmlns:rdf="http://www.w3.org/1999/02/22-rdf-syntax-ns#"
   xmlns:cc="http://creativecommons.org/ns#"
   xmlns:dc="http://purl.org/dc/elements/1.1/">
  <sodipodi:namedview
     id="namedview30"
     pagecolor="#ffffff"
     bordercolor="#666666"
     borderopacity="1.0"
     inkscape:pageshadow="2"
     inkscape:pageopacity="0.0"
     inkscape:pagecheckerboard="0"
     showgrid="true"
     inkscape:snap-bbox="true"
     inkscape:bbox-nodes="true"
     inkscape:snap-bbox-edge-midpoints="true"
     inkscape:zoom="4.4595939"
     inkscape:cx="7.1755412"
     inkscape:cy="-13.005668"
     inkscape:window-width="1440"
     inkscape:window-height="748"
     inkscape:window-x="0"
     inkscape:window-y="28"
     inkscape:window-maximized="1"
     inkscape:current-layer="svg">
    <inkscape:grid
       type="xygrid"
       id="grid977" />
  </sodipodi:namedview>
  <metadata
     id="metadata54">
    <rdf:RDF>
      <cc:Work
         rdf:about="">
        <dc:format>image/svg+xml</dc:format>
        <dc:type
           rdf:resource="http://purl.org/dc/dcmitype/StillImage" />
      </cc:Work>
    </rdf:RDF>
  </metadata>
  <defs
     id="defs3">
    <style
       type="text/css"
       id="current-color-scheme">.ColorScheme-Text { color:#363636; }</style>
  </defs>
  <g
     id="22-22-video-display-brightness"
     transform="translate(-27)">
    <rect
       id="rect16"
       fill-opacity="0"
       height="22"
       width="22"
       x="27"
       y="0"
       style="color:#363636;fill:#363636" />
    <path
       id="path22"
       fill="currentColor"
       class="ColorScheme-Text"
       d="m 31,2 c -1.662,0 -3,1.338 -3,3 v 8 c 0,1.662 1.338,3 3,3 h 14 c 1.662,0 3,-1.338 3,-3 V 5 C 48,3.338 46.662,2 45,2 Z m 0,2 h 14 c 0.554,0 1,0.446 1,1 v 8 c 0,0.554 -0.446,1 -1,1 H 31 c -0.554,0 -1,-0.446 -1,-1 V 5 c 0,-0.554 0.446,-1 1,-1 z" />
    <path
       id="path24"
       fill="currentColor"
       class="ColorScheme-Text"
       d="m 34,18 c -1.108,0 -2,0.892 -2,2 h 12 c 0,-1.108 -0.892,-2 -2,-2 z" />
    <path
       id="path1033"
       d="m 38,5 a 4,4 0 0 0 -4,4 4,4 0 0 0 4,4 4,4 0 0 0 0.541016,-0.03906 4,4 0 0 0 0.207031,-0.04102 4,4 0 0 0 0.332031,-0.07227 4,4 0 0 0 0.216797,-0.07226 4,4 0 0 0 0.300781,-0.113282 4,4 0 0 0 0.203125,-0.09961 4,4 0 0 0 0.289063,-0.158203 4,4 0 0 0 0.18164,-0.121094 4,4 0 0 0 0.261719,-0.195312 4,4 0 0 0 0.179688,-0.158203 4,4 0 0 0 0.216797,-0.216797 4,4 0 0 0 0.158203,-0.179688 4,4 0 0 0 0.195312,-0.261719 4,4 0 0 0 0.121094,-0.18164 4,4 0 0 0 0.158203,-0.289063 4,4 0 0 0 0.09961,-0.203125 4,4 0 0 0 0.113282,-0.300781 4,4 0 0 0 0.07227,-0.216797 4,4 0 0 0 0.07227,-0.3320311 4,4 0 0 0 0.04102,-0.2070313 A 4,4 0 0 0 42,9 4,4 0 0 0 41.9961,8.8261719 4,4 0 0 0 41.9863,8.6816406 a 4,4 0 0 0 -0.002,-0.029297 4,4 0 0 0 -0.002,-0.00977 4,4 0 0 0 -0.01758,-0.1640625 4,4 0 0 0 -0.01953,-0.140625 4,4 0 0 0 -0.0059,-0.033203 4,4 0 0 0 -0.0059,-0.025391 4,4 0 0 0 -0.0293,-0.1445313 4,4 0 0 0 -0.04102,-0.1699218 4,4 0 0 0 -0.04883,-0.1640626 4,4 0 0 0 0,-0.00391 4,4 0 0 0 -0.04883,-0.1445312 4,4 0 0 0 -0.0078,-0.019531 4,4 0 0 0 -0.142578,-0.34375 4,4 0 0 0 -0.08789,-0.1738281 4,4 0 0 0 -0.08008,-0.1425782 4,4 0 0 0 -0.07422,-0.1210937 4,4 0 0 0 -0.04687,-0.074219 4,4 0 0 0 -0.02148,-0.029297 A 4,4 0 0 0 41.21875,6.625 4,4 0 0 0 41.21285,6.61719 4,4 0 0 0 41.20895,6.61133 4,4 0 0 0 41.103482,6.4785175 4,4 0 0 0 41.091762,6.4628925 4,4 0 0 0 41.064422,6.4296895 4,4 0 0 0 40.962891,6.3144531 4,4 0 0 0 40.828125,6.171875 4,4 0 0 0 40.685547,6.0371094 4,4 0 0 0 40.570312,5.9355469 a 4,4 0 0 0 -0.0332,-0.027344 4,4 0 0 0 -0.01563,-0.011719 4,4 0 0 0 -0.132812,-0.1054688 4,4 0 0 0 -0.0059,-0.00391 4,4 0 0 0 -0.0078,-0.00586 4,4 0 0 0 -0.123047,-0.085937 4,4 0 0 0 -0.0293,-0.021484 4,4 0 0 0 -0.07422,-0.046875 4,4 0 0 0 -0.121094,-0.074219 4,4 0 0 0 -0.142578,-0.080078 4,4 0 0 0 -0.173828,-0.087891 4,4 0 0 0 -0.01953,-0.00977 4,4 0 0 0 -0.34375,-0.140625 4,4 0 0 0 -0.144531,-0.048828 4,4 0 0 0 -0.0039,0 4,4 0 0 0 -0.164063,-0.048828 4,4 0 0 0 -0.169922,-0.041016 4,4 0 0 0 -0.144531,-0.029297 4,4 0 0 0 -0.02539,-0.00586 4,4 0 0 0 -0.0332,-0.00586 4,4 0 0 0 -0.140625,-0.019531 4,4 0 0 0 -0.164062,-0.017578 4,4 0 0 0 -0.0098,-0.00195 4,4 0 0 0 -0.0293,-0.00195 4,4 0 0 0 -0.144531,-0.00977 A 4,4 0 0 0 38,5 Z m 0,1 v 6 A 3,3 0 0 1 35,9 3,3 0 0 1 38,6 Z"
       class="ColorScheme-Text"
       fill="currentColor" />
  </g>
  <g
     id="video-display-brightness"
     transform="translate(-46)">
    <path
       id="path31"
       fill="currentColor"
       class="ColorScheme-Text"
       d="m 45,-33 c -1.662,0 -3,1.338 -3,3 v 16 c 0,1.662 1.338,3 3,3 h 24 c 1.662,0 3,-1.338 3,-3 v -16 c 0,-1.662 -1.338,-3 -3,-3 z m 0,2 h 24 c 0.554,0 1,0.446 1,1 v 16 c 0,0.554 -0.446,1 -1,1 H 45 c -0.554,0 -1,-0.446 -1,-1 v -16 c 0,-0.554 0.446,-1 1,-1 z" />
    <rect
       id="rect33"
       fill-opacity="0"
       height="32"
       width="32"
       x="41"
       y="-36"
       style="color:#363636;fill:#363636" />
    <path
       id="path35"
       fill="currentColor"
       class="ColorScheme-Text"
       d="m 51,-9 c -1.108,0 -2,0.892 -2,2 h 16 c 0,-1.108 -0.892,-2 -2,-2 z" />
    <path
       id="path1963"
       class="ColorScheme-Text"
       d="M 56.974609,-29 C 56.709695,-28.986658 56.5,-28.768344 56.5,-28.5 v 1 c 0,0.277 0.223,0.5 0.5,0.5 0.277,0 0.5,-0.223 0.5,-0.5 v -1 c 0,-0.277 -0.223,-0.5 -0.5,-0.5 -0.0087,0 -0.01685,-4.3e-4 -0.02539,0 z m -3.261718,0.871094 c -0.07257,0.0055 -0.145422,0.02745 -0.212891,0.06641 -0.239889,0.1385 -0.322094,0.443705 -0.183594,0.683594 l 0.5,0.865234 c 0.1385,0.239889 0.443705,0.322094 0.683594,0.183594 0.239889,-0.1385 0.322094,-0.443705 0.183594,-0.683594 l -0.5,-0.865234 c -0.09955,-0.17242 -0.285236,-0.264069 -0.470703,-0.25 z m 6.501953,0 c -0.159985,0.01118 -0.311875,0.100069 -0.398438,0.25 l -0.5,0.865234 c -0.1385,0.239889 -0.05629,0.545094 0.183594,0.683594 0.239889,0.1385 0.545094,0.05629 0.683594,-0.183594 l 0.5,-0.865234 c 0.1385,-0.239889 0.05629,-0.545094 -0.183594,-0.683594 -0.08996,-0.05194 -0.189165,-0.07312 -0.285156,-0.06641 z M 57,-26 a 4,4 0 0 0 -4,4 4,4 0 0 0 4,4 4,4 0 0 0 0.541016,-0.03906 4,4 0 0 0 0.207031,-0.04102 4,4 0 0 0 0.332031,-0.07227 4,4 0 0 0 0.216797,-0.07227 4,4 0 0 0 0.300781,-0.113282 4,4 0 0 0 0.203125,-0.09961 4,4 0 0 0 0.289063,-0.158203 4,4 0 0 0 0.18164,-0.121094 4,4 0 0 0 0.261719,-0.195312 4,4 0 0 0 0.179688,-0.158203 4,4 0 0 0 0.216797,-0.216797 4,4 0 0 0 0.158203,-0.179688 4,4 0 0 0 0.195312,-0.261719 4,4 0 0 0 0.121094,-0.18164 4,4 0 0 0 0.158203,-0.289063 4,4 0 0 0 0.09961,-0.203125 4,4 0 0 0 0.113282,-0.300781 4,4 0 0 0 0.07227,-0.216797 4,4 0 0 0 0.07227,-0.332031 4,4 0 0 0 0.04102,-0.207031 A 4,4 0 0 0 61,-22 a 4,4 0 0 0 -0.0039,-0.173828 4,4 0 0 0 -0.0098,-0.144531 4,4 0 0 0 -0.002,-0.0293 4,4 0 0 0 -0.002,-0.0098 4,4 0 0 0 -0.01758,-0.164062 4,4 0 0 0 -0.01953,-0.140625 4,4 0 0 0 -0.0059,-0.0332 4,4 0 0 0 -0.0059,-0.02539 4,4 0 0 0 -0.0293,-0.144531 4,4 0 0 0 -0.04102,-0.169922 4,4 0 0 0 -0.04883,-0.164063 4,4 0 0 0 0,-0.002 4,4 0 0 0 0,-0.002 4,4 0 0 0 -0.04883,-0.144531 4,4 0 0 0 -0.0078,-0.01953 4,4 0 0 0 -0.142578,-0.34375 4,4 0 0 0 -0.08789,-0.173828 4,4 0 0 0 -0.08008,-0.142578 4,4 0 0 0 -0.07422,-0.121094 4,4 0 0 0 -0.04687,-0.07422 4,4 0 0 0 -0.02148,-0.0293 4,4 0 0 0 -0.08594,-0.123047 4,4 0 0 0 -0.0059,-0.0078 4,4 0 0 0 -0.0039,-0.0059 4,4 0 0 0 -0.105468,-0.132812 4,4 0 0 0 -0.01172,-0.01563 4,4 0 0 0 -0.02734,-0.0332 4,4 0 0 0 -0.101562,-0.115235 4,4 0 0 0 -0.134766,-0.142578 4,4 0 0 0 -0.142578,-0.134766 4,4 0 0 0 -0.115235,-0.101562 4,4 0 0 0 -0.0332,-0.02734 4,4 0 0 0 -0.01563,-0.01172 4,4 0 0 0 -0.132812,-0.105468 4,4 0 0 0 -0.0059,-0.0039 4,4 0 0 0 -0.0078,-0.0059 4,4 0 0 0 -0.123047,-0.08594 4,4 0 0 0 -0.0293,-0.02148 4,4 0 0 0 -0.07422,-0.04687 4,4 0 0 0 -0.121094,-0.07422 4,4 0 0 0 -0.142578,-0.08008 4,4 0 0 0 -0.173828,-0.08789 4,4 0 0 0 -0.01953,-0.0098 4,4 0 0 0 -0.34375,-0.140625 4,4 0 0 0 -0.144531,-0.04883 4,4 0 0 0 -0.0039,0 4,4 0 0 0 -0.164063,-0.04883 4,4 0 0 0 -0.169922,-0.04102 4,4 0 0 0 -0.144531,-0.0293 4,4 0 0 0 -0.02539,-0.0059 4,4 0 0 0 -0.0332,-0.0059 4,4 0 0 0 -0.140625,-0.01953 4,4 0 0 0 -0.164062,-0.01758 4,4 0 0 0 -0.0098,-0.002 4,4 0 0 0 -0.0293,-0.002 4,4 0 0 0 -0.144531,-0.0098 A 4,4 0 0 0 57,-26 Z m -5.664062,0.25 c -0.159985,0.01118 -0.311876,0.100069 -0.398438,0.25 -0.1385,0.239889 -0.05629,0.545094 0.183594,0.683594 l 0.865234,0.5 c 0.239889,0.1385 0.545094,0.0563 0.683594,-0.183594 0.1385,-0.239889 0.05629,-0.545094 -0.183594,-0.683594 l -0.865234,-0.5 c -0.08996,-0.05194 -0.189166,-0.07312 -0.285156,-0.06641 z m 11.279296,0 c -0.08056,0.0022 -0.161362,0.02313 -0.236328,0.06641 l -0.865234,0.5 c -0.239889,0.1385 -0.322094,0.443705 -0.183594,0.683594 0.1385,0.239889 0.443705,0.322094 0.683594,0.183594 l 0.865234,-0.5 c 0.239889,-0.1385 0.322094,-0.443705 0.183594,-0.683594 -0.09522,-0.164924 -0.270026,-0.254787 -0.447266,-0.25 z M 57,-25 v 6 a 3,3 0 0 1 -3,-3 3,3 0 0 1 3,-3 z m -6.525391,2.5 C 50.209695,-22.486658 50,-22.268344 50,-22 c 0,0.277 0.223,0.5 0.5,0.5 h 1 c 0.277,0 0.5,-0.223 0.5,-0.5 0,-0.277 -0.223,-0.5 -0.5,-0.5 h -1 c -0.0087,0 -0.01685,-4.3e-4 -0.02539,0 z m 12,0 C 62.209695,-22.486658 62,-22.268344 62,-22 c 0,0.277 0.223,0.5 0.5,0.5 h 1 c 0.277,0 0.5,-0.223 0.5,-0.5 0,-0.277 -0.223,-0.5 -0.5,-0.5 h -1 c -0.0087,0 -0.01685,-4.3e-4 -0.02539,0 z m -10.25,2.75 c -0.08056,0.0022 -0.163316,0.02313 -0.238281,0.06641 l -0.865234,0.5 c -0.239889,0.1385 -0.322094,0.443705 -0.183594,0.683594 0.1385,0.239889 0.443705,0.322094 0.683594,0.183594 l 0.865234,-0.5 c 0.239889,-0.1385 0.322094,-0.443705 0.183594,-0.683594 -0.09522,-0.164924 -0.268073,-0.254787 -0.445313,-0.25 z m 9.503907,0 c -0.159985,0.01118 -0.311875,0.100069 -0.398438,0.25 -0.1385,0.239889 -0.05629,0.545094 0.183594,0.683594 l 0.865234,0.5 c 0.239889,0.1385 0.545094,0.0563 0.683594,-0.183594 0.1385,-0.239889 0.05629,-0.545094 -0.183594,-0.683594 l -0.865234,-0.5 c -0.08996,-0.05194 -0.189166,-0.07312 -0.285156,-0.06641 z m -7.513672,2.013672 c -0.159985,0.01118 -0.311875,0.100069 -0.398438,0.25 l -0.5,0.865234 c -0.1385,0.239889 -0.05629,0.545094 0.183594,0.683594 0.239889,0.1385 0.545094,0.0563 0.683594,-0.183594 l 0.5,-0.865234 c 0.1385,-0.239889 0.05629,-0.545094 -0.183594,-0.683594 -0.08996,-0.05194 -0.189165,-0.07312 -0.285156,-0.06641 z m 5.498047,0 c -0.07257,0.0055 -0.145422,0.02745 -0.212891,0.06641 -0.239889,0.1385 -0.322094,0.443705 -0.183594,0.683594 l 0.5,0.865234 c 0.1385,0.239889 0.443705,0.322094 0.683594,0.183594 0.239889,-0.1385 0.322094,-0.443705 0.183594,-0.683594 l -0.5,-0.865234 c -0.09955,-0.17242 -0.285236,-0.264069 -0.470703,-0.25 z M 56.974609,-17 C 56.709695,-16.986658 56.5,-16.768344 56.5,-16.5 v 1 c 0,0.277 0.223,0.5 0.5,0.5 0.277,0 0.5,-0.223 0.5,-0.5 v -1 c 0,-0.277 -0.223,-0.5 -0.5,-0.5 -0.0087,0 -0.01685,-4.3e-4 -0.02539,0 z"
       fill="currentColor" />
  </g>
</svg>
