<?xml version="1.0" encoding="UTF-8" standalone="no"?>
<svg
   version="1.1"
   viewBox="0 0 54 64"
   id="svg8"
   sodipodi:docname="view.svg"
   width="54"
   height="64"
   inkscape:version="1.3 (0e150ed6c4, 2023-07-21)"
   xmlns:inkscape="http://www.inkscape.org/namespaces/inkscape"
   xmlns:sodipodi="http://sodipodi.sourceforge.net/DTD/sodipodi-0.dtd"
   xmlns="http://www.w3.org/2000/svg"
   xmlns:svg="http://www.w3.org/2000/svg">
  <sodipodi:namedview
     id="namedview8"
     pagecolor="#ffffff"
     bordercolor="#666666"
     borderopacity="1.0"
     inkscape:showpageshadow="2"
     inkscape:pageopacity="0.0"
     inkscape:pagecheckerboard="0"
     inkscape:deskcolor="#d1d1d1"
     showgrid="true"
     inkscape:zoom="3.890625"
     inkscape:cx="-28.273092"
     inkscape:cy="20.947791"
     inkscape:window-width="1920"
     inkscape:window-height="1022"
     inkscape:window-x="0"
     inkscape:window-y="32"
     inkscape:window-maximized="1"
     inkscape:current-layer="svg8">
    <inkscape:grid
       id="grid10"
       units="px"
       originx="0"
       originy="0"
       spacingx="1"
       spacingy="1"
       empcolor="#0099e5"
       empopacity="0.30196078"
       color="#0099e5"
       opacity="0.14901961"
       empspacing="5"
       dotted="false"
       gridanglex="30"
       gridanglez="30"
       visible="true" />
  </sodipodi:namedview>
  <defs
     id="defs1">
    <style
       id="current-color-scheme"
       type="text/css">.ColorScheme-Text { color:#363636; }</style>
  </defs>
  <g
     id="22-22-view-history"
     transform="translate(0,30.016998)">
    <path
       class="ColorScheme-Text"
       d="m 11,13 c -4.432,0 -8,3.568 -8,8 0,4.432 3.568,8 8,8 4.432,0 8,-3.568 8,-8 0,-4.432 -3.568,-8 -8,-8 z m 0,1 c 3.878,0 7,3.122 7,7 0,3.878 -3.122,7 -7,7 -3.878,0 -7,-3.122 -7,-7 0,-3.878 3.122,-7 7,-7 z m -1,1 v 7 h 6 v -1 h -5 v -6 z"
       fill="currentColor"
       id="path5" />
    <path
       d="M 0,10 V 32 H 22 V 10 Z"
       fill="none"
       id="path6" />
  </g>
  <g
     id="view-history"
     transform="translate(0,-1.9830017)">
    <circle
       cx="38"
       cy="49.983002"
       r="16"
       opacity="0"
       id="circle6" />
    <g
       class="ColorScheme-Text"
       fill="currentColor"
       id="g8">
      <path
         id="path7"
         d="M 38 34.981049 C 29.715737 34.981049 23 41.696786 23 49.981049 C 23 58.265311 29.715737 64.981049 38 64.981049 C 46.284263 64.981049 53 58.265311 53 49.981049 C 53 41.696786 46.284263 34.981049 38 34.981049 z M 38 36.983002 A 13 13 0 0 1 51 49.983002 A 13 13 0 0 1 38 62.983002 A 13 13 0 0 1 25 49.983002 A 13 13 0 0 1 38 36.983002 z " />
      <rect
         x="37"
         y="39"
         width="2"
         height="12"
         rx="1"
         ry="1"
         id="rect7"
         style="stroke-width:1.41421" />
      <rect
         transform="rotate(90)"
         x="48.983002"
         y="-47"
         width="2.0169983"
         height="10"
         rx="1.0084991"
         ry="1.0084991"
         id="rect8" />
    </g>
  </g>
  <g
     id="view-refresh"
     transform="translate(63.002477,-44)">
    <rect
       id="rect4546"
       width="32"
       height="32"
       x="-41"
       y="44"
       rx="0"
       ry="0"
       style="fill:none" />
    <path
       d="m -23.328125,49.134766 c -2.258042,-0.345302 -4.624247,0.01054 -6.75,1.11914 a 1,1 0 0 0 -0.423828,1.34961 1,1 0 0 0 1.349609,0.423828 c 3.48508,-1.817501 7.734887,-1.166563 10.517578,1.609375 2.779307,2.782285 3.431854,7.03434 1.613282,10.521484 a 1,1 0 0 0 0.423828,1.349609 1,1 0 0 0 1.349609,-0.423828 c 2.219018,-4.255006 1.419881,-9.469194 -1.972656,-12.863281 a 1.0001,1.0001 0 0 0 -0.002,0 c -1.697314,-1.693195 -3.847427,-2.740635 -6.105469,-3.085937 z m -10.830078,5.294921 a 1,1 0 0 0 -0.585938,0.492188 c -2.217198,4.251505 -1.421589,9.458912 1.964844,12.853516 a 1.0001,1.0001 0 0 0 0.002,0.002 c 3.394629,3.386391 8.603963,4.183996 12.855469,1.966797 a 1,1 0 0 0 0.423828,-1.34961 1,1 0 0 0 -1.349609,-0.423828 c -3.484252,1.817069 -7.732898,1.166848 -10.515625,-1.607422 l -0.002,-0.002 c -2.774287,-2.78269 -3.422539,-7.031372 -1.605469,-10.515625 a 1,1 0 0 0 -0.425781,-1.349609 1,1 0 0 0 -0.761719,-0.06641 z"
       id="path2104"
       class="ColorScheme-Text"
       fill="currentColor" />
    <path
       id="rect2921"
       d="m -33.865234,54.375 c -0.255619,0 -0.511163,0.0971 -0.707032,0.292969 -0.391737,0.391737 -0.391737,1.022325 0,1.414062 l 3.208985,3.208985 c 0.391737,0.391737 1.022325,0.391737 1.414062,0 0.391737,-0.391738 0.391737,-1.022326 0,-1.414063 l -3.208984,-3.208984 C -33.354072,54.4721 -33.609615,54.375 -33.865234,54.375 Z m 14.521484,6.037109 c -0.255619,0 -0.511163,0.0971 -0.707031,0.292969 -0.391737,0.391737 -0.391737,1.024279 0,1.416016 l 3.208984,3.208984 c 0.391737,0.391737 1.024279,0.391737 1.416016,0 0.391737,-0.391737 0.391737,-1.022325 0,-1.414062 l -3.210938,-3.210938 c -0.195868,-0.195868 -0.451412,-0.292969 -0.707031,-0.292969 z"
       fill="currentColor"
       class="ColorScheme-Text"
       style="color:#363636;opacity:1" />
  </g>
  <g
     id="22-22-view-refresh"
     transform="translate(-32.017353,-32.000053)">
    <rect
       style="fill:none;fill-opacity:1;stroke:none;stroke-width:1.62963;stroke-linecap:round;stroke-linejoin:round;stroke-miterlimit:4;stroke-dasharray:none;stroke-opacity:1;paint-order:stroke fill markers"
       id="rect17285"
       width="22"
       height="22"
       x="32.010799"
       y="37.000053"
       rx="0"
       ry="0" />
    <path
       d="m 43.802734,39.039062 c -2.044049,-0.181381 -4.148971,0.332815 -5.935547,1.576172 a 0.5,0.5 0 0 0 -0.125,0.695313 0.5,0.5 0 0 0 0.695313,0.125 c 3.181224,-2.213955 7.482939,-1.831327 10.224609,0.908203 2.57956,2.589795 2.978513,6.536317 1.16211,9.646484 l -2.453125,-2.453125 a 0.5,0.5 0 0 0 -0.707032,0 0.5,0.5 0 0 0 0,0.707032 l 2.955079,2.955078 a 0.50005,0.50005 0 0 0 0.763671,-0.06836 c 2.484057,-3.569324 2.05776,-8.413739 -1.011718,-11.49414 a 0.50005,0.50005 0 0 0 -0.002,0 c -1.539723,-1.538521 -3.522357,-2.416275 -5.566407,-2.597657 z m -7.80664,3.617188 a 0.50005,0.50005 0 0 0 -0.367188,0.212891 c -2.484058,3.569323 -2.05776,8.413739 1.011719,11.49414 a 0.50005,0.50005 0 0 0 0.002,0.002 c 3.080384,3.069503 7.924818,3.495777 11.494141,1.011719 a 0.5,0.5 0 0 0 0.125,-0.697266 0.5,0.5 0 0 0 -0.697266,-0.123046 c -3.177027,2.21104 -7.472266,1.832564 -10.214844,-0.898438 l -0.002,-0.002 C 34.768807,51.066436 34.371287,47.119605 36.1875,44.009766 l 2.451172,2.451171 a 0.5,0.5 0 0 0 0.707031,0 0.5,0.5 0 0 0 0,-0.707031 L 36.392578,42.800781 A 0.50005,0.50005 0 0 0 35.996094,42.65625 Z"
       id="path1690"
       class="ColorScheme-Text"
       fill="currentColor" />
  </g>
</svg>
