<svg width="450" height="450" version="1.1" viewBox="0 0 119.06 119.06" xmlns="http://www.w3.org/2000/svg">
 <g transform="translate(0 -177.94)">
  <rect x="42.598" y="220.54" width="33.867" height="33.867" fill="none"/>
  <path d="m63.115 229.2c0.83962-1.0454 1.4089-2.4656 1.2518-3.9052-1.2093 0.0511-2.716 0.83996-3.5889 1.8549-0.77105 0.90047-1.456 2.3723-1.2786 3.7597 1.3571 0.1012 2.747-0.68673 3.6156-1.7094zm3.0597 9.0441c-0.02913-3.0784 2.5189-4.5731 2.6343-4.6444-1.4414-2.1038-3.6765-2.3889-4.4645-2.4148-1.8783-0.19167-3.6966 1.1285-4.6548 1.1285-0.97518-1e-4 -2.4479-1.1057-4.034-1.0742-2.0444 0.0307-3.9588 1.2143-5.0069 3.0474-2.1576 3.7468-0.54914 9.2497 1.5232 12.271 1.0381 1.4872 2.2474 3.1425 3.8335 3.0771 1.5513-0.0588 2.1296-0.98491 4.0045-0.98491 1.8553 0 2.3988 0.98491 4.0175 0.95327 1.6658-0.0256 2.7135-1.4899 3.7156-2.9832 1.1935-1.7036 1.6754-3.3737 1.6947-3.4627-0.03731-0.0153-3.2289-1.2276-3.2631-4.913z" enable-background="new" fill="#242424" fill-rule="evenodd" stroke-width=".052992"/>
 </g>
</svg>
