<svg width="128" height="128" version="1" xmlns="http://www.w3.org/2000/svg" xmlns:xlink="http://www.w3.org/1999/xlink">
 <g id="normal" transform="matrix(1.6 0 0 1.6 67.344 3.056)">
  <rect x="-42.09" y="-1.91" width="20" height="20" opacity=".001"/>
  <circle transform="matrix(1.0156 0 0 1.0156 .40985 -.035)" cx="-32" cy="8" r="8" fill="#000000" opacity=".5"/>
 </g>
 <g id="22-22-normal" transform="matrix(1.1 0 0 1.1 86.299 7.101)">
  <rect x="-42.09" y="-1.91" width="20" height="20" opacity=".001"/>
  <path transform="matrix(1.0227 0 0 1.0227 .63712 -.091818)" d="m-24 8a8 8 0 0 1-8 8 8 8 0 0 1-8-8 8 8 0 0 1 8-8 8 8 0 0 1 8 8z" fill="#000000" opacity=".5"/>
 </g>
 <g id="pressed" transform="matrix(1.6,0,0,1.6,67.344,99.056)">
  <rect x="-42.09" y="-1.91" width="20" height="20" opacity=".001"/>
  <circle transform="matrix(1.0156 0 0 1.0156 .40985 -.035)" cx="-32" cy="8" r="8" fill="#4285f4"/>
 </g>
 <g id="22-22-pressed" transform="matrix(1.1 0 0 1.1 86.299 103.1)">
  <rect x="-42.09" y="-1.91" width="20" height="20" opacity=".001"/>
  <path transform="matrix(1.0227 0 0 1.0227 .63712 -.091818)" d="m-24 8a8 8 0 0 1-8 8 8 8 0 0 1-8-8 8 8 0 0 1 8-8 8 8 0 0 1 8 8z" fill="#4285f4"/>
 </g>
 <g id="hover" transform="translate(-11,-2)">
  <rect x="11" y="34" width="32" height="32" opacity=".001"/>
  <path d="M 27,37 A 13,13 0 0 0 14,50 13,13 0 0 0 14.021484,50.580078 13,13 0 0 1 27,38 13,13 0 0 1 39.978516,50.419922 13,13 0 0 0 40,50 13,13 0 0 0 27,37 Z" fill="#ffffff" opacity=".001"/>
  <circle cx="27" cy="50" r="13" fill="#000000" opacity=".65"/>
 </g>
 <g id="focus" transform="translate(-11,-7)">
  <rect x="11" y="71" width="32" height="32" opacity=".001"/>
  <path d="M 27,74 A 13,13 0 0 0 14,87 13,13 0 0 0 14.021484,87.580078 13,13 0 0 1 27,75 13,13 0 0 1 39.978516,87.419922 13,13 0 0 0 40,87 13,13 0 0 0 27,74 Z" fill="#ffffff" opacity=".001"/>
  <circle cx="27" cy="87" r="13" fill="#000000" opacity=".35"/>
 </g>
 <g id="22-22-hover" transform="translate(-17 -8)">
  <rect x="57" y="45" width="22" height="22" opacity=".001"/>
  <path d="m68 47a9 9 0 0 0-9 9 9 9 0 0 0 0.0098 0.28711 9 9 0 0 1 8.9902-8.7871 9 9 0 0 1 8.9902 8.7129 9 9 0 0 0 0.009766-0.21289 9 9 0 0 0-9-9z" fill="#ffffff" opacity=".001"/>
  <circle cx="68" cy="56" r="9" fill="#000000" opacity=".65"/>
 </g>
 <g id="22-22-focus" transform="translate(-17 -13)">
  <rect x="57" y="82" width="22" height="22" opacity=".001"/>
  <path d="m68 84a9 9 0 0 0-9 9 9 9 0 0 0 0.0098 0.28711 9 9 0 0 1 8.9902-8.7871 9 9 0 0 1 8.9902 8.7129 9 9 0 0 0 0.009766-0.21289 9 9 0 0 0-9-9z" fill="#ffffff" opacity=".001"/>
  <circle cx="68" cy="93" r="9" fill="#000000" opacity=".35"/>
 </g>
 <g id="16-16-normal">
  <rect x="68" y="8" width="16" height="16" opacity=".001" stroke-width=".8"/>
  <path d="m83 16a7 7 0 0 1-7 7 7 7 0 0 1-7-7 7 7 0 0 1 7-7 7 7 0 0 1 7 7z" fill="#000000" opacity=".5" stroke-width=".875"/>
 </g>
 <g id="16-16-hover" transform="translate(0,32)">
  <rect x="68" y="8" width="16" height="16" opacity=".001" stroke-width=".8"/>
  <path d="m83 16a7 7 0 0 1-7 7 7 7 0 0 1-7-7 7 7 0 0 1 7-7 7 7 0 0 1 7 7z" fill="#000000" opacity=".65" stroke-width=".875"/>
 </g>
 <g id="16-16-focus" transform="translate(0,64)">
  <rect x="68" y="8" width="16" height="16" opacity=".001" stroke-width=".8"/>
  <path d="m83 16a7 7 0 0 1-7 7 7 7 0 0 1-7-7 7 7 0 0 1 7-7 7 7 0 0 1 7 7z" fill="#000000" opacity=".35" stroke-width=".875"/>
 </g>
 <g id="16-16-pressed" transform="translate(0,96)">
  <rect x="68" y="8" width="16" height="16" opacity=".001" stroke-width=".8"/>
  <path d="m83 16a7 7 0 0 1-7 7 7 7 0 0 1-7-7 7 7 0 0 1 7-7 7 7 0 0 1 7 7z" fill="#4285f4" stroke-width=".875"/>
 </g>
</svg>
