<svg width="34" height="16" version="1.1" viewBox="0 0 34 16" xmlns="http://www.w3.org/2000/svg" xmlns:osb="http://www.openswatchbook.org/uri/2009/osb">
 <defs>
  <style id="current-color-scheme" type="text/css">.ColorScheme-Text {
        color:#31363b;
        stop-color:#31363b;
      }
      .ColorScheme-Background {
        color:#eff0f1;
        stop-color:#eff0f1;
      }
      .ColorScheme-Highlight {
        color:#3daee9;
        stop-color:#3daee9;
      }
      .ColorScheme-ViewText {
        color:#31363b;
        stop-color:#31363b;
      }
      .ColorScheme-ViewBackground {
        color:#fcfcfc;
        stop-color:#fcfcfc;
      }
      .ColorScheme-ViewHover {
        color:#93cee9;
        stop-color:#93cee9;
      }
      .ColorScheme-ViewFocus{
        color:#3daee9;
        stop-color:#3daee9;
      }
      .ColorScheme-ButtonText {
        color:#31363b;
        stop-color:#31363b;
      }
      .ColorScheme-ButtonBackground {
        color:#eff0f1;
        stop-color:#eff0f1;
      }
      .ColorScheme-ButtonHover {
        color:#93cee9;
        stop-color:#93cee9;
      }
      .ColorScheme-ButtonFocus{
        color:#3daee9;
        stop-color:#3daee9;
      }</style>
  <filter id="br" color-interpolation-filters="sRGB">
   <feFlood flood-color="rgb(0,0,0)" flood-opacity=".15" result="flood"/>
   <feComposite in="flood" in2="SourceGraphic" operator="in" result="composite1"/>
   <feGaussianBlur in="composite1" result="blur"/>
   <feOffset dx="0" dy="0.5" result="offset"/>
   <feComposite in="SourceGraphic" in2="offset" result="composite2"/>
  </filter>
  <filter id="bm" color-interpolation-filters="sRGB">
   <feFlood flood-color="rgb(0,0,0)" flood-opacity=".15" result="flood"/>
   <feComposite in="flood" in2="SourceGraphic" operator="in" result="composite1"/>
   <feGaussianBlur in="composite1" result="blur"/>
   <feOffset dx="0" dy="0.5" result="offset"/>
   <feComposite in="SourceGraphic" in2="offset" result="composite2"/>
  </filter>
 </defs>
 <g id="16-16-checkbox" transform="translate(-20 -.362)">
  <g transform="translate(19)">
   <g transform="translate(0,-30)">
    <g transform="matrix(.92952 0 0 .92914 -156.75 -212.96)"></g>
    <rect x="17" y="30.362" width="16" height="16" color="#000000" fill="none"/>
    <rect x="18" y="31.362" width="14" height="14" rx="2" ry="2" color="#000000" fill="#5683fa" stroke-width="0"/>
   </g>
  </g>
  <g transform="translate(36,-1036)">
   <g transform="rotate(45,7.5,1026.4)">
    <g transform="translate(12.374,11.531)">
     <g transform="translate(-3,-5)" fill="#3b3c3e">
      <path transform="rotate(-45,1243.6,548.31)" d="m33.277 15.869c-0.24853 0-0.49706 0.09472-0.6875 0.28516l-3.5547 3.5547-1.4316-1.4297c-0.38234-0.38234-1.0048-0.37611-1.3965 0.01563-0.39173 0.39173-0.39992 1.0161-0.01758 1.3984l2.1191 2.1172 0.03911 0.03911c0.38088 0.38088 0.99412 0.38088 1.375 0l0.01953-0.01953 4.2637-4.2617c0.38088-0.38088 0.38088-0.99412 0-1.375l-0.04102-0.03906c-0.19044-0.19044-0.43897-0.28516-0.6875-0.28516z" fill="#ffffff" filter="url(#br)"/>
     </g>
     <rect transform="translate(0,1036.4)" x="5" y="-8" width="3" height="1" fill-opacity="0"/>
    </g>
   </g>
  </g>
 </g>
 <g id="16-16-radiobutton" transform="translate(-116 -.36421)">
  <g transform="translate(19.004)">
   <g transform="matrix(.93617 0 0 .93566 -96.783 -244.76)">
    <g transform="translate(0,1.0688)" opacity=".06"></g>
    <rect x="206.99" y="261.98" width="17.091" height="17.1" color="#000000" fill="none"/>
    <g transform="matrix(.50892 0 0 .5174 181.79 197.56)">
     <rect x="51.611" y="126.56" width="29.385" height="28.919" rx="14.692" ry="14.46" color="#000000" fill="#5683fa" stroke-width="0"/>
    </g>
   </g>
  </g>
  <rect x="122" y="6.3622" width="4" height="4" rx="1.9989" ry="2" color="#000000" fill="#ffffff" filter="url(#bm)"/>
 </g>
 <g id="checkbox" transform="matrix(2 0 0 2 -58 -62.724)">
  <g transform="translate(19)">
   <g transform="translate(0,-30)">
    <g transform="matrix(.92952 0 0 .92914 -156.75 -212.96)"></g>
    <rect x="17" y="30.362" width="16" height="16" color="#000000" fill="none"/>
    <rect x="18" y="31.362" width="14" height="14" rx="2" ry="2" color="#000000" fill="#5683fa" stroke-width="0"/>
   </g>
  </g>
  <g transform="translate(36,-1036)">
   <g transform="rotate(45,7.5,1026.4)">
    <g transform="translate(12.374,11.531)">
     <g transform="translate(-3,-5)" fill="#3b3c3e">
      <path transform="rotate(-45,1243.6,548.31)" d="m33.277 15.869c-0.24853 0-0.49706 0.09472-0.6875 0.28516l-3.5547 3.5547-1.4316-1.4297c-0.38234-0.38234-1.0048-0.37611-1.3965 0.01563-0.39173 0.39173-0.39992 1.0161-0.01758 1.3984l2.1191 2.1172 0.03911 0.03911c0.38088 0.38088 0.99412 0.38088 1.375 0l0.01953-0.01953 4.2637-4.2617c0.38088-0.38088 0.38088-0.99412 0-1.375l-0.04102-0.03906c-0.19044-0.19044-0.43897-0.28516-0.6875-0.28516z" fill="#ffffff" filter="url(#br)"/>
     </g>
     <rect transform="translate(0,1036.4)" x="5" y="-8" width="3" height="1" fill-opacity="0"/>
    </g>
   </g>
  </g>
 </g>
 <g id="radiobutton" transform="matrix(2 0 0 2 -254 -62.724)">
  <g transform="translate(19.004)">
   <g transform="matrix(.93617 0 0 .93566 -96.783 -244.76)">
    <g transform="translate(0,1.0688)" opacity=".06"></g>
    <rect x="206.99" y="261.98" width="17.091" height="17.1" color="#000000" fill="none"/>
    <g transform="matrix(.50892 0 0 .5174 181.79 197.56)">
     <rect x="51.611" y="126.56" width="29.385" height="28.919" rx="14.692" ry="14.46" color="#000000" fill="#5683fa" stroke-width="0"/>
    </g>
   </g>
  </g>
  <rect x="122" y="6.3622" width="4" height="4" rx="1.9989" ry="2" color="#000000" fill="#ffffff" filter="url(#bm)"/>
 </g>
 <g id="22-22-checkbox" transform="matrix(1.375 0 0 1.375 -32.5 -26.498)">
  <g transform="translate(19)">
   <g transform="translate(0,-30)">
    <g transform="matrix(.92952 0 0 .92914 -156.75 -212.96)"></g>
    <rect x="17" y="30.362" width="16" height="16" color="#000000" fill="none"/>
    <rect x="18" y="31.362" width="14" height="14" rx="2" ry="2" color="#000000" fill="#5683fa" stroke-width="0"/>
   </g>
  </g>
  <g transform="translate(36,-1036)">
   <g transform="rotate(45,7.5,1026.4)">
    <g transform="translate(12.374,11.531)">
     <g transform="translate(-3,-5)">
      <path d="m11.829 1028.2c-0.17574 0.1757-0.2845 0.4184-0.2845 0.6878v5.0271h-2.0232c-0.54071 0-0.97645 0.4446-0.97642 0.9985 0 0.554 0.4357 1.0013 0.97639 1.0013h2.9955 0.05531c0.53864 0 0.97227-0.4336 0.97227-0.9722v-0.028l0.0014-6.0283c0-0.5387-0.43363-0.9723-0.97227-0.9723h-0.05662c-0.26932 0-0.51204 0.1087-0.68778 0.2845z" fill="#000000" opacity=".15"/>
      <path transform="rotate(-45,1243.6,548.31)" d="m33.277 15.869c-0.24853 0-0.49706 0.09472-0.6875 0.28516l-3.5547 3.5547-1.4316-1.4297c-0.38234-0.38234-1.0048-0.37611-1.3965 0.01563-0.39173 0.39173-0.39992 1.0161-0.01758 1.3984l2.1191 2.1172 0.03911 0.03911c0.38088 0.38088 0.99412 0.38088 1.375 0l0.01953-0.01953 4.2637-4.2617c0.38088-0.38088 0.38088-0.99412 0-1.375l-0.04102-0.03906c-0.19044-0.19044-0.43897-0.28516-0.6875-0.28516z" fill="#ffffff"/>
     </g>
     <rect transform="translate(0,1036.4)" x="5" y="-8" width="3" height="1" fill-opacity="0"/>
    </g>
   </g>
  </g>
 </g>
 <g id="22-22-radiobutton" transform="matrix(1.375 0 0 1.375 -167.5 -26.5)">
  <g transform="translate(19.004)">
   <g transform="matrix(.93617 0 0 .93566 -96.783 -244.76)">
    <g transform="translate(0,1.0688)" opacity=".06"></g>
    <rect x="206.99" y="261.98" width="17.091" height="17.1" color="#000000" fill="none"/>
    <g transform="matrix(.50892 0 0 .5174 181.79 197.56)">
     <rect x="52.56" y="127.49" width="27.486" height="27.05" rx="13.743" ry="13.526" color="#000000" fill="#5683fa" stroke-width="0"/>
    </g>
   </g>
  </g>
  <rect x="121.82" y="6.9094" width="4.3601" height="4.3601" rx="2.1789" ry="2.1801" color="#000000" fill="#000000" opacity=".15" stroke-width="1.09"/>
  <rect x="121.82" y="6.1821" width="4.3601" height="4.3601" rx="2.1789" ry="2.1801" color="#000000" fill="#ffffff" stroke-width="1.09"/>
 </g>
</svg>
