<?xml version="1.0" encoding="UTF-8" standalone="no"?>
<svg
   xmlns:dc="http://purl.org/dc/elements/1.1/"
   xmlns:cc="http://creativecommons.org/ns#"
   xmlns:rdf="http://www.w3.org/1999/02/22-rdf-syntax-ns#"
   xmlns:svg="http://www.w3.org/2000/svg"
   xmlns="http://www.w3.org/2000/svg"
   xmlns:sodipodi="http://sodipodi.sourceforge.net/DTD/sodipodi-0.dtd"
   xmlns:inkscape="http://www.inkscape.org/namespaces/inkscape"
   width="450"
   height="450"
   version="1.1"
   viewBox="0 0 119.06 119.06"
   id="svg8"
   sodipodi:docname="logo.svg"
   inkscape:version="1.0 (4035a4fb49, 2020-05-01)">
  <metadata
     id="metadata14">
    <rdf:RDF>
      <cc:Work
         rdf:about="">
        <dc:format>image/svg+xml</dc:format>
        <dc:type
           rdf:resource="http://purl.org/dc/dcmitype/StillImage" />
        <dc:title></dc:title>
      </cc:Work>
    </rdf:RDF>
  </metadata>
  <defs
     id="defs12" />
  <sodipodi:namedview
     inkscape:document-rotation="0"
     pagecolor="#868686"
     bordercolor="#666666"
     borderopacity="1"
     objecttolerance="10"
     gridtolerance="10"
     guidetolerance="10"
     inkscape:pageopacity="0"
     inkscape:pageshadow="2"
     inkscape:window-width="1920"
     inkscape:window-height="1022"
     id="namedview10"
     showgrid="true"
     inkscape:snap-bbox="true"
     inkscape:bbox-nodes="true"
     inkscape:snap-bbox-edge-midpoints="true"
     inkscape:snap-nodes="false"
     showguides="true"
     inkscape:guide-bbox="true"
     inkscape:zoom="1.0182338"
     inkscape:cx="90.573619"
     inkscape:cy="152.36164"
     inkscape:window-x="0"
     inkscape:window-y="32"
     inkscape:window-maximized="1"
     inkscape:current-layer="svg8">
    <inkscape:grid
       type="xygrid"
       id="grid839" />
    <sodipodi:guide
       position="59.53,62.175778"
       orientation="1,0"
       id="guide841" />
  </sodipodi:namedview>
  <g
     transform="matrix(1.5563399,0,0,1.5563399,-32.294054,-313.29122)"
     id="g6">
    <rect
       x="42"
       y="220"
       width="34"
       height="34"
       fill="none"
       id="rect2" />
    <path
       d="m 62.185564,229.2 c 0.83962,-1.0454 1.4089,-2.4656 1.2518,-3.9052 -1.2093,0.0511 -2.716,0.83996 -3.5889,1.8549 -0.77105,0.90047 -1.456,2.3723 -1.2786,3.7597 1.3571,0.1012 2.747,-0.68673 3.6156,-1.7094 z m 3.0597,9.0441 c -0.02913,-3.0784 2.5189,-4.5731 2.6343,-4.6444 -1.4414,-2.1038 -3.6765,-2.3889 -4.4645,-2.4148 -1.8783,-0.19167 -3.6966,1.1285 -4.6548,1.1285 -0.97518,-1e-4 -2.4479,-1.1057 -4.034,-1.0742 -2.0444,0.0307 -3.9588,1.2143 -5.0069,3.0474 -2.1576,3.7468 -0.54914,9.2497 1.5232,12.271 1.0381,1.4872 2.2474,3.1425 3.8335,3.0771 1.5513,-0.0588 2.1296,-0.98491 4.0045,-0.98491 1.8553,0 2.3988,0.98491 4.0175,0.95327 1.6658,-0.0256 2.7135,-1.4899 3.7156,-2.9832 1.1935,-1.7036 1.6754,-3.3737 1.6947,-3.4627 -0.03731,-0.0153 -3.2289,-1.2276 -3.2631,-4.913 z"
       fill="#ffffff"
       id="path4" />
  </g>
</svg>
