<svg width="72" height="72" version="1.1" xmlns="http://www.w3.org/2000/svg">
 <g id="remove-normal" transform="matrix(1.375,0,0,1.375,0,-24.75)">
  <rect y="34" width="16" height="16" opacity=".001"/>
  <path d="m13.818 42a5.8182 5.8182 0 0 1-5.8182 5.8182 5.8182 5.8182 0 0 1-5.8182-5.8182 5.8182 5.8182 0 0 1 5.8182-5.8182 5.8182 5.8182 0 0 1 5.8182 5.8182z" fill="#1a1a1a" stroke-width=".83117"/>
  <rect transform="rotate(90)" x="41.273" y="-10.909" width="1.4545" height="5.8182" fill="#ffffff" stroke-width=".72727"/>
 </g>
 <g id="add-normal" transform="matrix(1.375,0,0,1.375,0,-24.75)">
  <rect y="18" width="16" height="16" opacity=".001"/>
  <path d="m13.818 26a5.8182 5.8182 0 0 1-5.8182 5.8182 5.8182 5.8182 0 0 1-5.8182-5.8182 5.8182 5.8182 0 0 1 5.8182-5.8182 5.8182 5.8182 0 0 1 5.8182 5.8182z" fill="#1a1a1a" stroke-width=".83117"/>
  <path transform="matrix(.72727 0 0 .72727 0 18)" d="m10 7v3h-3v2h3v3h2v-3h3v-2h-3v-3z" fill="#ffffff"/>
 </g>
 <g id="open-normal" transform="matrix(1.375,0,0,1.375,0,-24.75)">
  <rect y="50" width="16" height="16" opacity=".001"/>
  <path d="m13.818 58a5.8182 5.8182 0 0 1-5.8182 5.8182 5.8182 5.8182 0 0 1-5.8182-5.8182 5.8182 5.8182 0 0 1 5.8182-5.8182 5.8182 5.8182 0 0 1 5.8182 5.8182z" fill="#1a1a1a" stroke-width=".83117"/>
  <path d="m8 55.818 2.9091 3.6364h-5.8182l1.4545-1.8182z" fill="#ffffff" stroke-width=".66452"/>
 </g>
 <g id="remove-hover" transform="matrix(1.375,0,0,1.375,23,-24.75)">
  <rect y="34" width="16" height="16" opacity=".001"/>
  <path d="m13.818 42a5.8182 5.8182 0 0 1-5.8182 5.8182 5.8182 5.8182 0 0 1-5.8182-5.8182 5.8182 5.8182 0 0 1 5.8182-5.8182 5.8182 5.8182 0 0 1 5.8182 5.8182z" fill="#333333" stroke-width=".83117"/>
  <rect transform="rotate(90)" x="41.273" y="-10.909" width="1.4545" height="5.8182" fill="#ffffff" stroke-width=".72727"/>
 </g>
 <g id="add-hover" transform="matrix(1.375,0,0,1.375,23,-24.75)">
  <rect y="18" width="16" height="16" opacity=".001"/>
  <path d="m13.818 26a5.8182 5.8182 0 0 1-5.8182 5.8182 5.8182 5.8182 0 0 1-5.8182-5.8182 5.8182 5.8182 0 0 1 5.8182-5.8182 5.8182 5.8182 0 0 1 5.8182 5.8182z" fill="#333333" stroke-width=".83117"/>
  <path transform="matrix(.72727 0 0 .72727 0 18)" d="m10 7v3h-3v2h3v3h2v-3h3v-2h-3v-3z" fill="#ffffff"/>
 </g>
 <g id="open-hover" transform="matrix(1.375,0,0,1.375,23,-24.75)">
  <rect y="50" width="16" height="16" opacity=".001"/>
  <path d="m13.818 58a5.8182 5.8182 0 0 1-5.8182 5.8182 5.8182 5.8182 0 0 1-5.8182-5.8182 5.8182 5.8182 0 0 1 5.8182-5.8182 5.8182 5.8182 0 0 1 5.8182 5.8182z" fill="#333333" stroke-width=".83117"/>
  <path d="m8 55.818 2.9091 3.6364h-5.8182l1.4545-1.8182z" fill="#ffffff" stroke-width=".66452"/>
 </g>
 <g id="remove-pressed" transform="matrix(1.375,0,0,1.375,48,-24.75)">
  <rect y="34" width="16" height="16" opacity=".001"/>
  <path d="m13.818 42a5.8182 5.8182 0 0 1-5.8182 5.8182 5.8182 5.8182 0 0 1-5.8182-5.8182 5.8182 5.8182 0 0 1 5.8182-5.8182 5.8182 5.8182 0 0 1 5.8182 5.8182z" fill="#4285f4" stroke-width=".83117"/>
  <rect transform="rotate(90)" x="41.273" y="-10.909" width="1.4545" height="5.8182" fill="#ffffff" stroke-width=".72727"/>
 </g>
 <g id="add-pressed" transform="matrix(1.375,0,0,1.375,48,-24.75)">
  <rect y="18" width="16" height="16" opacity=".001"/>
  <path d="m13.818 26a5.8182 5.8182 0 0 1-5.8182 5.8182 5.8182 5.8182 0 0 1-5.8182-5.8182 5.8182 5.8182 0 0 1 5.8182-5.8182 5.8182 5.8182 0 0 1 5.8182 5.8182z" fill="#4285f4" stroke-width=".83117"/>
  <path transform="matrix(.72727 0 0 .72727 0 18)" d="m10 7v3h-3v2h3v3h2v-3h3v-2h-3v-3z" fill="#ffffff"/>
 </g>
 <g id="open-pressed" transform="matrix(1.375,0,0,1.375,48,-24.75)">
  <rect y="50" width="16" height="16" opacity=".001"/>
  <path d="m13.818 58a5.8182 5.8182 0 0 1-5.8182 5.8182 5.8182 5.8182 0 0 1-5.8182-5.8182 5.8182 5.8182 0 0 1 5.8182-5.8182 5.8182 5.8182 0 0 1 5.8182 5.8182z" fill="#4285f4" stroke-width=".83117"/>
  <path d="m8 55.818 2.9091 3.6364h-5.8182l1.4545-1.8182z" fill="#ffffff" stroke-width=".66452"/>
 </g>
</svg>
