<svg width="34" height="16" version="1.1" viewBox="0 0 34 16" xmlns="http://www.w3.org/2000/svg" xmlns:osb="http://www.openswatchbook.org/uri/2009/osb" xmlns:xlink="http://www.w3.org/1999/xlink">
 <defs>
  <style id="current-color-scheme" type="text/css">.ColorScheme-Text {
        color:#31363b;
        stop-color:#31363b;
      }
      .ColorScheme-Background {
        color:#eff0f1;
        stop-color:#eff0f1;
      }
      .ColorScheme-Highlight {
        color:#3daee9;
        stop-color:#3daee9;
      }
      .ColorScheme-ViewText {
        color:#31363b;
        stop-color:#31363b;
      }
      .ColorScheme-ViewBackground {
        color:#fcfcfc;
        stop-color:#fcfcfc;
      }
      .ColorScheme-ViewHover {
        color:#93cee9;
        stop-color:#93cee9;
      }
      .ColorScheme-ViewFocus{
        color:#3daee9;
        stop-color:#3daee9;
      }
      .ColorScheme-ButtonText {
        color:#31363b;
        stop-color:#31363b;
      }
      .ColorScheme-ButtonBackground {
        color:#eff0f1;
        stop-color:#eff0f1;
      }
      .ColorScheme-ButtonHover {
        color:#93cee9;
        stop-color:#93cee9;
      }
      .ColorScheme-ButtonFocus{
        color:#3daee9;
        stop-color:#3daee9;
      }</style>
  <linearGradient id="ay" x1="18" x2="32" y1="38.362" y2="38.362" gradientUnits="userSpaceOnUse" xlink:href="#hightlight"/>
  <linearGradient id="hightlight" osb:paint="solid">
   <stop stop-color="#5887fc" offset="0"/>
  </linearGradient>
  <linearGradient id="be" x1="24" x2="24" y1="45.362" y2="32.253" gradientTransform="matrix(1 0 0 .99168 0 .3776)" gradientUnits="userSpaceOnUse" xlink:href="#dark_checked_bg"/>
  <linearGradient id="dark_checked_bg" osb:paint="gradient">
   <stop stop-color="#3458c0" offset="0"/>
   <stop stop-color="#3d67e3" offset="1"/>
  </linearGradient>
  <linearGradient id="av" x1="51.611" x2="80.996" y1="141.02" y2="141.02" gradientTransform="matrix(.47644 0 0 .48411 -23.59 -60.272)" gradientUnits="userSpaceOnUse" xlink:href="#hightlight"/>
  <linearGradient id="bg" x1="51.611" x2="80.996" y1="141.02" y2="141.02" gradientTransform="matrix(.47644 0 0 .44953 -23.59 -54.895)" gradientUnits="userSpaceOnUse" xlink:href="#dark_checked_bg"/>
  <linearGradient id="linearGradient1015" x1="51.611" x2="80.996" y1="141.02" y2="141.02" gradientTransform="matrix(.51027 0 0 .51849 -25.834 -65.12)" gradientUnits="userSpaceOnUse" xlink:href="#hightlight"/>
  <linearGradient id="linearGradient1017" x1="51.611" x2="80.996" y1="141.02" y2="141.02" gradientTransform="matrix(.51047 0 0 .5014 -25.846 -62.46)" gradientUnits="userSpaceOnUse" xlink:href="#dark_checked_bg"/>
  <linearGradient id="linearGradient1019" x1="18" x2="32" y1="38.362" y2="38.362" gradientTransform="matrix(1.0714 0 0 1.0714 -1.7857 -2.7401)" gradientUnits="userSpaceOnUse" xlink:href="#hightlight"/>
  <linearGradient id="linearGradient1021" x1="24" x2="24" y1="45.362" y2="32.253" gradientTransform="matrix(1.0714 0 0 1.1061 -1.7857 -4.3129)" gradientUnits="userSpaceOnUse" xlink:href="#dark_checked_bg"/>
  <linearGradient id="linearGradient1077" x1="18" x2="32" y1="38.362" y2="38.362" gradientTransform="translate(10,-59.362)" gradientUnits="userSpaceOnUse" xlink:href="#hightlight"/>
  <linearGradient id="linearGradient1079" x1="24" x2="24" y1="45.362" y2="32.253" gradientTransform="matrix(1 0 0 .99168 10 -58.984)" gradientUnits="userSpaceOnUse" xlink:href="#dark_checked_bg"/>
 </defs>
 <g id="16-16-checkbox" transform="translate(-19 -.36202)">
  <g transform="translate(19)">
   <g transform="translate(0,-30)">
    <g transform="matrix(.92952 0 0 .92914 -156.75 -212.96)"></g>
    <rect x="17" y="30.362" width="16" height="16" color="#000000" fill="none"/>
    <rect x="17" y="30.362" width="16" height="16" rx="4" ry="4" color="#000000" opacity=".12" style="paint-order:fill markers stroke"/>
    <rect x="18" y="31.362" width="14" height="14" rx="3" ry="3" color="#000000" fill="url(#ay)" style="paint-order:fill markers stroke"/>
    <rect x="18" y="32.362" width="14" height="13" rx="3" ry="3" color="#000000" fill="url(#be)" style="paint-order:fill markers stroke"/>
   </g>
  </g>
  <g transform="translate(36,-1036)">
   <g transform="rotate(45,7.5,1026.4)">
    <g transform="translate(12.374,11.531)">
     <g transform="translate(-3,-5)">
      <path d="m11.8 1028.1c-0.18075 0.1808-0.29278 0.4301-0.29278 0.7071v4.9996h-2.0896c-0.504 0-0.91012 0.4445-0.91012 0.9985-7.1e-6 0.554 0.40613 1.0013 0.91012 1.0014h3.0895l0.09111 1e-4c0.504 0 0.90875-0.4459 0.90874-0.9999v-5.9994c0-0.554-0.44587-0.9999-0.99992-0.9999-0.277 0-0.52636 0.112-0.70711 0.2928z" fill="#000000" opacity=".15"/>
      <path transform="rotate(-45,1304,694.22)" d="m154.16 15.881c-0.25562 0-0.51116 0.0971-0.70703 0.29297l-3.5352 3.5352-1.4785-1.4766c-0.35638-0.35638-0.95788-0.32923-1.3496 0.0625-0.39174 0.39173-0.42083 0.99519-0.0645 1.3516l2.1856 2.1836 0.0644 0.06445c0.35638 0.35638 0.95788 0.32728 1.3496-0.06445l4.2422-4.2422c0.39174-0.39174 0.39174-1.0223 0-1.4141-0.19587-0.19587-0.45141-0.29297-0.70703-0.29297z" fill="#ffffff"/>
     </g>
     <rect transform="translate(0,1036.4)" x="5" y="-8" width="3" height="1" fill-opacity="0"/>
    </g>
   </g>
  </g>
 </g>
 <g id="16-16-radiobutton" transform="translate(-.00053868 -.0017842)">
  <rect x=".00049767" y=".0018166" width="16" height="16" color="#000000" fill="none" stroke-width=".93592"/>
  <g transform="translate(.00060812 .001628)">
   <rect x="-.00013811" y=".00015619" width="16" height="16" rx="7.9998" ry="7.9999" color="#000000" opacity=".12" stroke-width=".48026"/>
   <rect x=".99896" y=".99727" width="14" height="14" rx="6.9998" ry="7.0002" color="#000000" fill="url(#av)" stroke-width="0"/>
   <rect x=".99896" y="1.9994" width="14" height="13" rx="6.9998" ry="6.5002" color="#000000" fill="url(#bg)" stroke-width="0"/>
   <rect x="6.0023" y="6.6633" width="4" height="4" rx="1.9989" ry="2" color="#000000" fill="#000000" opacity=".15"/>
   <rect x="6.0023" y="6.0015" width="4" height="4" rx="1.9989" ry="2" color="#000000" fill="#ffffff"/>
  </g>
 </g>
 <g id="checkbox" transform="matrix(2 0 0 2 -43 -76.724)">
  <g transform="translate(19)">
   <g transform="translate(0,-30)">
    <g transform="matrix(.92952 0 0 .92914 -156.75 -212.96)"></g>
    <rect x="17" y="30.362" width="16" height="16" color="#000000" fill="none"/>
    <rect x="17" y="30.362" width="16" height="16" rx="3" ry="3" color="#000000" opacity=".12" style="paint-order:fill markers stroke"/>
    <rect x="17.5" y="30.862" width="15" height="15" rx="2.5" ry="2.5" color="#000000" fill="url(#linearGradient1019)" stroke-width="1.0714" style="paint-order:fill markers stroke"/>
    <rect x="17.5" y="31.362" width="15" height="14.5" rx="2.5" ry="2.5" color="#000000" fill="url(#linearGradient1021)" stroke-width="1.0932" style="paint-order:fill markers stroke"/>
   </g>
  </g>
  <g transform="translate(36,-1036)">
   <g transform="rotate(45,7.5,1026.4)">
    <g transform="translate(12.374,11.531)">
     <g transform="translate(-3,-5)">
      <path d="m11.8 1028.1c-0.18075 0.1808-0.29278 0.4301-0.29278 0.7071v4.9996h-2.0896c-0.504 0-0.91012 0.4445-0.91012 0.9985-7.1e-6 0.554 0.40613 1.0013 0.91012 1.0014h3.0895l0.09111 1e-4c0.504 0 0.90875-0.4459 0.90874-0.9999v-5.9994c0-0.554-0.44587-0.9999-0.99992-0.9999-0.277 0-0.52636 0.112-0.70711 0.2928z" fill="#000000" opacity=".15"/>
      <path transform="rotate(-45,1304,694.22)" d="m154.16 15.881c-0.25562 0-0.51116 0.0971-0.70703 0.29297l-3.5352 3.5352-1.4785-1.4766c-0.35638-0.35638-0.95788-0.32923-1.3496 0.0625-0.39174 0.39173-0.42083 0.99519-0.0645 1.3516l2.1856 2.1836 0.0644 0.06445c0.35638 0.35638 0.95788 0.32728 1.3496-0.06445l4.2422-4.2422c0.39174-0.39174 0.39174-1.0223 0-1.4141-0.19587-0.19587-0.45141-0.29297-0.70703-0.29297z" fill="#ffffff"/>
     </g>
     <rect transform="translate(0,1036.4)" x="5" y="-8" width="3" height="1" fill-opacity="0"/>
    </g>
   </g>
  </g>
 </g>
 <g id="radiobutton" transform="matrix(2 0 0 2 -15.001 -76.004)">
  <rect x=".00049767" y=".0018166" width="16" height="16" color="#000000" fill="none" stroke-width=".93592"/>
  <g transform="translate(.00060812 .001628)">
   <rect x="-.00013811" y=".00015619" width="16" height="16" rx="7.9998" ry="7.9999" color="#000000" opacity=".12" stroke-width=".48026"/>
   <rect x=".50184" y=".50015" width="14.994" height="14.994" rx="7.4969" ry="7.4974" color="#000000" fill="url(#linearGradient1015)" stroke-width="0"/>
   <rect x=".49987" y="1.0001" width="15" height="14.5" rx="7.4998" ry="7.2502" color="#000000" fill="url(#linearGradient1017)" stroke-width="0"/>
   <rect x="6.0023" y="6.5001" width="4" height="4" rx="1.9989" ry="2" color="#000000" fill="#000000" opacity=".15"/>
   <rect x="6.0023" y="6.0015" width="4" height="4" rx="1.9989" ry="2" color="#000000" fill="#ffffff"/>
  </g>
 </g>
 <g id="22-22-checkbox" transform="translate(-7.0788)">
  <rect x="27" y="-29" width="22" height="22" color="#000000" fill="none" stroke-width="1.375"/>
  <g transform="translate(3,3)">
   <rect x="27" y="-29" width="16" height="16" rx="4" ry="4" color="#000000" opacity=".12" style="paint-order:fill markers stroke"/>
   <rect x="28" y="-28" width="14" height="14" rx="3" ry="3" color="#000000" fill="url(#linearGradient1077)" style="paint-order:fill markers stroke"/>
   <rect x="28" y="-27" width="14" height="13" rx="3" ry="3" color="#000000" fill="url(#linearGradient1079)" style="paint-order:fill markers stroke"/>
   <path d="m38.321-23.446c-0.25566 3.5e-5 -0.51116 0.0971-0.70702 0.29296l-3.5353 3.5353-1.4776-1.4776c-0.35638-0.35638-0.95786-0.32925-1.3496 0.0625-0.39174 0.39173-0.42085 0.99521-0.06455 1.3516l2.1846 2.1846 0.06435 0.0645c0.35638 0.35638 0.95788 0.32728 1.3496-0.06446l4.2422-4.2422c0.39174-0.39174 0.39176-1.0223-1.4e-5 -1.4141-0.19587-0.19587-0.45139-0.29299-0.70704-0.29296z" fill="#000000" opacity=".15"/>
   <path d="m38.321-24.177c-0.25562 0-0.51116 0.0971-0.70703 0.29297l-3.5352 3.5352-1.4785-1.4766c-0.35638-0.35638-0.95788-0.32923-1.3496 0.0625-0.39174 0.39173-0.42083 0.99519-0.0645 1.3516l2.1856 2.1836 0.0644 0.06445c0.35638 0.35638 0.95788 0.32728 1.3496-0.06445l4.2422-4.2422c0.39174-0.39174 0.39174-1.0223 0-1.4141-0.19587-0.19587-0.45141-0.29297-0.70703-0.29297z" fill="#ffffff"/>
  </g>
 </g>
 <g id="22-22-radiobutton" transform="translate(-7.0788)">
  <rect x="-.0023692" y="-30.001" width="22" height="22" color="#000000" fill="none" stroke-width="1.2869"/>
  <g transform="translate(2.9977 -27.001)">
   <rect x="-.00013811" y=".00015619" width="16" height="16" rx="7.9998" ry="7.9999" color="#000000" opacity=".12" stroke-width=".48026"/>
   <rect x=".99896" y=".99727" width="14" height="14" rx="6.9998" ry="7.0002" color="#000000" fill="url(#av)" stroke-width="0"/>
   <rect x=".99896" y="1.9994" width="14" height="13" rx="6.9998" ry="6.5002" color="#000000" fill="url(#bg)" stroke-width="0"/>
   <rect x="6.0023" y="6.6633" width="4" height="4" rx="1.9989" ry="2" color="#000000" fill="#000000" opacity=".15"/>
   <rect x="6.0023" y="6.0015" width="4" height="4" rx="1.9989" ry="2" color="#000000" fill="#ffffff"/>
  </g>
 </g>
</svg>
