<?xml version="1.0" encoding="UTF-8" standalone="no"?>
<!-- Created with Inkscape (http://www.inkscape.org/) -->

<svg
   id="svg2"
   sodipodi:version="0.32"
   inkscape:version="1.4 (e7c3feb100, 2024-10-09)"
   width="200"
   height="160"
   sodipodi:docname="lineedit.svg"
   inkscape:output_extension="org.inkscape.output.svgz.inkscape"
   inkscape:export-filename="/home/pinheiro/Documents/pics/estilo/plasma/wether.png"
   inkscape:export-xdpi="90"
   inkscape:export-ydpi="90"
   version="1.0"
   xmlns:inkscape="http://www.inkscape.org/namespaces/inkscape"
   xmlns:sodipodi="http://sodipodi.sourceforge.net/DTD/sodipodi-0.dtd"
   xmlns:xlink="http://www.w3.org/1999/xlink"
   xmlns="http://www.w3.org/2000/svg"
   xmlns:svg="http://www.w3.org/2000/svg">
  <sodipodi:namedview
     inkscape:window-height="960"
     inkscape:window-width="1920"
     inkscape:pageshadow="2"
     inkscape:pageopacity="1"
     guidetolerance="10.0"
     gridtolerance="10.0"
     objecttolerance="10.0"
     borderopacity="1.0"
     bordercolor="#666666"
     pagecolor="#474747"
     id="base"
     inkscape:zoom="2.0624999"
     inkscape:cx="28.121213"
     inkscape:cy="9.9393944"
     inkscape:window-x="0"
     inkscape:window-y="0"
     inkscape:current-layer="svg2"
     showgrid="true"
     showguides="true"
     inkscape:guide-bbox="true"
     inkscape:snap-guide="false"
     inkscape:snap-bbox="true"
     inkscape:object-paths="true"
     inkscape:bbox-nodes="true"
     inkscape:snap-global="true"
     inkscape:object-nodes="true"
     inkscape:window-maximized="1"
     inkscape:snap-bbox-edge-midpoints="true"
     inkscape:snap-nodes="false"
     inkscape:showpageshadow="2"
     inkscape:pagecheckerboard="0"
     inkscape:deskcolor="#d1d1d1">
    <inkscape:grid
       type="xygrid"
       id="grid5592"
       visible="true"
       enabled="true"
       empspacing="5"
       snapvisiblegridlinesonly="true"
       color="#8d8dff"
       opacity="0.0470588"
       empcolor="#ffffff"
       empopacity="0.09411765"
       originx="0"
       originy="0"
       spacingy="1"
       spacingx="1"
       units="px" />
  </sodipodi:namedview>
  <defs
     id="defs5">
    <style
       id="current-color-scheme"
       type="text/css">      .ColorScheme-Text {
        color:#31363b;
      }
      .ColorScheme-Background{
        color:#eff0f1;
      }
      .ColorScheme-ViewText {
        color:#31363b;
      }
      .ColorScheme-ViewBackground{
        color:#fcfcfc;
      }
      .ColorScheme-ViewHover {
        color:#3daee9;
      }
      .ColorScheme-ViewFocus{
        color:#3daee9;
      }
      .ColorScheme-ButtonText {
        color:#31363b;
      }
      .ColorScheme-ButtonBackground{
        color:#eff0f1;
      }
      .ColorScheme-ButtonHover {
        color:#3daee9;
      }
      .ColorScheme-ButtonFocus{
        color:#3daee9;
      }</style>
  </defs>
  <rect
     ry="2.077126"
     rx="0"
     y="5"
     x="1.9670682"
     height="2.077126"
     width="2.0329318"
     id="hint-tile-center"
     style="opacity:1;fill:#4e9a06;fill-opacity:1;fill-rule:nonzero;stroke:none;stroke-width:6;stroke-linecap:round;stroke-linejoin:round;stroke-miterlimit:4;stroke-dasharray:none;stroke-dashoffset:0;stroke-opacity:1" />
  <rect
     width="2.0329318"
     height="2.077126"
     rx="0"
     ry="2.077126"
     x="1.9670681"
     y="11"
     id="hint-focus-over-base"
     style="opacity:0.99;fill:#4e9a06;fill-opacity:1;fill-rule:nonzero;stroke:none" />
  <path
     d="m 31.000022,90.100028 v 35.999922 h 48 V 90.100028 Z"
     id="hover-center"
     style="fill:#ffffff;opacity:0.01" />
  <g
     transform="translate(-160.14001,-740.86004)"
     id="hover-topleft"
     style="opacity:1">
    <path
       d="m 190.14,824.86 c -2.77,0 -5,2.23 -5,5 h 5 z"
       id="path5201"
       style="fill:#ffffff;opacity:0.01" />
    <path
       inkscape:connector-curvature="0"
       style="color:#3daee6;opacity:1;fill:none;stroke-width:1.5"
       d="m 109,65 c -3.324,0 -6,2.676 -6,6 h 2 c 0,-2.216 1.784,-4 4,-4 z"
       transform="translate(81.139996,758.86)"
       id="path2151" />
    <path
       inkscape:connector-curvature="0"
       style="color:#3daee6;opacity:1;fill:#8ab4f8;fill-opacity:1;stroke-width:1.25"
       d="m 109,66 c -2.77,0 -5,2.23 -5,5 h 2 c 0,-1.662 1.338,-3 3,-3 z"
       transform="translate(81.139996,758.86)"
       id="path10-91" />
  </g>
  <g
     transform="matrix(0.3664122,0,0,0.99999999,-38.669597,-740.86)"
     id="hover-top"
     style="opacity:1">
    <path
       id="path13-26"
       d="m 190.14,825.86 v 4 h 131 v -4 z"
       style="fill:#ffffff;opacity:0.01" />
    <path
       class="ColorScheme-Highlight"
       d="M 190.14,823.85997 V 825.86 h 131 v -2.00003 z"
       id="path2149"
       inkscape:connector-curvature="0"
       style="color:#3daee6;opacity:1;fill:none;stroke-width:0.707112" />
    <path
       style="color:#3daee6;opacity:1;fill:#8ab4f8;fill-opacity:1;stroke-width:0.707112"
       inkscape:connector-curvature="0"
       id="path4403"
       d="m 190.14,824.85994 v 2.00003 h 131 v -2.00003 z"
       class="ColorScheme-Highlight" />
  </g>
  <use
     x="0"
     y="0"
     xlink:href="#hover-topleft"
     id="hover-topright"
     transform="matrix(-1,0,0,1,109.99998,0)"
     width="100%"
     height="100%" />
  <use
     x="0"
     y="0"
     xlink:href="#hover-top"
     id="hover-left"
     transform="matrix(0,-0.74999998,1,0,-58.999985,149.34996)"
     width="100%"
     height="100%" />
  <use
     x="0"
     y="0"
     xlink:href="#hover-top"
     id="hover-right"
     transform="matrix(0,0.74999992,-1,0,168.99997,66.849941)"
     width="100%"
     height="100%" />
  <use
     x="0"
     y="0"
     xlink:href="#hover-top"
     id="hover-bottom"
     transform="matrix(1,0,0,-1,-2.4e-5,216.09994)"
     width="100%"
     height="100%" />
  <use
     x="0"
     y="0"
     xlink:href="#hover-topleft"
     id="hover-bottomleft"
     transform="matrix(1,0,0,-1,-4e-6,216.09991)"
     width="100%"
     height="100%" />
  <use
     x="0"
     y="0"
     xlink:href="#hover-topleft"
     id="hover-bottomright"
     transform="rotate(180,54.999992,108.04994)"
     width="100%"
     height="100%" />
  <path
     d="m 107.00003,90.000026 v 35.999924 h 48 V 90.000026 Z"
     id="focus-center"
     style="fill:#ffffff;opacity:0.01" />
  <g
     transform="translate(-84.140006,-740.86004)"
     id="focus-topleft"
     style="opacity:1">
    <path
       d="m 190.14,824.86 c -2.77,0 -5,2.23 -5,5 h 5 z"
       id="path5201-5"
       style="fill:#ffffff;opacity:0.01" />
    <path
       inkscape:connector-curvature="0"
       style="color:#3daee6;opacity:1;fill:none;stroke-width:1.5"
       d="m 109,65 c -3.324,0 -6,2.676 -6,6 h 2 c 0,-2.216 1.784,-4 4,-4 z"
       transform="translate(81.139996,758.86)"
       id="path2151-9" />
    <path
       inkscape:connector-curvature="0"
       style="color:#3daee6;opacity:1;fill:#1a73e8;fill-opacity:1;stroke-width:1.25"
       d="m 109,66 c -2.77,0 -5,2.23 -5,5 h 2 c 0,-1.662 1.338,-3 3,-3 z"
       transform="translate(81.139996,758.86)"
       id="path10-91-4" />
  </g>
  <g
     transform="matrix(0.3664122,0,0,0.99999999,37.330394,-740.86)"
     id="focus-top"
     style="opacity:1">
    <path
       id="path13-26-7"
       d="m 190.14,825.86 v 4 h 131 v -4 z"
       style="fill:#ffffff;opacity:0.01" />
    <path
       class="ColorScheme-Highlight"
       d="M 190.14,823.85997 V 825.86 h 131 v -2.00003 z"
       id="path2149-6"
       inkscape:connector-curvature="0"
       style="color:#3daee6;opacity:1;fill:none;stroke-width:0.707112" />
    <path
       style="color:#3daee6;opacity:1;fill:#1a73e8;fill-opacity:1;stroke-width:0.707112"
       inkscape:connector-curvature="0"
       id="path4403-5"
       d="m 190.14,824.85994 v 2.00003 h 131 v -2.00003 z"
       class="ColorScheme-Highlight" />
  </g>
  <g
     style="opacity:1"
     id="focus-topright"
     transform="matrix(-0.99999999,0,0,0.99999999,346.13999,-740.86005)">
    <path
       id="path1691"
       d="m 190.14,824.86 c -2.77,0 -5,2.23 -5,5 h 5 z"
       style="fill:#ffffff;opacity:0.01" />
    <path
       id="path1693"
       transform="translate(81.139996,758.86)"
       d="m 109,65 c -3.324,0 -6,2.676 -6,6 h 2 c 0,-2.216 1.784,-4 4,-4 z"
       style="color:#3daee6;opacity:1;fill:none;stroke-width:1.5"
       inkscape:connector-curvature="0" />
    <path
       id="path1695"
       transform="translate(81.139996,758.86)"
       d="m 109,66 c -2.77,0 -5,2.23 -5,5 h 2 c 0,-1.662 1.338,-3 3,-3 z"
       style="color:#3daee6;opacity:1;fill:#1a73e8;fill-opacity:1;stroke-width:1.25"
       inkscape:connector-curvature="0" />
  </g>
  <g
     style="opacity:1"
     id="focus-left"
     transform="matrix(0,-0.27480905,0.99999999,0,-723.85998,178.25213)">
    <path
       d="m 190.14,825.86 v 4 h 131 v -4 z"
       id="path1675"
       style="fill:#ffffff;opacity:0.01" />
    <path
       style="color:#3daee6;opacity:1;fill:none;stroke-width:0.707112"
       inkscape:connector-curvature="0"
       id="path1677"
       d="M 190.14,823.85997 V 825.86 h 131 v -2.00003 z"
       class="ColorScheme-Highlight" />
    <path
       class="ColorScheme-Highlight"
       d="m 190.14,824.85994 v 2.00003 h 131 v -2.00003 z"
       id="path1679"
       inkscape:connector-curvature="0"
       style="color:#3daee6;opacity:1;fill:#1a73e8;fill-opacity:1;stroke-width:0.707112" />
  </g>
  <g
     style="opacity:1"
     id="focus-right"
     transform="matrix(0,0.27480899,-0.99999999,0,985.85989,37.747778)">
    <path
       d="m 190.14,825.86 v 4 h 131 v -4 z"
       id="path1683"
       style="fill:#ffffff;opacity:0.01" />
    <path
       style="color:#3daee6;opacity:1;fill:none;stroke-width:0.707112"
       inkscape:connector-curvature="0"
       id="path1685"
       d="M 190.14,823.85997 V 825.86 h 131 v -2.00003 z"
       class="ColorScheme-Highlight" />
    <path
       class="ColorScheme-Highlight"
       d="m 190.14,824.85994 v 2.00003 h 131 v -2.00003 z"
       id="path1687"
       inkscape:connector-curvature="0"
       style="color:#3daee6;opacity:1;fill:#1a73e8;fill-opacity:1;stroke-width:0.707112" />
  </g>
  <g
     style="opacity:1"
     id="focus-bottom"
     transform="matrix(0.3664122,0,0,-0.99999999,37.330374,956.85991)">
    <path
       d="m 190.14,825.86 v 4 h 131 v -4 z"
       id="path1657"
       style="fill:#ffffff;opacity:0.01" />
    <path
       style="color:#3daee6;opacity:1;fill:none;stroke-width:0.707112"
       inkscape:connector-curvature="0"
       id="path1659"
       d="M 190.14,823.85997 V 825.86 h 131 v -2.00003 z"
       class="ColorScheme-Highlight" />
    <path
       class="ColorScheme-Highlight"
       d="m 190.14,824.85994 v 2.00003 h 131 v -2.00003 z"
       id="path1661"
       inkscape:connector-curvature="0"
       style="color:#3daee6;opacity:1;fill:#1a73e8;fill-opacity:1;stroke-width:0.707112" />
  </g>
  <g
     style="opacity:1"
     id="focus-bottomleft"
     transform="matrix(0.99999999,0,0,-0.99999999,-84.140006,956.85991)">
    <path
       id="path1665"
       d="m 190.14,824.86 c -2.77,0 -5,2.23 -5,5 h 5 z"
       style="fill:#ffffff;opacity:0.01" />
    <path
       id="path1667"
       transform="translate(81.139996,758.86)"
       d="m 109,65 c -3.324,0 -6,2.676 -6,6 h 2 c 0,-2.216 1.784,-4 4,-4 z"
       style="color:#3daee6;opacity:1;fill:none;stroke-width:1.5"
       inkscape:connector-curvature="0" />
    <path
       id="path1669"
       transform="translate(81.139996,758.86)"
       d="m 109,66 c -2.77,0 -5,2.23 -5,5 h 2 c 0,-1.662 1.338,-3 3,-3 z"
       style="color:#3daee6;opacity:1;fill:#1a73e8;fill-opacity:1;stroke-width:1.25"
       inkscape:connector-curvature="0" />
  </g>
  <g
     style="opacity:1"
     id="focus-bottomright"
     transform="rotate(180,173.07,478.42995)">
    <path
       id="path1647"
       d="m 190.14,824.86 c -2.77,0 -5,2.23 -5,5 h 5 z"
       style="fill:#ffffff;opacity:0.01" />
    <path
       id="path1649"
       transform="translate(81.139996,758.86)"
       d="m 109,65 c -3.324,0 -6,2.676 -6,6 h 2 c 0,-2.216 1.784,-4 4,-4 z"
       style="color:#3daee6;opacity:1;fill:none;stroke-width:1.5"
       inkscape:connector-curvature="0" />
    <path
       id="path1651"
       transform="translate(81.139996,758.86)"
       d="m 109,66 c -2.77,0 -5,2.23 -5,5 h 2 c 0,-1.662 1.338,-3 3,-3 z"
       style="color:#3daee6;opacity:1;fill:#1a73e8;fill-opacity:1;stroke-width:1.25"
       inkscape:connector-curvature="0" />
  </g>
  <path
     d="M 31,20 V 56 H 79 V 20 Z"
     id="base-center"
     style="fill:#ffffff;opacity:0.06" />
  <g
     id="base-top">
    <path
       id="path13-26-0"
       d="m 31,14 v 5 h 48 v -5 z"
       style="opacity:0.06;fill:#ffffff;stroke-width:0.60532" />
    <path
       id="path4"
       d="m 31,13 v 6 h 48 v -6 z"
       style="fill:none" />
  </g>
  <rect
     style="fill:#9a06ff;stroke-width:0.316228"
     height="0.1"
     width="2"
     y="82.899956"
     x="129.99998"
     id="hover-hint-top-margin" />
  <rect
     style="fill:#9a06ff;stroke-width:0.223607"
     height="0.1"
     width="2"
     y="162.99998"
     x="-108.99996"
     transform="rotate(-90)"
     id="hover-hint-right-margin" />
  <rect
     style="fill:#9a06ff;stroke-width:0.223607"
     height="0.1"
     width="2"
     y="99.999992"
     x="-109.99996"
     transform="rotate(-90)"
     id="hover-hint-left-margin" />
  <rect
     style="fill:#9a06ff;stroke-width:0.182574"
     id="hover-hint-bottom-margin"
     x="129.99998"
     y="132.89996"
     width="2"
     height="0.1" />
  <rect
     style="fill:#9a06ff;stroke-width:0.316228"
     height="0.1"
     width="1.9999999"
     y="82.899956"
     x="53.999992"
     id="focus-hint-top-margin" />
  <rect
     style="fill:#9a06ff;stroke-width:0.223607"
     height="0.1"
     width="1.9999999"
     y="85.999992"
     x="-110.09995"
     transform="rotate(-90)"
     id="focus-hint-right-margin" />
  <rect
     style="fill:#9a06ff;stroke-width:0.223607"
     height="0.1"
     width="1.9999999"
     y="23.99999"
     x="-110.09995"
     transform="rotate(-90)"
     id="focus-hint-left-margin" />
  <rect
     style="fill:#9a06ff;stroke-width:0.182574"
     id="focus-hint-bottom-margin"
     x="53.999992"
     y="132.99997"
     width="2"
     height="0.1" />
  <rect
     style="fill:#4e9a06;fill-opacity:1;fill-rule:nonzero;stroke:none"
     id="base-hint-top-margin"
     width="2"
     height="6.0000038"
     x="54.999992"
     y="12.999955" />
  <use
     x="0"
     y="0"
     xlink:href="#base-top"
     id="base-left"
     transform="matrix(0,-0.75,1,0,11,79.25)" />
  <rect
     y="36.999954"
     x="23.99999"
     height="1.9999999"
     width="6"
     id="base-hint-left-margin"
     style="fill:#4e9a06;fill-opacity:1;fill-rule:nonzero;stroke:none" />
  <use
     x="0"
     y="0"
     xlink:href="#base-top"
     id="base-right"
     transform="matrix(0,-0.75,-1,0,99,79.25)" />
  <rect
     style="fill:#4e9a06;fill-opacity:1;fill-rule:nonzero;stroke:none"
     id="base-hint-right-margin"
     width="5.9999914"
     height="2"
     x="79.999992"
     y="36.999954" />
  <use
     x="0"
     y="0"
     xlink:href="#base-top"
     id="base-bottom"
     transform="matrix(1,0,0,-1,0,76)" />
  <rect
     y="56.999954"
     x="54.999992"
     height="6.0000062"
     width="2"
     id="base-hint-bottom-margin"
     style="fill:#4e9a06;fill-opacity:1;fill-rule:nonzero;stroke:none" />
  <g
     id="base-topleft">
    <path
       d="m 30,13.99996 c -2.77002,0 -5.00004,2.23002 -5.00004,5.00004 H 30 Z"
       id="path5201-0"
       style="opacity:0.06;fill:#ffffff" />
    <rect
       id="rect1"
       width="6"
       height="6"
       x="24"
       y="13"
       style="fill:none" />
  </g>
  <use
     x="0"
     y="0"
     xlink:href="#base-topleft"
     id="base-topright"
     transform="rotate(90,55,44)" />
  <use
     x="0"
     y="0"
     xlink:href="#base-topleft"
     id="base-bottomright"
     transform="rotate(180,55,38)" />
  <use
     x="0"
     y="0"
     xlink:href="#base-topleft"
     id="base-bottomleft"
     transform="rotate(-90,49,38)" />
</svg>
