<?xml version="1.0" encoding="UTF-8"?>
<svg width="220" height="212" version="1.0" xmlns="http://www.w3.org/2000/svg" xmlns:cc="http://creativecommons.org/ns#" xmlns:dc="http://purl.org/dc/elements/1.1/" xmlns:rdf="http://www.w3.org/1999/02/22-rdf-syntax-ns#" xmlns:xlink="http://www.w3.org/1999/xlink">
 <metadata>
  <rdf:RDF>
   <cc:Work rdf:about="">
    <dc:format>image/svg+xml</dc:format>
    <dc:type rdf:resource="http://purl.org/dc/dcmitype/StillImage"/>
    <dc:title/>
   </cc:Work>
  </rdf:RDF>
 </metadata>
 <defs>
  <style id="current-color-scheme" type="text/css">.ColorScheme-Text {
        color:#31363b;
        stop-color:#31363b;
      }
      .ColorScheme-Background {
        color:#eff0f1;
        stop-color:#eff0f1;
      }
      .ColorScheme-Highlight {
        color:#3daee9;
        stop-color:#3daee9;
      }
      .ColorScheme-ViewText {
        color:#31363b;
        stop-color:#31363b;
      }
      .ColorScheme-ViewBackground {
        color:#fcfcfc;
        stop-color:#fcfcfc;
      }
      .ColorScheme-ViewHover {
        color:#93cee9;
        stop-color:#93cee9;
      }
      .ColorScheme-ViewFocus{
        color:#3daee9;
        stop-color:#3daee9;
      }
      .ColorScheme-ButtonText {
        color:#31363b;
        stop-color:#31363b;
      }
      .ColorScheme-ButtonBackground {
        color:#eff0f1;
        stop-color:#eff0f1;
      }
      .ColorScheme-ButtonHover {
        color:#93cee9;
        stop-color:#93cee9;
      }
      .ColorScheme-ButtonFocus{
        color:#3daee9;
        stop-color:#3daee9;
      }</style>
 </defs>
 <path id="hover-center" class="ColorScheme-Highlight" d="m97 62v22h22v-22z" color="#3daee6" opacity=".2" stroke-width=".45833"/>
 <g id="hover-topleft" transform="translate(-94.14 -768.86)">
  <path d="m190.14 824.86c-2.77 0-5 2.23-5 5h5z" color="#3daee6" opacity=".2" stroke-width="1.25"/>
  <path transform="translate(81.14 758.86)" d="m109 65c-3.324 0-6 2.676-6 6h2c0-2.216 1.784-4 4-4z" color="#3daee6" fill="none" stroke-width="1.5"/>
  <path transform="translate(81.14 758.86)" d="m109 66c-2.77 0-5 2.23-5 5h2c0-1.662 1.338-3 3-3z" color="#3daee6" opacity="0" stroke-width="1.25"/>
 </g>
 <g id="hover-top" transform="matrix(.16794 0 0 1 65.068 -768.86)">
  <path class="ColorScheme-Highlight" d="m190.14 824.86v5h131v-5z" color="#3daee6" opacity=".2" stroke-width="1.118"/>
  <path class="ColorScheme-Highlight" d="m190.14 823.86v2h131v-2z" color="#3daee6" fill="none" stroke-width=".70711"/>
  <path class="ColorScheme-Highlight" d="m190.14 824.86v2h131v-2z" color="#3daee6" opacity="0" stroke-width=".70711"/>
 </g>
 <use id="hover-topright" transform="matrix(-1 0 0 1 216 3.86e-8)" width="100%" height="100%" xlink:href="#hover-topleft"/>
 <g id="hover-left" transform="matrix(0 -.16794 1 0 -733.86 115.93)">
  <path class="ColorScheme-Highlight" d="m190.14 824.86v5h131v-5z" color="#3daee6" opacity=".2" stroke-width="1.118"/>
  <path class="ColorScheme-Highlight" d="m190.14 823.86v2h131v-2z" color="#3daee6" fill="none" stroke-width=".70711"/>
  <path class="ColorScheme-Highlight" d="m190.14 824.86v2h131v-2z" color="#3daee6" opacity="0" stroke-width=".70711"/>
 </g>
 <g id="hover-right" transform="matrix(0 .16794 -1 0 949.86 30.068)">
  <path class="ColorScheme-Highlight" d="m190.14 824.86v5h131v-5z" color="#3daee6" opacity=".2" stroke-width="1.118"/>
  <path class="ColorScheme-Highlight" d="m190.14 823.86v2h131v-2z" color="#3daee6" fill="none" stroke-width=".70711"/>
  <path class="ColorScheme-Highlight" d="m190.14 824.86v2h131v-2z" color="#3daee6" opacity="0" stroke-width=".70711"/>
 </g>
 <g id="hover-bottom" transform="matrix(.16794 0 0 -1 65.068 914.86)">
  <path class="ColorScheme-Highlight" d="m190.14 824.86v5h131v-5z" color="#3daee6" opacity=".2" stroke-width="1.118"/>
  <path class="ColorScheme-Highlight" d="m190.14 823.86v2h131v-2z" color="#3daee6" fill="none" stroke-width=".70711"/>
  <path class="ColorScheme-Highlight" d="m190.14 824.86v2h131v-2z" color="#3daee6" opacity="0" stroke-width=".70711"/>
 </g>
 <use id="hover-bottomleft" transform="matrix(1 0 0 -1 3e-7 146)" width="100%" height="100%" xlink:href="#hover-topleft"/>
 <use id="hover-bottomright" transform="rotate(180 108 73)" width="100%" height="100%" xlink:href="#hover-topleft"/>
 <g fill="#9a06ff">
  <rect id="hover-hint-top-margin" x="108" y="56" width="2" height=".1" stroke-width=".31623"/>
  <rect id="hover-hint-right-margin" transform="rotate(-90)" x="-74" y="124.9" width="2" height=".1" stroke-width=".22361"/>
  <rect id="hover-hint-left-margin" transform="rotate(-90)" x="-73" y="91" width="2" height=".1" stroke-width=".22361"/>
  <rect id="hover-hint-bottom-margin" x="108" y="89.9" width="2" height=".1" stroke-width=".18257"/>
 </g>
 <path id="normal-center" class="ColorScheme-Highlight" d="m97 17v22h22v-22z" color="#3daee6" opacity=".15" stroke-width=".45833"/>
 <g id="normal-topleft" transform="translate(-94.14 -813.86)">
  <path transform="translate(81.14 758.86)" d="m109 65c-3.324 0-6 2.676-6 6h2c0-2.216 1.784-4 4-4z" color="#3daee6" fill="none" stroke-width="1.5"/>
  <path d="m190.14 824.86c-2.77 0-5 2.23-5 5h5z" color="#3daee6" opacity=".15" stroke-width="1.25"/>
 </g>
 <g id="normal-top" transform="matrix(.16794 0 0 1 65.068 -813.86)">
  <path class="ColorScheme-Highlight" d="m190.14 824.86v5h131v-5z" color="#3daee6" opacity=".15" stroke-width="1.118"/>
  <path class="ColorScheme-Highlight" d="m190.14 823.86v2h131v-2z" color="#3daee6" fill="none" stroke-width=".70711"/>
 </g>
 <g id="normal-topright" transform="matrix(-1 0 0 1 310.14 -813.86)">
  <path transform="translate(81.14 758.86)" d="m109 65c-3.324 0-6 2.676-6 6h2c0-2.216 1.784-4 4-4z" color="#3daee6" fill="none" stroke-width="1.5"/>
  <path d="m190.14 824.86c-2.77 0-5 2.23-5 5h5z" color="#3daee6" opacity=".15" stroke-width="1.25"/>
 </g>
 <g id="normal-left" transform="matrix(0 -.16794 1 0 -733.86 70.932)">
  <path class="ColorScheme-Highlight" d="m190.14 824.86v5h131v-5z" color="#3daee6" opacity=".15" stroke-width="1.118"/>
  <path class="ColorScheme-Highlight" d="m190.14 823.86v2h131v-2z" color="#3daee6" fill="none" stroke-width=".70711"/>
 </g>
 <g id="normal-right" transform="matrix(0 .16794 -1 0 949.86 -14.932)">
  <path class="ColorScheme-Highlight" d="m190.14 824.86v5h131v-5z" color="#3daee6" opacity=".15" stroke-width="1.118"/>
  <path class="ColorScheme-Highlight" d="m190.14 823.86v2h131v-2z" color="#3daee6" fill="none" stroke-width=".70711"/>
 </g>
 <g id="normal-bottom" transform="matrix(.16794 0 0 -1 65.068 869.86)">
  <path class="ColorScheme-Highlight" d="m190.14 824.86v5.0001h131v-5.0001z" color="#3daee6" opacity=".15" stroke-width="1.118"/>
  <path class="ColorScheme-Highlight" d="m190.14 823.86v2h131v-2z" color="#3daee6" fill="none" stroke-width=".70711"/>
 </g>
 <g id="normal-bottomleft" transform="matrix(1 0 0 -1 -94.14 869.86)">
  <path transform="translate(81.14 758.86)" d="m109 65c-3.324 0-6 2.676-6 6h2c0-2.216 1.784-4 4-4z" color="#3daee6" fill="none" stroke-width="1.5"/>
  <path d="m190.14 824.86c-2.77 0-5 2.23-5 5h5z" color="#3daee6" opacity=".15" stroke-width="1.25"/>
 </g>
 <g id="normal-bottomright" transform="rotate(180 155.07 434.93)">
  <path transform="translate(81.14 758.86)" d="m109 65c-3.324 0-6 2.676-6 6h2c0-2.216 1.784-4 4-4z" color="#3daee6" fill="none" stroke-width="1.5"/>
  <path d="m190.14 824.86c-2.77 0-5.0001 2.23-5.0001 5.0001h5.0001z" color="#3daee6" opacity=".15" stroke-width="1.25"/>
 </g>
 <path id="pressed-center" class="ColorScheme-Highlight" d="m97 153v22h22v-22z" color="#3daee6" fill="#4285f4" stroke-width=".45833"/>
 <g id="pressed-topleft" transform="translate(-94.14 -677.86)">
  <path transform="translate(81.14 758.86)" d="m109 65c-3.324 0-6 2.676-6 6h2c0-2.216 1.784-4 4-4z" color="#3daee6" fill="none" stroke-width="1.5"/>
  <path d="m190.14 824.86c-2.77 0-5 2.23-5 5h5z" color="#3daee6" fill="#4285f4" stroke-width="1.25"/>
 </g>
 <g id="pressed-top" transform="matrix(.16794 0 0 1 65.068 -677.86)">
  <path class="ColorScheme-Highlight" d="m190.14 824.86v5h131v-5z" color="#3daee6" fill="#4285f4" stroke-width="1.118"/>
  <path class="ColorScheme-Highlight" d="m190.14 823.86v2h131v-2z" color="#3daee6" fill="none" stroke-width=".70711"/>
 </g>
 <g id="pressed-topright" transform="matrix(-1 0 0 1 310.14 -677.86)">
  <path transform="translate(81.14 758.86)" d="m109 65c-3.324 0-6 2.676-6 6h2c0-2.216 1.784-4 4-4z" color="#3daee6" fill="none" stroke-width="1.5"/>
  <path d="m190.14 824.86c-2.77 0-5 2.23-5 5h5z" color="#3daee6" fill="#4285f4" stroke-width="1.25"/>
 </g>
 <g id="pressed-left" transform="matrix(0 -.16794 1 0 -733.86 206.93)">
  <path class="ColorScheme-Highlight" d="m190.14 824.86v5h131v-5z" color="#3daee6" fill="#4285f4" stroke-width="1.118"/>
  <path class="ColorScheme-Highlight" d="m190.14 823.86v2h131v-2z" color="#3daee6" fill="none" stroke-width=".70711"/>
 </g>
 <g id="pressed-right" transform="matrix(0 .16794 -1 0 949.86 121.07)">
  <path class="ColorScheme-Highlight" d="m190.14 824.86v5.0001h131v-5.0001z" color="#3daee6" fill="#4285f4" stroke-width="1.118"/>
  <path class="ColorScheme-Highlight" d="m190.14 823.86v2h131v-2z" color="#3daee6" fill="none" stroke-width=".70711"/>
 </g>
 <g id="pressed-bottom" transform="matrix(.16794 0 0 -1 65.068 1005.9)">
  <path class="ColorScheme-Highlight" d="m190.14 824.86v5.0001h131v-5.0001z" color="#3daee6" fill="#4285f4" stroke-width="1.118"/>
  <path class="ColorScheme-Highlight" d="m190.14 823.86v2h131v-2z" color="#3daee6" fill="none" stroke-width=".70711"/>
 </g>
 <g id="pressed-bottomleft" transform="matrix(1 0 0 -1 -94.14 1005.9)">
  <path transform="translate(81.14 758.86)" d="m109 65c-3.324 0-6 2.676-6 6h2c0-2.216 1.784-4 4-4z" color="#3daee6" fill="none" stroke-width="1.5"/>
  <path d="m190.14 824.86c-2.77 0-5 2.23-5 5.0001h5z" color="#3daee6" fill="#4285f4" stroke-width="1.25"/>
 </g>
 <g id="pressed-bottomright" transform="rotate(180 155.07 502.93)">
  <path transform="translate(81.14 758.86)" d="m109 65c-3.324 0-6 2.676-6 6h2c0-2.216 1.784-4 4-4z" color="#3daee6" fill="none" stroke-width="1.5"/>
  <path d="m190.14 824.86c-2.77 0-5 2.23-5 5.0001h5z" color="#3daee6" fill="#4285f4" stroke-width="1.25"/>
 </g>
 <path id="focus-center" class="ColorScheme-Highlight" d="m97 107v22h22v-22z" color="#3daee6" fill="#4285f4" opacity=".75" stroke-width=".45833"/>
 <g id="focus-topleft" transform="translate(-94.14 -723.86)">
  <path d="m190.14 824.86c-2.77 0-5 2.23-5 5h5z" color="#3daee6" fill="#4285f4" opacity=".75" stroke-width="1.25"/>
  <path transform="translate(81.14 758.86)" d="m109 65c-3.324 0-6 2.676-6 6h2c0-2.216 1.784-4 4-4z" color="#3daee6" fill="none" stroke-width="1.5"/>
 </g>
 <g id="focus-top" transform="matrix(.16794 0 0 1 65.068 -723.86)">
  <path class="ColorScheme-Highlight" d="m190.14 824.86v5h131v-5z" color="#3daee6" fill="#4285f4" opacity=".75" stroke-width="1.118"/>
  <path class="ColorScheme-Highlight" d="m190.14 823.86v2h131v-2z" color="#3daee6" fill="none" stroke-width=".70711"/>
 </g>
 <g id="focus-topright" transform="matrix(-1 0 0 1 310.14 -723.86)">
  <path d="m190.14 824.86c-2.77 0-5 2.23-5 5h5z" color="#3daee6" fill="#4285f4" opacity=".75" stroke-width="1.25"/>
  <path transform="translate(81.14 758.86)" d="m109 65c-3.324 0-6 2.676-6 6h2c0-2.216 1.784-4 4-4z" color="#3daee6" fill="none" stroke-width="1.5"/>
 </g>
 <g id="focus-left" transform="matrix(0 -.16794 1 0 -733.86 160.93)">
  <path class="ColorScheme-Highlight" d="m190.14 824.86v5h131v-5z" color="#3daee6" fill="#4285f4" opacity=".75" stroke-width="1.118"/>
  <path class="ColorScheme-Highlight" d="m190.14 823.86v2h131v-2z" color="#3daee6" fill="none" stroke-width=".70711"/>
 </g>
 <g id="focus-right" transform="matrix(0 .16794 -1 0 949.86 75.068)">
  <path class="ColorScheme-Highlight" d="m190.14 824.86v5.0001h131v-5.0001z" color="#3daee6" fill="#4285f4" opacity=".75" stroke-width="1.118"/>
  <path class="ColorScheme-Highlight" d="m190.14 823.86v2h131v-2z" color="#3daee6" fill="none" stroke-width=".70711"/>
 </g>
 <g id="focus-bottom" transform="matrix(.16794 0 0 -1 65.068 959.86)">
  <path class="ColorScheme-Highlight" d="m190.14 824.86v5.0001h131v-5.0001z" color="#3daee6" fill="#4285f4" opacity=".75" stroke-width="1.118"/>
  <path class="ColorScheme-Highlight" d="m190.14 823.86v2h131v-2z" color="#3daee6" fill="none" stroke-width=".70711"/>
 </g>
 <g id="focus-bottomleft" transform="matrix(1 0 0 -1 -94.14 959.86)">
  <path d="m190.14 824.86c-2.77 0-5.0001 2.23-5.0001 5.0001h5.0001z" color="#3daee6" fill="#4285f4" opacity=".75" stroke-width="1.25"/>
  <path transform="translate(81.14 758.86)" d="m109 65c-3.324 0-6 2.676-6 6h2c0-2.216 1.784-4 4-4z" color="#3daee6" fill="none" stroke-width="1.5"/>
 </g>
 <g id="focus-bottomright" transform="rotate(180 155.07 479.93)">
  <path d="m190.14 824.86c-2.77 0-5.0001 2.23-5.0001 5.0001h5.0001z" color="#3daee6" fill="#4285f4" opacity=".75" stroke-width="1.25"/>
  <path transform="translate(81.14 758.86)" d="m109 65c-3.324 0-6 2.676-6 6h2c0-2.216 1.784-4 4-4z" color="#3daee6" fill="none" stroke-width="1.5"/>
 </g>
 <g fill="#9a06ff">
  <rect id="focus-hint-top-margin" x="107" y="100" width="2" height="1"/>
  <rect id="focus-hint-right-margin" transform="rotate(-90)" x="-119" y="125" width="2" height="1" stroke-width=".70711"/>
  <rect id="focus-hint-left-margin" transform="rotate(-90)" x="-119" y="90" width="2" height="1" stroke-width=".70711"/>
  <rect id="focus-hint-bottom-margin" x="107" y="135" width="2" height="1" stroke-width=".57735"/>
 </g>
 <g id="toolbutton-hover-right" transform="matrix(-1 0 0 .6875 225 48.25)" stroke-width="1.118">
  <path transform="matrix(-1.25 0 0 1 503.5 73)" d="m362-53v32h4v-32h-2z" fill="#fff" opacity=".2" stroke-width="1"/>
 </g>
 <g id="toolbutton-hover-bottomright" transform="matrix(1 0 0 1 145 -951.36)" stroke-width="1.25">
  <g transform="matrix(-1 0 0 1 34 983.36)" stroke-width="1.25">
   <path transform="matrix(-1.25 0 0 1.25 457.5 78)" d="m362-20v4c2.216 0 4-1.784 4-4h-2z" fill="#fff" opacity=".2" stroke-width="1"/>
  </g>
 </g>
 <g id="toolbutton-hover-left" transform="matrix(1 0 0 .6875 99 48.25)" stroke-width="1.118">
  <path transform="matrix(1.25 0 0 1 -359 73)" d="m324-53v32h4v-32h-2z" fill="#fff" opacity=".2" stroke-width="1"/>
 </g>
 <g id="toolbutton-hover-bottom" transform="matrix(.6875 0 0 .71349 147.56 -661.57)" fill="#565656" stroke-width="1.3236">
  <g transform="translate(-48,994.36)" stroke-width="1.3236">
   <path transform="matrix(1 0 0 1.752 -276 87.039)" d="m329-20v4h32v-4z" fill="#fff" opacity=".2" stroke-width=".99999"/>
  </g>
 </g>
 <g id="toolbutton-hover-bottomleft" transform="matrix(1.2 0 0 1.2 146.4 -1170.6)" stroke-width="1.25">
  <g transform="translate(-2,993.36)" stroke-width="1.25">
   <path d="m0.83334 53c0 2.3083 1.8583 4.1667 4.1667 4.1667v-4.1667h-2.0833z" fill="#fff" opacity=".2" stroke-width="1.0417"/>
  </g>
 </g>
 <g id="toolbutton-hover-top" transform="matrix(.6875 0 0 1 147.56 -949.36)" stroke-width="1.118">
  <g transform="translate(-48,988.36)" stroke-width="1.118">
   <path transform="matrix(1 0 0 1.25 -276 89.5)" d="m329-58v4h32v-4z" fill="#fff" opacity=".2" stroke-width="1"/>
  </g>
 </g>
 <g id="toolbutton-hover-topleft" transform="matrix(1.6667 0 0 1.6667 145 -1622.9)" stroke-width=".75001">
  <g transform="translate(-2,993.36)" stroke-width=".75001">
   <path transform="matrix(.75 0 0 .75 -241 57.5)" d="m328-58c-2.216 0-4 1.784-4 4h4v-2z" fill="#fff" opacity=".2" stroke-width="1"/>
  </g>
 </g>
 <g id="toolbutton-hover-topright" transform="matrix(1 0 0 1 135 -949.36)" stroke-width="1.25">
  <g transform="matrix(-1,0,0,1,44,993.36)" stroke-width="1.25">
   <path transform="matrix(-1.25 0 0 1.25 457.5 84.5)" d="m362-58v4h4c0-2.216-1.784-4-4-4z" fill="#fff" opacity=".2" stroke-width="1"/>
  </g>
 </g>
 <path id="toolbutton-hover-center" d="m173 84v-22h-22v22z" fill="#fff" opacity=".2" stroke-width=".6875"/>
 <g id="toolbutton-pressed-right" transform="matrix(-1 0 0 .6875 225 139.25)" stroke-width="1.118">
  <path transform="matrix(-1.25 0 0 1 572.25 73)" d="m417-53v32h4v-32h-2z" fill="#fff" opacity=".3" stroke-width="1"/>
 </g>
 <g id="toolbutton-pressed-bottomright" transform="matrix(1 0 0 1 135 -870.36)" stroke-width="1.25">
  <g transform="matrix(-1,0,0,1,44,993.36)" stroke-width="1.25">
   <path transform="matrix(-1.25 0 0 1.25 526.25 78)" d="m417-20v4c2.216 0 4-1.784 4-4h-2z" fill="#fff" opacity=".3" stroke-width="1"/>
  </g>
 </g>
 <g id="toolbutton-pressed-left" transform="matrix(1 0 0 .6875 99 139.25)" stroke-width="1.118">
  <path transform="matrix(1.25 0 0 1 -427.75 73)" d="m379-53v32h4v-32h-2z" fill="#fff" opacity=".3" stroke-width="1"/>
 </g>
 <g id="toolbutton-pressed-bottom" transform="matrix(.6875 0 0 .71349 147.56 -570.57)" fill="#565656" stroke-width="1.3236">
  <g transform="translate(-48,994.36)" stroke-width="1.3236">
   <path transform="matrix(1 0 0 1.752 -331 87.039)" d="m384-20v4h32v-4z" fill="#fff" opacity=".3" stroke-width=".99999"/>
  </g>
 </g>
 <g id="toolbutton-pressed-bottomleft" transform="matrix(1 0 0 1 147 -870.36)" stroke-width="1.25">
  <g transform="translate(-2,993.36)" stroke-width="1.25">
   <path transform="matrix(1.25 0 0 1.25 -473.75 78)" d="m379-20c0 2.216 1.784 4 4 4v-4h-2z" fill="#fff" opacity=".3" stroke-width="1"/>
  </g>
 </g>
 <g id="toolbutton-pressed-top" transform="matrix(.6875 0 0 .99998 147.56 -858.34)" stroke-width="1.118">
  <g transform="translate(-48,988.36)" stroke-width="1.118">
   <path transform="matrix(1 0 0 1.25 -331 89.5)" d="m384-58v4h32v-4z" fill="#fff" opacity=".3" stroke-width="1"/>
  </g>
 </g>
 <g id="toolbutton-pressed-topleft" transform="matrix(1.6667 0 0 1.6667 145 -1531.9)" stroke-width=".75001">
  <g transform="translate(-2,993.36)" stroke-width=".75001">
   <path transform="matrix(.75 0 0 .75 -282.25 57.5)" d="m383-58c-2.216 0-4 1.784-4 4h4v-2z" fill="#fff" opacity=".3" stroke-width="1"/>
  </g>
 </g>
 <g id="toolbutton-pressed-topright" transform="matrix(1 0 0 1 135 -858.36)" stroke-width="1.25">
  <g transform="matrix(-1,0,0,1,44,993.36)" stroke-width="1.25">
   <path transform="matrix(-1.25 0 0 1.25 526.25 84.5)" d="m417-58v4h4c0-2.216-1.784-4-4-4z" fill="#fff" opacity=".3" stroke-width="1"/>
  </g>
 </g>
 <path id="toolbutton-pressed-center" d="m173 175v-22h-22v22z" fill="#fff" opacity=".3" stroke-width=".6875"/>
 <g fill="#4e9a06">
  <rect id="normal-hint-bottom-margin" x="107" y="40" width="2" height="6.0001"/>
  <rect id="normal-hint-top-margin" x="107" y="10" width="2" height="6"/>
  <rect id="normal-hint-left-margin" transform="rotate(-90)" x="-29" y="90" width="2" height="6"/>
  <rect id="normal-hint-right-margin" transform="rotate(-90)" x="-29" y="120" width="2" height="6"/>
 </g>
 <g id="toolbutton-focus-right" transform="matrix(-1 0 0 .6875 225 93.25)" stroke-width="1.118">
  <path transform="matrix(-1.25 0 0 1 503.5 73)" d="m362-53v32h4v-32h-2z" fill="#fff" opacity=".2" stroke-width="1"/>
 </g>
 <g id="toolbutton-focus-bottomright" transform="matrix(1 0 0 1 135 -916.36)" stroke-width="1.25">
  <g transform="matrix(-1,0,0,1,44,993.36)" stroke-width="1.25">
   <path transform="matrix(-1.25 0 0 1.25 457.5 78)" d="m362-20v4c2.216 0 4-1.784 4-4h-2z" fill="#fff" opacity=".2" stroke-width="1"/>
  </g>
 </g>
 <g id="toolbutton-focus-left" transform="matrix(1 0 0 .6875 99 93.25)" stroke-width="1.118">
  <path transform="matrix(1.25 0 0 1 -359 73)" d="m324-53v32h4v-32h-2z" fill="#fff" opacity=".2" stroke-width="1"/>
 </g>
 <rect id="toolbutton-focus-hint-left-margin" transform="rotate(-90)" x="-119" y="145" width="2" height=".2" fill="#4e9a06"/>
 <g id="toolbutton-focus-bottom" transform="matrix(.6875 0 0 .71349 147.56 -616.57)" fill="#565656" stroke-width="1.3236">
  <g transform="translate(-48,994.36)" stroke-width="1.3236">
   <path transform="matrix(1 0 0 1.752 -276 87.039)" d="m329-20v4h32v-4z" fill="#fff" opacity=".2" stroke-width=".99999"/>
  </g>
 </g>
 <g id="toolbutton-focus-bottomleft" transform="matrix(1.2 0 0 1.2 146.4 -1125.6)" stroke-width="1.25">
  <g transform="translate(-2,993.36)" stroke-width="1.25">
   <path d="m0.83334 53c0 2.3083 1.8583 4.1667 4.1667 4.1667v-4.1667h-2.0833z" fill="#fff" opacity=".2" stroke-width="1.0417"/>
  </g>
 </g>
 <g id="toolbutton-focus-top" transform="matrix(.6875 0 0 1 147.56 -904.36)" stroke-width="1.118">
  <g transform="translate(-48,988.36)" stroke-width="1.118">
   <path transform="matrix(1 0 0 1.25 -276 89.5)" d="m329-58v4h32v-4z" fill="#fff" opacity=".2" stroke-width="1"/>
  </g>
 </g>
 <g id="toolbutton-focus-topleft" transform="matrix(1.6667 0 0 1.6667 145 -1577.9)" stroke-width=".75001">
  <g transform="translate(-2,993.36)" stroke-width=".75001">
   <path transform="matrix(.75 0 0 .75 -241 57.5)" d="m328-58c-2.216 0-4 1.784-4 4h4v-2z" fill="#fff" opacity=".2" stroke-width="1"/>
  </g>
 </g>
 <g id="toolbutton-focus-topright" transform="matrix(1 0 0 1 135 -904.36)" stroke-width="1.25">
  <g transform="matrix(-1,0,0,1,44,993.36)" stroke-width="1.25">
   <path transform="matrix(-1.25 0 0 1.25 457.5 84.5)" d="m362-58v4h4c0-2.216-1.784-4-4-4z" fill="#fff" opacity=".2" stroke-width="1"/>
  </g>
 </g>
 <path id="toolbutton-focus-center" d="m173 129v-22h-22v22z" fill="#fff" opacity=".2" stroke-width=".6875"/>
 <g fill="#4e9a06">
  <rect id="toolbutton-focus-hint-top-margin" x="161" y="101" width="2" height=".2"/>
  <rect id="toolbutton-focus-hint-right-margin" transform="rotate(-90)" x="-119" y="178" width="2" height=".2"/>
  <rect id="toolbutton-focus-hint-bottom-margin" x="161" y="134" width="2" height=".2"/>
 </g>
 <g fill="#f0f" fill-rule="evenodd">
  <rect id="toolbutton-hover-hint-top-margin" x="161" y="56" width="2" height="4"/>
  <rect id="toolbutton-hover-hint-bottom-margin" x="161" y="86" width="2" height="4"/>
  <rect id="toolbutton-hover-hint-right-margin" x="175" y="72" width="4" height="2"/>
  <rect id="toolbutton-hover-hint-left-margin" x="145" y="72" width="4" height="2"/>
  <path id="toolbutton-pressed-hint-top-margin" d="m161 147h2v4h-2z"/>
  <path id="toolbutton-pressed-hint-bottom-margin" d="m161 177h2v4h-2z"/>
  <path id="toolbutton-pressed-hint-left-margin" d="m145 163h4v2h-4z"/>
  <path id="toolbutton-pressed-hint-right-margin" d="m175 163h4v2h-4z"/>
 </g>
</svg>
