<?xml version="1.0" encoding="UTF-8" standalone="no"?>
<svg
   xmlns:dc="http://purl.org/dc/elements/1.1/"
   xmlns:cc="http://creativecommons.org/ns#"
   xmlns:rdf="http://www.w3.org/1999/02/22-rdf-syntax-ns#"
   xmlns:svg="http://www.w3.org/2000/svg"
   xmlns="http://www.w3.org/2000/svg"
   xmlns:xlink="http://www.w3.org/1999/xlink"
   xmlns:sodipodi="http://sodipodi.sourceforge.net/DTD/sodipodi-0.dtd"
   xmlns:inkscape="http://www.inkscape.org/namespaces/inkscape"
   width="1430"
   height="500"
   id="svg3642"
   sodipodi:version="0.32"
   inkscape:version="1.0 (4035a4fb49, 2020-05-01)"
   sodipodi:docname="decoration.svg"
   inkscape:output_extension="org.inkscape.output.svg.inkscape"
   version="1.0"
   inkscape:export-filename="/home/diau/svn/playground-plasma/desktoptheme/air/widgets/background.png"
   inkscape:export-xdpi="90"
   inkscape:export-ydpi="90">
  <sodipodi:namedview
     id="base"
     pagecolor="#cccccc"
     bordercolor="#666666"
     borderopacity="1.0"
     inkscape:pageopacity="1"
     inkscape:pageshadow="2"
     inkscape:zoom="0.5"
     inkscape:cx="626.06214"
     inkscape:cy="-35.464809"
     inkscape:current-layer="layer1"
     showgrid="true"
     inkscape:grid-bbox="true"
     inkscape:document-units="px"
     inkscape:window-width="1920"
     inkscape:window-height="1015"
     inkscape:window-x="0"
     inkscape:window-y="32"
     width="48px"
     height="48px"
     showguides="true"
     inkscape:guide-bbox="true"
     objecttolerance="9"
     gridtolerance="13"
     inkscape:window-maximized="1"
     inkscape:snap-global="true"
     inkscape:snap-bbox="true"
     inkscape:bbox-nodes="true"
     inkscape:bbox-paths="true"
     inkscape:snap-bbox-edge-midpoints="true"
     inkscape:snap-midpoints="true"
     inkscape:snap-smooth-nodes="true"
     inkscape:snap-intersection-paths="true"
     inkscape:object-paths="true"
     inkscape:snap-nodes="false"
     inkscape:document-rotation="0">
    <inkscape:grid
       type="xygrid"
       id="grid2555"
       enabled="true"
       visible="true"
       empspacing="5"
       snapvisiblegridlinesonly="true"
       color="#8f8fff"
       opacity="0.1254902"
       empcolor="#6decff"
       empopacity="0.25098039" />
  </sodipodi:namedview>
  <defs
     id="defs3644">
    <linearGradient
       id="shadow_active">
      <stop
         id="stop7028"
         offset="0"
         style="stop-color:#000000;stop-opacity:0.92168677;" />
      <stop
         id="stop7026"
         offset="0.125"
         style="stop-color:#000000;stop-opacity:0.74096388;" />
      <stop
         id="stop6834"
         offset="0.25"
         style="stop-color:#000000;stop-opacity:0.60240966;" />
      <stop
         id="stop6832"
         offset="0.5"
         style="stop-color:#000000;stop-opacity:0.33132529;" />
      <stop
         style="stop-color:#000000;stop-opacity:0.10843374;"
         offset="0.75"
         id="stop6836" />
      <stop
         id="stop6894"
         offset="0.875"
         style="stop-color:#000000;stop-opacity:0.03921569;" />
      <stop
         id="stop6721"
         offset="1"
         style="stop-color:#000000;stop-opacity:0;" />
    </linearGradient>
    <linearGradient
       inkscape:collect="always"
       xlink:href="#shadow_active"
       id="linearGradient5688"
       gradientUnits="userSpaceOnUse"
       gradientTransform="matrix(1,0,0,1.0117647,0,137.2353)"
       x1="398"
       y1="138.13953"
       x2="398"
       y2="221.16278" />
    <linearGradient
       inkscape:collect="always"
       xlink:href="#shadow_active"
       id="linearGradient6612"
       gradientUnits="userSpaceOnUse"
       gradientTransform="matrix(1,0,0,1.0285694,-215,50.00005)"
       x1="396"
       y1="64.166748"
       x2="396"
       y2="14.583314" />
    <linearGradient
       inkscape:collect="always"
       xlink:href="#shadow_inactive"
       id="linearGradient5688-2"
       gradientUnits="userSpaceOnUse"
       gradientTransform="matrix(1,0,0,1.0117647,0,137.15731)"
       x1="398"
       y1="138.13954"
       x2="398"
       y2="171.74419" />
    <linearGradient
       id="shadow_inactive">
      <stop
         style="stop-color:#000000;stop-opacity:1;"
         offset="0"
         id="stop6719-25" />
      <stop
         id="stop6834-1"
         offset="0.25"
         style="stop-color:#000000;stop-opacity:0.63855422;" />
      <stop
         id="stop6832-0"
         offset="0.5"
         style="stop-color:#000000;stop-opacity:0.33734939;" />
      <stop
         style="stop-color:#000000;stop-opacity:0.10843374;"
         offset="0.75"
         id="stop6836-0" />
      <stop
         id="stop6894-7"
         offset="0.875"
         style="stop-color:#000000;stop-opacity:0.03921569;" />
      <stop
         id="stop6721-4"
         offset="1"
         style="stop-color:#000000;stop-opacity:0;" />
    </linearGradient>
    <linearGradient
       inkscape:collect="always"
       xlink:href="#shadow_inactive"
       id="linearGradient6612-5"
       gradientUnits="userSpaceOnUse"
       gradientTransform="translate(200,5)"
       x1="396"
       y1="66"
       x2="396"
       y2="30" />
    <linearGradient
       inkscape:collect="always"
       xlink:href="#shadow_active"
       id="linearGradient1126"
       gradientUnits="userSpaceOnUse"
       gradientTransform="matrix(1.0133333,0,0,1,-3.2650058,140)"
       x1="348.49344"
       y1="99"
       x2="279.41449"
       y2="99" />
    <radialGradient
       inkscape:collect="always"
       xlink:href="#shadow_active"
       id="radialGradient1306"
       gradientUnits="userSpaceOnUse"
       gradientTransform="matrix(9.4919759e-7,-2.9142759,4.0000007,1.1504403e-6,-211.66707,980.01628)"
       cx="296.47726"
       cy="80.416679"
       fx="296.47726"
       fy="80.416679"
       r="17.5" />
    <linearGradient
       inkscape:collect="always"
       xlink:href="#shadow_inactive"
       id="linearGradient1389"
       gradientUnits="userSpaceOnUse"
       gradientTransform="matrix(1.0133333,0,0,1,-3.2650058,140)"
       x1="348.49344"
       y1="99.01548"
       x2="304.08554"
       y2="99.01548" />
    <radialGradient
       inkscape:collect="always"
       xlink:href="#shadow_active"
       id="radialGradient965"
       gradientUnits="userSpaceOnUse"
       gradientTransform="matrix(-4.0000019,3.2964352e-6,1.0208917e-6,-4.799999,303.08329,1053.8707)"
       cx="48.27084"
       cy="178.72313"
       fx="48.27084"
       fy="178.72313"
       r="17.5" />
    <radialGradient
       inkscape:collect="always"
       xlink:href="#shadow_inactive"
       id="radialGradient967"
       gradientUnits="userSpaceOnUse"
       gradientTransform="matrix(-2.5714291,8.7200345e-7,-2.0148289e-7,-1.9428564,594.12508,548.00068)"
       cx="48.270844"
       cy="181.17691"
       fx="48.270844"
       fy="181.17691"
       r="17.5" />
    <radialGradient
       inkscape:collect="always"
       xlink:href="#shadow_inactive"
       id="radialGradient969"
       gradientUnits="userSpaceOnUse"
       gradientTransform="matrix(-3.7607938e-7,-2.0571166,2.5714318,-5.1233137e-7,263.21413,725.83432)"
       cx="296.45123"
       cy="80.416672"
       fx="296.45123"
       fy="80.416672"
       r="17.5" />
    <linearGradient
       inkscape:collect="always"
       xlink:href="#shadow_active"
       id="linearGradient968"
       gradientUnits="userSpaceOnUse"
       gradientTransform="matrix(1.0133333,0,0,1,-3.2650058,140)"
       x1="348.49344"
       y1="99"
       x2="279.41449"
       y2="99" />
    <linearGradient
       inkscape:collect="always"
       xlink:href="#shadow_inactive"
       id="linearGradient1012"
       gradientUnits="userSpaceOnUse"
       gradientTransform="matrix(1.0133333,0,0,1,-3.2650058,140)"
       x1="348.49344"
       y1="99.01548"
       x2="304.08554"
       y2="99.01548" />
  </defs>
  <metadata
     id="metadata3647">
    <rdf:RDF>
      <cc:Work
         rdf:about="">
        <dc:format>image/svg+xml</dc:format>
        <dc:type
           rdf:resource="http://purl.org/dc/dcmitype/StillImage" />
        <dc:title></dc:title>
      </cc:Work>
      <cc:Work
         rdf:about="">
        <dc:format>image/svg+xml</dc:format>
        <dc:type
           rdf:resource="http://purl.org/dc/dcmitype/StillImage" />
      </cc:Work>
    </rdf:RDF>
  </metadata>
  <g
     id="layer1"
     inkscape:label="Layer 1"
     inkscape:groupmode="layer"
     transform="translate(0,-90)">
    <g
       id="decoration-inactive-topleft"
       inkscape:label="#decoration-inactive-topleft"
       transform="matrix(1.9999999,0,0,1.9999999,270,-240.12598)">
      <path
         id="rect6520-3-2-6"
         style="opacity:0.5;fill:url(#radialGradient969);fill-opacity:1;stroke:none"
         d="m 365,50 v 66 h 76 V 98 c 0,-6.648 5.352,-12 12,-12 h 17 V 50 Z"
         transform="translate(-140,115.063)" />
      <g
         inkscape:label="#g5343"
         id="6utrh-9">
        <g
           id="decoration-toplefthaerty-5"
           inkscape:label="#g5253"
           transform="translate(0,1)">
          <g
             inkscape:label="#g6458"
             transform="translate(-19,25)"
             id="49093u-9">
            <path
               id="rect5073-4-9-6"
               style="opacity:1;fill:#f5f5f5;fill-opacity:1;stroke:none;stroke-width:1"
               d="m 453,86 c -6.648,0 -12,5.352 -12,12 V 115.93555 116 h 29 V 86 Z"
               transform="translate(-121,89.063)" />
          </g>
        </g>
      </g>
      <path
         id="path202"
         style="opacity:0.08;fill:#000000;fill-opacity:1;stroke:none"
         d="m 453,79 c -7.202,0 -13,5.798 -13,13 v 18 h 1 V 92 c 0,-6.648 5.352,-12 12,-12 h 17 v -1 z"
         transform="translate(-140,121.063)" />
    </g>
    <g
       inkscape:label="#decoration-left"
       transform="matrix(-1.9999999,0,0,1.9999999,1199.7499,-171.99999)"
       id="decoration-right">
      <path
         sodipodi:nodetypes="ccccc"
         inkscape:connector-curvature="0"
         id="path960"
         d="m 244.875,197 v 86 h 76 v -86 z"
         style="opacity:0.5;fill:url(#linearGradient968);fill-opacity:1;stroke:none;stroke-width:1.00664" />
      <path
         id="path962"
         style="opacity:0.08;fill:#000000;fill-opacity:1;stroke:none"
         d="m 284,116 v 86 h 1 v -86 z"
         transform="matrix(-1,0,0,1,604.875,81)" />
      <path
         transform="translate(-255.125,76)"
         sodipodi:nodetypes="ccccc"
         inkscape:connector-curvature="0"
         id="path964"
         d="m 576,121 v 86 h 29 v -86 z"
         style="opacity:1;fill:#ffffff;fill-opacity:1;stroke:none" />
    </g>
    <g
       transform="translate(-1453.4451,-465.21909)"
       inkscape:label="layer1"
       style="display:none"
       id="g4418" />
    <g
       transform="matrix(1.9999999,0,0,1.9999999,-2916.8901,-1108.4381)"
       inkscape:label="glow"
       style="display:inline"
       id="layer2" />
    <g
       inkscape:label="layer1"
       style="display:none"
       id="g2424"
       transform="translate(975.61592,-1945.0985)" />
    <g
       inkscape:label="glow"
       style="display:inline"
       id="g2426"
       transform="matrix(1.9999999,0,0,1.9999999,1941.2317,-4068.1968)" />
    <g
       inkscape:label="Layer 1"
       id="g3429"
       transform="matrix(1.9999999,0,0,1.9999999,2033.1873,-2130.4715)" />
    <g
       inkscape:label="Layer 1"
       id="g19758"
       transform="matrix(1.9999999,0,0,1.9999999,5605.7681,-1363.5554)" />
    <g
       inkscape:label="Layer 1"
       id="g3935"
       transform="matrix(1.9999999,0,0,1.9999999,7815.4184,-3120.094)" />
    <g
       inkscape:label="Layer 1"
       id="g8459"
       transform="matrix(1.9999999,0,0,1.9999999,3019.6793,-3150.7884)" />
    <g
       inkscape:label="Layer 1"
       id="g28391"
       transform="matrix(1.9999999,0,0,1.9999999,318.04443,-493.56527)" />
    <g
       inkscape:label="Layer 1"
       id="g28393"
       transform="matrix(1.9999999,0,0,1.9999999,2527.6947,-2250.1039)" />
    <g
       inkscape:label="Layer 1"
       id="g28395"
       transform="matrix(1.9999999,0,0,1.9999999,-2268.0445,-2280.7983)" />
    <g
       inkscape:label="Layer 1"
       id="g6598"
       transform="matrix(1.9999999,0,0,1.9999999,4611.0442,-509.56527)" />
    <g
       inkscape:label="Layer 1"
       id="g6640"
       transform="matrix(1.9999999,0,0,1.9999999,6820.6945,-2266.1039)" />
    <g
       inkscape:label="Layer 1"
       id="g6716"
       transform="matrix(1.9999999,0,0,1.9999999,2024.9553,-2296.7983)" />
    <g
       id="g6850"
       transform="matrix(1.9999999,0,0,-1.9999999,-316.89013,412.34868)"
       style="opacity:0.459459" />
    <g
       id="g4240"
       style="display:none"
       inkscape:label="layer1"
       transform="translate(-1919.565,-153.36219)" />
    <g
       id="g4242"
       style="display:inline"
       inkscape:label="glow"
       transform="matrix(1.9999999,0,0,1.9999999,-3849.1298,-484.72435)" />
    <g
       transform="translate(509.49601,-1633.2416)"
       id="g4244"
       style="display:none"
       inkscape:label="layer1" />
    <g
       transform="matrix(1.9999999,0,0,1.9999999,1008.992,-3444.483)"
       id="g4246"
       style="display:inline"
       inkscape:label="glow" />
    <g
       transform="matrix(1.9999999,0,0,1.9999999,1100.9476,-1506.7577)"
       id="g4248"
       inkscape:label="Layer 1" />
    <g
       transform="matrix(1.9999999,0,0,1.9999999,4673.5284,-739.84162)"
       id="g4250"
       inkscape:label="Layer 1" />
    <g
       transform="matrix(1.9999999,0,0,1.9999999,6883.1787,-2496.3803)"
       id="g4252"
       inkscape:label="Layer 1" />
    <g
       transform="matrix(1.9999999,0,0,1.9999999,2087.4395,-2527.0747)"
       id="g4254"
       inkscape:label="Layer 1" />
    <g
       transform="matrix(1.9999999,0,0,1.9999999,-614.19532,130.1485)"
       id="g4256"
       inkscape:label="Layer 1" />
    <g
       transform="matrix(1.9999999,0,0,1.9999999,1595.4549,-1626.3901)"
       id="g4258"
       inkscape:label="Layer 1" />
    <g
       transform="matrix(1.9999999,0,0,1.9999999,-3200.2842,-1657.0845)"
       id="g4260"
       inkscape:label="Layer 1" />
    <g
       transform="matrix(1.9999999,0,0,1.9999999,3678.8044,114.1485)"
       id="g4262"
       inkscape:label="Layer 1" />
    <g
       transform="matrix(1.9999999,0,0,1.9999999,5888.4547,-1642.3901)"
       id="g4264"
       inkscape:label="Layer 1" />
    <g
       transform="matrix(1.9999999,0,0,1.9999999,1092.7156,-1673.0845)"
       id="g4266"
       inkscape:label="Layer 1" />
    <g
       style="opacity:0.459459"
       transform="matrix(1.9999999,0,0,-1.9999999,-1249.1299,1036.0625)"
       id="g4268" />
    <g
       id="decoration-bottom"
       transform="matrix(1.9999999,0,0,1.9999999,-439.99997,-159.99999)"
       inkscape:label="#decoration-bottom">
      <path
         style="opacity:0.5;fill:url(#linearGradient5688);fill-opacity:1;stroke:none;stroke-width:1.00587"
         d="m 325,289 v 86 h 145 v -86 z"
         id="path6217-8"
         inkscape:connector-curvature="0"
         sodipodi:nodetypes="ccccc" />
      <path
         id="path6214-7"
         d="M 470,289 H 325 v 1 h 145 z"
         style="opacity:0.08;fill:#000000;fill-opacity:1;stroke:none;stroke-width:0.413845"
         inkscape:connector-curvature="0" />
      <path
         id="path6211-7"
         d="M 470,277 H 325 v 12 h 145 z"
         style="opacity:0.6;fill:#f5f5f5;fill-opacity:1;stroke:none;stroke-width:1.41421"
         inkscape:connector-curvature="0" />
    </g>
    <path
       style="opacity:1;fill:#ffffff;fill-opacity:1;stroke:none;stroke-width:2"
       d="m 210,221.99999 v 172 h 289.99999 v -172 z"
       id="decoration-center"
       inkscape:connector-curvature="0"
       inkscape:label="#decoration-center" />
    <g
       id="decoration-top"
       transform="matrix(1.9999999,0,0,1.9999999,-439.99997,-189.99989)"
       inkscape:label="#decoration-top">
      <path
         id="path6055-5"
         style="opacity:0.5;fill:url(#linearGradient6612);fill-opacity:1;stroke:none;stroke-width:1.01418"
         d="M 110,50 V 86 H 255 V 50 Z"
         transform="translate(215,89.99995)" />
      <path
         id="path6098-4"
         style="opacity:0.08;fill:#000000;fill-opacity:1;stroke:none"
         d="m 110,85 v 1 h 145 v -1 z"
         transform="translate(215,89.99995)" />
      <path
         style="opacity:1;fill:#ffffff;fill-opacity:1;stroke:none;stroke-width:1"
         d="m 325,175.99994 v 30.00002 h 145 v -30.00002 z"
         id="path6092-3"
         inkscape:connector-curvature="0"
         sodipodi:nodetypes="ccccc" />
    </g>
    <g
       id="decoration-left"
       transform="matrix(1.9999999,0,0,1.9999999,-489.74997,-171.99999)"
       inkscape:label="#decoration-left">
      <path
         style="opacity:0.5;fill:url(#linearGradient1126);fill-opacity:1;stroke:none;stroke-width:1.00664"
         d="m 244.875,197 v 86 h 76 v -86 z"
         id="path6345-1"
         inkscape:connector-curvature="0"
         sodipodi:nodetypes="ccccc" />
      <path
         id="path6342-6"
         style="opacity:0.08;fill:#000000;fill-opacity:1;stroke:none"
         d="m 80,116 v 86 h 1 v -86 z"
         transform="translate(239.875,81)" />
      <path
         style="opacity:1;fill:#ffffff;fill-opacity:1;stroke:none"
         d="m 576,121 v 86 h 29 v -86 z"
         id="path6339-9"
         inkscape:connector-curvature="0"
         sodipodi:nodetypes="ccccc"
         transform="translate(-255.125,76)" />
    </g>
    <g
       id="decoration-inactive-bottom"
       transform="matrix(1.9999999,0,0,1.9999999,280,-159.84403)"
       inkscape:label="#decoration-inactive-bottom">
      <path
         style="opacity:0.5;fill:url(#linearGradient5688-2);fill-opacity:1;stroke:none;stroke-width:1.00587"
         d="m 325,288.92202 v 86 h 145 v -86 z"
         id="path6217-8-2"
         inkscape:connector-curvature="0"
         sodipodi:nodetypes="ccccc" />
      <path
         id="path6214-7-4"
         d="M 470,288.92202 H 325 v 1 h 145 z"
         style="opacity:0.08;fill:#000000;fill-opacity:1;stroke:none;stroke-width:0.392425"
         inkscape:connector-curvature="0" />
      <path
         id="path6211-7-5"
         d="M 470,276.92202 H 325 v 12 h 145 z"
         style="opacity:0.6;fill:#f5f5f5;fill-opacity:1;stroke:none;stroke-width:1.41421"
         inkscape:connector-curvature="0" />
    </g>
    <path
       style="opacity:1;fill:#f5f5f5;fill-opacity:1;stroke:none;stroke-width:2"
       d="m 929.99997,221.99999 v 172 h 289.99993 v -172 z"
       id="decoration-inactive-center"
       inkscape:connector-curvature="0"
       inkscape:label="#decoration-inactive-center" />
    <g
       id="decoration-inactive-top"
       transform="matrix(1.9999999,0,0,1.9999999,280,-189.99999)"
       inkscape:label="#decoration-inactive-top">
      <path
         style="opacity:0.5;fill:url(#linearGradient6612-5);fill-opacity:1;stroke:none"
         d="M 525,5 V 41 H 670 V 5 Z"
         transform="translate(-200,135)"
         id="path6055-5-5"
         inkscape:connector-curvature="0"
         sodipodi:nodetypes="ccccc" />
      <path
         transform="translate(-145,90)"
         d="m 470,85 v 1 h 145 v -1 z"
         style="opacity:0.08;fill:#000000;fill-opacity:1;stroke:none"
         id="path6098-4-8" />
      <path
         style="opacity:1;fill:#f5f5f5;fill-opacity:1;stroke:none;stroke-width:1"
         d="m 325,176 v 30 h 145 v -30 z"
         id="path6092-3-3"
         inkscape:connector-curvature="0"
         sodipodi:nodetypes="ccccc" />
    </g>
    <g
       id="decoration-inactive-left"
       transform="matrix(1.9999999,0,0,1.9999999,230.25,-172.03095)"
       inkscape:label="#decoration-inactive-left">
      <path
         style="opacity:0.5;fill:url(#linearGradient1389);fill-opacity:1;stroke:none;stroke-width:1.00664"
         d="m 244.875,197.01548 v 86 l 76,-0.0155 v -85.98452 z"
         id="path6345-1-1"
         inkscape:connector-curvature="0"
         sodipodi:nodetypes="ccccc" />
      <path
         id="path6342-6-6"
         d="m 319.875,197.01548 v 86 h 1 v -86 z"
         style="opacity:0.08;fill:#000000;fill-opacity:1;stroke:none;stroke-width:0.447214"
         inkscape:connector-curvature="0" />
      <path
         inkscape:connector-curvature="0"
         style="opacity:1;fill:#f5f5f5;fill-opacity:1;stroke:none"
         d="m 320.875,197.01548 v 86 h 29 v -86 z"
         id="path6339-9-9"
         sodipodi:nodetypes="ccccc" />
    </g>
    <g
       transform="matrix(1.9999999,0,0,1.9999999,-779.99995,-186.00002)"
       id="decoration-bottomleft"
       inkscape:label="#decoration-bottomleft">
      <path
         id="rect7023-1"
         style="opacity:0.6;fill:#f5f5f5;fill-opacity:1;stroke:none"
         d="m 81,196 c 0,6.648 5.352,12 12,12 h 17 v -12 z"
         transform="translate(385,94.000015)" />
      <g
         transform="matrix(1,0,0,0.99932111,165,-10.666582)"
         inkscape:label="#g5246"
         id="hrh-6">
        <path
           id="rect5099-9-5"
           style="opacity:0.5;fill:url(#radialGradient965);fill-opacity:1;stroke:none"
           d="m 5,196 v 98 H 110 V 208 H 93 c -6.648,0 -12,-5.352 -12,-12 z"
           transform="matrix(1,0,0,1.0006794,220,104.7377)" />
        <g
           id="decoration-bottomleft57547-54-5"
           transform="translate(-20,24)"
           inkscape:label="#g6297">
          <g
             id="g6659-3-3-0" />
        </g>
        <path
           id="path168"
           style="opacity:0.08;fill:#000000;fill-opacity:1;stroke:none"
           d="m 80,196 c 0,7.202 5.798,13 13,13 h 17 v -1 H 93 c -6.648,0 -12,-5.352 -12,-12 z"
           transform="matrix(1,0,0,1.0006794,220,104.7377)" />
      </g>
    </g>
    <g
       transform="matrix(1.9999999,0,0,1.9999999,-9.999997,-177.99999)"
       id="decoration-inactive-bottomleft">
      <path
         id="path4207"
         style="opacity:0.6;fill:#f5f5f5;fill-opacity:1;stroke:none;stroke-width:1.41421"
         d="m 441,196 c 0,6.648 5.352,12 12,12 h 14 3 v -12 z"
         transform="translate(0,90)"
         sodipodi:nodetypes="cscccc" />
      <g
         transform="matrix(1,0,0,0.99932111,140,-14.604092)"
         inkscape:label="#g5246"
         id="hrh-3">
        <path
           id="rect5099-9-6"
           style="opacity:0.5;fill:url(#radialGradient967);fill-opacity:1;stroke:none"
           d="m 365,196 v 98 h 105 v -86 h -3 -14 c -6.648,0 -12,-5.352 -12,-12 z"
           transform="matrix(1,0,0,1.0006794,-140,104.67515)"
           sodipodi:nodetypes="cccccscc" />
        <g
           id="decoration-bottomleft57547-54-2"
           transform="translate(-20,24)"
           inkscape:label="#g6297">
          <g
             id="g6659-3-3-4" />
        </g>
        <path
           id="path188"
           style="opacity:0.08;fill:#000000;fill-opacity:1;stroke:none"
           d="m 440,196 c 0,7.202 5.798,13 13,13 h 14 l 3,-1e-5 V 208 h -3 -14 c -6.648,0 -12,-5.352 -12,-12 z"
           transform="matrix(1,0,0,1.0006794,-140,104.67515)"
           sodipodi:nodetypes="csccccscc" />
      </g>
    </g>
    <rect
       style="opacity:1;fill:#ff00ff;fill-opacity:1;stroke:none;stroke-width:0.894428"
       id="shadow-hint-top-margin"
       width="7.9999995"
       height="71.999794"
       x="337.99997"
       y="90.000099" />
    <rect
       style="opacity:1;fill:#ff00ff;fill-opacity:1;stroke:none;stroke-width:2.36643"
       id="shadow-hint-bottom-margin"
       width="7.9999995"
       height="171.99992"
       x="339.99997"
       y="418.00003" />
    <rect
       style="opacity:1;fill:#ff00ff;fill-opacity:1;stroke:none;stroke-width:1.41421"
       id="shadow-hint-right-margin"
       width="152"
       height="7.9999995"
       x="558"
       y="282" />
    <rect
       style="opacity:1;fill:#ff00ff;fill-opacity:1;stroke:none;stroke-width:1.41421"
       id="shadow-hint-left-margin"
       width="152"
       height="7.9999995"
       x="2.7899475e-06"
       y="270" />
    <rect
       id="hint-top-margin"
       width="7.9999995"
       height="132"
       x="361.99997"
       y="90.000008"
       style="fill:#00ff29;fill-opacity:1;stroke:none;stroke-width:2.1693" />
    <rect
       id="hint-bottom-margin"
       width="7.9999995"
       height="195.99997"
       x="363.99997"
       y="394"
       style="fill:#00ff29;fill-opacity:1;stroke:none;stroke-width:2.23892" />
    <rect
       id="hint-right-margin"
       width="7.9999995"
       height="209.99998"
       x="260"
       y="-709.99994"
       transform="rotate(90)"
       style="fill:#00ff29;fill-opacity:1;stroke:none;stroke-width:2.1693" />
    <rect
       id="hint-left-margin"
       width="7.9999995"
       height="209.99998"
       x="254"
       y="-210"
       transform="rotate(90)"
       style="fill:#00ff29;fill-opacity:1;stroke:none;stroke-width:2.1706" />
    <g
       transform="matrix(-1.9999999,0,0,1.9999999,1059.9999,-240.12498)"
       inkscape:label="#decoration-topleft"
       id="decoration-topleft">
      <path
         id="path1019"
         style="opacity:0.5;fill:url(#radialGradient1306);fill-opacity:1;stroke:none"
         d="m 5,50 v 66 H 81 V 98 c 0,-6.648 5.352,-12 12,-12 h 17 V 50 Z"
         transform="matrix(-1,0,0,1,535,115.0625)" />
      <g
         transform="translate(250)"
         id="g1027"
         inkscape:label="#g6067">
        <g
           inkscape:label="#g6458-7"
           id="g1025"
           transform="matrix(-1,0,0,1,524,26)">
          <path
             id="path1023"
             style="opacity:1;fill:#ffffff;fill-opacity:1;stroke:none;stroke-width:1"
             d="m 93,86 c -6.648,0 -12,5.352 -12,12 v 18 h 29 V 86 Z"
             transform="translate(239,89.0625)" />
        </g>
      </g>
      <path
         id="path187"
         style="opacity:0.08;fill:#000000;fill-opacity:1;stroke:none"
         d="m 93,85 c -7.202,0 -13,5.798 -13,13 v 18 h 1 V 98 c 0,-6.648 5.352,-12 12,-12 h 17 v -1 z"
         transform="matrix(-1,0,0,1,535,115.0625)" />
    </g>
    <g
       inkscape:label="#decoration-inactive-left"
       transform="matrix(-1.9999999,0,0,1.9999999,1919.7499,-172.03095)"
       id="decoration-inactive-right">
      <path
         sodipodi:nodetypes="ccccc"
         inkscape:connector-curvature="0"
         id="path1004"
         d="m 244.875,197.01548 v 86 l 76,-0.0155 v -85.98452 z"
         style="opacity:0.5;fill:url(#linearGradient1012);fill-opacity:1;stroke:none;stroke-width:1.00664" />
      <path
         inkscape:connector-curvature="0"
         style="opacity:0.08;fill:#000000;fill-opacity:1;stroke:none;stroke-width:0.447214"
         d="m 319.875,197.01548 v 86 h 1 v -86 z"
         id="path1006" />
      <path
         id="path1008"
         d="m 320.875,197.01548 v 86 h 29 v -86 z"
         style="opacity:1;fill:#f5f5f5;fill-opacity:1;stroke:none"
         inkscape:connector-curvature="0"
         sodipodi:nodetypes="ccccc" />
    </g>
    <use
       x="0"
       y="0"
       xlink:href="#decoration-topleft"
       id="decoration-topright"
       transform="matrix(-1,0,0,1,709.99999,-1.0000008e-7)"
       width="100%"
       height="100%" />
    <use
       x="0"
       y="0"
       xlink:href="#decoration-inactive-topleft"
       id="decoration-inactive-topright"
       transform="matrix(-1,0,0,1,2149.9999,-1.0000002e-7)"
       width="100%"
       height="100%" />
    <use
       x="0"
       y="0"
       xlink:href="#decoration-bottomleft"
       id="decoration-bottomright"
       transform="matrix(-1,0,0,1,709.99999,-1.0000005e-7)"
       width="100%"
       height="100%" />
    <use
       x="0"
       y="0"
       xlink:href="#decoration-inactive-bottomleft"
       id="decoration-inactive-bottomright"
       transform="matrix(-1,0,0,1,2149.9999,-1.0000002e-7)"
       width="100%"
       height="100%" />
  </g>
</svg>
