<?xml version="1.0" encoding="UTF-8" standalone="no"?>
<svg
   inkscape:export-ydpi="90"
   inkscape:export-xdpi="90"
   inkscape:export-filename="/home/diau/svn/playground-plasma/desktoptheme/air/widgets/background.png"
   version="1.0"
   inkscape:output_extension="org.inkscape.output.svg.inkscape"
   sodipodi:docname="decoration.svg"
   inkscape:version="1.2.2 (b0a8486541, 2022-12-01)"
   sodipodi:version="0.32"
   id="svg3642"
   height="320"
   width="900"
   xmlns:inkscape="http://www.inkscape.org/namespaces/inkscape"
   xmlns:sodipodi="http://sodipodi.sourceforge.net/DTD/sodipodi-0.dtd"
   xmlns:xlink="http://www.w3.org/1999/xlink"
   xmlns="http://www.w3.org/2000/svg"
   xmlns:svg="http://www.w3.org/2000/svg"
   xmlns:rdf="http://www.w3.org/1999/02/22-rdf-syntax-ns#"
   xmlns:cc="http://creativecommons.org/ns#"
   xmlns:dc="http://purl.org/dc/elements/1.1/">
  <sodipodi:namedview
     inkscape:document-rotation="0"
     inkscape:snap-nodes="true"
     inkscape:object-paths="true"
     inkscape:snap-intersection-paths="true"
     inkscape:snap-smooth-nodes="true"
     inkscape:snap-midpoints="true"
     inkscape:snap-bbox-edge-midpoints="true"
     inkscape:bbox-paths="true"
     inkscape:bbox-nodes="true"
     inkscape:snap-bbox="true"
     inkscape:snap-global="true"
     inkscape:window-maximized="1"
     gridtolerance="13"
     objecttolerance="9"
     inkscape:guide-bbox="true"
     showguides="true"
     height="48px"
     width="48px"
     inkscape:window-y="44"
     inkscape:window-x="0"
     inkscape:window-height="1000"
     inkscape:window-width="1920"
     inkscape:document-units="px"
     inkscape:grid-bbox="true"
     showgrid="false"
     inkscape:current-layer="layer1"
     inkscape:cy="60"
     inkscape:cx="684"
     inkscape:zoom="0.5"
     inkscape:pageshadow="2"
     inkscape:pageopacity="1"
     borderopacity="1.0"
     bordercolor="#666666"
     pagecolor="#585858"
     id="base"
     inkscape:showpageshadow="2"
     inkscape:pagecheckerboard="0"
     inkscape:deskcolor="#585858">
    <inkscape:grid
       empopacity="0.25098039"
       empcolor="#6decff"
       opacity="0.1254902"
       color="#8f8fff"
       snapvisiblegridlinesonly="true"
       empspacing="5"
       visible="true"
       enabled="true"
       id="grid2555"
       type="xygrid" />
  </sodipodi:namedview>
  <defs
     id="defs3644">
    <radialGradient
       id="radialGradient967"
       cx="48.271"
       cy="181.17999"
       r="17.5"
       gradientTransform="matrix(-2.5714,8.726104e-7,-2.0148e-7,-1.94426,454.13,653.05495)"
       gradientUnits="userSpaceOnUse"
       xlink:href="#shadow_inactive-7" />
    <linearGradient
       id="shadow_inactive-7">
      <stop
         stop-color="#000000"
         offset="0"
         id="stop20" />
      <stop
         stop-color="#000000"
         stop-opacity=".63855"
         offset=".25"
         id="stop22" />
      <stop
         stop-color="#000000"
         stop-opacity=".33735"
         offset=".5"
         id="stop24" />
      <stop
         stop-color="#000000"
         stop-opacity=".10843"
         offset=".75"
         id="stop26" />
      <stop
         stop-color="#000000"
         stop-opacity=".039216"
         offset=".875"
         id="stop28" />
      <stop
         stop-color="#000000"
         stop-opacity="0"
         offset="1"
         id="stop30" />
    </linearGradient>
    <radialGradient
       id="radialGradient965"
       cx="48.271"
       cy="178.72"
       r="17.5"
       gradientTransform="matrix(-4,2.0882339e-4,-2.2835311e-4,-4.4564796,303.12081,992.45643)"
       gradientUnits="userSpaceOnUse"
       xlink:href="#shadow_active-5"
       fx="48.271"
       fy="178.72" />
    <linearGradient
       id="shadow_active-5">
      <stop
         stop-color="#000000"
         stop-opacity=".92169"
         offset="0"
         id="stop2" />
      <stop
         stop-color="#000000"
         stop-opacity=".74096"
         offset=".125"
         id="stop4" />
      <stop
         stop-color="#000000"
         stop-opacity=".60241"
         offset=".25"
         id="stop6" />
      <stop
         stop-color="#000000"
         stop-opacity=".33133"
         offset=".5"
         id="stop8" />
      <stop
         stop-color="#000000"
         stop-opacity=".10843"
         offset=".75"
         id="stop10" />
      <stop
         stop-color="#000000"
         stop-opacity=".039216"
         offset=".875"
         id="stop12" />
      <stop
         stop-color="#000000"
         stop-opacity="0"
         offset="1"
         id="stop14" />
    </linearGradient>
    <radialGradient
       id="radialGradient969"
       cx="296.45001"
       cy="80.417"
       r="17.5"
       gradientTransform="matrix(-3.7608e-7,-2.0571,2.5714,-5.1233e-7,123.21,840.893)"
       gradientUnits="userSpaceOnUse"
       xlink:href="#shadow_inactive-7" />
    <radialGradient
       id="radialGradient1306"
       cx="296.48001"
       cy="80.417"
       r="17.5"
       gradientTransform="matrix(-9.492e-7,-2.9143,-4,1.1504e-6,746.67,1095.082)"
       gradientUnits="userSpaceOnUse"
       xlink:href="#shadow_active-5" />
    <linearGradient
       id="linearGradient1389"
       x1="348.48999"
       x2="304.09"
       y1="99.014999"
       y2="99.014999"
       gradientTransform="matrix(1.0133,0,0,1,-3.265,140)"
       gradientUnits="userSpaceOnUse"
       xlink:href="#shadow_inactive-7" />
    <linearGradient
       id="linearGradient6612-5"
       x1="396"
       x2="396"
       y1="66"
       y2="30"
       gradientTransform="translate(200,5)"
       gradientUnits="userSpaceOnUse"
       xlink:href="#shadow_inactive-7" />
    <linearGradient
       id="linearGradient5688-2"
       x1="398"
       x2="398"
       y1="138.14"
       y2="171.74001"
       gradientTransform="matrix(1,0,0,1.0118,0,137.16)"
       gradientUnits="userSpaceOnUse"
       xlink:href="#shadow_inactive-7" />
    <linearGradient
       id="linearGradient1126"
       x1="348.48999"
       x2="279.41"
       y1="99"
       y2="99"
       gradientTransform="matrix(1.0133,0,0,1,-3.265,140)"
       gradientUnits="userSpaceOnUse"
       xlink:href="#shadow_active-5" />
    <linearGradient
       id="linearGradient6612"
       x1="396"
       x2="396"
       y1="64.167"
       y2="14.583"
       gradientTransform="matrix(1,0,0,1.0286,-215,50)"
       gradientUnits="userSpaceOnUse"
       xlink:href="#shadow_active-5" />
    <linearGradient
       id="linearGradient5688"
       x1="398"
       x2="398"
       y1="138.14"
       y2="216.22"
       gradientTransform="matrix(1,0,0,1.0118,0,137.24)"
       gradientUnits="userSpaceOnUse"
       xlink:href="#shadow_active-5" />
    <linearGradient
       inkscape:collect="always"
       xlink:href="#shadow_active-5"
       id="linearGradient4279"
       gradientUnits="userSpaceOnUse"
       gradientTransform="matrix(1.0133,0,0,1,-3.265,140)"
       x1="348.48999"
       y1="99"
       x2="279.41"
       y2="99" />
    <linearGradient
       inkscape:collect="always"
       xlink:href="#shadow_inactive-7"
       id="linearGradient4281"
       gradientUnits="userSpaceOnUse"
       gradientTransform="matrix(1.0133,0,0,1,-3.265,140)"
       x1="348.48999"
       y1="99.014999"
       x2="304.09"
       y2="99.014999" />
  </defs>
  <metadata
     id="metadata3647">
    <rdf:RDF>
      <cc:Work
         rdf:about="">
        <dc:format>image/svg+xml</dc:format>
        <dc:type
           rdf:resource="http://purl.org/dc/dcmitype/StillImage" />
        <dc:title />
      </cc:Work>
      <cc:Work
         rdf:about="">
        <dc:format>image/svg+xml</dc:format>
        <dc:type
           rdf:resource="http://purl.org/dc/dcmitype/StillImage" />
      </cc:Work>
    </rdf:RDF>
  </metadata>
  <g
     transform="translate(0,-90)"
     inkscape:groupmode="layer"
     inkscape:label="Layer 1"
     id="layer1">
    <g
       id="g4418"
       style="display:none"
       inkscape:label="layer1"
       transform="translate(-1453.4451,-465.21909)" />
    <g
       transform="translate(975.61592,-1945.0985)"
       id="g2424"
       style="display:none"
       inkscape:label="layer1" />
    <g
       transform="translate(-1919.565,-153.36219)"
       inkscape:label="layer1"
       style="display:none"
       id="g4240" />
    <g
       inkscape:label="layer1"
       style="display:none"
       id="g4244"
       transform="translate(509.49601,-1633.2416)" />
    <g
       id="decoration-inactive-topleft"
       transform="matrix(1.25,0,0,1.25,166.25,-98.82875)">
      <path
         d="m 260,180.063 v 51 h 41 v -18 c 0,-6.648 5.352,-12 12,-12 h 17 v -21 z"
         fill="url(#radialGradient969)"
         opacity="0.5"
         id="path42"
         style="fill:url(#radialGradient969)" />
      <g
         transform="translate(0,1)"
         id="g50">
        <g
           transform="translate(-19,25)"
           id="g48">
          <path
             transform="translate(-121,89.063)"
             d="m 453,86 c -6.648,0 -12,5.352 -12,12 v 18 h 29 V 86 Z"
             fill="#2d2d2d"
             id="path44" />
          <path
             transform="translate(-121,89.063)"
             d="m 453,86 c -6.648,0 -12,5.352 -12,12 v 1 c 0,-6.648 5.352,-12 12,-12 h 17 v -1 z"
             fill="#ffffff"
             opacity="0.08"
             id="path46" />
        </g>
      </g>
      <path
         transform="translate(-140,121.06)"
         d="m 453,79 c -7.202,0 -13,5.798 -13,13 v 18 h 1 V 92 c 0,-6.648 5.352,-12 12,-12 h 17 v -1 z"
         fill="#000000"
         opacity="0.75"
         id="path52" />
    </g>
    <g
       id="decoration-right"
       transform="matrix(-1.25,0,0,1.25,741.09998,-56.250002)">
      <path
         d="m 279.88,197 v 86 h 41 v -86 z"
         fill="url(#linearGradient1126)"
         opacity="0.5"
         id="path55"
         style="fill:url(#linearGradient4279)" />
      <path
         transform="matrix(-1,0,0,1,604.88,81)"
         d="m 284,116 v 86 h 1 v -86 z"
         fill="#000000"
         opacity="0.75"
         id="path57" />
      <path
         transform="translate(-255.12,76)"
         d="m 576,121 v 86 h 29 v -86 z"
         fill="#363636"
         id="path59" />
    </g>
    <g
       id="decoration-bottom"
       transform="matrix(1.25,0,0,1.25,-283.74999,-48.750002)">
      <path
         d="m 325,289 v 67 h 145 v -67 z"
         fill="url(#linearGradient5688)"
         opacity="0.5"
         id="path62"
         style="fill:url(#linearGradient5688)" />
      <path
         d="M 470,289 H 325 v 1 h 145 z"
         fill="#000000"
         opacity="0.75"
         id="path64" />
      <path
         d="M 470,277 H 325 v 12 h 145 z"
         fill="#242424"
         opacity="0.75"
         id="path66" />
    </g>
    <path
       id="decoration-center"
       d="M 122.5,190 V 297.49999 H 303.74999 V 190 Z"
       fill="#363636"
       style="stroke-width:1.25" />
    <g
       id="decoration-top"
       transform="matrix(1.25,0,0,1.25,-283.74999,-67.500001)">
      <path
         transform="translate(215,90)"
         d="M 110,65 V 86 H 255 V 65 Z"
         fill="url(#linearGradient6612)"
         opacity="0.5"
         id="path70"
         style="fill:url(#linearGradient6612)" />
      <path
         transform="translate(215,90)"
         d="m 110,85 v 1 h 145 v -1 z"
         fill="#000000"
         opacity="0.75"
         id="path72" />
      <path
         d="m 325,176 v 30 h 145 v -30 z"
         fill="#363636"
         id="path74" />
      <path
         d="m 325,176 v 1 h 145 v -1 z"
         fill="#ffffff"
         opacity="0.1"
         id="path76" />
    </g>
    <g
       id="decoration-left"
       transform="matrix(1.25,0,0,1.25,-314.84999,-56.250002)">
      <path
         d="m 279.88,197 v 86 h 41 v -86 z"
         opacity="0.5"
         id="path79"
         style="fill:url(#linearGradient1126)" />
      <path
         transform="translate(239.88,81)"
         d="m 80,116 v 86 h 1 v -86 z"
         fill="#000000"
         opacity="0.75"
         id="path81" />
      <path
         transform="translate(-255.12,76)"
         d="m 576,121 v 86 h 29 v -86 z"
         fill="#363636"
         id="path83" />
    </g>
    <g
       id="decoration-inactive-bottom"
       transform="matrix(1.25,0,0,1.25,172.5,-48.652502)">
      <path
         d="m 325,288.92 v 67 h 145 v -67 z"
         fill="url(#linearGradient5688-2)"
         opacity="0.5"
         id="path86"
         style="fill:url(#linearGradient5688-2)" />
      <path
         d="M 470,288.92 H 325 v 1 h 145 z"
         fill="#000000"
         opacity="0.75"
         id="path88" />
      <path
         d="M 470,276.92 H 325 v 12 h 145 z"
         fill="#1a1a1a"
         opacity="0.75"
         id="path90" />
    </g>
    <path
       id="decoration-inactive-center"
       d="M 578.74998,190 V 297.49999 H 759.99997 V 190 Z"
       fill="#2d2d2d"
       style="stroke-width:1.25" />
    <g
       id="decoration-inactive-top"
       transform="matrix(1.25,0,0,1.25,172.5,-67.500001)">
      <path
         transform="translate(-200,135)"
         d="M 525,20 V 41 H 670 V 20 Z"
         fill="url(#linearGradient6612-5)"
         opacity="0.5"
         id="path94"
         style="fill:url(#linearGradient6612-5)" />
      <path
         transform="translate(-145,90)"
         d="m 470,85 v 1 h 145 v -1 z"
         fill="#000000"
         opacity="0.75"
         id="path96" />
      <path
         d="m 325,176 v 30 h 145 v -30 z"
         fill="#2d2d2d"
         id="path98" />
      <path
         d="m 325,176 v 1 h 145 v -1 z"
         fill="#ffffff"
         opacity="0.08"
         id="path100" />
    </g>
    <g
       id="decoration-inactive-left"
       transform="matrix(1.25,0,0,1.25,141.4,-56.269377)">
      <path
         d="m 279.88,197.02 v 86 l 41,-0.0155 v -85.985 z"
         fill="url(#linearGradient1389)"
         opacity="0.5"
         id="path103"
         style="fill:url(#linearGradient4281)" />
      <path
         d="m 319.88,197.02 v 86 h 1 v -86 z"
         fill="#000000"
         opacity="0.75"
         id="path105" />
      <path
         d="m 320.88,197.02 v 86 h 29 v -86 z"
         fill="#2d2d2d"
         id="path107" />
    </g>
    <g
       id="decoration-bottomleft"
       transform="matrix(1.25,0,0,1.25,-496.24998,-65.000001)">
      <path
         transform="translate(385,94)"
         d="m 81,196 c 0,6.648 5.352,12 12,12 h 17 v -12 z"
         fill="#242424"
         opacity="0.75"
         id="path110" />
      <g
         transform="matrix(1,0,0,0.99932,165,-10.667)"
         id="g118">
        <path
           transform="matrix(1,0,0,1.0007,220,104.74)"
           d="m 40,195.9944 v 78.99845 h 70 V 208 H 93 c -6.648,0 -12,-5.3576 -12,-12.0056 z"
           opacity="0.5"
           id="path112"
           style="fill:url(#radialGradient965)" />
        <g
           transform="translate(-20,24)"
           id="g114" />
        <path
           transform="matrix(1,0,0,1.0007,220,104.74)"
           d="m 80,196 c 0,7.202 5.798,13 13,13 h 17 v -1 H 93 c -6.648,0 -12,-5.352 -12,-12 z"
           fill="#000000"
           opacity="0.75"
           id="path116" />
      </g>
    </g>
    <g
       id="decoration-inactive-bottomleft"
       transform="matrix(1.25,0,0,1.25,-8.7499985,-59.999996)">
      <path
         transform="translate(0,90)"
         d="m 441,196 c 0,6.648 5.352,12 12,12 h 17 v -12 z"
         fill="#1a1a1a"
         opacity="0.75"
         id="path121" />
      <g
         transform="matrix(1,0,0,0.99932,140,-14.604)"
         id="g129">
        <path
           d="m 260,300.80855 v 79.05376 h 70 v -67.04536 h -17 c -6.648,0 -12,-5.35575 -12,-12.0084 z"
           fill="url(#radialGradient967)"
           opacity="0.5"
           id="path123"
           style="fill:url(#radialGradient967);stroke-width:1.00035"
           sodipodi:nodetypes="ccccscc" />
        <g
           transform="translate(-20,24)"
           id="g125" />
        <path
           transform="matrix(1,0,0,1.0007,-140,104.68)"
           d="m 440,196 c 0,7.202 5.798,13 13,13 h 14 l 3,-1e-5 V 208 h -17 c -6.648,0 -12,-5.352 -12,-12 z"
           fill="#000000"
           opacity="0.75"
           id="path127" />
      </g>
    </g>
    <rect
       id="shadow-hint-top-margin"
       x="202.5"
       y="126.25"
       width="5"
       height="26.25"
       fill="#ff00ff"
       style="stroke-width:1.25" />
    <rect
       id="shadow-hint-bottom-margin"
       x="203.75"
       y="312.5"
       width="5"
       height="83.75"
       fill="#ff00ff"
       style="stroke-width:1.25" />
    <rect
       id="shadow-hint-right-margin"
       x="340"
       y="227.5"
       width="51.25"
       height="5"
       fill="#ff00ff"
       style="stroke-width:1.25" />
    <rect
       id="shadow-hint-left-margin"
       y="220"
       width="51.25"
       height="5"
       fill="#ff00ff"
       x="35"
       style="stroke-width:1.25" />
    <rect
       id="hint-top-margin"
       x="217.5"
       y="126.25"
       width="5"
       height="63.749996"
       fill="#00ff29"
       style="stroke-width:1.25" />
    <rect
       id="hint-bottom-margin"
       x="218.75"
       y="297.5"
       width="5"
       height="98.75"
       fill="#00ff29"
       style="stroke-width:1.25" />
    <rect
       id="hint-right-margin"
       transform="rotate(90)"
       x="213.75"
       y="-391.25"
       width="5"
       height="87.5"
       fill="#00ff29"
       style="stroke-width:1.25" />
    <rect
       id="hint-left-margin"
       transform="rotate(90)"
       x="210"
       y="-122.5"
       width="5"
       height="87.5"
       fill="#00ff29"
       style="stroke-width:1.25" />
    <g
       id="decoration-topleft"
       transform="matrix(-1.25,0,0,1.25,653.74998,-98.8275)">
      <path
         d="m 495,180.062 v 51 h -41 v -18 c 0,-6.648 -5.352,-12 -12,-12 h -17 v -21 z"
         fill="url(#radialGradient1306)"
         opacity="0.5"
         id="path140"
         style="fill:url(#radialGradient1306)" />
      <g
         transform="translate(250)"
         id="g148">
        <g
           transform="matrix(-1,0,0,1,524,26)"
           id="g146">
          <path
             transform="translate(239,89.062)"
             d="m 93,86 c -6.648,0 -12,5.352 -12,12 v 18 h 29 V 86 Z"
             fill="#363636"
             id="path142" />
          <path
             transform="translate(239,95.062)"
             d="m 93,80 c -6.648,0 -12,5.352 -12,12 v 0.59961 c 0,-6.4264 5.352,-11.6 12,-11.6 h 17 v -1 z"
             fill="#ffffff"
             opacity="0.1"
             id="path144" />
        </g>
      </g>
      <path
         transform="matrix(-1,0,0,1,535,115.06)"
         d="m 93,85 c -7.202,0 -13,5.798 -13,13 v 18 h 1 V 98 c 0,-6.648 5.352,-12 12,-12 h 17 v -1 z"
         fill="#000000"
         opacity="0.75"
         id="path150" />
    </g>
    <g
       id="decoration-inactive-right"
       transform="matrix(-1.25,0,0,1.25,1197.35,-56.269377)">
      <path
         d="m 279.88,197.02 v 86 l 41,-0.0155 v -85.985 z"
         fill="url(#linearGradient1389)"
         opacity="0.5"
         id="path153"
         style="fill:url(#linearGradient1389)" />
      <path
         d="m 319.88,197.02 v 86 h 1 v -86 z"
         fill="#000000"
         opacity="0.75"
         id="path155" />
      <path
         d="m 320.88,197.02 v 86 h 29 v -86 z"
         fill="#2d2d2d"
         id="path157" />
    </g>
    <use
       id="decoration-topright"
       transform="matrix(-1,0,0,1,426.24999,0)"
       width="100%"
       height="100%"
       xlink:href="#decoration-topleft"
       x="0"
       y="0" />
    <use
       id="decoration-inactive-topright"
       transform="matrix(-1,0,0,1,1338.75,0)"
       width="100%"
       height="100%"
       xlink:href="#decoration-inactive-topleft"
       x="0"
       y="0" />
    <use
       id="decoration-bottomright"
       transform="matrix(-1,0,0,1,426.24999,0)"
       width="100%"
       height="100%"
       xlink:href="#decoration-bottomleft"
       x="0"
       y="0" />
    <use
       id="decoration-inactive-bottomright"
       transform="matrix(-1,0,0,1,1338.75,0)"
       width="100%"
       height="100%"
       xlink:href="#decoration-inactive-bottomleft"
       x="0"
       y="0" />
    <g
       id="mask-topleft"
       transform="matrix(1.25,0,0,1.25,658.74998,-98.825)">
      <path
         transform="translate(-140,115.06)"
         d="m 400,65 v 51 h 41 V 98 c 0,-6.648 5.352,-12 12,-12 h 17 V 65 Z"
         fill="none"
         id="path164" />
      <path
         d="m 313,201.06 c -6.648,0 -12,5.352 -12,12 v 18 h 29 v -30 z"
         id="path166" />
    </g>
    <g
       id="mask-bottom"
       transform="matrix(1.25,0,0,1.25,664.99998,-48.650002)">
      <path
         d="m 325,288.92 v 67 h 145 v -67 z"
         fill="none"
         id="path169" />
      <path
         d="M 470,276.92 H 325 v 12 h 145 z"
         id="path171" />
    </g>
    <g
       id="mask-center"
       transform="matrix(1.25,0,0,1.25,-9.0499984,-59.999996)">
      <path
         d="m 864.24,200 v 86 h 145 v -86 z"
         id="path174" />
    </g>
    <g
       id="mask-top"
       transform="matrix(1.25,0,0,1.25,664.99998,-67.500001)">
      <path
         transform="translate(-200,135)"
         d="M 525,20 V 41 H 670 V 20 Z"
         fill="none"
         id="path177" />
      <path
         d="m 325,176 v 30 h 145 v -30 z"
         id="path179" />
    </g>
    <g
       id="mask-left"
       transform="matrix(1.25,0,0,1.25,633.89998,-56.275002)">
      <path
         d="m 279.88,197.02 v 86 l 41,-0.0155 v -85.985 z"
         fill="none"
         id="path182" />
      <path
         d="m 320.88,197.02 v 86 h 29 v -86 z"
         id="path184" />
    </g>
    <g
       id="mask-bottomleft"
       transform="matrix(1.25,0,0,1.25,483.74998,-59.999996)">
      <path
         transform="translate(0,90)"
         d="m 441,196 c 0,6.648 5.352,12 12,12 h 17 v -12 z"
         id="path187" />
      <path
         d="m 400,286 v 79 h 70 v -67 h -17 c -6.648,0 -12,-5.352 -12,-12 z"
         fill="none"
         id="path189" />
    </g>
    <use
       id="mask-topright"
       transform="matrix(-1,0,0,1,2323.7499,0)"
       width="100%"
       height="100%"
       xlink:href="#mask-topleft"
       x="0"
       y="0" />
    <use
       id="mask-bottomright"
       transform="matrix(-1,0,0,1,2323.7499,0)"
       width="100%"
       height="100%"
       xlink:href="#mask-bottomleft"
       x="0"
       y="0" />
    <use
       id="mask-right"
       transform="matrix(-1,0,0,1,2323.7499,0)"
       width="100%"
       height="100%"
       xlink:href="#mask-left"
       x="0"
       y="0" />
  </g>
</svg>
