<?xml version="1.0" encoding="UTF-8" standalone="no"?>
<svg
   xmlns:dc="http://purl.org/dc/elements/1.1/"
   xmlns:cc="http://creativecommons.org/ns#"
   xmlns:rdf="http://www.w3.org/1999/02/22-rdf-syntax-ns#"
   xmlns:svg="http://www.w3.org/2000/svg"
   xmlns="http://www.w3.org/2000/svg"
   version="1.0"
   height="64"
   width="70"
   id="svg2">
  <metadata
     id="metadata28">
    <rdf:RDF>
      <cc:Work
         rdf:about="">
        <dc:format>image/svg+xml</dc:format>
        <dc:type
           rdf:resource="http://purl.org/dc/dcmitype/StillImage" />
        <dc:title></dc:title>
      </cc:Work>
    </rdf:RDF>
  </metadata>
  <defs
     id="defs5">
    <style
       type="text/css"
       id="current-color-scheme"> .ColorScheme-Text { color:#363636; } </style>
  </defs>
  <g
     fill="currentColor"
     class="ColorScheme-Text"
     transform="matrix(.75 0 0 .75 -168 -765.27)"
     id="22-22-computer-laptop">
    <rect
       opacity=".01"
       fill-opacity=".0039216"
       height="29.333"
       width="29.333"
       y="1033.7"
       x="245.33"
       id="rect7292" />
    <path
       d="m20 13c-1.108 0-2 0.892-2 2v6 6h-1a2 2 0 0 0 2 2h1 14 1a2 2 0 0 0 2-2h-1v-6-6c0-1.108-0.892-2-2-2h-14zm0 1h14c0.554 0 1 0.446 1 1v6 4c0 0.554-0.446 1-1 1h-14c-0.554 0-1-0.446-1-1v-4-6c0-0.554 0.446-1 1-1z"
       transform="matrix(1.3333 0 0 1.3333 224 1020.4)"
       id="rect7296" />
  </g>
  <g
     fill="currentColor"
     class="ColorScheme-Text"
     transform="matrix(.54507 0 0 .54507 -210.35 -233.68)"
     id="16-16-computer">
    <rect
       opacity="0"
       height="29.333"
       width="29.333"
       y="516.8"
       x="385.9"
       id="rect3034" />
    <path
       d="m3 50c-1.108 0-2 0.892-2 2v6.0117c0 1.108 0.892 2 2 2h2 1.541v0.98828h-2.041c-0.277 0-0.5 0.223-0.5 0.5s0.223 0.5 0.5 0.5h0.5v0.011719h6v-0.011719h0.5c0.277 0 0.5-0.223 0.5-0.5s-0.223-0.5-0.5-0.5h-2.0527v-0.98828h1.5527 1.9902c1.108 0 2-0.892 2-2v-6.0117c0-1.108-0.892-2-2-2h-9.9902zm0 1h2v0.011719h6v-0.011719h2c0.554 0 1 0.446 1 1v6h-12v-6c0-0.554 0.446-1 1-1z"
       transform="matrix(1.8346 0 0 1.8346 385.9 428.72)"
       id="path3036" />
  </g>
  <g
     fill="currentColor"
     class="ColorScheme-Text"
     transform="matrix(.54546 0 0 .54546 -133.82 -547.84)"
     id="16-16-computer-laptop">
    <rect
       opacity="0"
       height="29.333"
       width="29.333"
       y="1033.7"
       x="245.33"
       id="rect3042" />
    <path
       d="m4 20c-0.554 0-1 0.446-1 1v4 2h-2c0 1.0909 1.3184 2 1.3184 2h11.363s1.3184-0.90909 1.3184-2h-2v-2-4c0-0.554-0.446-1-1-1h-8zm0 1h8v4 1h-8v-1-4z"
       transform="matrix(1.8333 0 0 1.8333 245.33 1004.4)"
       id="path3044" />
  </g>
  <g
     transform="translate(-66 2.5)"
     id="computer-laptop">
    <rect
       opacity="0"
       height="32"
       width="32"
       y="-2.5"
       x="104"
       id="rect844" />
    <circle
       fill="#28ce6b"
       r="15"
       cy="13.5"
       cx="120"
       id="path858" />
    <path
       fill="#fff"
       d="m111 5.5v14h-1a2 2 0 0 0 2 2h16a2 2 0 0 0 2-2h-1v-14zm1 1h16v12h-16z"
       id="path862" />
  </g>
  <g
     fill="currentColor"
     class="ColorScheme-Text"
     id="22-22-computer">
    <rect
       opacity="0"
       height="22"
       width="22"
       y="42"
       x="16"
       id="rect3074" />
    <path
       d="m19 44c-1.108 0-2 0.892-2 2v10c0 1.108 0.892 2 2 2h6c0 1.0963-0.36596 2.1435-1.0098 3h-1.4902c-0.277 0-0.5 0.223-0.5 0.5s0.223 0.5 0.5 0.5h9c0.277 0 0.5-0.223 0.5-0.5s-0.223-0.5-0.5-0.5h-1.4883c-0.64449-0.85645-1.0114-1.9033-1.0117-3h6c1.108 0 2-0.892 2-2v-10c0-1.108-0.892-2-2-2zm0 1h16c0.554 0 1 0.446 1 1v8h-18v-8c0-0.554 0.446-1 1-1z"
       id="rect920" />
  </g>
  <g
     id="computer">
    <rect
       opacity="0"
       height="32"
       width="32"
       y="32"
       x="38"
       id="rect879" />
    <circle
       fill="#28ce6b"
       r="15"
       cy="48"
       cx="54"
       id="circle881" />
    <path
       fill="#fff"
       d="m46 40c-1.108 0-2 0.892-2 2v10c0 1.108 0.892 2 2 2h6c0 1.0963-0.36596 2.1435-1.0098 3h-1.4902c-0.277 0-0.5 0.223-0.5 0.5s0.223 0.5 0.5 0.5h9c0.277 0 0.5-0.223 0.5-0.5s-0.223-0.5-0.5-0.5h-1.4883c-0.64449-0.85645-1.0114-1.9033-1.0117-3h6c1.108 0 2-0.892 2-2v-10c0-1.108-0.892-2-2-2zm0 1h16c0.554 0 1 0.446 1 1v8h-18v-8c0-0.554 0.446-1 1-1z"
       id="path987" />
  </g>
</svg>
