<?xml version="1.0" encoding="UTF-8" standalone="no"?>
<svg
   xmlns:dc="http://purl.org/dc/elements/1.1/"
   xmlns:cc="http://creativecommons.org/ns#"
   xmlns:rdf="http://www.w3.org/1999/02/22-rdf-syntax-ns#"
   xmlns:svg="http://www.w3.org/2000/svg"
   xmlns="http://www.w3.org/2000/svg"
   id="svg30"
   viewBox="0 0 32 32"
   version="1.1"
   height="32"
   width="32">
  <metadata
     id="metadata32">
    <rdf:RDF>
      <cc:Work
         rdf:about="">
        <dc:format>image/svg+xml</dc:format>
        <dc:type
           rdf:resource="http://purl.org/dc/dcmitype/StillImage" />
        <dc:title></dc:title>
      </cc:Work>
    </rdf:RDF>
  </metadata>
  <defs
     id="defs5">
    <style
       type="text/css"
       id="current-color-scheme"> .ColorScheme-Text { color:#363636; } </style>
  </defs>
  <g
     fill="currentColor"
     transform="translate(-321,-529.36)"
     class="ColorScheme-Text"
     id="device-notifier">
    <path
       id="path7"
       d="m329 533.36c-1.662 0-2.6099 1.3844-3 3l-3.8613 15.988c-8.4e-4 4e-3 -1e-3 8e-3 -2e-3 0.0117h2e-3c-0.0825 0.321-0.13867 0.65255-0.13867 1 0 2.216 1.784 4 4 4h22c2.216 0 4-1.784 4-4 0-0.34745-0.0562-0.679-0.13867-1h0.0215l-3.8828-16c-0.39187-1.6151-1.338-3-3-3zm7 2h1l2 3h-2v6h4v-3h-1v-3h3v3h-1v4h-5v2.0859a1.5 1.5 0 0 1 1 1.4141 1.5 1.5 0 0 1-1.5 1.5 1.5 1.5 0 0 1-1.5-1.5 1.5 1.5 0 0 1 1-1.4121v-2.0879h-5v-4.0859a1.5 1.5 0 0 1-1-1.4141 1.5 1.5 0 0 1 1.5-1.5 1.5 1.5 0 0 1 1.5 1.5 1.5 1.5 0 0 1-1 1.4121v3.0879h4v-6h-2zm-10 16h22c1.108 0 2 0.89199 2 2s-0.89199 2-2 2h-22c-1.108 0-2-0.89199-2-2s0.89199-2 2-2z" />
    <rect
       id="rect9"
       fill-opacity="0"
       height="32"
       width="32"
       y="529.36"
       x="321" />
    <circle
       id="circle11"
       r="1"
       cy="553.36"
       cx="346" />
  </g>
  <g
     fill="currentColor"
     transform="translate(-321.5,-529.36)"
     class="ColorScheme-Text"
     id="16-16-device-notifier">
    <rect
       id="rect14"
       opacity="0"
       ry="0"
       height="16"
       width="16"
       y="537.36"
       x="393.5" />
    <g
       id="g22"
       transform="translate(-19.5)">
      <path
         id="path16"
         d="m97 8c-0.55399 0-1 0.44601-1 1v3c-1.108 0-2 0.89201-2 2v4c0 3.324 2.676 6 6 6s6-2.676 6-6v-4c0-1.108-0.89201-2-2-2v-3c0-0.55399-0.44601-1-1-1zm1 1c0.55399 0 1 0.44601 1 1v1c0 0.55399-0.44601 1-1 1s-1-0.44601-1-1v-1c0-0.55399 0.44601-1 1-1zm4 0c0.55399 0 1 0.44601 1 1v1c0 0.55399-0.44601 1-1 1s-1-0.44601-1-1v-1c0-0.55399 0.44601-1 1-1zm-6 4h8c0.55399 0 1 0.44601 1 1v4a5 5 0 0 1-5 5 5 5 0 0 1-5-5v-4c0-0.55399 0.44601-1 1-1z"
         transform="translate(321,529.36)" />
      <circle
         id="circle18"
         opacity=".25"
         r="2"
         cy="549.36"
         cx="421" />
      <circle
         id="circle20"
         r="1"
         cy="549.36"
         cx="421" />
    </g>
  </g>
  <g
     fill="currentColor"
     transform="translate(-321,-529.36)"
     class="ColorScheme-Text"
     id="22-22-device-notifier">
    <rect
       id="rect25"
       opacity="0"
       height="22"
       width="22"
       y="534.36"
       x="365" />
    <path
       id="path27"
       d="m51 6c-0.55401 0-1 0.446-1 1v4h-1c-1.108 0-2 0.892-2 2v5c0 4.4183 3.5817 8 8 8s8-3.5817 8-8v-5c0-1.108-0.89199-2-2-2h-1v-4c0-0.554-0.44599-1-1-1zm2 2c0.554 0 1 0.446 1 1v1c0 0.554-0.446 1-1 1s-1-0.446-1-1v-1c0-0.554 0.446-1 1-1zm4 0c0.554 0 1 0.446 1 1v1c0 0.554-0.446 1-1 1s-1-0.446-1-1v-1c0-0.554 0.446-1 1-1zm-8 5h12v5c0 3.324-2.676 6-6 6s-6-2.676-6-6z"
       transform="translate(321,529.36)" />
  </g>
</svg>
