<?xml version="1.0" encoding="UTF-8" standalone="no"?>
<svg
   xmlns:dc="http://purl.org/dc/elements/1.1/"
   xmlns:cc="http://creativecommons.org/ns#"
   xmlns:rdf="http://www.w3.org/1999/02/22-rdf-syntax-ns#"
   xmlns:svg="http://www.w3.org/2000/svg"
   xmlns="http://www.w3.org/2000/svg"
   id="svg17"
   viewBox="0 0 54 32"
   version="1.1">
  <metadata
     id="metadata19">
    <rdf:RDF>
      <cc:Work
         rdf:about="">
        <dc:format>image/svg+xml</dc:format>
        <dc:type
           rdf:resource="http://purl.org/dc/dcmitype/StillImage" />
        <dc:title></dc:title>
      </cc:Work>
    </rdf:RDF>
  </metadata>
  <defs
     id="defs5">
    <style
       type="text/css"
       id="current-color-scheme"> .ColorScheme-Text { color:#363636; } </style>
  </defs>
  <g
     fill="currentColor"
     class="ColorScheme-Text"
     transform="translate(-158 -48)"
     id="22-22-keyboard-layout">
    <path
       id="path7"
       d="m163 62c-1.108 0-2 0.892-2 2v10c0 1.108 0.892 2 2 2h12c1.108 0 2-0.892 2-2v-10c0-1.108-0.892-2-2-2zm3 2c1.1045 0 2 0.8955 2 2v1h2v-1c0-1.1045 0.89537-2 2-2 1.1045 0 2 0.8955 2 2s-0.8955 2-2 2h-1v2h1c1.1045 2.5e-4 2 0.8955 2 2s-0.8955 2-2 2-2-0.8955-2-2v-1h-2v1c0 1.1045-0.89537 2-2 2-1.1045 0-2-0.8955-2-2s0.8955-2 2-2h1v-2h-1c-1.1045 0-2-0.8955-2-2s0.8955-2 2-2zm0 1c-0.55225 0-1 0.44775-1 1 0 0.55213 0.44775 1 1 1h1v-1c0-0.55225-0.44775-1-1-1zm6 0c-0.55225 0-1 0.44775-1 1v1h1c0.55225 0 1-0.44775 1-1s-0.44775-1-1-1zm-4 3v2h2v-2zm-2 3c-0.55225 0-1 0.44775-1 1s0.44775 1 1 1 1-0.44775 1-1v-1zm5 0v1c0 0.55225 0.44775 1 1 1s1-0.44775 1-1-0.44775-1-1-1z" />
    <path
       id="path9"
       fill="none"
       d="m158 58h22v22h-22z" />
  </g>
  <g
     fill="currentColor"
     class="ColorScheme-Text"
     transform="translate(-16)"
     id="keyboard-layout">
    <rect
       id="rect12"
       fill="none"
       height="32"
       width="32"
       y="-5.6172e-6"
       x="38" />
    <path
       id="path14"
       d="m43 7c-1.662 0-3 1.338-3 3v12c0 1.662 1.338 3 3 3h22c1.662 0 3-1.338 3-3v-12c0-1.662-1.338-3-3-3zm0 2h22c0.554 0 1 0.446 1 1v12c0 0.554-0.446 1-1 1h-22c-0.554 0-1-0.446-1-1v-12c0-0.554 0.446-1 1-1zm0.5 2c-0.277 0-0.5 0.223-0.5 0.5s0.223 0.5 0.5 0.5h21c0.277 0 0.5-0.223 0.5-0.5s-0.223-0.5-0.5-0.5zm0.5 2c-0.554 0-1 0.446-1 1s0.446 1 1 1h0.86328c0.554 0 1-0.446 1-1s-0.446-1-1-1zm4 0c-0.554 0-1 0.446-1 1s0.446 1 1 1 1-0.446 1-1-0.446-1-1-1zm3 0c-0.554 0-1 0.446-1 1s0.446 1 1 1 1-0.446 1-1-0.446-1-1-1zm3 0c-0.554 0-1 0.446-1 1s0.446 1 1 1 1-0.446 1-1-0.446-1-1-1zm3 0c-0.554 0-1 0.446-1 1s0.446 1 1 1 1-0.446 1-1-0.446-1-1-1zm3 0c-0.554 0-1 0.446-1 1s0.446 1 1 1 1-0.446 1-1-0.446-1-1-1zm3 0c-0.554 0-1 0.446-1 1s0.446 1 1 1h0.86328c0.554 0 1-0.446 1-1s-0.446-1-1-1zm-19 3c-0.554 0-1 0.446-1 1s0.446 1 1 1 1-0.446 1-1-0.446-1-1-1zm3 0c-0.554 0-1 0.446-1 1s0.446 1 1 1 1-0.446 1-1-0.446-1-1-1zm3 0c-0.554 0-1 0.446-1 1s0.446 1 1 1 1-0.446 1-1-0.446-1-1-1zm3 0c-0.554 0-1 0.446-1 1s0.446 1 1 1 1-0.446 1-1-0.446-1-1-1zm3 0c-0.554 0-1 0.446-1 1s0.446 1 1 1 1-0.446 1-1-0.446-1-1-1zm3 0c-0.554 0-1 0.446-1 1s0.446 1 1 1 1-0.446 1-1-0.446-1-1-1zm3 0c-0.554 0-1 0.446-1 1s0.446 1 1 1h2c0.554 0 1-0.446 1-1s-0.446-1-1-1zm-18 3c-0.554 0-1 0.446-1 1s0.446 1 1 1h0.86328c0.554 0 1-0.446 1-1s-0.446-1-1-1zm4 0c-0.554 0-1 0.446-1 1s0.446 1 1 1 1-0.446 1-1-0.446-1-1-1zm3.1367 0c-0.554 0-1 0.446-1 1s0.446 1 1 1h5.8633c0.554 0 1-0.446 1-1s-0.446-1-1-1zm8.8633 0c-0.554 0-1 0.446-1 1s0.446 1 1 1 1-0.446 1-1-0.446-1-1-1zm3 0c-0.554 0-1 0.446-1 1s0.446 1 1 1h0.86328c0.554 0 1-0.446 1-1s-0.446-1-1-1z" />
  </g>
</svg>
