<?xml version="1.0" encoding="UTF-8" standalone="no"?>
<svg
   xmlns:dc="http://purl.org/dc/elements/1.1/"
   xmlns:cc="http://creativecommons.org/ns#"
   xmlns:rdf="http://www.w3.org/1999/02/22-rdf-syntax-ns#"
   xmlns:svg="http://www.w3.org/2000/svg"
   xmlns="http://www.w3.org/2000/svg"
   version="1.1"
   viewBox="0 0 32 32"
   id="svg17">
  <metadata
     id="metadata21">
    <rdf:RDF>
      <cc:Work
         rdf:about="">
        <dc:format>image/svg+xml</dc:format>
        <dc:type
           rdf:resource="http://purl.org/dc/dcmitype/StillImage" />
        <dc:title></dc:title>
      </cc:Work>
    </rdf:RDF>
  </metadata>
  <defs
     id="defs3">
    <style
       id="current-color-scheme"
       type="text/css">.ColorScheme-Text { color:#363636; }</style>
  </defs>
  <g
     id="22-22-klipper"
     class="ColorScheme-Text"
     fill="currentColor">
    <path
       d="m49 5h22v22h-22z"
       fill="none"
       id="path5" />
    <g
       transform="translate(-41 -1)"
       id="g9">
      <path
         d="M 100.94922,8.0000001 A 2,2 0 0 0 98.998047,9.9999999 H 98 97 C 95.338,9.9999999 94,11.338 94,13 v 9 c 0,1.662 1.338,3 3,3 h 8 c 1.662,0 3,-1.338 3,-3 v -9 c 0,-1.662 -1.338,-3.0000001 -3,-3.0000001 h -1 -1.00195 a 2,2 0 0 0 -2,-1.9999998 2,2 0 0 0 -0.0488,0 z m 0.0488,1 a 1,1 0 0 1 1,0.9999998 1,1 0 0 1 0,0.01172 c -0.002,0.13009 -0.0275,0.253577 -0.0742,0.367187 a 1,1 0 0 1 -0.006,0.01758 1,1 0 0 1 -0.002,0.0039 c -0.0496,0.11313 -0.1194,0.216134 -0.20508,0.302734 a 1,1 0 0 1 -0.008,0.0078 c -0.088,0.08707 -0.19327,0.157271 -0.3086,0.207031 l -0.002,0.002 a 1,1 0 0 1 -0.006,0.002 c -10e-4,5.36e-4 -0.003,0.0014 -0.004,0.002 -0.11748,0.04914 -0.24687,0.07617 -0.38281,0.07617 a 1,1 0 0 1 -0.002,0 c -0.13241,-2.59e-4 -0.25746,-0.02723 -0.37305,-0.07422 a 1,1 0 0 1 -0.0234,-0.0098 c -0.11373,-0.04967 -0.2177,-0.119018 -0.30468,-0.205078 -6.6e-4,-6.36e-4 -0.003,-0.0033 -0.004,-0.0039 l -0.002,-0.002 -0.002,-0.002 c -0.0871,-0.08802 -0.15727,-0.193263 -0.20703,-0.308594 -9.4e-4,-0.0022 -0.003,-0.0056 -0.004,-0.0078 a 1,1 0 0 1 -0.002,-0.0039 C 100.02737,10.264663 100,10.13594 100,9.9999999 h -0.002 a 1,1 0 0 1 1.00005,-0.9999998 z M 97,12 h 1 c 0,0.554 0.446,1 1,1 h 4 c 0.554,0 1,-0.446 1,-1 h 1 c 0.554,0 1,0.446 1,1 v 9 c 0,0.554 -0.446,1 -1,1 h -8 c -0.554,0 -1,-0.446 -1,-1 v -9 c 0,-0.554 0.446,-1 1,-1 z"
         id="path7" />
    </g>
  </g>
  <g
     id="klipper"
     class="ColorScheme-Text"
     fill="currentColor">
    <rect
       x="-2.8954e-8"
       y="-1e-6"
       width="32"
       height="32"
       fill="none"
       id="rect12" />
    <path
       d="m15.949 4a3 3 0 0 0-2.9492 3h-4c-1.662 0-3 1.338-3 3v15c0 1.662 1.338 3 3 3h14c1.662 0 3-1.338 3-3v-15c0-1.662-1.338-3-3-3h-4a3 3 0 0 0-3-3 3 3 0 0 0-0.050781 0zm0.050781 2a1 1 0 0 1 1 1 1 1 0 0 1-1 1 1 1 0 0 1-0.083984-0.0039062 1 1 0 0 1-0.91602-0.99609 1 1 0 0 1 1-1zm-7 3h2v1c0 0.554 0.446 1 1 1h8c0.554 0 1-0.446 1-1v-1h2c0.554 0 1 0.446 1 1v15c0 0.554-0.446 1-1 1h-14c-0.554 0-1-0.446-1-1v-15c0-0.554 0.446-1 1-1z"
       id="path14" />
  </g>
</svg>
