<?xml version="1.0" encoding="UTF-8" standalone="no"?>
<svg
   xmlns:dc="http://purl.org/dc/elements/1.1/"
   xmlns:cc="http://creativecommons.org/ns#"
   xmlns:rdf="http://www.w3.org/1999/02/22-rdf-syntax-ns#"
   xmlns:svg="http://www.w3.org/2000/svg"
   xmlns="http://www.w3.org/2000/svg"
   viewBox="0 0 22 22"
   version="1.1"
   id="svg">
  <metadata
     id="metadata18">
    <rdf:RDF>
      <cc:Work
         rdf:about="">
        <dc:format>image/svg+xml</dc:format>
        <dc:type
           rdf:resource="http://purl.org/dc/dcmitype/StillImage" />
        <dc:title></dc:title>
      </cc:Work>
    </rdf:RDF>
  </metadata>
  <defs
     id="defs3">
    <style
       type="text/css"
       id="current-color-scheme">.ColorScheme-Text {
        color:#363636;
      }
      .ColorScheme-Background{
        color:#efefef;
      }
      .ColorScheme-Highlight{
        color:#3DAEE6;
      }
      .ColorScheme-ViewText {
        color:#7B7C7E;
      }
      .ColorScheme-ViewBackground{
        color:#FCFCFC;
      }
      .ColorScheme-ViewHover {
        color:#3DAEE6;
      }
      .ColorScheme-ViewFocus{
        color:#1E92FF;
      }
      .ColorScheme-ButtonText {
        color:#363636;
      }
      .ColorScheme-ButtonBackground{
        color:#efefef;
      }
      .ColorScheme-ButtonHover {
        color:#3DAEE6;
      }
      .ColorScheme-ButtonFocus{
        color:#1E92FF;
      }</style>
  </defs>
  <g
     id="list-add">
    <path
       id="path5"
       fill="currentColor"
       d="m10 3v7h-7v2.1h7v6.9h2v-6.9h7v-2.1h-7v-7z"
       class="ColorScheme-Text" />
    <rect
       id="rect7"
       fill-opacity="0"
       height="22"
       width="22" />
  </g>
  <g
     transform="translate(22)"
     id="list-remove">
    <path
       id="path10"
       fill="#e74c3c"
       d="m11 3c-4.4183 0-8 3.5817-8 8s3.5817 8 8 8 8-3.5817 8-8-3.5817-8-8-8zm0 1c3.866 0 7 3.134 7 7 0 1.7617-0.64446 3.3633-1.7188 4.5938l-9.875-9.875c1.2304-1.0743 2.8321-1.7188 4.5938-1.7188zm-5.2812 2.4062 9.875 9.875c-1.2304 1.0743-2.8321 1.7188-4.5938 1.7188-3.866 0-7-3.134-7-7 0-1.7617 0.64446-3.3633 1.7188-4.5938z" />
    <rect
       id="rect12"
       fill-opacity="0"
       height="22"
       width="22" />
  </g>
</svg>
