<?xml version="1.0" encoding="UTF-8" standalone="no"?>
<svg
   xmlns:dc="http://purl.org/dc/elements/1.1/"
   xmlns:cc="http://creativecommons.org/ns#"
   xmlns:rdf="http://www.w3.org/1999/02/22-rdf-syntax-ns#"
   xmlns:svg="http://www.w3.org/2000/svg"
   xmlns="http://www.w3.org/2000/svg"
   id="svg"
   width="22"
   height="22"
   version="1.1">
  <metadata
     id="metadata23">
    <rdf:RDF>
      <cc:Work
         rdf:about="">
        <dc:format>image/svg+xml</dc:format>
        <dc:type
           rdf:resource="http://purl.org/dc/dcmitype/StillImage" />
        <dc:title></dc:title>
      </cc:Work>
    </rdf:RDF>
  </metadata>
  <defs
     id="defs5">
    <style
       id="current-color-scheme"
       type="text/css"> .ColorScheme-Text { color:#363636; } </style>
  </defs>
  <g
     id="22-22-manjaro-settings-manager"
     class="ColorScheme-Text"
     fill="currentColor">
    <rect
       width="22"
       height="22"
       fill-opacity="0"
       id="rect7" />
    <path
       d="m6 3c-1.662 0-3 1.338-3 3v10c0 1.662 1.338 3 3 3h1v-12h6v-4h-7zm9 0v16h1c1.662 0 3-1.338 3-3v-10c0-1.662-1.338-3-3-3h-1zm-6 6v10h4v-10h-4z"
       id="path9" />
  </g>
  <g
     id="manjaro-settings-manager"
     transform="translate(-4,-39)"
     class="ColorScheme-Text"
     fill="currentColor">
    <path
       transform="translate(4,39)"
       d="m1-37c-1.662 0-3 1.338-3 3v22c0 1.662 1.338 3 3 3h5v-20h10v-8h-15zm17 0v28h5c1.662 0 3-1.338 3-3v-22c0-1.662-1.338-3-3-3h-5zm-10 10v18h8v-18h-8z"
       stroke-width="1.4"
       id="path12" />
    <rect
       y="4.4409e-16"
       width="32"
       height="32"
       ry=".64"
       fill-opacity="0"
       id="rect14" />
  </g>
  <g
     id="16-16-manjaro-settings-manager"
     transform="translate(-299 -510.36)"
     class="ColorScheme-Text"
     fill="currentColor">
    <rect
       x="303"
       y="537.36"
       width="16"
       height="16"
       fill="none"
       id="rect17" />
    <path
       transform="translate(299 510.36)"
       d="m8 29c-1.108 0-2 0.892-2 2v8c0 1.108 0.892 2 2 2h1v-9h5v-3h-6zm7 0v12h1c1.108 0 2-0.892 2-2v-8c0-1.108-0.892-2-2-2h-1zm-5 4v8h4v-8h-4z"
       id="path19" />
  </g>
</svg>
