<?xml version="1.0" encoding="UTF-8" standalone="no"?>
<svg
   xmlns:dc="http://purl.org/dc/elements/1.1/"
   xmlns:cc="http://creativecommons.org/ns#"
   xmlns:rdf="http://www.w3.org/1999/02/22-rdf-syntax-ns#"
   xmlns:svg="http://www.w3.org/2000/svg"
   xmlns="http://www.w3.org/2000/svg"
   xmlns:xlink="http://www.w3.org/1999/xlink"
   width="22"
   height="22"
   version="1.0"
   id="svg39">
  <metadata
     id="metadata43">
    <rdf:RDF>
      <cc:Work
         rdf:about="">
        <dc:format>image/svg+xml</dc:format>
        <dc:type
           rdf:resource="http://purl.org/dc/dcmitype/StillImage" />
        <dc:title></dc:title>
      </cc:Work>
    </rdf:RDF>
  </metadata>
  <defs
     id="defs3">
    <style
       id="current-color-scheme"
       type="text/css">
      .ColorScheme-Text {
        color:#31363b;
      }
      .ColorScheme-Background{
        color:#eff0f1;
      }
      .ColorScheme-ViewText {
        color:#31363b;
      }
      .ColorScheme-ViewBackground{
        color:#363636;
      }
      .ColorScheme-ViewHover {
        color:#000000;
      }
      .ColorScheme-ViewFocus{
        color:#5a5a5a;
      }
      .ColorScheme-ButtonText {
        color:#31363b;
      }
      .ColorScheme-ButtonBackground{
        color:#E9E8E8;
      }
      .ColorScheme-ButtonHover {
        color:#1489ff;
      }
      .ColorScheme-ButtonFocus{
        color:#2B74C7;
      }
</style>
  </defs>
  <g
     id="media-playback-paused">
    <rect
       y="3.0111023e-05"
       x="0.00021084554"
       height="21.99991"
       width="22"
       id="rect3003-0-3"
       style="color:#31363b;opacity:0.01;fill:#ed1515;fill-opacity:0.00392157;stroke:none;stroke-width:1.49998" />
    <g
       id="g878">
      <path
         d="M 10.990234 2 A 9 9 0 0 0 2 11 A 9 9 0 0 0 11 20 A 9 9 0 0 0 20 11 A 9 9 0 0 0 11 2 A 9 9 0 0 0 10.990234 2 z M 10.90625 4 A 7 7 0 0 1 11 4 A 7 7 0 0 1 18 11 A 7 7 0 0 1 11 18 A 7 7 0 0 1 4 11 A 7 7 0 0 1 10.90625 4 z M 9 8 C 8.446 8 8 8.446 8 9 L 8 13 C 8 13.554 8.446 14 9 14 C 9.554 14 10 13.554 10 13 L 10 9 C 10 8.446 9.554 8 9 8 z M 13 8 C 12.446 8 12 8.446 12 9 L 12 13 C 12 13.554 12.446 14 13 14 C 13.554 14 14 13.554 14 13 L 14 9 C 14 8.446 13.554 8 13 8 z "
         style="opacity:1;fill:#363636;stroke-width:2;stroke-linecap:round;stroke-linejoin:round;paint-order:stroke fill markers"
         id="path864" />
    </g>
  </g>
  <g
     id="media-playback-playing"
     transform="translate(25.001579,23)">
    <rect
       style="color:#31363b;opacity:0.01;fill:#ed1515;fill-opacity:0.00392157;stroke:none;stroke-width:1.49998"
       id="rect895"
       width="22"
       height="21.99991"
       x="0.00021084554"
       y="-22.999969" />
    <path
       transform="translate(-25.001579,-23)"
       d="M 35.992188 2 A 9 9 0 0 0 27.001953 11 A 9 9 0 0 0 36.001953 20 A 9 9 0 0 0 45.001953 11 A 9 9 0 0 0 36.001953 2 A 9 9 0 0 0 35.992188 2 z M 35.90625 4 A 7 7 0 0 1 35.908203 4 A 7 7 0 0 1 36.001953 4 A 7 7 0 0 1 43.001953 11 A 7 7 0 0 1 36.001953 18 A 7 7 0 0 1 29.001953 11 A 7 7 0 0 1 35.90625 4 z M 34.558594 7.8027344 C 34.397626 7.8226844 34.26402 7.8926199 34.15625 8.0136719 C 34.048494 8.1347299 33.994141 8.2771561 33.994141 8.4394531 L 33.994141 13.560547 C 33.994141 13.722844 34.048497 13.865265 34.15625 13.986328 C 34.264007 14.107388 34.397628 14.17731 34.558594 14.197266 C 34.719562 14.217224 34.865643 14.181641 35 14.089844 L 38.714844 11.529297 C 38.833243 11.448147 38.915717 11.337487 38.960938 11.203125 C 39.006177 11.067432 39.006178 10.933207 38.960938 10.798828 C 38.915698 10.664469 38.833875 10.555126 38.716797 10.472656 L 35 7.9101562 C 34.866081 7.8170342 34.719117 7.782335 34.558594 7.8027344 z "
       fill="currentColor"
       class="ColorScheme-Text"
       id="path897" />
  </g>
  <g
     id="media-playback-stopped"
     transform="translate(0,26)">
    <rect
       y="-25.999956"
       x="48"
       height="21.99991"
       width="22"
       id="rect940"
       style="color:#31363b;opacity:0.01;fill:#ed1515;fill-opacity:0.00392157;stroke:none;stroke-width:1.49998" />
    <path
       transform="translate(0,-26)"
       d="M 58.990234 2 A 9 9 0 0 0 50 11 A 9 9 0 0 0 59 20 A 9 9 0 0 0 68 11 A 9 9 0 0 0 59 2 A 9 9 0 0 0 58.990234 2 z M 58.904297 4 A 7 7 0 0 1 58.90625 4 A 7 7 0 0 1 59 4 A 7 7 0 0 1 66 11 A 7 7 0 0 1 59 18 A 7 7 0 0 1 52 11 A 7 7 0 0 1 58.904297 4 z M 57 8 C 56.446 8 56 8.446 56 9 L 56 13 C 56 13.554 56.446 14 57 14 L 61 14 C 61.554 14 62 13.554 62 13 L 62 9 C 62 8.446 61.554 8 61 8 L 57 8 z "
       fill="currentColor"
       class="ColorScheme-Text"
       id="path942" />
  </g>
  <g
     id="media-record">
    <rect
       style="color:#31363b;opacity:0.01;fill:#ed1515;fill-opacity:0.00392157;stroke:none;stroke-width:1.49998"
       id="rect964"
       width="22"
       height="21.99991"
       x="73"
       y="4.3869019e-05" />
    <path
       d="M 83.990234 2 A 9 9 0 0 0 75 11 A 9 9 0 0 0 84 20 A 9 9 0 0 0 93 11 A 9 9 0 0 0 84 2 A 9 9 0 0 0 83.990234 2 z M 83.904297 4 A 7 7 0 0 1 83.90625 4 A 7 7 0 0 1 84 4 A 7 7 0 0 1 91 11 A 7 7 0 0 1 84 18 A 7 7 0 0 1 77 11 A 7 7 0 0 1 83.904297 4 z M 83.939453 7 A 4 4 0 0 0 80 11 A 4 4 0 0 0 84 15 A 4 4 0 0 0 88 11 A 4 4 0 0 0 84 7 A 4 4 0 0 0 83.939453 7 z "
       style="fill:#363636;stroke-width:2;stroke-linecap:round;stroke-linejoin:round;paint-order:stroke fill markers;fill-opacity:1"
       id="path966" />
  </g>
  <g
     transform="translate(122.99586,23)"
     id="media-seek-forward">
    <rect
       y="-22.999969"
       x="0.00021084554"
       height="21.99991"
       width="22"
       id="rect982"
       style="color:#31363b;opacity:0.01;fill:#ed1515;fill-opacity:0.00392157;stroke:none;stroke-width:1.49998" />
    <path
       transform="translate(-122.99586,-23)"
       d="M 133.98633 2 A 9 9 0 0 0 124.99609 11 A 9 9 0 0 0 133.99609 20 A 9 9 0 0 0 142.99609 11 A 9 9 0 0 0 133.99609 2 A 9 9 0 0 0 133.98633 2 z M 133.90039 4 A 7 7 0 0 1 133.90234 4 A 7 7 0 0 1 133.99609 4 A 7 7 0 0 1 140.99609 11 A 7 7 0 0 1 133.99609 18 A 7 7 0 0 1 126.99609 11 A 7 7 0 0 1 133.90039 4 z M 130.55859 7.8027344 C 130.39763 7.8226844 130.26402 7.8926199 130.15625 8.0136719 C 130.04849 8.1347299 129.99414 8.2771561 129.99414 8.4394531 L 129.99414 13.560547 C 129.99414 13.722844 130.0485 13.865265 130.15625 13.986328 C 130.26401 14.107388 130.39763 14.17731 130.55859 14.197266 C 130.71956 14.217224 130.86564 14.181641 131 14.089844 L 133.99414 12.025391 L 133.99414 13.560547 C 133.99414 13.722844 134.04849 13.865265 134.15625 13.986328 C 134.26401 14.107388 134.39763 14.17731 134.55859 14.197266 C 134.71956 14.217224 134.86564 14.181641 135 14.089844 L 138.71484 11.529297 C 138.83324 11.448147 138.91572 11.337487 138.96094 11.203125 C 139.00618 11.067432 139.00618 10.933207 138.96094 10.798828 C 138.9157 10.664469 138.83387 10.555126 138.7168 10.472656 L 135 7.9101562 C 134.86608 7.8170342 134.71912 7.782335 134.55859 7.8027344 C 134.39763 7.8226844 134.26402 7.8926199 134.15625 8.0136719 C 134.0485 8.1347299 133.99414 8.2771561 133.99414 8.4394531 L 133.99414 9.9746094 L 131 7.9101562 C 130.86608 7.8170342 130.71912 7.782335 130.55859 7.8027344 z "
       fill="currentColor"
       class="ColorScheme-Text"
       id="path984" />
  </g>
  <g
     id="media-seek-backward"
     transform="matrix(-1,0,0,1,119.99628,23)">
    <rect
       style="color:#31363b;opacity:0.01;fill:#ed1515;fill-opacity:0.00392157;stroke:none;stroke-width:1.49998"
       id="rect992"
       width="22"
       height="21.99991"
       x="0.00021084554"
       y="-22.999969" />
    <path
       transform="matrix(-1,0,0,1,119.99628,-23)"
       d="M 108.99609 2 A -9 9 0 0 0 99.996094 11 A -9 9 0 0 0 108.99609 20 A -9 9 0 0 0 117.99609 11 A -9 9 0 0 0 109.00586 2 A -9 9 0 0 0 108.99609 2 z M 108.99609 4 A -7 7 0 0 1 109.08984 4 A -7 7 0 0 1 115.99609 11 A -7 7 0 0 1 108.99609 18 A -7 7 0 0 1 101.99609 11 A -7 7 0 0 1 108.99609 4 z M 108.43359 7.8027344 C 108.27307 7.782335 108.12611 7.8170342 107.99219 7.9101562 L 104.27539 10.472656 C 104.15831 10.555126 104.07649 10.664469 104.03125 10.798828 C 103.98601 10.933207 103.98601 11.067432 104.03125 11.203125 C 104.07647 11.337487 104.15894 11.448147 104.27734 11.529297 L 107.99219 14.089844 C 108.12654 14.181641 108.27263 14.217224 108.43359 14.197266 C 108.59456 14.17731 108.72818 14.107388 108.83594 13.986328 C 108.94369 13.865265 108.99805 13.722844 108.99805 13.560547 L 108.99805 12.025391 L 111.99219 14.089844 C 112.12654 14.181641 112.27263 14.217224 112.43359 14.197266 C 112.59456 14.17731 112.72818 14.107388 112.83594 13.986328 C 112.94369 13.865265 112.99805 13.722844 112.99805 13.560547 L 112.99805 8.4394531 C 112.99805 8.2771561 112.94369 8.1347299 112.83594 8.0136719 C 112.72817 7.8926199 112.59456 7.8226844 112.43359 7.8027344 C 112.27307 7.782335 112.12611 7.8170342 111.99219 7.9101562 L 108.99805 9.9746094 L 108.99805 8.4394531 C 108.99805 8.2771561 108.94369 8.1347299 108.83594 8.0136719 C 108.72817 7.8926199 108.59456 7.8226844 108.43359 7.8027344 z "
       fill="currentColor"
       class="ColorScheme-Text"
       id="path994" />
  </g>
  <g
     id="media-skip-forward">
    <rect
       y="3.0517578e-05"
       x="170.00179"
       height="21.99991"
       width="22"
       id="rect1010"
       style="color:#31363b;opacity:0.01;fill:#ed1515;fill-opacity:0.00392157;stroke:none;stroke-width:1.49998" />
    <path
       d="M 180.99219 2 A 9 9 0 0 0 172.00195 11 A 9 9 0 0 0 181.00195 20 A 9 9 0 0 0 190.00195 11 A 9 9 0 0 0 181.00195 2 A 9 9 0 0 0 180.99219 2 z M 180.90625 4 A 7 7 0 0 1 180.9082 4 A 7 7 0 0 1 181.00195 4 A 7 7 0 0 1 188.00195 11 A 7 7 0 0 1 181.00195 18 A 7 7 0 0 1 174.00195 11 A 7 7 0 0 1 180.90625 4 z M 177.56445 7.8027344 C 177.40348 7.8226844 177.26988 7.8926199 177.16211 8.0136719 C 177.05435 8.1347299 177 8.2771561 177 8.4394531 L 177 13.560547 C 177 13.722844 177.05431 13.865265 177.16211 13.986328 C 177.26986 14.107388 177.40348 14.17731 177.56445 14.197266 C 177.72542 14.217226 177.8715 14.181639 178.00586 14.089844 L 181.7207 11.529297 C 181.8391 11.448147 181.92158 11.337487 181.9668 11.203125 C 182.012 11.067432 182.012 10.933207 181.9668 10.798828 C 181.9216 10.664469 181.83974 10.555126 181.72266 10.472656 L 178.00586 7.9101562 C 177.87194 7.8170343 177.72497 7.782335 177.56445 7.8027344 z M 184 8 C 183.446 8 183 8.446 183 9 L 183 13 C 183 13.554 183.446 14 184 14 C 184.554 14 185 13.554 185 13 L 185 9 C 185 8.446 184.554 8 184 8 z "
       fill="currentColor"
       class="ColorScheme-Text"
       id="path1012" />
  </g>
  <g
     id="media-skip-backward"
     transform="matrix(-1,0,0,1,338.99785,0)">
    <rect
       style="color:#31363b;opacity:0.01;fill:#ed1515;fill-opacity:0.00392157;stroke:none;stroke-width:1.49998"
       id="rect1029"
       width="22"
       height="21.99991"
       x="170.00179"
       y="3.0517578e-05" />
    <path
       transform="matrix(-1,0,0,1,338.99785,0)"
       d="M 157.99609 2 A -9 9 0 0 0 148.99609 11 A -9 9 0 0 0 157.99609 20 A -9 9 0 0 0 166.99609 11 A -9 9 0 0 0 158.00586 2 A -9 9 0 0 0 157.99609 2 z M 157.99609 4 A -7 7 0 0 1 158.08984 4 A -7 7 0 0 1 164.99609 11 A -7 7 0 0 1 157.99609 18 A -7 7 0 0 1 150.99609 11 A -7 7 0 0 1 157.99609 4 z M 161.43359 7.8027344 C 161.27307 7.782335 161.12611 7.8170343 160.99219 7.9101562 L 157.27539 10.472656 C 157.15831 10.555126 157.07645 10.664469 157.03125 10.798828 C 156.98605 10.933207 156.98605 11.067432 157.03125 11.203125 C 157.07647 11.337487 157.15894 11.448147 157.27734 11.529297 L 160.99219 14.089844 C 161.12655 14.181639 161.27262 14.217226 161.43359 14.197266 C 161.59456 14.17731 161.72819 14.107388 161.83594 13.986328 C 161.94374 13.865265 161.99805 13.722844 161.99805 13.560547 L 161.99805 8.4394531 C 161.99805 8.2771561 161.9437 8.1347299 161.83594 8.0136719 C 161.72817 7.8926199 161.59456 7.8226844 161.43359 7.8027344 z M 154.99805 8 C 154.44405 8 153.99805 8.446 153.99805 9 L 153.99805 13 C 153.99805 13.554 154.44405 14 154.99805 14 C 155.55205 14 155.99805 13.554 155.99805 13 L 155.99805 9 C 155.99805 8.446 155.55205 8 154.99805 8 z "
       fill="currentColor"
       class="ColorScheme-Text"
       id="path1031" />
  </g>
  <g
     id="media-eject"
     transform="rotate(-90,194.5009,-2.4991193)">
    <rect
       style="color:#31363b;opacity:0.01;fill:#ed1515;fill-opacity:0.00392157;stroke:none;stroke-width:1.49998"
       id="rect1039"
       width="22"
       height="21.99991"
       x="170.00179"
       y="3.0517578e-05" />
    <path
       transform="rotate(90,194.5009,-2.4991193)"
       d="M 208 2 A 9 9 0 0 0 199 11 A 9 9 0 0 0 199 11.009766 A 9 9 0 0 0 208 20 A 9 9 0 0 0 217 11 A 9 9 0 0 0 208 2 z M 207.90625 4 A 7 7 0 0 1 208 4 A 7 7 0 0 1 215 11 A 7 7 0 0 1 208 18 A 7 7 0 0 1 201 11.09375 A 7 7 0 0 1 201 11 A 7 7 0 0 1 207.90625 4 z M 208 5.7558594 C 207.91549 5.7558594 207.83194 5.7706281 207.74805 5.7988281 C 207.58028 5.8552281 207.44477 5.9573156 207.3418 6.1035156 L 204.14258 10.744141 C 204.0263 10.911361 203.98234 11.094489 204.00781 11.294922 C 204.03272 11.495922 204.12033 11.662305 204.27148 11.796875 C 204.42264 11.931435 204.60008 12 204.80273 12 L 211.19727 12 C 211.39992 12 211.57735 11.931535 211.72852 11.796875 C 211.87968 11.662335 211.96922 11.495922 211.99414 11.294922 C 212.01906 11.093932 211.97204 10.911911 211.85742 10.744141 L 208.66016 6.1054688 C 208.55883 5.9576287 208.42168 5.8552881 208.25391 5.7988281 C 208.16919 5.7706281 208.08451 5.7558594 208 5.7558594 z M 205 13 C 204.44602 13 204 13.446 204 14 C 204 14.554 204.44602 15 205 15 L 211 15 C 211.55398 15 212 14.554 212 14 C 212 13.446 211.55398 13 211 13 L 205 13 z "
       fill="currentColor"
       class="ColorScheme-Text"
       id="path1041" />
  </g>
  <use
     x="0"
     y="0"
     xlink:href="#media-playback-paused"
     id="media-playback-pause"
     transform="translate(0,46)"
     width="100%"
     height="100%" />
  <use
     x="0"
     y="0"
     xlink:href="#media-playback-playing"
     id="media-playback-start"
     transform="translate(0,47.088869)"
     width="100%"
     height="100%" />
  <use
     x="0"
     y="0"
     xlink:href="#media-playback-stopped"
     id="use1053"
     transform="translate(0,47)"
     width="100%"
     height="100%" />
</svg>
