<?xml version="1.0" encoding="UTF-8" standalone="no"?>
<svg
   xmlns:dc="http://purl.org/dc/elements/1.1/"
   xmlns:cc="http://creativecommons.org/ns#"
   xmlns:rdf="http://www.w3.org/1999/02/22-rdf-syntax-ns#"
   xmlns:svg="http://www.w3.org/2000/svg"
   xmlns="http://www.w3.org/2000/svg"
   id="svg57"
   viewBox="0 0 32 32"
   version="1.1">
  <metadata
     id="metadata61">
    <rdf:RDF>
      <cc:Work
         rdf:about="">
        <dc:format>image/svg+xml</dc:format>
        <dc:type
           rdf:resource="http://purl.org/dc/dcmitype/StillImage" />
        <dc:title></dc:title>
      </cc:Work>
    </rdf:RDF>
  </metadata>
  <defs
     id="defs3">
    <style
       type="text/css"
       id="current-color-scheme">.ColorScheme-Text { color:#363636; }</style>
  </defs>
  <g
     transform="translate(-321 -529.36)"
     id="phone">
    <path
       id="path5"
       fill="currentColor"
       d="m331 531.36c-1.108 0-2 0.89199-2 2v24c0 1.108 0.892 2 2 2h12c1.108 0 2-0.89199 2-2v-24c0-1.108-0.892-2-2-2h-9.6523zm0 1h2.4922l0.49023 0.65234c0.11592 0.15381 0.15505 0.34766 0.34766 0.34766h5.3398c0.19261 0 0.23174-0.19385 0.34766-0.34766l0.49023-0.65234h2.4922c0.554 0 1 0.446 1 1v24c0 0.554-0.446 1-1 1h-12c-0.554 0-1-0.446-1-1v-24c0-0.554 0.446-1 1-1z" />
    <rect
       id="rect7"
       fill="none"
       height="32"
       width="32"
       y="529.36"
       x="321" />
    <rect
       id="rect9"
       fill="currentColor"
       ry=".5"
       height="1"
       width="8"
       y="556.36"
       x="333" />
  </g>
  <g
     transform="translate(-322,-487.36)"
     id="16-16-phone">
    <rect
       id="rect12"
       opacity="0"
       ry=".42105"
       height="16"
       width="16"
       y="494.36"
       x="301" />
    <path
       id="path14"
       fill="currentColor"
       d="m-14-34c-1.108 0-2 0.892-2 2v10c0 1.108 0.89199 2 2 2h4c1.108 0 2-0.89199 2-2v-10c0-1.108-0.89199-2-2-2zm0 1h4c0.55401 0 1 0.446 1 1v10c0 0.55401-0.44599 1-1 1h-4c-0.55401 0-1-0.44599-1-1v-10c0-0.554 0.44599-1 1-1z"
       transform="translate(321,529.36)" />
    <circle
       id="circle16"
       opacity=".5"
       fill="currentColor"
       r=".5"
       cy="497.86"
       cx="307.5" />
  </g>
  <g
     transform="translate(-321,-529.36)"
     id="phone-battery">
    <path
       id="path19"
       fill="currentColor"
       d="m331 489.36c-1.108 0-2 0.89199-2 2v24c0 1.108 0.892 2 2 2h12c1.108 0 2-0.89199 2-2v-24c0-1.108-0.892-2-2-2h-9.6523zm0 1h2.4922l0.49023 0.65234c0.11592 0.15381 0.15505 0.34766 0.34766 0.34766h5.3398c0.19261 0 0.23174-0.19385 0.34766-0.34766l0.49023-0.65234h2.4922c0.554 0 1 0.446 1 1v24c0 0.554-0.446 1-1 1h-12c-0.554 0-1-0.446-1-1v-24c0-0.554 0.446-1 1-1z" />
    <rect
       id="rect21"
       fill="none"
       height="32"
       width="32"
       y="487.36"
       x="321" />
    <rect
       id="rect23"
       fill="currentColor"
       ry=".5"
       height="1"
       width="8"
       y="514.36"
       x="333" />
    <path
       id="path25"
       fill="currentColor"
       d="m337.5 496.36-4 8h2.5v6l4.5-8h-3z"
       class="ColorScheme-Text" />
  </g>
  <g
     transform="translate(-321,-529.36)"
     id="16-16-phone-battery">
    <rect
       id="rect28"
       opacity="0"
       ry=".42105"
       height="16"
       width="16"
       y="494.36"
       x="300" />
    <path
       id="path30"
       fill="currentColor"
       d="m306 495.36c-1.108 0-2 0.892-2 2v10c0 1.108 0.89199 2 2 2h4c1.108 0 2-0.89199 2-2v-10c0-1.108-0.89199-2-2-2zm0 1h4c0.55401 0 1 0.446 1 1v10c0 0.55401-0.44599 1-1 1h-4c-0.55401 0-1-0.44599-1-1v-10c0-0.554 0.44599-1 1-1z" />
    <circle
       id="circle32"
       opacity=".5"
       fill="currentColor"
       r=".5"
       cy="497.86"
       cx="306.5" />
    <path
       id="path34"
       fill="currentColor"
       d="m308 505.36 1-3h-1v-2l-1 3h1z"
       class="ColorScheme-Text" />
  </g>
  <g
     transform="translate(-321,-529.36)"
     id="22-22-phone-battery">
    <rect
       id="rect37"
       fill="none"
       height="22"
       width="22"
       y="493.36"
       x="362" />
    <rect
       id="rect39"
       fill="currentColor"
       ry=".49997"
       height=".99994"
       width="6"
       y="510.36"
       x="370" />
    <path
       id="path41"
       fill="currentColor"
       d="m373 500.36-2 5h2v3l2-5h-2z"
       class="ColorScheme-Text" />
    <path
       id="path43"
       fill="currentColor"
       d="m369 494.36c-1.662 0-3 1.338-3 3v14c0 1.662 1.338 3 3 3h8c1.662 0 3-1.338 3-3v-14c0-1.662-1.338-3-3-3zm0 1h8c1.108 0 2 0.89201 2 2v14c0 1.108-0.89201 2-2 2h-8c-1.108 0-2-0.89201-2-2v-14c0-1.108 0.89201-2 2-2z" />
    <rect
       id="rect45"
       ry="1"
       height="2"
       width="6"
       y="494.36"
       x="370" />
  </g>
  <g
     transform="translate(-321,-529.36)"
     id="22-22-phone">
    <rect
       id="rect48"
       fill="none"
       height="22"
       width="22"
       y="535.36"
       x="362" />
    <rect
       id="rect50"
       opacity=".5"
       fill="currentColor"
       ry=".49997"
       height=".99994"
       width="6"
       y="552.36"
       x="370" />
    <path
       id="path52"
       fill="currentColor"
       d="m369 536.36c-1.662 0-3 1.338-3 3v14c0 1.662 1.338 3 3 3h8c1.662 0 3-1.338 3-3v-14c0-1.662-1.338-3-3-3zm0 1h8c1.108 0 2 0.89201 2 2v14c0 1.108-0.89201 2-2 2h-8c-1.108 0-2-0.89201-2-2v-14c0-1.108 0.89201-2 2-2z" />
    <rect
       id="rect54"
       fill="currentColor"
       ry="1"
       height="2"
       width="6"
       y="536.36"
       x="370" />
  </g>
</svg>
