<?xml version="1.0" encoding="UTF-8" standalone="no"?>
<svg
   xmlns:dc="http://purl.org/dc/elements/1.1/"
   xmlns:cc="http://creativecommons.org/ns#"
   xmlns:rdf="http://www.w3.org/1999/02/22-rdf-syntax-ns#"
   xmlns:svg="http://www.w3.org/2000/svg"
   xmlns="http://www.w3.org/2000/svg"
   xmlns:sodipodi="http://sodipodi.sourceforge.net/DTD/sodipodi-0.dtd"
   xmlns:inkscape="http://www.inkscape.org/namespaces/inkscape"
   viewBox="0 0 45.999996 44"
   inkscape:output_extension="org.inkscape.output.svgz.inkscape"
   sodipodi:docname="zoom.svgz"
   version="1.0"
   inkscape:version="1.0 (4035a4fb49, 2020-05-01)"
   sodipodi:version="0.32"
   id="svg7229"
   height="44"
   width="45.999996">
  <defs
     id="defs7231">
    <style
       type="text/css"
       id="current-color-scheme">
      .ColorScheme-Text {
        color:#000000;
      }
      .ColorScheme-Background{
        color:#E9E8E8;
      }
      .ColorScheme-ViewText {
        color:#000000;
      }
      .ColorScheme-ViewBackground{
        color:#363636;
      }
      .ColorScheme-ViewHover {
        color:#000000;
      }
      .ColorScheme-ViewFocus{
        color:#5a5a5a;
      }
      .ColorScheme-ButtonText {
        color:#000000;
      }
      .ColorScheme-ButtonBackground{
        color:#E9E8E8;
      }
      .ColorScheme-ButtonHover {
        color:#1489ff;
      }
      .ColorScheme-ButtonFocus{
        color:#2B74C7;
      }
</style>
    <style
       id="style3"
       type="text/css">
      .ColorScheme-Text {
        color:#31363b;
      }
      .ColorScheme-Background {
        color:#eff0f1;
      }
      .ColorScheme-Highlight {
        color:#3daee9;
      }
      .ColorScheme-ViewText {
        color:#31363b;
      }
      .ColorScheme-ViewBackground {
        color:#fcfcfc;
      }
      .ColorScheme-ViewHover {
        color:#93cee9;
      }
      .ColorScheme-ViewFocus{
        color:#3daee9;
      }
      .ColorScheme-ButtonText {
        color:#31363b;
      }
      .ColorScheme-ButtonBackground {
        color:#eff0f1;
      }
      .ColorScheme-ButtonHover {
        color:#93cee9;
      }
      .ColorScheme-ButtonFocus{
        color:#3daee9;
      }
      </style>
  </defs>
  <sodipodi:namedview
     inkscape:document-rotation="0"
     borderlayer="true"
     inkscape:showpageshadow="false"
     inkscape:snap-nodes="true"
     fit-margin-bottom="0"
     fit-margin-right="0"
     fit-margin-left="0"
     fit-margin-top="0"
     inkscape:object-nodes="true"
     inkscape:snap-intersection-paths="true"
     inkscape:object-paths="true"
     inkscape:snap-bbox-midpoints="false"
     inkscape:bbox-paths="false"
     inkscape:bbox-nodes="false"
     inkscape:snap-bbox-edge-midpoints="false"
     inkscape:snap-bbox="true"
     inkscape:window-maximized="1"
     gridtolerance="6"
     inkscape:guide-bbox="true"
     showguides="true"
     inkscape:window-y="32"
     inkscape:window-x="0"
     inkscape:window-height="1048"
     inkscape:window-width="1920"
     showgrid="true"
     inkscape:current-layer="layer1"
     inkscape:document-units="px"
     inkscape:cy="24.654586"
     inkscape:cx="-3.1673199"
     inkscape:zoom="8"
     inkscape:pageshadow="2"
     inkscape:pageopacity="0"
     borderopacity="1.0"
     bordercolor="#666666"
     pagecolor="#5b5b5b"
     id="base">
    <inkscape:grid
       spacingy="1"
       spacingx="1"
       originy="-13.999998"
       originx="-63.012512"
       snapvisiblegridlinesonly="true"
       empspacing="5"
       enabled="true"
       visible="true"
       id="grid7245"
       type="xygrid" />
  </sodipodi:namedview>
  <metadata
     id="metadata7234">
    <rdf:RDF>
      <cc:Work
         rdf:about="">
        <dc:format>image/svg+xml</dc:format>
        <dc:type
           rdf:resource="http://purl.org/dc/dcmitype/StillImage" />
        <dc:title></dc:title>
      </cc:Work>
    </rdf:RDF>
  </metadata>
  <g
     transform="translate(-277.54823,-368.50505)"
     id="layer1"
     inkscape:groupmode="layer"
     inkscape:label="Camada 1">
    <g
       style="fill:#363636"
       transform="translate(25.012515,25.000004)"
       id="zoom-fit-height">
      <path
         class="ColorScheme-Text"
         style="fill:#363636;fill-opacity:1;stroke:none"
         d="m 253.5232,366.50504 0,1 10,0 10,0 0,-1 -20,0 z m 10,1 -3,3 2,0 0,3.1875 c -1.15834,0.41552 -2,1.51119 -2,2.8125 0,1.30132 0.84166,2.39699 2,2.8125 l 0,3.1875 -2,0 3,3 3,-3 -2,0 0,-3.1875 c 1.15835,-0.41551 2,-1.51118 2,-2.8125 0,-1.30131 -0.84165,-2.39698 -2,-2.8125 l 0,-3.1875 2,0 -3,-3 z m 0,18 -10,0 0,1 20,0 0,-1 -10,0 z m 0,-11 c 1.10457,0 2,0.89543 2,2 0,1.10457 -0.89543,2 -2,2 -1.10456,0 -2,-0.89543 -2,-2 0,-1.10457 0.89544,-2 2,-2 z"
         id="path4246"
         inkscape:connector-curvature="0" />
      <circle
         class="ColorScheme-Text"
         r="1"
         cy="11.000004"
         cx="11.012515"
         style="fill:#363636;fill-opacity:1;stroke:none"
         id="path3044"
         transform="translate(252.5232,365.50504)" />
      <rect
         style="fill:#363636;fill-opacity:0;stroke:none"
         id="rect3046"
         width="22"
         height="22"
         x="0.012515"
         y="4e-06"
         transform="translate(252.5232,365.50504)" />
    </g>
    <g
       id="zoom-fit-width"
       transform="rotate(90,275.54197,413.5113)">
      <path
         class="ColorScheme-Text"
         inkscape:connector-curvature="0"
         id="path3823"
         d="m 253.5232,366.50504 0,1 10,0 10,0 0,-1 -20,0 z m 10,1 -3,3 2,0 0,3.1875 c -1.15834,0.41552 -2,1.51119 -2,2.8125 0,1.30132 0.84166,2.39699 2,2.8125 l 0,3.1875 -2,0 3,3 3,-3 -2,0 0,-3.1875 c 1.15835,-0.41551 2,-1.51118 2,-2.8125 0,-1.30131 -0.84165,-2.39698 -2,-2.8125 l 0,-3.1875 2,0 -3,-3 z m 0,18 -10,0 0,1 20,0 0,-1 -10,0 z m 0,-11 c 1.10457,0 2,0.89543 2,2 0,1.10457 -0.89543,2 -2,2 -1.10456,0 -2,-0.89543 -2,-2 0,-1.10457 0.89544,-2 2,-2 z"
         style="fill:#363636;fill-opacity:1;stroke:none" />
      <circle
         class="ColorScheme-Text"
         r="1"
         cy="11.000004"
         cx="11.012515"
         transform="translate(252.5232,365.50504)"
         id="path3825"
         style="fill:#363636;fill-opacity:1;stroke:none" />
      <rect
         transform="translate(252.5232,365.50504)"
         y="4e-06"
         x="0.012515"
         height="22"
         width="22"
         id="rect3827"
         style="fill:#566060;fill-opacity:0;stroke:none" />
    </g>
    <g
       transform="translate(45.012518,6e-6)"
       id="16-16-zoom-fit-height">
      <path
         class="ColorScheme-Text"
         style="fill:#363636;fill-opacity:1;stroke:none"
         d="m 256.5232,369.50504 0,1 7,0 7,0 0,-1 -14,0 z m 7,1 -2,2 1,0 c 0,0 0.007,1.1284 0,2.28125 -0.5969,0.34604 -1,0.97915 -1,1.71875 0,0.7396 0.4031,1.37271 1,1.71875 0.007,1.18625 0,2.3125 0,2.3125 l -1,0 1.96875,1.96875 -6.9375,0 0,1 13.96875,0 0,-1 -6.96875,0 1.96875,-1.96875 -1.03125,-0.0312 0,-2.25 c 0.61694,-0.34059 1.03125,-0.99545 1.03125,-1.75 0,-0.75455 -0.41431,-1.40941 -1.03125,-1.75 l 0,-2.21875 1.03125,-0.0312 -2,-2 z m -0.125,5.03125 0.25,0 c 0.4881,0.0662 0.875,0.46249 0.875,0.96875 0,0.55228 -0.44772,1 -1,1 -0.55228,0 -1,-0.44772 -1,-1 0,-0.50626 0.3869,-0.90253 0.875,-0.96875 z"
         id="path4248"
         inkscape:connector-curvature="0" />
      <rect
         style="fill:#566060;fill-opacity:0;stroke:none"
         id="rect3841"
         width="16"
         height="16"
         x="0.012518"
         y="6.0000002e-06"
         transform="translate(255.5232,368.50504)" />
    </g>
    <g
       transform="rotate(90,275.53572,388.50505)"
       id="16-16-zoom-fit-width">
      <path
         class="ColorScheme-Text"
         inkscape:connector-curvature="0"
         id="path3849"
         d="m 256.5232,369.50504 0,1 7,0 7,0 0,-1 -14,0 z m 7,1 -2,2 1,0 c 0,0 0.007,1.1284 0,2.28125 -0.5969,0.34604 -1,0.97915 -1,1.71875 0,0.7396 0.4031,1.37271 1,1.71875 0.007,1.18625 0,2.3125 0,2.3125 l -1,0 1.96875,1.96875 -6.9375,0 0,1 13.96875,0 0,-1 -6.96875,0 1.96875,-1.96875 -1.03125,-0.0312 0,-2.25 c 0.61694,-0.34059 1.03125,-0.99545 1.03125,-1.75 0,-0.75455 -0.41431,-1.40941 -1.03125,-1.75 l 0,-2.21875 1.03125,-0.0312 -2,-2 z m -0.125,5.03125 0.25,0 c 0.4881,0.0662 0.875,0.46249 0.875,0.96875 0,0.55228 -0.44772,1 -1,1 -0.55228,0 -1,-0.44772 -1,-1 0,-0.50626 0.3869,-0.90253 0.875,-0.96875 z"
         style="fill:#363636;fill-opacity:1;stroke:none" />
      <rect
         transform="translate(255.5232,368.50504)"
         y="6.0000002e-06"
         x="0.012518"
         height="16"
         width="16"
         id="rect3851"
         style="fill:#566060;fill-opacity:0;stroke:none" />
    </g>
  </g>
</svg>
