<?xml version="1.0" encoding="UTF-8" standalone="no"?>
<svg
   width="680"
   height="560"
   version="1.0"
   id="svg197"
   sodipodi:docname="decoration.svg"
   inkscape:version="1.3.2 (091e20ef0f, 2023-11-25)"
   xmlns:inkscape="http://www.inkscape.org/namespaces/inkscape"
   xmlns:sodipodi="http://sodipodi.sourceforge.net/DTD/sodipodi-0.dtd"
   xmlns:xlink="http://www.w3.org/1999/xlink"
   xmlns="http://www.w3.org/2000/svg"
   xmlns:svg="http://www.w3.org/2000/svg">
  <sodipodi:namedview
     id="namedview199"
     pagecolor="#808080"
     bordercolor="#666666"
     borderopacity="1.0"
     inkscape:showpageshadow="2"
     inkscape:pageopacity="0"
     inkscape:pagecheckerboard="0"
     inkscape:deskcolor="#d1d1d1"
     showgrid="false"
     showguides="true"
     inkscape:zoom="0.35355339"
     inkscape:cx="535.98694"
     inkscape:cy="301.22749"
     inkscape:window-width="1920"
     inkscape:window-height="950"
     inkscape:window-x="0"
     inkscape:window-y="32"
     inkscape:window-maximized="1"
     inkscape:current-layer="svg197">
    <inkscape:grid
       type="xygrid"
       id="grid403"
       originx="0"
       originy="0"
       spacingy="1"
       spacingx="1"
       units="px"
       visible="false" />
  </sodipodi:namedview>
  <defs
     id="defs40">
    <linearGradient
       id="shadow_active">
      <stop
         stop-color="#000000"
         stop-opacity=".92169"
         offset="0"
         id="stop2" />
      <stop
         stop-color="#000000"
         stop-opacity=".74096"
         offset=".125"
         id="stop4" />
      <stop
         stop-color="#000000"
         stop-opacity=".60241"
         offset=".25"
         id="stop6" />
      <stop
         stop-color="#000000"
         stop-opacity=".33133"
         offset=".5"
         id="stop8" />
      <stop
         stop-color="#000000"
         stop-opacity=".10843"
         offset=".75"
         id="stop10" />
      <stop
         stop-color="#000000"
         stop-opacity=".039216"
         offset=".875"
         id="stop12" />
      <stop
         stop-color="#000000"
         stop-opacity="0"
         offset="1"
         id="stop14" />
    </linearGradient>
    <linearGradient
       id="linearGradient5688"
       x1="398"
       x2="398"
       y1="138.14"
       y2="216.22"
       gradientTransform="matrix(1,0,0,1.0118,0,137.24)"
       gradientUnits="userSpaceOnUse"
       xlink:href="#shadow_active" />
    <linearGradient
       id="linearGradient6612"
       x1="396"
       x2="396"
       y1="64.167"
       y2="14.583"
       gradientTransform="matrix(1,0,0,1.0286,-215,50)"
       gradientUnits="userSpaceOnUse"
       xlink:href="#shadow_active" />
    <linearGradient
       id="linearGradient5688-2"
       x1="398"
       x2="398"
       y1="138.14"
       y2="171.74001"
       gradientTransform="matrix(1,0,0,1.0118,0,137.16)"
       gradientUnits="userSpaceOnUse"
       xlink:href="#shadow_inactive" />
    <linearGradient
       id="shadow_inactive">
      <stop
         stop-color="#000000"
         offset="0"
         id="stop20" />
      <stop
         stop-color="#000000"
         stop-opacity=".63855"
         offset=".25"
         id="stop22" />
      <stop
         stop-color="#000000"
         stop-opacity=".33735"
         offset=".5"
         id="stop24" />
      <stop
         stop-color="#000000"
         stop-opacity=".10843"
         offset=".75"
         id="stop26" />
      <stop
         stop-color="#000000"
         stop-opacity=".039216"
         offset=".875"
         id="stop28" />
      <stop
         stop-color="#000000"
         stop-opacity="0"
         offset="1"
         id="stop30" />
    </linearGradient>
    <linearGradient
       id="linearGradient6612-5"
       x1="396"
       x2="396"
       y1="66"
       y2="30"
       gradientTransform="translate(200,5)"
       gradientUnits="userSpaceOnUse"
       xlink:href="#shadow_inactive" />
    <linearGradient
       id="linearGradient1126"
       x1="348.48999"
       x2="279.41"
       y1="99"
       y2="99"
       gradientTransform="matrix(1.0133,0,0,1,-3.265,140)"
       gradientUnits="userSpaceOnUse"
       xlink:href="#shadow_active" />
    <radialGradient
       id="radialGradient1306"
       cx="296.48001"
       cy="80.417"
       r="17.5"
       gradientTransform="matrix(-9.492e-7,-2.9143,-4,1.1504e-6,746.67,1095.082)"
       gradientUnits="userSpaceOnUse"
       xlink:href="#shadow_active" />
    <linearGradient
       id="linearGradient1389"
       x1="348.48999"
       x2="304.09"
       y1="99.014999"
       y2="99.014999"
       gradientTransform="matrix(1.0133,0,0,1,-3.265,140)"
       gradientUnits="userSpaceOnUse"
       xlink:href="#shadow_inactive" />
    <radialGradient
       id="radialGradient965"
       cx="48.271"
       cy="178.72"
       r="17.5"
       gradientTransform="matrix(-4,2.0882339e-4,-2.2835311e-4,-4.4564796,303.12081,992.45643)"
       gradientUnits="userSpaceOnUse"
       xlink:href="#shadow_active"
       fx="48.271"
       fy="178.72" />
    <radialGradient
       id="radialGradient967"
       cx="48.271"
       cy="181.17999"
       r="17.5"
       gradientTransform="matrix(-2.5714,8.726104e-7,-2.0148e-7,-1.94426,454.13,653.05495)"
       gradientUnits="userSpaceOnUse"
       xlink:href="#shadow_inactive" />
    <radialGradient
       id="radialGradient969"
       cx="296.45001"
       cy="80.417"
       r="17.5"
       gradientTransform="matrix(-3.7608e-7,-2.0571,2.5714,-5.1233e-7,123.21,840.893)"
       gradientUnits="userSpaceOnUse"
       xlink:href="#shadow_inactive" />
    <linearGradient
       inkscape:collect="always"
       xlink:href="#shadow_active"
       id="linearGradient255"
       gradientUnits="userSpaceOnUse"
       gradientTransform="matrix(1.0133,0,0,1,-3.265,140)"
       x1="348.48999"
       y1="99"
       x2="279.41"
       y2="99" />
    <linearGradient
       inkscape:collect="always"
       xlink:href="#shadow_inactive"
       id="linearGradient257"
       gradientUnits="userSpaceOnUse"
       gradientTransform="matrix(1.0133,0,0,1,-3.265,140)"
       x1="348.48999"
       y1="99.014999"
       x2="304.09"
       y2="99.014999" />
  </defs>
  <g
     id="decoration-inactive-topleft"
     transform="matrix(2,0,0,2,245,-301.126)">
    <path
       d="m 260,180.063 v 51 h 41 v -18 c 0,-6.648 5.352,-12 12,-12 h 17 v -21 z"
       fill="url(#radialGradient969)"
       opacity="0.5"
       id="path42"
       style="fill:url(#radialGradient969)" />
    <g
       transform="translate(0,1)"
       id="g50">
      <g
         transform="translate(-19,25)"
         id="g48">
        <path
           transform="translate(-121,89.063)"
           d="m 453,86 c -6.648,0 -12,5.352 -12,12 v 18 h 29 V 86 Z"
           fill="#2d2d2d"
           id="path44" />
        <path
           transform="translate(-121,89.063)"
           d="m 453,86 c -6.648,0 -12,5.352 -12,12 v 1 c 0,-6.648 5.352,-12 12,-12 h 17 v -1 z"
           fill="#ffffff"
           opacity="0.08"
           id="path46" />
      </g>
    </g>
    <path
       transform="translate(-140,121.06)"
       d="m 453,79 c -7.202,0 -13,5.798 -13,13 v 18 h 1 V 92 c 0,-6.648 5.352,-12 12,-12 h 17 v -1 z"
       fill="#000000"
       opacity="0.75"
       id="path52" />
  </g>
  <g
     id="decoration-right"
     transform="matrix(-2,0,0,2,1164.76,-233)">
    <path
       d="m 279.88,197 v 86 h 41 v -86 z"
       fill="url(#linearGradient1126)"
       opacity="0.5"
       id="path55"
       style="fill:url(#linearGradient255)" />
    <path
       transform="matrix(-1,0,0,1,604.88,81)"
       d="m 284,116 v 86 h 1 v -86 z"
       fill="#000000"
       opacity="0.75"
       id="path57" />
    <path
       transform="translate(-255.12,76)"
       d="m 576,121 v 86 h 29 v -86 z"
       fill="#363636"
       id="path59" />
  </g>
  <g
     id="decoration-bottom"
     transform="matrix(2,0,0,2,-475,-221)">
    <path
       d="m 325,289 v 67 h 145 v -67 z"
       fill="url(#linearGradient5688)"
       opacity="0.5"
       id="path62"
       style="fill:url(#linearGradient5688)" />
    <path
       d="M 470,289 H 325 v 1 h 145 z"
       fill="#000000"
       opacity="0.75"
       id="path64" />
    <path
       d="M 470,277 H 325 v 12 h 145 z"
       fill="#242424"
       opacity="0.75"
       id="path66" />
  </g>
  <path
     id="decoration-center"
     d="M 175,161 V 333 H 465 V 161 Z"
     fill="#363636"
     style="stroke-width:2" />
  <g
     id="decoration-top"
     transform="matrix(2,0,0,2,-475,-251)">
    <path
       transform="translate(215,90)"
       d="M 110,65 V 86 H 255 V 65 Z"
       fill="url(#linearGradient6612)"
       opacity="0.5"
       id="path70"
       style="fill:url(#linearGradient6612)" />
    <path
       transform="translate(215,90)"
       d="m 110,85 v 1 h 145 v -1 z"
       fill="#000000"
       opacity="0.75"
       id="path72" />
    <path
       d="m 325,176 v 30 h 145 v -30 z"
       fill="#363636"
       id="path74" />
    <path
       d="m 325,176 v 1 h 145 v -1 z"
       fill="#ffffff"
       opacity="0.1"
       id="path76" />
  </g>
  <g
     id="decoration-left"
     transform="matrix(2,0,0,2,-524.76,-233)">
    <path
       d="m 279.88,197 v 86 h 41 v -86 z"
       opacity="0.5"
       id="path79"
       style="fill:url(#linearGradient1126)" />
    <path
       transform="translate(239.88,81)"
       d="m 80,116 v 86 h 1 v -86 z"
       fill="#000000"
       opacity="0.75"
       id="path81" />
    <path
       transform="translate(-255.12,76)"
       d="m 576,121 v 86 h 29 v -86 z"
       fill="#363636"
       id="path83" />
  </g>
  <g
     id="decoration-inactive-bottom"
     transform="matrix(2,0,0,2,255,-220.844)">
    <path
       d="m 325,288.92 v 67 h 145 v -67 z"
       fill="url(#linearGradient5688-2)"
       opacity="0.5"
       id="path86"
       style="fill:url(#linearGradient5688-2)" />
    <path
       d="M 470,288.92 H 325 v 1 h 145 z"
       fill="#000000"
       opacity="0.75"
       id="path88" />
    <path
       d="M 470,276.92 H 325 v 12 h 145 z"
       fill="#1a1a1a"
       opacity="0.75"
       id="path90" />
  </g>
  <path
     id="decoration-inactive-center"
     d="m 905,161 v 172 h 290 V 161 Z"
     fill="#2d2d2d"
     style="stroke-width:2" />
  <g
     id="decoration-inactive-top"
     transform="matrix(2,0,0,2,255,-251)">
    <path
       transform="translate(-200,135)"
       d="M 525,20 V 41 H 670 V 20 Z"
       fill="url(#linearGradient6612-5)"
       opacity="0.5"
       id="path94"
       style="fill:url(#linearGradient6612-5)" />
    <path
       transform="translate(-145,90)"
       d="m 470,85 v 1 h 145 v -1 z"
       fill="#000000"
       opacity="0.75"
       id="path96" />
    <path
       d="m 325,176 v 30 h 145 v -30 z"
       fill="#2d2d2d"
       id="path98" />
    <path
       d="m 325,176 v 1 h 145 v -1 z"
       fill="#ffffff"
       opacity="0.08"
       id="path100" />
  </g>
  <g
     id="decoration-inactive-left"
     transform="matrix(2,0,0,2,205.24,-233.031)">
    <path
       d="m 279.88,197.02 v 86 l 41,-0.0155 v -85.985 z"
       fill="url(#linearGradient1389)"
       opacity="0.5"
       id="path103"
       style="fill:url(#linearGradient257)" />
    <path
       d="m 319.88,197.02 v 86 h 1 v -86 z"
       fill="#000000"
       opacity="0.75"
       id="path105" />
    <path
       d="m 320.88,197.02 v 86 h 29 v -86 z"
       fill="#2d2d2d"
       id="path107" />
  </g>
  <g
     id="decoration-bottomleft"
     transform="matrix(2,0,0,2,-815,-247)">
    <path
       transform="translate(385,94)"
       d="m 81,196 c 0,6.648 5.352,12 12,12 h 17 v -12 z"
       fill="#242424"
       opacity="0.75"
       id="path110" />
    <g
       transform="matrix(1,0,0,0.99932,165,-10.667)"
       id="g118">
      <path
         transform="matrix(1,0,0,1.0007,220,104.74)"
         d="m 40,195.9944 v 78.99845 h 70 V 208 H 93 c -6.648,0 -12,-5.3576 -12,-12.0056 z"
         opacity="0.5"
         id="path112"
         style="fill:url(#radialGradient965)" />
      <g
         transform="translate(-20,24)"
         id="g114" />
      <path
         transform="matrix(1,0,0,1.0007,220,104.74)"
         d="m 80,196 c 0,7.202 5.798,13 13,13 h 17 v -1 H 93 c -6.648,0 -12,-5.352 -12,-12 z"
         fill="#000000"
         opacity="0.75"
         id="path116" />
    </g>
  </g>
  <g
     id="decoration-inactive-bottomleft"
     transform="matrix(2,0,0,2,-35,-239)">
    <path
       transform="translate(0,90)"
       d="m 441,196 c 0,6.648 5.352,12 12,12 h 17 v -12 z"
       fill="#1a1a1a"
       opacity="0.75"
       id="path121" />
    <g
       transform="matrix(1,0,0,0.99932,140,-14.604)"
       id="g129">
      <path
         d="m 260,300.80855 v 79.05376 h 70 v -67.04536 h -17 c -6.648,0 -12,-5.35575 -12,-12.0084 z"
         fill="url(#radialGradient967)"
         opacity="0.5"
         id="path123"
         style="fill:url(#radialGradient967);stroke-width:1.00035"
         sodipodi:nodetypes="ccccscc" />
      <g
         transform="translate(-20,24)"
         id="g125" />
      <path
         transform="matrix(1,0,0,1.0007,-140,104.68)"
         d="m 440,196 c 0,7.202 5.798,13 13,13 h 14 l 3,-1e-5 V 208 h -17 c -6.648,0 -12,-5.352 -12,-12 z"
         fill="#000000"
         opacity="0.75"
         id="path127" />
    </g>
  </g>
  <rect
     id="shadow-hint-top-margin"
     x="303"
     y="59"
     width="8"
     height="42"
     fill="#ff00ff"
     style="stroke-width:2" />
  <rect
     id="shadow-hint-bottom-margin"
     x="305"
     y="357"
     width="8"
     height="134"
     fill="#ff00ff"
     style="stroke-width:2" />
  <rect
     id="shadow-hint-right-margin"
     x="523"
     y="221"
     width="82"
     height="8"
     fill="#ff00ff"
     style="stroke-width:2" />
  <rect
     id="shadow-hint-left-margin"
     y="209"
     width="82"
     height="8"
     fill="#ff00ff"
     x="35"
     style="stroke-width:2" />
  <rect
     id="hint-top-margin"
     x="327"
     y="59"
     width="8"
     height="102"
     fill="#00ff29"
     style="stroke-width:2" />
  <rect
     id="hint-bottom-margin"
     x="329"
     y="333"
     width="8"
     height="158"
     fill="#00ff29"
     style="stroke-width:2" />
  <rect
     id="hint-right-margin"
     transform="rotate(90)"
     x="199"
     y="-605"
     width="8"
     height="140"
     fill="#00ff29"
     style="stroke-width:2" />
  <rect
     id="hint-left-margin"
     transform="rotate(90)"
     x="193"
     y="-175"
     width="8"
     height="140"
     fill="#00ff29"
     style="stroke-width:2" />
  <g
     id="decoration-topleft"
     transform="matrix(-2,0,0,2,1025,-301.124)">
    <path
       d="m 495,180.062 v 51 h -41 v -18 c 0,-6.648 -5.352,-12 -12,-12 h -17 v -21 z"
       fill="url(#radialGradient1306)"
       opacity="0.5"
       id="path140"
       style="fill:url(#radialGradient1306)" />
    <g
       transform="translate(250)"
       id="g148">
      <g
         transform="matrix(-1,0,0,1,524,26)"
         id="g146">
        <path
           transform="translate(239,89.062)"
           d="m 93,86 c -6.648,0 -12,5.352 -12,12 v 18 h 29 V 86 Z"
           fill="#363636"
           id="path142" />
        <path
           transform="translate(239,95.062)"
           d="m 93,80 c -6.648,0 -12,5.352 -12,12 v 0.59961 c 0,-6.4264 5.352,-11.6 12,-11.6 h 17 v -1 z"
           fill="#ffffff"
           opacity="0.1"
           id="path144" />
      </g>
    </g>
    <path
       transform="matrix(-1,0,0,1,535,115.06)"
       d="m 93,85 c -7.202,0 -13,5.798 -13,13 v 18 h 1 V 98 c 0,-6.648 5.352,-12 12,-12 h 17 v -1 z"
       fill="#000000"
       opacity="0.75"
       id="path150" />
  </g>
  <g
     id="decoration-inactive-right"
     transform="matrix(-2,0,0,2,1894.76,-233.031)">
    <path
       d="m 279.88,197.02 v 86 l 41,-0.0155 v -85.985 z"
       fill="url(#linearGradient1389)"
       opacity="0.5"
       id="path153"
       style="fill:url(#linearGradient1389)" />
    <path
       d="m 319.88,197.02 v 86 h 1 v -86 z"
       fill="#000000"
       opacity="0.75"
       id="path155" />
    <path
       d="m 320.88,197.02 v 86 h 29 v -86 z"
       fill="#2d2d2d"
       id="path157" />
  </g>
  <use
     id="decoration-topright"
     transform="matrix(-1,0,0,1,640,0)"
     width="100%"
     height="100%"
     xlink:href="#decoration-topleft"
     x="0"
     y="0" />
  <use
     id="decoration-inactive-topright"
     transform="matrix(-1,0,0,1,2100,0)"
     width="100%"
     height="100%"
     xlink:href="#decoration-inactive-topleft"
     x="0"
     y="0" />
  <use
     id="decoration-bottomright"
     transform="matrix(-1,0,0,1,640,0)"
     width="100%"
     height="100%"
     xlink:href="#decoration-bottomleft"
     x="0"
     y="0" />
  <use
     id="decoration-inactive-bottomright"
     transform="matrix(-1,0,0,1,2100,0)"
     width="100%"
     height="100%"
     xlink:href="#decoration-inactive-bottomleft"
     x="0"
     y="0" />
  <g
     id="mask-topleft"
     transform="matrix(2,0,0,2,1033,-301.12)">
    <path
       transform="translate(-140,115.06)"
       d="m 400,65 v 51 h 41 V 98 c 0,-6.648 5.352,-12 12,-12 h 17 V 65 Z"
       fill="none"
       id="path164" />
    <path
       d="m 313,201.06 c -6.648,0 -12,5.352 -12,12 v 18 h 29 v -30 z"
       id="path166" />
  </g>
  <g
     id="mask-bottom"
     transform="matrix(2,0,0,2,1043,-220.84)">
    <path
       d="m 325,288.92 v 67 h 145 v -67 z"
       fill="none"
       id="path169" />
    <path
       d="M 470,276.92 H 325 v 12 h 145 z"
       id="path171" />
  </g>
  <g
     id="mask-center"
     transform="matrix(2,0,0,2,-35.48,-239)">
    <path
       d="m 864.24,200 v 86 h 145 v -86 z"
       id="path174" />
  </g>
  <g
     id="mask-top"
     transform="matrix(2,0,0,2,1043,-251)">
    <path
       transform="translate(-200,135)"
       d="M 525,20 V 41 H 670 V 20 Z"
       fill="none"
       id="path177" />
    <path
       d="m 325,176 v 30 h 145 v -30 z"
       id="path179" />
  </g>
  <g
     id="mask-left"
     transform="matrix(2,0,0,2,993.24,-233.04)">
    <path
       d="m 279.88,197.02 v 86 l 41,-0.0155 v -85.985 z"
       fill="none"
       id="path182" />
    <path
       d="m 320.88,197.02 v 86 h 29 v -86 z"
       id="path184" />
  </g>
  <g
     id="mask-bottomleft"
     transform="matrix(2,0,0,2,753,-239)">
    <path
       transform="translate(0,90)"
       d="m 441,196 c 0,6.648 5.352,12 12,12 h 17 v -12 z"
       id="path187" />
    <path
       d="m 400,286 v 79 h 70 v -67 h -17 c -6.648,0 -12,-5.352 -12,-12 z"
       fill="none"
       id="path189" />
  </g>
  <use
     id="mask-topright"
     transform="matrix(-1,0,0,1,3676,0)"
     width="100%"
     height="100%"
     xlink:href="#mask-topleft"
     x="0"
     y="0" />
  <use
     id="mask-bottomright"
     transform="matrix(-1,0,0,1,3676,0)"
     width="100%"
     height="100%"
     xlink:href="#mask-bottomleft"
     x="0"
     y="0" />
  <use
     id="mask-right"
     transform="matrix(-1,0,0,1,3676,0)"
     width="100%"
     height="100%"
     xlink:href="#mask-left"
     x="0"
     y="0" />
</svg>
