<svg width="4626" height="1044" viewBox="0 0 4626 1044" fill="none" xmlns="http://www.w3.org/2000/svg">
<path d="M712.182 149.566C686.396 149.566 665.636 170.325 665.636 196.111C665.636 221.897 686.396 242.656 712.182 242.656C737.968 242.656 758.727 221.897 758.727 196.111C758.727 170.325 737.968 149.566 712.182 149.566ZM1038 149.566L944.909 242.656L1084.55 382.293L944.909 521.929L1038 615.02L1177.64 475.384L1270.73 382.293L1038 149.566ZM595.818 428.838C557.139 428.838 526 459.977 526 498.656C526 537.336 557.139 568.475 595.818 568.475C634.497 568.475 665.636 537.336 665.636 498.656C665.636 459.977 634.497 428.838 595.818 428.838V428.838ZM805.273 708.111C753.7 708.111 712.182 749.63 712.182 801.202C712.182 852.774 753.7 894.293 805.273 894.293C856.845 894.293 898.364 852.774 898.364 801.202C898.364 749.63 856.845 708.111 805.273 708.111Z" fill="white"/>
<path d="M1736.7 279.263C1806.2 279.263 1856.85 293.413 1888.62 321.712C1920.4 349.516 1936.28 388.49 1936.28 438.635C1936.28 468.424 1929.58 496.227 1916.18 522.045C1903.27 547.862 1881.42 568.963 1850.64 585.347C1819.86 601.234 1778.15 609.178 1725.52 609.178H1668.18V811H1587.75V279.263H1736.7ZM1730.74 347.033H1668.18V541.408H1716.59C1761.77 541.408 1795.78 533.96 1818.62 519.066C1841.95 503.675 1853.62 477.857 1853.62 441.614C1853.62 409.839 1843.69 386.256 1823.83 370.865C1803.97 354.977 1772.94 347.033 1730.74 347.033ZM2113.76 811H2034.81V245.005H2113.76V811ZM2393.37 402.143C2443.52 402.143 2481 413.314 2505.83 435.656C2531.15 457.501 2543.81 492.007 2543.81 539.174V811H2487.95L2472.31 755.145H2469.34C2451.96 776.991 2433.59 793.126 2414.23 803.553C2395.36 813.482 2369.04 818.447 2335.28 818.447C2299.04 818.447 2269 808.766 2245.17 789.403C2221.34 769.543 2209.42 738.761 2209.42 697.056C2209.42 655.848 2224.82 624.817 2255.6 603.965C2286.88 582.616 2334.29 570.949 2397.84 568.963L2466.36 566.729V544.387C2466.36 515.094 2459.65 494.49 2446.25 482.574C2432.84 470.162 2413.98 463.956 2389.65 463.956C2369.29 463.956 2349.68 466.935 2330.82 472.893C2311.95 478.85 2293.83 486.049 2276.45 494.49L2251.13 437.146C2270 427.216 2291.59 419.024 2315.92 412.569C2340.75 405.619 2366.56 402.143 2393.37 402.143ZM2465.61 618.115L2411.99 619.604C2366.31 621.59 2334.54 629.286 2316.67 642.691C2299.29 656.096 2290.6 674.466 2290.6 697.801C2290.6 718.653 2296.81 733.796 2309.22 743.23C2321.63 752.663 2337.77 757.379 2357.63 757.379C2388.41 757.379 2413.98 748.691 2434.33 731.314C2455.19 713.937 2465.61 687.871 2465.61 653.117V618.115ZM2931.98 697.801C2931.98 737.52 2917.58 767.557 2888.78 787.913C2860.48 808.269 2820.51 818.447 2768.88 818.447C2740.58 818.447 2716.25 816.461 2695.9 812.489C2676.04 808.518 2657.67 802.311 2640.79 793.871V724.611C2658.16 733.052 2678.52 740.747 2701.85 747.698C2725.69 754.152 2748.77 757.379 2771.11 757.379C2800.9 757.379 2822.25 752.663 2835.16 743.23C2848.57 733.796 2855.27 721.136 2855.27 705.248C2855.27 696.312 2852.79 688.368 2847.82 681.417C2842.86 673.97 2833.42 666.522 2819.52 659.075C2806.12 651.131 2786.26 642.195 2759.94 632.265C2734.13 622.335 2712.28 612.157 2694.41 601.731C2677.03 591.305 2663.62 578.892 2654.19 564.494C2644.76 550.096 2640.04 531.974 2640.04 510.129C2640.04 475.375 2653.94 448.813 2681.75 430.443C2710.05 411.576 2747.28 402.143 2793.46 402.143C2817.78 402.143 2840.62 404.626 2861.97 409.591C2883.82 414.555 2904.92 421.506 2925.27 430.443L2899.21 490.766C2881.83 483.319 2863.96 477.113 2845.59 472.148C2827.22 466.686 2808.6 463.956 2789.73 463.956C2741.08 463.956 2716.75 478.106 2716.75 506.405C2716.75 515.839 2719.48 524.031 2724.94 530.982C2730.9 537.932 2740.83 544.883 2754.73 551.834C2769.13 558.785 2788.99 567.225 2814.31 577.155C2838.64 586.588 2859.49 596.518 2876.87 606.944C2894.74 616.874 2908.39 629.038 2917.83 643.436C2927.26 657.834 2931.98 675.956 2931.98 697.801ZM3475.91 402.143C3521.09 402.143 3555.1 413.811 3577.94 437.146C3600.77 460.48 3612.19 497.965 3612.19 549.6V811H3533.25V560.026C3533.25 497.965 3508.18 466.935 3458.03 466.935C3422.29 466.935 3396.72 478.106 3381.33 500.448C3365.94 522.293 3358.24 553.82 3358.24 595.028V811H3280.04V560.026C3280.04 497.965 3254.72 466.935 3204.08 466.935C3166.35 466.935 3140.28 479.099 3125.88 503.427C3111.98 527.754 3105.03 562.757 3105.03 608.433V811H3026.09V409.591H3088.65L3099.82 463.211H3104.29C3116.7 442.359 3133.33 426.968 3154.18 417.038C3175.53 407.108 3198.12 402.143 3221.95 402.143C3283.52 402.143 3324.23 423.74 3344.09 466.935H3350.05C3362.96 445.089 3380.83 428.953 3403.67 418.527C3426.51 407.605 3450.59 402.143 3475.91 402.143ZM3888.65 402.143C3938.8 402.143 3976.28 413.314 4001.11 435.656C4026.43 457.501 4039.09 492.007 4039.09 539.174V811H3983.23L3967.59 755.145H3964.61C3947.24 776.991 3928.87 793.126 3909.5 803.553C3890.64 813.482 3864.32 818.447 3830.56 818.447C3794.32 818.447 3764.28 808.766 3740.45 789.403C3716.62 769.543 3704.7 738.761 3704.7 697.056C3704.7 655.848 3720.09 624.817 3750.88 603.965C3782.15 582.616 3829.57 570.949 3893.12 568.963L3961.63 566.729V544.387C3961.63 515.094 3954.93 494.49 3941.53 482.574C3928.12 470.162 3909.26 463.956 3884.93 463.956C3864.57 463.956 3844.96 466.935 3826.09 472.893C3807.23 478.85 3789.11 486.049 3771.73 494.49L3746.41 437.146C3765.27 427.216 3786.87 419.024 3811.2 412.569C3836.02 405.619 3861.84 402.143 3888.65 402.143ZM3960.89 618.115L3907.27 619.604C3861.59 621.59 3829.82 629.286 3811.94 642.691C3794.57 656.096 3785.88 674.466 3785.88 697.801C3785.88 718.653 3792.08 733.796 3804.5 743.23C3816.91 752.663 3833.04 757.379 3852.9 757.379C3883.69 757.379 3909.26 748.691 3929.61 731.314C3950.46 713.937 3960.89 687.871 3960.89 653.117V618.115Z" fill="white"/>
</svg>
