<?xml version="1.0" encoding="UTF-8" standalone="no"?>
<svg
   xmlns:dc="http://purl.org/dc/elements/1.1/"
   xmlns:cc="http://creativecommons.org/ns#"
   xmlns:rdf="http://www.w3.org/1999/02/22-rdf-syntax-ns#"
   xmlns:svg="http://www.w3.org/2000/svg"
   xmlns="http://www.w3.org/2000/svg"
   id="svg17"
   viewBox="0 0 54 32"
   version="1.1">
  <metadata
     id="metadata19">
    <rdf:RDF>
      <cc:Work
         rdf:about="">
        <dc:format>image/svg+xml</dc:format>
        <dc:type
           rdf:resource="http://purl.org/dc/dcmitype/StillImage" />
        <dc:title></dc:title>
      </cc:Work>
    </rdf:RDF>
  </metadata>
  <defs
     id="defs5">
    <style
       type="text/css"
       id="current-color-scheme"> .ColorScheme-Text { color:#363636; } </style>
  </defs>
  <g
     id="22-22-amarok">
    <path
       id="path7"
       fill="currentColor"
       d="m11 13c-4.4183 0-8 3.5817-8 8s3.5817 8 8 8 8-3.5817 8-8c0-1.2789-0.3004-2.4884-0.83398-3.5605-0.0063-0.01127-0.02391-0.02817-0.0293-0.03906 4.7e-4 -2.3e-4 0.0049-2e-3 0.0059-2e-3 0.18504-0.21856 0.28125-0.46828 0.28125-0.71094 0-0.17523-0.0682-0.35571-0.12891-0.49219 2.9e-4 2.6e-4 0.0059 0.0039 0.0059 0.0039s-0.0012-0.12383-0.07617-0.29883c-0.075-0.175-0.17383-0.30078-0.17383-0.30078s-0.2375 0.0375-0.375 0.0625c-0.1297 0.0236-0.47319 0.21373-0.51367 0.23633-1.7128-1.6774-3.4115-2.9403-6.1622-2.8984zm0.19922 0.40039c2.1554 0.0033 4.2022 0.94609 5.6055 2.582-0.77174 0.19072-1.9869 0.63393-2.4121 0.74023-0.49498 0.12374-0.72583 0.23538-1.5195 0.16016-0.90469-0.0857-1.3109-0.09284-1.5488-0.08594-0.35634-0.0315-0.53711-0.10938-0.53711-0.10938l0.03125 0.35156c-0.23691 0.18063-0.71363 0.4427-1.6934 0.70898-0.6364 0.0707-1.1662-0.12403-1.4844 0.05273-0.3182 0.17678-1.3272 0.61845-1.8398 0.74219-0.51266 0.12375-0.89202 0.35633-1.2012 0.45704-0.48839 0.1591 0.96756 2.4941 1.5996 2.8008 0 0-0.21757 0.22591-0.40039 0.41602-0.43969 0.30041-0.78711 0.32031-0.78711 0.32031l0.023437 0.24024c-0.20969 0.1114-0.40586 0.18804-0.58789 0.25195-0.29342-0.81111-0.44473-1.6668-0.44727-2.5293 0.0039433-1.3748 0.38569-2.722 1.1035-3.8945 1.3807-2.0064 3.6602-3.2049 6.0957-3.2051zm6.6504 4.166c0.49176 1.0074 0.74821 2.1134 0.75 3.2344-0.0015 2.4849-1.2502 4.8032-3.3242 6.1719-0.644 0.37594-1.3405 0.65374-2.0664 0.82422 0.03056-0.23452 0.06104-0.47459 0.08399-0.71289 0.17366-0.25517 0.40625-0.25976 0.40625-0.25976s-0.29922-0.84961-0.26953-1.873c0.0372-0.24274 0.09976-0.47192 0.17969-0.68945h0.30273s-0.0378-0.41741 0.13281-0.8418c0.56207-0.85425 1.3289-1.4245 1.6562-1.6758 0.30878-0.2371 1.7327-0.60118 2.0332-0.67188 0.30052-0.0707 0.58388-0.54803 0.60156-0.68945 0.0177-0.14142-0.08984-0.40625-0.08984-0.40625l-0.42578-0.0957c0.10584 0.075 0.04519 0.15025-0.13281 0.18164-0.057 0.0101-0.13605 0.01482-0.22461 0.01563 0 0-0.09271-0.36355-0.19336-0.39453-0.0861-0.0265-0.31236 0.25788-0.30859 0.35547-0.0963-0.0163-0.18793-0.03765-0.26172-0.06445-0.27503-0.10002-0.57423-0.16212-0.57423-0.16212s0.29961-0.67539 0.72461-1.3379c0.27092-0.42232 0.70796-0.73025 1-0.9082zm-5.4844 0.15625c0.48595-4e-3 0.84766 0.14062 0.84766 0.14062s0.04719 0.4553-1.3184 1.2715c-0.41865 0.25021-1.5195 0.41602-1.5195 0.41602s-0.0236-0.57531 0.39453-1.0742c0.49929-0.5958 1.1098-0.74945 1.5957-0.75391zm-6.2715 1.2676c0.0451-1e-3 0.080439 0.0028 0.10547 0.0098 0.2 0.0625 0.63748 0.85778 0.40039 1.1992l0.40039 0.40036c0.8-0.8 1.9938-0.24277 2.1992 0.30078 0.28473 0.75329 0.22551 0.66371-0.95508 0.83594-0.5003 0.073-1.5209-0.10834-1.9238-0.41797s-1.4391-1.9496-1.3516-2.0371c0.0766-0.0766 0.80919-0.28251 1.125-0.29102zm11.508 0.59961c-0.0675 0.0241-0.12891 0.30859-0.12891 0.30859s0.0522 0.02798 0.32227-0.0078c0.0727-0.0181-0.12584-0.32486-0.19336-0.30078z"
       class="ColorScheme-Text" />
    <path
       id="path9"
       fill="none"
       d="m0 10v22h22v-22h-22z" />
  </g>
  <g
     id="amarok">
    <path
       id="path12"
       fill="currentColor"
       d="m38 4.0015c-6.6274 0-12 5.3713-12 11.998 0 6.6271 5.3726 12 12 12s12-5.3731 12-12c0-1.9182-0.45083-3.7321-1.2512-5.3402-0.0095-0.0169-0.03518-0.04135-0.04326-0.05769 7.05e-4 -3.46e-4 0.0076-0.0036 9e-3 -0.0036 0.27756-0.32782 0.42188-0.70155 0.42188-1.0655 0-0.26283-0.10365-0.53448-0.19471-0.73919 4.35e-4 3.9e-4 9e-3 0.00541 9e-3 0.00541s-0.0012-0.18463-0.11358-0.44712c-0.1125-0.26249-0.26142-0.45073-0.26142-0.45073s-0.35625 0.056253-0.5625 0.093751c-0.19453 0.035389-0.70909 0.31946-0.76981 0.35336-2.5691-2.516-5.1173-4.4096-9.2434-4.3468zm0.29928 0.60037c3.233 0.0049 6.3037 1.4189 8.4087 3.8726-1.1576 0.28607-2.9806 0.95115-3.6184 1.1106-0.74247 0.1856-1.0901 0.35261-2.2806 0.23979-1.357-0.12854-1.9652-0.13836-2.3221-0.12801-0.53451-0.047247-0.80589-0.16406-0.80589-0.16406l0.04687 0.52645c-0.35536 0.27093-1.0707 0.6643-2.5403 1.0637-0.9546 0.10604-1.7493-0.1858-2.2266 0.07933-0.4773 0.26516-1.9912 0.92679-2.7602 1.1124-0.76899 0.1856-1.3374 0.53585-1.8011 0.68691-0.73258 0.23864 1.4516 3.7408 2.3996 4.2008 0 0-0.32613 0.33866-0.60036 0.62381-0.65954 0.45059-1.1809 0.47957-1.1809 0.47957l0.03425 0.36058c-0.31454 0.1671-0.60856 0.28275-0.88161 0.37861-0.44013-1.2166-0.66687-2.5014-0.67067-3.7951 0.0059-2.0621 0.5783-4.0828 1.655-5.8414 2.071-3.0094 5.4909-4.8063 9.1442-4.8065zm9.9754 6.2489c0.73764 1.511 1.1223 3.1702 1.125 4.8516-0.0022 3.7272-1.8757 7.2032-4.9868 9.2561-0.966 0.56388-2.0102 0.98108-3.0992 1.2368 0.04584-0.35177 0.09178-0.71169 0.1262-1.0691 0.26049-0.38274 0.60938-0.38943 0.60938-0.38943s-0.44838-1.2738-0.40385-2.8089c0.0558-0.36409 0.14874-0.70859 0.26863-1.0349h0.45433s-0.0576-0.62548 0.19832-1.262c0.8431-1.2813 1.9934-2.1363 2.4844-2.5133 0.46317-0.35563 2.5997-0.90178 3.0505-1.0078 0.45078-0.10605 0.87673-0.82275 0.90325-1.0349 0.02655-0.21212-0.13522-0.60938-0.13522-0.60938l-0.63822-0.14423c0.15876 0.11249 0.06688 0.22516-0.20012 0.27224-0.0855 0.01515-0.2043 0.02224-0.33714 0.02344 0 0-0.13929-0.54489-0.29026-0.59135-0.12915-0.03975-0.46718 0.38728-0.46154 0.53366-0.14445-0.02445-0.28234-0.05716-0.39303-0.09736-0.41253-0.15001-0.86178-0.24339-0.86178-0.24339s0.44964-1.0129 1.0871-2.0066c0.40638-0.63345 1.0619-1.0943 1.5-1.3612zm-8.2266 0.23438c0.72892-6e-3 1.271 0.21094 1.271 0.21094s0.07056 0.68327-1.9778 1.9075c-0.62798 0.3753-2.2788 0.6238-2.2788 0.6238s-0.03585-0.86347 0.59135-1.6118c0.74894-0.89366 1.6653-1.1237 2.3942-1.1304zm-9.4075 1.9003c0.06765-0.0015 0.12111 0.0057 0.15865 0.01623 0.3 0.09375 0.956 1.2854 0.60036 1.7975l0.60036 0.60036c1.2-1.1999 2.9911-0.36275 3.2993 0.45253 0.4271 1.1299 0.33759 0.99469-1.4333 1.253-0.75045 0.10949-2.2802-0.16299-2.8846-0.62741s-2.1595-2.9229-2.0282-3.0541c0.1149-0.11489 1.2138-0.42534 1.6875-0.43811zm17.261 0.89965c-0.10125 0.03615-0.19291 0.46335-0.19291 0.46335s0.07807 0.04107 0.48317-0.01262c0.10905-0.02715-0.18898-0.48684-0.29026-0.45073z"
       class="ColorScheme-Text" />
    <path
       id="path14"
       fill="none"
       d="m22 0v32h32v-32h-32z" />
  </g>
</svg>
