<?xml version="1.0" encoding="UTF-8" standalone="no"?>
<svg
   xmlns:dc="http://purl.org/dc/elements/1.1/"
   xmlns:cc="http://creativecommons.org/ns#"
   xmlns:rdf="http://www.w3.org/1999/02/22-rdf-syntax-ns#"
   xmlns:svg="http://www.w3.org/2000/svg"
   xmlns="http://www.w3.org/2000/svg"
   id="svg86"
   viewBox="0 0 22 22"
   version="1.1"
   height="22"
   width="22">
  <metadata
     id="metadata88">
    <rdf:RDF>
      <cc:Work
         rdf:about="">
        <dc:format>image/svg+xml</dc:format>
        <dc:type
           rdf:resource="http://purl.org/dc/dcmitype/StillImage" />
        <dc:title></dc:title>
      </cc:Work>
    </rdf:RDF>
  </metadata>
  <defs
     id="defs5">
    <style
       type="text/css"
       id="current-color-scheme">.ColorScheme-Text {
        color:#363636;
      }
      .ColorScheme-Background {
        color:#efefef;
      }
      .ColorScheme-Highlight {
        color:#3498db;
      }
      .ColorScheme-ViewText {
        color:#363636;
      }
      .ColorScheme-ViewBackground {
        color:#fcfcfc;
      }
      .ColorScheme-ViewHover {
        color:#93cee9;
      }
      .ColorScheme-ViewFocus{
        color:#3daee9;
      }
      .ColorScheme-ButtonText {
        color:#363636;
      }
      .ColorScheme-ButtonBackground {
        color:#efefef;
      }
      .ColorScheme-ButtonHover {
        color:#93cee9;
      }
      .ColorScheme-ButtonFocus{
        color:#3daee9;
      }
      .ColorScheme-NegativeText{
        color:#e74c3c;
      }</style>
  </defs>
  <g
     fill="currentColor"
     class="ColorScheme-Text"
     transform="translate(-326,-534.36)"
     id="disk-quota">
    <rect
       id="rect7"
       stroke-width="1.76"
       opacity="0"
       height="22"
       width="22"
       y="534.36"
       x="326.02" />
    <path
       id="path9"
       d="m336.94 540.36a3.75 3 0 0 0-3.6777 3 3.75 3 0 0 0 3.75 3 3.75 3 0 0 0 3.75-3h-1.25a2.5 2 0 0 1-2.5 2 2.5 2 0 0 1-2.5-2 2.5 2 0 0 1 2.4844-2 2.5 2 0 0 1 0.0156 0v-1a3.75 3 0 0 0-0.0723 0z" />
    <path
       id="path11"
       opacity=".35"
       fill="currentColor"
       class="ColorScheme-Text"
       d="m337 541.36a2.5 2 0 0 0-2.4844 2 2.5 2 0 0 0 2.5 2 2.5 2 0 0 0 2.5-2h-2c-0.277 0-0.5-0.223-0.5-0.5v-1.5a2.5 2 0 0 0-0.0156 0z" />
    <ellipse
       id="ellipse13"
       ry="1"
       rx="1.25"
       cy="543.36"
       cx="337.02" />
    <g
       id="g19"
       fill="currentColor"
       class="ColorScheme-Text"
       transform="translate(23)">
      <path
         id="path15"
         d="m-17 3c-1.5802 0-2.8538 1.2141-2.9766 2.7617l-1.9785 9.7969c-0.02151 0.14534-0.04493 0.28993-0.04493 0.44141 0 1.662 1.338 3 3 3h14c1.662 0 3-1.338 3-3 0-0.15148-0.023422-0.29607-0.044922-0.44141l-1.9785-9.7969c-0.12282-1.5476-1.3963-2.7617-2.9766-2.7617zm0 2h10c0.46959 0 0.84456 0.3267 0.95312 0.76172l1.502 7.2832c-0.14957-0.0227-0.29895-0.04492-0.45508-0.04492h-14c-0.15613 0-0.30551 0.02222-0.45508 0.04492l1.502-7.2832c0.10857-0.43502 0.48354-0.76172 0.95312-0.76172zm10.951 9c0.016275-1.99e-4 0.032553-1.99e-4 0.048828 0 1.1046 0 2 0.89543 2 2s-0.89543 2-2 2c-0.71397-5.65e-4 -1.3735-0.38169-1.7305-1h-11.27c-0.55398 0-1-0.44602-1-1 0-0.55399 0.44602-1 1-1h11.27c0.34812-0.60347 0.98518-0.98231 1.6816-1z"
         transform="translate(326,534.36)" />
      <circle
         id="circle17"
         opacity=".35"
         r="1"
         cy="550.36"
         cx="320" />
    </g>
  </g>
  <g
     fill="currentColor"
     class="ColorScheme-Text"
     transform="translate(-326,-534.36)"
     id="disk-quota-missing">
    <path
       id="path22"
       fill="#f47750"
       d="m367 543.36c-0.55228 0-1 0.44772-1 1s0.44772 4 1 4 1-3.4477 1-4-0.44772-1-1-1zm0 6c-0.55228 0-1 0.44772-1 1s0.44772 1 1 1 1-0.44772 1-1-0.44772-1-1-1z" />
    <g
       id="g36"
       transform="translate(23.984)">
      <rect
         id="rect24"
         stroke-width="1.76"
         opacity="0"
         height="22"
         width="22"
         y="534.36"
         x="326.02" />
      <path
         id="path26"
         stroke-width="1.4907"
         stroke-linejoin="round"
         d="m336.94 540.36a3.75 3 0 0 0-3.6777 3 3.75 3 0 0 0 3.75 3 3.75 3 0 0 0 3.75-3h-1.25a2.5 2 0 0 1-2.5 2 2.5 2 0 0 1-2.5-2 2.5 2 0 0 1 2.4844-2 2.5 2 0 0 1 0.0156 0v-1a3.75 3 0 0 0-0.0723 0z" />
      <path
         id="path28"
         opacity=".35"
         fill="currentColor"
         class="ColorScheme-Text"
         d="m337 541.36a2.5 2 0 0 0-2.4844 2 2.5 2 0 0 0 2.5 2 2.5 2 0 0 0 2.5-2h-2c-0.277 0-0.5-0.223-0.5-0.5v-1.5a2.5 2 0 0 0-0.0156 0z" />
      <ellipse
         id="ellipse30"
         ry="1"
         rx="1.25"
         cy="543.36"
         cx="337.02" />
      <g
         id="g34"
         transform="translate(23)">
        <path
           id="path32"
           fill="currentColor"
           class="ColorScheme-Text"
           d="m29.984 3c-1.5802 0-2.8538 1.2141-2.9766 2.7617l-1.9785 9.7969c-0.02151 0.14534-0.04492 0.28993-0.04492 0.44141 0 1.662 1.338 3 3 3h14c1.662 0 3-1.338 3-3 0-0.15148-0.02342-0.29607-0.04492-0.44141l-1.9785-9.7969c-0.12282-1.5476-1.3963-2.7617-2.9766-2.7617zm0 2h10c0.46959 0 0.84456 0.3267 0.95312 0.76172l0.4707 2.2812c0.9018 0.1917 1.5918 1.0037 1.5918 1.957 0 0.27318-0.03284 0.56354-0.08594 0.98438-0.05312 0.42085-0.12871 0.92065-0.22461 1.4141-0.09591 0.4934-0.20726 0.97261-0.35938 1.3945-0.06519 0.18082-0.14114 0.35235-0.25195 0.5332 0.41816 0.27286 0.71913 0.69227 0.84375 1.1758 0.0022 0.0068 0.0018 0.01466 0.0039 0.02149 0.02719 0.11092 0.04484 0.22396 0.05273 0.33789 0.0042 0.04755 0.0215 0.0893 0.0215 0.13867 0 0.33073-0.09207 0.63928-0.23828 0.91602-0.01786 0.03505-0.03675 0.06958-0.05664 0.10352-0.03432 0.05668-0.06979 0.11113-0.10938 0.16406-0.04256 0.05775-0.0882 0.11317-0.13672 0.16602-0.03186 0.03434-0.06352 0.06753-0.09766 0.09961-0.07144 0.06805-0.14782 0.13072-0.22852 0.1875-0.01577 0.01101-0.03079 0.02263-0.04687 0.0332-0.08953 0.05821-0.18358 0.10915-0.28125 0.15234-0.02141 0.0096-0.04267 0.01847-0.06445 0.02734-0.0039 2e-3 -0.0078 0.0039-0.01172 0.0059-0.09579 0.03816-0.1944 0.06885-0.29492 0.0918-0.02162 0.0049-0.04259 0.01143-0.06445 0.01563-0.12164 0.02374-0.24522 0.03616-0.36915 0.03707-0.0052 2e-5 -0.01042 2e-5 -0.01563 0-0.71397-5.65e-4 -1.3735-0.38169-1.7305-1h-11.27c-0.55398 0-1-0.44602-1-1 0-0.55399 0.44602-1 1-1h11.27c0.16143-0.27902 0.38792-0.51488 0.66016-0.6875-0.10587-0.17573-0.18057-0.34331-0.24414-0.51953-0.08882-0.24636-0.16245-0.51612-0.22852-0.79297h-11.457c-0.15613 0-0.30551 0.02222-0.45508 0.04492l1.502-7.2832c0.10857-0.43502 0.48354-0.76172 0.95312-0.76172z"
           transform="translate(279.02,534.36)" />
      </g>
    </g>
  </g>
  <g
     transform="translate(-277.02 -534.36)"
     id="disk-quota-low">
    <rect
       id="rect39"
       opacity="0"
       height="22"
       width="22"
       y="534.36"
       x="326.02" />
    <path
       id="path41"
       fill="#fdbc4b"
       d="m336.94 540.36a3.75 3 0 0 0-3.6777 3 3.75 3 0 0 0 3.75 3 3.75 3 0 0 0 3.75-3h-1.25a2.5 2 0 0 1-2.5 2 2.5 2 0 0 1-2.5-2 2.5 2 0 0 1 2.4844-2 2.5 2 0 0 1 0.0156 0v-1a3.75 3 0 0 0-0.0723 0z" />
    <path
       id="path43"
       opacity=".35"
       fill="#fdbc4b"
       d="m337 541.36a2.5 2 0 0 0-2.4844 2 2.5 2 0 0 0 2.5 2 2.5 2 0 0 0 2.5-2h-2c-0.277 0-0.5-0.223-0.5-0.5v-1.5a2.5 2 0 0 0-0.0156 0z" />
    <ellipse
       id="ellipse45"
       fill="#fdbc4b"
       ry="1"
       rx="1.25"
       cy="543.36"
       cx="337.02" />
    <g
       id="g51"
       fill="currentColor"
       class="ColorScheme-Text"
       transform="translate(23)">
      <path
         id="path47"
         d="m-17 3c-1.5802 0-2.8538 1.2141-2.9766 2.7617l-1.9785 9.7969c-0.02151 0.14534-0.04493 0.28993-0.04493 0.44141 0 1.662 1.338 3 3 3h14c1.662 0 3-1.338 3-3 0-0.15148-0.023422-0.29607-0.044922-0.44141l-1.9785-9.7969c-0.12282-1.5476-1.3963-2.7617-2.9766-2.7617zm0 2h10c0.46959 0 0.84456 0.3267 0.95312 0.76172l1.502 7.2832c-0.14957-0.0227-0.29895-0.04492-0.45508-0.04492h-14c-0.15613 0-0.30551 0.02222-0.45508 0.04492l1.502-7.2832c0.10857-0.43502 0.48354-0.76172 0.95312-0.76172zm10.951 9c0.016275-1.99e-4 0.032553-1.99e-4 0.048828 0 1.1046 0 2 0.89543 2 2s-0.89543 2-2 2c-0.71397-5.65e-4 -1.3735-0.38169-1.7305-1h-11.27c-0.55398 0-1-0.44602-1-1 0-0.55399 0.44602-1 1-1h11.27c0.34812-0.60347 0.98518-0.98231 1.6816-1z"
         transform="translate(326,534.36)" />
      <circle
         id="circle49"
         opacity=".35"
         r="1"
         cy="550.36"
         cx="320" />
    </g>
  </g>
  <g
     transform="translate(-252.02 -534.36)"
     id="disk-quota-high">
    <rect
       id="rect54"
       opacity="0"
       height="22"
       width="22"
       y="534.36"
       x="326.02" />
    <path
       id="path56"
       fill="#e74c3c"
       d="m336.94 540.36a3.75 3 0 0 0-3.6777 3 3.75 3 0 0 0 3.75 3 3.75 3 0 0 0 3.75-3h-1.25a2.5 2 0 0 1-2.5 2 2.5 2 0 0 1-2.5-2 2.5 2 0 0 1 2.4844-2 2.5 2 0 0 1 0.0156 0v-1a3.75 3 0 0 0-0.0723 0z" />
    <path
       id="path58"
       stroke-width=".99382"
       stroke-linejoin="round"
       stroke-linecap="round"
       opacity=".35"
       fill="#e74c3c"
       d="m337 541.36a2.5 2 0 0 0-2.4844 2 2.5 2 0 0 0 2.5 2 2.5 2 0 0 0 2.5-2h-2c-0.277 0-0.5-0.223-0.5-0.5v-1.5a2.5 2 0 0 0-0.0156 0z" />
    <ellipse
       id="ellipse60"
       fill="#e74c3c"
       ry="1"
       rx="1.25"
       cy="543.36"
       cx="337.02" />
    <g
       id="g66"
       fill="currentColor"
       class="ColorScheme-Text"
       transform="translate(23)">
      <path
         id="path62"
         d="m-17 3c-1.5802 0-2.8538 1.2141-2.9766 2.7617l-1.9785 9.7969c-0.02151 0.14534-0.04493 0.28993-0.04493 0.44141 0 1.662 1.338 3 3 3h14c1.662 0 3-1.338 3-3 0-0.15148-0.023422-0.29607-0.044922-0.44141l-1.9785-9.7969c-0.12282-1.5476-1.3963-2.7617-2.9766-2.7617zm0 2h10c0.46959 0 0.84456 0.3267 0.95312 0.76172l1.502 7.2832c-0.14957-0.0227-0.29895-0.04492-0.45508-0.04492h-14c-0.15613 0-0.30551 0.02222-0.45508 0.04492l1.502-7.2832c0.10857-0.43502 0.48354-0.76172 0.95312-0.76172zm10.951 9c0.016275-1.99e-4 0.032553-1.99e-4 0.048828 0 1.1046 0 2 0.89543 2 2s-0.89543 2-2 2c-0.71397-5.65e-4 -1.3735-0.38169-1.7305-1h-11.27c-0.55398 0-1-0.44602-1-1 0-0.55399 0.44602-1 1-1h11.27c0.34812-0.60347 0.98518-0.98231 1.6816-1z"
         transform="translate(326,534.36)" />
      <circle
         id="circle64"
         opacity=".35"
         r="1"
         cy="550.36"
         cx="320" />
    </g>
  </g>
  <g
     transform="translate(-251,-534.36)"
     id="disk-quota-critical">
    <path
       id="path69"
       fill="#e74c3c"
       d="m367 543.36c-0.55228 0-1 0.44772-1 1s0.44772 4 1 4 1-3.4477 1-4-0.44772-1-1-1zm0 6c-0.55228 0-1 0.44772-1 1s0.44772 1 1 1 1-0.44772 1-1-0.44772-1-1-1z" />
    <g
       id="g83"
       transform="translate(23.984)">
      <rect
         id="rect71"
         stroke-width="1.76"
         opacity="0"
         height="22"
         width="22"
         y="534.36"
         x="326.02" />
      <path
         id="path73"
         fill="#e74c3c"
         d="m336.94 540.36a3.75 3 0 0 0-3.6777 3 3.75 3 0 0 0 3.75 3 3.75 3 0 0 0 3.75-3h-1.25a2.5 2 0 0 1-2.5 2 2.5 2 0 0 1-2.5-2 2.5 2 0 0 1 2.4844-2 2.5 2 0 0 1 0.0156 0v-1a3.75 3 0 0 0-0.0723 0z" />
      <path
         id="path75"
         opacity=".35"
         fill="#e74c3c"
         d="m337 541.36a2.5 2 0 0 0-2.4844 2 2.5 2 0 0 0 2.5 2 2.5 2 0 0 0 2.5-2h-2c-0.277 0-0.5-0.223-0.5-0.5v-1.5a2.5 2 0 0 0-0.0156 0z" />
      <ellipse
         id="ellipse77"
         fill="#e74c3c"
         ry="1"
         rx="1.25"
         cy="543.36"
         cx="337.02" />
      <g
         id="g81"
         transform="translate(23)">
        <path
           id="path79"
           fill="currentColor"
           class="ColorScheme-Text"
           d="m29.984 3c-1.5802 0-2.8538 1.2141-2.9766 2.7617l-1.9785 9.7969c-0.02151 0.14534-0.04492 0.28993-0.04492 0.44141 0 1.662 1.338 3 3 3h14c1.662 0 3-1.338 3-3 0-0.15148-0.02342-0.29607-0.04492-0.44141l-1.9785-9.7969c-0.12282-1.5476-1.3963-2.7617-2.9766-2.7617zm0 2h10c0.46959 0 0.84456 0.3267 0.95312 0.76172l0.4707 2.2812c0.9018 0.1917 1.5918 1.0037 1.5918 1.957 0 0.27318-0.03284 0.56354-0.08594 0.98438-0.05312 0.42085-0.12871 0.92065-0.22461 1.4141-0.09591 0.4934-0.20726 0.97261-0.35938 1.3945-0.06519 0.18082-0.14114 0.35235-0.25195 0.5332 0.41816 0.27286 0.71913 0.69227 0.84375 1.1758 0.0022 0.0068 0.0018 0.01466 0.0039 0.02149 0.02719 0.11092 0.04484 0.22396 0.05273 0.33789 0.0042 0.04755 0.0215 0.0893 0.0215 0.13867 0 0.33073-0.09207 0.63928-0.23828 0.91602-0.01786 0.03505-0.03675 0.06958-0.05664 0.10352-0.03432 0.05668-0.06979 0.11113-0.10938 0.16406-0.04256 0.05775-0.0882 0.11317-0.13672 0.16602-0.03186 0.03434-0.06352 0.06753-0.09766 0.09961-0.07144 0.06805-0.14782 0.13072-0.22852 0.1875-0.01577 0.01101-0.03079 0.02263-0.04687 0.0332-0.08953 0.05821-0.18358 0.10915-0.28125 0.15234-0.02141 0.0096-0.04267 0.01847-0.06445 0.02734-0.0039 2e-3 -0.0078 0.0039-0.01172 0.0059-0.09579 0.03816-0.1944 0.06885-0.29492 0.0918-0.02162 0.0049-0.04259 0.01143-0.06445 0.01563-0.12164 0.02374-0.24522 0.03616-0.36915 0.03707-0.0052 2e-5 -0.01042 2e-5 -0.01563 0-0.71397-5.65e-4 -1.3735-0.38169-1.7305-1h-11.27c-0.55398 0-1-0.44602-1-1 0-0.55399 0.44602-1 1-1h11.27c0.16143-0.27902 0.38792-0.51488 0.66016-0.6875-0.10587-0.17573-0.18057-0.34331-0.24414-0.51953-0.08882-0.24636-0.16245-0.51612-0.22852-0.79297h-11.457c-0.15613 0-0.30551 0.02222-0.45508 0.04492l1.502-7.2832c0.10857-0.43502 0.48354-0.76172 0.95312-0.76172z"
           transform="translate(279.02,534.36)" />
      </g>
    </g>
  </g>
</svg>
