<?xml version="1.0" encoding="UTF-8" standalone="no"?>
<svg
   xmlns:dc="http://purl.org/dc/elements/1.1/"
   xmlns:cc="http://creativecommons.org/ns#"
   xmlns:rdf="http://www.w3.org/1999/02/22-rdf-syntax-ns#"
   xmlns:svg="http://www.w3.org/2000/svg"
   xmlns="http://www.w3.org/2000/svg"
   id="svg4153"
   version="1.1"
   width="22"
   height="22"
   viewBox="0 0 22 22">
  <metadata
     id="metadata4159">
    <rdf:RDF>
      <cc:Work
         rdf:about="">
        <dc:format>image/svg+xml</dc:format>
        <dc:type
           rdf:resource="http://purl.org/dc/dcmitype/StillImage" />
        <dc:title></dc:title>
      </cc:Work>
    </rdf:RDF>
  </metadata>
  <defs
     id="defs4157">
    <style
       type="text/css"
       id="current-color-scheme">
      .ColorScheme-Text {
        color:#31363b;
      }
      .ColorScheme-Background {
        color:#eff0f1;
      }
      .ColorScheme-Highlight {
        color:#3daee9;
      }
      .ColorScheme-ViewText {
        color:#31363b;
      }
      .ColorScheme-ViewBackground {
        color:#fcfcfc;
      }
      .ColorScheme-ViewHover {
        color:#93cee9;
      }
      .ColorScheme-ViewFocus{
        color:#3daee9;
      }
      .ColorScheme-ButtonText {
        color:#31363b;
      }
      .ColorScheme-ButtonBackground {
        color:#eff0f1;
      }
      .ColorScheme-ButtonHover {
        color:#93cee9;
      }
      .ColorScheme-ButtonFocus{
        color:#3daee9;
      }
      </style>
  </defs>
  <g
     id="mail-unread">
    <path
       id="rect4144"
       d="m 1,3 0,1 0,8 0,6 0,0.414062 L 1,19 l 1,0 6,0 6,0 6,0 1,0 0,-0.585938 L 21,18 21,12 21,3 20.951172,3 20,3 19.537109,3 2.4628906,3 2,3 1,3 Z M 2,4 2.0488281,4 2.2714844,4.2226562 8.0234375,9.9765625 6,12 2,16 2,12 2,4.2226562 2,4 Z M 3.4628906,4 18.537109,4 11,11.537109 3.4628906,4 Z M 19.951172,4 20,4 20,4.2226562 20,12 20,16 16,12 13.976562,9.9765625 19.728516,4.2226562 19.951172,4 Z m -11.2207032,6.683594 1.4531252,1.451172 0.814453,0.814453 0.002,0 0.816406,-0.814453 1.453125,-1.451172 L 14.585938,12 19.537109,16.951172 20,17.414062 20,18 14,18 8,18 2,18 2,17.414062 2.4628906,16.951172 7.4140625,12 8.7304688,10.683594 Z"
       style="fill:currentColor"
       class="ColorScheme-Text" />
    <rect
       y="0"
       x="0"
       height="22"
       width="22"
       id="rect4193"
       style="opacity:1;fill:none;fill-opacity:1;stroke:none;stroke-width:0.1;stroke-linecap:square;stroke-linejoin:miter;stroke-miterlimit:4;stroke-dasharray:none;stroke-dashoffset:0;stroke-opacity:1" />
  </g>
  <g
     id="mail-unread-new">
    <rect
       y="0"
       x="27.000002"
       height="22"
       width="22"
       id="rect4178"
       style="opacity:1;fill:none;fill-opacity:1;stroke:none" />
    <path
       style="fill:currentColor"
       d="m 28,3 0,1 0,8 0,6 0,0.414062 L 28,19 l 1,0 6,0 6,0 0,-1 -6,0 -6,0 0,-0.585938 0.462891,-0.46289 6.267578,-6.267578 1.453125,1.451172 0.814453,0.814453 0.002,0 0.816406,-0.814453 1.453125,-1.451172 L 41.585938,12 43,12 40.976562,9.9765625 46.728516,4.2226562 46.951172,4 47,4 47,4.2226562 47,12 48,12 48,3 47.951172,3 47,3 46.537109,3 29.462891,3 29,3 28,3 Z m 1,1 0.04883,0 0.222656,0.2226562 5.751954,5.7539063 L 29,16 29,12 29,4.2226562 29,4 Z M 30.462891,4 45.537109,4 38,11.537109 30.462891,4 Z M 45,13 44.425781,14.613281 42.878906,13.878906 43.613281,15.425781 42,16 43.613281,16.574219 42.878906,18.121094 44.425781,17.386719 45,19 45.574219,17.386719 47.121094,18.121094 46.386719,16.574219 48,16 46.386719,15.425781 47.121094,13.878906 45.574219,14.613281 45,13 Z"
       id="rect4144-0"
       class="ColorScheme-Text" />
  </g>
</svg>
