<?xml version="1.0" encoding="UTF-8" standalone="no"?>
<svg
   xmlns:dc="http://purl.org/dc/elements/1.1/"
   xmlns:cc="http://creativecommons.org/ns#"
   xmlns:rdf="http://www.w3.org/1999/02/22-rdf-syntax-ns#"
   xmlns:svg="http://www.w3.org/2000/svg"
   xmlns="http://www.w3.org/2000/svg"
   xmlns:xlink="http://www.w3.org/1999/xlink"
   width="76"
   height="32"
   version="1.1"
   viewBox="0 0 20.108389 8.4667"
   id="svg53">
  <metadata
     id="metadata57">
    <rdf:RDF>
      <cc:Work
         rdf:about="">
        <dc:format>image/svg+xml</dc:format>
        <dc:type
           rdf:resource="http://purl.org/dc/dcmitype/StillImage" />
        <dc:title></dc:title>
      </cc:Work>
    </rdf:RDF>
  </metadata>
  <defs
     id="defs3">
    <style
       type="text/css"
       id="current-color-scheme">.ColorScheme-Text { color:#363636; } </style>
  </defs>
  <g
     id="media-playback-paused"
     transform="matrix(0.26458,0,0,0.26458,0.52914934,1.3229139)">
    <rect
       x="0.00021085"
       y="3.0110999e-05"
       width="22"
       height="22"
       fill-opacity="0"
       id="rect5" />
    <path
       class="ColorScheme-Text"
       d="m 10.99,2 a 9,9 0 0 0 -8.9902,9 9,9 0 0 0 9,9 9,9 0 0 0 9,-9 9,9 0 0 0 -9,-9 9,9 0 0 0 -0.0098,0 z m -0.08398,2 a 7,7 0 0 1 0.09375,0 7,7 0 0 1 7,7 7,7 0 0 1 -7,7 7,7 0 0 1 -7,-7 7,7 0 0 1 6.9062,-7 z m -1.9062,4 c -0.554,0 -1,0.446 -1,1 v 4 c 0,0.554 0.446,1 1,1 0.554,0 1,-0.446 1,-1 V 9 c 0,-0.554 -0.446,-1 -1,-1 z m 4,0 c -0.554,0 -1,0.446 -1,1 v 4 c 0,0.554 0.446,1 1,1 0.554,0 1,-0.446 1,-1 V 9 c 0,-0.554 -0.446,-1 -1,-1 z"
       fill="currentColor"
       id="path7" />
  </g>
  <g
     id="media-playback-playing"
     transform="matrix(0.26458,0,0,0.26458,7.0776124,7.4082619)">
    <rect
       x="0.00021085"
       y="-23"
       width="22"
       height="22"
       fill-opacity="0"
       id="rect10" />
    <path
       class="ColorScheme-Text"
       transform="translate(-25.002,-23)"
       d="m 35.992,2 a 9,9 0 0 0 -8.9902,9 9,9 0 0 0 9,9 9,9 0 0 0 9,-9 9,9 0 0 0 -9,-9 9,9 0 0 0 -0.0098,0 z m -0.08594,2 a 7,7 0 0 1 0.002,0 7,7 0 0 1 0.09375,0 7,7 0 0 1 7,7 7,7 0 0 1 -7,7 7,7 0 0 1 -7,-7 7,7 0 0 1 6.9043,-7 z m -1.3477,3.8027 C 34.39739,7.82265 34.26379,7.892585 34.15602,8.01364 34.04826,8.1347 33.99391,8.27712 33.99391,8.43942 v 5.1211 c 0,0.1623 0.05436,0.30472 0.16211,0.42578 0.10776,0.12106 0.24138,0.19098 0.40234,0.21094 0.16097,0.01996 0.30705,-0.01563 0.44141,-0.10742 l 3.7148,-2.5605 c 0.1184,-0.08115 0.20087,-0.19181 0.24609,-0.32617 0.04524,-0.13569 0.04524,-0.26992 0,-0.4043 -0.04524,-0.13436 -0.12706,-0.2437 -0.24414,-0.32617 l -3.7168,-2.5625 C 34.8658,7.817058 34.71884,7.78236 34.55831,7.80276 Z"
       fill="currentColor"
       id="path12" />
  </g>
  <g
     id="media-playback-stopped"
     transform="matrix(0.26458,0,0,0.26458,0.92629185,8.2020019)">
    <rect
       x="48"
       y="-26"
       width="22"
       height="22"
       fill-opacity="0"
       id="rect15" />
    <path
       class="ColorScheme-Text"
       transform="translate(0,-26)"
       d="m 58.99,2 a 9,9 0 0 0 -8.9902,9 9,9 0 0 0 9,9 9,9 0 0 0 9,-9 9,9 0 0 0 -9,-9 9,9 0 0 0 -0.0098,0 z m -0.08594,2 a 7,7 0 0 1 0.002,0 7,7 0 0 1 0.09371,0 7,7 0 0 1 7,7 7,7 0 0 1 -7,7 7,7 0 0 1 -7,-7 7,7 0 0 1 6.9043,-7 z m -1.9043,4 c -0.554,0 -1,0.446 -1,1 v 4 c 0,0.554 0.446,1 1,1 h 4 c 0.554,0 1,-0.446 1,-1 V 9 c 0,-0.554 -0.446,-1 -1,-1 z"
       fill="currentColor"
       id="path17" />
  </g>
  <g
     id="media-record"
     transform="matrix(0.26458,0,0,0.26458,0.86025506,1.3229103)">
    <rect
       x="73"
       y="4.3869e-05"
       width="22"
       height="22"
       fill-opacity="0"
       id="rect20" />
    <path
       class="ColorScheme-Text"
       d="m 83.99,2 a 9,9 0 0 0 -8.9902,9 9,9 0 0 0 9,9 9,9 0 0 0 9,-9 9,9 0 0 0 -9,-9 9,9 0 0 0 -0.0098,0 z m -0.08594,2 a 7,7 0 0 1 0.002,0 7,7 0 0 1 0.09371,0 7,7 0 0 1 7,7 7,7 0 0 1 -7,7 7,7 0 0 1 -7,-7 7,7 0 0 1 6.9043,-7 z m 0.03516,3 a 4,4 0 0 0 -3.9395,4 4,4 0 0 0 4,4 4,4 0 0 0 4,-4 4,4 0 0 0 -4,-4 4,4 0 0 0 -0.06055,0 z"
       fill="currentColor"
       id="path22" />
  </g>
  <g
     id="media-seek-forward"
     transform="matrix(0.26458,0,0,0.26458,33.271468,7.4082619)">
    <rect
       x="0.00021085"
       y="-23"
       width="22"
       height="22"
       fill-opacity="0"
       id="rect25" />
    <path
       class="ColorScheme-Text"
       transform="translate(-123,-23)"
       d="m 133.99,2 a 9,9 0 0 0 -8.9902,9 9,9 0 0 0 9,9 9,9 0 0 0 9,-9 9,9 0 0 0 -9,-9 9,9 0 0 0 -0.01,0 z m -0.0859,2 a 7,7 0 0 1 0.002,0 7,7 0 0 1 0.0937,0 7,7 0 0 1 7,7 7,7 0 0 1 -7,7 7,7 0 0 1 -7,-7 7,7 0 0 1 6.9043,-7 z m -3.3418,3.8027 c -0.16096,0.01995 -0.29457,0.089885 -0.40234,0.21094 -0.10776,0.12106 -0.16211,0.26348 -0.16211,0.42578 v 5.1211 c 0,0.1623 0.0544,0.30472 0.16211,0.42578 0.10776,0.12106 0.24138,0.19098 0.40234,0.21094 0.16097,0.01996 0.30705,-0.01563 0.44141,-0.10742 l 2.9941,-2.0645 v 1.5352 c 0,0.1623 0.0543,0.30472 0.16211,0.42578 0.10776,0.12106 0.24138,0.19098 0.40234,0.21094 0.16097,0.01996 0.30705,-0.01563 0.44141,-0.10742 l 3.7148,-2.5605 c 0.1184,-0.08115 0.20088,-0.19181 0.2461,-0.32617 0.0452,-0.13569 0.0452,-0.26992 0,-0.4043 -0.0452,-0.13436 -0.12707,-0.2437 -0.24414,-0.32617 l -3.7168,-2.5625 c -0.13392,-0.093122 -0.28088,-0.12782 -0.44141,-0.10742 -0.16096,0.01995 -0.29457,0.089885 -0.40234,0.21094 -0.10775,0.12106 -0.16211,0.26348 -0.16211,0.42578 v 1.5352 l -2.9941,-2.0645 c -0.13392,-0.093122 -0.28088,-0.12782 -0.44141,-0.10742 z"
       fill="currentColor"
       id="path27" />
  </g>
  <g
     id="media-seek-backward"
     transform="matrix(-0.26458,0,0,0.26458,32.543874,7.4082619)">
    <rect
       x="0.00021085"
       y="-23"
       width="22"
       height="22"
       fill-opacity="0"
       id="rect30" />
    <path
       class="ColorScheme-Text"
       transform="matrix(-1,0,0,1,120,-23)"
       d="m 109,2 a 9,9 0 0 0 -9,9 9,9 0 0 0 9,9 9,9 0 0 0 9,-9 9,9 0 0 0 -8.9902,-9 9,9 0 0 0 -0.01,0 z m 0,2 a 7,7 0 0 1 0.0937,0 7,7 0 0 1 6.9062,7 7,7 0 0 1 -7,7 7,7 0 0 1 -7,-7 7,7 0 0 1 7,-7 z m -0.5625,3.8027 c -0.16052,-0.020399 -0.30748,0.0143 -0.4414,0.10742 l -3.7168,2.5625 c -0.11708,0.08247 -0.1989,0.19181 -0.24414,0.32617 -0.0452,0.13438 -0.0452,0.2686 0,0.4043 0.0452,0.13436 0.12769,0.24502 0.24609,0.32617 l 3.7148,2.5605 c 0.13435,0.0918 0.28044,0.12738 0.4414,0.10742 0.16097,-0.01996 0.29459,-0.08988 0.40235,-0.21094 0.10775,-0.12106 0.16211,-0.26348 0.16211,-0.42578 v -1.5352 l 2.9941,2.0645 c 0.13435,0.0918 0.28044,0.12738 0.4414,0.10742 0.16097,-0.01996 0.29459,-0.08988 0.40235,-0.21094 0.10775,-0.12106 0.16211,-0.26348 0.16211,-0.42578 v -5.1211 c 0,-0.1623 -0.0544,-0.30472 -0.16211,-0.42578 -0.10777,-0.12105 -0.24138,-0.19099 -0.40235,-0.21094 -0.16052,-0.020399 -0.30748,0.0143 -0.4414,0.10742 l -2.9941,2.0645 v -1.5352 c 0,-0.1623 -0.0544,-0.30472 -0.16211,-0.42578 -0.10777,-0.12105 -0.24138,-0.19099 -0.40235,-0.21094 z"
       fill="currentColor"
       id="path32" />
  </g>
  <g
     id="media-skip-forward"
     transform="matrix(0.26458,0,0,0.26458,1.3898478,1.3229138)">
    <rect
       x="170"
       y="3.0518e-05"
       width="22"
       height="22"
       fill-opacity="0"
       id="rect35" />
    <path
       class="ColorScheme-Text"
       d="m 180.99,2 a 9,9 0 0 0 -8.9902,9 9,9 0 0 0 9,9 9,9 0 0 0 9,-9 9,9 0 0 0 -9,-9 9,9 0 0 0 -0.01,0 z m -0.0859,2 a 7,7 0 0 1 0.002,0 7,7 0 0 1 0.0937,0 7,7 0 0 1 7,7 7,7 0 0 1 -7,7 7,7 0 0 1 -7,-7 7,7 0 0 1 6.9043,-7 z m -3.3418,3.8027 c -0.16097,0.01995 -0.29457,0.089885 -0.40234,0.21094 -0.1078,0.12106 -0.16215,0.26348 -0.16215,0.42578 v 5.1211 c 0,0.1623 0.0543,0.30472 0.16211,0.42578 0.10775,0.12106 0.24137,0.19098 0.40234,0.21094 0.16097,0.01996 0.30705,-0.01563 0.44141,-0.10742 l 3.7148,-2.5605 c 0.1184,-0.08115 0.20088,-0.19181 0.2461,-0.32617 0.0452,-0.13569 0.0452,-0.26992 0,-0.4043 -0.0452,-0.13436 -0.12706,-0.2437 -0.24414,-0.32617 l -3.7168,-2.5625 c -0.13392,-0.093122 -0.28089,-0.12782 -0.44141,-0.10742 z m 6.4355,0.19727 c -0.554,0 -1,0.446 -1,1 v 4 c 0,0.554 0.446,1 1,1 0.554,0 1,-0.446 1,-1 v -4 c 0,-0.554 -0.446,-1 -1,-1 z"
       fill="currentColor"
       id="path37" />
  </g>
  <g
     id="media-skip-backward"
     transform="matrix(-0.26458,0,0,0.26458,90.619345,1.3229138)">
    <rect
       x="170"
       y="3.0518e-05"
       width="22"
       height="22"
       fill-opacity="0"
       id="rect40" />
    <path
       class="ColorScheme-Text"
       transform="matrix(-1,0,0,1,339,0)"
       d="m 158,2 a 9,9 0 0 0 -9,9 9,9 0 0 0 9,9 9,9 0 0 0 9,-9 9,9 0 0 0 -8.9902,-9 9,9 0 0 0 -0.01,0 z m 0,2 a 7,7 0 0 1 0.0937,0 7,7 0 0 1 6.9062,7 7,7 0 0 1 -7,7 7,7 0 0 1 -7,-7 7,7 0 0 1 7,-7 z m 3.4375,3.8027 c -0.16052,-0.020399 -0.30748,0.0143 -0.4414,0.10742 l -3.7168,2.5625 c -0.11708,0.08247 -0.19894,0.19181 -0.24414,0.32617 -0.0452,0.13438 -0.0452,0.2686 0,0.4043 0.0452,0.13436 0.12769,0.24502 0.24609,0.32617 l 3.7148,2.5605 c 0.13436,0.0918 0.28043,0.12738 0.4414,0.10742 0.16097,-0.01996 0.2946,-0.08988 0.40235,-0.21094 0.1078,-0.12106 0.16211,-0.26348 0.16211,-0.42578 v -5.1211 c 0,-0.1623 -0.0543,-0.30472 -0.16211,-0.42578 -0.10777,-0.12105 -0.24138,-0.19099 -0.40235,-0.21094 z m -6.4355,0.19727 c -0.554,0 -1,0.446 -1,1 v 4 c 0,0.554 0.446,1 1,1 0.554,0 1,-0.446 1,-1 v -4 c 0,-0.554 -0.446,-1 -1,-1 z"
       fill="currentColor"
       id="path42" />
  </g>
  <g
     id="media-eject"
     transform="matrix(0,-0.26458,0.26458,0,52.916903,52.122282)">
    <rect
       x="170"
       y="3.0518e-05"
       width="22"
       height="22"
       fill-opacity="0"
       id="rect45" />
    <path
       class="ColorScheme-Text"
       transform="rotate(90,194.5,-2.4991)"
       d="m 208,2 a 9,9 0 0 0 -9,9 9,9 0 0 0 0,0.0098 9,9 0 0 0 9,8.9902 9,9 0 0 0 9,-9 9,9 0 0 0 -9,-9 z m -0.0937,2 A 7,7 0 0 1 208,4 a 7,7 0 0 1 7,7 7,7 0 0 1 -7,7 7,7 0 0 1 -7,-6.9062 7,7 0 0 1 0,-0.09375 7,7 0 0 1 6.9062,-7 z M 208,5.7559 c -0.0845,0 -0.16806,0.014769 -0.25195,0.042969 -0.16777,0.0564 -0.30328,0.15849 -0.40625,0.30469 l -3.1992,4.6406 c -0.11628,0.16722 -0.16024,0.35035 -0.13477,0.55078 0.0249,0.201 0.11252,0.36738 0.26367,0.50195 0.15116,0.13456 0.3286,0.20312 0.53125,0.20312 h 6.3945 c 0.20265,0 0.38008,-0.06846 0.53125,-0.20312 0.15116,-0.13454 0.2407,-0.30095 0.26562,-0.50195 0.0249,-0.20099 -0.0221,-0.38301 -0.13672,-0.55078 l -3.1973,-4.6387 c -0.10133,-0.14784 -0.23848,-0.25018 -0.40625,-0.30664 -0.0847,-0.0282 -0.1694,-0.042969 -0.25391,-0.042969 z M 205,13 c -0.55398,0 -1,0.446 -1,1 0,0.554 0.44602,1 1,1 h 6 c 0.55398,0 1,-0.446 1,-1 0,-0.554 -0.44602,-1 -1,-1 z"
       fill="currentColor"
       id="path47" />
  </g>
  <use
     y="0"
     x="0"
     id="media-playback-pause"
     transform="translate(0.26458437,9.2604532)"
     width="100%"
     height="100%"
     xlink:href="#media-playback-paused" />
  <use
     y="0"
     x="0"
     id="media-playback-start"
     transform="translate(0.06601337,9.2604531)"
     width="100%"
     height="100%"
     xlink:href="#media-playback-playing" />
  <use
     y="0"
     x="0"
     id="media-playback-stop"
     transform="translate(-0.13255813,9.2604531)"
     width="100%"
     height="100%"
     xlink:href="#media-playback-stopped" />
</svg>
