<?xml version="1.0" encoding="UTF-8" standalone="no"?>
<svg
   xmlns:dc="http://purl.org/dc/elements/1.1/"
   xmlns:cc="http://creativecommons.org/ns#"
   xmlns:rdf="http://www.w3.org/1999/02/22-rdf-syntax-ns#"
   xmlns:svg="http://www.w3.org/2000/svg"
   xmlns="http://www.w3.org/2000/svg"
   id="svg31"
   viewBox="0 0 22 22"
   version="1.1">
  <metadata
     id="metadata35">
    <rdf:RDF>
      <cc:Work
         rdf:about="">
        <dc:format>image/svg+xml</dc:format>
        <dc:type
           rdf:resource="http://purl.org/dc/dcmitype/StillImage" />
        <dc:title></dc:title>
      </cc:Work>
    </rdf:RDF>
  </metadata>
  <defs
     id="defs3">
    <style
       type="text/css"
       id="current-color-scheme">.ColorScheme-Text { color:#363636; }</style>
  </defs>
  <g
     fill="currentColor"
     class="ColorScheme-Text"
     id="22-22-printer">
    <rect
       id="rect5"
       fill-opacity="0"
       height="22"
       width="22" />
    <g
       id="g11"
       transform="matrix(3.7796 0 0 3.7796 3 -1103.6)">
      <path
         id="path7"
         d="m1.0419 292.77c-0.09525 0.0124-0.24818 0.0662-0.24818 0.26459v0.52916s-0.26458 0-0.26458 0.26459v0.79375h-0.26458s-0.26458 0-0.26458 0.26458v1.4552c0 0.13229 0.13229 0.13229 0.13229 0.13229h0.13229c0 0.26458 0.26458 0.26458 0.26458 0.26458s0 0.26459 0.26458 0.26459h2.6458c0.26458 0 0.26458-0.26459 0.26458-0.26459s0.26458 0 0.26458-0.26458h0.13229c0.13229 0 0.13229-0.11086 0.13229-0.13229v-1.4552c0-0.26458-0.26458-0.26458-0.26458-0.26458h-0.26458v-0.79375c0-0.26459-0.26458-0.26459-0.26458-0.26459v-0.52916c0-0.26459-0.26458-0.26459-0.31406-0.26459h-2.0174c-0.012435 0-0.034396-4e-3 -0.066146 0zm0.016404 0.26459h2.1167v1.5875h-2.1167zm-0.64505 1.8521a0.067733 0.067733 0 0 1 0.024871 0h3.357s0.17357 0 0.17357 0.14896v1.174h-3.7042v-1.174c0-0.11166 0.10001-0.14182 0.14896-0.14896zm0.38047 1.5875h2.6458v0.26458h-2.6458z" />
      <path
         id="path9"
         opacity=".5"
         d="m0.79375 294.88v1.0583h2.6458v-1.0583z" />
    </g>
  </g>
  <g
     fill="currentColor"
     class="ColorScheme-Text"
     id="printer">
    <g
       id="g26"
       transform="translate(-80.491 3.9007)">
      <path
         id="path14"
         d="m45 15c0 0.554 0.446 1 1 1h1v-1zm16 0v1h1c0.554 0 1-0.446 1-1z" />
      <path
         id="path16"
         d="m46 14v3c0 1.108 0.892 2 2 2h12c1.108 0 2-0.892 2-2v-3h-1v3c0 0.554-0.446 1-1 1h-12c-0.554 0-1-0.446-1-1v-3z" />
      <rect
         id="rect18"
         opacity=".5"
         ry="1"
         height="7"
         width="14"
         y="5"
         x="47" />
      <path
         id="path20"
         d="m49-6c-1.108 0-2 0.892-2 2v7.3047c0 0.74358 0.4067 1.3838 1.0059 1.7285-3.96e-4 -0.011619-0.0059-0.021484-0.0059-0.033203v-9c0-0.554 0.446-1 1-1h10c0.554 0 1 0.446 1 1v9c0 0.011719-0.0055 0.021584-0.0059 0.033203 0.5992-0.3447 1.0059-0.98493 1.0059-1.7285v-7.3047c0-1.108-0.892-2-2-2z" />
      <path
         id="path22"
         d="m47-1c-1.108 0-2 0.892-2 2v5h4c-0.554 0-1-0.446-1-1v-6zm13 0v6c0 0.554-0.446 1-1 1h4v-5c0-1.108-0.892-2-2-2z" />
      <path
         id="path24"
         d="m44 5c-1.108 0-2 0.892-2 2v6c0 1.108 0.892 2 2 2h20c1.108 0 2-0.892 2-2v-6c0-1.108-0.892-2-2-2zm0 1h20c0.554 0 1 0.446 1 1v6c0 0.554-0.446 1-1 1h-20c-0.554 0-1-0.446-1-1v-6c0-0.554 0.446-1 1-1z" />
    </g>
    <rect
       id="rect28"
       fill-opacity="0"
       height="32"
       width="32"
       y="-5.5993"
       x="-42.491" />
  </g>
</svg>
