<?xml version="1.0" encoding="UTF-8" standalone="no"?>
<!-- Created with Inkscape (http://www.inkscape.org/) -->

<svg
   xmlns:dc="http://purl.org/dc/elements/1.1/"
   xmlns:cc="http://creativecommons.org/ns#"
   xmlns:rdf="http://www.w3.org/1999/02/22-rdf-syntax-ns#"
   xmlns:svg="http://www.w3.org/2000/svg"
   xmlns="http://www.w3.org/2000/svg"
   xmlns:sodipodi="http://sodipodi.sourceforge.net/DTD/sodipodi-0.dtd"
   xmlns:inkscape="http://www.inkscape.org/namespaces/inkscape"
   id="svg4153"
   version="1.1"
   inkscape:version="0.91 r13725"
   width="22"
   height="22"
   sodipodi:docname="user.svgz"
   viewBox="0 0 22 22">
  <metadata
     id="metadata4159">
    <rdf:RDF>
      <cc:Work
         rdf:about="">
        <dc:format>image/svg+xml</dc:format>
        <dc:type
           rdf:resource="http://purl.org/dc/dcmitype/StillImage" />
        <dc:title />
      </cc:Work>
    </rdf:RDF>
  </metadata>
  <defs
     id="defs4157">
    <style
       type="text/css"
       id="current-color-scheme">
      .ColorScheme-Text {
        color:#31363b;
      }
      .ColorScheme-Background {
        color:#eff0f1;
      }
      .ColorScheme-Highlight {
        color:#3daee9;
      }
      .ColorScheme-ViewText {
        color:#31363b;
      }
      .ColorScheme-ViewBackground {
        color:#fcfcfc;
      }
      .ColorScheme-ViewHover {
        color:#93cee9;
      }
      .ColorScheme-ViewFocus{
        color:#3daee9;
      }
      .ColorScheme-ButtonText {
        color:#31363b;
      }
      .ColorScheme-ButtonBackground {
        color:#eff0f1;
      }
      .ColorScheme-ButtonHover {
        color:#93cee9;
      }
      .ColorScheme-ButtonFocus{
        color:#3daee9;
      }
      </style>
  </defs>
  <sodipodi:namedview
     pagecolor="#363636"
     bordercolor="#666666"
     borderopacity="1"
     objecttolerance="10"
     gridtolerance="10000"
     guidetolerance="10"
     inkscape:pageopacity="0"
     inkscape:pageshadow="2"
     inkscape:window-width="1920"
     inkscape:window-height="1008"
     id="namedview4155"
     inkscape:document-units="px"
     showgrid="true"
     inkscape:showpageshadow="false"
     borderlayer="true"
     inkscape:zoom="11.313708"
     inkscape:cx="5.8249992"
     inkscape:cy="16.196623"
     inkscape:window-x="-4"
     inkscape:window-y="0"
     inkscape:window-maximized="1"
     inkscape:current-layer="svg4153">
    <inkscape:grid
       type="xygrid"
       id="grid4140" />
    <sodipodi:guide
       position="0,22"
       orientation="22,0"
       id="guide4146" />
    <sodipodi:guide
       position="0,0"
       orientation="0,22"
       id="guide4148" />
    <sodipodi:guide
       position="22,0"
       orientation="-22,0"
       id="guide4150" />
    <sodipodi:guide
       position="22,22"
       orientation="0,-22"
       id="guide4152" />
    <sodipodi:guide
       position="3,19"
       orientation="16,0"
       id="guide4154" />
    <sodipodi:guide
       position="3,3"
       orientation="0,16"
       id="guide4156" />
    <sodipodi:guide
       position="19,3"
       orientation="-1,6.123234e-17"
       id="guide4158" />
    <sodipodi:guide
       position="44,19"
       orientation="0,-16"
       id="guide4160" />
  </sodipodi:namedview>
  <inkscape:clipboard
     style="opacity:0.01000001;fill:#00000f;fill-opacity:0;stroke-width:1;stroke-linecap:butt;stroke-linejoin:miter;stroke-miterlimit:4;stroke-dasharray:none;stroke-dashoffset:0;stroke-opacity:1;stroke:none"
     min="0,0"
     max="22,22" />
  <g
     id="user-away">
    <rect
       y="0"
       x="-44"
       height="22"
       width="22"
       id="rect4562"
       style="opacity:0.97000002;fill:none;fill-opacity:1;stroke:none" />
    <path
       inkscape:connector-curvature="0"
       id="path4149"
       d="m -33,2.99961 a 3.9999902,4.0000296 0 0 0 -4,4 3.9999902,4.0000296 0 0 0 4,4 3.9999902,4.0000296 0 0 0 4,-4 3.9999902,4.0000296 0 0 0 -4,-4 z m 0,1 a 3,3.0000296 0 0 1 3,3 3,3.0000296 0 0 1 -3,3 3,3.0000296 0 0 1 -3,-3 3,3.0000296 0 0 1 3,-3 z"
       style="opacity:1;fill:#fdbc4b;fill-opacity:1;stroke:none" />
    <path
       inkscape:connector-curvature="0"
       id="ellipse4156"
       d="m -33,12 a 7.9999504,8.0000296 0 0 0 -7.927734,7 l 1.007812,0 A 6.9999604,7.0000296 0 0 1 -33,13 a 6.9999604,7.0000296 0 0 1 1,0.08008 l 0,-1.009766 A 7.9999504,8.0000296 0 0 0 -33,12 Z"
       style="opacity:1;fill:#fdbc4b;fill-opacity:1;stroke:none" />
    <path
       sodipodi:nodetypes="ccccccc"
       inkscape:connector-curvature="0"
       id="path4227"
       d="m -25,11 -8,4 2,1 1,3 1,-2 2,1 z"
       style="fill:#fdbc4b;fill-opacity:1;fill-rule:evenodd;stroke:none;stroke-width:1px;stroke-linecap:butt;stroke-linejoin:miter;stroke-opacity:1" />
  </g>
  <g
     id="user-busy">
    <rect
       style="opacity:0.97000002;fill:none;fill-opacity:1;stroke:none"
       id="rect4560"
       width="22"
       height="22"
       x="-66"
       y="0" />
    <path
       inkscape:connector-curvature="0"
       id="path4149-4"
       d="m -55,2.99961 a 3.9999902,4.0000296 0 0 0 -4,4 3.9999902,4.0000296 0 0 0 4,4 3.9999902,4.0000296 0 0 0 4,-4 3.9999902,4.0000296 0 0 0 -4,-4 z m 0,1 a 3,3.0000296 0 0 1 3,3 3,3.0000296 0 0 1 -3,3 3,3.0000296 0 0 1 -3,-3 3,3.0000296 0 0 1 3,-3 z"
       style="opacity:1;fill:#f47750;fill-opacity:1;stroke:none" />
    <path
       inkscape:connector-curvature="0"
       id="ellipse4156-7"
       d="m -55,12 a 7.9999504,8.0000296 0 0 0 -7.927734,7 l 1.007812,0 A 6.9999604,7.0000296 0 0 1 -55,13 a 6.9999604,7.0000296 0 0 1 1,0.08008 l 0,-1.009766 A 7.9999504,8.0000296 0 0 0 -55,12 Z"
       style="opacity:1;fill:#f47750;fill-opacity:1;stroke:none" />
    <path
       inkscape:connector-curvature="0"
       id="path4169"
       d="M -50.5,12 A 3.5,3.5 0 0 0 -54,15.5 3.5,3.5 0 0 0 -50.5,19 3.5,3.5 0 0 0 -47,15.5 3.5,3.5 0 0 0 -50.5,12 Z"
       style="opacity:1;fill:#f47750;fill-opacity:1;stroke:none" />
    <path
       sodipodi:nodetypes="ccccccccc"
       inkscape:connector-curvature="0"
       id="rect4146"
       d="m -51,13 0,2 0,1 1,0 1,0 0,-1 -1,0 0,-2 z"
       style="opacity:1;fill:currentColor;fill-opacity:1;stroke:none"
       class="ColorScheme-Background" />
  </g>
  <g
     id="user-invisible">
    <rect
       style="opacity:0.97000002;fill:none;fill-opacity:1;stroke:none"
       id="rect4556"
       width="22"
       height="22"
       x="22"
       y="0" />
    <path
       inkscape:connector-curvature="0"
       id="path4149-7"
       d="m 33,2.99961 a 3.9999902,4.0000296 0 0 0 -4,4 3.9999902,4.0000296 0 0 0 4,4 3.9999902,4.0000296 0 0 0 4,-4 3.9999902,4.0000296 0 0 0 -4,-4 z m 0,1 a 3,3.0000296 0 0 1 3,3 3,3.0000296 0 0 1 -3,3 3,3.0000296 0 0 1 -3,-3 3,3.0000296 0 0 1 3,-3 z"
       style="opacity:1;fill:currentColor;fill-opacity:1;stroke:none"
       class="ColorScheme-Text" />
    <path
       inkscape:connector-curvature="0"
       id="ellipse4156-0"
       d="m 33,12 a 7.9999504,8.0000296 0 0 0 -7.927734,7 l 1.007812,0 A 6.9999604,7.0000296 0 0 1 33,13 a 6.9999604,7.0000296 0 0 1 1,0.08008 l 0,-1.009766 A 7.9999504,8.0000296 0 0 0 33,12 Z"
       style="opacity:1;fill:currentColor;fill-opacity:1;stroke:none"
       class="ColorScheme-Text" />
    <circle
       r="3.5"
       cy="15.5"
       cx="37.500004"
       id="path4167"
       style="opacity:1;fill:#666666;fill-opacity:1;stroke:none" />
    <rect
       transform="matrix(0.70710678,0.70710678,-0.70710678,0.70710678,0,0)"
       y="-17.884859"
       x="36.976669"
       height="4.6570001"
       width="1"
       id="rect4152"
       style="opacity:1;fill:currentColor;fill-opacity:1;stroke:none"
       class="ColorScheme-Background" />
  </g>
  <g
     id="user-offline">
    <rect
       style="opacity:0.97000002;fill:none;fill-opacity:1;stroke:none"
       id="rect4564"
       width="22"
       height="22"
       x="-22"
       y="0" />
    <ellipse
       ry="3.2499855"
       rx="3.2500012"
       cy="15.5"
       cx="-6.4999957"
       id="path4146"
       style="opacity:1;fill:currentColor;fill-opacity:1;stroke:none"
       class="ColorScheme-Background" />
    <path
       inkscape:connector-curvature="0"
       id="path4149-3"
       d="m -11,2.99961 a 3.9999902,4.0000296 0 0 0 -4,4 3.9999902,4.0000296 0 0 0 4,4 3.9999902,4.0000296 0 0 0 4,-4 3.9999902,4.0000296 0 0 0 -4,-4 z m 0,1 a 3,3.0000296 0 0 1 3,3 3,3.0000296 0 0 1 -3,3 3,3.0000296 0 0 1 -3,-3 3,3.0000296 0 0 1 3,-3 z"
       style="opacity:1;fill:#bdc3c7;fill-opacity:1;stroke:none"
       class="ColorScheme-Text" />
    <path
       inkscape:connector-curvature="0"
       id="ellipse4156-75"
       d="m -11,12 a 7.9999504,8.0000296 0 0 0 -7.927734,7 l 1.007812,0 A 6.9999604,7.0000296 0 0 1 -11,13 a 6.9999604,7.0000296 0 0 1 1,0.08008 l 0,-1.009766 A 7.9999504,8.0000296 0 0 0 -11,12 Z"
       style="opacity:1;fill:#bdc3c7;fill-opacity:1;stroke:none"
       class="ColorScheme-Text" />
    <path
       inkscape:connector-curvature="0"
       id="path4167-8"
       d="M -6.5,12 A 3.5,3.5 0 0 0 -10,15.5 3.5,3.5 0 0 0 -6.5,19 3.5,3.5 0 0 0 -3,15.5 3.5,3.5 0 0 0 -6.5,12 Z m 0,1 A 2.5,2.5 0 0 1 -4,15.5 2.5,2.5 0 0 1 -6.5,18 2.5,2.5 0 0 1 -9,15.5 2.5,2.5 0 0 1 -6.5,13 Z"
       style="opacity:1;fill:#bdc3c7;fill-opacity:1;stroke:none" />
    <rect
       transform="matrix(0,1,-1,0,0,0)"
       y="4.9999957"
       x="15"
       height="2.9999912"
       width="0.99997091"
       id="rect4152-8"
       style="opacity:1;fill:#bdc3c7;fill-opacity:1;stroke:none" />
  </g>
  <g
     id="user-online">
    <rect
       y="0"
       x="0"
       height="22"
       width="22"
       id="rect4554"
       style="opacity:0.97000002;fill:none;fill-opacity:1;stroke:none" />
    <path
       inkscape:connector-curvature="0"
       id="path4149-8"
       d="m 10.96392,2.99961 a 3.9999902,4.0000296 0 0 0 -4,4 3.9999902,4.0000296 0 0 0 4,4 3.9999902,4.0000296 0 0 0 4,-4 3.9999902,4.0000296 0 0 0 -4,-4 z m 0,1 a 3,3.0000296 0 0 1 3,3 3,3.0000296 0 0 1 -3,3 3,3.0000296 0 0 1 -3,-3 3,3.0000296 0 0 1 3,-3 z"
       style="opacity:1;fill:#43be80;fill-opacity:1;stroke:none" />
    <path
       id="ellipse4156-8"
       d="m 10.96392,12 a 7.9999504,8.0000296 0 0 0 -7.9277344,7 l 1.0078125,0 a 6.9999604,7.0000296 0 0 1 6.9199219,-6 6.9999604,7.0000296 0 0 1 1,0.08008 l 0,-1.009766 a 7.9999504,8.0000296 0 0 0 -1,-0.07031 z"
       style="opacity:1;fill:#43be80;fill-opacity:1;stroke:none"
       inkscape:connector-curvature="0" />
    <circle
       r="3.5"
       cy="15.5"
       cx="15.463924"
       id="path4144"
       style="opacity:1;fill:#43be80;fill-opacity:1;stroke:none" />
    <path
       inkscape:connector-curvature="0"
       id="path4166"
       d="m 16.96391,14.00003 1,1 -3,3 -2,-2 1,-1 1,1 z"
       style="fill:currentColor;fill-rule:evenodd;stroke:none;stroke-width:1px;stroke-linecap:butt;stroke-linejoin:miter;stroke-opacity:1"
       class="ColorScheme-Background" />
  </g>
  <g
     id="user-identity">
    <rect
       y="0"
       x="-88"
       height="22"
       width="22"
       id="rect4585"
       style="opacity:0.97000002;fill:none;fill-opacity:1;stroke:none" />
    <path
       id="path4149-2"
       d="m -77,3 a 3.9999902,4.0000296 0 0 0 -4,4 3.9999902,4.0000296 0 0 0 4,4 3.9999902,4.0000296 0 0 0 4,-4 3.9999902,4.0000296 0 0 0 -4,-4 z m 0,1 a 3,3.0000296 0 0 1 3,3 3,3.0000296 0 0 1 -3,3 3,3.0000296 0 0 1 -3,-3 3,3.0000296 0 0 1 3,-3 z m 0,8 a 7.9999504,8.0000296 0 0 0 -7.927734,7 l 1.007812,0 A 6.9999604,7.0000296 0 0 1 -77,13 a 6.9999604,7.0000296 0 0 1 6.921875,6 l 1.007813,0 A 7.9999504,8.0000296 0 0 0 -77,12 Z"
       style="opacity:1;fill:currentColor;fill-opacity:1;stroke:none"
       inkscape:connector-curvature="0"
       class="ColorScheme-Text" />
  </g>
  <g
     id="user-away-extended">
    <rect
       style="opacity:0.97000002;fill:none;fill-opacity:1;stroke:none"
       id="rect4649"
       width="22"
       height="22"
       x="44"
       y="0" />
    <circle
       style="opacity:1;fill:#9b59b6;fill-opacity:1;stroke:none"
       id="circle4653"
       cx="59.500015"
       cy="15.5"
       r="3.4999852" />
    <path
       style="opacity:1;fill:#9b59b6;fill-opacity:1;stroke:none"
       d="m 55.00004,2.99961 a 3.9999902,4.0000296 0 0 0 -4,4 3.9999902,4.0000296 0 0 0 4,4 3.9999902,4.0000296 0 0 0 4,-4 3.9999902,4.0000296 0 0 0 -4,-4 z m 0,1 a 3,3.0000296 0 0 1 3,3 3,3.0000296 0 0 1 -3,3 3,3.0000296 0 0 1 -3,-3 3,3.0000296 0 0 1 3,-3 z"
       id="path4655"
       inkscape:connector-curvature="0" />
    <path
       style="opacity:1;fill:#9b59b6;fill-opacity:1;stroke:none"
       d="m 55.00004,12 a 7.9999504,8.0000296 0 0 0 -7.927734,7 l 1.007812,0 a 6.9999604,7.0000296 0 0 1 6.919922,-6 6.9999604,7.0000296 0 0 1 1,0.08008 l 0,-1.009766 a 7.9999504,8.0000296 0 0 0 -1,-0.07031 z"
       id="path4657"
       inkscape:connector-curvature="0" />
    <circle
       r="0.5"
       cy="-57.500046"
       cx="15.5"
       id="circle4659"
       style="opacity:0.7;fill:currentColor;fill-opacity:1;stroke:none"
       transform="matrix(0,1,-1,0,0,0)"
       class="ColorScheme-Background" />
    <circle
       style="opacity:0.4;fill:currentColor;fill-opacity:1;stroke:none"
       id="circle4661"
       cx="59.500046"
       cy="15.5"
       r="0.5"
       class="ColorScheme-Background" />
    <circle
       style="opacity:0.3;fill:currentColor;fill-opacity:1;stroke:none"
       id="circle4663"
       cx="61.500046"
       cy="15.5"
       r="0.5"
       class="ColorScheme-Background" />
  </g>
</svg>
