<?xml version="1.0" encoding="UTF-8" standalone="no"?>
<svg
   xmlns:dc="http://purl.org/dc/elements/1.1/"
   xmlns:cc="http://creativecommons.org/ns#"
   xmlns:rdf="http://www.w3.org/1999/02/22-rdf-syntax-ns#"
   xmlns:svg="http://www.w3.org/2000/svg"
   xmlns="http://www.w3.org/2000/svg"
   id="svg29"
   viewBox="0 0 46 44"
   version="1.0"
   height="44"
   width="46">
  <metadata
     id="metadata33">
    <rdf:RDF>
      <cc:Work
         rdf:about="">
        <dc:format>image/svg+xml</dc:format>
        <dc:type
           rdf:resource="http://purl.org/dc/dcmitype/StillImage" />
        <dc:title></dc:title>
      </cc:Work>
    </rdf:RDF>
  </metadata>
  <defs
     id="defs3">
    <style
       type="text/css"
       id="current-color-scheme">.ColorScheme-Text { color:#363636; } </style>
  </defs>
  <g
     transform="translate(-252.54 -343.51)"
     id="zoom-fit-height">
    <path
       id="path5"
       fill="currentColor"
       d="m253.52 366.51v1h20v-1zm10 1-3 3h2v3.1875c-1.1583 0.41552-2 1.5112-2 2.8125s0.84166 2.397 2 2.8125v3.1875h-2l3 3 3-3h-2v-3.1875c1.1584-0.41551 2-1.5112 2-2.8125s-0.84165-2.397-2-2.8125v-3.1875h2zm0 18h-10v1h20v-1zm0-11c1.1046 0 2 0.89543 2 2s-0.89543 2-2 2c-1.1046 0-2-0.89543-2-2s0.89544-2 2-2z"
       class="ColorScheme-Text" />
    <circle
       id="circle7"
       fill="currentColor"
       r="1"
       cy="11"
       cx="11.013"
       transform="translate(252.52,365.51)"
       class="ColorScheme-Text" />
    <rect
       id="rect9"
       fill-opacity="0"
       height="22"
       width="22"
       y="4e-6"
       x=".012515"
       transform="translate(252.52,365.51)" />
  </g>
  <g
     transform="rotate(90,321.02,90.48)"
     id="zoom-fit-width">
    <path
       id="path12"
       fill="currentColor"
       d="m253.52 366.51v1h20v-1zm10 1-3 3h2v3.1875c-1.1583 0.41552-2 1.5112-2 2.8125s0.84166 2.397 2 2.8125v3.1875h-2l3 3 3-3h-2v-3.1875c1.1584-0.41551 2-1.5112 2-2.8125s-0.84165-2.397-2-2.8125v-3.1875h2zm0 18h-10v1h20v-1zm0-11c1.1046 0 2 0.89543 2 2s-0.89543 2-2 2c-1.1046 0-2-0.89543-2-2s0.89544-2 2-2z"
       class="ColorScheme-Text" />
    <circle
       id="circle14"
       fill="currentColor"
       r="1"
       cy="11"
       cx="11.013"
       transform="translate(252.52,365.51)"
       class="ColorScheme-Text" />
    <rect
       id="rect16"
       fill-opacity="0"
       height="22"
       width="22"
       y="4e-6"
       x=".012515"
       transform="translate(252.52,365.51)" />
  </g>
  <g
     transform="translate(-232.54 -368.51)"
     id="16-16-zoom-fit-height">
    <path
       id="path19"
       fill="currentColor"
       d="m256.52 369.51v1h14v-1zm7 1-2 2h1s7e-3 1.1284 0 2.2812c-0.5969 0.34604-1 0.97915-1 1.7188s0.4031 1.3727 1 1.7188c7e-3 1.1862 0 2.3125 0 2.3125h-1l1.9688 1.9688h-6.9375v1h13.969v-1h-6.9688l1.9688-1.9688-1.0312-0.0312v-2.25c0.61694-0.34059 1.0312-0.99545 1.0312-1.75s-0.41431-1.4094-1.0312-1.75v-2.2188l1.0312-0.0312-2-2zm-0.125 5.0312h0.25c0.4881 0.0662 0.875 0.46249 0.875 0.96875 0 0.55228-0.44772 1-1 1s-1-0.44772-1-1c0-0.50626 0.3869-0.90253 0.875-0.96875z"
       class="ColorScheme-Text" />
    <rect
       id="rect21"
       fill-opacity="0"
       height="16"
       width="16"
       y="6e-6"
       x=".012518"
       transform="translate(255.52,368.51)" />
  </g>
  <g
     transform="rotate(90,321.02,65.48)"
     id="16-16-zoom-fit-width">
    <path
       id="path24"
       fill="currentColor"
       d="m256.52 369.51v1h14v-1zm7 1-2 2h1s7e-3 1.1284 0 2.2812c-0.5969 0.34604-1 0.97915-1 1.7188s0.4031 1.3727 1 1.7188c7e-3 1.1862 0 2.3125 0 2.3125h-1l1.9688 1.9688h-6.9375v1h13.969v-1h-6.9688l1.9688-1.9688-1.0312-0.0312v-2.25c0.61694-0.34059 1.0312-0.99545 1.0312-1.75s-0.41431-1.4094-1.0312-1.75v-2.2188l1.0312-0.0312-2-2zm-0.125 5.0312h0.25c0.4881 0.0662 0.875 0.46249 0.875 0.96875 0 0.55228-0.44772 1-1 1s-1-0.44772-1-1c0-0.50626 0.3869-0.90253 0.875-0.96875z"
       class="ColorScheme-Text" />
    <rect
       id="rect26"
       fill-opacity="0"
       height="16"
       width="16"
       y="6e-6"
       x=".012518"
       transform="translate(255.52,368.51)" />
  </g>
</svg>
