<?xml version="1.0" encoding="UTF-8" standalone="no"?>
<svg
   width="22"
   height="22"
   version="1.1"
   id="svg7"
   sodipodi:docname="caffeine.svg"
   inkscape:version="1.2.1 (9c6d41e410, 2022-07-14)"
   xmlns:inkscape="http://www.inkscape.org/namespaces/inkscape"
   xmlns:sodipodi="http://sodipodi.sourceforge.net/DTD/sodipodi-0.dtd"
   xmlns="http://www.w3.org/2000/svg"
   xmlns:svg="http://www.w3.org/2000/svg">
  <sodipodi:namedview
     id="namedview9"
     pagecolor="#ffffff"
     bordercolor="#666666"
     borderopacity="1.0"
     inkscape:pageshadow="2"
     inkscape:pageopacity="0.0"
     inkscape:pagecheckerboard="0"
     showgrid="true"
     inkscape:zoom="4.4595939"
     inkscape:cx="9.4178979"
     inkscape:cy="28.253694"
     inkscape:window-width="1368"
     inkscape:window-height="700"
     inkscape:window-x="0"
     inkscape:window-y="32"
     inkscape:window-maximized="1"
     inkscape:current-layer="svg7"
     inkscape:showpageshadow="2"
     inkscape:deskcolor="#d1d1d1">
    <inkscape:grid
       type="xygrid"
       id="grid848" />
  </sodipodi:namedview>
  <defs
     id="defs3">
    <style
       id="current-color-scheme"
       type="text/css">
   .ColorScheme-Text { color:#333333; } .ColorScheme-Highlight { color:#4285f4; } .ColorScheme-NeutralText { color:#ff9800; } .ColorScheme-PositiveText { color:#4caf50; } .ColorScheme-NegativeText { color:#f44336; }
  </style>
  </defs>
  <g
     id="caffeine-plus-off">
    <rect
       id="rect850"
       width="22"
       height="22"
       x="0"
       y="0"
       rx="0"
       ry="0"
       style="fill:none" />
    <path
       style="fill:currentColor;opacity:0.35"
       class="ColorScheme-Text"
       d="M 10.193359,2 C 9.0951594,3.38422 8.7660094,4.0661956 9.1621094,4.9472656 9.5212094,5.7459356 10.449022,6.15297 9.9824219,8 10.748822,7.10008 11.357659,5.9571062 10.755859,5.0351562 10.143659,4.0974562 9.8083594,3.528 10.193359,2 Z m 3,0 c -1.0982,1.38422 -1.42735,2.0661956 -1.03125,2.9472656 C 12.521209,5.7459356 13.449022,6.15297 12.982422,8 13.748822,7.10008 14.357659,5.9571063 13.755859,5.0351562 13.143659,4.0974563 12.808359,3.528 13.193359,2 Z m 3,0 c -1.0982,1.38422 -1.42735,2.0661956 -1.03125,2.9472656 C 15.521209,5.7459356 16.449022,6.15297 15.982422,8 16.748822,7.10008 17.357659,5.9571063 16.755859,5.0351562 16.143659,4.0974563 15.808359,3.528 16.193359,2 Z"
       id="path5" />
    <path
       style="fill:currentColor"
       class="ColorScheme-Text"
       d="m 7,9 c -2.209139,0 -4,1.790861 -4,4 0,2.209139 1.790861,4 4,4 0.2424594,-8.38e-4 0.4843405,-0.02372 0.7226562,-0.06836 C 8.4620206,18.481091 9.9580363,19 13,19 c 6,0 6,-2 6,-10 z m 0,2 h 0.00781 c 0.011613,1.596219 0.052166,2.938455 0.1953125,3.986328 C 7.1356935,14.994331 7.0678957,14.998894 7,15 5.8954305,15 5,14.104569 5,13 5,11.895431 5.8954305,11 7,11 Z"
       id="path1019" />
  </g>
  <g
     id="caffeine-plus-on"
     transform="translate(23.99219)">
    <rect
       id="rect1013"
       width="22"
       height="22"
       x="0"
       y="0"
       rx="0"
       ry="0"
       style="fill:none" />
    <path
       style="fill:currentColor"
       class="ColorScheme-Text"
       d="M 10.193359,2 C 9.0951594,3.38422 8.7660094,4.0661956 9.1621094,4.9472656 9.5212094,5.7459356 10.449022,6.15297 9.9824219,8 10.748822,7.10008 11.357659,5.9571062 10.755859,5.0351562 10.143659,4.0974562 9.8083594,3.528 10.193359,2 Z m 3,0 c -1.0982,1.38422 -1.42735,2.0661956 -1.03125,2.9472656 C 12.521209,5.7459356 13.449022,6.15297 12.982422,8 13.748822,7.10008 14.357659,5.9571063 13.755859,5.0351562 13.143659,4.0974563 12.808359,3.528 13.193359,2 Z m 3,0 c -1.0982,1.38422 -1.42735,2.0661956 -1.03125,2.9472656 C 15.521209,5.7459356 16.449022,6.15297 15.982422,8 16.748822,7.10008 17.357659,5.9571063 16.755859,5.0351562 16.143659,4.0974563 15.808359,3.528 16.193359,2 Z M 7,9 c -2.209139,0 -4,1.790861 -4,4 0,2.209139 1.790861,4 4,4 0.2424594,-8.38e-4 0.4843405,-0.02372 0.7226562,-0.06836 C 8.4620206,18.481091 9.9580363,19 13,19 c 6,0 6,-2 6,-10 z m 0,2 h 0.00781 c 0.011613,1.596219 0.052166,2.938455 0.1953125,3.986328 C 7.1356935,14.994331 7.0678957,14.998894 7,15 5.8954305,15 5,14.104569 5,13 5,11.895431 5.8954305,11 7,11 Z"
       id="path1015" />
  </g>
  <g
     id="user-caffeine-plus-off"
     transform="translate(0,27)">
    <rect
       id="rect1176"
       width="22"
       height="22"
       x="0"
       y="0"
       rx="0"
       ry="0"
       style="fill:none" />
    <path
       style="opacity:0.35;fill:currentColor"
       class="ColorScheme-Text"
       d="M 10.193359,2 C 9.0951594,3.38422 8.7660094,4.0661956 9.1621094,4.9472656 9.5212094,5.7459356 10.449022,6.15297 9.9824219,8 10.748822,7.10008 11.357659,5.9571062 10.755859,5.0351562 10.143659,4.0974562 9.8083594,3.528 10.193359,2 Z m 3,0 c -1.0982,1.38422 -1.42735,2.0661956 -1.03125,2.9472656 C 12.521209,5.7459356 13.449022,6.15297 12.982422,8 13.748822,7.10008 14.357659,5.9571063 13.755859,5.0351562 13.143659,4.0974563 12.808359,3.528 13.193359,2 Z m 3,0 c -1.0982,1.38422 -1.42735,2.0661956 -1.03125,2.9472656 C 15.521209,5.7459356 16.449022,6.15297 15.982422,8 16.748822,7.10008 17.357659,5.9571063 16.755859,5.0351562 16.143659,4.0974563 15.808359,3.528 16.193359,2 Z"
       id="path1178" />
    <path
       style="fill:currentColor"
       class="ColorScheme-Text"
       d="m 7,9 c -2.209139,0 -4,1.790861 -4,4 0,2.209139 1.790861,4 4,4 0.2424594,-8.38e-4 0.4843405,-0.02372 0.7226562,-0.06836 C 8.4620206,18.481091 9.9580363,19 13,19 c 6,0 6,-2 6,-10 z m 0,2 h 0.00781 c 0.011613,1.596219 0.052166,2.938455 0.1953125,3.986328 C 7.1356935,14.994331 7.0678957,14.998894 7,15 5.8954305,15 5,14.104569 5,13 5,11.895431 5.8954305,11 7,11 Z"
       id="path1180" />
  </g>
  <g
     id="user-caffeine-plus-on"
     transform="translate(23.99219,27)">
    <rect
       id="rect1184"
       width="22"
       height="22"
       x="0"
       y="0"
       rx="0"
       ry="0"
       style="fill:none" />
    <path
       style="fill:currentColor"
       class="ColorScheme-Text"
       d="M 10.193359,2 C 9.0951594,3.38422 8.7660094,4.0661956 9.1621094,4.9472656 9.5212094,5.7459356 10.449022,6.15297 9.9824219,8 10.748822,7.10008 11.357659,5.9571062 10.755859,5.0351562 10.143659,4.0974562 9.8083594,3.528 10.193359,2 Z m 3,0 c -1.0982,1.38422 -1.42735,2.0661956 -1.03125,2.9472656 C 12.521209,5.7459356 13.449022,6.15297 12.982422,8 13.748822,7.10008 14.357659,5.9571063 13.755859,5.0351562 13.143659,4.0974563 12.808359,3.528 13.193359,2 Z m 3,0 c -1.0982,1.38422 -1.42735,2.0661956 -1.03125,2.9472656 C 15.521209,5.7459356 16.449022,6.15297 15.982422,8 16.748822,7.10008 17.357659,5.9571063 16.755859,5.0351562 16.143659,4.0974563 15.808359,3.528 16.193359,2 Z M 7,9 c -2.209139,0 -4,1.790861 -4,4 0,2.209139 1.790861,4 4,4 0.2424594,-8.38e-4 0.4843405,-0.02372 0.7226562,-0.06836 C 8.4620206,18.481091 9.9580363,19 13,19 c 6,0 6,-2 6,-10 z m 0,2 h 0.00781 c 0.011613,1.596219 0.052166,2.938455 0.1953125,3.986328 C 7.1356935,14.994331 7.0678957,14.998894 7,15 5.8954305,15 5,14.104569 5,13 5,11.895431 5.8954305,11 7,11 Z"
       id="path1186" />
  </g>
</svg>
