<?xml version="1.0" encoding="UTF-8" standalone="no"?>
<!-- Created with Inkscape (http://www.inkscape.org/) -->

<svg
   width="22"
   height="22"
   id="svg3869"
   version="1.1"
   inkscape:version="1.2.2 (b0a8486541, 2022-12-01)"
   sodipodi:docname="kgpg.svg"
   viewBox="0 0 22 22"
   xmlns:inkscape="http://www.inkscape.org/namespaces/inkscape"
   xmlns:sodipodi="http://sodipodi.sourceforge.net/DTD/sodipodi-0.dtd"
   xmlns="http://www.w3.org/2000/svg"
   xmlns:svg="http://www.w3.org/2000/svg">
  <defs
     id="defs3871">
    <style
       type="text/css"
       id="current-color-scheme">
      .ColorScheme-Text {
        color:#31363b;
      }
      .ColorScheme-Background {
        color:#eff0f1;
      }
      .ColorScheme-Highlight {
        color:#3daee9;
      }
      .ColorScheme-ViewText {
        color:#31363b;
      }
      .ColorScheme-ViewBackground {
        color:#fcfcfc;
      }
      .ColorScheme-ViewHover {
        color:#93cee9;
      }
      .ColorScheme-ViewFocus{
        color:#3daee9;
      }
      .ColorScheme-ButtonText {
        color:#31363b;
      }
      .ColorScheme-ButtonBackground {
        color:#eff0f1;
      }
      .ColorScheme-ButtonHover {
        color:#93cee9;
      }
      .ColorScheme-ButtonFocus{
        color:#3daee9;
      }
      </style>
  </defs>
  <sodipodi:namedview
     id="base"
     pagecolor="#ffffff"
     bordercolor="#666666"
     borderopacity="1.0"
     inkscape:pageopacity="0"
     inkscape:pageshadow="2"
     inkscape:zoom="16"
     inkscape:cx="12.1875"
     inkscape:cy="11.9375"
     inkscape:document-units="px"
     inkscape:current-layer="layer1"
     showgrid="true"
     fit-margin-top="0"
     fit-margin-left="0"
     fit-margin-right="0"
     fit-margin-bottom="0"
     inkscape:window-width="1536"
     inkscape:window-height="784"
     inkscape:window-x="0"
     inkscape:window-y="44"
     inkscape:window-maximized="1"
     inkscape:showpageshadow="false"
     inkscape:pagecheckerboard="0"
     inkscape:deskcolor="#ffffff">
    <inkscape:grid
       type="xygrid"
       id="grid4132"
       originx="0"
       originy="-1.74e-05" />
  </sodipodi:namedview>
  <g
     inkscape:groupmode="layer"
     id="layer1"
     transform="translate(-326,-534.36218)">
    <g
       id="kgpg">
      <rect
         y="534.36218"
         x="326"
         height="22"
         width="22"
         id="rect3906"
         style="opacity:0.01;fill:#00000f;fill-opacity:0;stroke:none" />
      <path
         id="rect345"
         d="m 337,536.36218 c -2.216,0 -4,1.784 -4,4 v 3 c -1.662,0 -3,1.338 -3,3 v 5 c 0,1.662 1.338,3 3,3 h 8 c 1.662,0 3,-1.338 3,-3 v -5 c 0,-1.662 -1.338,-3 -3,-3 v -3 c 0,-2.216 -1.784,-4 -4,-4 z m 0,2 c 1.108,0 2,0.892 2,2 v 3 h -4 v -3 c 0,-1.108 0.892,-2 2,-2 z m -4,7 h 8 c 0.554,0 1,0.446 1,1 v 5 c 0,0.554 -0.446,1 -1,1 h -8 c -0.554,0 -1,-0.446 -1,-1 v -5 c 0,-0.554 0.446,-1 1,-1 z"
         class="ColorScheme-Text"
         style="fill:currentColor;fill-opacity:1;stroke:none" />
    </g>
  </g>
</svg>
