<?xml version="1.0" encoding="UTF-8" standalone="no"?>
<svg
   version="1.1"
   viewBox="0 0 22 22"
   id="svg49"
   sodipodi:docname="notification.svg"
   inkscape:version="1.2.1 (9c6d41e410, 2022-07-14, custom)"
   xmlns:inkscape="http://www.inkscape.org/namespaces/inkscape"
   xmlns:sodipodi="http://sodipodi.sourceforge.net/DTD/sodipodi-0.dtd"
   xmlns="http://www.w3.org/2000/svg"
   xmlns:svg="http://www.w3.org/2000/svg">
  <sodipodi:namedview
     id="namedview51"
     pagecolor="#ffffff"
     bordercolor="#666666"
     borderopacity="1.0"
     inkscape:showpageshadow="2"
     inkscape:pageopacity="0.0"
     inkscape:pagecheckerboard="0"
     inkscape:deskcolor="#d1d1d1"
     showgrid="true"
     inkscape:zoom="3.7926636"
     inkscape:cx="98.0841"
     inkscape:cy="125.63729"
     inkscape:window-width="1920"
     inkscape:window-height="1004"
     inkscape:window-x="0"
     inkscape:window-y="0"
     inkscape:window-maximized="1"
     inkscape:current-layer="svg49">
    <inkscape:grid
       type="xygrid"
       id="grid340" />
  </sodipodi:namedview>
  <defs
     id="defs3">
    <style
       id="current-color-scheme"
       type="text/css">.ColorScheme-Text { color:#363636; }</style>
  </defs>
  <path
     id="expander-bottom"
     d="m-18 23 2-2 2 2z"
     class="ColorScheme-Text"
     fill="currentColor" />
  <path
     id="expander-top"
     d="m-18 17 2 2 2-2z"
     class="ColorScheme-Text"
     fill="currentColor" />
  <path
     id="expander-right"
     d="m-13 18-2 2 2 2z"
     class="ColorScheme-Text"
     fill="currentColor" />
  <path
     id="expander-left"
     d="m-19 18 2 2-2 2z"
     class="ColorScheme-Text"
     fill="currentColor" />
  <g
     id="22-22-notification-empty"
     class="ColorScheme-Text"
     fill="currentColor">
    <rect
       width="22"
       height="22"
       ry="0"
       opacity="0"
       id="rect9" />
    <path
       class="ColorScheme-Text"
       d="m10.994 2.0097c-1.2263 0.0072165-2.1578 1.1054-1.9648 2.3164l-0.042969 0.013672c-2.3258 0.82764-3.9902 3.0482-3.9902 5.6582v2.002h0.00391c-1.888e-4 0.84085-0.32954 1.642-0.75781 2.3418-0.47964 0.78375-1.4188 1.4875-1.9492 1.9492-0.356 0.30992-0.39174 1.0243 0 1.416 0.19841 0.19841 0.45742 0.29359 0.7168 0.29102h15.98c0.25938 0.0026 0.51839-0.09261 0.7168-0.29102 0.39174-0.39174 0.356-1.1061 0-1.416-0.5304-0.46174-1.4696-1.1655-1.9492-1.9492-0.42827-0.69981-0.75762-1.501-0.75781-2.3418h0.0039v-2.002c0-2.61-1.6644-4.8306-3.9902-5.6582l-0.04297-0.013672c0.19293-1.211-0.73858-2.3092-1.9648-2.3164-2e-3 -1.2e-5 -0.0039 6e-6 -0.0059 0-2e-3 5.8e-6 -0.0039-1.17e-5 -0.0059 0zm0.0059 3.9883c2.2107 0 4.0039 1.7912 4.0039 4.002v2.0001h-0.0039c4.68e-4 1.3712 0.45966 2.7259 1.3418 3.7578l0.20703 0.24219h-11.098l0.20703-0.24219c0.79483-1.1006 1.3413-2.3866 1.3418-3.7578h-0.00391v-2.0001c3.8e-6 -2.2107 1.7932-4.002 4.0039-4.002zm-2.002 13c0 1.3346 1.001 2.002 2.002 2.002s2.002-0.66732 2.002-2.002z"
       fill="currentColor"
       id="path11" />
  </g>
  <g
     id="22-22-notification-progress-active"
     class="ColorScheme-Text"
     transform="translate(55.997 -.004652)"
     fill="currentColor">
    <rect
       x="40"
       y="-1"
       width="22"
       height="22"
       fill-opacity="0"
       id="rect14" />
    <path
       d="m51 1a9 9 0 0 0-9 9 9 9 0 0 0 9 9 9 9 0 0 0 9-9 9 9 0 0 0-9-9zm0 2a7 7 0 0 1 7 7 7 7 0 0 1-7 7 7 7 0 0 1-7-7 7 7 0 0 1 7-7z"
       id="path16" />
    <circle
       cx="51"
       cy="10"
       r="6"
       id="circle18" />
  </g>
  <g
     id="22-22-notification-progress-inactive"
     class="ColorScheme-Text"
     transform="translate(56.998,39)"
     fill="currentColor">
    <rect
       x="40"
       y="-1"
       width="22"
       height="22"
       fill-opacity="0"
       id="rect21" />
    <path
       class="ColorScheme-Text"
       d="m51 1a9 9 0 0 0-9 9 9 9 0 0 0 9 9 9 9 0 0 0 9-9 9 9 0 0 0-9-9zm0 2a7 7 0 0 1 7 7 7 7 0 0 1-7 7 7 7 0 0 1-7-7 7 7 0 0 1 7-7z"
       fill="currentColor"
       id="path23" />
    <circle
       class="ColorScheme-Text"
       cx="51"
       cy="10"
       r="6"
       fill="currentColor"
       opacity=".15"
       id="circle25" />
  </g>
  <g
     id="22-22-notification-active"
     class="ColorScheme-Text"
     transform="translate(0,28.131)"
     fill="currentColor">
    <circle
       class="ColorScheme-Text"
       cx="67"
       cy="-25"
       r="3"
       fill="currentColor"
       id="circle28" />
    <rect
       x="51.002"
       y="-31.998"
       width="22"
       height="22"
       ry="0"
       opacity="0"
       id="rect30" />
    <path
       class="ColorScheme-Text"
       d="m61.996-29.988c-1.2263 0.0072-2.1578 1.1054-1.9648 2.3164l-0.04297 0.01367c-2.3258 0.82764-3.9902 3.0482-3.9902 5.6582v2.002h0.0039c-1.89e-4 0.84085-0.32954 1.642-0.75781 2.3418-0.47964 0.78375-1.4188 1.4875-1.9492 1.9492-0.356 0.30992-0.39174 1.0243 0 1.416 0.19841 0.19841 0.45742 0.29359 0.7168 0.29102h15.98c0.25938 0.0026 0.51839-0.09261 0.7168-0.29102 0.39174-0.39174 0.356-1.1061 0-1.416-0.5304-0.46174-1.4696-1.1655-1.9492-1.9492-0.42827-0.69981-0.75762-1.501-0.75781-2.3418h0.0039v-1.1348a4 4 0 0 1-1.0058 0.13281 4 4 0 0 1-0.99414-0.13086v1.1328h-0.0039c4.68e-4 1.3712 0.45966 2.7259 1.3418 3.7578l0.20703 0.24219h-11.098l0.20703-0.24219c0.79483-1.1006 1.3413-2.3866 1.3418-3.7578h-0.0039v-2c4e-6 -2.2107 1.7932-4.002 4.0039-4.002 0.37972 0 0.73978 0.06923 1.0879 0.16797a4 4 0 0 1 0.92578-1.8262l-0.04297-0.01367c0.19293-1.211-0.73862-2.3092-1.9648-2.3164-2e-3 -1.2e-5 -0.0039 6e-6 -0.0059 0-2e-3 6e-6 -0.0039-1.2e-5 -0.0059 0zm-1.9961 16.988c0 1.3346 1.001 2.002 2.002 2.002s2.002-0.66727 2.002-2.002z"
       fill="currentColor"
       id="path32" />
  </g>
  <g
     id="22-22-notification-inactive"
     class="ColorScheme-Text"
     transform="translate(0,67.988)"
     fill="currentColor">
    <circle
       class="ColorScheme-Text"
       cx="67"
       cy="-25"
       r="3"
       fill="currentColor"
       opacity=".35"
       id="circle35" />
    <rect
       x="51.002"
       y="-31.998"
       width="22"
       height="22"
       ry="0"
       opacity="0"
       id="rect37" />
    <path
       class="ColorScheme-Text"
       d="m61.996-29.988c-1.2263 0.0072-2.1578 1.1054-1.9648 2.3164l-0.04297 0.01367c-2.3258 0.82764-3.9902 3.0482-3.9902 5.6582v2.002h0.0039c-1.89e-4 0.84085-0.32954 1.642-0.75781 2.3418-0.47964 0.78375-1.4188 1.4875-1.9492 1.9492-0.356 0.30992-0.39174 1.0243 0 1.416 0.19841 0.19841 0.45742 0.29359 0.7168 0.29102h15.98c0.25938 0.0026 0.51839-0.09261 0.7168-0.29102 0.39174-0.39174 0.356-1.1061 0-1.416-0.5304-0.46174-1.4696-1.1655-1.9492-1.9492-0.42827-0.69981-0.75762-1.501-0.75781-2.3418h0.0039v-1.1348a4 4 0 0 1-1.0058 0.13281 4 4 0 0 1-0.99414-0.13086v1.1328h-0.0039c4.68e-4 1.3712 0.45966 2.7259 1.3418 3.7578l0.20703 0.24219h-11.098l0.20703-0.24219c0.79483-1.1006 1.3413-2.3866 1.3418-3.7578h-0.0039v-2c4e-6 -2.2107 1.7932-4.002 4.0039-4.002 0.37972 0 0.73978 0.06923 1.0879 0.16797a4 4 0 0 1 0.92578-1.8262l-0.04297-0.01367c0.19293-1.211-0.73862-2.3092-1.9648-2.3164-2e-3 -1.2e-5 -0.0039 6e-6 -0.0059 0-2e-3 6e-6 -0.0039-1.2e-5 -0.0059 0zm-1.9961 16.988c0 1.3346 1.001 2.002 2.002 2.002s2.002-0.66727 2.002-2.002z"
       fill="currentColor"
       id="path39" />
  </g>
  <g
     id="22-22-notification-disabled"
     class="ColorScheme-Text"
     transform="translate(0 -30.684)"
     fill="currentColor">
    <path
       d="m2.6582 66.829 18.276 18.276c0.42187 0.42187 0.44613 1.0769 0.05439 1.4686-0.39174 0.39174-1.0467 0.36748-1.4686-0.05439l-18.276-18.276c-0.42187-0.42187-0.44613-1.0769-0.054393-1.4686 0.39174-0.39174 1.0467-0.36748 1.4686 0.05439z"
       id="path42" />
    <rect
       x=".089057"
       y="65.674"
       width="22"
       height="22"
       ry="0"
       opacity="0"
       id="rect44" />
    <path
       d="m10.994 67.684c-1.2263 0.007216-2.1578 1.1054-1.9648 2.3164l-0.042969 0.01367c-2.3258 0.82764-3.9902 3.0482-3.9902 5.6582v2.002h0.00391c-1.888e-4 0.84085-0.32954 1.642-0.75781 2.3418-0.47964 0.78375-1.4188 1.4875-1.9492 1.9492-0.356 0.30992-0.39174 1.0243 0 1.416 0.19841 0.19841 0.45742 0.29359 0.7168 0.29102h15.98c0.25938 0.0026 0.51839-0.09261 0.7168-0.29102 0.39174-0.39174 0.356-1.1061 0-1.416-0.5304-0.46174-1.4696-1.1655-1.9492-1.9492-0.42827-0.69981-0.75762-1.501-0.75781-2.3418h0.0039v-2.002c0-2.61-1.6644-4.8306-3.9902-5.6582l-0.04297-0.01367c0.19293-1.211-0.73858-2.3092-1.9648-2.3164-2e-3 -1.2e-5 -0.0039 6e-6 -0.0059 0-2e-3 6e-6 -0.0039-1.2e-5 -0.0059 0zm0.0059 3.9883c2.2107 0 4.0039 1.7912 4.0039 4.002v2.0001h-0.0039c4.68e-4 1.3712 0.45966 2.7259 1.3418 3.7578l0.20703 0.24219h-11.098l0.20703-0.24219c0.79483-1.1006 1.3413-2.3866 1.3418-3.7578h-0.00391v-2.0001c3.8e-6 -2.2107 1.7932-4.002 4.0039-4.002zm-2.002 13c0 1.3346 1.001 2.002 2.002 2.002s2.002-0.66732 2.002-2.002z"
       opacity=".35"
       id="path46" />
  </g>
  <g
     id="notification-empty">
    <rect
       width="32"
       height="32"
       ry="0"
       opacity="0"
       id="rect334"
       x="0"
       y="80"
       style="color:#363636;fill:#363636;stroke-width:1.45455" />
    <path
       id="rect394"
       d="m 16,83 a 3,3 0 0 0 -3,3 3,3 0 0 0 0.06055,0.560547 C 10.098209,87.733341 8,90.622953 8,94 v 2 c -0.0095,2.708743 -1.017542,5.31873 -2.832031,7.33008 A 1.0001,1.0001 0 0 0 5.910156,105 H 9 23 26.074219 a 1.0001,1.0001 0 0 0 0.74414,-1.66797 C 25.008634,101.31808 24.005138,98.70755 24,96 v -2 c 0,-3.377047 -2.098209,-6.266659 -5.060547,-7.439453 A 3,3 0 0 0 19,86 3,3 0 0 0 16,83 Z m 0,5 c 3.34128,0 6,2.65872 6,6 v 2 a 1.0001,1.0001 0 0 0 0,0.002 c 0.0044,2.537053 0.93365,4.89915 2.308594,6.99805 H 23 9 7.679688 C 9.058285,100.90286 9.991954,98.541657 10,96.003953 a 1.0001,1.0001 0 0 0 0,-0.002 1.0001,1.0001 0 0 0 0,-0.002 v -2 c 0,-3.34128 2.65872,-6 6,-6 z m -3,19 a 3,3 0 0 0 3,3 3,3 0 0 0 3,-3 z"
       class="ColorScheme-Text"
       fill="currentColor" />
  </g>
  <g
     id="notification-active">
    <rect
       width="32"
       height="32"
       ry="0"
       opacity="0"
       id="rect1142"
       x="50"
       y="80"
       style="color:#363636;fill:#363636;stroke-width:1.45455" />
    <path
       id="path1144"
       class="ColorScheme-Text"
       d="M 66 83 A 3 3 0 0 0 63 86 A 3 3 0 0 0 63.060547 86.560547 C 60.098209 87.73334 58 90.622956 58 94 L 58 96 C 57.9905 98.70874 56.982456 101.31873 55.167969 103.33008 A 1.0001 1.0001 0 0 0 55.910156 105 L 59 105 L 73 105 L 76.074219 105 A 1.0001 1.0001 0 0 0 76.818359 103.33203 C 75.008636 101.31808 74.005138 98.707547 74 96 L 74 94 C 74 93.85929 73.991571 93.72096 73.984375 93.582031 A 5 5 0 0 1 72 94 L 72 96 A 1.0001 1.0001 0 0 0 72 96.001953 C 72.0044 98.539004 72.933651 100.9011 74.308594 103 L 73 103 L 59 103 L 57.679688 103 C 59.058283 100.90281 59.991954 98.541608 60 96.003906 A 1.0001 1.0001 0 0 0 60 96.001953 A 1.0001 1.0001 0 0 0 60 96 L 60 94 C 60 90.658723 62.658723 88 66 88 C 66.374084 88 66.737597 88.037683 67.091797 88.101562 A 5 5 0 0 1 68.867188 85.115234 A 3 3 0 0 0 66 83 z M 63 107 A 3 3 0 0 0 66 110 A 3 3 0 0 0 69 107 L 63 107 z "
       fill="currentColor" />
    <circle
       class="ColorScheme-Text"
       cx="72"
       cy="89"
       r="3"
       fill="currentColor"
       id="circle1150" />
  </g>
  <g
     id="notification-inactive">
    <rect
       width="32"
       height="32"
       ry="0"
       opacity="0"
       id="rect1175"
       x="50"
       y="125"
       style="color:#363636;fill:#363636;stroke-width:1.45455" />
    <path
       id="path1177"
       class="ColorScheme-Text"
       d="m 66,128 a 3,3 0 0 0 -3,3 3,3 0 0 0 0.06055,0.56055 C 60.098209,132.73334 58,135.62296 58,139 v 2 c -0.0095,2.70874 -1.017544,5.31873 -2.832031,7.33008 A 1.0001,1.0001 0 0 0 55.910156,150 H 59 73 76.074219 a 1.0001,1.0001 0 0 0 0.74414,-1.66797 C 75.008636,146.31808 74.005138,143.70755 74,141 v -2 c 0,-0.14071 -0.0084,-0.27904 -0.01563,-0.41797 A 5,5 0 0 1 72,139 v 2 a 1.0001,1.0001 0 0 0 0,0.002 c 0.0044,2.537 0.933651,4.8991 2.308594,6.998 H 73 59 57.679688 C 59.058283,145.90281 59.991954,143.54161 60,141.00391 a 1.0001,1.0001 0 0 0 0,-0.002 1.0001,1.0001 0 0 0 0,-0.002 v -2 c 0,-3.34128 2.658723,-6 6,-6 0.374084,0 0.737597,0.0377 1.091797,0.10156 A 5,5 0 0 1 68.867188,130.11523 3,3 0 0 0 66,128 Z m -3,24 a 3,3 0 0 0 3,3 3,3 0 0 0 3,-3 z"
       fill="currentColor" />
    <circle
       class="ColorScheme-Text"
       cx="72"
       cy="134"
       r="3"
       fill="currentColor"
       id="circle1179"
       style="opacity:0.35" />
  </g>
  <g
     id="notification-disabled">
    <rect
       width="32"
       height="32"
       ry="0"
       opacity="0"
       id="rect1169"
       x="0"
       y="125"
       style="color:#363636;fill:#363636;stroke-width:1.45455" />
    <path
       id="path1171"
       d="m 16,128 a 3,3 0 0 0 -3,3 3,3 0 0 0 0.06055,0.56055 C 10.098209,132.73334 8,135.62295 8,139 v 2 c -0.0095,2.70874 -1.017542,5.31873 -2.832031,7.33008 A 1.0001,1.0001 0 0 0 5.910156,150 H 9 23 26.074219 a 1.0001,1.0001 0 0 0 0.74414,-1.66797 C 25.008634,146.31808 24.005138,143.70755 24,141 v -2 c 0,-3.37705 -2.098209,-6.26666 -5.060547,-7.43945 A 3,3 0 0 0 19,131 3,3 0 0 0 16,128 Z m 0,5 c 3.34128,0 6,2.65872 6,6 v 2 a 1.0001,1.0001 0 0 0 0,0.002 c 0.0044,2.53705 0.93365,4.89915 2.308594,6.99805 H 23 9 7.679688 C 9.058285,145.90286 9.991954,143.54166 10,141.00395 a 1.0001,1.0001 0 0 0 0,-0.002 1.0001,1.0001 0 0 0 0,-0.002 v -2 c 0,-3.34128 2.65872,-6 6,-6 z m -3,19 a 3,3 0 0 0 3,3 3,3 0 0 0 3,-3 z"
       class="ColorScheme-Text"
       fill="currentColor"
       style="opacity:0.35" />
    <path
       class="ColorScheme-Text"
       d="m 4.6862865,128.27209 24.0416305,24.04163 c 0.42187,0.42187 0.391743,1.02251 8e-6,1.4142 -0.391745,0.39175 -0.992315,0.42187 -1.414212,-1e-5 L 3.2720821,129.68628 c -0.42187,-0.42187 -0.3917406,-1.02251 -4.7e-6,-1.4142 0.3917443,-0.39175 0.992312,-0.42188 1.4142091,1e-5 z"
       id="path1188"
       fill="currentColor" />
  </g>
  <g
     id="notification-progress-active"
     class="ColorScheme-Text"
     transform="matrix(1.4545455,0,0,1.4545455,46.818182,81.454545)"
     fill="currentColor">
    <rect
       x="40"
       y="-1"
       width="22"
       height="22"
       fill-opacity="0"
       id="rect1351" />
    <path
       id="path1353"
       d="M 50.999998,1.0625003 A 8.9368939,8.9368939 0 0 0 42.062499,10 8.9368939,8.9368939 0 0 0 50.999998,18.9375 8.9368939,8.9368939 0 0 0 59.937498,10 8.9368939,8.9368939 0 0 0 50.999998,1.0625003 Z m 0,1.3749999 A 7.5625,7.5625 0 0 1 58.562498,10 7.5625,7.5625 0 0 1 50.999998,17.5625 7.5625,7.5625 0 0 1 43.437499,10 7.5625,7.5625 0 0 1 50.999998,2.4375002 Z" />
    <circle
       cx="51"
       cy="10"
       r="6.1875"
       id="circle1355" />
  </g>
  <g
     id="notification-progress-inactive">
    <rect
       x="105"
       y="125.00001"
       width="32"
       height="32"
       fill-opacity="0"
       id="rect1365"
       style="color:#363636;fill:#363636;stroke-width:1.45455" />
    <path
       id="path1367"
       d="M 121,128.00001 A 12.999119,12.999119 0 0 0 108,141 12.999119,12.999119 0 0 0 121,154.00001 12.999119,12.999119 0 0 0 134,141 12.999119,12.999119 0 0 0 121,128.00001 Z M 121,130 a 11,11 0 0 1 11,11 11,11 0 0 1 -11,11.00001 A 11,11 0 0 1 110,141 11,11 0 0 1 121,130 Z"
       style="color:#363636;fill:#363636;stroke-width:1.45455" />
    <circle
       cx="121"
       cy="141"
       r="9"
       id="circle1369"
       style="color:#363636;opacity:0.35;fill:#363636;stroke-width:1.45455" />
  </g>
</svg>
