<?xml version="1.0" encoding="UTF-8" standalone="no"?>
<svg
   xmlns:dc="http://purl.org/dc/elements/1.1/"
   xmlns:cc="http://creativecommons.org/ns#"
   xmlns:rdf="http://www.w3.org/1999/02/22-rdf-syntax-ns#"
   xmlns:svg="http://www.w3.org/2000/svg"
   xmlns="http://www.w3.org/2000/svg"
   id="svg20"
   viewBox="0 0 22 22"
   version="1.1">
  <metadata
     id="metadata24">
    <rdf:RDF>
      <cc:Work
         rdf:about="">
        <dc:format>image/svg+xml</dc:format>
        <dc:type
           rdf:resource="http://purl.org/dc/dcmitype/StillImage" />
        <dc:title></dc:title>
      </cc:Work>
    </rdf:RDF>
  </metadata>
  <defs
     id="defs3">
    <style
       type="text/css"
       id="current-color-scheme">.ColorScheme-Text { color:#363636; }</style>
  </defs>
  <g
     id="g18"
     transform="translate(-326 -534.36)">
    <g
       fill="currentColor"
       class="ColorScheme-Text"
       transform="translate(-105 1.7383e-5)"
       id="quota">
      <rect
         id="rect5"
         style="paint-order:stroke fill markers"
         stroke-width="1.76"
         opacity="0"
         height="22"
         width="22"
         y="534.36"
         x="431" />
      <path
         id="path7"
         style="paint-order:stroke fill markers"
         stroke-width="1.3333"
         stroke-linejoin="round"
         stroke-linecap="round"
         fill="#363636"
         d="m28.666 27c-1.108 0-1.74 0.92296-2 2l-2.582 10.885c-0.0499 0.19754-0.083984 0.40176-0.083984 0.61523 0 1.385 1.115 2.5 2.5 2.5h15c1.385 0 2.5-1.115 2.5-2.5 0-0.17114-0.01828-0.3387-0.05078-0.5-2e-3 -9e-3 -0.0039-0.01679-0.0059-0.02539l-2.6093-10.975c-0.26124-1.0768-0.892-2-2-2zm0.33398 1h10c0.55401 0 0.88237 0.45862 1 1l1.7383 8c0.11763 0.54137-0.44599 1-1 1h-13.477c-0.55401 0-1.1176-0.45863-1-1l1.7383-8c0.11763-0.54138 0.44599-1 1-1zm-2.5 11h15c0.83099 0 1.5 0.66901 1.5 1.5s-0.66901 1.5-1.5 1.5h-15c-0.83099 0-1.5-0.66901-1.5-1.5s0.66901-1.5 1.5-1.5z"
         transform="translate(408 510.36)" />
      <ellipse
         id="ellipse9"
         style="paint-order:stroke fill markers"
         stroke-width=".78615"
         stroke-linejoin="round"
         stroke-linecap="round"
         fill="#363636"
         ry=".5"
         rx=".5"
         cy="550.86"
         cx="448.5" />
      <path
         id="path11"
         style="paint-order:stroke fill markers"
         stroke-width="1.4907"
         stroke-linejoin="round"
         stroke-linecap="round"
         fill="#363636"
         d="m33.928 30a3.75 3 0 0 0-3.6777 3 3.75 3 0 0 0 3.75 3 3.75 3 0 0 0 3.75-3h-1.25a2.5 2 0 0 1-2.5 2 2.5 2 0 0 1-2.5-2 2.5 2 0 0 1 2.4844-2 2.5 2 0 0 1 0.015625 0v-1a3.75 3 0 0 0-0.07227 0z"
         transform="translate(408 510.36)" />
      <path
         id="path13"
         style="paint-order:stroke fill markers"
         stroke-width=".99382"
         stroke-linejoin="round"
         stroke-linecap="round"
         opacity=".35"
         fill="#363636"
         d="m33.984 31a2.5 2 0 0 0-2.4844 2 2.5 2 0 0 0 2.5 2 2.5 2 0 0 0 2.5-2h-2c-0.277 0-0.5-0.223-0.5-0.5v-1.5a2.5 2 0 0 0-0.01563 0z"
         transform="translate(408 510.36)" />
      <ellipse
         id="ellipse15"
         style="paint-order:stroke fill markers"
         stroke-width=".4969"
         stroke-linejoin="round"
         stroke-linecap="round"
         fill="#363636"
         ry="1"
         rx="1.25"
         cy="543.36"
         cx="442" />
    </g>
  </g>
</svg>
