<?xml version="1.0" encoding="UTF-8" standalone="no"?>
<svg
   width="1100"
   height="500"
   id="svg3642"
   sodipodi:version="0.32"
   inkscape:version="1.2.2 (b0a8486541, 2022-12-01)"
   sodipodi:docname="decoration.svg"
   inkscape:output_extension="org.inkscape.output.svg.inkscape"
   version="1.0"
   inkscape:export-filename="/home/diau/svn/playground-plasma/desktoptheme/air/widgets/background.png"
   inkscape:export-xdpi="90"
   inkscape:export-ydpi="90"
   xmlns:inkscape="http://www.inkscape.org/namespaces/inkscape"
   xmlns:sodipodi="http://sodipodi.sourceforge.net/DTD/sodipodi-0.dtd"
   xmlns:xlink="http://www.w3.org/1999/xlink"
   xmlns="http://www.w3.org/2000/svg"
   xmlns:svg="http://www.w3.org/2000/svg"
   xmlns:rdf="http://www.w3.org/1999/02/22-rdf-syntax-ns#"
   xmlns:cc="http://creativecommons.org/ns#"
   xmlns:dc="http://purl.org/dc/elements/1.1/">
  <sodipodi:namedview
     id="base"
     pagecolor="#585858"
     bordercolor="#666666"
     borderopacity="1.0"
     inkscape:pageopacity="1"
     inkscape:pageshadow="2"
     inkscape:zoom="1"
     inkscape:cx="1038"
     inkscape:cy="211.49999"
     inkscape:current-layer="layer1"
     showgrid="false"
     inkscape:grid-bbox="true"
     inkscape:document-units="px"
     inkscape:window-width="3840"
     inkscape:window-height="2034"
     inkscape:window-x="0"
     inkscape:window-y="58"
     width="48px"
     height="48px"
     showguides="true"
     inkscape:guide-bbox="true"
     objecttolerance="9"
     gridtolerance="13"
     inkscape:window-maximized="1"
     inkscape:snap-global="true"
     inkscape:snap-bbox="true"
     inkscape:bbox-nodes="true"
     inkscape:bbox-paths="true"
     inkscape:snap-bbox-edge-midpoints="true"
     inkscape:snap-midpoints="true"
     inkscape:snap-smooth-nodes="true"
     inkscape:snap-intersection-paths="true"
     inkscape:object-paths="true"
     inkscape:snap-nodes="true"
     inkscape:document-rotation="0"
     inkscape:pagecheckerboard="0"
     inkscape:showpageshadow="2"
     inkscape:deskcolor="#585858">
    <inkscape:grid
       type="xygrid"
       id="grid2555"
       enabled="true"
       visible="true"
       empspacing="5"
       snapvisiblegridlinesonly="true"
       color="#8f8fff"
       opacity="0.1254902"
       empcolor="#6decff"
       empopacity="0.25098039" />
  </sodipodi:namedview>
  <defs
     id="defs3644">
    <linearGradient
       id="shadow_active">
      <stop
         id="stop7028"
         offset="0"
         style="stop-color:#000000;stop-opacity:0.92168677;" />
      <stop
         id="stop7026"
         offset="0.125"
         style="stop-color:#000000;stop-opacity:0.74096388;" />
      <stop
         id="stop6834"
         offset="0.25"
         style="stop-color:#000000;stop-opacity:0.60240966;" />
      <stop
         id="stop6832"
         offset="0.5"
         style="stop-color:#000000;stop-opacity:0.33132529;" />
      <stop
         style="stop-color:#000000;stop-opacity:0.10843374;"
         offset="0.75"
         id="stop6836" />
      <stop
         id="stop6894"
         offset="0.875"
         style="stop-color:#000000;stop-opacity:0.03921569;" />
      <stop
         id="stop6721"
         offset="1"
         style="stop-color:#000000;stop-opacity:0;" />
    </linearGradient>
    <linearGradient
       id="shadow_inactive">
      <stop
         style="stop-color:#000000;stop-opacity:1;"
         offset="0"
         id="stop6719-25" />
      <stop
         id="stop6834-1"
         offset="0.25"
         style="stop-color:#000000;stop-opacity:0.63855422;" />
      <stop
         id="stop6832-0"
         offset="0.5"
         style="stop-color:#000000;stop-opacity:0.33734939;" />
      <stop
         style="stop-color:#000000;stop-opacity:0.10843374;"
         offset="0.75"
         id="stop6836-0" />
      <stop
         id="stop6894-7"
         offset="0.875"
         style="stop-color:#000000;stop-opacity:0.03921569;" />
      <stop
         id="stop6721-4"
         offset="1"
         style="stop-color:#000000;stop-opacity:0;" />
    </linearGradient>
    <linearGradient
       inkscape:collect="always"
       xlink:href="#shadow_inactive"
       id="linearGradient1389"
       gradientUnits="userSpaceOnUse"
       gradientTransform="matrix(1.0133333,0,0,1,-3.2650058,140)"
       x1="348.49344"
       y1="99.01548"
       x2="304.08554"
       y2="99.01548" />
    <radialGradient
       inkscape:collect="always"
       xlink:href="#shadow_inactive"
       id="radialGradient967"
       gradientUnits="userSpaceOnUse"
       gradientTransform="matrix(-2.5714291,5.3913635e-7,-2.0148289e-7,-1.201216,594.12508,500.95236)"
       cx="48.27084"
       cy="184.7908"
       fx="48.27084"
       fy="184.7908"
       r="17.5" />
    <radialGradient
       inkscape:collect="always"
       xlink:href="#shadow_active"
       id="radialGradient965"
       gradientUnits="userSpaceOnUse"
       gradientTransform="matrix(-4.0000019,3.8501383e-6,-3.4215129e-7,-4.0571426,688.08354,1013.2479)"
       cx="48.270847"
       cy="181.22313"
       fx="48.270847"
       fy="181.22313"
       r="17.5" />
    <radialGradient
       inkscape:collect="always"
       xlink:href="#shadow_inactive"
       id="radialGradient969"
       gradientUnits="userSpaceOnUse"
       gradientTransform="matrix(-3.7607938e-7,-2.0571166,2.5714318,-5.1233137e-7,263.21413,725.83432)"
       cx="296.45123"
       cy="80.416672"
       fx="296.45123"
       fy="80.416672"
       r="17.5" />
    <radialGradient
       inkscape:collect="always"
       xlink:href="#shadow_active"
       id="radialGradient1306"
       gradientUnits="userSpaceOnUse"
       gradientTransform="matrix(9.4919759e-7,-2.9142759,4.0000007,1.1504403e-6,-211.66707,980.01628)"
       cx="296.47726"
       cy="80.416679"
       fx="296.47726"
       fy="80.416679"
       r="17.5" />
    <linearGradient
       inkscape:collect="always"
       xlink:href="#shadow_inactive"
       id="linearGradient6612-5"
       gradientUnits="userSpaceOnUse"
       gradientTransform="translate(200,5)"
       x1="396"
       y1="66"
       x2="396"
       y2="30" />
    <linearGradient
       inkscape:collect="always"
       xlink:href="#shadow_inactive"
       id="linearGradient5688-2"
       gradientUnits="userSpaceOnUse"
       gradientTransform="matrix(1,0,0,1.0117647,0,125.15731)"
       x1="398"
       y1="143.08141"
       x2="398"
       y2="163.83722" />
    <linearGradient
       inkscape:collect="always"
       xlink:href="#shadow_active"
       id="linearGradient1126"
       gradientUnits="userSpaceOnUse"
       gradientTransform="matrix(1.0133333,0,0,1,-3.2650058,140)"
       x1="348.49344"
       y1="99"
       x2="279.41449"
       y2="99" />
    <radialGradient
       inkscape:collect="always"
       xlink:href="#shadow_active"
       id="radialGradient1356"
       cx="293.99695"
       cy="238.99995"
       fx="293.99695"
       fy="238.99995"
       r="38"
       gradientTransform="matrix(-1.8421054,-3.0473129e-7,0,-1.8684207,891.44838,717.55257)"
       gradientUnits="userSpaceOnUse" />
    <linearGradient
       inkscape:collect="always"
       xlink:href="#shadow_active"
       id="linearGradient6612"
       gradientUnits="userSpaceOnUse"
       gradientTransform="matrix(1,0,0,1.0285694,-215,50.00005)"
       x1="396"
       y1="64.166748"
       x2="396"
       y2="14.583314" />
    <linearGradient
       inkscape:collect="always"
       xlink:href="#shadow_active"
       id="linearGradient5688"
       gradientUnits="userSpaceOnUse"
       gradientTransform="matrix(1,0,0,1.0117647,0,125.2353)"
       x1="398"
       y1="138.13953"
       x2="398"
       y2="208.31395" />
  </defs>
  <metadata
     id="metadata3647">
    <rdf:RDF>
      <cc:Work
         rdf:about="">
        <dc:format>image/svg+xml</dc:format>
        <dc:type
           rdf:resource="http://purl.org/dc/dcmitype/StillImage" />
      </cc:Work>
      <cc:Work
         rdf:about="">
        <dc:format>image/svg+xml</dc:format>
        <dc:type
           rdf:resource="http://purl.org/dc/dcmitype/StillImage" />
      </cc:Work>
    </rdf:RDF>
  </metadata>
  <g
     id="layer1"
     inkscape:label="Layer 1"
     inkscape:groupmode="layer"
     transform="translate(0,-90)">
    <g
       transform="translate(-1453.4451,-465.21909)"
       inkscape:label="layer1"
       style="display:none"
       id="g4418" />
    <g
       inkscape:label="layer1"
       style="display:none"
       id="g2424"
       transform="translate(975.61592,-1945.0985)" />
    <g
       id="g4240"
       style="display:none"
       inkscape:label="layer1"
       transform="translate(-1919.565,-153.36219)" />
    <g
       transform="translate(509.49601,-1633.2416)"
       id="g4244"
       style="display:none"
       inkscape:label="layer1" />
    <use
       x="0"
       y="0"
       xlink:href="#decoration-left"
       id="decoration-right"
       transform="matrix(-1,0,0,1,507.49999,1.5e-5)" />
    <g
       id="decoration-inactive-topleft"
       transform="matrix(1.5,0,0,1.5,190,-121.0945)">
      <path
         id="rect6520-3-2-6"
         style="opacity:0.5;fill:url(#radialGradient969);fill-opacity:1;stroke:none"
         d="m 400,65 v 51 h 41 V 98 c 0,-6.648 5.352,-12 12,-12 h 17 V 65 Z"
         transform="translate(-140,115.063)"
         sodipodi:nodetypes="cccssccc" />
      <path
         id="rect5073-4-9-6"
         style="fill:#2d2d2d;fill-opacity:1;stroke:none;stroke-width:1"
         d="m 313,201.063 c -6.648,0 -12,5.352 -12,12 v 17.93555 0.0644 h 29 v -30 z" />
      <path
         id="path955"
         style="opacity:0.05;fill:#ffffff;fill-opacity:1;stroke:none;stroke-width:1"
         d="m 313,201.063 c -6.648,0 -12,5.352 -12,12 v 1 c 0,-6.648 5.352,-12 12,-12 h 17 v -1 z" />
      <path
         id="path202"
         style="opacity:0.75;fill:#000000;fill-opacity:1;stroke:none"
         d="m 453,79 c -7.202,0 -13,5.798 -13,13 v 18 h 1 V 92 c 0,-6.648 5.352,-12 12,-12 h 17 v -1 z"
         transform="translate(-140,121.063)" />
    </g>
    <g
       id="decoration-bottom"
       transform="matrix(1.5,0,0,1.5,-342.49999,-61)">
      <path
         style="opacity:0.5;fill:url(#linearGradient5688);fill-opacity:1;stroke:none;stroke-width:1.00587"
         d="m 325,277 v 59 h 145 v -59 z"
         id="path6217-8" />
      <path
         id="path6214-7"
         d="M 470,277 H 325 v 1 h 145 z"
         style="opacity:0.75;fill:#000000;fill-opacity:1;stroke:none;stroke-width:0.413845"
         inkscape:connector-curvature="0" />
    </g>
    <path
       style="fill:#363636;fill-opacity:1;stroke:none;stroke-width:1.5"
       d="m 145,225.5 v 129 h 217.49999 v -129 z"
       id="decoration-center" />
    <g
       id="decoration-top"
       transform="matrix(1.5,0,0,1.5,-342.49999,-83.499924)">
      <path
         id="path6055-5"
         style="opacity:0.5;fill:url(#linearGradient6612);fill-opacity:1;stroke:none;stroke-width:1.01418"
         d="M 110,65 V 86 H 255 V 65 Z"
         transform="translate(215,89.99995)"
         sodipodi:nodetypes="ccccc" />
      <path
         id="path6098-4"
         style="opacity:0.75;fill:#000000;fill-opacity:1;stroke:none"
         d="m 110,85 v 1 h 145 v -1 z"
         transform="translate(215,89.99995)" />
      <path
         style="opacity:1;fill:#363636;fill-opacity:1;stroke:none;stroke-width:1"
         d="m 325,175.99994 v 30.00002 h 145 v -30.00002 z"
         id="path6092-3" />
      <path
         sodipodi:nodetypes="ccccc"
         inkscape:connector-curvature="0"
         id="path966"
         d="m 325,175.99994 v 1.00001 h 145 v -1.00001 z"
         style="opacity:0.1;fill:#ffffff;fill-opacity:1;stroke:none;stroke-width:0.182575" />
    </g>
    <g
       id="decoration-left"
       transform="matrix(1.5,0,0,1.5,-379.81249,-69.999999)">
      <path
         style="opacity:0.5;fill:url(#linearGradient1126);fill-opacity:1;stroke:none;stroke-width:1.00664"
         d="m 279.875,197 v 74 h 41 v -74 z"
         id="path6345-1" />
      <path
         id="path6342-6"
         style="opacity:0.75;fill:#000000;fill-opacity:1;stroke:none"
         d="m 80,116 v 85 c 0,0.36693 0.104291,0.705 0.275391,1 H 81 v -86 z"
         transform="translate(239.875,81)" />
      <path
         style="opacity:1;fill:#363636;fill-opacity:1;stroke:none"
         d="m 576,121 v 86 h 29 v -86 z"
         id="path6339-9"
         transform="translate(-255.125,76)" />
      <path
         style="opacity:0.5;fill:url(#radialGradient1356);fill-opacity:1;stroke:none;stroke-width:1.00664"
         d="m 279.875,271 v 12 h 41 v -12 z"
         id="path652" />
    </g>
    <g
       id="decoration-inactive-bottom"
       transform="matrix(1.5,0,0,1.5,197.5,-60.88303)">
      <path
         style="opacity:0.5;fill:url(#linearGradient5688-2);fill-opacity:1;stroke:none;stroke-width:1.00587"
         d="m 325,276.92202 v 59 h 145 v -59 z"
         id="path6217-8-2"
         sodipodi:nodetypes="ccccc" />
      <path
         id="path6214-7-4"
         d="M 470,276.92202 H 325 v 1 h 145 z"
         style="opacity:0.75;fill:#000000;fill-opacity:1;stroke:none;stroke-width:0.392425"
         inkscape:connector-curvature="0" />
    </g>
    <path
       style="fill:#2d2d2d;fill-opacity:1;stroke:none;stroke-width:1.5"
       d="m 684.99998,225.5 v 129 h 217.5 v -129 z"
       id="decoration-inactive-center" />
    <g
       id="decoration-inactive-top"
       transform="matrix(1.5,0,0,1.5,197.5,-83.499999)">
      <path
         style="opacity:0.5;fill:url(#linearGradient6612-5);fill-opacity:1;stroke:none"
         d="M 525,20 V 41 H 670 V 20 Z"
         transform="translate(-200,135)"
         id="path6055-5-5"
         inkscape:connector-curvature="0"
         sodipodi:nodetypes="ccccc" />
      <path
         transform="translate(-145,90)"
         d="m 470,85 v 1 h 145 v -1 z"
         style="opacity:0.75;fill:#000000;fill-opacity:1;stroke:none"
         id="path6098-4-8" />
      <path
         style="opacity:1;fill:#2d2d2d;fill-opacity:1;stroke:none;stroke-width:1"
         d="m 325,176 v 30 h 145 v -30 z"
         id="path6092-3-3" />
      <path
         style="opacity:0.05;fill:#ffffff;fill-opacity:1;stroke:none;stroke-width:0.182574"
         d="m 325,176 v 1 h 145 v -1 z"
         id="path996"
         inkscape:connector-curvature="0"
         sodipodi:nodetypes="ccccc" />
    </g>
    <g
       id="decoration-inactive-left"
       transform="matrix(1.5,0,0,1.5,160.1875,-70.023219)">
      <path
         style="opacity:0.5;fill:url(#linearGradient1389);fill-opacity:1;stroke:none;stroke-width:1.00664"
         d="m 279.875,197.01548 v 86 l 41,-0.0155 v -85.98452 z"
         id="path6345-1-1"
         sodipodi:nodetypes="ccccc" />
      <path
         id="path6342-6-6"
         d="m 319.875,197.01548 v 86 h 1 v -86 z"
         style="opacity:0.75;fill:#000000;fill-opacity:1;stroke:none;stroke-width:0.447214"
         inkscape:connector-curvature="0" />
      <path
         style="opacity:1;fill:#2d2d2d;fill-opacity:1;stroke:none"
         d="m 320.875,197.01548 v 86 h 29 v -86 z"
         id="path6339-9-9" />
    </g>
    <g
       transform="matrix(1.5,0,0,1.5,-597.49998,-80.500022)"
       id="decoration-bottomleft">
      <path
         id="path168"
         style="opacity:0.75;fill:#000000;fill-opacity:1;stroke:none"
         d="m 465.27539,290.00002 c 0.34556,0.59579 0.98354,1 1.72461,1 h 28 v -1 z" />
      <path
         id="rect5099-9-5"
         style="opacity:0.5;fill:url(#radialGradient965);fill-opacity:1;stroke:none"
         d="m 425,290.00001 v 59.00001 h 70 v -59 h -17 l -12,-1e-5 z" />
    </g>
    <g
       id="decoration-inactive-bottomleft"
       transform="matrix(1.5,0,0,1.5,-19.999998,-74.499992)">
      <path
         id="rect5099-9-6"
         style="opacity:0.5;fill:url(#radialGradient967);fill-opacity:1;stroke:none"
         d="m 400,286 v 59 h 70 v -59 h -17 -12 z"
         sodipodi:nodetypes="ccccccc" />
      <path
         id="path188"
         style="opacity:0.75;fill:#000000;fill-opacity:1;stroke:none"
         d="m 440,287 h 27 l 3,-2e-5 V 286 h -3 -27 z"
         sodipodi:nodetypes="ccccccc" />
    </g>
    <rect
       style="fill:#ff00ff;fill-opacity:1;stroke:none;stroke-width:0.512348"
       id="shadow-hint-top-margin"
       width="6"
       height="31.499914"
       x="241"
       y="149" />
    <rect
       style="fill:#ff00ff;fill-opacity:1;stroke:none;stroke-width:1.47006"
       id="shadow-hint-bottom-margin"
       width="6"
       height="88.5"
       x="242.5"
       y="354.5" />
    <rect
       style="fill:#ff00ff;fill-opacity:1;stroke:none;stroke-width:0.779043"
       id="shadow-hint-right-margin"
       width="61.5"
       height="6"
       x="406"
       y="270.5" />
    <rect
       style="fill:#ff00ff;fill-opacity:1;stroke:none;stroke-width:0.779043"
       id="shadow-hint-left-margin"
       width="61.5"
       height="6"
       x="40"
       y="261.5" />
    <rect
       id="hint-top-margin"
       width="6"
       height="76.5"
       x="259"
       y="149"
       style="fill:#00ff29;fill-opacity:1;stroke:none;stroke-width:1.43019" />
    <rect
       id="hint-bottom-margin"
       width="6"
       height="88.5"
       x="260.5"
       y="354.5"
       style="fill:#00ff29;fill-opacity:1;stroke:none;stroke-width:1.3029" />
    <rect
       id="hint-right-margin"
       width="6"
       height="105"
       x="254"
       y="-467.5"
       transform="rotate(90)"
       style="fill:#00ff29;fill-opacity:1;stroke:none;stroke-width:1.32842" />
    <rect
       id="hint-left-margin"
       width="6"
       height="105"
       x="249.5"
       y="-145"
       transform="rotate(90)"
       style="fill:#00ff29;fill-opacity:1;stroke:none;stroke-width:1.32922" />
    <g
       transform="matrix(-1.5,0,0,1.5,782.49998,-121.09375)"
       id="decoration-topleft">
      <path
         id="path1019"
         style="opacity:0.5;fill:url(#radialGradient1306);fill-opacity:1;stroke:none"
         d="m 40,65 v 51 H 81 V 98 c 0,-6.648 5.352,-12 12,-12 h 17 V 65 Z"
         transform="matrix(-1,0,0,1,535,115.0625)" />
      <path
         id="path1023"
         style="fill:#363636;fill-opacity:1;stroke:none;stroke-width:1"
         d="m 442,201.0625 c 6.648,0 12,5.352 12,12 v 18 h -29 v -30 z" />
      <path
         d="m 442,201.0625 c 6.648,0 12,5.352 12,12 v 0.59961 c 0,-6.4264 -5.352,-11.59961 -12,-11.59961 h -17 v -1 z"
         style="opacity:0.1;fill:#ffffff;fill-opacity:1;stroke:none;stroke-width:1"
         id="path961" />
      <path
         id="path187"
         style="opacity:0.75;fill:#000000;fill-opacity:1;stroke:none"
         d="m 93,85 c -7.202,0 -13,5.798 -13,13 v 18 h 1 V 98 c 0,-6.648 5.352,-12 12,-12 h 17 v -1 z"
         transform="matrix(-1,0,0,1,535,115.0625)" />
    </g>
    <use
       x="0"
       y="0"
       xlink:href="#decoration-topleft"
       id="decoration-topright"
       transform="matrix(-1,0,0,1,507.49999,0)"
       width="100%"
       height="100%" />
    <use
       x="0"
       y="0"
       xlink:href="#decoration-inactive-topleft"
       id="decoration-inactive-topright"
       transform="matrix(-1,0,0,1,1587.5,0)"
       width="100%"
       height="100%" />
    <use
       x="0"
       y="0"
       xlink:href="#decoration-bottomleft"
       id="decoration-bottomright"
       transform="matrix(-1,0,0,1,507.49999,0)"
       width="100%"
       height="100%" />
    <use
       x="0"
       y="0"
       xlink:href="#decoration-inactive-bottomleft"
       id="decoration-inactive-bottomright"
       transform="matrix(-1,0,0,1,1587.5,0)"
       width="100%"
       height="100%" />
    <g
       transform="matrix(1.5,0,0,1.5,780.99998,-121.09442)"
       id="mask-topleft">
      <path
         id="path957"
         d="M 400,64.99995 V 116 h 41 V 98 c 0,-6.648 5.352,-12 12,-12 h 17 V 64.99995 Z"
         transform="translate(-140,115.063)"
         style="fill:none"
         sodipodi:nodetypes="cccssccc" />
      <path
         d="m 313,201.063 c -6.648,0 -12,5.352 -12,12 v 17.93555 0.0644 h 29 v -30 z"
         id="path1101" />
    </g>
    <g
       id="mask-bottom"
       transform="matrix(1.5,0,0,1.5,787.35866,-60.88303)">
      <path
         d="m 325.76088,276.92202 v 59 h 145 v -59 z"
         id="path975"
         style="fill:none" />
    </g>
    <g
       id="mask-center"
       transform="matrix(1.5,0,0,1.5,-20.358671,-74.499992)">
      <path
         d="m 864.23912,200 v 86 h 144.99998 v -86 z"
         id="path983" />
    </g>
    <g
       id="mask-top"
       transform="matrix(1.5,0,0,1.5,788.49998,-83.499999)">
      <path
         d="M 525,20 V 41 H 670 V 20 Z"
         transform="translate(-200,135)"
         id="path985"
         style="fill:none"
         sodipodi:nodetypes="ccccc" />
      <path
         d="m 325,176 v 30 h 145 v -30 z"
         id="path989" />
    </g>
    <g
       id="mask-left"
       transform="matrix(1.5,0,0,1.5,751.18748,-70.023219)">
      <path
         d="m 279.875,197.01548 v 86 l 41,-0.0155 v -85.98452 z"
         id="path995"
         style="fill:none"
         sodipodi:nodetypes="ccccc" />
      <path
         d="m 320.875,197.01548 v 86 h 29 v -86 z"
         id="path999" />
    </g>
    <g
       id="mask-bottomleft"
       transform="matrix(0.99999998,0,0,0.90306121,795.49999,97.724484)">
      <path
         id="path1005"
         d="m 375.5,284.33898 v 98 h 105 l -10e-6,-98 z"
         style="fill:none" />
    </g>
    <use
       x="0"
       y="0"
       xlink:href="#mask-topleft"
       id="mask-topright"
       transform="matrix(-1,0,0,1,2769.4999,0)"
       width="100%"
       height="100%" />
    <use
       x="0"
       y="0"
       xlink:href="#mask-bottomleft"
       id="mask-bottomright"
       transform="matrix(-1,0,0,1,2769.8586,2.9999999e-6)"
       width="100%"
       height="100%" />
    <use
       x="0"
       y="0"
       xlink:href="#mask-left"
       id="mask-right"
       transform="matrix(-1,0,0,1,2769.4999,0)"
       width="100%"
       height="100%" />
    <use
       x="0"
       y="0"
       xlink:href="#decoration-inactive-left"
       id="decoration-inactive-right"
       transform="matrix(-1,0,0,1,1587.5,0)" />
  </g>
</svg>
