<?xml version="1.0" encoding="UTF-8" standalone="no"?>
<svg
   xmlns:dc="http://purl.org/dc/elements/1.1/"
   xmlns:cc="http://creativecommons.org/ns#"
   xmlns:rdf="http://www.w3.org/1999/02/22-rdf-syntax-ns#"
   xmlns:svg="http://www.w3.org/2000/svg"
   xmlns="http://www.w3.org/2000/svg"
   xmlns:xlink="http://www.w3.org/1999/xlink"
   xmlns:sodipodi="http://sodipodi.sourceforge.net/DTD/sodipodi-0.dtd"
   xmlns:inkscape="http://www.inkscape.org/namespaces/inkscape"
   width="2560"
   height="1440"
   viewBox="0 0 677.33332 381.00001"
   version="1.1"
   id="svg8"
   inkscape:version="1.0 (4035a4fb49, 2020-05-01)"
   sodipodi:docname="WhiteSur.svg"
   inkscape:export-filename="/home/vince/github/WhiteSur-kde/wallpaper/WhiteSur.png"
   inkscape:export-xdpi="96"
   inkscape:export-ydpi="96">
  <defs
     id="defs2">
    <linearGradient
       inkscape:collect="always"
       id="linearGradient884">
      <stop
         style="stop-color:#fe3235;stop-opacity:1;"
         offset="0"
         id="stop880" />
      <stop
         style="stop-color:#fe3235;stop-opacity:0"
         offset="1"
         id="stop882" />
    </linearGradient>
    <linearGradient
       id="linearGradient993"
       inkscape:collect="always">
      <stop
         id="stop989"
         offset="0"
         style="stop-color:#fe3235;stop-opacity:1" />
      <stop
         id="stop991"
         offset="1"
         style="stop-color:#ff5637;stop-opacity:0" />
    </linearGradient>
    <linearGradient
       inkscape:collect="always"
       id="linearGradient981">
      <stop
         style="stop-color:#493b76;stop-opacity:1"
         offset="0"
         id="stop977" />
      <stop
         style="stop-color:#fd0263;stop-opacity:1"
         offset="1"
         id="stop979" />
    </linearGradient>
    <linearGradient
       inkscape:collect="always"
       id="linearGradient920">
      <stop
         style="stop-color:#fd0168;stop-opacity:1"
         offset="0"
         id="stop916" />
      <stop
         style="stop-color:#fe0731;stop-opacity:1"
         offset="1"
         id="stop918" />
    </linearGradient>
    <linearGradient
       inkscape:collect="always"
       id="linearGradient912">
      <stop
         style="stop-color:#0f70b7;stop-opacity:1"
         offset="0"
         id="stop908" />
      <stop
         style="stop-color:#1092d1;stop-opacity:1"
         offset="1"
         id="stop910" />
    </linearGradient>
    <linearGradient
       inkscape:collect="always"
       id="linearGradient904">
      <stop
         style="stop-color:#0d73bb;stop-opacity:1"
         offset="0"
         id="stop900" />
      <stop
         style="stop-color:#11adea;stop-opacity:1"
         offset="1"
         id="stop902" />
    </linearGradient>
    <linearGradient
       inkscape:collect="always"
       id="linearGradient896">
      <stop
         style="stop-color:#0776b9;stop-opacity:1"
         offset="0"
         id="stop892" />
      <stop
         style="stop-color:#1ab4f0;stop-opacity:1"
         offset="1"
         id="stop894" />
    </linearGradient>
    <linearGradient
       inkscape:collect="always"
       id="linearGradient883">
      <stop
         style="stop-color:#e0f1f9;stop-opacity:1"
         offset="0"
         id="stop879" />
      <stop
         style="stop-color:#b1d0fe;stop-opacity:1"
         offset="1"
         id="stop881" />
    </linearGradient>
    <linearGradient
       id="linearGradient875">
      <stop
         style="stop-color:#ffba23;stop-opacity:1"
         offset="0"
         id="stop871" />
      <stop
         id="stop1010"
         offset="0.61843717"
         style="stop-color:#fe9a06;stop-opacity:1" />
      <stop
         style="stop-color:#d0e6fb;stop-opacity:1"
         offset="1"
         id="stop873" />
    </linearGradient>
    <linearGradient
       inkscape:collect="always"
       id="linearGradient867">
      <stop
         style="stop-color:#ff604b;stop-opacity:1"
         offset="0"
         id="stop863" />
      <stop
         style="stop-color:#fd0c67;stop-opacity:1"
         offset="1"
         id="stop865" />
    </linearGradient>
    <linearGradient
       inkscape:collect="always"
       xlink:href="#linearGradient875"
       id="linearGradient877"
       x1="182.64082"
       y1="128.45657"
       x2="188.92513"
       y2="37.452305"
       gradientUnits="userSpaceOnUse"
       gradientTransform="translate(1166.2995,-456.50314)" />
    <linearGradient
       inkscape:collect="always"
       xlink:href="#linearGradient883"
       id="linearGradient885"
       x1="130.783"
       y1="57.6035"
       x2="141.18773"
       y2="-17.655798"
       gradientUnits="userSpaceOnUse"
       gradientTransform="matrix(3.7795276,0,0,3.7795276,4408.0611,-1725.3662)" />
    <linearGradient
       inkscape:collect="always"
       xlink:href="#linearGradient896"
       id="linearGradient898"
       x1="1317.5939"
       y1="194.89507"
       x2="-550.49469"
       y2="-387.51196"
       gradientUnits="userSpaceOnUse"
       gradientTransform="translate(1267.2675,330.01054)" />
    <linearGradient
       inkscape:collect="always"
       xlink:href="#linearGradient904"
       id="linearGradient906"
       x1="379.43671"
       y1="46.941826"
       x2="48.459305"
       y2="-107.11964"
       gradientUnits="userSpaceOnUse"
       gradientTransform="matrix(3.7795276,0,0,3.7795276,1267.2657,330.01334)" />
    <linearGradient
       inkscape:collect="always"
       xlink:href="#linearGradient912"
       id="linearGradient914"
       x1="352.32141"
       y1="-62.433632"
       x2="118.90117"
       y2="-66.847893"
       gradientUnits="userSpaceOnUse"
       gradientTransform="translate(1166.2995,-456.50314)" />
    <linearGradient
       inkscape:collect="always"
       xlink:href="#linearGradient920"
       id="linearGradient922"
       x1="-9.9041061"
       y1="216.10745"
       x2="19.693565"
       y2="140.66058"
       gradientUnits="userSpaceOnUse"
       gradientTransform="translate(1166.2995,-456.50314)" />
    <linearGradient
       inkscape:collect="always"
       xlink:href="#linearGradient867"
       id="linearGradient965"
       gradientUnits="userSpaceOnUse"
       x1="-43.428421"
       y1="140.20001"
       x2="-26.875029"
       y2="-49.675152"
       gradientTransform="translate(1166.2995,-456.50314)" />
    <linearGradient
       inkscape:collect="always"
       xlink:href="#linearGradient981"
       id="linearGradient983"
       x1="3553.7595"
       y1="-441.5799"
       x2="3818.895"
       y2="-1203.4667"
       gradientUnits="userSpaceOnUse" />
    <linearGradient
       inkscape:collect="always"
       xlink:href="#linearGradient993"
       id="linearGradient987"
       gradientUnits="userSpaceOnUse"
       gradientTransform="translate(1166.2995,-456.50314)"
       x1="166.31357"
       y1="215.82294"
       x2="127.5431"
       y2="111.19478" />
    <linearGradient
       inkscape:collect="always"
       xlink:href="#linearGradient884"
       id="linearGradient886"
       x1="1476.0214"
       y1="-245.54562"
       x2="1397.335"
       y2="-201.12416"
       gradientUnits="userSpaceOnUse" />
  </defs>
  <sodipodi:namedview
     id="base"
     pagecolor="#ffffff"
     bordercolor="#666666"
     borderopacity="1.0"
     inkscape:pageopacity="0.0"
     inkscape:pageshadow="2"
     inkscape:zoom="0.3535534"
     inkscape:cx="1144.4911"
     inkscape:cy="688.53077"
     inkscape:document-units="mm"
     inkscape:current-layer="layer1"
     inkscape:document-rotation="0"
     showgrid="false"
     units="px"
     inkscape:window-width="1920"
     inkscape:window-height="1022"
     inkscape:window-x="0"
     inkscape:window-y="32"
     inkscape:window-maximized="1" />
  <metadata
     id="metadata5">
    <rdf:RDF>
      <cc:Work
         rdf:about="">
        <dc:format>image/svg+xml</dc:format>
        <dc:type
           rdf:resource="http://purl.org/dc/dcmitype/StillImage" />
        <dc:title></dc:title>
      </cc:Work>
    </rdf:RDF>
  </metadata>
  <g
     inkscape:label="Layer 1"
     inkscape:groupmode="layer"
     id="layer1">
    <g
       id="g1021"
       transform="translate(-831.00164,543.81843)">
      <rect
         ry="0.080329984"
         y="-543.81909"
         x="831.00214"
         height="381"
         width="677.33331"
         id="rect24"
         style="fill:url(#linearGradient965);fill-opacity:1;stroke-width:0.292824;stroke-linecap:round;stroke-linejoin:round;paint-order:stroke fill markers" />
      <rect
         style="fill:url(#linearGradient987);fill-opacity:1;stroke-width:0.292824;stroke-linecap:round;stroke-linejoin:round;paint-order:stroke fill markers"
         id="rect985"
         width="677.33331"
         height="381"
         x="831.00214"
         y="-543.81909"
         ry="0.080329984" />
      <path
         d="m 831.00215,-476.35826 v 313.41964 c 0,0.0663 0.0536,0.11935 0.11988,0.11935 h 677.09357 c 0.066,0 0.1199,-0.0531 0.1199,-0.11935 v -81.08654 c -7.3958,-4.91537 -16.8213,-9.4105 -28.7301,-12.37495 -41.8924,-10.42827 -59.8049,14.25101 -86.2381,5.41311 -26.4333,-8.8379 -73.685,-15.64176 -128.7611,-19.92799 -55.0762,-4.28623 -63.176,-19.99888 -123.0034,-49.07762 -59.8274,-29.07875 -153.22998,-51.57124 -223.64783,-88.30572 -44.00769,-22.95725 -72.08329,-50.57402 -86.95282,-68.05993 z"
         style="fill:url(#linearGradient922);fill-opacity:1;stroke:none;stroke-width:0.264583px;stroke-linecap:butt;stroke-linejoin:miter;stroke-opacity:1"
         id="path861" />
      <path
         transform="matrix(0.26458333,0,0,0.26458333,831.00164,-543.81843)"
         d="M 643.35156 0 C 647.83139 2.0341007 825.76563 82.968047 909.96289 144.24609 C 930.27369 159.02789 950.65705 175.00408 970.49805 191.08789 C 970.53585 191.09189 970.53558 191.08803 970.54688 191.0957 C 1465.4799 406.26264 1803.7306 507.31712 2559.998 591.46875 L 2559.998 0.4296875 C 2559.9877 0.19680897 2559.8048 0.012351911 2559.5723 0 L 643.35156 0 z "
         style="fill:url(#linearGradient898);fill-opacity:1;stroke:none;stroke-width:0.999999px;stroke-linecap:butt;stroke-linejoin:miter;stroke-opacity:1"
         id="path28" />
      <path
         transform="scale(0.26458333)"
         d="m 4111.125,-1864.3203 v 0 c -1.3444,0.2578 23.7129,19.9063 23.7129,19.9063 0,0 80.1479,75.8459 128.1191,101.8144 100.9601,54.653 194.5508,84.1893 299.1953,107.2598 48.1994,38.1779 144.7297,85.9363 180.8283,97.5763 400.0555,99.3696 661.1996,173.7312 957.8143,365.5507 v -164.2286 c -3.9595,-1.7972 -8.4944,-3.8504 -13.5449,-6.123 5.0466,2.2707 9.584,4.3233 13.5449,6.1211 v -209.2793 c -20.9522,-12.1696 -51.4488,-28.2406 -76.8476,-35.0039 -43.324,-11.5364 -164.5853,-20.0338 -325.0274,-37.2617 -160.4417,-17.228 -223.0027,-86.1874 -273.9023,-103.5157 -50.8993,-17.3282 -84.6681,-3.1122 -134.502,-31.0078 -49.8342,-27.8956 -106.8631,-45.6464 -176.0039,-45.6464 -69.1411,0 -216.4952,18.0089 -340.8496,-0.9493 -124.354,-18.9581 -184.323,-39.1719 -262.3223,-65.1757 -0.098,-0.034 -0.1694,-0.047 -0.2148,-0.039 z m 1191.9746,378.4648 c 7.11,1.5057 13.7583,2.9253 19.3828,4.1504 3.2484,0.7076 6.6014,1.4838 10.0508,2.3262 -3.449,-0.8423 -6.8026,-1.6187 -10.0508,-2.3262 -5.532,-1.205 -12.52,-2.6901 -19.3828,-4.1504 z"
         style="fill:url(#linearGradient885);fill-opacity:1;stroke:none;stroke-width:0.999999px;stroke-linecap:butt;stroke-linejoin:miter;stroke-opacity:1"
         id="path859"
         sodipodi:nodetypes="cscscccccccssssssccccscsc" />
      <path
         id="path857"
         style="fill:url(#linearGradient906);fill-opacity:1;stroke:none;stroke-width:0.999999px;stroke-linecap:butt;stroke-linejoin:miter;stroke-opacity:1"
         d="m 923.11133,0 c 8.12468,5.0781696 83.98027,50.523483 231.84957,73.447266 156.7442,24.299754 118.3448,5.313791 210.2266,22.279296 91.8818,16.965468 163.1097,68.987188 259.7715,89.330078 96.6618,20.34289 151.638,8.83989 247.3984,34.23242 95.7604,25.39257 135.9808,69.53885 276.7871,108.21094 126.639,34.78119 340.5331,94.27759 410.8535,127.45703 V 0.44335938 C 2559.9925,0.19755111 2559.7925,0 2559.5469,0 Z"
         transform="matrix(0.26458333,0,0,0.26458333,831.00212,-543.81917)" />
      <path
         d="m 1295.7572,-543.81926 c 8.6497,5.16492 21.3009,11.96389 39.8813,20.80442 57.0894,27.16306 93.5183,36.33357 121.4396,40.02029 20.3025,2.68074 41.2566,6.83883 51.2574,8.92297 v -69.62779 c 0,-0.0663 -0.054,-0.11989 -0.1199,-0.11989 z"
         style="fill:url(#linearGradient914);fill-opacity:1;stroke:none;stroke-width:0.289462px;stroke-linecap:butt;stroke-linejoin:miter;stroke-opacity:1"
         id="path855" />
      <path
         d="m 1201.1392,-434.03576 c 17.2617,6.50325 30.8786,30.051 45.8313,34.13898 19.9059,5.44218 36.2897,6.04035 57.0203,16.60002 20.7307,10.55968 39.0331,29.50166 60.7379,33.70802 21.7049,4.20637 31.4624,2.31772 42.9524,10.89805 8.0383,6.00269 13.1927,19.25949 26.7602,24.72614 20.42,8.22765 45.4991,1.43515 58.6568,2.22156 8.483,0.50701 13.043,1.17917 15.2374,1.59577 v -43.45264 c -16.7619,-7.60845 -72.5782,-32.44106 -100.0952,-38.43486 -32.5893,-7.09867 -156.5909,-31.74302 -187.5462,-38.19354 -4.8135,-1.00305 -14.6595,-2.67162 -19.5549,-3.8075 z"
         style="fill:url(#linearGradient877);fill-opacity:1;stroke:none;stroke-width:0.264583px;stroke-linecap:butt;stroke-linejoin:miter;stroke-opacity:1"
         id="path890"
         sodipodi:nodetypes="cssssssccssc" />
      <path
         transform="scale(0.26458333)"
         d="m 3140.7949,-1497.8652 v 882.18161 c 0,0.16819 0.1365,0.30468 0.3047,0.30468 h 2458.9981 c -19.3615,-33.26519 -59.9382,-78.49056 -131.9336,-118.48242 -108.7522,-60.40913 -279.875,-107.68374 -559.5664,-148.08984 -279.6915,-40.4061 -521.3748,-110.00287 -773.3106,-158.49023 -251.9357,-48.4873 -585.8105,-199.6377 -733.9766,-284.0254 -142.5975,-81.2162 -252.3837,-167.0021 -260.5156,-173.3984 z"
         style="fill:url(#linearGradient983);fill-opacity:1;stroke:none;stroke-width:0.999999px;stroke-linecap:butt;stroke-linejoin:miter;stroke-opacity:1"
         id="path959" />
      <path
         id="path877"
         style="fill:url(#linearGradient886);fill-opacity:1;stroke:none;stroke-width:0.264583px;stroke-linecap:butt;stroke-linejoin:miter;stroke-opacity:1;opacity:0.75"
         d="m 831.00215,-476.35826 v 313.41964 c 0,0.0663 0.0536,0.11935 0.11988,0.11935 h 677.09357 c 0.066,0 0.1199,-0.0531 0.1199,-0.11935 v -81.08654 c -7.3958,-4.91537 -16.8213,-9.4105 -28.7301,-12.37495 -41.8924,-10.42827 -59.8049,14.25101 -86.2381,5.41311 -26.4333,-8.8379 -73.685,-15.64176 -128.7611,-19.92799 -55.0762,-4.28623 -63.176,-19.99888 -123.0034,-49.07762 -59.8274,-29.07875 -153.22998,-51.57124 -223.64783,-88.30572 -44.00769,-22.95725 -72.08329,-50.57402 -86.95282,-68.05993 z" />
    </g>
  </g>
</svg>
